<?xml version="1.0" standalone="no"?>
<!DOCTYPE svg PUBLIC "-//W3C//DTD SVG 1.1//EN" "http://www.w3.org/Graphics/SVG/1.1/DTD/svg11.dtd">
<svg width="2018mm" height="5047mm" viewBox="10 -5057 2018 5047" xmlns="http://www.w3.org/2000/svg" version="1.1">
<title>OpenSCAD Model</title>
<path d="
M 504.227,-5056.1 L 501.178,-5056.1 L 501.178,-5040 L 504.227,-5040 z
M 27.8566,-5056.1 L 24.8076,-5056.1 L 24.8076,-5053.86 L 27.8566,-5053.86 z
M 34.4175,-5049.68 L 36.7285,-5049.68 L 36.7285,-5051.74 L 34.4175,-5051.74 L 34.4175,-5052.66 L 34.4375,-5053.02
 L 34.4975,-5053.33 L 34.5975,-5053.57 L 34.7375,-5053.75 L 34.9264,-5053.89 L 35.1729,-5053.98 L 35.4771,-5054.04
 L 35.8389,-5054.06 L 36.0613,-5054.06 L 36.2837,-5054.04 L 36.5061,-5054.01 L 36.7285,-5053.96 L 36.7285,-5055.93
 L 36.205,-5056 L 35.7087,-5056.06 L 35.2394,-5056.09 L 34.7973,-5056.1 L 33.9897,-5056.05 L 33.2919,-5055.91
 L 32.7039,-5055.67 L 32.2258,-5055.33 L 31.8555,-5054.89 L 31.5911,-5054.35 L 31.4324,-5053.71 L 31.3795,-5052.97
 L 31.3795,-5051.74 L 29.6651,-5051.74 L 29.6651,-5049.68 L 31.3795,-5049.68 L 31.3795,-5040 L 34.4175,-5040
 z
M 310.059,-5056.1 L 307.01,-5056.1 L 307.01,-5053.86 L 310.059,-5053.86 z
M 556.097,-5056.1 L 553.048,-5056.1 L 553.048,-5053.86 L 556.097,-5053.86 z
M 367.926,-5056.1 L 364.877,-5056.1 L 364.877,-5040 L 367.926,-5040 z
M 414.974,-5056.1 L 411.925,-5056.1 L 411.925,-5053.86 L 414.974,-5053.86 z
M 422.872,-5039.92 L 423.922,-5040.31 L 424.749,-5040.98 L 425.354,-5041.91 L 425.398,-5041.91 L 425.401,-5041.68
 L 425.413,-5041.42 L 425.431,-5041.13 L 425.457,-5040.82 L 425.486,-5040.52 L 425.513,-5040.29 L 425.538,-5040.11
 L 425.56,-5040 L 428.512,-5040 L 428.474,-5040.71 L 428.446,-5041.38 L 428.43,-5041.99 L 428.425,-5042.56
 L 428.425,-5056.1 L 425.376,-5056.1 L 425.376,-5051.82 L 425.398,-5049.88 L 425.376,-5049.88 L 425.106,-5050.37
 L 424.783,-5050.79 L 424.409,-5051.14 L 423.982,-5051.44 L 423.507,-5051.66 L 422.99,-5051.83 L 422.43,-5051.92
 L 421.828,-5051.96 L 420.81,-5051.86 L 419.914,-5051.56 L 419.142,-5051.06 L 418.492,-5050.37 L 417.977,-5049.49
 L 417.609,-5048.45 L 417.388,-5047.24 L 417.314,-5045.86 L 417.384,-5044.5 L 417.594,-5043.3 L 417.943,-5042.26
 L 418.432,-5041.38 L 419.049,-5040.68 L 419.783,-5040.18 L 420.633,-5039.88 L 421.6,-5039.78 z
M 421.842,-5042.12 L 421.093,-5042.86 L 420.643,-5044.11 L 420.493,-5045.86 L 420.531,-5046.81 L 420.643,-5047.64
 L 420.829,-5048.33 L 421.09,-5048.89 L 421.428,-5049.33 L 421.844,-5049.64 L 422.339,-5049.82 L 422.913,-5049.88
 L 423.494,-5049.82 L 423.999,-5049.63 L 424.43,-5049.31 L 424.785,-5048.86 L 425.062,-5048.29 L 425.261,-5047.62
 L 425.38,-5046.83 L 425.419,-5045.93 L 425.378,-5045.01 L 425.254,-5044.21 L 425.047,-5043.51 L 424.757,-5042.92
 L 424.393,-5042.46 L 423.96,-5042.13 L 423.46,-5041.93 L 422.891,-5041.87 z
M 404.812,-5039.86 L 406.132,-5040.08 L 407.256,-5040.45 L 408.186,-5040.97 L 408.915,-5041.63 L 409.436,-5042.42
 L 409.748,-5043.35 L 409.852,-5044.41 L 409.834,-5044.87 L 409.779,-5045.3 L 409.687,-5045.71 L 409.559,-5046.09
 L 409.396,-5046.45 L 409.201,-5046.77 L 408.973,-5047.07 L 408.713,-5047.35 L 408.411,-5047.61 L 408.06,-5047.84
 L 407.66,-5048.07 L 407.21,-5048.27 L 406.657,-5048.48 L 405.947,-5048.69 L 405.081,-5048.91 L 404.058,-5049.14
 L 403.208,-5049.33 L 402.515,-5049.5 L 401.977,-5049.66 L 401.595,-5049.8 L 401.31,-5049.94 L 401.062,-5050.1
 L 400.852,-5050.27 L 400.678,-5050.45 L 400.543,-5050.65 L 400.446,-5050.88 L 400.388,-5051.14 L 400.369,-5051.43
 L 400.551,-5052.22 L 401.096,-5052.79 L 402.005,-5053.13 L 403.277,-5053.25 L 403.921,-5053.22 L 404.485,-5053.12
 L 404.971,-5052.97 L 405.376,-5052.75 L 405.712,-5052.47 L 405.985,-5052.13 L 406.197,-5051.73 L 406.347,-5051.26
 L 409.451,-5051.69 L 409.181,-5052.64 L 408.785,-5053.45 L 408.261,-5054.11 L 407.611,-5054.63 L 406.81,-5055.02
 L 405.831,-5055.29 L 404.675,-5055.46 L 403.342,-5055.52 L 401.944,-5055.45 L 400.723,-5055.24 L 399.679,-5054.9
 L 398.812,-5054.41 L 398.131,-5053.8 L 397.644,-5053.07 L 397.353,-5052.22 L 397.255,-5051.24 L 397.268,-5050.85
 L 397.308,-5050.47 L 397.374,-5050.12 L 397.467,-5049.8 L 397.583,-5049.49 L 397.72,-5049.21 L 397.879,-5048.95
 L 398.058,-5048.7 L 398.258,-5048.48 L 398.478,-5048.27 L 398.719,-5048.08 L 398.98,-5047.9 L 399.26,-5047.74
 L 399.555,-5047.59 L 399.867,-5047.46 L 400.195,-5047.33 L 400.597,-5047.2 L 401.129,-5047.05 L 401.79,-5046.87
 L 402.583,-5046.68 L 403.495,-5046.49 L 404.247,-5046.31 L 404.838,-5046.15 L 405.268,-5046 L 405.598,-5045.85
 L 405.889,-5045.68 L 406.141,-5045.5 L 406.353,-5045.29 L 406.521,-5045.07 L 406.642,-5044.81 L 406.714,-5044.53
 L 406.738,-5044.22 L 406.529,-5043.33 L 405.9,-5042.69 L 404.852,-5042.31 L 403.385,-5042.18 L 402.621,-5042.22
 L 401.945,-5042.32 L 401.357,-5042.49 L 400.857,-5042.73 L 400.439,-5043.04 L 400.095,-5043.44 L 399.826,-5043.93
 L 399.631,-5044.49 L 396.539,-5043.98 L 396.852,-5042.99 L 397.315,-5042.13 L 397.927,-5041.41 L 398.687,-5040.82
 L 399.602,-5040.37 L 400.676,-5040.04 L 401.908,-5039.85 L 403.299,-5039.78 z
M 182.632,-5039.85 L 183.718,-5040.05 L 184.718,-5040.39 L 185.632,-5040.86 L 186.45,-5041.47 L 187.163,-5042.23
 L 187.771,-5043.12 L 188.274,-5044.16 L 185.485,-5045.21 L 184.811,-5043.94 L 183.915,-5043.03 L 182.798,-5042.48
 L 181.46,-5042.3 L 180.434,-5042.39 L 179.536,-5042.65 L 178.766,-5043.08 L 178.124,-5043.69 L 177.618,-5044.46
 L 177.257,-5045.39 L 177.041,-5046.47 L 176.968,-5047.71 L 177.038,-5048.93 L 177.249,-5050 L 177.6,-5050.9
 L 178.091,-5051.65 L 178.718,-5052.24 L 179.476,-5052.66 L 180.365,-5052.91 L 181.384,-5053 L 182.071,-5052.96
 L 182.712,-5052.83 L 183.306,-5052.62 L 183.853,-5052.32 L 184.333,-5051.95 L 184.727,-5051.52 L 185.036,-5051.04
 L 185.258,-5050.49 L 188.079,-5051.26 L 187.674,-5052.25 L 187.143,-5053.1 L 186.486,-5053.83 L 185.702,-5054.44
 L 184.794,-5054.91 L 183.76,-5055.25 L 182.602,-5055.45 L 181.319,-5055.52 L 179.584,-5055.39 L 178.067,-5055.01
 L 176.768,-5054.38 L 175.688,-5053.5 L 174.838,-5052.38 L 174.231,-5051.04 L 173.867,-5049.49 L 173.746,-5047.71
 L 173.872,-5045.94 L 174.249,-5044.38 L 174.878,-5043.02 L 175.758,-5041.87 L 176.87,-5040.96 L 178.19,-5040.31
 L 179.72,-5039.91 L 181.46,-5039.78 z
M 151.288,-5039.85 L 152.374,-5040.05 L 153.374,-5040.39 L 154.288,-5040.86 L 155.106,-5041.47 L 155.819,-5042.23
 L 156.427,-5043.12 L 156.93,-5044.16 L 154.141,-5045.21 L 153.467,-5043.94 L 152.571,-5043.03 L 151.454,-5042.48
 L 150.116,-5042.3 L 149.09,-5042.39 L 148.192,-5042.65 L 147.422,-5043.08 L 146.78,-5043.69 L 146.274,-5044.46
 L 145.913,-5045.39 L 145.696,-5046.47 L 145.624,-5047.71 L 145.694,-5048.93 L 145.905,-5050 L 146.256,-5050.9
 L 146.747,-5051.65 L 147.374,-5052.24 L 148.132,-5052.66 L 149.021,-5052.91 L 150.04,-5053 L 150.727,-5052.96
 L 151.368,-5052.83 L 151.962,-5052.62 L 152.509,-5052.32 L 152.989,-5051.95 L 153.383,-5051.52 L 153.691,-5051.04
 L 153.913,-5050.49 L 156.735,-5051.26 L 156.33,-5052.25 L 155.799,-5053.1 L 155.142,-5053.83 L 154.358,-5054.44
 L 153.45,-5054.91 L 152.416,-5055.25 L 151.258,-5055.45 L 149.975,-5055.52 L 148.24,-5055.39 L 146.723,-5055.01
 L 145.424,-5054.38 L 144.344,-5053.5 L 143.494,-5052.38 L 142.887,-5051.04 L 142.523,-5049.49 L 142.402,-5047.71
 L 142.527,-5045.94 L 142.905,-5044.38 L 143.534,-5043.02 L 144.414,-5041.87 L 145.525,-5040.96 L 146.846,-5040.31
 L 148.376,-5039.91 L 150.116,-5039.78 z
M 122.791,-5042.51 L 115.695,-5042.51 L 115.867,-5042.85 L 116.079,-5043.19 L 116.331,-5043.52 L 116.623,-5043.83
 L 116.943,-5044.14 L 117.28,-5044.45 L 117.635,-5044.75 L 118.006,-5045.06 L 118.389,-5045.36 L 118.778,-5045.67
 L 119.173,-5045.99 L 119.574,-5046.3 L 119.969,-5046.63 L 120.346,-5046.97 L 120.704,-5047.32 L 121.044,-5047.68
 L 121.36,-5048.05 L 121.646,-5048.44 L 121.903,-5048.85 L 122.129,-5049.28 L 122.314,-5049.72 L 122.446,-5050.2
 L 122.526,-5050.69 L 122.552,-5051.22 L 122.47,-5052.18 L 122.221,-5053.03 L 121.808,-5053.77 L 121.229,-5054.39
 L 120.495,-5054.88 L 119.617,-5055.23 L 118.596,-5055.44 L 117.431,-5055.52 L 116.346,-5055.45 L 115.382,-5055.24
 L 114.537,-5054.89 L 113.813,-5054.4 L 113.215,-5053.78 L 112.751,-5053.03 L 112.42,-5052.15 L 112.223,-5051.15
 L 115.294,-5050.98 L 115.392,-5051.47 L 115.536,-5051.9 L 115.726,-5052.26 L 115.961,-5052.56 L 116.247,-5052.79
 L 116.592,-5052.95 L 116.993,-5053.05 L 117.453,-5053.09 L 118.331,-5052.96 L 118.958,-5052.59 L 119.334,-5051.96
 L 119.46,-5051.09 L 119.42,-5050.68 L 119.299,-5050.27 L 119.097,-5049.85 L 118.814,-5049.43 L 118.432,-5048.98
 L 117.929,-5048.47 L 117.306,-5047.9 L 116.563,-5047.28 L 115.763,-5046.61 L 115.034,-5045.95 L 114.377,-5045.31
 L 113.791,-5044.68 L 113.272,-5044.05 L 112.816,-5043.41 L 112.423,-5042.77 L 112.093,-5042.12 L 112.093,-5040
 L 122.791,-5040 z
M 207.426,-5042.47 L 199.223,-5042.47 L 199.223,-5055.29 L 196.022,-5055.29 L 196.022,-5040 L 207.426,-5040
 z
M 130.716,-5039.87 L 131.823,-5040.14 L 132.791,-5040.59 L 133.618,-5041.22 L 134.28,-5042 L 134.753,-5042.91
 L 135.037,-5043.94 L 135.131,-5045.09 L 135.05,-5046.19 L 134.805,-5047.18 L 134.396,-5048.04 L 133.824,-5048.78
 L 133.116,-5049.37 L 132.298,-5049.79 L 131.372,-5050.05 L 130.336,-5050.13 L 129.54,-5050.07 L 128.814,-5049.89
 L 128.157,-5049.58 L 127.569,-5049.16 L 127.819,-5053.02 L 134.242,-5053.02 L 134.242,-5055.29 L 125.052,-5055.29
 L 124.52,-5046.68 L 127.493,-5046.68 L 127.924,-5047.12 L 128.413,-5047.42 L 128.96,-5047.61 L 129.565,-5047.67
 L 130.108,-5047.63 L 130.588,-5047.49 L 131.004,-5047.26 L 131.356,-5046.95 L 131.636,-5046.56 L 131.836,-5046.11
 L 131.956,-5045.6 L 131.996,-5045.02 L 131.953,-5044.38 L 131.826,-5043.82 L 131.614,-5043.33 L 131.318,-5042.93
 L 130.95,-5042.61 L 130.524,-5042.38 L 130.041,-5042.25 L 129.5,-5042.2 L 129.059,-5042.23 L 128.657,-5042.31
 L 128.294,-5042.45 L 127.97,-5042.65 L 127.69,-5042.9 L 127.455,-5043.23 L 127.267,-5043.61 L 127.124,-5044.07
 L 124.075,-5043.82 L 124.304,-5042.9 L 124.665,-5042.09 L 125.159,-5041.4 L 125.784,-5040.82 L 126.533,-5040.37
 L 127.397,-5040.04 L 128.375,-5039.85 L 129.468,-5039.78 z
M 22.8898,-5042.47 L 14.6872,-5042.47 L 14.6872,-5055.29 L 11.4864,-5055.29 L 11.4864,-5040 L 22.8898,-5040
 z
M 520.422,-5040.06 L 521.425,-5040.23 L 522.366,-5040.52 L 523.246,-5040.93 L 524.047,-5041.45 L 524.752,-5042.07
 L 525.36,-5042.8 L 525.872,-5043.63 L 526.278,-5044.55 L 526.568,-5045.54 L 526.742,-5046.61 L 526.8,-5047.76
 L 526.667,-5049.47 L 526.271,-5050.97 L 525.61,-5052.26 L 524.684,-5053.34 L 523.517,-5054.19 L 522.131,-5054.8
 L 520.528,-5055.17 L 518.706,-5055.29 L 513.172,-5055.29 L 513.172,-5040 L 519.356,-5040 z
M 516.373,-5042.47 L 516.373,-5052.81 L 518.641,-5052.81 L 519.76,-5052.73 L 520.743,-5052.49 L 521.588,-5052.08
 L 522.297,-5051.52 L 522.857,-5050.8 L 523.257,-5049.93 L 523.497,-5048.92 L 523.577,-5047.76 L 523.501,-5046.6
 L 523.273,-5045.57 L 522.894,-5044.67 L 522.362,-5043.9 L 521.702,-5043.27 L 520.935,-5042.83 L 520.063,-5042.56
 L 519.085,-5042.47 z
M 161.491,-5049.02 L 161.479,-5049.58 L 161.443,-5050.23 L 161.382,-5050.96 L 161.296,-5051.77 L 167.958,-5040
 L 171.712,-5040 L 171.712,-5055.29 L 168.87,-5055.29 L 168.87,-5046.4 L 168.882,-5045.71 L 168.918,-5044.98
 L 168.979,-5044.22 L 169.065,-5043.42 L 162.305,-5055.29 L 158.649,-5055.29 L 158.649,-5040 L 161.491,-5040
 z
M 56.9684,-5052.81 L 61.9161,-5052.81 L 61.9161,-5055.29 L 48.831,-5055.29 L 48.831,-5052.81 L 53.7676,-5052.81
 L 53.7676,-5040 L 56.9684,-5040 z
M 293.342,-5052.81 L 298.289,-5052.81 L 298.289,-5055.29 L 285.204,-5055.29 L 285.204,-5052.81 L 290.141,-5052.81
 L 290.141,-5040 L 293.342,-5040 z
M 452.445,-5045.38 L 456.242,-5045.38 L 457.075,-5045.42 L 457.85,-5045.54 L 458.565,-5045.74 L 459.221,-5046.02
 L 459.811,-5046.37 L 460.329,-5046.78 L 460.774,-5047.26 L 461.146,-5047.81 L 461.441,-5048.41 L 461.651,-5049.05
 L 461.777,-5049.73 L 461.819,-5050.45 L 461.727,-5051.54 L 461.449,-5052.5 L 460.986,-5053.33 L 460.338,-5054.02
 L 459.519,-5054.58 L 458.541,-5054.97 L 457.406,-5055.21 L 456.112,-5055.29 L 449.244,-5055.29 L 449.244,-5040
 L 452.445,-5040 z
M 452.445,-5047.84 L 452.445,-5052.8 L 455.754,-5052.8 L 456.998,-5052.65 L 457.886,-5052.2 L 458.419,-5051.45
 L 458.597,-5050.39 L 458.552,-5049.81 L 458.418,-5049.3 L 458.194,-5048.87 L 457.881,-5048.5 L 457.485,-5048.21
 L 457.013,-5048.01 L 456.465,-5047.89 L 455.841,-5047.84 z
M 263.701,-5039.83 L 264.364,-5039.9 L 264.987,-5040.01 L 265.571,-5040.17 L 265.571,-5042.06 L 265.259,-5041.99
 L 264.985,-5041.95 L 264.749,-5041.92 L 264.551,-5041.91 L 264.232,-5041.94 L 263.957,-5042.01 L 263.727,-5042.14
 L 263.542,-5042.32 L 263.4,-5042.55 L 263.298,-5042.84 L 263.237,-5043.18 L 263.217,-5043.58 L 263.217,-5049.68
 L 265.441,-5049.68 L 265.441,-5051.74 L 263.217,-5051.74 L 263.217,-5054.5 L 261.307,-5054.5 L 260.352,-5051.74
 L 258.714,-5051.74 L 258.714,-5049.68 L 260.2,-5049.68 L 260.2,-5042.76 L 260.246,-5042.06 L 260.382,-5041.46
 L 260.609,-5040.95 L 260.927,-5040.54 L 261.329,-5040.22 L 261.809,-5039.99 L 262.365,-5039.85 L 262.999,-5039.8
 z
M 344.556,-5035.37 L 345.67,-5035.61 L 346.622,-5036.01 L 347.414,-5036.57 L 348.036,-5037.29 L 348.48,-5038.16
 L 348.746,-5039.18 L 348.835,-5040.36 L 348.835,-5049.03 L 348.839,-5049.77 L 348.851,-5050.48 L 348.872,-5051.13
 L 348.9,-5051.74 L 346.014,-5051.74 L 345.987,-5051.61 L 345.961,-5051.42 L 345.936,-5051.18 L 345.911,-5050.88
 L 345.89,-5050.57 L 345.875,-5050.3 L 345.865,-5050.06 L 345.862,-5049.85 L 345.808,-5049.85 L 345.216,-5050.78
 L 344.427,-5051.44 L 343.442,-5051.84 L 342.26,-5051.97 L 341.219,-5051.87 L 340.31,-5051.58 L 339.532,-5051.09
 L 338.886,-5050.41 L 338.378,-5049.54 L 338.015,-5048.51 L 337.797,-5047.32 L 337.725,-5045.97 L 337.795,-5044.62
 L 338.007,-5043.43 L 338.359,-5042.42 L 338.853,-5041.56 L 339.475,-5040.89 L 340.212,-5040.41 L 341.065,-5040.12
 L 342.032,-5040.02 L 343.306,-5040.16 L 344.36,-5040.56 L 345.194,-5041.24 L 345.808,-5042.18 L 345.83,-5042.18
 L 345.808,-5041.02 L 345.808,-5040.4 L 345.772,-5039.68 L 345.662,-5039.05 L 345.479,-5038.52 L 345.222,-5038.08
 L 344.887,-5037.74 L 344.465,-5037.49 L 343.959,-5037.35 L 343.367,-5037.3 L 342.954,-5037.32 L 342.582,-5037.4
 L 342.251,-5037.52 L 341.962,-5037.7 L 341.717,-5037.92 L 341.518,-5038.18 L 341.367,-5038.47 L 341.262,-5038.81
 L 338.213,-5038.45 L 338.428,-5037.73 L 338.768,-5037.1 L 339.233,-5036.56 L 339.824,-5036.11 L 340.531,-5035.75
 L 341.342,-5035.5 L 342.258,-5035.34 L 343.28,-5035.29 z
M 342.265,-5042.38 L 341.509,-5043.09 L 341.055,-5044.29 L 340.904,-5045.97 L 341.056,-5047.68 L 341.514,-5048.9
 L 342.277,-5049.63 L 343.345,-5049.87 L 343.908,-5049.81 L 344.402,-5049.62 L 344.827,-5049.3 L 345.184,-5048.86
 L 345.467,-5048.3 L 345.668,-5047.65 L 345.789,-5046.89 L 345.83,-5046.03 L 345.789,-5045.15 L 345.668,-5044.38
 L 345.467,-5043.71 L 345.184,-5043.15 L 344.826,-5042.71 L 344.396,-5042.39 L 343.895,-5042.2 L 343.324,-5042.14
 z
M 546.787,-5039.84 L 547.818,-5040.03 L 548.715,-5040.33 L 549.479,-5040.75 L 550.089,-5041.29 L 550.525,-5041.91
 L 550.786,-5042.62 L 550.874,-5043.43 L 550.85,-5043.91 L 550.777,-5044.35 L 550.657,-5044.74 L 550.488,-5045.08
 L 550.28,-5045.39 L 550.038,-5045.67 L 549.764,-5045.92 L 549.458,-5046.14 L 549.108,-5046.34 L 548.706,-5046.52
 L 548.251,-5046.7 L 547.743,-5046.85 L 547.19,-5047 L 546.597,-5047.15 L 545.966,-5047.29 L 545.297,-5047.43
 L 544.839,-5047.54 L 544.452,-5047.65 L 544.136,-5047.78 L 543.892,-5047.93 L 543.709,-5048.09 L 543.578,-5048.28
 L 543.5,-5048.49 L 543.474,-5048.73 L 543.508,-5049.04 L 543.61,-5049.29 L 543.779,-5049.5 L 544.016,-5049.66
 L 544.322,-5049.78 L 544.695,-5049.87 L 545.135,-5049.92 L 545.644,-5049.94 L 546.16,-5049.92 L 546.601,-5049.85
 L 546.968,-5049.74 L 547.26,-5049.59 L 547.492,-5049.39 L 547.676,-5049.14 L 547.812,-5048.85 L 547.901,-5048.52
 L 550.602,-5048.8 L 550.385,-5049.52 L 550.048,-5050.16 L 549.59,-5050.7 L 549.013,-5051.15 L 548.324,-5051.51
 L 547.533,-5051.76 L 546.64,-5051.92 L 545.644,-5051.97 L 544.523,-5051.91 L 543.538,-5051.73 L 542.687,-5051.44
 L 541.971,-5051.03 L 541.404,-5050.51 L 540.999,-5049.9 L 540.756,-5049.2 L 540.675,-5048.41 L 540.704,-5047.92
 L 540.793,-5047.47 L 540.94,-5047.06 L 541.147,-5046.69 L 541.409,-5046.36 L 541.726,-5046.05 L 542.096,-5045.79
 L 542.519,-5045.55 L 543.074,-5045.33 L 543.84,-5045.09 L 544.816,-5044.85 L 546.002,-5044.6 L 546.525,-5044.48
 L 546.966,-5044.35 L 547.325,-5044.2 L 547.602,-5044.04 L 547.809,-5043.86 L 547.956,-5043.65 L 548.045,-5043.41
 L 548.074,-5043.15 L 548.038,-5042.82 L 547.928,-5042.54 L 547.745,-5042.31 L 547.488,-5042.13 L 547.152,-5041.98
 L 546.729,-5041.88 L 546.219,-5041.82 L 545.622,-5041.8 L 544.98,-5041.82 L 544.441,-5041.89 L 544.006,-5042
 L 543.675,-5042.15 L 543.416,-5042.35 L 543.199,-5042.62 L 543.023,-5042.94 L 542.888,-5043.33 L 540.208,-5042.93
 L 540.474,-5042.17 L 540.847,-5041.53 L 541.328,-5040.98 L 541.917,-5040.55 L 542.631,-5040.21 L 543.486,-5039.97
 L 544.483,-5039.83 L 545.622,-5039.78 z
M 386.025,-5045.76 L 386.064,-5046.61 L 386.183,-5047.35 L 386.382,-5047.98 L 386.659,-5048.5 L 387.008,-5048.9
 L 387.42,-5049.19 L 387.895,-5049.36 L 388.433,-5049.42 L 388.726,-5049.41 L 389.041,-5049.38 L 389.377,-5049.33
 L 389.735,-5049.26 L 389.735,-5051.8 L 389.542,-5051.88 L 389.32,-5051.93 L 389.07,-5051.96 L 388.791,-5051.97
 L 388.448,-5051.95 L 388.135,-5051.91 L 387.851,-5051.83 L 387.598,-5051.72 L 387.367,-5051.59 L 387.153,-5051.41
 L 386.955,-5051.21 L 386.773,-5050.97 L 386.594,-5050.68 L 386.402,-5050.29 L 386.198,-5049.81 L 385.981,-5049.23
 L 385.938,-5049.23 L 385.934,-5049.44 L 385.924,-5049.73 L 385.907,-5050.1 L 385.884,-5050.55 L 385.858,-5051
 L 385.835,-5051.35 L 385.814,-5051.59 L 385.797,-5051.74 L 382.889,-5051.74 L 382.905,-5051.48 L 382.92,-5051.2
 L 382.935,-5050.91 L 382.949,-5050.6 L 382.96,-5050.25 L 382.969,-5049.87 L 382.974,-5049.45 L 382.976,-5048.98
 L 382.976,-5040 L 386.025,-5040 z
M 328.158,-5046.29 L 328.2,-5047 L 328.327,-5047.65 L 328.539,-5048.22 L 328.836,-5048.73 L 329.202,-5049.14
 L 329.621,-5049.44 L 330.094,-5049.62 L 330.621,-5049.68 L 331.537,-5049.48 L 332.191,-5048.91 L 332.584,-5047.94
 L 332.715,-5046.59 L 332.715,-5040 L 335.753,-5040 L 335.753,-5047.45 L 335.69,-5048.49 L 335.503,-5049.4
 L 335.191,-5050.18 L 334.754,-5050.82 L 334.201,-5051.32 L 333.539,-5051.68 L 332.769,-5051.9 L 331.89,-5051.97
 L 331.267,-5051.93 L 330.688,-5051.82 L 330.155,-5051.63 L 329.666,-5051.36 L 329.219,-5051.01 L 328.811,-5050.57
 L 328.443,-5050.03 L 328.114,-5049.41 L 328.071,-5049.41 L 328.068,-5049.61 L 328.057,-5049.88 L 328.04,-5050.23
 L 328.017,-5050.64 L 327.991,-5051.04 L 327.968,-5051.36 L 327.947,-5051.59 L 327.93,-5051.74 L 325.022,-5051.74
 L 325.038,-5051.49 L 325.053,-5051.23 L 325.068,-5050.95 L 325.082,-5050.66 L 325.094,-5050.34 L 325.102,-5049.97
 L 325.107,-5049.56 L 325.109,-5049.11 L 325.109,-5040 L 328.158,-5040 z
M 575.382,-5046.29 L 575.424,-5047 L 575.552,-5047.65 L 575.763,-5048.22 L 576.06,-5048.73 L 576.426,-5049.14
 L 576.845,-5049.44 L 577.318,-5049.62 L 577.845,-5049.68 L 578.761,-5049.48 L 579.415,-5048.91 L 579.808,-5047.94
 L 579.939,-5046.59 L 579.939,-5040 L 582.977,-5040 L 582.977,-5047.45 L 582.915,-5048.49 L 582.727,-5049.4
 L 582.415,-5050.18 L 581.979,-5050.82 L 581.425,-5051.32 L 580.764,-5051.68 L 579.993,-5051.9 L 579.114,-5051.97
 L 578.491,-5051.93 L 577.913,-5051.82 L 577.379,-5051.63 L 576.89,-5051.36 L 576.443,-5051.01 L 576.036,-5050.57
 L 575.667,-5050.03 L 575.339,-5049.41 L 575.295,-5049.41 L 575.292,-5049.61 L 575.282,-5049.88 L 575.265,-5050.23
 L 575.241,-5050.64 L 575.215,-5051.04 L 575.192,-5051.36 L 575.172,-5051.59 L 575.154,-5051.74 L 572.246,-5051.74
 L 572.262,-5051.49 L 572.277,-5051.23 L 572.292,-5050.95 L 572.306,-5050.66 L 572.318,-5050.34 L 572.326,-5049.97
 L 572.331,-5049.56 L 572.333,-5049.11 L 572.333,-5040 L 575.382,-5040 z
M 478.902,-5046.29 L 478.944,-5047 L 479.072,-5047.65 L 479.283,-5048.22 L 479.58,-5048.73 L 479.946,-5049.14
 L 480.365,-5049.44 L 480.838,-5049.62 L 481.365,-5049.68 L 482.281,-5049.48 L 482.935,-5048.91 L 483.328,-5047.94
 L 483.459,-5046.59 L 483.459,-5040 L 486.497,-5040 L 486.497,-5047.45 L 486.435,-5048.49 L 486.247,-5049.4
 L 485.935,-5050.18 L 485.499,-5050.82 L 484.945,-5051.32 L 484.284,-5051.68 L 483.513,-5051.9 L 482.634,-5051.97
 L 482.011,-5051.93 L 481.433,-5051.82 L 480.899,-5051.63 L 480.41,-5051.36 L 479.963,-5051.01 L 479.556,-5050.57
 L 479.187,-5050.03 L 478.859,-5049.41 L 478.815,-5049.41 L 478.812,-5049.61 L 478.802,-5049.88 L 478.785,-5050.23
 L 478.761,-5050.64 L 478.735,-5051.04 L 478.712,-5051.36 L 478.692,-5051.59 L 478.674,-5051.74 L 475.766,-5051.74
 L 475.782,-5051.49 L 475.797,-5051.23 L 475.812,-5050.95 L 475.826,-5050.66 L 475.838,-5050.34 L 475.846,-5049.97
 L 475.851,-5049.56 L 475.853,-5049.11 L 475.853,-5040 L 478.902,-5040 z
M 65.2406,-5045.76 L 65.2803,-5046.61 L 65.3993,-5047.35 L 65.5977,-5047.98 L 65.8754,-5048.5 L 66.2242,-5048.9
 L 66.6362,-5049.19 L 67.1112,-5049.36 L 67.6493,-5049.42 L 67.9422,-5049.41 L 68.2568,-5049.38 L 68.5932,-5049.33
 L 68.9512,-5049.26 L 68.9512,-5051.8 L 68.758,-5051.88 L 68.5363,-5051.93 L 68.2861,-5051.96 L 68.0074,-5051.97
 L 67.6642,-5051.95 L 67.3509,-5051.91 L 67.0674,-5051.83 L 66.8138,-5051.72 L 66.5832,-5051.59 L 66.369,-5051.41
 L 66.171,-5051.21 L 65.9893,-5050.97 L 65.8096,-5050.68 L 65.6176,-5050.29 L 65.4135,-5049.81 L 65.1971,-5049.23
 L 65.1537,-5049.23 L 65.1504,-5049.44 L 65.1402,-5049.73 L 65.1232,-5050.1 L 65.0995,-5050.55 L 65.0737,-5051
 L 65.0507,-5051.35 L 65.0303,-5051.59 L 65.0126,-5051.74 L 62.1049,-5051.74 L 62.1208,-5051.48 L 62.1361,-5051.2
 L 62.1506,-5050.91 L 62.1645,-5050.6 L 62.1764,-5050.25 L 62.1849,-5049.87 L 62.19,-5049.45 L 62.1917,-5048.98
 L 62.1917,-5040 L 65.2406,-5040 z
M 301.614,-5045.76 L 301.654,-5046.61 L 301.773,-5047.35 L 301.971,-5047.98 L 302.249,-5048.5 L 302.598,-5048.9
 L 303.009,-5049.19 L 303.484,-5049.36 L 304.023,-5049.42 L 304.315,-5049.41 L 304.63,-5049.38 L 304.966,-5049.33
 L 305.324,-5049.26 L 305.324,-5051.8 L 305.131,-5051.88 L 304.91,-5051.93 L 304.659,-5051.96 L 304.381,-5051.97
 L 304.037,-5051.95 L 303.724,-5051.91 L 303.441,-5051.83 L 303.187,-5051.72 L 302.957,-5051.59 L 302.742,-5051.41
 L 302.544,-5051.21 L 302.363,-5050.97 L 302.183,-5050.68 L 301.991,-5050.29 L 301.787,-5049.81 L 301.57,-5049.23
 L 301.527,-5049.23 L 301.524,-5049.44 L 301.513,-5049.73 L 301.497,-5050.1 L 301.473,-5050.55 L 301.447,-5051
 L 301.424,-5051.35 L 301.404,-5051.59 L 301.386,-5051.74 L 298.478,-5051.74 L 298.494,-5051.48 L 298.509,-5051.2
 L 298.524,-5050.91 L 298.538,-5050.6 L 298.55,-5050.25 L 298.558,-5049.87 L 298.563,-5049.45 L 298.565,-5048.98
 L 298.565,-5040 L 301.614,-5040 z
M 565.268,-5035.37 L 566.382,-5035.61 L 567.334,-5036.01 L 568.126,-5036.57 L 568.748,-5037.29 L 569.192,-5038.16
 L 569.458,-5039.18 L 569.547,-5040.36 L 569.547,-5049.03 L 569.551,-5049.77 L 569.564,-5050.48 L 569.584,-5051.13
 L 569.612,-5051.74 L 566.726,-5051.74 L 566.699,-5051.61 L 566.673,-5051.42 L 566.648,-5051.18 L 566.623,-5050.88
 L 566.602,-5050.57 L 566.587,-5050.3 L 566.577,-5050.06 L 566.574,-5049.85 L 566.52,-5049.85 L 565.928,-5050.78
 L 565.139,-5051.44 L 564.154,-5051.84 L 562.972,-5051.97 L 561.931,-5051.87 L 561.022,-5051.58 L 560.244,-5051.09
 L 559.598,-5050.41 L 559.09,-5049.54 L 558.727,-5048.51 L 558.509,-5047.32 L 558.437,-5045.97 L 558.507,-5044.62
 L 558.719,-5043.43 L 559.072,-5042.42 L 559.565,-5041.56 L 560.187,-5040.89 L 560.924,-5040.41 L 561.777,-5040.12
 L 562.744,-5040.02 L 564.018,-5040.16 L 565.072,-5040.56 L 565.906,-5041.24 L 566.52,-5042.18 L 566.542,-5042.18
 L 566.52,-5041.02 L 566.52,-5040.4 L 566.484,-5039.68 L 566.374,-5039.05 L 566.191,-5038.52 L 565.934,-5038.08
 L 565.599,-5037.74 L 565.177,-5037.49 L 564.671,-5037.35 L 564.079,-5037.3 L 563.666,-5037.32 L 563.294,-5037.4
 L 562.963,-5037.52 L 562.674,-5037.7 L 562.429,-5037.92 L 562.23,-5038.18 L 562.079,-5038.47 L 561.974,-5038.81
 L 558.925,-5038.45 L 559.14,-5037.73 L 559.48,-5037.1 L 559.945,-5036.56 L 560.536,-5036.11 L 561.243,-5035.75
 L 562.054,-5035.5 L 562.97,-5035.34 L 563.992,-5035.29 z
M 562.977,-5042.38 L 562.221,-5043.09 L 561.767,-5044.29 L 561.616,-5045.97 L 561.768,-5047.68 L 562.226,-5048.9
 L 562.989,-5049.63 L 564.057,-5049.87 L 564.62,-5049.81 L 565.114,-5049.62 L 565.539,-5049.3 L 565.896,-5048.86
 L 566.179,-5048.3 L 566.38,-5047.65 L 566.501,-5046.89 L 566.542,-5046.03 L 566.501,-5045.15 L 566.38,-5044.38
 L 566.179,-5043.71 L 565.896,-5043.15 L 565.538,-5042.71 L 565.108,-5042.39 L 564.608,-5042.2 L 564.036,-5042.14
 z
M 467.706,-5039.93 L 468.753,-5040.36 L 469.638,-5041.08 L 470.359,-5042.09 L 470.424,-5042.09 L 470.506,-5041.58
 L 470.642,-5041.13 L 470.834,-5040.75 L 471.08,-5040.43 L 471.392,-5040.19 L 471.779,-5040.01 L 472.241,-5039.91
 L 472.779,-5039.87 L 472.936,-5039.87 L 473.084,-5039.88 L 473.221,-5039.88 L 473.348,-5039.89 L 473.469,-5039.9
 L 473.586,-5039.92 L 473.699,-5039.93 L 473.809,-5039.95 L 473.918,-5039.96 L 474.026,-5039.98 L 474.135,-5040.01
 L 474.243,-5040.03 L 474.355,-5040.06 L 474.474,-5040.09 L 474.599,-5040.12 L 474.732,-5040.15 L 474.732,-5041.8
 L 474.567,-5041.77 L 474.401,-5041.75 L 474.231,-5041.74 L 474.059,-5041.74 L 473.817,-5041.76 L 473.613,-5041.83
 L 473.445,-5041.95 L 473.316,-5042.11 L 473.218,-5042.34 L 473.149,-5042.64 L 473.107,-5043.02 L 473.093,-5043.47
 L 473.093,-5047.75 L 473.018,-5048.7 L 472.792,-5049.53 L 472.416,-5050.26 L 471.889,-5050.86 L 471.223,-5051.34
 L 470.429,-5051.68 L 469.509,-5051.89 L 468.46,-5051.96 L 467.417,-5051.9 L 466.49,-5051.74 L 465.678,-5051.46
 L 464.983,-5051.07 L 464.407,-5050.58 L 463.953,-5049.98 L 463.623,-5049.28 L 463.415,-5048.47 L 466.594,-5048.32
 L 466.662,-5048.74 L 466.766,-5049.09 L 466.908,-5049.37 L 467.088,-5049.6 L 467.314,-5049.77 L 467.596,-5049.89
 L 467.935,-5049.96 L 468.33,-5049.98 L 468.754,-5049.95 L 469.114,-5049.84 L 469.41,-5049.67 L 469.643,-5049.42
 L 469.819,-5049.11 L 469.944,-5048.72 L 470.019,-5048.25 L 470.044,-5047.71 L 470.044,-5047.12 L 467.516,-5047.07
 L 466.455,-5047.01 L 465.527,-5046.82 L 464.732,-5046.52 L 464.071,-5046.1 L 463.552,-5045.57 L 463.18,-5044.93
 L 462.958,-5044.18 L 462.883,-5043.32 L 462.943,-5042.53 L 463.122,-5041.83 L 463.42,-5041.22 L 463.838,-5040.71
 L 464.362,-5040.3 L 464.98,-5040.01 L 465.691,-5039.84 L 466.496,-5039.78 z
M 467.169,-5041.94 L 466.896,-5042.01 L 466.656,-5042.14 L 466.448,-5042.32 L 466.279,-5042.55 L 466.159,-5042.83
 L 466.086,-5043.17 L 466.062,-5043.56 L 466.077,-5043.87 L 466.121,-5044.14 L 466.194,-5044.39 L 466.296,-5044.6
 L 466.426,-5044.78 L 466.582,-5044.94 L 466.765,-5045.07 L 466.974,-5045.18 L 467.235,-5045.27 L 467.573,-5045.33
 L 467.989,-5045.38 L 468.482,-5045.41 L 470.044,-5045.44 L 470.044,-5044.84 L 470.023,-5044.46 L 469.96,-5044.09
 L 469.855,-5043.73 L 469.708,-5043.38 L 469.524,-5043.05 L 469.308,-5042.77 L 469.06,-5042.51 L 468.78,-5042.3
 L 468.477,-5042.13 L 468.158,-5042.01 L 467.823,-5041.93 L 467.473,-5041.91 z
M 74.5593,-5039.93 L 75.6063,-5040.36 L 76.4906,-5041.08 L 77.2122,-5042.09 L 77.2771,-5042.09 L 77.3589,-5041.58
 L 77.4956,-5041.13 L 77.6871,-5040.75 L 77.9336,-5040.43 L 78.2453,-5040.19 L 78.6321,-5040.01 L 79.0943,-5039.91
 L 79.6317,-5039.87 L 79.7893,-5039.87 L 79.9368,-5039.88 L 80.0741,-5039.88 L 80.2013,-5039.89 L 80.3217,-5039.9
 L 80.4387,-5039.92 L 80.5522,-5039.93 L 80.6624,-5039.95 L 80.7709,-5039.96 L 80.8794,-5039.98 L 80.9879,-5040.01
 L 81.0963,-5040.03 L 81.2083,-5040.06 L 81.327,-5040.09 L 81.4524,-5040.12 L 81.5847,-5040.15 L 81.5847,-5041.8
 L 81.4206,-5041.77 L 81.2538,-5041.75 L 81.0843,-5041.74 L 80.912,-5041.74 L 80.6703,-5041.76 L 80.4658,-5041.83
 L 80.2986,-5041.95 L 80.1687,-5042.11 L 80.0714,-5042.34 L 80.0019,-5042.64 L 79.9602,-5043.02 L 79.9463,-5043.47
 L 79.9463,-5047.75 L 79.871,-5048.7 L 79.6452,-5049.53 L 79.2688,-5050.26 L 78.7419,-5050.86 L 78.076,-5051.34
 L 77.2826,-5051.68 L 76.3617,-5051.89 L 75.3133,-5051.96 L 74.27,-5051.9 L 73.3427,-5051.74 L 72.5313,-5051.46
 L 71.8359,-5051.07 L 71.2599,-5050.58 L 70.8066,-5049.98 L 70.476,-5049.28 L 70.2682,-5048.47 L 73.4472,-5048.32
 L 73.5147,-5048.74 L 73.6194,-5049.09 L 73.7615,-5049.37 L 73.9408,-5049.6 L 74.167,-5049.77 L 74.4494,-5049.89
 L 74.7882,-5049.96 L 75.1832,-5049.98 L 75.607,-5049.95 L 75.9671,-5049.84 L 76.2634,-5049.67 L 76.496,-5049.42
 L 76.6716,-5049.11 L 76.7971,-5048.72 L 76.8724,-5048.25 L 76.8975,-5047.71 L 76.8975,-5047.12 L 74.3695,-5047.07
 L 73.3078,-5047.01 L 72.3798,-5046.82 L 71.5854,-5046.52 L 70.9245,-5046.1 L 70.4048,-5045.57 L 70.0335,-5044.93
 L 69.8107,-5044.18 L 69.7365,-5043.32 L 69.7962,-5042.53 L 69.9752,-5041.83 L 70.2735,-5041.22 L 70.6912,-5040.71
 L 71.2154,-5040.3 L 71.8332,-5040.01 L 72.5446,-5039.84 L 73.3495,-5039.78 z
M 74.0219,-5041.94 L 73.7496,-5042.01 L 73.5092,-5042.14 L 73.3007,-5042.32 L 73.1322,-5042.55 L 73.0118,-5042.83
 L 72.9396,-5043.17 L 72.9155,-5043.56 L 72.9301,-5043.87 L 72.9739,-5044.14 L 73.0468,-5044.39 L 73.1488,-5044.6
 L 73.2787,-5044.78 L 73.435,-5044.94 L 73.6177,-5045.07 L 73.8269,-5045.18 L 74.088,-5045.27 L 74.4263,-5045.33
 L 74.842,-5045.38 L 75.3351,-5045.41 L 76.8975,-5045.44 L 76.8975,-5044.84 L 76.8764,-5044.46 L 76.8134,-5044.09
 L 76.7083,-5043.73 L 76.5611,-5043.38 L 76.377,-5043.05 L 76.1611,-5042.77 L 75.9132,-5042.51 L 75.6335,-5042.3
 L 75.33,-5042.13 L 75.0109,-5042.01 L 74.6762,-5041.93 L 74.3259,-5041.91 z
M 316.962,-5039.93 L 318.009,-5040.36 L 318.893,-5041.08 L 319.615,-5042.09 L 319.68,-5042.09 L 319.762,-5041.58
 L 319.898,-5041.13 L 320.09,-5040.75 L 320.336,-5040.43 L 320.648,-5040.19 L 321.035,-5040.01 L 321.497,-5039.91
 L 322.034,-5039.87 L 322.192,-5039.87 L 322.339,-5039.88 L 322.477,-5039.88 L 322.604,-5039.89 L 322.724,-5039.9
 L 322.841,-5039.92 L 322.955,-5039.93 L 323.065,-5039.95 L 323.174,-5039.96 L 323.282,-5039.98 L 323.391,-5040.01
 L 323.499,-5040.03 L 323.611,-5040.06 L 323.73,-5040.09 L 323.855,-5040.12 L 323.987,-5040.15 L 323.987,-5041.8
 L 323.823,-5041.77 L 323.656,-5041.75 L 323.487,-5041.74 L 323.315,-5041.74 L 323.073,-5041.76 L 322.868,-5041.83
 L 322.701,-5041.95 L 322.571,-5042.11 L 322.474,-5042.34 L 322.405,-5042.64 L 322.363,-5043.02 L 322.349,-5043.47
 L 322.349,-5047.75 L 322.274,-5048.7 L 322.048,-5049.53 L 321.671,-5050.26 L 321.145,-5050.86 L 320.479,-5051.34
 L 319.685,-5051.68 L 318.764,-5051.89 L 317.716,-5051.96 L 316.673,-5051.9 L 315.745,-5051.74 L 314.934,-5051.46
 L 314.239,-5051.07 L 313.663,-5050.58 L 313.209,-5049.98 L 312.879,-5049.28 L 312.671,-5048.47 L 315.85,-5048.32
 L 315.917,-5048.74 L 316.022,-5049.09 L 316.164,-5049.37 L 316.343,-5049.6 L 316.57,-5049.77 L 316.852,-5049.89
 L 317.191,-5049.96 L 317.586,-5049.98 L 318.01,-5049.95 L 318.37,-5049.84 L 318.666,-5049.67 L 318.899,-5049.42
 L 319.074,-5049.11 L 319.2,-5048.72 L 319.275,-5048.25 L 319.3,-5047.71 L 319.3,-5047.12 L 316.772,-5047.07
 L 315.711,-5047.01 L 314.782,-5046.82 L 313.988,-5046.52 L 313.327,-5046.1 L 312.807,-5045.57 L 312.436,-5044.93
 L 312.213,-5044.18 L 312.139,-5043.32 L 312.199,-5042.53 L 312.378,-5041.83 L 312.676,-5041.22 L 313.094,-5040.71
 L 313.618,-5040.3 L 314.236,-5040.01 L 314.947,-5039.84 L 315.752,-5039.78 z
M 316.425,-5041.94 L 316.152,-5042.01 L 315.912,-5042.14 L 315.703,-5042.32 L 315.535,-5042.55 L 315.414,-5042.83
 L 315.342,-5043.17 L 315.318,-5043.56 L 315.333,-5043.87 L 315.377,-5044.14 L 315.449,-5044.39 L 315.551,-5044.6
 L 315.681,-5044.78 L 315.838,-5044.94 L 316.02,-5045.07 L 316.23,-5045.18 L 316.491,-5045.27 L 316.829,-5045.33
 L 317.245,-5045.38 L 317.738,-5045.41 L 319.3,-5045.44 L 319.3,-5044.84 L 319.279,-5044.46 L 319.216,-5044.09
 L 319.111,-5043.73 L 318.964,-5043.38 L 318.78,-5043.05 L 318.564,-5042.77 L 318.316,-5042.51 L 318.036,-5042.3
 L 317.733,-5042.13 L 317.414,-5042.01 L 317.079,-5041.93 L 316.729,-5041.91 z
M 437.766,-5039.98 L 439.193,-5040.58 L 440.3,-5041.58 L 441.084,-5042.97 L 438.209,-5043.22 L 437.923,-5042.61
 L 437.487,-5042.17 L 436.903,-5041.91 L 436.169,-5041.82 L 435.617,-5041.88 L 435.132,-5042.04 L 434.714,-5042.31
 L 434.363,-5042.7 L 434.085,-5043.19 L 433.887,-5043.78 L 433.768,-5044.48 L 433.728,-5045.28 L 441.258,-5045.28
 L 441.258,-5045.37 L 441.174,-5046.89 L 440.924,-5048.21 L 440.507,-5049.34 L 439.923,-5050.28 L 439.181,-5051.01
 L 438.29,-5051.54 L 437.25,-5051.85 L 436.061,-5051.96 L 434.812,-5051.86 L 433.714,-5051.57 L 432.767,-5051.08
 L 431.97,-5050.39 L 431.339,-5049.53 L 430.888,-5048.5 L 430.617,-5047.29 L 430.527,-5045.92 L 430.616,-5044.51
 L 430.882,-5043.28 L 431.327,-5042.22 L 431.948,-5041.35 L 432.736,-5040.66 L 433.676,-5040.17 L 434.77,-5039.88
 L 436.017,-5039.78 z
M 433.749,-5047.19 L 433.8,-5047.83 L 433.919,-5048.39 L 434.107,-5048.88 L 434.363,-5049.29 L 434.684,-5049.62
 L 435.066,-5049.85 L 435.511,-5049.99 L 436.017,-5050.04 L 436.496,-5049.99 L 436.923,-5049.86 L 437.299,-5049.64
 L 437.623,-5049.33 L 437.889,-5048.93 L 438.092,-5048.44 L 438.231,-5047.86 L 438.307,-5047.19 z
M 88.2926,-5039.82 L 88.9504,-5039.91 L 89.5729,-5040.07 L 90.1601,-5040.3 L 90.7023,-5040.58 L 91.1896,-5040.92
 L 91.6219,-5041.31 L 91.9993,-5041.76 L 92.3157,-5042.25 L 92.5649,-5042.77 L 92.7469,-5043.32 L 92.8619,-5043.91
 L 89.8022,-5044.05 L 89.7038,-5043.54 L 89.5499,-5043.1 L 89.3403,-5042.72 L 89.0752,-5042.41 L 88.7646,-5042.17
 L 88.4187,-5042 L 88.0376,-5041.9 L 87.6212,-5041.87 L 86.5722,-5042.12 L 85.8229,-5042.88 L 85.3733,-5044.15
 L 85.2235,-5045.92 L 85.3706,-5047.65 L 85.8121,-5048.88 L 86.5478,-5049.62 L 87.5779,-5049.86 L 88.0282,-5049.83
 L 88.4242,-5049.73 L 88.766,-5049.56 L 89.0536,-5049.33 L 89.2895,-5049.03 L 89.4767,-5048.7 L 89.615,-5048.32
 L 89.7044,-5047.89 L 92.775,-5048.04 L 92.5383,-5048.91 L 92.1755,-5049.68 L 91.6866,-5050.34 L 91.0715,-5050.92
 L 90.3486,-5051.37 L 89.5363,-5051.7 L 88.6344,-5051.89 L 87.643,-5051.96 L 86.3742,-5051.86 L 85.2586,-5051.55
 L 84.2964,-5051.04 L 83.4873,-5050.33 L 82.8465,-5049.44 L 82.3888,-5048.39 L 82.1142,-5047.18 L 82.0227,-5045.8
 L 82.1136,-5044.46 L 82.3862,-5043.28 L 82.8405,-5042.25 L 83.4766,-5041.37 L 84.2795,-5040.68 L 85.2343,-5040.18
 L 86.341,-5039.88 L 87.5996,-5039.78 z
M 374.829,-5039.93 L 375.876,-5040.36 L 376.76,-5041.08 L 377.482,-5042.09 L 377.547,-5042.09 L 377.628,-5041.58
 L 377.765,-5041.13 L 377.957,-5040.75 L 378.203,-5040.43 L 378.515,-5040.19 L 378.902,-5040.01 L 379.364,-5039.91
 L 379.901,-5039.87 L 380.059,-5039.87 L 380.206,-5039.88 L 380.344,-5039.88 L 380.471,-5039.89 L 380.591,-5039.9
 L 380.708,-5039.92 L 380.822,-5039.93 L 380.932,-5039.95 L 381.04,-5039.96 L 381.149,-5039.98 L 381.257,-5040.01
 L 381.366,-5040.03 L 381.478,-5040.06 L 381.597,-5040.09 L 381.722,-5040.12 L 381.854,-5040.15 L 381.854,-5041.8
 L 381.69,-5041.77 L 381.523,-5041.75 L 381.354,-5041.74 L 381.182,-5041.74 L 380.94,-5041.76 L 380.735,-5041.83
 L 380.568,-5041.95 L 380.438,-5042.11 L 380.341,-5042.34 L 380.271,-5042.64 L 380.23,-5043.02 L 380.216,-5043.47
 L 380.216,-5047.75 L 380.141,-5048.7 L 379.915,-5049.53 L 379.538,-5050.26 L 379.011,-5050.86 L 378.346,-5051.34
 L 377.552,-5051.68 L 376.631,-5051.89 L 375.583,-5051.96 L 374.54,-5051.9 L 373.612,-5051.74 L 372.801,-5051.46
 L 372.105,-5051.07 L 371.529,-5050.58 L 371.076,-5049.98 L 370.746,-5049.28 L 370.538,-5048.47 L 373.717,-5048.32
 L 373.784,-5048.74 L 373.889,-5049.09 L 374.031,-5049.37 L 374.21,-5049.6 L 374.437,-5049.77 L 374.719,-5049.89
 L 375.058,-5049.96 L 375.453,-5049.98 L 375.877,-5049.95 L 376.237,-5049.84 L 376.533,-5049.67 L 376.766,-5049.42
 L 376.941,-5049.11 L 377.067,-5048.72 L 377.142,-5048.25 L 377.167,-5047.71 L 377.167,-5047.12 L 374.639,-5047.07
 L 373.577,-5047.01 L 372.649,-5046.82 L 371.855,-5046.52 L 371.194,-5046.1 L 370.674,-5045.57 L 370.303,-5044.93
 L 370.08,-5044.18 L 370.006,-5043.32 L 370.066,-5042.53 L 370.245,-5041.83 L 370.543,-5041.22 L 370.961,-5040.71
 L 371.485,-5040.3 L 372.103,-5040.01 L 372.814,-5039.84 L 373.619,-5039.78 z
M 374.291,-5041.94 L 374.019,-5042.01 L 373.779,-5042.14 L 373.57,-5042.32 L 373.402,-5042.55 L 373.281,-5042.83
 L 373.209,-5043.17 L 373.185,-5043.56 L 373.2,-5043.87 L 373.243,-5044.14 L 373.316,-5044.39 L 373.418,-5044.6
 L 373.548,-5044.78 L 373.705,-5044.94 L 373.887,-5045.07 L 374.096,-5045.18 L 374.357,-5045.27 L 374.696,-5045.33
 L 375.112,-5045.38 L 375.605,-5045.41 L 377.167,-5045.44 L 377.167,-5044.84 L 377.146,-5044.46 L 377.083,-5044.09
 L 376.978,-5043.73 L 376.831,-5043.38 L 376.647,-5043.05 L 376.431,-5042.77 L 376.183,-5042.51 L 375.903,-5042.3
 L 375.6,-5042.13 L 375.28,-5042.01 L 374.946,-5041.93 L 374.595,-5041.91 z
M 495.665,-5039.98 L 497.092,-5040.58 L 498.198,-5041.58 L 498.983,-5042.97 L 496.107,-5043.22 L 495.821,-5042.61
 L 495.386,-5042.17 L 494.801,-5041.91 L 494.068,-5041.82 L 493.515,-5041.88 L 493.03,-5042.04 L 492.612,-5042.31
 L 492.261,-5042.7 L 491.983,-5043.19 L 491.785,-5043.78 L 491.666,-5044.48 L 491.626,-5045.28 L 499.156,-5045.28
 L 499.156,-5045.37 L 499.073,-5046.89 L 498.823,-5048.21 L 498.406,-5049.34 L 497.822,-5050.28 L 497.08,-5051.01
 L 496.189,-5051.54 L 495.149,-5051.85 L 493.959,-5051.96 L 492.711,-5051.86 L 491.613,-5051.57 L 490.665,-5051.08
 L 489.869,-5050.39 L 489.237,-5049.53 L 488.786,-5048.5 L 488.516,-5047.29 L 488.426,-5045.92 L 488.514,-5044.51
 L 488.781,-5043.28 L 489.225,-5042.22 L 489.847,-5041.35 L 490.634,-5040.66 L 491.575,-5040.17 L 492.669,-5039.88
 L 493.916,-5039.78 z
M 491.648,-5047.19 L 491.699,-5047.83 L 491.818,-5048.39 L 492.005,-5048.88 L 492.261,-5049.29 L 492.582,-5049.62
 L 492.965,-5049.85 L 493.41,-5049.99 L 493.916,-5050.04 L 494.395,-5049.99 L 494.822,-5049.86 L 495.197,-5049.64
 L 495.521,-5049.33 L 495.788,-5048.93 L 495.991,-5048.44 L 496.13,-5047.86 L 496.205,-5047.19 z
M 239.992,-5039.88 L 241.164,-5040.19 L 242.183,-5040.7 L 243.051,-5041.41 L 243.744,-5042.29 L 244.24,-5043.34
 L 244.537,-5044.53 L 244.636,-5045.88 L 244.541,-5047.27 L 244.257,-5048.48 L 243.784,-5049.52 L 243.122,-5050.39
 L 242.28,-5051.07 L 241.268,-5051.56 L 240.086,-5051.86 L 238.733,-5051.96 L 237.406,-5051.86 L 236.235,-5051.55
 L 235.22,-5051.04 L 234.361,-5050.33 L 233.677,-5049.45 L 233.189,-5048.41 L 232.896,-5047.22 L 232.798,-5045.88
 L 232.896,-5044.54 L 233.189,-5043.34 L 233.677,-5042.3 L 234.361,-5041.41 L 235.216,-5040.7 L 236.219,-5040.19
 L 237.37,-5039.88 L 238.668,-5039.78 z
M 238.033,-5041.93 L 237.506,-5042.12 L 237.054,-5042.44 L 236.677,-5042.89 L 236.381,-5043.46 L 236.169,-5044.15
 L 236.041,-5044.96 L 235.999,-5045.88 L 236.173,-5047.62 L 236.694,-5048.87 L 237.562,-5049.61 L 238.777,-5049.86
 L 239.389,-5049.8 L 239.924,-5049.63 L 240.382,-5049.33 L 240.762,-5048.92 L 241.061,-5048.37 L 241.275,-5047.69
 L 241.403,-5046.86 L 241.446,-5045.88 L 241.27,-5044.12 L 240.743,-5042.87 L 239.865,-5042.12 L 238.636,-5041.87
 z
M 535.465,-5039.98 L 536.892,-5040.58 L 537.998,-5041.58 L 538.783,-5042.97 L 535.907,-5043.22 L 535.621,-5042.61
 L 535.186,-5042.17 L 534.601,-5041.91 L 533.868,-5041.82 L 533.315,-5041.88 L 532.83,-5042.04 L 532.412,-5042.31
 L 532.061,-5042.7 L 531.783,-5043.19 L 531.585,-5043.78 L 531.466,-5044.48 L 531.426,-5045.28 L 538.956,-5045.28
 L 538.956,-5045.37 L 538.873,-5046.89 L 538.623,-5048.21 L 538.206,-5049.34 L 537.622,-5050.28 L 536.88,-5051.01
 L 535.989,-5051.54 L 534.949,-5051.85 L 533.759,-5051.96 L 532.511,-5051.86 L 531.413,-5051.57 L 530.465,-5051.08
 L 529.669,-5050.39 L 529.037,-5049.53 L 528.586,-5048.5 L 528.316,-5047.29 L 528.226,-5045.92 L 528.314,-5044.51
 L 528.581,-5043.28 L 529.025,-5042.22 L 529.647,-5041.35 L 530.434,-5040.66 L 531.375,-5040.17 L 532.469,-5039.88
 L 533.716,-5039.78 z
M 531.448,-5047.19 L 531.499,-5047.83 L 531.618,-5048.39 L 531.805,-5048.88 L 532.061,-5049.29 L 532.382,-5049.62
 L 532.765,-5049.85 L 533.21,-5049.99 L 533.716,-5050.04 L 534.195,-5049.99 L 534.622,-5049.86 L 534.997,-5049.64
 L 535.321,-5049.33 L 535.588,-5048.93 L 535.791,-5048.44 L 535.93,-5047.86 L 536.005,-5047.19 z
M 213.266,-5039.93 L 214.313,-5040.36 L 215.197,-5041.08 L 215.919,-5042.09 L 215.984,-5042.09 L 216.065,-5041.58
 L 216.202,-5041.13 L 216.394,-5040.75 L 216.64,-5040.43 L 216.952,-5040.19 L 217.339,-5040.01 L 217.801,-5039.91
 L 218.338,-5039.87 L 218.496,-5039.87 L 218.643,-5039.88 L 218.781,-5039.88 L 218.908,-5039.89 L 219.028,-5039.9
 L 219.145,-5039.92 L 219.259,-5039.93 L 219.369,-5039.95 L 219.477,-5039.96 L 219.586,-5039.98 L 219.694,-5040.01
 L 219.803,-5040.03 L 219.915,-5040.06 L 220.033,-5040.09 L 220.159,-5040.12 L 220.291,-5040.15 L 220.291,-5041.8
 L 220.127,-5041.77 L 219.96,-5041.75 L 219.791,-5041.74 L 219.618,-5041.74 L 219.377,-5041.76 L 219.172,-5041.83
 L 219.005,-5041.95 L 218.875,-5042.11 L 218.778,-5042.34 L 218.708,-5042.64 L 218.667,-5043.02 L 218.653,-5043.47
 L 218.653,-5047.75 L 218.577,-5048.7 L 218.352,-5049.53 L 217.975,-5050.26 L 217.448,-5050.86 L 216.782,-5051.34
 L 215.989,-5051.68 L 215.068,-5051.89 L 214.02,-5051.96 L 212.976,-5051.9 L 212.049,-5051.74 L 211.238,-5051.46
 L 210.542,-5051.07 L 209.966,-5050.58 L 209.513,-5049.98 L 209.182,-5049.28 L 208.975,-5048.47 L 212.154,-5048.32
 L 212.221,-5048.74 L 212.326,-5049.09 L 212.468,-5049.37 L 212.647,-5049.6 L 212.873,-5049.77 L 213.156,-5049.89
 L 213.495,-5049.96 L 213.89,-5049.98 L 214.313,-5049.95 L 214.674,-5049.84 L 214.97,-5049.67 L 215.202,-5049.42
 L 215.378,-5049.11 L 215.504,-5048.72 L 215.579,-5048.25 L 215.604,-5047.71 L 215.604,-5047.12 L 213.076,-5047.07
 L 212.014,-5047.01 L 211.086,-5046.82 L 210.292,-5046.52 L 209.631,-5046.1 L 209.111,-5045.57 L 208.74,-5044.93
 L 208.517,-5044.18 L 208.443,-5043.32 L 208.503,-5042.53 L 208.682,-5041.83 L 208.98,-5041.22 L 209.398,-5040.71
 L 209.922,-5040.3 L 210.54,-5040.01 L 211.251,-5039.84 L 212.056,-5039.78 z
M 212.728,-5041.94 L 212.456,-5042.01 L 212.216,-5042.14 L 212.007,-5042.32 L 211.839,-5042.55 L 211.718,-5042.83
 L 211.646,-5043.17 L 211.622,-5043.56 L 211.637,-5043.87 L 211.68,-5044.14 L 211.753,-5044.39 L 211.855,-5044.6
 L 211.985,-5044.78 L 212.141,-5044.94 L 212.324,-5045.07 L 212.533,-5045.18 L 212.794,-5045.27 L 213.133,-5045.33
 L 213.548,-5045.38 L 214.041,-5045.41 L 215.604,-5045.44 L 215.604,-5044.84 L 215.583,-5044.46 L 215.52,-5044.09
 L 215.415,-5043.73 L 215.268,-5043.38 L 215.083,-5043.05 L 214.867,-5042.77 L 214.62,-5042.51 L 214.34,-5042.3
 L 214.036,-5042.13 L 213.717,-5042.01 L 213.383,-5041.93 L 213.032,-5041.91 z
M 44.6192,-5039.98 L 46.0466,-5040.58 L 47.1527,-5041.58 L 47.9373,-5042.97 L 45.0619,-5043.22 L 44.7758,-5042.61
 L 44.3405,-5042.17 L 43.756,-5041.91 L 43.0223,-5041.82 L 42.4699,-5041.88 L 41.9847,-5042.04 L 41.5666,-5042.31
 L 41.2157,-5042.7 L 40.938,-5043.19 L 40.7397,-5043.78 L 40.6207,-5044.48 L 40.581,-5045.28 L 48.1109,-5045.28
 L 48.1109,-5045.37 L 48.0275,-5046.89 L 47.7773,-5048.21 L 47.3602,-5049.34 L 46.7763,-5050.28 L 46.0345,-5051.01
 L 45.1434,-5051.54 L 44.1031,-5051.85 L 42.9136,-5051.96 L 41.6652,-5051.86 L 40.5673,-5051.57 L 39.62,-5051.08
 L 38.8232,-5050.39 L 38.1919,-5049.53 L 37.7409,-5048.5 L 37.4704,-5047.29 L 37.3802,-5045.92 L 37.469,-5044.51
 L 37.7355,-5043.28 L 38.1797,-5042.22 L 38.8015,-5041.35 L 39.5888,-5040.66 L 40.5294,-5040.17 L 41.6232,-5039.88
 L 42.8703,-5039.78 z
M 40.6026,-5047.19 L 40.6531,-5047.83 L 40.7722,-5048.39 L 40.9597,-5048.88 L 41.2157,-5049.29 L 41.5368,-5049.62
 L 41.9196,-5049.85 L 42.3641,-5049.99 L 42.8703,-5050.04 L 43.349,-5049.99 L 43.7763,-5049.86 L 44.1519,-5049.64
 L 44.476,-5049.33 L 44.7426,-5048.93 L 44.9453,-5048.44 L 45.0844,-5047.86 L 45.1597,-5047.19 z
M 556.097,-5051.74 L 553.048,-5051.74 L 553.048,-5040 L 556.097,-5040 z
M 355.934,-5039.82 L 356.513,-5039.93 L 357.048,-5040.12 L 357.54,-5040.39 L 357.988,-5040.74 L 358.396,-5041.18
 L 358.761,-5041.71 L 359.086,-5042.33 L 359.14,-5042.33 L 359.148,-5041.9 L 359.173,-5041.36 L 359.213,-5040.73
 L 359.27,-5040 L 362.178,-5040 L 362.14,-5040.59 L 362.113,-5041.22 L 362.097,-5041.9 L 362.091,-5042.63
 L 362.091,-5051.74 L 359.042,-5051.74 L 359.042,-5045.45 L 359,-5044.74 L 358.873,-5044.09 L 358.661,-5043.52
 L 358.364,-5043.01 L 357.998,-5042.6 L 357.579,-5042.3 L 357.106,-5042.12 L 356.58,-5042.06 L 355.668,-5042.25
 L 355.017,-5042.83 L 354.627,-5043.8 L 354.496,-5045.15 L 354.496,-5051.74 L 351.447,-5051.74 L 351.447,-5044.29
 L 351.51,-5043.25 L 351.697,-5042.34 L 352.009,-5041.57 L 352.446,-5040.93 L 352.999,-5040.43 L 353.661,-5040.07
 L 354.431,-5039.85 L 355.31,-5039.78 z
M 414.974,-5051.74 L 411.925,-5051.74 L 411.925,-5040 L 414.974,-5040 z
M 251.05,-5039.82 L 251.63,-5039.93 L 252.165,-5040.12 L 252.657,-5040.39 L 253.105,-5040.74 L 253.512,-5041.18
 L 253.878,-5041.71 L 254.203,-5042.33 L 254.257,-5042.33 L 254.265,-5041.9 L 254.29,-5041.36 L 254.33,-5040.73
 L 254.387,-5040 L 257.295,-5040 L 257.257,-5040.59 L 257.23,-5041.22 L 257.214,-5041.9 L 257.208,-5042.63
 L 257.208,-5051.74 L 254.159,-5051.74 L 254.159,-5045.45 L 254.117,-5044.74 L 253.99,-5044.09 L 253.778,-5043.52
 L 253.481,-5043.01 L 253.115,-5042.6 L 252.696,-5042.3 L 252.223,-5042.12 L 251.696,-5042.06 L 250.785,-5042.25
 L 250.134,-5042.83 L 249.743,-5043.8 L 249.613,-5045.15 L 249.613,-5051.74 L 246.564,-5051.74 L 246.564,-5044.29
 L 246.627,-5043.25 L 246.814,-5042.34 L 247.126,-5041.57 L 247.563,-5040.93 L 248.116,-5040.43 L 248.778,-5040.07
 L 249.548,-5039.85 L 250.427,-5039.78 z
M 111.514,-5051.74 L 108.324,-5051.74 L 107.358,-5048.78 L 106.62,-5046.51 L 106.11,-5044.93 L 105.828,-5044.03
 L 105.674,-5043.51 L 105.549,-5043.08 L 105.452,-5042.73 L 105.384,-5042.46 L 105.108,-5043.45 L 104.887,-5044.23
 L 104.722,-5044.8 L 104.613,-5045.18 L 102.563,-5051.74 L 99.3401,-5051.74 L 103.539,-5040 L 107.185,-5040
 z
M 27.8566,-5051.74 L 24.8076,-5051.74 L 24.8076,-5040 L 27.8566,-5040 z
M 223.687,-5035.44 L 224.371,-5035.61 L 224.981,-5035.88 L 225.519,-5036.26 L 226.017,-5036.78 L 226.505,-5037.47
 L 226.985,-5038.34 L 227.456,-5039.38 L 232.1,-5051.74 L 228.91,-5051.74 L 227.174,-5046.2 L 226.469,-5043.65
 L 226.198,-5042.61 L 225.881,-5043.76 L 225.593,-5044.74 L 225.333,-5045.57 L 225.102,-5046.24 L 223.257,-5051.74
 L 220.035,-5051.74 L 224.679,-5040.12 L 224.472,-5039.59 L 224.276,-5039.15 L 224.09,-5038.78 L 223.914,-5038.5
 L 223.737,-5038.28 L 223.55,-5038.09 L 223.352,-5037.94 L 223.143,-5037.82 L 222.915,-5037.73 L 222.659,-5037.66
 L 222.375,-5037.63 L 222.064,-5037.61 L 221.819,-5037.62 L 221.562,-5037.63 L 221.293,-5037.66 L 221.011,-5037.7
 L 221.011,-5035.53 L 221.44,-5035.47 L 221.904,-5035.42 L 222.401,-5035.4 L 222.932,-5035.39 z
M 310.059,-5051.74 L 307.01,-5051.74 L 307.01,-5040 L 310.059,-5040 z
M 278.209,-5047.09 L 272.567,-5047.09 L 272.567,-5044.44 L 278.209,-5044.44 z
M 89.7417,-5030.06 L 88.5211,-5030.06 L 88.5211,-5020 L 89.7417,-5020 z
M 197.99,-5030.06 L 196.77,-5030.06 L 196.77,-5020 L 197.99,-5020 z
M 15.1112,-5019.88 L 13.92,-5019.52 L 12.8221,-5018.93 L 11.8599,-5018.14 L 11.0702,-5017.18 L 10.4834,-5016.08
 L 10.122,-5014.89 L 10,-5013.65 L 10,-4826.35 L 10.122,-4825.11 L 10.4834,-4823.92 L 11.0702,-4822.82
 L 11.8599,-4821.86 L 12.8221,-4821.07 L 13.92,-4820.48 L 15.1112,-4820.12 L 16.35,-4820 L 303.65,-4820
 L 304.889,-4820.12 L 306.08,-4820.48 L 307.178,-4821.07 L 308.14,-4821.86 L 308.93,-4822.82 L 309.517,-4823.92
 L 309.878,-4825.11 L 310,-4826.35 L 310,-5000.05 L 310.077,-5000.01 L 310.463,-4999.92 L 310.913,-4999.89
 L 311.228,-4999.91 L 311.516,-4999.95 L 311.777,-5000.03 L 312.012,-5000.14 L 312.226,-5000.29 L 312.427,-5000.48
 L 312.615,-5000.72 L 312.79,-5001 L 312.806,-5001 L 312.812,-5000.81 L 312.816,-5000.64 L 312.821,-5000.51
 L 312.825,-5000.42 L 312.829,-5000.35 L 312.833,-5000.27 L 312.836,-5000.21 L 312.839,-5000.15 L 312.842,-5000.09
 L 312.844,-5000.05 L 312.847,-5000.02 L 312.85,-5000 L 313.772,-5000 L 313.758,-5000.16 L 313.748,-5000.43
 L 313.741,-5000.79 L 313.739,-5001.25 L 313.739,-5005.87 L 312.763,-5005.87 L 312.763,-5002.47 L 312.738,-5002.06
 L 312.661,-5001.7 L 312.534,-5001.39 L 312.356,-5001.13 L 312.134,-5000.92 L 311.875,-5000.77 L 311.578,-5000.68
 L 311.244,-5000.65 L 311.017,-5000.65 L 310.819,-5000.68 L 310.651,-5000.72 L 310.511,-5000.79 L 310.395,-5000.87
 L 310.296,-5000.97 L 310.213,-5001.1 L 310.148,-5001.25 L 310.098,-5001.42 L 310.063,-5001.63 L 310.041,-5001.87
 L 310.034,-5002.15 L 310.034,-5005.87 L 310,-5005.87 L 310,-5013.65 L 309.878,-5014.89 L 309.517,-5016.08
 L 308.93,-5017.18 L 308.14,-5018.14 L 307.178,-5018.93 L 306.08,-5019.52 L 304.889,-5019.88 L 303.65,-5020
 L 215.211,-5020 L 215.993,-5020.3 L 216.635,-5020.84 L 217.069,-5021.6 L 215.998,-5021.91 L 215.894,-5021.67
 L 215.751,-5021.46 L 215.57,-5021.27 L 215.35,-5021.1 L 215.091,-5020.96 L 214.793,-5020.86 L 214.456,-5020.8
 L 214.079,-5020.78 L 213.607,-5020.82 L 213.195,-5020.95 L 212.844,-5021.17 L 212.553,-5021.46 L 212.324,-5021.84
 L 212.161,-5022.29 L 212.063,-5022.82 L 212.031,-5023.41 L 217.266,-5023.41 L 217.266,-5023.57 L 217.064,-5025.28
 L 216.457,-5026.5 L 215.446,-5027.23 L 214.031,-5027.47 L 213.287,-5027.41 L 212.633,-5027.23 L 212.071,-5026.93
 L 211.6,-5026.5 L 211.228,-5025.97 L 210.962,-5025.32 L 210.802,-5024.57 L 210.749,-5023.72 L 210.802,-5022.82
 L 210.962,-5022.04 L 211.228,-5021.38 L 211.6,-5020.83 L 212.074,-5020.41 L 212.645,-5020.11 L 213.038,-5020
 L 209.916,-5020 L 210.147,-5020.05 L 210.147,-5020.96 L 209.93,-5020.91 L 209.741,-5020.88 L 209.578,-5020.87
 L 209.442,-5020.86 L 209.244,-5020.87 L 209.079,-5020.91 L 208.944,-5020.98 L 208.842,-5021.07 L 208.766,-5021.2
 L 208.712,-5021.37 L 208.68,-5021.57 L 208.669,-5021.82 L 208.669,-5026.45 L 210.025,-5026.45 L 210.025,-5027.34
 L 208.669,-5027.34 L 208.669,-5028.98 L 207.855,-5028.98 L 207.496,-5027.34 L 206.601,-5027.34 L 206.601,-5026.45
 L 207.449,-5026.45 L 207.449,-5021.55 L 207.54,-5020.83 L 207.815,-5020.31 L 208.266,-5020 L 206.372,-5020
 L 206.571,-5020.04 L 206.571,-5020.8 L 206.462,-5020.78 L 206.359,-5020.76 L 206.262,-5020.76 L 206.171,-5020.75
 L 205.987,-5020.77 L 205.835,-5020.82 L 205.716,-5020.91 L 205.629,-5021.03 L 205.566,-5021.18 L 205.522,-5021.37
 L 205.495,-5021.59 L 205.486,-5021.84 L 205.486,-5025 L 205.443,-5025.57 L 205.312,-5026.06 L 205.093,-5026.49
 L 204.788,-5026.84 L 204.396,-5027.12 L 203.918,-5027.31 L 203.355,-5027.43 L 202.706,-5027.47 L 201.535,-5027.35
 L 200.655,-5026.98 L 200.064,-5026.36 L 199.763,-5025.49 L 201.038,-5025.38 L 201.094,-5025.66 L 201.187,-5025.9
 L 201.317,-5026.11 L 201.485,-5026.27 L 201.7,-5026.39 L 201.97,-5026.47 L 202.296,-5026.53 L 202.679,-5026.54
 L 203.059,-5026.52 L 203.384,-5026.45 L 203.655,-5026.33 L 203.872,-5026.16 L 204.038,-5025.93 L 204.157,-5025.64
 L 204.228,-5025.29 L 204.252,-5024.88 L 204.252,-5024.48 L 202.604,-5024.45 L 201.827,-5024.39 L 201.166,-5024.27
 L 200.619,-5024.07 L 200.187,-5023.8 L 199.859,-5023.46 L 199.625,-5023.05 L 199.484,-5022.58 L 199.437,-5022.05
 L 199.472,-5021.57 L 199.576,-5021.14 L 199.75,-5020.77 L 199.993,-5020.45 L 200.306,-5020.19 L 200.687,-5020.01
 L 200.729,-5020 L 193.4,-5020 L 193.913,-5020.1 L 194.757,-5020.82 L 195.263,-5022.02 L 195.431,-5023.7
 L 195.389,-5024.61 L 195.264,-5025.39 L 195.054,-5026.04 L 194.76,-5026.56 L 194.382,-5026.96 L 193.917,-5027.24
 L 193.368,-5027.41 L 192.732,-5027.47 L 192.316,-5027.45 L 191.942,-5027.39 L 191.611,-5027.29 L 191.322,-5027.15
 L 191.067,-5026.97 L 190.839,-5026.74 L 190.637,-5026.47 L 190.461,-5026.16 L 190.434,-5026.16 L 190.433,-5026.24
 L 190.429,-5026.34 L 190.424,-5026.47 L 190.417,-5026.63 L 190.408,-5026.79 L 190.401,-5026.93 L 190.393,-5027.05
 L 190.386,-5027.14 L 190.38,-5027.22 L 190.374,-5027.28 L 190.37,-5027.32 L 190.366,-5027.34 L 189.186,-5027.34
 L 189.204,-5027.11 L 189.216,-5026.78 L 189.224,-5026.36 L 189.227,-5025.84 L 189.227,-5020 L 169.531,-5020
 L 172.254,-5030.06 L 171.183,-5030.06 L 168.433,-5020 L 142.1,-5020 L 142.224,-5020.04 L 142.521,-5020.17
 L 142.787,-5020.35 L 143.025,-5020.57 L 143.236,-5020.85 L 143.419,-5021.18 L 143.446,-5021.18 L 143.448,-5021.03
 L 143.452,-5020.87 L 143.46,-5020.69 L 143.47,-5020.5 L 143.482,-5020.32 L 143.493,-5020.18 L 143.504,-5020.07
 L 143.514,-5020 L 144.681,-5020 L 144.663,-5020.23 L 144.65,-5020.56 L 144.642,-5020.99 L 144.64,-5021.51
 L 144.64,-5030.06 L 143.419,-5030.06 L 143.419,-5027.02 L 143.433,-5026.2 L 143.419,-5026.2 L 143.236,-5026.51
 L 143.026,-5026.77 L 142.789,-5026.99 L 142.524,-5027.17 L 142.229,-5027.3 L 141.899,-5027.4 L 141.534,-5027.45
 L 141.134,-5027.47 L 139.953,-5027.23 L 139.11,-5026.51 L 138.604,-5025.31 L 138.435,-5023.63 L 138.476,-5022.75
 L 138.599,-5021.98 L 138.803,-5021.33 L 139.09,-5020.8 L 139.463,-5020.39 L 139.928,-5020.1 L 140.24,-5020
 L 135.361,-5020 L 136.142,-5020.3 L 136.785,-5020.84 L 137.219,-5021.6 L 136.147,-5021.91 L 136.043,-5021.67
 L 135.901,-5021.46 L 135.719,-5021.27 L 135.5,-5021.1 L 135.241,-5020.96 L 134.943,-5020.86 L 134.605,-5020.8
 L 134.228,-5020.78 L 133.757,-5020.82 L 133.345,-5020.95 L 132.994,-5021.17 L 132.702,-5021.46 L 132.474,-5021.84
 L 132.311,-5022.29 L 132.213,-5022.82 L 132.18,-5023.41 L 137.415,-5023.41 L 137.415,-5023.57 L 137.213,-5025.28
 L 136.607,-5026.5 L 135.596,-5027.23 L 134.181,-5027.47 L 133.436,-5027.41 L 132.783,-5027.23 L 132.221,-5026.93
 L 131.75,-5026.5 L 131.377,-5025.97 L 131.111,-5025.32 L 130.952,-5024.57 L 130.899,-5023.72 L 130.952,-5022.82
 L 131.111,-5022.04 L 131.377,-5021.38 L 131.75,-5020.83 L 132.224,-5020.41 L 132.795,-5020.11 L 133.187,-5020
 L 115.589,-5020 L 115.589,-5030.06 L 114.463,-5030.06 L 114.463,-5020 L 106.963,-5020 L 107.744,-5020.3
 L 108.387,-5020.84 L 108.82,-5021.6 L 107.749,-5021.91 L 107.645,-5021.67 L 107.502,-5021.46 L 107.321,-5021.27
 L 107.101,-5021.1 L 106.843,-5020.96 L 106.544,-5020.86 L 106.207,-5020.8 L 105.83,-5020.78 L 105.358,-5020.82
 L 104.947,-5020.95 L 104.595,-5021.17 L 104.304,-5021.46 L 104.076,-5021.84 L 103.912,-5022.29 L 103.815,-5022.82
 L 103.782,-5023.41 L 109.017,-5023.41 L 109.017,-5023.57 L 108.815,-5025.28 L 108.208,-5026.5 L 107.198,-5027.23
 L 105.782,-5027.47 L 105.038,-5027.41 L 104.385,-5027.23 L 103.822,-5026.93 L 103.351,-5026.5 L 102.979,-5025.97
 L 102.713,-5025.32 L 102.554,-5024.57 L 102.5,-5023.72 L 102.554,-5022.82 L 102.713,-5022.04 L 102.979,-5021.38
 L 103.351,-5020.83 L 103.825,-5020.41 L 104.397,-5020.11 L 104.789,-5020 L 101.667,-5020 L 101.899,-5020.05
 L 101.899,-5020.96 L 101.682,-5020.91 L 101.492,-5020.88 L 101.329,-5020.87 L 101.194,-5020.86 L 100.996,-5020.87
 L 100.83,-5020.91 L 100.696,-5020.98 L 100.593,-5021.07 L 100.518,-5021.2 L 100.464,-5021.37 L 100.431,-5021.57
 L 100.42,-5021.82 L 100.42,-5026.45 L 101.777,-5026.45 L 101.777,-5027.34 L 100.42,-5027.34 L 100.42,-5028.98
 L 99.6068,-5028.98 L 99.2473,-5027.34 L 98.3522,-5027.34 L 98.3522,-5026.45 L 99.1999,-5026.45 L 99.1999,-5021.55
 L 99.2914,-5020.83 L 99.5661,-5020.31 L 100.017,-5020 L 98.1237,-5020 L 98.3225,-5020.04 L 98.3225,-5020.8
 L 98.2136,-5020.78 L 98.1107,-5020.76 L 98.0136,-5020.76 L 97.9225,-5020.75 L 97.7386,-5020.77 L 97.5868,-5020.82
 L 97.4673,-5020.91 L 97.3799,-5021.03 L 97.3176,-5021.18 L 97.2731,-5021.37 L 97.2464,-5021.59 L 97.2375,-5021.84
 L 97.2375,-5025 L 97.1939,-5025.57 L 97.0629,-5026.06 L 96.8446,-5026.49 L 96.539,-5026.84 L 96.147,-5027.12
 L 95.6694,-5027.31 L 95.1061,-5027.43 L 94.4572,-5027.47 L 93.2866,-5027.35 L 92.4059,-5026.98 L 91.8151,-5026.36
 L 91.5142,-5025.49 L 92.789,-5025.38 L 92.845,-5025.66 L 92.9382,-5025.9 L 93.0688,-5026.11 L 93.2366,-5026.27
 L 93.4511,-5026.39 L 93.7215,-5026.47 L 94.0478,-5026.53 L 94.4301,-5026.54 L 94.8099,-5026.52 L 95.1354,-5026.45
 L 95.4066,-5026.33 L 95.6236,-5026.16 L 95.7898,-5025.93 L 95.9085,-5025.64 L 95.9797,-5025.29 L 96.0034,-5024.88
 L 96.0034,-5024.48 L 94.3555,-5024.45 L 93.5789,-5024.39 L 92.9171,-5024.27 L 92.3701,-5024.07 L 91.938,-5023.8
 L 91.6102,-5023.46 L 91.3761,-5023.05 L 91.2355,-5022.58 L 91.1887,-5022.05 L 91.2235,-5021.57 L 91.3277,-5021.14
 L 91.5015,-5020.77 L 91.7447,-5020.45 L 92.0571,-5020.19 L 92.4381,-5020.01 L 92.4801,-5020 L 85.1513,-5020
 L 85.6646,-5020.1 L 86.508,-5020.82 L 87.0141,-5022.02 L 87.1828,-5023.7 L 87.1408,-5024.61 L 87.0149,-5025.39
 L 86.8051,-5026.04 L 86.5114,-5026.56 L 86.1329,-5026.96 L 85.6688,-5027.24 L 85.1191,-5027.41 L 84.4838,-5027.47
 L 84.0676,-5027.45 L 83.6938,-5027.39 L 83.3623,-5027.29 L 83.0733,-5027.15 L 82.8186,-5026.97 L 82.5901,-5026.74
 L 82.388,-5026.47 L 82.2121,-5026.16 L 82.185,-5026.16 L 82.1839,-5026.24 L 82.1807,-5026.34 L 82.1754,-5026.47
 L 82.168,-5026.63 L 82.1597,-5026.79 L 82.1519,-5026.93 L 82.1445,-5027.05 L 82.1375,-5027.14 L 82.1311,-5027.22
 L 82.1256,-5027.28 L 82.121,-5027.32 L 82.1172,-5027.34 L 80.9372,-5027.34 L 80.955,-5027.11 L 80.9677,-5026.78
 L 80.9753,-5026.36 L 80.9779,-5025.84 L 80.9779,-5020 L 61.2827,-5020 L 64.0059,-5030.06 L 62.9344,-5030.06
 L 60.1844,-5020 L 34.6555,-5020 L 35.4369,-5020.3 L 36.0798,-5020.84 L 36.5134,-5021.6 L 35.442,-5021.91
 L 35.3379,-5021.67 L 35.1953,-5021.46 L 35.0141,-5021.27 L 34.7943,-5021.1 L 34.5356,-5020.96 L 34.2375,-5020.86
 L 33.8999,-5020.8 L 33.5229,-5020.78 L 33.0512,-5020.82 L 32.6396,-5020.95 L 32.2882,-5021.17 L 31.997,-5021.46
 L 31.7686,-5021.84 L 31.6054,-5022.29 L 31.5075,-5022.82 L 31.4749,-5023.41 L 36.7101,-5023.41 L 36.7101,-5023.57
 L 36.5079,-5025.28 L 35.9014,-5026.5 L 34.8906,-5027.23 L 33.4754,-5027.47 L 32.731,-5027.41 L 32.0776,-5027.23
 L 31.5154,-5026.93 L 31.0443,-5026.5 L 30.672,-5025.97 L 30.4061,-5025.32 L 30.2465,-5024.57 L 30.1933,-5023.72
 L 30.2465,-5022.82 L 30.4061,-5022.04 L 30.672,-5021.38 L 31.0443,-5020.83 L 31.5184,-5020.41 L 32.0895,-5020.11
 L 32.4821,-5020 L 26.2297,-5020 L 26.3681,-5020.04 L 26.6611,-5020.18 L 26.9292,-5020.37 L 27.1808,-5020.61
 L 27.4158,-5020.9 L 27.6342,-5021.25 L 27.6546,-5021.25 L 27.6611,-5021.01 L 27.6673,-5020.8 L 27.673,-5020.64
 L 27.6783,-5020.53 L 27.6831,-5020.43 L 27.6876,-5020.34 L 27.6916,-5020.26 L 27.6953,-5020.18 L 27.6987,-5020.12
 L 27.7021,-5020.06 L 27.7054,-5020.02 L 27.7088,-5020 L 28.8616,-5020 L 28.8438,-5020.2 L 28.8311,-5020.53
 L 28.8235,-5020.99 L 28.821,-5021.57 L 28.821,-5027.34 L 27.6004,-5027.34 L 27.6004,-5023.09 L 27.5686,-5022.58
 L 27.4732,-5022.13 L 27.3143,-5021.74 L 27.0918,-5021.41 L 26.8141,-5021.15 L 26.4899,-5020.96 L 26.119,-5020.84
 L 25.7016,-5020.81 L 25.418,-5020.82 L 25.1709,-5020.85 L 24.9603,-5020.91 L 24.7861,-5020.98 L 24.6407,-5021.09
 L 24.5165,-5021.22 L 24.4135,-5021.37 L 24.3318,-5021.56 L 24.2695,-5021.78 L 24.2249,-5022.04 L 24.1983,-5022.34
 L 24.1893,-5022.69 L 24.1893,-5027.34 L 22.9619,-5027.34 L 22.9619,-5022.45 L 22.9969,-5021.81 L 23.1018,-5021.26
 L 23.2766,-5020.81 L 23.5213,-5020.46 L 23.8416,-5020.2 L 24.2428,-5020.01 L 24.3046,-5020 L 21.2031,-5020
 L 21.2031,-5030.06 L 19.9825,-5030.06 L 19.9825,-5020 L 16.35,-5020 z
M 103.796,-5024.35 L 103.846,-5024.84 L 103.956,-5025.27 L 104.125,-5025.65 L 104.355,-5025.98 L 104.637,-5026.24
 L 104.966,-5026.42 L 105.341,-5026.53 L 105.762,-5026.57 L 106.193,-5026.54 L 106.571,-5026.44 L 106.895,-5026.27
 L 107.166,-5026.04 L 107.386,-5025.73 L 107.557,-5025.35 L 107.681,-5024.89 L 107.756,-5024.35 z
M 212.044,-5024.35 L 212.094,-5024.84 L 212.204,-5025.27 L 212.374,-5025.65 L 212.604,-5025.98 L 212.886,-5026.24
 L 213.215,-5026.42 L 213.59,-5026.53 L 214.011,-5026.57 L 214.442,-5026.54 L 214.819,-5026.44 L 215.144,-5026.27
 L 215.414,-5026.04 L 215.634,-5025.73 L 215.806,-5025.35 L 215.929,-5024.89 L 216.004,-5024.35 z
M 141.02,-5020.85 L 140.658,-5020.97 L 140.359,-5021.18 L 140.124,-5021.47 L 139.946,-5021.86 L 139.818,-5022.35
 L 139.742,-5022.96 L 139.717,-5023.68 L 139.742,-5024.39 L 139.819,-5025 L 139.948,-5025.5 L 140.127,-5025.89
 L 140.364,-5026.19 L 140.665,-5026.4 L 141.03,-5026.53 L 141.46,-5026.57 L 141.937,-5026.53 L 142.345,-5026.4
 L 142.683,-5026.19 L 142.951,-5025.89 L 143.156,-5025.51 L 143.302,-5025.02 L 143.39,-5024.44 L 143.419,-5023.76
 L 143.39,-5023.05 L 143.302,-5022.44 L 143.156,-5021.93 L 142.951,-5021.53 L 142.682,-5021.21 L 142.341,-5020.99
 L 141.929,-5020.85 L 141.446,-5020.81 z
M 132.194,-5024.35 L 132.244,-5024.84 L 132.354,-5025.27 L 132.524,-5025.65 L 132.753,-5025.98 L 133.036,-5026.24
 L 133.364,-5026.42 L 133.739,-5026.53 L 134.16,-5026.57 L 134.591,-5026.54 L 134.969,-5026.44 L 135.293,-5026.27
 L 135.564,-5026.04 L 135.784,-5025.73 L 135.956,-5025.35 L 136.079,-5024.89 L 136.154,-5024.35 z
M 31.4885,-5024.35 L 31.5387,-5024.84 L 31.6487,-5025.27 L 31.8184,-5025.65 L 32.0479,-5025.98 L 32.3304,-5026.24
 L 32.6591,-5026.42 L 33.034,-5026.53 L 33.4551,-5026.57 L 33.8861,-5026.54 L 34.2637,-5026.44 L 34.5879,-5026.27
 L 34.8587,-5026.04 L 35.0787,-5025.73 L 35.2504,-5025.35 L 35.3737,-5024.89 L 35.4487,-5024.35 z
M 83.6756,-5020.81 L 83.2649,-5020.94 L 82.9262,-5021.15 L 82.6596,-5021.45 L 82.4579,-5021.84 L 82.3138,-5022.33
 L 82.2273,-5022.91 L 82.1985,-5023.58 L 82.2118,-5024.07 L 82.2519,-5024.52 L 82.3186,-5024.92 L 82.4121,-5025.27
 L 82.5312,-5025.57 L 82.6749,-5025.83 L 82.8432,-5026.04 L 83.036,-5026.22 L 83.2608,-5026.35 L 83.5251,-5026.45
 L 83.8288,-5026.5 L 84.1719,-5026.52 L 84.5923,-5026.48 L 84.9517,-5026.36 L 85.2501,-5026.15 L 85.4874,-5025.87
 L 85.6684,-5025.48 L 85.7977,-5024.99 L 85.8752,-5024.39 L 85.9011,-5023.68 L 85.875,-5022.95 L 85.7968,-5022.33
 L 85.6665,-5021.82 L 85.484,-5021.43 L 85.2448,-5021.14 L 84.9441,-5020.93 L 84.5819,-5020.81 L 84.1583,-5020.77
 z
M 191.924,-5020.81 L 191.513,-5020.94 L 191.175,-5021.15 L 190.908,-5021.45 L 190.706,-5021.84 L 190.562,-5022.33
 L 190.476,-5022.91 L 190.447,-5023.58 L 190.46,-5024.07 L 190.501,-5024.52 L 190.567,-5024.92 L 190.661,-5025.27
 L 190.78,-5025.57 L 190.924,-5025.83 L 191.092,-5026.04 L 191.285,-5026.22 L 191.509,-5026.35 L 191.774,-5026.45
 L 192.077,-5026.5 L 192.421,-5026.52 L 192.841,-5026.48 L 193.2,-5026.36 L 193.499,-5026.15 L 193.736,-5025.87
 L 193.917,-5025.48 L 194.046,-5024.99 L 194.124,-5024.39 L 194.15,-5023.68 L 194.124,-5022.95 L 194.045,-5022.33
 L 193.915,-5021.82 L 193.733,-5021.43 L 193.493,-5021.14 L 193.193,-5020.93 L 192.831,-5020.81 L 192.407,-5020.77
 z
M 201.652,-5020.8 L 201.405,-5020.86 L 201.192,-5020.96 L 201.014,-5021.11 L 200.873,-5021.29 L 200.772,-5021.5
 L 200.712,-5021.75 L 200.692,-5022.03 L 200.707,-5022.29 L 200.751,-5022.52 L 200.825,-5022.73 L 200.929,-5022.92
 L 201.061,-5023.07 L 201.218,-5023.21 L 201.402,-5023.33 L 201.611,-5023.42 L 201.859,-5023.49 L 202.159,-5023.54
 L 202.512,-5023.58 L 202.916,-5023.59 L 204.252,-5023.62 L 204.252,-5023.02 L 204.233,-5022.74 L 204.177,-5022.46
 L 204.082,-5022.19 L 203.95,-5021.92 L 203.786,-5021.67 L 203.593,-5021.45 L 203.374,-5021.25 L 203.126,-5021.08
 L 202.856,-5020.95 L 202.567,-5020.86 L 202.259,-5020.8 L 201.933,-5020.78 z
M 93.403,-5020.8 L 93.1561,-5020.86 L 92.9435,-5020.96 L 92.7653,-5021.11 L 92.6244,-5021.29 L 92.5237,-5021.5
 L 92.4633,-5021.75 L 92.4432,-5022.03 L 92.4581,-5022.29 L 92.5025,-5022.52 L 92.5767,-5022.73 L 92.6805,-5022.92
 L 92.8121,-5023.07 L 92.9696,-5023.21 L 93.1529,-5023.33 L 93.362,-5023.42 L 93.6102,-5023.49 L 93.9105,-5023.54
 L 94.2629,-5023.58 L 94.6675,-5023.59 L 96.0034,-5023.62 L 96.0034,-5023.02 L 95.9846,-5022.74 L 95.928,-5022.46
 L 95.8337,-5022.19 L 95.7016,-5021.92 L 95.5369,-5021.67 L 95.3447,-5021.45 L 95.125,-5021.25 L 94.8776,-5021.08
 L 94.6073,-5020.95 L 94.3182,-5020.86 L 94.0105,-5020.8 L 93.6842,-5020.78 z
M 94.3871,-5020 L 94.588,-5020.06 L 94.915,-5020.21 L 95.2157,-5020.42 L 95.4974,-5020.69 L 95.7599,-5021.01
 L 96.0034,-5021.4 L 96.044,-5021.4 L 96.0811,-5021.05 L 96.1517,-5020.75 L 96.2557,-5020.49 L 96.3932,-5020.29
 L 96.5706,-5020.13 L 96.7942,-5020.02 L 96.8799,-5020 z
M 202.636,-5020 L 202.837,-5020.06 L 203.164,-5020.21 L 203.464,-5020.42 L 203.746,-5020.69 L 204.009,-5021.01
 L 204.252,-5021.4 L 204.293,-5021.4 L 204.33,-5021.05 L 204.4,-5020.75 L 204.504,-5020.49 L 204.642,-5020.29
 L 204.819,-5020.13 L 205.043,-5020.02 L 205.129,-5020 z
M 82.1984,-5020 L 82.1968,-5020.47 L 82.1917,-5020.82 L 82.1832,-5021.05 L 82.1714,-5021.14 L 82.2053,-5021.14
 L 82.5664,-5020.58 L 83.0665,-5020.18 L 83.5562,-5020 z
M 190.447,-5020 L 190.445,-5020.47 L 190.44,-5020.82 L 190.432,-5021.05 L 190.42,-5021.14 L 190.454,-5021.14
 L 190.815,-5020.58 L 191.315,-5020.18 L 191.805,-5020 z
M 179.19,-5021.04 L 174.206,-5021.04 L 174.323,-5021.28 L 174.473,-5021.52 L 174.656,-5021.77 L 174.87,-5022.02
 L 175.121,-5022.29 L 175.411,-5022.57 L 175.741,-5022.86 L 176.111,-5023.17 L 176.762,-5023.71 L 177.299,-5024.18
 L 177.722,-5024.56 L 178.03,-5024.88 L 178.266,-5025.15 L 178.47,-5025.42 L 178.644,-5025.7 L 178.786,-5025.97
 L 178.898,-5026.25 L 178.977,-5026.53 L 179.025,-5026.8 L 179.041,-5027.08 L 178.992,-5027.67 L 178.846,-5028.19
 L 178.604,-5028.64 L 178.264,-5029.02 L 177.834,-5029.31 L 177.321,-5029.53 L 176.724,-5029.65 L 176.043,-5029.7
 L 175.415,-5029.65 L 174.847,-5029.53 L 174.339,-5029.32 L 173.89,-5029.02 L 173.515,-5028.65 L 173.228,-5028.22
 L 173.029,-5027.74 L 172.917,-5027.19 L 174.165,-5027.08 L 174.235,-5027.44 L 174.357,-5027.76 L 174.532,-5028.04
 L 174.758,-5028.27 L 175.028,-5028.46 L 175.332,-5028.59 L 175.67,-5028.67 L 176.043,-5028.69 L 176.431,-5028.67
 L 176.774,-5028.59 L 177.072,-5028.45 L 177.325,-5028.26 L 177.527,-5028.02 L 177.671,-5027.74 L 177.757,-5027.41
 L 177.786,-5027.04 L 177.769,-5026.75 L 177.719,-5026.49 L 177.635,-5026.23 L 177.518,-5025.99 L 177.374,-5025.77
 L 177.209,-5025.54 L 177.023,-5025.33 L 176.816,-5025.11 L 176.593,-5024.9 L 176.356,-5024.69 L 176.106,-5024.48
 L 175.843,-5024.27 L 175.573,-5024.06 L 175.301,-5023.83 L 175.029,-5023.6 L 174.755,-5023.36 L 174.483,-5023.11
 L 174.218,-5022.84 L 173.959,-5022.56 L 173.707,-5022.26 L 173.467,-5021.95 L 173.247,-5021.61 L 173.045,-5021.25
 L 172.863,-5020.86 L 172.863,-5020 L 179.19,-5020 z
M 69.89,-5022.16 L 71.2327,-5022.16 L 71.2327,-5023.13 L 69.89,-5023.13 L 69.89,-5029.55 L 68.6083,-5029.55
 L 64.2344,-5023.11 L 64.2344,-5022.16 L 68.7372,-5022.16 L 68.7372,-5020 L 69.89,-5020 z
M 65.3601,-5023.13 L 65.4686,-5023.26 L 65.8348,-5023.76 L 68.2828,-5027.37 L 68.3324,-5027.45 L 68.393,-5027.55
 L 68.4647,-5027.67 L 68.5473,-5027.82 L 68.6253,-5027.96 L 68.6829,-5028.07 L 68.7202,-5028.14 L 68.7372,-5028.18
 L 68.7372,-5023.13 z
M 181.545,-5029.55 L 180.298,-5029.55 L 180.44,-5026.55 L 181.396,-5026.55 z
M 122.948,-5023.97 L 125.925,-5023.97 L 128.407,-5020 L 129.899,-5020 L 127.186,-5024.12 L 127.703,-5024.24
 L 128.16,-5024.44 L 128.559,-5024.7 L 128.899,-5025.03 L 129.17,-5025.42 L 129.364,-5025.84 L 129.48,-5026.31
 L 129.519,-5026.82 L 129.464,-5027.43 L 129.3,-5027.97 L 129.025,-5028.44 L 128.641,-5028.83 L 128.156,-5029.15
 L 127.579,-5029.37 L 126.91,-5029.51 L 126.149,-5029.55 L 121.653,-5029.55 L 121.653,-5020 L 122.948,-5020
 z
M 122.948,-5024.99 L 122.948,-5028.52 L 126.02,-5028.52 L 126.521,-5028.49 L 126.96,-5028.41 L 127.337,-5028.27
 L 127.651,-5028.08 L 127.899,-5027.84 L 128.076,-5027.54 L 128.182,-5027.2 L 128.217,-5026.81 L 128.182,-5026.4
 L 128.077,-5026.04 L 127.902,-5025.73 L 127.658,-5025.47 L 127.349,-5025.26 L 126.982,-5025.11 L 126.557,-5025.02
 L 126.074,-5024.99 z
M 184.048,-5029.55 L 182.8,-5029.55 L 182.936,-5026.55 L 183.898,-5026.55 z
M 75.799,-5029.55 L 74.5513,-5029.55 L 74.6869,-5026.55 L 75.6498,-5026.55 z
M 73.2967,-5029.55 L 72.049,-5029.55 L 72.1914,-5026.55 L 73.1475,-5026.55 z
M 15.8001,-5020.04 L 16.4914,-5020.18 L 17.0919,-5020.4 L 17.6018,-5020.71 L 18.0082,-5021.1 L 18.2985,-5021.56
 L 18.4727,-5022.09 L 18.5308,-5022.69 L 18.4922,-5023.15 L 18.3765,-5023.57 L 18.1837,-5023.94 L 17.9137,-5024.28
 L 17.5725,-5024.56 L 17.1661,-5024.78 L 16.6944,-5024.94 L 16.1574,-5025.04 L 16.5668,-5025.16 L 16.9271,-5025.33
 L 17.2382,-5025.55 L 17.5001,-5025.81 L 17.7078,-5026.12 L 17.8561,-5026.46 L 17.9451,-5026.83 L 17.9748,-5027.24
 L 17.7646,-5028.25 L 17.1339,-5028.97 L 16.0828,-5029.41 L 14.6113,-5029.55 L 11.1393,-5029.55 L 11.1393,-5020
 L 15.0181,-5020 z
M 12.4345,-5025.49 L 12.4345,-5028.52 L 14.6113,-5028.52 L 15.0834,-5028.5 L 15.4962,-5028.43 L 15.8497,-5028.33
 L 16.1438,-5028.18 L 16.3752,-5027.99 L 16.5405,-5027.74 L 16.6397,-5027.44 L 16.6728,-5027.08 L 16.6408,-5026.7
 L 16.5448,-5026.38 L 16.3848,-5026.1 L 16.1608,-5025.88 L 15.8719,-5025.71 L 15.5174,-5025.59 L 15.0972,-5025.52
 L 14.6113,-5025.49 z
M 12.4345,-5021.04 L 12.4345,-5024.48 L 14.8486,-5024.48 L 15.8869,-5024.38 L 16.6286,-5024.06 L 17.0737,-5023.53
 L 17.222,-5022.79 L 17.1881,-5022.38 L 17.0864,-5022.03 L 16.9168,-5021.73 L 16.6795,-5021.48 L 16.368,-5021.29
 L 15.9759,-5021.15 L 15.5034,-5021.07 L 14.9503,-5021.04 z
M 167.898,-5021.04 L 165.573,-5021.04 L 165.573,-5029.55 L 164.447,-5029.55 L 162.189,-5028 L 162.189,-5026.85
 L 164.345,-5028.39 L 164.345,-5021.04 L 161.911,-5021.04 L 161.911,-5020 L 167.898,-5020 z
M 59.6498,-5021.04 L 57.3239,-5021.04 L 57.3239,-5029.55 L 56.1982,-5029.55 L 53.94,-5028 L 53.94,-5026.85
 L 56.0964,-5028.39 L 56.0964,-5021.04 L 53.662,-5021.04 L 53.662,-5020 L 59.6498,-5020 z
M 156.589,-5026.81 L 149.842,-5026.81 L 149.842,-5025.8 L 156.589,-5025.8 z
M 48.3404,-5026.81 L 41.593,-5026.81 L 41.593,-5025.8 L 48.3404,-5025.8 z
M 48.3404,-5023.34 L 41.593,-5023.34 L 41.593,-5022.33 L 48.3404,-5022.33 z
M 156.589,-5023.34 L 149.842,-5023.34 L 149.842,-5022.33 L 156.589,-5022.33 z
M 317.67,-4999.92 L 318.14,-5000 L 318.548,-5000.14 L 318.892,-5000.34 L 319.167,-5000.59 L 319.362,-5000.89
 L 319.48,-5001.23 L 319.519,-5001.62 L 319.512,-5001.79 L 319.492,-5001.94 L 319.458,-5002.09 L 319.411,-5002.22
 L 319.351,-5002.35 L 319.28,-5002.47 L 319.197,-5002.58 L 319.104,-5002.69 L 318.996,-5002.78 L 318.87,-5002.88
 L 318.726,-5002.97 L 318.564,-5003.05 L 318.366,-5003.14 L 318.114,-5003.22 L 317.807,-5003.32 L 317.447,-5003.41
 L 317.072,-5003.51 L 316.769,-5003.59 L 316.535,-5003.66 L 316.372,-5003.73 L 316.253,-5003.79 L 316.149,-5003.85
 L 316.06,-5003.93 L 315.987,-5004 L 315.93,-5004.09 L 315.89,-5004.19 L 315.865,-5004.3 L 315.857,-5004.42
 L 315.877,-5004.61 L 315.936,-5004.77 L 316.034,-5004.91 L 316.172,-5005.02 L 316.351,-5005.11 L 316.573,-5005.17
 L 316.839,-5005.21 L 317.148,-5005.22 L 317.432,-5005.21 L 317.685,-5005.17 L 317.908,-5005.11 L 318.1,-5005.02
 L 318.261,-5004.9 L 318.387,-5004.76 L 318.479,-5004.6 L 318.537,-5004.42 L 319.416,-5004.52 L 319.314,-5004.88
 L 319.159,-5005.18 L 318.952,-5005.42 L 318.692,-5005.62 L 318.381,-5005.77 L 318.02,-5005.88 L 317.609,-5005.94
 L 317.148,-5005.96 L 316.633,-5005.94 L 316.183,-5005.86 L 315.799,-5005.73 L 315.48,-5005.54 L 315.23,-5005.31
 L 315.051,-5005.03 L 314.944,-5004.7 L 314.908,-5004.32 L 314.92,-5004.11 L 314.958,-5003.92 L 315.021,-5003.74
 L 315.109,-5003.59 L 315.219,-5003.44 L 315.348,-5003.31 L 315.497,-5003.19 L 315.665,-5003.08 L 315.873,-5002.97
 L 316.141,-5002.87 L 316.471,-5002.76 L 316.861,-5002.65 L 317.561,-5002.47 L 317.808,-5002.39 L 318.019,-5002.31
 L 318.193,-5002.21 L 318.331,-5002.11 L 318.435,-5001.99 L 318.51,-5001.86 L 318.555,-5001.71 L 318.57,-5001.55
 L 318.548,-5001.33 L 318.484,-5001.15 L 318.376,-5000.99 L 318.225,-5000.86 L 318.028,-5000.76 L 317.781,-5000.69
 L 317.484,-5000.65 L 317.137,-5000.63 L 316.809,-5000.65 L 316.519,-5000.69 L 316.267,-5000.76 L 316.052,-5000.85
 L 315.874,-5000.98 L 315.728,-5001.14 L 315.616,-5001.33 L 315.537,-5001.55 L 314.674,-5001.38 L 314.79,-5001.02
 L 314.957,-5000.71 L 315.176,-5000.46 L 315.448,-5000.25 L 315.776,-5000.09 L 316.167,-4999.98 L 316.621,-4999.91
 L 317.137,-4999.89 z
M 154.889,-3600.12 L 156.08,-3600.48 L 157.178,-3601.07 L 158.14,-3601.86 L 158.93,-3602.82 L 159.517,-3603.92
 L 159.878,-3605.11 L 160,-3606.35 L 160,-4793.65 L 159.878,-4794.89 L 159.517,-4796.08 L 158.93,-4797.18
 L 158.14,-4798.14 L 157.178,-4798.93 L 156.08,-4799.52 L 154.889,-4799.88 L 153.65,-4800 L 16.35,-4800
 L 15.1112,-4799.88 L 13.92,-4799.52 L 12.8221,-4798.93 L 11.8599,-4798.14 L 11.0702,-4797.18 L 10.4834,-4796.08
 L 10.122,-4794.89 L 10,-4793.65 L 10,-3606.35 L 10.122,-3605.11 L 10.4834,-3603.92 L 11.0702,-3602.82
 L 11.8599,-3601.86 L 12.8221,-3601.07 L 13.92,-3600.48 L 15.1112,-3600.12 L 16.35,-3600 L 153.65,-3600
 z
M 324.889,-3600.12 L 326.08,-3600.48 L 327.178,-3601.07 L 328.14,-3601.86 L 328.93,-3602.82 L 329.517,-3603.92
 L 329.878,-3605.11 L 330,-3606.35 L 330,-4793.65 L 329.878,-4794.89 L 329.517,-4796.08 L 328.93,-4797.18
 L 328.14,-4798.14 L 327.178,-4798.93 L 326.08,-4799.52 L 324.889,-4799.88 L 323.65,-4800 L 186.35,-4800
 L 185.111,-4799.88 L 183.92,-4799.52 L 182.822,-4798.93 L 181.86,-4798.14 L 181.07,-4797.18 L 180.483,-4796.08
 L 180.122,-4794.89 L 180,-4793.65 L 180,-3606.35 L 180.122,-3605.11 L 180.483,-3603.92 L 181.07,-3602.82
 L 181.86,-3601.86 L 182.822,-3601.07 L 183.92,-3600.48 L 185.111,-3600.12 L 186.35,-3600 L 323.65,-3600
 z
M 1344.89,-3600.12 L 1346.08,-3600.48 L 1347.18,-3601.07 L 1348.14,-3601.86 L 1348.93,-3602.82 L 1349.52,-3603.92
 L 1349.88,-3605.11 L 1350,-3606.35 L 1350,-3993.65 L 1349.88,-3994.89 L 1349.52,-3996.08 L 1348.93,-3997.18
 L 1348.14,-3998.14 L 1347.18,-3998.93 L 1346.08,-3999.52 L 1344.89,-3999.88 L 1343.65,-4000 L 356.35,-4000
 L 355.111,-3999.88 L 353.92,-3999.52 L 352.822,-3998.93 L 351.86,-3998.14 L 351.07,-3997.18 L 350.483,-3996.08
 L 350.122,-3994.89 L 350,-3993.65 L 350,-3606.35 L 350.122,-3605.11 L 350.483,-3603.92 L 351.07,-3602.82
 L 351.86,-3601.86 L 352.822,-3601.07 L 353.92,-3600.48 L 355.111,-3600.12 L 356.35,-3600 L 1343.65,-3600
 z
M 1224.89,-3180.12 L 1226.08,-3180.48 L 1227.18,-3181.07 L 1228.14,-3181.86 L 1228.93,-3182.82 L 1229.52,-3183.92
 L 1229.88,-3185.11 L 1230,-3186.35 L 1230,-3573.65 L 1229.88,-3574.89 L 1229.52,-3576.08 L 1228.93,-3577.18
 L 1228.14,-3578.14 L 1227.18,-3578.93 L 1226.08,-3579.52 L 1224.89,-3579.88 L 1223.65,-3580 L 636.35,-3580
 L 635.111,-3579.88 L 633.92,-3579.52 L 632.822,-3578.93 L 631.86,-3578.14 L 631.07,-3577.18 L 630.483,-3576.08
 L 630.122,-3574.89 L 630,-3573.65 L 630,-3186.35 L 630.122,-3185.11 L 630.483,-3183.92 L 631.07,-3182.82
 L 631.86,-3181.86 L 632.822,-3181.07 L 633.92,-3180.48 L 635.111,-3180.12 L 636.35,-3180 L 1223.65,-3180
 z
M 604.889,-3180.12 L 606.08,-3180.48 L 607.178,-3181.07 L 608.14,-3181.86 L 608.93,-3182.82 L 609.517,-3183.92
 L 609.878,-3185.11 L 610,-3186.35 L 610,-3573.65 L 609.878,-3574.89 L 609.517,-3576.08 L 608.93,-3577.18
 L 608.14,-3578.14 L 607.178,-3578.93 L 606.08,-3579.52 L 604.889,-3579.88 L 603.65,-3580 L 16.35,-3580
 L 15.1112,-3579.88 L 13.92,-3579.52 L 12.8221,-3578.93 L 11.8599,-3578.14 L 11.0702,-3577.18 L 10.4834,-3576.08
 L 10.122,-3574.89 L 10,-3573.65 L 10,-3186.35 L 10.122,-3185.11 L 10.4834,-3183.92 L 11.0702,-3182.82
 L 11.8599,-3181.86 L 12.8221,-3181.07 L 13.92,-3180.48 L 15.1112,-3180.12 L 16.35,-3180 L 603.65,-3180
 z
M 1104.89,-2760.12 L 1106.08,-2760.48 L 1107.18,-2761.07 L 1108.14,-2761.86 L 1108.93,-2762.82 L 1109.52,-2763.92
 L 1109.88,-2765.11 L 1110,-2766.35 L 1110,-3153.65 L 1109.88,-3154.89 L 1109.52,-3156.08 L 1108.93,-3157.18
 L 1108.14,-3158.14 L 1107.18,-3158.93 L 1106.08,-3159.52 L 1104.89,-3159.88 L 1103.65,-3160 L 16.35,-3160
 L 15.1112,-3159.88 L 13.92,-3159.52 L 12.8221,-3158.93 L 11.8599,-3158.14 L 11.0702,-3157.18 L 10.4834,-3156.08
 L 10.122,-3154.89 L 10,-3153.65 L 10,-2766.35 L 10.122,-2765.11 L 10.4834,-2763.92 L 11.0702,-2762.82
 L 11.8599,-2761.86 L 12.8221,-2761.07 L 13.92,-2760.48 L 15.1112,-2760.12 L 16.35,-2760 L 1103.65,-2760
 z
M 1104.89,-2140.12 L 1106.08,-2140.48 L 1107.18,-2141.07 L 1108.14,-2141.86 L 1108.93,-2142.82 L 1109.52,-2143.92
 L 1109.88,-2145.11 L 1110,-2146.35 L 1110,-2733.65 L 1109.88,-2734.89 L 1109.52,-2736.08 L 1108.93,-2737.18
 L 1108.14,-2738.14 L 1107.18,-2738.93 L 1106.08,-2739.52 L 1104.89,-2739.88 L 1103.65,-2740 L 16.35,-2740
 L 15.1112,-2739.88 L 13.92,-2739.52 L 12.8221,-2738.93 L 11.8599,-2738.14 L 11.0702,-2737.18 L 10.4834,-2736.08
 L 10.122,-2734.89 L 10,-2733.65 L 10,-2146.35 L 10.122,-2145.11 L 10.4834,-2143.92 L 11.0702,-2142.82
 L 11.8599,-2141.86 L 12.8221,-2141.07 L 13.92,-2140.48 L 15.1112,-2140.12 L 16.35,-2140 L 1103.65,-2140
 z
M 204.889,-1920.12 L 206.08,-1920.48 L 207.178,-1921.07 L 208.14,-1921.86 L 208.93,-1922.82 L 209.517,-1923.92
 L 209.878,-1925.11 L 210,-1926.35 L 210,-2113.65 L 209.878,-2114.89 L 209.517,-2116.08 L 208.93,-2117.18
 L 208.14,-2118.14 L 207.178,-2118.93 L 206.08,-2119.52 L 204.889,-2119.88 L 203.65,-2120 L 16.35,-2120
 L 15.1112,-2119.88 L 13.92,-2119.52 L 12.8221,-2118.93 L 11.8599,-2118.14 L 11.0702,-2117.18 L 10.4834,-2116.08
 L 10.122,-2114.89 L 10,-2113.65 L 10,-1926.35 L 10.122,-1925.11 L 10.4834,-1923.92 L 11.0702,-1922.82
 L 11.8599,-1921.86 L 12.8221,-1921.07 L 13.92,-1920.48 L 15.1112,-1920.12 L 16.35,-1920 L 203.65,-1920
 z
M 424.889,-1920.12 L 426.08,-1920.48 L 427.178,-1921.07 L 428.14,-1921.86 L 428.93,-1922.82 L 429.517,-1923.92
 L 429.878,-1925.11 L 430,-1926.35 L 430,-2113.65 L 429.878,-2114.89 L 429.517,-2116.08 L 428.93,-2117.18
 L 428.14,-2118.14 L 427.178,-2118.93 L 426.08,-2119.52 L 424.889,-2119.88 L 423.65,-2120 L 236.35,-2120
 L 235.111,-2119.88 L 233.92,-2119.52 L 232.822,-2118.93 L 231.86,-2118.14 L 231.07,-2117.18 L 230.483,-2116.08
 L 230.122,-2114.89 L 230,-2113.65 L 230,-1926.35 L 230.122,-1925.11 L 230.483,-1923.92 L 231.07,-1922.82
 L 231.86,-1921.86 L 232.822,-1921.07 L 233.92,-1920.48 L 235.111,-1920.12 L 236.35,-1920 L 423.65,-1920
 z
M 544.889,-1920.12 L 546.08,-1920.48 L 547.178,-1921.07 L 548.14,-1921.86 L 548.93,-1922.82 L 549.517,-1923.92
 L 549.878,-1925.11 L 550,-1926.35 L 550,-2063.65 L 549.878,-2064.89 L 549.517,-2066.08 L 548.93,-2067.18
 L 548.14,-2068.14 L 547.178,-2068.93 L 546.08,-2069.52 L 544.889,-2069.88 L 543.65,-2070 L 456.35,-2070
 L 455.111,-2069.88 L 453.92,-2069.52 L 452.822,-2068.93 L 451.86,-2068.14 L 451.07,-2067.18 L 450.483,-2066.08
 L 450.122,-2064.89 L 450,-2063.65 L 450,-1926.35 L 450.122,-1925.11 L 450.483,-1923.92 L 451.07,-1922.82
 L 451.86,-1921.86 L 452.822,-1921.07 L 453.92,-1920.48 L 455.111,-1920.12 L 456.35,-1920 L 543.65,-1920
 z
M 664.889,-1920.12 L 666.08,-1920.48 L 667.178,-1921.07 L 668.14,-1921.86 L 668.93,-1922.82 L 669.517,-1923.92
 L 669.878,-1925.11 L 670,-1926.35 L 670,-2063.65 L 669.878,-2064.89 L 669.517,-2066.08 L 668.93,-2067.18
 L 668.14,-2068.14 L 667.178,-2068.93 L 666.08,-2069.52 L 664.889,-2069.88 L 663.65,-2070 L 576.35,-2070
 L 575.111,-2069.88 L 573.92,-2069.52 L 572.822,-2068.93 L 571.86,-2068.14 L 571.07,-2067.18 L 570.483,-2066.08
 L 570.122,-2064.89 L 570,-2063.65 L 570,-1926.35 L 570.122,-1925.11 L 570.483,-1923.92 L 571.07,-1922.82
 L 571.86,-1921.86 L 572.822,-1921.07 L 573.92,-1920.48 L 575.111,-1920.12 L 576.35,-1920 L 663.65,-1920
 z
M 784.889,-1920.12 L 786.08,-1920.48 L 787.178,-1921.07 L 788.14,-1921.86 L 788.93,-1922.82 L 789.517,-1923.92
 L 789.878,-1925.11 L 790,-1926.35 L 790,-2063.65 L 789.878,-2064.89 L 789.517,-2066.08 L 788.93,-2067.18
 L 788.14,-2068.14 L 787.178,-2068.93 L 786.08,-2069.52 L 784.889,-2069.88 L 783.65,-2070 L 696.35,-2070
 L 695.111,-2069.88 L 693.92,-2069.52 L 692.822,-2068.93 L 691.86,-2068.14 L 691.07,-2067.18 L 690.483,-2066.08
 L 690.122,-2064.89 L 690,-2063.65 L 690,-1926.35 L 690.122,-1925.11 L 690.483,-1923.92 L 691.07,-1922.82
 L 691.86,-1921.86 L 692.822,-1921.07 L 693.92,-1920.48 L 695.111,-1920.12 L 696.35,-1920 L 783.65,-1920
 z
M 904.889,-1920.12 L 906.08,-1920.48 L 907.178,-1921.07 L 908.14,-1921.86 L 908.93,-1922.82 L 909.517,-1923.92
 L 909.878,-1925.11 L 910,-1926.35 L 910,-2063.65 L 909.878,-2064.89 L 909.517,-2066.08 L 908.93,-2067.18
 L 908.14,-2068.14 L 907.178,-2068.93 L 906.08,-2069.52 L 904.889,-2069.88 L 903.65,-2070 L 816.35,-2070
 L 815.111,-2069.88 L 813.92,-2069.52 L 812.822,-2068.93 L 811.86,-2068.14 L 811.07,-2067.18 L 810.483,-2066.08
 L 810.122,-2064.89 L 810,-2063.65 L 810,-1926.35 L 810.122,-1925.11 L 810.483,-1923.92 L 811.07,-1922.82
 L 811.86,-1921.86 L 812.822,-1921.07 L 813.92,-1920.48 L 815.111,-1920.12 L 816.35,-1920 L 903.65,-1920
 z
M 1064.89,-1650.12 L 1066.08,-1650.48 L 1067.18,-1651.07 L 1068.14,-1651.86 L 1068.93,-1652.82 L 1069.52,-1653.92
 L 1069.88,-1655.11 L 1070,-1656.35 L 1070,-1893.65 L 1069.88,-1894.89 L 1069.52,-1896.08 L 1068.93,-1897.18
 L 1068.14,-1898.14 L 1067.18,-1898.93 L 1066.08,-1899.52 L 1064.89,-1899.88 L 1063.65,-1900 L 826.35,-1900
 L 825.111,-1899.88 L 823.92,-1899.52 L 822.822,-1898.93 L 821.86,-1898.14 L 821.07,-1897.18 L 820.483,-1896.08
 L 820.122,-1894.89 L 820,-1893.65 L 820,-1656.35 L 820.122,-1655.11 L 820.483,-1653.92 L 821.07,-1652.82
 L 821.86,-1651.86 L 822.822,-1651.07 L 823.92,-1650.48 L 825.111,-1650.12 L 826.35,-1650 L 1063.65,-1650
 z
M 794.889,-1650.12 L 796.08,-1650.48 L 797.178,-1651.07 L 798.14,-1651.86 L 798.93,-1652.82 L 799.517,-1653.92
 L 799.878,-1655.11 L 800,-1656.35 L 800,-1893.65 L 799.878,-1894.89 L 799.517,-1896.08 L 798.93,-1897.18
 L 798.14,-1898.14 L 797.178,-1898.93 L 796.08,-1899.52 L 794.889,-1899.88 L 793.65,-1900 L 556.35,-1900
 L 555.111,-1899.88 L 553.92,-1899.52 L 552.822,-1898.93 L 551.86,-1898.14 L 551.07,-1897.18 L 550.483,-1896.08
 L 550.122,-1894.89 L 550,-1893.65 L 550,-1656.35 L 550.122,-1655.11 L 550.483,-1653.92 L 551.07,-1652.82
 L 551.86,-1651.86 L 552.822,-1651.07 L 553.92,-1650.48 L 555.111,-1650.12 L 556.35,-1650 L 793.65,-1650
 z
M 524.889,-1650.12 L 526.08,-1650.48 L 527.178,-1651.07 L 528.14,-1651.86 L 528.93,-1652.82 L 529.517,-1653.92
 L 529.878,-1655.11 L 530,-1656.35 L 530,-1893.65 L 529.878,-1894.89 L 529.517,-1896.08 L 528.93,-1897.18
 L 528.14,-1898.14 L 527.178,-1898.93 L 526.08,-1899.52 L 524.889,-1899.88 L 523.65,-1900 L 286.35,-1900
 L 285.111,-1899.88 L 283.92,-1899.52 L 282.822,-1898.93 L 281.86,-1898.14 L 281.07,-1897.18 L 280.483,-1896.08
 L 280.122,-1894.89 L 280,-1893.65 L 280,-1656.35 L 280.122,-1655.11 L 280.483,-1653.92 L 281.07,-1652.82
 L 281.86,-1651.86 L 282.822,-1651.07 L 283.92,-1650.48 L 285.111,-1650.12 L 286.35,-1650 L 523.65,-1650
 z
M 254.889,-1650.12 L 256.08,-1650.48 L 257.178,-1651.07 L 258.14,-1651.86 L 258.93,-1652.82 L 259.517,-1653.92
 L 259.878,-1655.11 L 260,-1656.35 L 260,-1893.65 L 259.878,-1894.89 L 259.517,-1896.08 L 258.93,-1897.18
 L 258.14,-1898.14 L 257.178,-1898.93 L 256.08,-1899.52 L 254.889,-1899.88 L 253.65,-1900 L 16.35,-1900
 L 15.1112,-1899.88 L 13.92,-1899.52 L 12.8221,-1898.93 L 11.8599,-1898.14 L 11.0702,-1897.18 L 10.4834,-1896.08
 L 10.122,-1894.89 L 10,-1893.65 L 10,-1656.35 L 10.122,-1655.11 L 10.4834,-1653.92 L 11.0702,-1652.82
 L 11.8599,-1651.86 L 12.8221,-1651.07 L 13.92,-1650.48 L 15.1112,-1650.12 L 16.35,-1650 L 253.65,-1650
 z
M 1004.89,-930.122 L 1006.08,-930.483 L 1007.18,-931.07 L 1008.14,-931.86 L 1008.93,-932.822 L 1009.52,-933.92
 L 1009.88,-935.111 L 1010,-936.35 L 1010,-1623.65 L 1009.88,-1624.89 L 1009.52,-1626.08 L 1008.93,-1627.18
 L 1008.14,-1628.14 L 1007.18,-1628.93 L 1006.08,-1629.52 L 1004.89,-1629.88 L 1003.65,-1630 L 16.35,-1630
 L 15.1112,-1629.88 L 13.92,-1629.52 L 12.8221,-1628.93 L 11.8599,-1628.14 L 11.0702,-1627.18 L 10.4834,-1626.08
 L 10.122,-1624.89 L 10,-1623.65 L 10,-936.35 L 10.122,-935.111 L 10.4834,-933.92 L 11.0702,-932.822
 L 11.8599,-931.86 L 12.8221,-931.07 L 13.92,-930.483 L 15.1112,-930.122 L 16.35,-930 L 1003.65,-930
 z
M 1727.39,-10.3108 L 1729.16,-11.2128 L 1730.56,-12.6176 L 1731.45,-14.342 L 2027.21,-901.642 L 2027.54,-903.602
 L 2027.24,-905.566 L 2026.36,-907.343 L 2024.96,-908.759 L 2023.2,-909.674 L 2021.19,-910 L 1036.35,-910
 L 1034.39,-909.689 L 1032.62,-908.787 L 1031.21,-907.382 L 1030.31,-905.612 L 1030,-903.65 L 1030,-16.35
 L 1030.31,-14.3877 L 1031.21,-12.6176 L 1032.62,-11.2128 L 1034.39,-10.3108 L 1036.35,-10 L 1725.42,-10
 z
M 707.385,-10.3108 L 709.156,-11.2128 L 710.56,-12.6176 L 711.447,-14.342 L 1007.21,-901.642 L 1007.54,-903.602
 L 1007.24,-905.566 L 1006.36,-907.343 L 1004.96,-908.759 L 1003.2,-909.674 L 1001.19,-910 L 16.35,-910
 L 14.3877,-909.689 L 12.6176,-908.787 L 11.2128,-907.382 L 10.3108,-905.612 L 10,-903.65 L 10,-16.35
 L 10.3108,-14.3877 L 11.2128,-12.6176 L 12.6176,-11.2128 L 14.3877,-10.3108 L 16.35,-10 L 705.423,-10
 z
" stroke="black" fill="lightgray" stroke-width="0.5"/>
</svg>
