<?xml version="1.0" standalone="no"?>
<!DOCTYPE svg PUBLIC "-//W3C//DTD SVG 1.1//EN" "http://www.w3.org/Graphics/SVG/1.1/DTD/svg11.dtd">
<svg width="10656mm" height="1700mm" viewBox="-990 -1410 10656 1700" xmlns="http://www.w3.org/2000/svg" version="1.1">
<title>OpenSCAD Model</title>
<path d="
M -200.323,-12.0533 L -199.724,-14.0277 L -198.751,-15.8474 L -197.442,-17.4423 L -195.847,-18.7512 L -194.028,-19.7238
 L -192.053,-20.3228 L -190,-20.525 L -187.947,-20.3228 L -185.972,-19.7238 L -184.153,-18.7512 L -182.558,-17.4423
 L -181.249,-15.8474 L -180.276,-14.0277 L -179.677,-12.0533 L -179.475,-10 L 0,-10 L 2.07912,-10.2185
 L 4.06737,-10.8645 L 5.87785,-11.9098 L 7.43144,-13.3087 L 8.66025,-15 L 9.51056,-16.9098 L 10,-20
 L 10,-1400 L 9.78148,-1402.08 L 9.13545,-1404.07 L 8.09016,-1405.88 L 6.6913,-1407.43 L 5,-1408.66
 L 3.09016,-1409.51 L 0,-1410 L -179.475,-1410 L -179.677,-1407.95 L -180.276,-1405.97 L -181.249,-1404.15
 L -182.558,-1402.56 L -184.153,-1401.25 L -185.972,-1400.28 L -187.947,-1399.68 L -190,-1399.47 L -192.053,-1399.68
 L -194.028,-1400.28 L -195.847,-1401.25 L -197.442,-1402.56 L -198.751,-1404.15 L -199.724,-1405.97 L -200.323,-1407.95
 L -200.525,-1410 L -632.5,-1410 L -634.579,-1409.78 L -636.567,-1409.14 L -638.378,-1408.09 L -639.931,-1406.69
 L -641.16,-1405 L -642.1,-1402.8 L -989.6,-211.371 L -990,-208.571 L -990,-20 L -989.781,-17.9209
 L -989.135,-15.9326 L -988.09,-14.1221 L -986.691,-12.5686 L -985,-11.3398 L -983.09,-10.4894 L -980,-10
 L -200.525,-10 z
M -322.673,-232.094 L -325.243,-232.874 L -327.611,-234.14 L -329.687,-235.843 L -331.391,-237.919 L -332.657,-240.288
 L -333.437,-242.858 L -333.7,-245.531 L -333.437,-248.203 L -332.657,-250.773 L -331.391,-253.142 L -329.687,-255.218
 L -327.611,-256.922 L -325.243,-258.188 L -322.673,-258.967 L -320,-259.231 L -317.327,-258.967 L -314.757,-258.188
 L -312.389,-256.922 L -310.313,-255.218 L -308.609,-253.142 L -307.343,-250.773 L -306.563,-248.203 L -306.3,-245.531
 L -306.563,-242.858 L -307.343,-240.288 L -308.609,-237.919 L -310.313,-235.843 L -312.389,-234.14 L -314.757,-232.874
 L -317.327,-232.094 L -320,-231.831 z
M -942.617,-190.122 L -945.189,-190.633 L -947.673,-191.476 L -950.025,-192.636 L -952.206,-194.093 L -954.177,-195.822
 L -955.907,-197.794 L -957.364,-199.975 L -958.524,-202.327 L -959.367,-204.811 L -959.878,-207.383 L -960.05,-210
 L -959.878,-212.617 L -959.367,-215.189 L -958.524,-217.673 L -957.364,-220.025 L -955.907,-222.206 L -954.177,-224.177
 L -952.206,-225.907 L -950.025,-227.364 L -947.673,-228.524 L -945.189,-229.367 L -942.617,-229.878 L -940,-230.05
 L -937.383,-229.878 L -934.811,-229.367 L -932.327,-228.524 L -929.975,-227.364 L -927.794,-225.907 L -925.822,-224.177
 L -924.093,-222.206 L -922.636,-220.025 L -921.476,-217.673 L -920.633,-215.189 L -920.122,-212.617 L -919.95,-210
 L -920.122,-207.383 L -920.633,-204.811 L -921.476,-202.327 L -922.636,-199.975 L -924.093,-197.794 L -925.822,-195.822
 L -927.794,-194.093 L -929.975,-192.636 L -932.327,-191.476 L -934.811,-190.633 L -937.383,-190.122 L -940,-189.95
 z
M 2859.68,-12.0533 L 2860.28,-14.0277 L 2861.25,-15.8474 L 2862.56,-17.4423 L 2864.15,-18.7512 L 2865.97,-19.7238
 L 2867.95,-20.3228 L 2870,-20.525 L 2872.05,-20.3228 L 2874.03,-19.7238 L 2875.85,-18.7512 L 2877.44,-17.4423
 L 2878.75,-15.8474 L 2879.72,-14.0277 L 2880.32,-12.0533 L 2880.52,-10 L 3060,-10 L 3062.08,-10.2185
 L 3064.07,-10.8645 L 3065.88,-11.9098 L 3067.43,-13.3087 L 3068.66,-15 L 3069.51,-16.9098 L 3070,-20
 L 3070,-1400 L 3069.78,-1402.08 L 3069.14,-1404.07 L 3068.09,-1405.88 L 3066.69,-1407.43 L 3065,-1408.66
 L 3063.09,-1409.51 L 3060,-1410 L 2880.52,-1410 L 2880.32,-1407.95 L 2879.72,-1405.97 L 2878.75,-1404.15
 L 2877.44,-1402.56 L 2875.85,-1401.25 L 2874.03,-1400.28 L 2872.05,-1399.68 L 2870,-1399.47 L 2867.95,-1399.68
 L 2865.97,-1400.28 L 2864.15,-1401.25 L 2862.56,-1402.56 L 2861.25,-1404.15 L 2860.28,-1405.97 L 2859.68,-1407.95
 L 2859.47,-1410 L 2427.5,-1410 L 2425.42,-1409.78 L 2423.43,-1409.14 L 2421.62,-1408.09 L 2420.07,-1406.69
 L 2418.84,-1405 L 2417.9,-1402.8 L 2070.4,-211.371 L 2070,-208.571 L 2070,-20 L 2070.22,-17.9209
 L 2070.86,-15.9326 L 2071.91,-14.1221 L 2073.31,-12.5686 L 2075,-11.3398 L 2076.91,-10.4894 L 2080,-10
 L 2859.47,-10 z
M 2737.33,-232.094 L 2734.76,-232.874 L 2732.39,-234.14 L 2730.31,-235.843 L 2728.61,-237.919 L 2727.34,-240.288
 L 2726.56,-242.858 L 2726.3,-245.531 L 2726.56,-248.203 L 2727.34,-250.773 L 2728.61,-253.142 L 2730.31,-255.218
 L 2732.39,-256.922 L 2734.76,-258.188 L 2737.33,-258.967 L 2740,-259.231 L 2742.67,-258.967 L 2745.24,-258.188
 L 2747.61,-256.922 L 2749.69,-255.218 L 2751.39,-253.142 L 2752.66,-250.773 L 2753.44,-248.203 L 2753.7,-245.531
 L 2753.44,-242.858 L 2752.66,-240.288 L 2751.39,-237.919 L 2749.69,-235.843 L 2747.61,-234.14 L 2745.24,-232.874
 L 2742.67,-232.094 L 2740,-231.831 z
M 2117.38,-190.122 L 2114.81,-190.633 L 2112.33,-191.476 L 2109.97,-192.636 L 2107.79,-194.093 L 2105.82,-195.822
 L 2104.09,-197.794 L 2102.64,-199.975 L 2101.48,-202.327 L 2100.63,-204.811 L 2100.12,-207.383 L 2099.95,-210
 L 2100.12,-212.617 L 2100.63,-215.189 L 2101.48,-217.673 L 2102.64,-220.025 L 2104.09,-222.206 L 2105.82,-224.177
 L 2107.79,-225.907 L 2109.97,-227.364 L 2112.33,-228.524 L 2114.81,-229.367 L 2117.38,-229.878 L 2120,-230.05
 L 2122.62,-229.878 L 2125.19,-229.367 L 2127.67,-228.524 L 2130.02,-227.364 L 2132.21,-225.907 L 2134.18,-224.177
 L 2135.91,-222.206 L 2137.36,-220.025 L 2138.52,-217.673 L 2139.37,-215.189 L 2139.88,-212.617 L 2140.05,-210
 L 2139.88,-207.383 L 2139.37,-204.811 L 2138.52,-202.327 L 2137.36,-199.975 L 2135.91,-197.794 L 2134.18,-195.822
 L 2132.21,-194.093 L 2130.02,-192.636 L 2127.67,-191.476 L 2125.19,-190.633 L 2122.62,-190.122 L 2120,-189.95
 z
M 1839.68,-12.0533 L 1840.28,-14.0277 L 1841.25,-15.8474 L 1842.56,-17.4423 L 1844.15,-18.7512 L 1845.97,-19.7238
 L 1847.95,-20.3228 L 1850,-20.525 L 1852.05,-20.3228 L 1854.03,-19.7238 L 1855.85,-18.7512 L 1857.44,-17.4423
 L 1858.75,-15.8474 L 1859.72,-14.0277 L 1860.32,-12.0533 L 1860.52,-10 L 2040,-10 L 2042.08,-10.2185
 L 2044.07,-10.8645 L 2045.88,-11.9098 L 2047.43,-13.3087 L 2048.66,-15 L 2049.51,-16.9098 L 2050,-20
 L 2050,-1400 L 2049.78,-1402.08 L 2049.14,-1404.07 L 2048.09,-1405.88 L 2046.69,-1407.43 L 2045,-1408.66
 L 2043.09,-1409.51 L 2040,-1410 L 1860.52,-1410 L 1860.32,-1407.95 L 1859.72,-1405.97 L 1858.75,-1404.15
 L 1857.44,-1402.56 L 1855.85,-1401.25 L 1854.03,-1400.28 L 1852.05,-1399.68 L 1850,-1399.47 L 1847.95,-1399.68
 L 1845.97,-1400.28 L 1844.15,-1401.25 L 1842.56,-1402.56 L 1841.25,-1404.15 L 1840.28,-1405.97 L 1839.68,-1407.95
 L 1839.47,-1410 L 1407.5,-1410 L 1405.42,-1409.78 L 1403.43,-1409.14 L 1401.62,-1408.09 L 1400.07,-1406.69
 L 1398.84,-1405 L 1397.9,-1402.8 L 1375.57,-1326.23 L 1377.6,-1325.76 L 1413.15,-1316.29 L 1448.37,-1305.68
 L 1483.24,-1293.95 L 1517.72,-1281.11 L 1551.76,-1267.17 L 1553.53,-1266.43 L 1587.11,-1251.41 L 1620.19,-1235.31
 L 1652.74,-1218.17 L 1684.72,-1199.99 L 1716.11,-1180.79 L 1746.86,-1160.59 L 1776.95,-1139.42 L 1806.34,-1117.3
 L 1835.01,-1094.25 L 1862.93,-1070.28 L 1890.06,-1045.44 L 1916.38,-1019.74 L 1917.11,-1017.97 L 1916.38,-1016.2
 L 1859.01,-959.303 L 1857.25,-958.57 L 1855.48,-959.303 L 1831.01,-983.194 L 1805.79,-1006.29 L 1779.84,-1028.56
 L 1753.19,-1049.99 L 1725.86,-1070.56 L 1697.89,-1090.24 L 1669.31,-1109.01 L 1640.14,-1126.86 L 1610.41,-1143.76
 L 1580.15,-1159.7 L 1549.4,-1174.66 L 1518.4,-1188.53 L 1488.3,-1200.85 L 1456.25,-1212.79 L 1423.84,-1223.7
 L 1391.09,-1233.56 L 1358.05,-1242.36 L 1351.55,-1243.87 L 1050.4,-211.371 L 1050,-208.571 L 1050,-20
 L 1050.22,-17.9209 L 1050.86,-15.9326 L 1051.91,-14.1221 L 1053.31,-12.5686 L 1055,-11.3398 L 1056.91,-10.4894
 L 1060,-10 L 1839.47,-10 z
M 1717.33,-232.094 L 1714.76,-232.874 L 1712.39,-234.14 L 1710.31,-235.843 L 1708.61,-237.919 L 1707.34,-240.288
 L 1706.56,-242.858 L 1706.3,-245.531 L 1706.56,-248.203 L 1707.34,-250.773 L 1708.61,-253.142 L 1710.31,-255.218
 L 1712.39,-256.922 L 1714.76,-258.188 L 1717.33,-258.967 L 1720,-259.231 L 1722.67,-258.967 L 1725.24,-258.188
 L 1727.61,-256.922 L 1729.69,-255.218 L 1731.39,-253.142 L 1732.66,-250.773 L 1733.44,-248.203 L 1733.7,-245.531
 L 1733.44,-242.858 L 1732.66,-240.288 L 1731.39,-237.919 L 1729.69,-235.843 L 1727.61,-234.14 L 1725.24,-232.874
 L 1722.67,-232.094 L 1720,-231.831 z
M 1097.38,-190.122 L 1094.81,-190.633 L 1092.33,-191.476 L 1089.97,-192.636 L 1087.79,-194.093 L 1085.82,-195.822
 L 1084.09,-197.794 L 1082.64,-199.975 L 1081.48,-202.327 L 1080.63,-204.811 L 1080.12,-207.383 L 1079.95,-210
 L 1080.12,-212.617 L 1080.63,-215.189 L 1081.48,-217.673 L 1082.64,-220.025 L 1084.09,-222.206 L 1085.82,-224.177
 L 1087.79,-225.907 L 1089.97,-227.364 L 1092.33,-228.524 L 1094.81,-229.367 L 1097.38,-229.878 L 1100,-230.05
 L 1102.62,-229.878 L 1105.19,-229.367 L 1107.67,-228.524 L 1110.02,-227.364 L 1112.21,-225.907 L 1114.18,-224.177
 L 1115.91,-222.206 L 1117.36,-220.025 L 1118.52,-217.673 L 1119.37,-215.189 L 1119.88,-212.617 L 1120.05,-210
 L 1119.88,-207.383 L 1119.37,-204.811 L 1118.52,-202.327 L 1117.36,-199.975 L 1115.91,-197.794 L 1114.18,-195.822
 L 1112.21,-194.093 L 1110.02,-192.636 L 1107.67,-191.476 L 1105.19,-190.633 L 1102.62,-190.122 L 1100,-189.95
 z
M 819.677,-12.0533 L 820.276,-14.0277 L 821.249,-15.8474 L 822.558,-17.4423 L 824.153,-18.7512 L 825.972,-19.7238
 L 827.947,-20.3228 L 830,-20.525 L 832.053,-20.3228 L 834.028,-19.7238 L 835.847,-18.7512 L 837.442,-17.4423
 L 838.751,-15.8474 L 839.724,-14.0277 L 840.323,-12.0533 L 840.525,-10 L 1020,-10 L 1022.08,-10.2185
 L 1024.07,-10.8645 L 1025.88,-11.9098 L 1027.43,-13.3087 L 1028.66,-15 L 1029.51,-16.9098 L 1030,-20
 L 1030,-1400 L 1029.78,-1402.08 L 1029.14,-1404.07 L 1028.09,-1405.88 L 1026.69,-1407.43 L 1025,-1408.66
 L 1023.09,-1409.51 L 1020,-1410 L 840.525,-1410 L 840.323,-1407.95 L 839.724,-1405.97 L 838.751,-1404.15
 L 837.442,-1402.56 L 835.847,-1401.25 L 834.028,-1400.28 L 832.053,-1399.68 L 830,-1399.47 L 827.947,-1399.68
 L 825.972,-1400.28 L 824.153,-1401.25 L 822.558,-1402.56 L 821.249,-1404.15 L 820.276,-1405.97 L 819.677,-1407.95
 L 819.475,-1410 L 387.5,-1410 L 385.421,-1409.78 L 383.433,-1409.14 L 381.622,-1408.09 L 380.069,-1406.69
 L 378.84,-1405 L 377.9,-1402.8 L 355.568,-1326.23 L 357.598,-1325.76 L 393.147,-1316.29 L 428.374,-1305.68
 L 463.242,-1293.95 L 497.717,-1281.11 L 531.763,-1267.17 L 533.53,-1266.43 L 567.111,-1251.41 L 600.193,-1235.31
 L 632.742,-1218.17 L 664.724,-1199.99 L 696.107,-1180.79 L 726.859,-1160.59 L 756.947,-1139.42 L 786.341,-1117.3
 L 815.01,-1094.25 L 842.926,-1070.28 L 870.059,-1045.44 L 896.382,-1019.74 L 897.114,-1017.97 L 896.382,-1016.2
 L 839.014,-959.303 L 837.247,-958.57 L 835.479,-959.303 L 811.01,-983.194 L 785.787,-1006.29 L 759.838,-1028.56
 L 733.187,-1049.99 L 705.863,-1070.56 L 677.894,-1090.24 L 649.308,-1109.01 L 620.135,-1126.86 L 590.405,-1143.76
 L 560.148,-1159.7 L 529.396,-1174.66 L 498.4,-1188.53 L 468.3,-1200.85 L 436.253,-1212.79 L 403.84,-1223.7
 L 371.094,-1233.56 L 338.048,-1242.36 L 331.546,-1243.87 L 30.4,-211.371 L 30,-208.571 L 30,-20
 L 30.2185,-17.9209 L 30.8645,-15.9326 L 31.9098,-14.1221 L 33.3087,-12.5686 L 35,-11.3398 L 36.9098,-10.4894
 L 40,-10 L 819.475,-10 z
M 697.327,-232.094 L 694.757,-232.874 L 692.389,-234.14 L 690.313,-235.843 L 688.609,-237.919 L 687.343,-240.288
 L 686.563,-242.858 L 686.3,-245.531 L 686.563,-248.203 L 687.343,-250.773 L 688.609,-253.142 L 690.313,-255.218
 L 692.389,-256.922 L 694.757,-258.188 L 697.327,-258.967 L 700,-259.231 L 702.673,-258.967 L 705.243,-258.188
 L 707.611,-256.922 L 709.687,-255.218 L 711.391,-253.142 L 712.657,-250.773 L 713.437,-248.203 L 713.7,-245.531
 L 713.437,-242.858 L 712.657,-240.288 L 711.391,-237.919 L 709.687,-235.843 L 707.611,-234.14 L 705.243,-232.874
 L 702.673,-232.094 L 700,-231.831 z
M 77.3829,-190.122 L 74.8107,-190.633 L 72.3272,-191.476 L 69.975,-192.636 L 67.7943,-194.093 L 65.8225,-195.822
 L 64.0933,-197.794 L 62.6362,-199.975 L 61.4762,-202.327 L 60.6332,-204.811 L 60.1215,-207.383 L 59.95,-210
 L 60.1215,-212.617 L 60.6332,-215.189 L 61.4762,-217.673 L 62.6362,-220.025 L 64.0933,-222.206 L 65.8225,-224.177
 L 67.7943,-225.907 L 69.975,-227.364 L 72.3272,-228.524 L 74.8107,-229.367 L 77.3829,-229.878 L 80,-230.05
 L 82.6171,-229.878 L 85.1893,-229.367 L 87.6728,-228.524 L 90.025,-227.364 L 92.2057,-225.907 L 94.1775,-224.177
 L 95.9067,-222.206 L 97.3638,-220.025 L 98.5238,-217.673 L 99.3668,-215.189 L 99.8785,-212.617 L 100.05,-210
 L 99.8785,-207.383 L 99.3668,-204.811 L 98.5238,-202.327 L 97.3638,-199.975 L 95.9067,-197.794 L 94.1775,-195.822
 L 92.2057,-194.093 L 90.025,-192.636 L 87.6728,-191.476 L 85.1893,-190.633 L 82.6171,-190.122 L 80,-189.95
 z
M 7461.01,-10.3108 L 7462.78,-11.2128 L 7464.19,-12.6176 L 7465.09,-14.3877 L 7465.4,-16.35 L 7465.4,-452.811
 L 7465.09,-454.774 L 7464.19,-456.544 L 7462.78,-457.949 L 7461.01,-458.851 L 7459.05,-459.161 L 7457.09,-458.851
 L 7456.07,-458.421 L 6995.4,-213.98 L 6995.4,-452.811 L 6995.09,-454.774 L 6994.19,-456.544 L 6992.78,-457.949
 L 6991.01,-458.851 L 6989.05,-459.161 L 6987.09,-458.851 L 6986.07,-458.421 L 6517.9,-210 L 5925.4,-210
 L 5925.4,190 L 6625.4,190 L 6625.4,-10 L 7459.05,-10 z
M 7450.22,-340.903 L 7450.22,-354.097 L 7460.57,-354.097 L 7460.57,-340.903 z
M 6980.22,-340.903 L 6980.22,-354.097 L 6990.57,-354.097 L 6990.57,-340.903 z
M 6980.22,-228.403 L 6980.22,-241.597 L 6990.57,-241.597 L 6990.57,-228.403 z
M 7450.22,-228.403 L 7450.22,-241.597 L 7460.57,-241.597 L 7460.57,-228.403 z
M 5963.97,-162.791 L 5962.59,-163.209 L 5961.32,-163.889 L 5960.2,-164.803 L 5959.29,-165.917 L 5958.61,-167.187
 L 5958.19,-168.566 L 5958.05,-170 L 5958.19,-171.434 L 5958.61,-172.813 L 5959.29,-174.083 L 5960.2,-175.197
 L 5961.32,-176.111 L 5962.59,-176.791 L 5963.97,-177.209 L 5965.4,-177.35 L 5966.83,-177.209 L 5968.21,-176.791
 L 5969.48,-176.111 L 5970.6,-175.197 L 5971.51,-174.083 L 5972.19,-172.813 L 5972.61,-171.434 L 5972.75,-170
 L 5972.61,-168.566 L 5972.19,-167.187 L 5971.51,-165.917 L 5970.6,-164.803 L 5969.48,-163.889 L 5968.21,-163.209
 L 5966.83,-162.791 L 5965.4,-162.65 z
M 7450.22,-115.903 L 7450.22,-129.097 L 7460.57,-129.097 L 7460.57,-115.903 z
M 6382.16,-97.9259 L 6379.15,-99.1747 L 6376.56,-101.161 L 6374.57,-103.75 L 6373.33,-106.765 L 6372.9,-110
 L 6373.33,-113.235 L 6374.57,-116.25 L 6376.56,-118.839 L 6379.15,-120.825 L 6382.16,-122.074 L 6385.4,-122.5
 L 6388.64,-122.074 L 6391.65,-120.825 L 6394.24,-118.839 L 6395.4,-117.326 L 6395.4,-102.674 L 6394.24,-101.161
 L 6391.65,-99.1747 L 6388.64,-97.9259 L 6385.4,-97.5 z
M 6302.16,-97.9259 L 6299.15,-99.1747 L 6296.56,-101.161 L 6294.57,-103.75 L 6293.33,-106.765 L 6292.9,-110
 L 6293.33,-113.235 L 6294.57,-116.25 L 6296.56,-118.839 L 6299.15,-120.825 L 6302.16,-122.074 L 6305.4,-122.5
 L 6308.64,-122.074 L 6311.65,-120.825 L 6314.24,-118.839 L 6316.23,-116.25 L 6317.47,-113.235 L 6317.9,-110
 L 6317.47,-106.765 L 6316.23,-103.75 L 6314.24,-101.161 L 6311.65,-99.1747 L 6308.64,-97.9259 L 6305.4,-97.5
 z
M 6222.16,-97.9259 L 6219.15,-99.1747 L 6216.56,-101.161 L 6214.57,-103.75 L 6213.33,-106.765 L 6212.9,-110
 L 6213.33,-113.235 L 6214.57,-116.25 L 6216.56,-118.839 L 6219.15,-120.825 L 6222.16,-122.074 L 6225.4,-122.5
 L 6228.64,-122.074 L 6231.65,-120.825 L 6234.24,-118.839 L 6236.23,-116.25 L 6237.47,-113.235 L 6237.9,-110
 L 6237.47,-106.765 L 6236.23,-103.75 L 6234.24,-101.161 L 6231.65,-99.1747 L 6228.64,-97.9259 L 6225.4,-97.5
 z
M 6142.16,-97.9259 L 6139.15,-99.1747 L 6136.56,-101.161 L 6134.57,-103.75 L 6133.33,-106.765 L 6132.9,-110
 L 6133.33,-113.235 L 6134.57,-116.25 L 6136.56,-118.839 L 6139.15,-120.825 L 6142.16,-122.074 L 6145.4,-122.5
 L 6148.64,-122.074 L 6151.65,-120.825 L 6154.24,-118.839 L 6156.23,-116.25 L 6157.47,-113.235 L 6157.9,-110
 L 6157.47,-106.765 L 6156.23,-103.75 L 6154.24,-101.161 L 6151.65,-99.1747 L 6148.64,-97.9259 L 6145.4,-97.5
 z
M 5982.16,-97.9259 L 5979.15,-99.1747 L 5976.56,-101.161 L 5974.57,-103.75 L 5973.33,-106.765 L 5972.9,-110
 L 5973.33,-113.235 L 5974.57,-116.25 L 5976.56,-118.839 L 5979.15,-120.825 L 5982.16,-122.074 L 5985.4,-122.5
 L 5988.64,-122.074 L 5991.65,-120.825 L 5994.24,-118.839 L 5996.23,-116.25 L 5997.47,-113.235 L 5997.9,-110
 L 5997.47,-106.765 L 5996.23,-103.75 L 5994.24,-101.161 L 5991.65,-99.1747 L 5988.64,-97.9259 L 5985.4,-97.5
 z
M 6062.16,-97.9259 L 6059.15,-99.1747 L 6056.56,-101.161 L 6054.57,-103.75 L 6053.33,-106.765 L 6052.9,-110
 L 6053.33,-113.235 L 6054.57,-116.25 L 6056.56,-118.839 L 6059.15,-120.825 L 6062.16,-122.074 L 6065.4,-122.5
 L 6068.64,-122.074 L 6071.65,-120.825 L 6074.24,-118.839 L 6076.23,-116.25 L 6077.47,-113.235 L 6077.9,-110
 L 6077.47,-106.765 L 6076.23,-103.75 L 6074.24,-101.161 L 6071.65,-99.1747 L 6068.64,-97.9259 L 6065.4,-97.5
 z
M 6382.16,-17.9259 L 6379.15,-19.1747 L 6376.56,-21.1612 L 6374.57,-23.75 L 6373.33,-26.7648 L 6372.9,-30
 L 6373.33,-33.2352 L 6374.57,-36.25 L 6376.56,-38.8388 L 6379.15,-40.8253 L 6382.16,-42.0741 L 6385.4,-42.5
 L 6388.64,-42.0741 L 6391.65,-40.8253 L 6394.24,-38.8388 L 6395.4,-37.3256 L 6395.4,-22.6744 L 6394.24,-21.1612
 L 6391.65,-19.1747 L 6388.64,-17.9259 L 6385.4,-17.5 z
M 6302.16,-17.9259 L 6299.15,-19.1747 L 6296.56,-21.1612 L 6294.57,-23.75 L 6293.33,-26.7648 L 6292.9,-30
 L 6293.33,-33.2352 L 6294.57,-36.25 L 6296.56,-38.8388 L 6299.15,-40.8253 L 6302.16,-42.0741 L 6305.4,-42.5
 L 6308.64,-42.0741 L 6311.65,-40.8253 L 6314.24,-38.8388 L 6316.23,-36.25 L 6317.47,-33.2352 L 6317.9,-30
 L 6317.47,-26.7648 L 6316.23,-23.75 L 6314.24,-21.1612 L 6311.65,-19.1747 L 6308.64,-17.9259 L 6305.4,-17.5
 z
M 6222.16,-17.9259 L 6219.15,-19.1747 L 6216.56,-21.1612 L 6214.57,-23.75 L 6213.33,-26.7648 L 6212.9,-30
 L 6213.33,-33.2352 L 6214.57,-36.25 L 6216.56,-38.8388 L 6219.15,-40.8253 L 6222.16,-42.0741 L 6225.4,-42.5
 L 6228.64,-42.0741 L 6231.65,-40.8253 L 6234.24,-38.8388 L 6236.23,-36.25 L 6237.47,-33.2352 L 6237.9,-30
 L 6237.47,-26.7648 L 6236.23,-23.75 L 6234.24,-21.1612 L 6231.65,-19.1747 L 6228.64,-17.9259 L 6225.4,-17.5
 z
M 6142.16,-17.9259 L 6139.15,-19.1747 L 6136.56,-21.1612 L 6134.57,-23.75 L 6133.33,-26.7648 L 6132.9,-30
 L 6133.33,-33.2352 L 6134.57,-36.25 L 6136.56,-38.8388 L 6139.15,-40.8253 L 6142.16,-42.0741 L 6145.4,-42.5
 L 6148.64,-42.0741 L 6151.65,-40.8253 L 6154.24,-38.8388 L 6156.23,-36.25 L 6157.47,-33.2352 L 6157.9,-30
 L 6157.47,-26.7648 L 6156.23,-23.75 L 6154.24,-21.1612 L 6151.65,-19.1747 L 6148.64,-17.9259 L 6145.4,-17.5
 z
M 6062.16,-17.9259 L 6059.15,-19.1747 L 6056.56,-21.1612 L 6054.57,-23.75 L 6053.33,-26.7648 L 6052.9,-30
 L 6053.33,-33.2352 L 6054.57,-36.25 L 6056.56,-38.8388 L 6059.15,-40.8253 L 6062.16,-42.0741 L 6065.4,-42.5
 L 6068.64,-42.0741 L 6071.65,-40.8253 L 6074.24,-38.8388 L 6076.23,-36.25 L 6077.47,-33.2352 L 6077.9,-30
 L 6077.47,-26.7648 L 6076.23,-23.75 L 6074.24,-21.1612 L 6071.65,-19.1747 L 6068.64,-17.9259 L 6065.4,-17.5
 z
M 5982.16,-17.9259 L 5979.15,-19.1747 L 5976.56,-21.1612 L 5974.57,-23.75 L 5973.33,-26.7648 L 5972.9,-30
 L 5973.33,-33.2352 L 5974.57,-36.25 L 5976.56,-38.8388 L 5979.15,-40.8253 L 5982.16,-42.0741 L 5985.4,-42.5
 L 5988.64,-42.0741 L 5991.65,-40.8253 L 5994.24,-38.8388 L 5996.23,-36.25 L 5997.47,-33.2352 L 5997.9,-30
 L 5997.47,-26.7648 L 5996.23,-23.75 L 5994.24,-21.1612 L 5991.65,-19.1747 L 5988.64,-17.9259 L 5985.4,-17.5
 z
M 7038.8,-14.825 L 7038.8,-25.175 L 7052,-25.175 L 7052,-14.825 z
M 7218.8,-14.825 L 7218.8,-25.175 L 7232,-25.175 L 7232,-14.825 z
M 7378.8,-14.825 L 7378.8,-25.175 L 7392,-25.175 L 7392,-14.825 z
M 6748.8,-14.825 L 6748.8,-25.175 L 6762,-25.175 L 6762,-14.825 z
M 6468.8,-25.175 L 6476.82,-25.175 L 6476.23,-23.75 L 6474.24,-21.1612 L 6471.65,-19.1747 L 6468.8,-17.9955
 z
M 5982.16,62.0741 L 5979.15,60.8253 L 5976.56,58.8388 L 5974.57,56.25 L 5973.33,53.2352 L 5972.9,50
 L 5973.33,46.7648 L 5974.57,43.75 L 5976.56,41.1612 L 5979.15,39.1747 L 5982.16,37.9259 L 5985.4,37.5
 L 5988.64,37.9259 L 5991.65,39.1747 L 5994.24,41.1612 L 5996.23,43.75 L 5997.47,46.7648 L 5997.9,50
 L 5997.47,53.2352 L 5996.23,56.25 L 5994.24,58.8388 L 5991.65,60.8253 L 5988.64,62.0741 L 5985.4,62.5
 z
M 6302.16,62.0741 L 6299.15,60.8253 L 6296.56,58.8388 L 6294.57,56.25 L 6293.33,53.2352 L 6292.9,50
 L 6293.33,46.7648 L 6294.57,43.75 L 6296.56,41.1612 L 6299.15,39.1747 L 6302.16,37.9259 L 6305.4,37.5
 L 6308.64,37.9259 L 6311.65,39.1747 L 6314.24,41.1612 L 6316.23,43.75 L 6317.47,46.7648 L 6317.9,50
 L 6317.47,53.2352 L 6316.23,56.25 L 6314.24,58.8388 L 6311.65,60.8253 L 6308.64,62.0741 L 6305.4,62.5
 z
M 6382.16,62.0741 L 6379.15,60.8253 L 6376.56,58.8388 L 6374.57,56.25 L 6373.33,53.2352 L 6372.9,50
 L 6373.33,46.7648 L 6374.57,43.75 L 6376.56,41.1612 L 6379.15,39.1747 L 6382.16,37.9259 L 6385.4,37.5
 L 6388.64,37.9259 L 6391.65,39.1747 L 6394.24,41.1612 L 6396.23,43.75 L 6397.47,46.7648 L 6397.9,50
 L 6397.47,53.2352 L 6396.23,56.25 L 6394.24,58.8388 L 6391.65,60.8253 L 6388.64,62.0741 L 6385.4,62.5
 z
M 6062.16,62.0741 L 6059.15,60.8253 L 6056.56,58.8388 L 6054.57,56.25 L 6053.33,53.2352 L 6052.9,50
 L 6053.33,46.7648 L 6054.57,43.75 L 6056.56,41.1612 L 6059.15,39.1747 L 6062.16,37.9259 L 6065.4,37.5
 L 6068.64,37.9259 L 6071.65,39.1747 L 6074.24,41.1612 L 6076.23,43.75 L 6077.47,46.7648 L 6077.9,50
 L 6077.47,53.2352 L 6076.23,56.25 L 6074.24,58.8388 L 6071.65,60.8253 L 6068.64,62.0741 L 6065.4,62.5
 z
M 6542.16,62.0741 L 6539.15,60.8253 L 6536.56,58.8388 L 6534.57,56.25 L 6533.33,53.2352 L 6532.9,50
 L 6533.33,46.7648 L 6534.57,43.75 L 6536.56,41.1612 L 6539.15,39.1747 L 6542.16,37.9259 L 6545.4,37.5
 L 6548.64,37.9259 L 6551.65,39.1747 L 6554.24,41.1612 L 6556.23,43.75 L 6557.47,46.7648 L 6557.9,50
 L 6557.47,53.2352 L 6556.23,56.25 L 6554.24,58.8388 L 6551.65,60.8253 L 6548.64,62.0741 L 6545.4,62.5
 z
M 6142.16,62.0741 L 6139.15,60.8253 L 6136.56,58.8388 L 6134.57,56.25 L 6133.33,53.2352 L 6132.9,50
 L 6133.33,46.7648 L 6134.57,43.75 L 6136.56,41.1612 L 6139.15,39.1747 L 6142.16,37.9259 L 6145.4,37.5
 L 6148.64,37.9259 L 6151.65,39.1747 L 6154.24,41.1612 L 6156.23,43.75 L 6157.47,46.7648 L 6157.9,50
 L 6157.47,53.2352 L 6156.23,56.25 L 6154.24,58.8388 L 6151.65,60.8253 L 6148.64,62.0741 L 6145.4,62.5
 z
M 6462.16,62.0741 L 6459.15,60.8253 L 6456.56,58.8388 L 6454.57,56.25 L 6453.33,53.2352 L 6452.9,50
 L 6453.33,46.7648 L 6454.57,43.75 L 6456.56,41.1612 L 6459.15,39.1747 L 6462.16,37.9259 L 6465.4,37.5
 L 6468.64,37.9259 L 6471.65,39.1747 L 6474.24,41.1612 L 6476.23,43.75 L 6477.47,46.7648 L 6477.9,50
 L 6477.47,53.2352 L 6476.23,56.25 L 6474.24,58.8388 L 6471.65,60.8253 L 6468.64,62.0741 L 6465.4,62.5
 z
M 6222.16,62.0741 L 6219.15,60.8253 L 6216.56,58.8388 L 6214.57,56.25 L 6213.33,53.2352 L 6212.9,50
 L 6213.33,46.7648 L 6214.57,43.75 L 6216.56,41.1612 L 6219.15,39.1747 L 6222.16,37.9259 L 6225.4,37.5
 L 6228.64,37.9259 L 6231.65,39.1747 L 6234.24,41.1612 L 6236.23,43.75 L 6237.47,46.7648 L 6237.9,50
 L 6237.47,53.2352 L 6236.23,56.25 L 6234.24,58.8388 L 6231.65,60.8253 L 6228.64,62.0741 L 6225.4,62.5
 z
M 6542.16,142.074 L 6539.15,140.825 L 6536.56,138.839 L 6534.57,136.25 L 6533.33,133.235 L 6532.9,130
 L 6533.33,126.765 L 6534.57,123.75 L 6536.56,121.161 L 6539.15,119.175 L 6542.16,117.926 L 6545.4,117.5
 L 6548.64,117.926 L 6551.65,119.175 L 6554.24,121.161 L 6556.23,123.75 L 6557.47,126.765 L 6557.9,130
 L 6557.47,133.235 L 6556.23,136.25 L 6554.24,138.839 L 6551.65,140.825 L 6548.64,142.074 L 6545.4,142.5
 z
M 6382.16,142.074 L 6379.15,140.825 L 6376.56,138.839 L 6374.57,136.25 L 6373.33,133.235 L 6372.9,130
 L 6373.33,126.765 L 6374.57,123.75 L 6376.56,121.161 L 6379.15,119.175 L 6382.16,117.926 L 6385.4,117.5
 L 6388.64,117.926 L 6391.65,119.175 L 6394.24,121.161 L 6396.23,123.75 L 6397.47,126.765 L 6397.9,130
 L 6397.47,133.235 L 6396.23,136.25 L 6394.24,138.839 L 6391.65,140.825 L 6388.64,142.074 L 6385.4,142.5
 z
M 6462.16,142.074 L 6459.15,140.825 L 6456.56,138.839 L 6454.57,136.25 L 6453.33,133.235 L 6452.9,130
 L 6453.33,126.765 L 6454.57,123.75 L 6456.56,121.161 L 6459.15,119.175 L 6462.16,117.926 L 6465.4,117.5
 L 6468.64,117.926 L 6471.65,119.175 L 6474.24,121.161 L 6476.23,123.75 L 6477.47,126.765 L 6477.9,130
 L 6477.47,133.235 L 6476.23,136.25 L 6474.24,138.839 L 6471.65,140.825 L 6468.64,142.074 L 6465.4,142.5
 z
M 6302.16,142.074 L 6299.15,140.825 L 6296.56,138.839 L 6294.57,136.25 L 6293.33,133.235 L 6292.9,130
 L 6293.33,126.765 L 6294.57,123.75 L 6296.56,121.161 L 6299.15,119.175 L 6302.16,117.926 L 6305.4,117.5
 L 6308.64,117.926 L 6311.65,119.175 L 6314.24,121.161 L 6316.23,123.75 L 6317.47,126.765 L 6317.9,130
 L 6317.47,133.235 L 6316.23,136.25 L 6314.24,138.839 L 6311.65,140.825 L 6308.64,142.074 L 6305.4,142.5
 z
M 6222.16,142.074 L 6219.15,140.825 L 6216.56,138.839 L 6214.57,136.25 L 6213.33,133.235 L 6212.9,130
 L 6213.33,126.765 L 6214.57,123.75 L 6216.56,121.161 L 6219.15,119.175 L 6222.16,117.926 L 6225.4,117.5
 L 6228.64,117.926 L 6231.65,119.175 L 6234.24,121.161 L 6236.23,123.75 L 6237.47,126.765 L 6237.9,130
 L 6237.47,133.235 L 6236.23,136.25 L 6234.24,138.839 L 6231.65,140.825 L 6228.64,142.074 L 6225.4,142.5
 z
M 6142.16,142.074 L 6139.15,140.825 L 6136.56,138.839 L 6134.57,136.25 L 6133.33,133.235 L 6132.9,130
 L 6133.33,126.765 L 6134.57,123.75 L 6136.56,121.161 L 6139.15,119.175 L 6142.16,117.926 L 6145.4,117.5
 L 6148.64,117.926 L 6151.65,119.175 L 6154.24,121.161 L 6156.23,123.75 L 6157.47,126.765 L 6157.9,130
 L 6157.47,133.235 L 6156.23,136.25 L 6154.24,138.839 L 6151.65,140.825 L 6148.64,142.074 L 6145.4,142.5
 z
M 6062.16,142.074 L 6059.15,140.825 L 6056.56,138.839 L 6054.57,136.25 L 6053.33,133.235 L 6052.9,130
 L 6053.33,126.765 L 6054.57,123.75 L 6056.56,121.161 L 6059.15,119.175 L 6062.16,117.926 L 6065.4,117.5
 L 6068.64,117.926 L 6071.65,119.175 L 6074.24,121.161 L 6076.23,123.75 L 6077.47,126.765 L 6077.9,130
 L 6077.47,133.235 L 6076.23,136.25 L 6074.24,138.839 L 6071.65,140.825 L 6068.64,142.074 L 6065.4,142.5
 z
M 5982.16,142.074 L 5979.15,140.825 L 5976.56,138.839 L 5974.57,136.25 L 5973.33,133.235 L 5972.9,130
 L 5973.33,126.765 L 5974.57,123.75 L 5976.56,121.161 L 5979.15,119.175 L 5982.16,117.926 L 5985.4,117.5
 L 5988.64,117.926 L 5991.65,119.175 L 5994.24,121.161 L 5996.23,123.75 L 5997.47,126.765 L 5997.9,130
 L 5997.47,133.235 L 5996.23,136.25 L 5994.24,138.839 L 5991.65,140.825 L 5988.64,142.074 L 5985.4,142.5
 z
M 6583.97,157.209 L 6582.59,156.791 L 6581.32,156.111 L 6580.2,155.197 L 6579.29,154.083 L 6578.61,152.813
 L 6578.19,151.434 L 6578.05,150 L 6578.19,148.566 L 6578.61,147.187 L 6579.29,145.917 L 6580.2,144.803
 L 6581.32,143.889 L 6582.59,143.209 L 6583.97,142.791 L 6585.4,142.65 L 6586.83,142.791 L 6588.21,143.209
 L 6589.48,143.889 L 6590.6,144.803 L 6591.51,145.917 L 6592.19,147.187 L 6592.61,148.566 L 6592.75,150
 L 6592.61,151.434 L 6592.19,152.813 L 6591.51,154.083 L 6590.6,155.197 L 6589.48,156.111 L 6588.21,156.791
 L 6586.83,157.209 L 6585.4,157.35 z
M 5963.97,157.209 L 5962.59,156.791 L 5961.32,156.111 L 5960.2,155.197 L 5959.29,154.083 L 5958.61,152.813
 L 5958.19,151.434 L 5958.05,150 L 5958.19,148.566 L 5958.61,147.187 L 5959.29,145.917 L 5960.2,144.803
 L 5961.32,143.889 L 5962.59,143.209 L 5963.97,142.791 L 5965.4,142.65 L 5966.83,142.791 L 5968.21,143.209
 L 5969.48,143.889 L 5970.6,144.803 L 5971.51,145.917 L 5972.19,147.187 L 5972.61,148.566 L 5972.75,150
 L 5972.61,151.434 L 5972.19,152.813 L 5971.51,154.083 L 5970.6,155.197 L 5969.48,156.111 L 5968.21,156.791
 L 5966.83,157.209 L 5965.4,157.35 z
M 5705.4,-310 L 4605.4,-310 L 4605.4,-285 L 3567.3,-285 L 3567.3,265 L 4605.4,265
 L 4605.4,290 L 5705.4,290 z
M 5153.97,-292.791 L 5152.59,-293.209 L 5151.32,-293.889 L 5150.2,-294.803 L 5149.29,-295.917 L 5148.61,-297.187
 L 5148.19,-298.566 L 5148.05,-300 L 5148.19,-301.434 L 5148.61,-302.813 L 5149.29,-304.083 L 5150.2,-305.197
 L 5151.32,-306.111 L 5152.59,-306.791 L 5153.97,-307.209 L 5155.4,-307.35 L 5156.83,-307.209 L 5158.21,-306.791
 L 5159.48,-306.111 L 5160.6,-305.197 L 5161.51,-304.083 L 5162.19,-302.813 L 5162.61,-301.434 L 5162.75,-300
 L 5162.61,-298.566 L 5162.19,-297.187 L 5161.51,-295.917 L 5160.6,-294.803 L 5159.48,-293.889 L 5158.21,-293.209
 L 5156.83,-292.791 L 5155.4,-292.65 z
M 5003.97,-292.791 L 5002.59,-293.209 L 5001.32,-293.889 L 5000.2,-294.803 L 4999.29,-295.917 L 4998.61,-297.187
 L 4998.19,-298.566 L 4998.05,-300 L 4998.19,-301.434 L 4998.61,-302.813 L 4999.29,-304.083 L 5000.2,-305.197
 L 5001.32,-306.111 L 5002.59,-306.791 L 5003.97,-307.209 L 5005.4,-307.35 L 5006.83,-307.209 L 5008.21,-306.791
 L 5009.48,-306.111 L 5010.6,-305.197 L 5011.51,-304.083 L 5012.19,-302.813 L 5012.61,-301.434 L 5012.75,-300
 L 5012.61,-298.566 L 5012.19,-297.187 L 5011.51,-295.917 L 5010.6,-294.803 L 5009.48,-293.889 L 5008.21,-293.209
 L 5006.83,-292.791 L 5005.4,-292.65 z
M 5303.97,-292.791 L 5302.59,-293.209 L 5301.32,-293.889 L 5300.2,-294.803 L 5299.29,-295.917 L 5298.61,-297.187
 L 5298.19,-298.566 L 5298.05,-300 L 5298.19,-301.434 L 5298.61,-302.813 L 5299.29,-304.083 L 5300.2,-305.197
 L 5301.32,-306.111 L 5302.59,-306.791 L 5303.97,-307.209 L 5305.4,-307.35 L 5306.83,-307.209 L 5308.21,-306.791
 L 5309.48,-306.111 L 5310.6,-305.197 L 5311.51,-304.083 L 5312.19,-302.813 L 5312.61,-301.434 L 5312.75,-300
 L 5312.61,-298.566 L 5312.19,-297.187 L 5311.51,-295.917 L 5310.6,-294.803 L 5309.48,-293.889 L 5308.21,-293.209
 L 5306.83,-292.791 L 5305.4,-292.65 z
M 5453.97,-292.791 L 5452.59,-293.209 L 5451.32,-293.889 L 5450.2,-294.803 L 5449.29,-295.917 L 5448.61,-297.187
 L 5448.19,-298.566 L 5448.05,-300 L 5448.19,-301.434 L 5448.61,-302.813 L 5449.29,-304.083 L 5450.2,-305.197
 L 5451.32,-306.111 L 5452.59,-306.791 L 5453.97,-307.209 L 5455.4,-307.35 L 5456.83,-307.209 L 5458.21,-306.791
 L 5459.48,-306.111 L 5460.6,-305.197 L 5461.51,-304.083 L 5462.19,-302.813 L 5462.61,-301.434 L 5462.75,-300
 L 5462.61,-298.566 L 5462.19,-297.187 L 5461.51,-295.917 L 5460.6,-294.803 L 5459.48,-293.889 L 5458.21,-293.209
 L 5456.83,-292.791 L 5455.4,-292.65 z
M 4853.97,-292.791 L 4852.59,-293.209 L 4851.32,-293.889 L 4850.2,-294.803 L 4849.29,-295.917 L 4848.61,-297.187
 L 4848.19,-298.566 L 4848.05,-300 L 4848.19,-301.434 L 4848.61,-302.813 L 4849.29,-304.083 L 4850.2,-305.197
 L 4851.32,-306.111 L 4852.59,-306.791 L 4853.97,-307.209 L 4855.4,-307.35 L 4856.83,-307.209 L 4858.21,-306.791
 L 4859.48,-306.111 L 4860.6,-305.197 L 4861.51,-304.083 L 4862.19,-302.813 L 4862.61,-301.434 L 4862.75,-300
 L 4862.61,-298.566 L 4862.19,-297.187 L 4861.51,-295.917 L 4860.6,-294.803 L 4859.48,-293.889 L 4858.21,-293.209
 L 4856.83,-292.791 L 4855.4,-292.65 z
M 4703.97,-292.791 L 4702.59,-293.209 L 4701.32,-293.889 L 4700.2,-294.803 L 4699.29,-295.917 L 4698.61,-297.187
 L 4698.19,-298.566 L 4698.05,-300 L 4698.19,-301.434 L 4698.61,-302.813 L 4699.29,-304.083 L 4700.2,-305.197
 L 4701.32,-306.111 L 4702.59,-306.791 L 4703.97,-307.209 L 4705.4,-307.35 L 4706.83,-307.209 L 4708.21,-306.791
 L 4709.48,-306.111 L 4710.6,-305.197 L 4711.51,-304.083 L 4712.19,-302.813 L 4712.61,-301.434 L 4712.75,-300
 L 4712.61,-298.566 L 4712.19,-297.187 L 4711.51,-295.917 L 4710.6,-294.803 L 4709.48,-293.889 L 4708.21,-293.209
 L 4706.83,-292.791 L 4705.4,-292.65 z
M 5603.97,-292.791 L 5602.59,-293.209 L 5601.32,-293.889 L 5600.2,-294.803 L 5599.29,-295.917 L 5598.61,-297.187
 L 5598.19,-298.566 L 5598.05,-300 L 5598.19,-301.434 L 5598.61,-302.813 L 5599.29,-304.083 L 5600.2,-305.197
 L 5601.32,-306.111 L 5602.59,-306.791 L 5603.97,-307.209 L 5605.4,-307.35 L 5606.83,-307.209 L 5608.21,-306.791
 L 5609.48,-306.111 L 5610.6,-305.197 L 5611.51,-304.083 L 5612.19,-302.813 L 5612.61,-301.434 L 5612.75,-300
 L 5612.61,-298.566 L 5612.19,-297.187 L 5611.51,-295.917 L 5610.6,-294.803 L 5609.48,-293.889 L 5608.21,-293.209
 L 5606.83,-292.791 L 5605.4,-292.65 z
M 5693.97,-222.791 L 5692.59,-223.209 L 5691.32,-223.889 L 5690.2,-224.803 L 5689.29,-225.917 L 5688.61,-227.187
 L 5688.19,-228.566 L 5688.05,-230 L 5688.19,-231.434 L 5688.61,-232.813 L 5689.29,-234.083 L 5690.2,-235.197
 L 5691.32,-236.111 L 5692.59,-236.791 L 5693.97,-237.209 L 5695.4,-237.35 L 5696.83,-237.209 L 5698.21,-236.791
 L 5699.48,-236.111 L 5700.6,-235.197 L 5701.51,-234.083 L 5702.19,-232.813 L 5702.61,-231.434 L 5702.75,-230
 L 5702.61,-228.566 L 5702.19,-227.187 L 5701.51,-225.917 L 5700.6,-224.803 L 5699.48,-223.889 L 5698.21,-223.209
 L 5696.83,-222.791 L 5695.4,-222.65 z
M 4613.97,-222.791 L 4612.7,-223.175 L 4612.7,-236.825 L 4613.97,-237.209 L 4615.4,-237.35 L 4616.83,-237.209
 L 4618.21,-236.791 L 4619.48,-236.111 L 4620.6,-235.197 L 4621.51,-234.083 L 4622.19,-232.813 L 4622.61,-231.434
 L 4622.75,-230 L 4622.61,-228.566 L 4622.19,-227.187 L 4621.51,-225.917 L 4620.6,-224.803 L 4619.48,-223.889
 L 4618.21,-223.209 L 4616.83,-222.791 L 4615.4,-222.65 z
M 4561.27,-140.291 L 4559.89,-140.709 L 4558.62,-141.389 L 4557.5,-142.303 L 4556.59,-143.417 L 4555.91,-144.687
 L 4555.49,-146.066 L 4555.35,-147.5 L 4555.49,-148.934 L 4555.91,-150.313 L 4556.59,-151.583 L 4557.5,-152.697
 L 4558.62,-153.611 L 4559.89,-154.291 L 4561.27,-154.709 L 4562.7,-154.85 L 4564.13,-154.709 L 4565.51,-154.291
 L 4566.78,-153.611 L 4567.9,-152.697 L 4568.81,-151.583 L 4569.49,-150.313 L 4569.91,-148.934 L 4570.05,-147.5
 L 4569.91,-146.066 L 4569.49,-144.687 L 4568.81,-143.417 L 4567.9,-142.303 L 4566.78,-141.389 L 4565.51,-140.709
 L 4564.13,-140.291 L 4562.7,-140.15 z
M 3615.87,-140.291 L 3614.49,-140.709 L 3613.22,-141.389 L 3612.1,-142.303 L 3611.19,-143.417 L 3610.51,-144.687
 L 3610.09,-146.066 L 3609.95,-147.5 L 3610.09,-148.934 L 3610.51,-150.313 L 3611.19,-151.583 L 3612.1,-152.697
 L 3613.22,-153.611 L 3614.49,-154.291 L 3615.87,-154.709 L 3617.3,-154.85 L 3618.73,-154.709 L 3620.11,-154.291
 L 3621.38,-153.611 L 3622.5,-152.697 L 3623.41,-151.583 L 3624.09,-150.313 L 3624.51,-148.934 L 3624.65,-147.5
 L 3624.51,-146.066 L 3624.09,-144.687 L 3623.41,-143.417 L 3622.5,-142.303 L 3621.38,-141.389 L 3620.11,-140.709
 L 3618.73,-140.291 L 3617.3,-140.15 z
M 5693.97,-122.791 L 5692.59,-123.209 L 5691.32,-123.889 L 5690.2,-124.803 L 5689.29,-125.917 L 5688.61,-127.187
 L 5688.19,-128.566 L 5688.05,-130 L 5688.19,-131.434 L 5688.61,-132.813 L 5689.29,-134.083 L 5690.2,-135.197
 L 5691.32,-136.111 L 5692.59,-136.791 L 5693.97,-137.209 L 5695.4,-137.35 L 5696.83,-137.209 L 5698.21,-136.791
 L 5699.48,-136.111 L 5700.6,-135.197 L 5701.51,-134.083 L 5702.19,-132.813 L 5702.61,-131.434 L 5702.75,-130
 L 5702.61,-128.566 L 5702.19,-127.187 L 5701.51,-125.917 L 5700.6,-124.803 L 5699.48,-123.889 L 5698.21,-123.209
 L 5696.83,-122.791 L 5695.4,-122.65 z
M 4613.97,-122.791 L 4612.7,-123.175 L 4612.7,-136.825 L 4613.97,-137.209 L 4615.4,-137.35 L 4616.83,-137.209
 L 4618.21,-136.791 L 4619.48,-136.111 L 4620.6,-135.197 L 4621.51,-134.083 L 4622.19,-132.813 L 4622.61,-131.434
 L 4622.75,-130 L 4622.61,-128.566 L 4622.19,-127.187 L 4621.51,-125.917 L 4620.6,-124.803 L 4619.48,-123.889
 L 4618.21,-123.209 L 4616.83,-122.791 L 4615.4,-122.65 z
M 5693.97,57.2088 L 5692.59,56.7905 L 5691.32,56.1113 L 5690.2,55.1972 L 5689.29,54.0834 L 5688.61,52.8127
 L 5688.19,51.4339 L 5688.05,50 L 5688.19,48.5661 L 5688.61,47.1873 L 5689.29,45.9165 L 5690.2,44.8028
 L 5691.32,43.8887 L 5692.59,43.2095 L 5693.97,42.7912 L 5695.4,42.65 L 5696.83,42.7912 L 5698.21,43.2095
 L 5699.48,43.8887 L 5700.6,44.8028 L 5701.51,45.9165 L 5702.19,47.1873 L 5702.61,48.5661 L 5702.75,50
 L 5702.61,51.4339 L 5702.19,52.8127 L 5701.51,54.0834 L 5700.6,55.1972 L 5699.48,56.1113 L 5698.21,56.7905
 L 5696.83,57.2088 L 5695.4,57.35 z
M 4613.97,57.2088 L 4612.7,56.8247 L 4612.7,43.1753 L 4613.97,42.7912 L 4615.4,42.65 L 4616.83,42.7912
 L 4618.21,43.2095 L 4619.48,43.8887 L 4620.6,44.8028 L 4621.51,45.9165 L 4622.19,47.1873 L 4622.61,48.5661
 L 4622.75,50 L 4622.61,51.4339 L 4622.19,52.8127 L 4621.51,54.0834 L 4620.6,55.1972 L 4619.48,56.1113
 L 4618.21,56.7905 L 4616.83,57.2088 L 4615.4,57.35 z
M 4084.15,119.424 L 4078.52,117.716 L 4073.33,114.944 L 4068.79,111.213 L 4065.06,106.667 L 4062.28,101.48
 L 4060.58,95.8527 L 4060,90 L 4060.58,84.1473 L 4062.28,78.5195 L 4065.06,73.3329 L 4068.79,68.7868
 L 4073.33,65.0559 L 4078.52,62.2836 L 4084.15,60.5764 L 4090,60 L 4095.85,60.5764 L 4101.48,62.2836
 L 4106.67,65.0559 L 4111.21,68.7868 L 4114.94,73.3329 L 4117.72,78.5195 L 4119.42,84.1473 L 4120,90
 L 4119.42,95.8527 L 4117.72,101.48 L 4114.94,106.667 L 4111.21,111.213 L 4106.67,114.944 L 4101.48,117.716
 L 4095.85,119.424 L 4090,120 z
M 4284.15,119.424 L 4278.52,117.716 L 4273.33,114.944 L 4268.79,111.213 L 4265.06,106.667 L 4262.28,101.48
 L 4260.58,95.8527 L 4260,90 L 4260.58,84.1473 L 4262.28,78.5195 L 4265.06,73.3329 L 4268.79,68.7868
 L 4273.33,65.0559 L 4278.52,62.2836 L 4284.15,60.5764 L 4290,60 L 4295.85,60.5764 L 4301.48,62.2836
 L 4306.67,65.0559 L 4311.21,68.7868 L 4314.94,73.3329 L 4317.72,78.5195 L 4319.42,84.1473 L 4320,90
 L 4319.42,95.8527 L 4317.72,101.48 L 4314.94,106.667 L 4311.21,111.213 L 4306.67,114.944 L 4301.48,117.716
 L 4295.85,119.424 L 4290,120 z
M 3884.15,119.424 L 3878.52,117.716 L 3873.33,114.944 L 3868.79,111.213 L 3865.06,106.667 L 3862.28,101.48
 L 3860.58,95.8527 L 3860,90 L 3860.58,84.1473 L 3862.28,78.5195 L 3865.06,73.3329 L 3868.79,68.7868
 L 3873.33,65.0559 L 3878.52,62.2836 L 3884.15,60.5764 L 3890,60 L 3895.85,60.5764 L 3901.48,62.2836
 L 3906.67,65.0559 L 3911.21,68.7868 L 3914.94,73.3329 L 3917.72,78.5195 L 3919.42,84.1473 L 3920,90
 L 3919.42,95.8527 L 3917.72,101.48 L 3914.94,106.667 L 3911.21,111.213 L 3906.67,114.944 L 3901.48,117.716
 L 3895.85,119.424 L 3890,120 z
M 3615.87,134.709 L 3614.49,134.291 L 3613.22,133.611 L 3612.1,132.697 L 3611.19,131.583 L 3610.51,130.313
 L 3610.09,128.934 L 3609.95,127.5 L 3610.09,126.066 L 3610.51,124.687 L 3611.19,123.417 L 3612.1,122.303
 L 3613.22,121.389 L 3614.49,120.709 L 3615.87,120.291 L 3617.3,120.15 L 3618.73,120.291 L 3620.11,120.709
 L 3621.38,121.389 L 3622.5,122.303 L 3623.41,123.417 L 3624.09,124.687 L 3624.51,126.066 L 3624.65,127.5
 L 3624.51,128.934 L 3624.09,130.313 L 3623.41,131.583 L 3622.5,132.697 L 3621.38,133.611 L 3620.11,134.291
 L 3618.73,134.709 L 3617.3,134.85 z
M 4561.27,134.709 L 4559.89,134.291 L 4558.62,133.611 L 4557.5,132.697 L 4556.59,131.583 L 4555.91,130.313
 L 4555.49,128.934 L 4555.35,127.5 L 4555.49,126.066 L 4555.91,124.687 L 4556.59,123.417 L 4557.5,122.303
 L 4558.62,121.389 L 4559.89,120.709 L 4561.27,120.291 L 4562.7,120.15 L 4564.13,120.291 L 4565.51,120.709
 L 4566.78,121.389 L 4567.9,122.303 L 4568.81,123.417 L 4569.49,124.687 L 4569.91,126.066 L 4570.05,127.5
 L 4569.91,128.934 L 4569.49,130.313 L 4568.81,131.583 L 4567.9,132.697 L 4566.78,133.611 L 4565.51,134.291
 L 4564.13,134.709 L 4562.7,134.85 z
M 5693.97,217.209 L 5692.59,216.791 L 5691.32,216.111 L 5690.2,215.197 L 5689.29,214.083 L 5688.61,212.813
 L 5688.19,211.434 L 5688.05,210 L 5688.19,208.566 L 5688.61,207.187 L 5689.29,205.917 L 5690.2,204.803
 L 5691.32,203.889 L 5692.59,203.209 L 5693.97,202.791 L 5695.4,202.65 L 5696.83,202.791 L 5698.21,203.209
 L 5699.48,203.889 L 5700.6,204.803 L 5701.51,205.917 L 5702.19,207.187 L 5702.61,208.566 L 5702.75,210
 L 5702.61,211.434 L 5702.19,212.813 L 5701.51,214.083 L 5700.6,215.197 L 5699.48,216.111 L 5698.21,216.791
 L 5696.83,217.209 L 5695.4,217.35 z
M 4613.97,217.209 L 4612.7,216.825 L 4612.7,203.175 L 4613.97,202.791 L 4615.4,202.65 L 4616.83,202.791
 L 4618.21,203.209 L 4619.48,203.889 L 4620.6,204.803 L 4621.51,205.917 L 4622.19,207.187 L 4622.61,208.566
 L 4622.75,210 L 4622.61,211.434 L 4622.19,212.813 L 4621.51,214.083 L 4620.6,215.197 L 4619.48,216.111
 L 4618.21,216.791 L 4616.83,217.209 L 4615.4,217.35 z
M 9419.31,-10.2325 L 9421.12,-10.9164 L 9422.7,-12.0119 L 9423.98,-13.4555 L 9424.88,-15.1632 L 9425.4,-18
 L 9425.4,-125.47 L 9425.17,-127.385 L 9424.48,-129.188 L 9423.39,-130.775 L 9421.52,-132.33 L 9379.52,-157.53
 L 9377.75,-158.316 L 9375.86,-158.657 L 9373.93,-158.535 L 9371.28,-157.53 L 9329.28,-132.33 L 9327.76,-131.146
 L 9326.57,-129.632 L 9325.77,-127.876 L 9325.4,-125.47 L 9325.4,-18 L 9325.63,-16.0855 L 9326.32,-14.2822
 L 9327.41,-12.695 L 9328.86,-11.4161 L 9330.56,-10.5199 L 9333.4,-10 L 9417.4,-10 z
M 9367.05,-107.935 L 9367.05,-132.065 L 9383.75,-132.065 L 9383.75,-107.935 z
M 9403.97,-52.7912 L 9402.59,-53.2095 L 9401.32,-53.8887 L 9400.2,-54.8028 L 9399.29,-55.9165 L 9398.61,-57.1873
 L 9398.19,-58.5661 L 9398.05,-60 L 9398.19,-61.4339 L 9398.61,-62.8127 L 9399.29,-64.0834 L 9400.2,-65.1972
 L 9401.32,-66.1113 L 9402.59,-66.7905 L 9403.97,-67.2088 L 9405.4,-67.35 L 9406.83,-67.2088 L 9408.21,-66.7905
 L 9409.48,-66.1113 L 9410.6,-65.1972 L 9411.51,-64.0834 L 9412.19,-62.8127 L 9412.61,-61.4339 L 9412.75,-60
 L 9412.61,-58.5661 L 9412.19,-57.1873 L 9411.51,-55.9165 L 9410.6,-54.8028 L 9409.48,-53.8887 L 9408.21,-53.2095
 L 9406.83,-52.7912 L 9405.4,-52.65 z
M 9343.97,-52.7912 L 9342.59,-53.2095 L 9341.32,-53.8887 L 9340.2,-54.8028 L 9339.29,-55.9165 L 9338.61,-57.1873
 L 9338.19,-58.5661 L 9338.05,-60 L 9338.19,-61.4339 L 9338.61,-62.8127 L 9339.29,-64.0834 L 9340.2,-65.1972
 L 9341.32,-66.1113 L 9342.59,-66.7905 L 9343.97,-67.2088 L 9345.4,-67.35 L 9346.83,-67.2088 L 9348.21,-66.7905
 L 9349.48,-66.1113 L 9350.6,-65.1972 L 9351.51,-64.0834 L 9352.19,-62.8127 L 9352.61,-61.4339 L 9352.75,-60
 L 9352.61,-58.5661 L 9352.19,-57.1873 L 9351.51,-55.9165 L 9350.6,-54.8028 L 9349.48,-53.8887 L 9348.21,-53.2095
 L 9346.83,-52.7912 L 9345.4,-52.65 z
M 9403.97,-22.7912 L 9402.59,-23.2095 L 9401.32,-23.8887 L 9400.2,-24.8028 L 9399.29,-25.9165 L 9398.61,-27.1873
 L 9398.19,-28.5661 L 9398.05,-30 L 9398.19,-31.4339 L 9398.61,-32.8127 L 9399.29,-34.0834 L 9400.2,-35.1972
 L 9401.32,-36.1113 L 9402.59,-36.7905 L 9403.97,-37.2088 L 9405.4,-37.35 L 9406.83,-37.2088 L 9408.21,-36.7905
 L 9409.48,-36.1113 L 9410.6,-35.1972 L 9411.51,-34.0834 L 9412.19,-32.8127 L 9412.61,-31.4339 L 9412.75,-30
 L 9412.61,-28.5661 L 9412.19,-27.1873 L 9411.51,-25.9165 L 9410.6,-24.8028 L 9409.48,-23.8887 L 9408.21,-23.2095
 L 9406.83,-22.7912 L 9405.4,-22.65 z
M 9343.97,-22.7912 L 9342.59,-23.2095 L 9341.32,-23.8887 L 9340.2,-24.8028 L 9339.29,-25.9165 L 9338.61,-27.1873
 L 9338.19,-28.5661 L 9338.05,-30 L 9338.19,-31.4339 L 9338.61,-32.8127 L 9339.29,-34.0834 L 9340.2,-35.1972
 L 9341.32,-36.1113 L 9342.59,-36.7905 L 9343.97,-37.2088 L 9345.4,-37.35 L 9346.83,-37.2088 L 9348.21,-36.7905
 L 9349.48,-36.1113 L 9350.6,-35.1972 L 9351.51,-34.0834 L 9352.19,-32.8127 L 9352.61,-31.4339 L 9352.75,-30
 L 9352.61,-28.5661 L 9352.19,-27.1873 L 9351.51,-25.9165 L 9350.6,-24.8028 L 9349.48,-23.8887 L 9348.21,-23.2095
 L 9346.83,-22.7912 L 9345.4,-22.65 z
M 9179.31,-10.2325 L 9181.12,-10.9164 L 9182.7,-12.0119 L 9183.98,-13.4555 L 9184.88,-15.1632 L 9185.4,-18
 L 9185.4,-125.47 L 9185.17,-127.385 L 9184.48,-129.188 L 9183.39,-130.775 L 9181.52,-132.33 L 9139.52,-157.53
 L 9137.75,-158.316 L 9135.86,-158.657 L 9133.93,-158.535 L 9131.28,-157.53 L 9089.28,-132.33 L 9087.76,-131.146
 L 9086.57,-129.632 L 9085.77,-127.876 L 9085.4,-125.47 L 9085.4,-18 L 9085.63,-16.0855 L 9086.32,-14.2822
 L 9087.41,-12.695 L 9088.86,-11.4161 L 9090.56,-10.5199 L 9093.4,-10 L 9177.4,-10 z
M 9127.05,-107.935 L 9127.05,-132.065 L 9143.75,-132.065 L 9143.75,-107.935 z
M 9103.97,-52.7912 L 9102.59,-53.2095 L 9101.32,-53.8887 L 9100.2,-54.8028 L 9099.29,-55.9165 L 9098.61,-57.1873
 L 9098.19,-58.5661 L 9098.05,-60 L 9098.19,-61.4339 L 9098.61,-62.8127 L 9099.29,-64.0834 L 9100.2,-65.1972
 L 9101.32,-66.1113 L 9102.59,-66.7905 L 9103.97,-67.2088 L 9105.4,-67.35 L 9106.83,-67.2088 L 9108.21,-66.7905
 L 9109.48,-66.1113 L 9110.6,-65.1972 L 9111.51,-64.0834 L 9112.19,-62.8127 L 9112.61,-61.4339 L 9112.75,-60
 L 9112.61,-58.5661 L 9112.19,-57.1873 L 9111.51,-55.9165 L 9110.6,-54.8028 L 9109.48,-53.8887 L 9108.21,-53.2095
 L 9106.83,-52.7912 L 9105.4,-52.65 z
M 9163.97,-52.7912 L 9162.59,-53.2095 L 9161.32,-53.8887 L 9160.2,-54.8028 L 9159.29,-55.9165 L 9158.61,-57.1873
 L 9158.19,-58.5661 L 9158.05,-60 L 9158.19,-61.4339 L 9158.61,-62.8127 L 9159.29,-64.0834 L 9160.2,-65.1972
 L 9161.32,-66.1113 L 9162.59,-66.7905 L 9163.97,-67.2088 L 9165.4,-67.35 L 9166.83,-67.2088 L 9168.21,-66.7905
 L 9169.48,-66.1113 L 9170.6,-65.1972 L 9171.51,-64.0834 L 9172.19,-62.8127 L 9172.61,-61.4339 L 9172.75,-60
 L 9172.61,-58.5661 L 9172.19,-57.1873 L 9171.51,-55.9165 L 9170.6,-54.8028 L 9169.48,-53.8887 L 9168.21,-53.2095
 L 9166.83,-52.7912 L 9165.4,-52.65 z
M 9163.97,-22.7912 L 9162.59,-23.2095 L 9161.32,-23.8887 L 9160.2,-24.8028 L 9159.29,-25.9165 L 9158.61,-27.1873
 L 9158.19,-28.5661 L 9158.05,-30 L 9158.19,-31.4339 L 9158.61,-32.8127 L 9159.29,-34.0834 L 9160.2,-35.1972
 L 9161.32,-36.1113 L 9162.59,-36.7905 L 9163.97,-37.2088 L 9165.4,-37.35 L 9166.83,-37.2088 L 9168.21,-36.7905
 L 9169.48,-36.1113 L 9170.6,-35.1972 L 9171.51,-34.0834 L 9172.19,-32.8127 L 9172.61,-31.4339 L 9172.75,-30
 L 9172.61,-28.5661 L 9172.19,-27.1873 L 9171.51,-25.9165 L 9170.6,-24.8028 L 9169.48,-23.8887 L 9168.21,-23.2095
 L 9166.83,-22.7912 L 9165.4,-22.65 z
M 9103.97,-22.7912 L 9102.59,-23.2095 L 9101.32,-23.8887 L 9100.2,-24.8028 L 9099.29,-25.9165 L 9098.61,-27.1873
 L 9098.19,-28.5661 L 9098.05,-30 L 9098.19,-31.4339 L 9098.61,-32.8127 L 9099.29,-34.0834 L 9100.2,-35.1972
 L 9101.32,-36.1113 L 9102.59,-36.7905 L 9103.97,-37.2088 L 9105.4,-37.35 L 9106.83,-37.2088 L 9108.21,-36.7905
 L 9109.48,-36.1113 L 9110.6,-35.1972 L 9111.51,-34.0834 L 9112.19,-32.8127 L 9112.61,-31.4339 L 9112.75,-30
 L 9112.61,-28.5661 L 9112.19,-27.1873 L 9111.51,-25.9165 L 9110.6,-24.8028 L 9109.48,-23.8887 L 9108.21,-23.2095
 L 9106.83,-22.7912 L 9105.4,-22.65 z
M 9059.31,-10.2325 L 9061.12,-10.9164 L 9062.7,-12.0119 L 9063.98,-13.4555 L 9064.88,-15.1632 L 9065.4,-18
 L 9065.4,-125.47 L 9065.17,-127.385 L 9064.48,-129.188 L 9063.39,-130.775 L 9061.52,-132.33 L 9019.52,-157.53
 L 9017.75,-158.316 L 9015.86,-158.657 L 9013.93,-158.535 L 9011.28,-157.53 L 8969.28,-132.33 L 8967.76,-131.146
 L 8966.57,-129.632 L 8965.77,-127.876 L 8965.4,-125.47 L 8965.4,-18 L 8965.63,-16.0855 L 8966.32,-14.2822
 L 8967.41,-12.695 L 8968.86,-11.4161 L 8970.56,-10.5199 L 8973.4,-10 L 9057.4,-10 z
M 9007.05,-107.935 L 9007.05,-132.065 L 9023.75,-132.065 L 9023.75,-107.935 z
M 8983.97,-52.7912 L 8982.59,-53.2095 L 8981.32,-53.8887 L 8980.2,-54.8028 L 8979.29,-55.9165 L 8978.61,-57.1873
 L 8978.19,-58.5661 L 8978.05,-60 L 8978.19,-61.4339 L 8978.61,-62.8127 L 8979.29,-64.0834 L 8980.2,-65.1972
 L 8981.32,-66.1113 L 8982.59,-66.7905 L 8983.97,-67.2088 L 8985.4,-67.35 L 8986.83,-67.2088 L 8988.21,-66.7905
 L 8989.48,-66.1113 L 8990.6,-65.1972 L 8991.51,-64.0834 L 8992.19,-62.8127 L 8992.61,-61.4339 L 8992.75,-60
 L 8992.61,-58.5661 L 8992.19,-57.1873 L 8991.51,-55.9165 L 8990.6,-54.8028 L 8989.48,-53.8887 L 8988.21,-53.2095
 L 8986.83,-52.7912 L 8985.4,-52.65 z
M 9043.97,-52.7912 L 9042.59,-53.2095 L 9041.32,-53.8887 L 9040.2,-54.8028 L 9039.29,-55.9165 L 9038.61,-57.1873
 L 9038.19,-58.5661 L 9038.05,-60 L 9038.19,-61.4339 L 9038.61,-62.8127 L 9039.29,-64.0834 L 9040.2,-65.1972
 L 9041.32,-66.1113 L 9042.59,-66.7905 L 9043.97,-67.2088 L 9045.4,-67.35 L 9046.83,-67.2088 L 9048.21,-66.7905
 L 9049.48,-66.1113 L 9050.6,-65.1972 L 9051.51,-64.0834 L 9052.19,-62.8127 L 9052.61,-61.4339 L 9052.75,-60
 L 9052.61,-58.5661 L 9052.19,-57.1873 L 9051.51,-55.9165 L 9050.6,-54.8028 L 9049.48,-53.8887 L 9048.21,-53.2095
 L 9046.83,-52.7912 L 9045.4,-52.65 z
M 8983.97,-22.7912 L 8982.59,-23.2095 L 8981.32,-23.8887 L 8980.2,-24.8028 L 8979.29,-25.9165 L 8978.61,-27.1873
 L 8978.19,-28.5661 L 8978.05,-30 L 8978.19,-31.4339 L 8978.61,-32.8127 L 8979.29,-34.0834 L 8980.2,-35.1972
 L 8981.32,-36.1113 L 8982.59,-36.7905 L 8983.97,-37.2088 L 8985.4,-37.35 L 8986.83,-37.2088 L 8988.21,-36.7905
 L 8989.48,-36.1113 L 8990.6,-35.1972 L 8991.51,-34.0834 L 8992.19,-32.8127 L 8992.61,-31.4339 L 8992.75,-30
 L 8992.61,-28.5661 L 8992.19,-27.1873 L 8991.51,-25.9165 L 8990.6,-24.8028 L 8989.48,-23.8887 L 8988.21,-23.2095
 L 8986.83,-22.7912 L 8985.4,-22.65 z
M 9043.97,-22.7912 L 9042.59,-23.2095 L 9041.32,-23.8887 L 9040.2,-24.8028 L 9039.29,-25.9165 L 9038.61,-27.1873
 L 9038.19,-28.5661 L 9038.05,-30 L 9038.19,-31.4339 L 9038.61,-32.8127 L 9039.29,-34.0834 L 9040.2,-35.1972
 L 9041.32,-36.1113 L 9042.59,-36.7905 L 9043.97,-37.2088 L 9045.4,-37.35 L 9046.83,-37.2088 L 9048.21,-36.7905
 L 9049.48,-36.1113 L 9050.6,-35.1972 L 9051.51,-34.0834 L 9052.19,-32.8127 L 9052.61,-31.4339 L 9052.75,-30
 L 9052.61,-28.5661 L 9052.19,-27.1873 L 9051.51,-25.9165 L 9050.6,-24.8028 L 9049.48,-23.8887 L 9048.21,-23.2095
 L 9046.83,-22.7912 L 9045.4,-22.65 z
M 9299.31,-10.2325 L 9301.12,-10.9164 L 9302.7,-12.0119 L 9303.98,-13.4555 L 9304.88,-15.1632 L 9305.4,-18
 L 9305.4,-125.47 L 9305.17,-127.385 L 9304.48,-129.188 L 9303.39,-130.775 L 9301.52,-132.33 L 9259.52,-157.53
 L 9257.75,-158.316 L 9255.86,-158.657 L 9253.93,-158.535 L 9251.28,-157.53 L 9209.28,-132.33 L 9207.76,-131.146
 L 9206.57,-129.632 L 9205.77,-127.876 L 9205.4,-125.47 L 9205.4,-18 L 9205.63,-16.0855 L 9206.32,-14.2822
 L 9207.41,-12.695 L 9208.86,-11.4161 L 9210.56,-10.5199 L 9213.4,-10 L 9297.4,-10 z
M 9247.05,-107.935 L 9247.05,-132.065 L 9263.75,-132.065 L 9263.75,-107.935 z
M 9223.97,-52.7912 L 9222.59,-53.2095 L 9221.32,-53.8887 L 9220.2,-54.8028 L 9219.29,-55.9165 L 9218.61,-57.1873
 L 9218.19,-58.5661 L 9218.05,-60 L 9218.19,-61.4339 L 9218.61,-62.8127 L 9219.29,-64.0834 L 9220.2,-65.1972
 L 9221.32,-66.1113 L 9222.59,-66.7905 L 9223.97,-67.2088 L 9225.4,-67.35 L 9226.83,-67.2088 L 9228.21,-66.7905
 L 9229.48,-66.1113 L 9230.6,-65.1972 L 9231.51,-64.0834 L 9232.19,-62.8127 L 9232.61,-61.4339 L 9232.75,-60
 L 9232.61,-58.5661 L 9232.19,-57.1873 L 9231.51,-55.9165 L 9230.6,-54.8028 L 9229.48,-53.8887 L 9228.21,-53.2095
 L 9226.83,-52.7912 L 9225.4,-52.65 z
M 9283.97,-52.7912 L 9282.59,-53.2095 L 9281.32,-53.8887 L 9280.2,-54.8028 L 9279.29,-55.9165 L 9278.61,-57.1873
 L 9278.19,-58.5661 L 9278.05,-60 L 9278.19,-61.4339 L 9278.61,-62.8127 L 9279.29,-64.0834 L 9280.2,-65.1972
 L 9281.32,-66.1113 L 9282.59,-66.7905 L 9283.97,-67.2088 L 9285.4,-67.35 L 9286.83,-67.2088 L 9288.21,-66.7905
 L 9289.48,-66.1113 L 9290.6,-65.1972 L 9291.51,-64.0834 L 9292.19,-62.8127 L 9292.61,-61.4339 L 9292.75,-60
 L 9292.61,-58.5661 L 9292.19,-57.1873 L 9291.51,-55.9165 L 9290.6,-54.8028 L 9289.48,-53.8887 L 9288.21,-53.2095
 L 9286.83,-52.7912 L 9285.4,-52.65 z
M 9283.97,-22.7912 L 9282.59,-23.2095 L 9281.32,-23.8887 L 9280.2,-24.8028 L 9279.29,-25.9165 L 9278.61,-27.1873
 L 9278.19,-28.5661 L 9278.05,-30 L 9278.19,-31.4339 L 9278.61,-32.8127 L 9279.29,-34.0834 L 9280.2,-35.1972
 L 9281.32,-36.1113 L 9282.59,-36.7905 L 9283.97,-37.2088 L 9285.4,-37.35 L 9286.83,-37.2088 L 9288.21,-36.7905
 L 9289.48,-36.1113 L 9290.6,-35.1972 L 9291.51,-34.0834 L 9292.19,-32.8127 L 9292.61,-31.4339 L 9292.75,-30
 L 9292.61,-28.5661 L 9292.19,-27.1873 L 9291.51,-25.9165 L 9290.6,-24.8028 L 9289.48,-23.8887 L 9288.21,-23.2095
 L 9286.83,-22.7912 L 9285.4,-22.65 z
M 9223.97,-22.7912 L 9222.59,-23.2095 L 9221.32,-23.8887 L 9220.2,-24.8028 L 9219.29,-25.9165 L 9218.61,-27.1873
 L 9218.19,-28.5661 L 9218.05,-30 L 9218.19,-31.4339 L 9218.61,-32.8127 L 9219.29,-34.0834 L 9220.2,-35.1972
 L 9221.32,-36.1113 L 9222.59,-36.7905 L 9223.97,-37.2088 L 9225.4,-37.35 L 9226.83,-37.2088 L 9228.21,-36.7905
 L 9229.48,-36.1113 L 9230.6,-35.1972 L 9231.51,-34.0834 L 9232.19,-32.8127 L 9232.61,-31.4339 L 9232.75,-30
 L 9232.61,-28.5661 L 9232.19,-27.1873 L 9231.51,-25.9165 L 9230.6,-24.8028 L 9229.48,-23.8887 L 9228.21,-23.2095
 L 9226.83,-22.7912 L 9225.4,-22.65 z
M 9539.31,-10.2325 L 9541.12,-10.9164 L 9542.7,-12.0119 L 9543.98,-13.4555 L 9544.88,-15.1632 L 9545.4,-18
 L 9545.4,-125.47 L 9545.17,-127.385 L 9544.48,-129.188 L 9543.39,-130.775 L 9541.52,-132.33 L 9499.52,-157.53
 L 9497.75,-158.316 L 9495.86,-158.657 L 9493.93,-158.535 L 9491.28,-157.53 L 9449.28,-132.33 L 9447.76,-131.146
 L 9446.57,-129.632 L 9445.77,-127.876 L 9445.4,-125.47 L 9445.4,-18 L 9445.63,-16.0855 L 9446.32,-14.2822
 L 9447.41,-12.695 L 9448.86,-11.4161 L 9450.56,-10.5199 L 9453.4,-10 L 9537.4,-10 z
M 9487.05,-107.935 L 9487.05,-132.065 L 9503.75,-132.065 L 9503.75,-107.935 z
M 9463.97,-52.7912 L 9462.59,-53.2095 L 9461.32,-53.8887 L 9460.2,-54.8028 L 9459.29,-55.9165 L 9458.61,-57.1873
 L 9458.19,-58.5661 L 9458.05,-60 L 9458.19,-61.4339 L 9458.61,-62.8127 L 9459.29,-64.0834 L 9460.2,-65.1972
 L 9461.32,-66.1113 L 9462.59,-66.7905 L 9463.97,-67.2088 L 9465.4,-67.35 L 9466.83,-67.2088 L 9468.21,-66.7905
 L 9469.48,-66.1113 L 9470.6,-65.1972 L 9471.51,-64.0834 L 9472.19,-62.8127 L 9472.61,-61.4339 L 9472.75,-60
 L 9472.61,-58.5661 L 9472.19,-57.1873 L 9471.51,-55.9165 L 9470.6,-54.8028 L 9469.48,-53.8887 L 9468.21,-53.2095
 L 9466.83,-52.7912 L 9465.4,-52.65 z
M 9523.97,-52.7912 L 9522.59,-53.2095 L 9521.32,-53.8887 L 9520.2,-54.8028 L 9519.29,-55.9165 L 9518.61,-57.1873
 L 9518.19,-58.5661 L 9518.05,-60 L 9518.19,-61.4339 L 9518.61,-62.8127 L 9519.29,-64.0834 L 9520.2,-65.1972
 L 9521.32,-66.1113 L 9522.59,-66.7905 L 9523.97,-67.2088 L 9525.4,-67.35 L 9526.83,-67.2088 L 9528.21,-66.7905
 L 9529.48,-66.1113 L 9530.6,-65.1972 L 9531.51,-64.0834 L 9532.19,-62.8127 L 9532.61,-61.4339 L 9532.75,-60
 L 9532.61,-58.5661 L 9532.19,-57.1873 L 9531.51,-55.9165 L 9530.6,-54.8028 L 9529.48,-53.8887 L 9528.21,-53.2095
 L 9526.83,-52.7912 L 9525.4,-52.65 z
M 9463.97,-22.7912 L 9462.59,-23.2095 L 9461.32,-23.8887 L 9460.2,-24.8028 L 9459.29,-25.9165 L 9458.61,-27.1873
 L 9458.19,-28.5661 L 9458.05,-30 L 9458.19,-31.4339 L 9458.61,-32.8127 L 9459.29,-34.0834 L 9460.2,-35.1972
 L 9461.32,-36.1113 L 9462.59,-36.7905 L 9463.97,-37.2088 L 9465.4,-37.35 L 9466.83,-37.2088 L 9468.21,-36.7905
 L 9469.48,-36.1113 L 9470.6,-35.1972 L 9471.51,-34.0834 L 9472.19,-32.8127 L 9472.61,-31.4339 L 9472.75,-30
 L 9472.61,-28.5661 L 9472.19,-27.1873 L 9471.51,-25.9165 L 9470.6,-24.8028 L 9469.48,-23.8887 L 9468.21,-23.2095
 L 9466.83,-22.7912 L 9465.4,-22.65 z
M 9523.97,-22.7912 L 9522.59,-23.2095 L 9521.32,-23.8887 L 9520.2,-24.8028 L 9519.29,-25.9165 L 9518.61,-27.1873
 L 9518.19,-28.5661 L 9518.05,-30 L 9518.19,-31.4339 L 9518.61,-32.8127 L 9519.29,-34.0834 L 9520.2,-35.1972
 L 9521.32,-36.1113 L 9522.59,-36.7905 L 9523.97,-37.2088 L 9525.4,-37.35 L 9526.83,-37.2088 L 9528.21,-36.7905
 L 9529.48,-36.1113 L 9530.6,-35.1972 L 9531.51,-34.0834 L 9532.19,-32.8127 L 9532.61,-31.4339 L 9532.75,-30
 L 9532.61,-28.5661 L 9532.19,-27.1873 L 9531.51,-25.9165 L 9530.6,-24.8028 L 9529.48,-23.8887 L 9528.21,-23.2095
 L 9526.83,-22.7912 L 9525.4,-22.65 z
M 9659.31,-10.2325 L 9661.12,-10.9164 L 9662.7,-12.0119 L 9663.98,-13.4555 L 9664.88,-15.1632 L 9665.4,-18
 L 9665.4,-125.47 L 9665.17,-127.385 L 9664.48,-129.188 L 9663.39,-130.775 L 9661.52,-132.33 L 9619.52,-157.53
 L 9617.75,-158.316 L 9615.86,-158.657 L 9613.93,-158.535 L 9611.28,-157.53 L 9569.28,-132.33 L 9567.76,-131.146
 L 9566.57,-129.632 L 9565.77,-127.876 L 9565.4,-125.47 L 9565.4,-18 L 9565.63,-16.0855 L 9566.32,-14.2822
 L 9567.41,-12.695 L 9568.86,-11.4161 L 9570.56,-10.5199 L 9573.4,-10 L 9657.4,-10 z
M 9607.05,-107.935 L 9607.05,-132.065 L 9623.75,-132.065 L 9623.75,-107.935 z
M 9643.97,-52.7912 L 9642.59,-53.2095 L 9641.32,-53.8887 L 9640.2,-54.8028 L 9639.29,-55.9165 L 9638.61,-57.1873
 L 9638.19,-58.5661 L 9638.05,-60 L 9638.19,-61.4339 L 9638.61,-62.8127 L 9639.29,-64.0834 L 9640.2,-65.1972
 L 9641.32,-66.1113 L 9642.59,-66.7905 L 9643.97,-67.2088 L 9645.4,-67.35 L 9646.83,-67.2088 L 9648.21,-66.7905
 L 9649.48,-66.1113 L 9650.6,-65.1972 L 9651.51,-64.0834 L 9652.19,-62.8127 L 9652.61,-61.4339 L 9652.75,-60
 L 9652.61,-58.5661 L 9652.19,-57.1873 L 9651.51,-55.9165 L 9650.6,-54.8028 L 9649.48,-53.8887 L 9648.21,-53.2095
 L 9646.83,-52.7912 L 9645.4,-52.65 z
M 9583.97,-52.7912 L 9582.59,-53.2095 L 9581.32,-53.8887 L 9580.2,-54.8028 L 9579.29,-55.9165 L 9578.61,-57.1873
 L 9578.19,-58.5661 L 9578.05,-60 L 9578.19,-61.4339 L 9578.61,-62.8127 L 9579.29,-64.0834 L 9580.2,-65.1972
 L 9581.32,-66.1113 L 9582.59,-66.7905 L 9583.97,-67.2088 L 9585.4,-67.35 L 9586.83,-67.2088 L 9588.21,-66.7905
 L 9589.48,-66.1113 L 9590.6,-65.1972 L 9591.51,-64.0834 L 9592.19,-62.8127 L 9592.61,-61.4339 L 9592.75,-60
 L 9592.61,-58.5661 L 9592.19,-57.1873 L 9591.51,-55.9165 L 9590.6,-54.8028 L 9589.48,-53.8887 L 9588.21,-53.2095
 L 9586.83,-52.7912 L 9585.4,-52.65 z
M 9643.97,-22.7912 L 9642.59,-23.2095 L 9641.32,-23.8887 L 9640.2,-24.8028 L 9639.29,-25.9165 L 9638.61,-27.1873
 L 9638.19,-28.5661 L 9638.05,-30 L 9638.19,-31.4339 L 9638.61,-32.8127 L 9639.29,-34.0834 L 9640.2,-35.1972
 L 9641.32,-36.1113 L 9642.59,-36.7905 L 9643.97,-37.2088 L 9645.4,-37.35 L 9646.83,-37.2088 L 9648.21,-36.7905
 L 9649.48,-36.1113 L 9650.6,-35.1972 L 9651.51,-34.0834 L 9652.19,-32.8127 L 9652.61,-31.4339 L 9652.75,-30
 L 9652.61,-28.5661 L 9652.19,-27.1873 L 9651.51,-25.9165 L 9650.6,-24.8028 L 9649.48,-23.8887 L 9648.21,-23.2095
 L 9646.83,-22.7912 L 9645.4,-22.65 z
M 9583.97,-22.7912 L 9582.59,-23.2095 L 9581.32,-23.8887 L 9580.2,-24.8028 L 9579.29,-25.9165 L 9578.61,-27.1873
 L 9578.19,-28.5661 L 9578.05,-30 L 9578.19,-31.4339 L 9578.61,-32.8127 L 9579.29,-34.0834 L 9580.2,-35.1972
 L 9581.32,-36.1113 L 9582.59,-36.7905 L 9583.97,-37.2088 L 9585.4,-37.35 L 9586.83,-37.2088 L 9588.21,-36.7905
 L 9589.48,-36.1113 L 9590.6,-35.1972 L 9591.51,-34.0834 L 9592.19,-32.8127 L 9592.61,-31.4339 L 9592.75,-30
 L 9592.61,-28.5661 L 9592.19,-27.1873 L 9591.51,-25.9165 L 9590.6,-24.8028 L 9589.48,-23.8887 L 9588.21,-23.2095
 L 9586.83,-22.7912 L 9585.4,-22.65 z
M 8052.48,114.781 L 8054.47,114.135 L 8056.28,113.09 L 8057.83,111.691 L 8059.06,110 L 8059.91,108.09
 L 8060.4,105 L 8060.4,-125 L 8060.18,-127.079 L 8059.54,-129.067 L 8058.49,-130.878 L 8057.09,-132.431
 L 8055.4,-133.66 L 8053.49,-134.511 L 8050.4,-135 L 7820.4,-135 L 7818.32,-134.781 L 7816.33,-134.135
 L 7814.52,-133.09 L 7812.97,-131.691 L 7811.74,-130 L 7810.89,-128.09 L 7810.4,-125 L 7810.4,105
 L 7810.62,107.079 L 7811.26,109.067 L 7812.31,110.878 L 7813.71,112.431 L 7815.4,113.66 L 7817.31,114.511
 L 7820.4,115 L 8050.4,115 z
M 8028.97,-97.7912 L 8027.59,-98.2095 L 8026.32,-98.8887 L 8025.2,-99.8028 L 8024.29,-100.917 L 8023.61,-102.187
 L 8023.19,-103.566 L 8023.05,-105 L 8023.19,-106.434 L 8023.61,-107.813 L 8024.29,-109.083 L 8025.2,-110.197
 L 8026.32,-111.111 L 8027.59,-111.791 L 8028.97,-112.209 L 8030.4,-112.35 L 8031.83,-112.209 L 8033.21,-111.791
 L 8034.48,-111.111 L 8035.6,-110.197 L 8036.51,-109.083 L 8037.19,-107.813 L 8037.61,-106.434 L 8037.75,-105
 L 8037.61,-103.566 L 8037.19,-102.187 L 8036.51,-100.917 L 8035.6,-99.8028 L 8034.48,-98.8887 L 8033.21,-98.2095
 L 8031.83,-97.7912 L 8030.4,-97.65 z
M 7838.97,-97.7912 L 7837.59,-98.2095 L 7836.32,-98.8887 L 7835.2,-99.8028 L 7834.29,-100.917 L 7833.61,-102.187
 L 7833.19,-103.566 L 7833.05,-105 L 7833.19,-106.434 L 7833.61,-107.813 L 7834.29,-109.083 L 7835.2,-110.197
 L 7836.32,-111.111 L 7837.59,-111.791 L 7838.97,-112.209 L 7840.4,-112.35 L 7841.83,-112.209 L 7843.21,-111.791
 L 7844.48,-111.111 L 7845.6,-110.197 L 7846.51,-109.083 L 7847.19,-107.813 L 7847.61,-106.434 L 7847.75,-105
 L 7847.61,-103.566 L 7847.19,-102.187 L 7846.51,-100.917 L 7845.6,-99.8028 L 7844.48,-98.8887 L 7843.21,-98.2095
 L 7841.83,-97.7912 L 7840.4,-97.65 z
M 7933.35,-89.6772 L 7931.37,-90.2762 L 7929.55,-91.2488 L 7927.96,-92.5577 L 7926.65,-94.1526 L 7925.68,-95.9722
 L 7925.08,-97.9467 L 7924.88,-100 L 7925.08,-102.053 L 7925.68,-104.028 L 7926.65,-105.847 L 7927.96,-107.442
 L 7929.55,-108.751 L 7931.37,-109.724 L 7933.35,-110.323 L 7935.4,-110.525 L 7937.45,-110.323 L 7939.43,-109.724
 L 7941.25,-108.751 L 7942.84,-107.442 L 7944.15,-105.847 L 7945.12,-104.028 L 7945.72,-102.053 L 7945.92,-100
 L 7945.72,-97.9467 L 7945.12,-95.9722 L 7944.15,-94.1526 L 7942.84,-92.5577 L 7941.25,-91.2488 L 7939.43,-90.2762
 L 7937.45,-89.6772 L 7935.4,-89.475 z
M 7869.71,-63.3168 L 7867.73,-63.9158 L 7865.91,-64.8884 L 7864.32,-66.1973 L 7863.01,-67.7922 L 7862.04,-69.6119
 L 7861.44,-71.5863 L 7861.24,-73.6396 L 7861.44,-75.6929 L 7862.04,-77.6673 L 7863.01,-79.487 L 7864.32,-81.0819
 L 7865.91,-82.3908 L 7867.73,-83.3634 L 7869.71,-83.9624 L 7871.76,-84.1646 L 7873.81,-83.9624 L 7875.79,-83.3634
 L 7877.61,-82.3908 L 7879.2,-81.0819 L 7880.51,-79.487 L 7881.48,-77.6673 L 7882.08,-75.6929 L 7882.29,-73.6396
 L 7882.08,-71.5863 L 7881.48,-69.6119 L 7880.51,-67.7922 L 7879.2,-66.1973 L 7877.61,-64.8884 L 7875.79,-63.9158
 L 7873.81,-63.3168 L 7871.76,-63.1146 z
M 7996.99,-63.3168 L 7995.01,-63.9158 L 7993.19,-64.8884 L 7991.6,-66.1973 L 7990.29,-67.7922 L 7989.32,-69.6119
 L 7988.72,-71.5863 L 7988.51,-73.6396 L 7988.72,-75.6929 L 7989.32,-77.6673 L 7990.29,-79.487 L 7991.6,-81.0819
 L 7993.19,-82.3908 L 7995.01,-83.3634 L 7996.99,-83.9624 L 7999.04,-84.1646 L 8001.09,-83.9624 L 8003.07,-83.3634
 L 8004.89,-82.3908 L 8006.48,-81.0819 L 8007.79,-79.487 L 8008.76,-77.6673 L 8009.36,-75.6929 L 8009.56,-73.6396
 L 8009.36,-71.5863 L 8008.76,-69.6119 L 8007.79,-67.7922 L 8006.48,-66.1973 L 8004.89,-64.8884 L 8003.07,-63.9158
 L 8001.09,-63.3168 L 7999.04,-63.1146 z
M 7930.18,29.6578 L 7925.05,28.637 L 7920.09,26.9552 L 7915.4,24.641 L 7911.05,21.7341 L 7907.12,18.2843
 L 7903.67,14.3504 L 7900.76,10 L 7898.44,5.30733 L 7896.76,0.352753 L 7895.74,-4.77895 L 7895.4,-10
 L 7895.74,-15.221 L 7896.76,-20.3528 L 7898.44,-25.3073 L 7900.76,-30 L 7903.67,-34.3504 L 7907.12,-38.2843
 L 7911.05,-41.7341 L 7915.4,-44.641 L 7920.09,-46.9552 L 7925.05,-48.637 L 7930.18,-49.6578 L 7935.4,-50
 L 7940.62,-49.6578 L 7945.75,-48.637 L 7950.71,-46.9552 L 7955.4,-44.641 L 7959.75,-41.7341 L 7963.68,-38.2843
 L 7967.13,-34.3504 L 7970.04,-30 L 7972.36,-25.3073 L 7974.04,-20.3528 L 7975.06,-15.221 L 7975.4,-10
 L 7975.06,-4.77895 L 7974.04,0.352753 L 7972.36,5.30733 L 7970.04,10 L 7967.13,14.3504 L 7963.68,18.2843
 L 7959.75,21.7341 L 7955.4,24.641 L 7950.71,26.9552 L 7945.75,28.637 L 7940.62,29.6578 L 7935.4,30
 z
M 8023.35,0.322754 L 8021.37,-0.276169 L 8019.55,-1.24878 L 8017.96,-2.55769 L 8016.65,-4.15262 L 8015.68,-5.97224
 L 8015.08,-7.94667 L 8014.87,-10 L 8015.08,-12.0533 L 8015.68,-14.0277 L 8016.65,-15.8474 L 8017.96,-17.4423
 L 8019.55,-18.7512 L 8021.37,-19.7238 L 8023.35,-20.3228 L 8025.4,-20.525 L 8027.45,-20.3228 L 8029.43,-19.7238
 L 8031.25,-18.7512 L 8032.84,-17.4423 L 8034.15,-15.8474 L 8035.12,-14.0277 L 8035.72,-12.0533 L 8035.92,-10
 L 8035.72,-7.94667 L 8035.12,-5.97224 L 8034.15,-4.15262 L 8032.84,-2.55769 L 8031.25,-1.24878 L 8029.43,-0.276169
 L 8027.45,0.322754 L 8025.4,0.524994 z
M 7843.35,0.322754 L 7841.37,-0.276169 L 7839.55,-1.24878 L 7837.96,-2.55769 L 7836.65,-4.15262 L 7835.68,-5.97224
 L 7835.08,-7.94667 L 7834.88,-10 L 7835.08,-12.0533 L 7835.68,-14.0277 L 7836.65,-15.8474 L 7837.96,-17.4423
 L 7839.55,-18.7512 L 7841.37,-19.7238 L 7843.35,-20.3228 L 7845.4,-20.525 L 7847.45,-20.3228 L 7849.43,-19.7238
 L 7851.25,-18.7512 L 7852.84,-17.4423 L 7854.15,-15.8474 L 7855.12,-14.0277 L 7855.72,-12.0533 L 7855.92,-10
 L 7855.72,-7.94667 L 7855.12,-5.97224 L 7854.15,-4.15262 L 7852.84,-2.55769 L 7851.25,-1.24878 L 7849.43,-0.276169
 L 7847.45,0.322754 L 7845.4,0.524994 z
M 7869.71,63.9624 L 7867.73,63.3634 L 7865.91,62.3908 L 7864.32,61.0819 L 7863.01,59.487 L 7862.04,57.6673
 L 7861.44,55.6929 L 7861.24,53.6396 L 7861.44,51.5863 L 7862.04,49.6119 L 7863.01,47.7922 L 7864.32,46.1973
 L 7865.91,44.8884 L 7867.73,43.9158 L 7869.71,43.3168 L 7871.76,43.1146 L 7873.81,43.3168 L 7875.79,43.9158
 L 7877.61,44.8884 L 7879.2,46.1973 L 7880.51,47.7922 L 7881.48,49.6119 L 7882.08,51.5863 L 7882.29,53.6396
 L 7882.08,55.6929 L 7881.48,57.6673 L 7880.51,59.487 L 7879.2,61.0819 L 7877.61,62.3908 L 7875.79,63.3634
 L 7873.81,63.9624 L 7871.76,64.1646 z
M 7996.99,63.9624 L 7995.01,63.3634 L 7993.19,62.3908 L 7991.6,61.0819 L 7990.29,59.487 L 7989.32,57.6673
 L 7988.72,55.6929 L 7988.51,53.6396 L 7988.72,51.5863 L 7989.32,49.6119 L 7990.29,47.7922 L 7991.6,46.1973
 L 7993.19,44.8884 L 7995.01,43.9158 L 7996.99,43.3168 L 7999.04,43.1146 L 8001.09,43.3168 L 8003.07,43.9158
 L 8004.89,44.8884 L 8006.48,46.1973 L 8007.79,47.7922 L 8008.76,49.6119 L 8009.36,51.5863 L 8009.56,53.6396
 L 8009.36,55.6929 L 8008.76,57.6673 L 8007.79,59.487 L 8006.48,61.0819 L 8004.89,62.3908 L 8003.07,63.3634
 L 8001.09,63.9624 L 7999.04,64.1646 z
M 7933.35,90.3228 L 7931.37,89.7238 L 7929.55,88.7512 L 7927.96,87.4423 L 7926.65,85.8474 L 7925.68,84.0277
 L 7925.08,82.0533 L 7924.88,80 L 7925.08,77.9467 L 7925.68,75.9722 L 7926.65,74.1526 L 7927.96,72.5577
 L 7929.55,71.2488 L 7931.37,70.2762 L 7933.35,69.6772 L 7935.4,69.475 L 7937.45,69.6772 L 7939.43,70.2762
 L 7941.25,71.2488 L 7942.84,72.5577 L 7944.15,74.1526 L 7945.12,75.9722 L 7945.72,77.9467 L 7945.92,80
 L 7945.72,82.0533 L 7945.12,84.0277 L 7944.15,85.8474 L 7942.84,87.4423 L 7941.25,88.7512 L 7939.43,89.7238
 L 7937.45,90.3228 L 7935.4,90.525 z
M 8028.97,92.2088 L 8027.59,91.7905 L 8026.32,91.1113 L 8025.2,90.1972 L 8024.29,89.0834 L 8023.61,87.8127
 L 8023.19,86.4339 L 8023.05,85 L 8023.19,83.5661 L 8023.61,82.1873 L 8024.29,80.9165 L 8025.2,79.8028
 L 8026.32,78.8887 L 8027.59,78.2095 L 8028.97,77.7912 L 8030.4,77.65 L 8031.83,77.7912 L 8033.21,78.2095
 L 8034.48,78.8887 L 8035.6,79.8028 L 8036.51,80.9165 L 8037.19,82.1873 L 8037.61,83.5661 L 8037.75,85
 L 8037.61,86.4339 L 8037.19,87.8127 L 8036.51,89.0834 L 8035.6,90.1972 L 8034.48,91.1113 L 8033.21,91.7905
 L 8031.83,92.2088 L 8030.4,92.35 z
M 7838.97,92.2088 L 7837.59,91.7905 L 7836.32,91.1113 L 7835.2,90.1972 L 7834.29,89.0834 L 7833.61,87.8127
 L 7833.19,86.4339 L 7833.05,85 L 7833.19,83.5661 L 7833.61,82.1873 L 7834.29,80.9165 L 7835.2,79.8028
 L 7836.32,78.8887 L 7837.59,78.2095 L 7838.97,77.7912 L 7840.4,77.65 L 7841.83,77.7912 L 7843.21,78.2095
 L 7844.48,78.8887 L 7845.6,79.8028 L 7846.51,80.9165 L 7847.19,82.1873 L 7847.61,83.5661 L 7847.75,85
 L 7847.61,86.4339 L 7847.19,87.8127 L 7846.51,89.0834 L 7845.6,90.1972 L 7844.48,91.1113 L 7843.21,91.7905
 L 7841.83,92.2088 L 7840.4,92.35 z
M 8592.48,114.781 L 8594.47,114.135 L 8596.28,113.09 L 8597.83,111.691 L 8599.06,110 L 8599.91,108.09
 L 8600.4,105 L 8600.4,-125 L 8600.18,-127.079 L 8599.54,-129.067 L 8598.49,-130.878 L 8597.09,-132.431
 L 8595.4,-133.66 L 8593.49,-134.511 L 8590.4,-135 L 8360.4,-135 L 8358.32,-134.781 L 8356.33,-134.135
 L 8354.52,-133.09 L 8352.97,-131.691 L 8351.74,-130 L 8350.89,-128.09 L 8350.4,-125 L 8350.4,105
 L 8350.62,107.079 L 8351.26,109.067 L 8352.31,110.878 L 8353.71,112.431 L 8355.4,113.66 L 8357.31,114.511
 L 8360.4,115 L 8590.4,115 z
M 8568.97,-97.7912 L 8567.59,-98.2095 L 8566.32,-98.8887 L 8565.2,-99.8028 L 8564.29,-100.917 L 8563.61,-102.187
 L 8563.19,-103.566 L 8563.05,-105 L 8563.19,-106.434 L 8563.61,-107.813 L 8564.29,-109.083 L 8565.2,-110.197
 L 8566.32,-111.111 L 8567.59,-111.791 L 8568.97,-112.209 L 8570.4,-112.35 L 8571.83,-112.209 L 8573.21,-111.791
 L 8574.48,-111.111 L 8575.6,-110.197 L 8576.51,-109.083 L 8577.19,-107.813 L 8577.61,-106.434 L 8577.75,-105
 L 8577.61,-103.566 L 8577.19,-102.187 L 8576.51,-100.917 L 8575.6,-99.8028 L 8574.48,-98.8887 L 8573.21,-98.2095
 L 8571.83,-97.7912 L 8570.4,-97.65 z
M 8378.97,-97.7912 L 8377.59,-98.2095 L 8376.32,-98.8887 L 8375.2,-99.8028 L 8374.29,-100.917 L 8373.61,-102.187
 L 8373.19,-103.566 L 8373.05,-105 L 8373.19,-106.434 L 8373.61,-107.813 L 8374.29,-109.083 L 8375.2,-110.197
 L 8376.32,-111.111 L 8377.59,-111.791 L 8378.97,-112.209 L 8380.4,-112.35 L 8381.83,-112.209 L 8383.21,-111.791
 L 8384.48,-111.111 L 8385.6,-110.197 L 8386.51,-109.083 L 8387.19,-107.813 L 8387.61,-106.434 L 8387.75,-105
 L 8387.61,-103.566 L 8387.19,-102.187 L 8386.51,-100.917 L 8385.6,-99.8028 L 8384.48,-98.8887 L 8383.21,-98.2095
 L 8381.83,-97.7912 L 8380.4,-97.65 z
M 8473.35,-89.6772 L 8471.37,-90.2762 L 8469.55,-91.2488 L 8467.96,-92.5577 L 8466.65,-94.1526 L 8465.68,-95.9722
 L 8465.08,-97.9467 L 8464.88,-100 L 8465.08,-102.053 L 8465.68,-104.028 L 8466.65,-105.847 L 8467.96,-107.442
 L 8469.55,-108.751 L 8471.37,-109.724 L 8473.35,-110.323 L 8475.4,-110.525 L 8477.45,-110.323 L 8479.43,-109.724
 L 8481.25,-108.751 L 8482.84,-107.442 L 8484.15,-105.847 L 8485.12,-104.028 L 8485.72,-102.053 L 8485.92,-100
 L 8485.72,-97.9467 L 8485.12,-95.9722 L 8484.15,-94.1526 L 8482.84,-92.5577 L 8481.25,-91.2488 L 8479.43,-90.2762
 L 8477.45,-89.6772 L 8475.4,-89.475 z
M 8536.99,-63.3168 L 8535.01,-63.9158 L 8533.19,-64.8884 L 8531.6,-66.1973 L 8530.29,-67.7922 L 8529.32,-69.6119
 L 8528.72,-71.5863 L 8528.51,-73.6396 L 8528.72,-75.6929 L 8529.32,-77.6673 L 8530.29,-79.487 L 8531.6,-81.0819
 L 8533.19,-82.3908 L 8535.01,-83.3634 L 8536.99,-83.9624 L 8539.04,-84.1646 L 8541.09,-83.9624 L 8543.07,-83.3634
 L 8544.89,-82.3908 L 8546.48,-81.0819 L 8547.79,-79.487 L 8548.76,-77.6673 L 8549.36,-75.6929 L 8549.56,-73.6396
 L 8549.36,-71.5863 L 8548.76,-69.6119 L 8547.79,-67.7922 L 8546.48,-66.1973 L 8544.89,-64.8884 L 8543.07,-63.9158
 L 8541.09,-63.3168 L 8539.04,-63.1146 z
M 8409.71,-63.3168 L 8407.73,-63.9158 L 8405.91,-64.8884 L 8404.32,-66.1973 L 8403.01,-67.7922 L 8402.04,-69.6119
 L 8401.44,-71.5863 L 8401.24,-73.6396 L 8401.44,-75.6929 L 8402.04,-77.6673 L 8403.01,-79.487 L 8404.32,-81.0819
 L 8405.91,-82.3908 L 8407.73,-83.3634 L 8409.71,-83.9624 L 8411.76,-84.1646 L 8413.81,-83.9624 L 8415.79,-83.3634
 L 8417.61,-82.3908 L 8419.2,-81.0819 L 8420.51,-79.487 L 8421.48,-77.6673 L 8422.08,-75.6929 L 8422.29,-73.6396
 L 8422.08,-71.5863 L 8421.48,-69.6119 L 8420.51,-67.7922 L 8419.2,-66.1973 L 8417.61,-64.8884 L 8415.79,-63.9158
 L 8413.81,-63.3168 L 8411.76,-63.1146 z
M 8470.18,29.6578 L 8465.05,28.637 L 8460.09,26.9552 L 8455.4,24.641 L 8451.05,21.7341 L 8447.12,18.2843
 L 8443.67,14.3504 L 8440.76,10 L 8438.44,5.30733 L 8436.76,0.352753 L 8435.74,-4.77895 L 8435.4,-10
 L 8435.74,-15.221 L 8436.76,-20.3528 L 8438.44,-25.3073 L 8440.76,-30 L 8443.67,-34.3504 L 8447.12,-38.2843
 L 8451.05,-41.7341 L 8455.4,-44.641 L 8460.09,-46.9552 L 8465.05,-48.637 L 8470.18,-49.6578 L 8475.4,-50
 L 8480.62,-49.6578 L 8485.75,-48.637 L 8490.71,-46.9552 L 8495.4,-44.641 L 8499.75,-41.7341 L 8503.68,-38.2843
 L 8507.13,-34.3504 L 8510.04,-30 L 8512.36,-25.3073 L 8514.04,-20.3528 L 8515.06,-15.221 L 8515.4,-10
 L 8515.06,-4.77895 L 8514.04,0.352753 L 8512.36,5.30733 L 8510.04,10 L 8507.13,14.3504 L 8503.68,18.2843
 L 8499.75,21.7341 L 8495.4,24.641 L 8490.71,26.9552 L 8485.75,28.637 L 8480.62,29.6578 L 8475.4,30
 z
M 8563.35,0.322754 L 8561.37,-0.276169 L 8559.55,-1.24878 L 8557.96,-2.55769 L 8556.65,-4.15262 L 8555.68,-5.97224
 L 8555.08,-7.94667 L 8554.87,-10 L 8555.08,-12.0533 L 8555.68,-14.0277 L 8556.65,-15.8474 L 8557.96,-17.4423
 L 8559.55,-18.7512 L 8561.37,-19.7238 L 8563.35,-20.3228 L 8565.4,-20.525 L 8567.45,-20.3228 L 8569.43,-19.7238
 L 8571.25,-18.7512 L 8572.84,-17.4423 L 8574.15,-15.8474 L 8575.12,-14.0277 L 8575.72,-12.0533 L 8575.92,-10
 L 8575.72,-7.94667 L 8575.12,-5.97224 L 8574.15,-4.15262 L 8572.84,-2.55769 L 8571.25,-1.24878 L 8569.43,-0.276169
 L 8567.45,0.322754 L 8565.4,0.524994 z
M 8383.35,0.322754 L 8381.37,-0.276169 L 8379.55,-1.24878 L 8377.96,-2.55769 L 8376.65,-4.15262 L 8375.68,-5.97224
 L 8375.08,-7.94667 L 8374.88,-10 L 8375.08,-12.0533 L 8375.68,-14.0277 L 8376.65,-15.8474 L 8377.96,-17.4423
 L 8379.55,-18.7512 L 8381.37,-19.7238 L 8383.35,-20.3228 L 8385.4,-20.525 L 8387.45,-20.3228 L 8389.43,-19.7238
 L 8391.25,-18.7512 L 8392.84,-17.4423 L 8394.15,-15.8474 L 8395.12,-14.0277 L 8395.72,-12.0533 L 8395.92,-10
 L 8395.72,-7.94667 L 8395.12,-5.97224 L 8394.15,-4.15262 L 8392.84,-2.55769 L 8391.25,-1.24878 L 8389.43,-0.276169
 L 8387.45,0.322754 L 8385.4,0.524994 z
M 8409.71,63.9624 L 8407.73,63.3634 L 8405.91,62.3908 L 8404.32,61.0819 L 8403.01,59.487 L 8402.04,57.6673
 L 8401.44,55.6929 L 8401.24,53.6396 L 8401.44,51.5863 L 8402.04,49.6119 L 8403.01,47.7922 L 8404.32,46.1973
 L 8405.91,44.8884 L 8407.73,43.9158 L 8409.71,43.3168 L 8411.76,43.1146 L 8413.81,43.3168 L 8415.79,43.9158
 L 8417.61,44.8884 L 8419.2,46.1973 L 8420.51,47.7922 L 8421.48,49.6119 L 8422.08,51.5863 L 8422.29,53.6396
 L 8422.08,55.6929 L 8421.48,57.6673 L 8420.51,59.487 L 8419.2,61.0819 L 8417.61,62.3908 L 8415.79,63.3634
 L 8413.81,63.9624 L 8411.76,64.1646 z
M 8536.99,63.9624 L 8535.01,63.3634 L 8533.19,62.3908 L 8531.6,61.0819 L 8530.29,59.487 L 8529.32,57.6673
 L 8528.72,55.6929 L 8528.51,53.6396 L 8528.72,51.5863 L 8529.32,49.6119 L 8530.29,47.7922 L 8531.6,46.1973
 L 8533.19,44.8884 L 8535.01,43.9158 L 8536.99,43.3168 L 8539.04,43.1146 L 8541.09,43.3168 L 8543.07,43.9158
 L 8544.89,44.8884 L 8546.48,46.1973 L 8547.79,47.7922 L 8548.76,49.6119 L 8549.36,51.5863 L 8549.56,53.6396
 L 8549.36,55.6929 L 8548.76,57.6673 L 8547.79,59.487 L 8546.48,61.0819 L 8544.89,62.3908 L 8543.07,63.3634
 L 8541.09,63.9624 L 8539.04,64.1646 z
M 8473.35,90.3228 L 8471.37,89.7238 L 8469.55,88.7512 L 8467.96,87.4423 L 8466.65,85.8474 L 8465.68,84.0277
 L 8465.08,82.0533 L 8464.88,80 L 8465.08,77.9467 L 8465.68,75.9722 L 8466.65,74.1526 L 8467.96,72.5577
 L 8469.55,71.2488 L 8471.37,70.2762 L 8473.35,69.6772 L 8475.4,69.475 L 8477.45,69.6772 L 8479.43,70.2762
 L 8481.25,71.2488 L 8482.84,72.5577 L 8484.15,74.1526 L 8485.12,75.9722 L 8485.72,77.9467 L 8485.92,80
 L 8485.72,82.0533 L 8485.12,84.0277 L 8484.15,85.8474 L 8482.84,87.4423 L 8481.25,88.7512 L 8479.43,89.7238
 L 8477.45,90.3228 L 8475.4,90.525 z
M 8568.97,92.2088 L 8567.59,91.7905 L 8566.32,91.1113 L 8565.2,90.1972 L 8564.29,89.0834 L 8563.61,87.8127
 L 8563.19,86.4339 L 8563.05,85 L 8563.19,83.5661 L 8563.61,82.1873 L 8564.29,80.9165 L 8565.2,79.8028
 L 8566.32,78.8887 L 8567.59,78.2095 L 8568.97,77.7912 L 8570.4,77.65 L 8571.83,77.7912 L 8573.21,78.2095
 L 8574.48,78.8887 L 8575.6,79.8028 L 8576.51,80.9165 L 8577.19,82.1873 L 8577.61,83.5661 L 8577.75,85
 L 8577.61,86.4339 L 8577.19,87.8127 L 8576.51,89.0834 L 8575.6,90.1972 L 8574.48,91.1113 L 8573.21,91.7905
 L 8571.83,92.2088 L 8570.4,92.35 z
M 8378.97,92.2088 L 8377.59,91.7905 L 8376.32,91.1113 L 8375.2,90.1972 L 8374.29,89.0834 L 8373.61,87.8127
 L 8373.19,86.4339 L 8373.05,85 L 8373.19,83.5661 L 8373.61,82.1873 L 8374.29,80.9165 L 8375.2,79.8028
 L 8376.32,78.8887 L 8377.59,78.2095 L 8378.97,77.7912 L 8380.4,77.65 L 8381.83,77.7912 L 8383.21,78.2095
 L 8384.48,78.8887 L 8385.6,79.8028 L 8386.51,80.9165 L 8387.19,82.1873 L 8387.61,83.5661 L 8387.75,85
 L 8387.61,86.4339 L 8387.19,87.8127 L 8386.51,89.0834 L 8385.6,90.1972 L 8384.48,91.1113 L 8383.21,91.7905
 L 8381.83,92.2088 L 8380.4,92.35 z
M 8322.48,114.781 L 8324.47,114.135 L 8326.28,113.09 L 8327.83,111.691 L 8329.06,110 L 8329.91,108.09
 L 8330.4,105 L 8330.4,-125 L 8330.18,-127.079 L 8329.54,-129.067 L 8328.49,-130.878 L 8327.09,-132.431
 L 8325.4,-133.66 L 8323.49,-134.511 L 8320.4,-135 L 8090.4,-135 L 8088.32,-134.781 L 8086.33,-134.135
 L 8084.52,-133.09 L 8082.97,-131.691 L 8081.74,-130 L 8080.89,-128.09 L 8080.4,-125 L 8080.4,105
 L 8080.62,107.079 L 8081.26,109.067 L 8082.31,110.878 L 8083.71,112.431 L 8085.4,113.66 L 8087.31,114.511
 L 8090.4,115 L 8320.4,115 z
M 8298.97,-97.7912 L 8297.59,-98.2095 L 8296.32,-98.8887 L 8295.2,-99.8028 L 8294.29,-100.917 L 8293.61,-102.187
 L 8293.19,-103.566 L 8293.05,-105 L 8293.19,-106.434 L 8293.61,-107.813 L 8294.29,-109.083 L 8295.2,-110.197
 L 8296.32,-111.111 L 8297.59,-111.791 L 8298.97,-112.209 L 8300.4,-112.35 L 8301.83,-112.209 L 8303.21,-111.791
 L 8304.48,-111.111 L 8305.6,-110.197 L 8306.51,-109.083 L 8307.19,-107.813 L 8307.61,-106.434 L 8307.75,-105
 L 8307.61,-103.566 L 8307.19,-102.187 L 8306.51,-100.917 L 8305.6,-99.8028 L 8304.48,-98.8887 L 8303.21,-98.2095
 L 8301.83,-97.7912 L 8300.4,-97.65 z
M 8108.97,-97.7912 L 8107.59,-98.2095 L 8106.32,-98.8887 L 8105.2,-99.8028 L 8104.29,-100.917 L 8103.61,-102.187
 L 8103.19,-103.566 L 8103.05,-105 L 8103.19,-106.434 L 8103.61,-107.813 L 8104.29,-109.083 L 8105.2,-110.197
 L 8106.32,-111.111 L 8107.59,-111.791 L 8108.97,-112.209 L 8110.4,-112.35 L 8111.83,-112.209 L 8113.21,-111.791
 L 8114.48,-111.111 L 8115.6,-110.197 L 8116.51,-109.083 L 8117.19,-107.813 L 8117.61,-106.434 L 8117.75,-105
 L 8117.61,-103.566 L 8117.19,-102.187 L 8116.51,-100.917 L 8115.6,-99.8028 L 8114.48,-98.8887 L 8113.21,-98.2095
 L 8111.83,-97.7912 L 8110.4,-97.65 z
M 8203.35,-89.6772 L 8201.37,-90.2762 L 8199.55,-91.2488 L 8197.96,-92.5577 L 8196.65,-94.1526 L 8195.68,-95.9722
 L 8195.08,-97.9467 L 8194.88,-100 L 8195.08,-102.053 L 8195.68,-104.028 L 8196.65,-105.847 L 8197.96,-107.442
 L 8199.55,-108.751 L 8201.37,-109.724 L 8203.35,-110.323 L 8205.4,-110.525 L 8207.45,-110.323 L 8209.43,-109.724
 L 8211.25,-108.751 L 8212.84,-107.442 L 8214.15,-105.847 L 8215.12,-104.028 L 8215.72,-102.053 L 8215.92,-100
 L 8215.72,-97.9467 L 8215.12,-95.9722 L 8214.15,-94.1526 L 8212.84,-92.5577 L 8211.25,-91.2488 L 8209.43,-90.2762
 L 8207.45,-89.6772 L 8205.4,-89.475 z
M 8139.71,-63.3168 L 8137.73,-63.9158 L 8135.91,-64.8884 L 8134.32,-66.1973 L 8133.01,-67.7922 L 8132.04,-69.6119
 L 8131.44,-71.5863 L 8131.24,-73.6396 L 8131.44,-75.6929 L 8132.04,-77.6673 L 8133.01,-79.487 L 8134.32,-81.0819
 L 8135.91,-82.3908 L 8137.73,-83.3634 L 8139.71,-83.9624 L 8141.76,-84.1646 L 8143.81,-83.9624 L 8145.79,-83.3634
 L 8147.61,-82.3908 L 8149.2,-81.0819 L 8150.51,-79.487 L 8151.48,-77.6673 L 8152.08,-75.6929 L 8152.29,-73.6396
 L 8152.08,-71.5863 L 8151.48,-69.6119 L 8150.51,-67.7922 L 8149.2,-66.1973 L 8147.61,-64.8884 L 8145.79,-63.9158
 L 8143.81,-63.3168 L 8141.76,-63.1146 z
M 8266.99,-63.3168 L 8265.01,-63.9158 L 8263.19,-64.8884 L 8261.6,-66.1973 L 8260.29,-67.7922 L 8259.32,-69.6119
 L 8258.72,-71.5863 L 8258.51,-73.6396 L 8258.72,-75.6929 L 8259.32,-77.6673 L 8260.29,-79.487 L 8261.6,-81.0819
 L 8263.19,-82.3908 L 8265.01,-83.3634 L 8266.99,-83.9624 L 8269.04,-84.1646 L 8271.09,-83.9624 L 8273.07,-83.3634
 L 8274.89,-82.3908 L 8276.48,-81.0819 L 8277.79,-79.487 L 8278.76,-77.6673 L 8279.36,-75.6929 L 8279.56,-73.6396
 L 8279.36,-71.5863 L 8278.76,-69.6119 L 8277.79,-67.7922 L 8276.48,-66.1973 L 8274.89,-64.8884 L 8273.07,-63.9158
 L 8271.09,-63.3168 L 8269.04,-63.1146 z
M 8200.18,29.6578 L 8195.05,28.637 L 8190.09,26.9552 L 8185.4,24.641 L 8181.05,21.7341 L 8177.12,18.2843
 L 8173.67,14.3504 L 8170.76,10 L 8168.44,5.30733 L 8166.76,0.352753 L 8165.74,-4.77895 L 8165.4,-10
 L 8165.74,-15.221 L 8166.76,-20.3528 L 8168.44,-25.3073 L 8170.76,-30 L 8173.67,-34.3504 L 8177.12,-38.2843
 L 8181.05,-41.7341 L 8185.4,-44.641 L 8190.09,-46.9552 L 8195.05,-48.637 L 8200.18,-49.6578 L 8205.4,-50
 L 8210.62,-49.6578 L 8215.75,-48.637 L 8220.71,-46.9552 L 8225.4,-44.641 L 8229.75,-41.7341 L 8233.68,-38.2843
 L 8237.13,-34.3504 L 8240.04,-30 L 8242.36,-25.3073 L 8244.04,-20.3528 L 8245.06,-15.221 L 8245.4,-10
 L 8245.06,-4.77895 L 8244.04,0.352753 L 8242.36,5.30733 L 8240.04,10 L 8237.13,14.3504 L 8233.68,18.2843
 L 8229.75,21.7341 L 8225.4,24.641 L 8220.71,26.9552 L 8215.75,28.637 L 8210.62,29.6578 L 8205.4,30
 z
M 8113.35,0.322754 L 8111.37,-0.276169 L 8109.55,-1.24878 L 8107.96,-2.55769 L 8106.65,-4.15262 L 8105.68,-5.97224
 L 8105.08,-7.94667 L 8104.88,-10 L 8105.08,-12.0533 L 8105.68,-14.0277 L 8106.65,-15.8474 L 8107.96,-17.4423
 L 8109.55,-18.7512 L 8111.37,-19.7238 L 8113.35,-20.3228 L 8115.4,-20.525 L 8117.45,-20.3228 L 8119.43,-19.7238
 L 8121.25,-18.7512 L 8122.84,-17.4423 L 8124.15,-15.8474 L 8125.12,-14.0277 L 8125.72,-12.0533 L 8125.92,-10
 L 8125.72,-7.94667 L 8125.12,-5.97224 L 8124.15,-4.15262 L 8122.84,-2.55769 L 8121.25,-1.24878 L 8119.43,-0.276169
 L 8117.45,0.322754 L 8115.4,0.524994 z
M 8293.35,0.322754 L 8291.37,-0.276169 L 8289.55,-1.24878 L 8287.96,-2.55769 L 8286.65,-4.15262 L 8285.68,-5.97224
 L 8285.08,-7.94667 L 8284.87,-10 L 8285.08,-12.0533 L 8285.68,-14.0277 L 8286.65,-15.8474 L 8287.96,-17.4423
 L 8289.55,-18.7512 L 8291.37,-19.7238 L 8293.35,-20.3228 L 8295.4,-20.525 L 8297.45,-20.3228 L 8299.43,-19.7238
 L 8301.25,-18.7512 L 8302.84,-17.4423 L 8304.15,-15.8474 L 8305.12,-14.0277 L 8305.72,-12.0533 L 8305.92,-10
 L 8305.72,-7.94667 L 8305.12,-5.97224 L 8304.15,-4.15262 L 8302.84,-2.55769 L 8301.25,-1.24878 L 8299.43,-0.276169
 L 8297.45,0.322754 L 8295.4,0.524994 z
M 8139.71,63.9624 L 8137.73,63.3634 L 8135.91,62.3908 L 8134.32,61.0819 L 8133.01,59.487 L 8132.04,57.6673
 L 8131.44,55.6929 L 8131.24,53.6396 L 8131.44,51.5863 L 8132.04,49.6119 L 8133.01,47.7922 L 8134.32,46.1973
 L 8135.91,44.8884 L 8137.73,43.9158 L 8139.71,43.3168 L 8141.76,43.1146 L 8143.81,43.3168 L 8145.79,43.9158
 L 8147.61,44.8884 L 8149.2,46.1973 L 8150.51,47.7922 L 8151.48,49.6119 L 8152.08,51.5863 L 8152.29,53.6396
 L 8152.08,55.6929 L 8151.48,57.6673 L 8150.51,59.487 L 8149.2,61.0819 L 8147.61,62.3908 L 8145.79,63.3634
 L 8143.81,63.9624 L 8141.76,64.1646 z
M 8266.99,63.9624 L 8265.01,63.3634 L 8263.19,62.3908 L 8261.6,61.0819 L 8260.29,59.487 L 8259.32,57.6673
 L 8258.72,55.6929 L 8258.51,53.6396 L 8258.72,51.5863 L 8259.32,49.6119 L 8260.29,47.7922 L 8261.6,46.1973
 L 8263.19,44.8884 L 8265.01,43.9158 L 8266.99,43.3168 L 8269.04,43.1146 L 8271.09,43.3168 L 8273.07,43.9158
 L 8274.89,44.8884 L 8276.48,46.1973 L 8277.79,47.7922 L 8278.76,49.6119 L 8279.36,51.5863 L 8279.56,53.6396
 L 8279.36,55.6929 L 8278.76,57.6673 L 8277.79,59.487 L 8276.48,61.0819 L 8274.89,62.3908 L 8273.07,63.3634
 L 8271.09,63.9624 L 8269.04,64.1646 z
M 8203.35,90.3228 L 8201.37,89.7238 L 8199.55,88.7512 L 8197.96,87.4423 L 8196.65,85.8474 L 8195.68,84.0277
 L 8195.08,82.0533 L 8194.88,80 L 8195.08,77.9467 L 8195.68,75.9722 L 8196.65,74.1526 L 8197.96,72.5577
 L 8199.55,71.2488 L 8201.37,70.2762 L 8203.35,69.6772 L 8205.4,69.475 L 8207.45,69.6772 L 8209.43,70.2762
 L 8211.25,71.2488 L 8212.84,72.5577 L 8214.15,74.1526 L 8215.12,75.9722 L 8215.72,77.9467 L 8215.92,80
 L 8215.72,82.0533 L 8215.12,84.0277 L 8214.15,85.8474 L 8212.84,87.4423 L 8211.25,88.7512 L 8209.43,89.7238
 L 8207.45,90.3228 L 8205.4,90.525 z
M 8108.97,92.2088 L 8107.59,91.7905 L 8106.32,91.1113 L 8105.2,90.1972 L 8104.29,89.0834 L 8103.61,87.8127
 L 8103.19,86.4339 L 8103.05,85 L 8103.19,83.5661 L 8103.61,82.1873 L 8104.29,80.9165 L 8105.2,79.8028
 L 8106.32,78.8887 L 8107.59,78.2095 L 8108.97,77.7912 L 8110.4,77.65 L 8111.83,77.7912 L 8113.21,78.2095
 L 8114.48,78.8887 L 8115.6,79.8028 L 8116.51,80.9165 L 8117.19,82.1873 L 8117.61,83.5661 L 8117.75,85
 L 8117.61,86.4339 L 8117.19,87.8127 L 8116.51,89.0834 L 8115.6,90.1972 L 8114.48,91.1113 L 8113.21,91.7905
 L 8111.83,92.2088 L 8110.4,92.35 z
M 8298.97,92.2088 L 8297.59,91.7905 L 8296.32,91.1113 L 8295.2,90.1972 L 8294.29,89.0834 L 8293.61,87.8127
 L 8293.19,86.4339 L 8293.05,85 L 8293.19,83.5661 L 8293.61,82.1873 L 8294.29,80.9165 L 8295.2,79.8028
 L 8296.32,78.8887 L 8297.59,78.2095 L 8298.97,77.7912 L 8300.4,77.65 L 8301.83,77.7912 L 8303.21,78.2095
 L 8304.48,78.8887 L 8305.6,79.8028 L 8306.51,80.9165 L 8307.19,82.1873 L 8307.61,83.5661 L 8307.75,85
 L 8307.61,86.4339 L 8307.19,87.8127 L 8306.51,89.0834 L 8305.6,90.1972 L 8304.48,91.1113 L 8303.21,91.7905
 L 8301.83,92.2088 L 8300.4,92.35 z
M 8862.48,114.781 L 8864.47,114.135 L 8866.28,113.09 L 8867.83,111.691 L 8869.06,110 L 8869.91,108.09
 L 8870.4,105 L 8870.4,-125 L 8870.18,-127.079 L 8869.54,-129.067 L 8868.49,-130.878 L 8867.09,-132.431
 L 8865.4,-133.66 L 8863.49,-134.511 L 8860.4,-135 L 8630.4,-135 L 8628.32,-134.781 L 8626.33,-134.135
 L 8624.52,-133.09 L 8622.97,-131.691 L 8621.74,-130 L 8620.89,-128.09 L 8620.4,-125 L 8620.4,105
 L 8620.62,107.079 L 8621.26,109.067 L 8622.31,110.878 L 8623.71,112.431 L 8625.4,113.66 L 8627.31,114.511
 L 8630.4,115 L 8860.4,115 z
M 8648.97,-97.7912 L 8647.59,-98.2095 L 8646.32,-98.8887 L 8645.2,-99.8028 L 8644.29,-100.917 L 8643.61,-102.187
 L 8643.19,-103.566 L 8643.05,-105 L 8643.19,-106.434 L 8643.61,-107.813 L 8644.29,-109.083 L 8645.2,-110.197
 L 8646.32,-111.111 L 8647.59,-111.791 L 8648.97,-112.209 L 8650.4,-112.35 L 8651.83,-112.209 L 8653.21,-111.791
 L 8654.48,-111.111 L 8655.6,-110.197 L 8656.51,-109.083 L 8657.19,-107.813 L 8657.61,-106.434 L 8657.75,-105
 L 8657.61,-103.566 L 8657.19,-102.187 L 8656.51,-100.917 L 8655.6,-99.8028 L 8654.48,-98.8887 L 8653.21,-98.2095
 L 8651.83,-97.7912 L 8650.4,-97.65 z
M 8838.97,-97.7912 L 8837.59,-98.2095 L 8836.32,-98.8887 L 8835.2,-99.8028 L 8834.29,-100.917 L 8833.61,-102.187
 L 8833.19,-103.566 L 8833.05,-105 L 8833.19,-106.434 L 8833.61,-107.813 L 8834.29,-109.083 L 8835.2,-110.197
 L 8836.32,-111.111 L 8837.59,-111.791 L 8838.97,-112.209 L 8840.4,-112.35 L 8841.83,-112.209 L 8843.21,-111.791
 L 8844.48,-111.111 L 8845.6,-110.197 L 8846.51,-109.083 L 8847.19,-107.813 L 8847.61,-106.434 L 8847.75,-105
 L 8847.61,-103.566 L 8847.19,-102.187 L 8846.51,-100.917 L 8845.6,-99.8028 L 8844.48,-98.8887 L 8843.21,-98.2095
 L 8841.83,-97.7912 L 8840.4,-97.65 z
M 8743.35,-89.6772 L 8741.37,-90.2762 L 8739.55,-91.2488 L 8737.96,-92.5577 L 8736.65,-94.1526 L 8735.68,-95.9722
 L 8735.08,-97.9467 L 8734.88,-100 L 8735.08,-102.053 L 8735.68,-104.028 L 8736.65,-105.847 L 8737.96,-107.442
 L 8739.55,-108.751 L 8741.37,-109.724 L 8743.35,-110.323 L 8745.4,-110.525 L 8747.45,-110.323 L 8749.43,-109.724
 L 8751.25,-108.751 L 8752.84,-107.442 L 8754.15,-105.847 L 8755.12,-104.028 L 8755.72,-102.053 L 8755.92,-100
 L 8755.72,-97.9467 L 8755.12,-95.9722 L 8754.15,-94.1526 L 8752.84,-92.5577 L 8751.25,-91.2488 L 8749.43,-90.2762
 L 8747.45,-89.6772 L 8745.4,-89.475 z
M 8679.71,-63.3168 L 8677.73,-63.9158 L 8675.91,-64.8884 L 8674.32,-66.1973 L 8673.01,-67.7922 L 8672.04,-69.6119
 L 8671.44,-71.5863 L 8671.24,-73.6396 L 8671.44,-75.6929 L 8672.04,-77.6673 L 8673.01,-79.487 L 8674.32,-81.0819
 L 8675.91,-82.3908 L 8677.73,-83.3634 L 8679.71,-83.9624 L 8681.76,-84.1646 L 8683.81,-83.9624 L 8685.79,-83.3634
 L 8687.61,-82.3908 L 8689.2,-81.0819 L 8690.51,-79.487 L 8691.48,-77.6673 L 8692.08,-75.6929 L 8692.29,-73.6396
 L 8692.08,-71.5863 L 8691.48,-69.6119 L 8690.51,-67.7922 L 8689.2,-66.1973 L 8687.61,-64.8884 L 8685.79,-63.9158
 L 8683.81,-63.3168 L 8681.76,-63.1146 z
M 8806.99,-63.3168 L 8805.01,-63.9158 L 8803.19,-64.8884 L 8801.6,-66.1973 L 8800.29,-67.7922 L 8799.32,-69.6119
 L 8798.72,-71.5863 L 8798.51,-73.6396 L 8798.72,-75.6929 L 8799.32,-77.6673 L 8800.29,-79.487 L 8801.6,-81.0819
 L 8803.19,-82.3908 L 8805.01,-83.3634 L 8806.99,-83.9624 L 8809.04,-84.1646 L 8811.09,-83.9624 L 8813.07,-83.3634
 L 8814.89,-82.3908 L 8816.48,-81.0819 L 8817.79,-79.487 L 8818.76,-77.6673 L 8819.36,-75.6929 L 8819.56,-73.6396
 L 8819.36,-71.5863 L 8818.76,-69.6119 L 8817.79,-67.7922 L 8816.48,-66.1973 L 8814.89,-64.8884 L 8813.07,-63.9158
 L 8811.09,-63.3168 L 8809.04,-63.1146 z
M 8740.18,29.6578 L 8735.05,28.637 L 8730.09,26.9552 L 8725.4,24.641 L 8721.05,21.7341 L 8717.12,18.2843
 L 8713.67,14.3504 L 8710.76,10 L 8708.44,5.30733 L 8706.76,0.352753 L 8705.74,-4.77895 L 8705.4,-10
 L 8705.74,-15.221 L 8706.76,-20.3528 L 8708.44,-25.3073 L 8710.76,-30 L 8713.67,-34.3504 L 8717.12,-38.2843
 L 8721.05,-41.7341 L 8725.4,-44.641 L 8730.09,-46.9552 L 8735.05,-48.637 L 8740.18,-49.6578 L 8745.4,-50
 L 8750.62,-49.6578 L 8755.75,-48.637 L 8760.71,-46.9552 L 8765.4,-44.641 L 8769.75,-41.7341 L 8773.68,-38.2843
 L 8777.13,-34.3504 L 8780.04,-30 L 8782.36,-25.3073 L 8784.04,-20.3528 L 8785.06,-15.221 L 8785.4,-10
 L 8785.06,-4.77895 L 8784.04,0.352753 L 8782.36,5.30733 L 8780.04,10 L 8777.13,14.3504 L 8773.68,18.2843
 L 8769.75,21.7341 L 8765.4,24.641 L 8760.71,26.9552 L 8755.75,28.637 L 8750.62,29.6578 L 8745.4,30
 z
M 8833.35,0.322754 L 8831.37,-0.276169 L 8829.55,-1.24878 L 8827.96,-2.55769 L 8826.65,-4.15262 L 8825.68,-5.97224
 L 8825.08,-7.94667 L 8824.87,-10 L 8825.08,-12.0533 L 8825.68,-14.0277 L 8826.65,-15.8474 L 8827.96,-17.4423
 L 8829.55,-18.7512 L 8831.37,-19.7238 L 8833.35,-20.3228 L 8835.4,-20.525 L 8837.45,-20.3228 L 8839.43,-19.7238
 L 8841.25,-18.7512 L 8842.84,-17.4423 L 8844.15,-15.8474 L 8845.12,-14.0277 L 8845.72,-12.0533 L 8845.92,-10
 L 8845.72,-7.94667 L 8845.12,-5.97224 L 8844.15,-4.15262 L 8842.84,-2.55769 L 8841.25,-1.24878 L 8839.43,-0.276169
 L 8837.45,0.322754 L 8835.4,0.524994 z
M 8653.35,0.322754 L 8651.37,-0.276169 L 8649.55,-1.24878 L 8647.96,-2.55769 L 8646.65,-4.15262 L 8645.68,-5.97224
 L 8645.08,-7.94667 L 8644.88,-10 L 8645.08,-12.0533 L 8645.68,-14.0277 L 8646.65,-15.8474 L 8647.96,-17.4423
 L 8649.55,-18.7512 L 8651.37,-19.7238 L 8653.35,-20.3228 L 8655.4,-20.525 L 8657.45,-20.3228 L 8659.43,-19.7238
 L 8661.25,-18.7512 L 8662.84,-17.4423 L 8664.15,-15.8474 L 8665.12,-14.0277 L 8665.72,-12.0533 L 8665.92,-10
 L 8665.72,-7.94667 L 8665.12,-5.97224 L 8664.15,-4.15262 L 8662.84,-2.55769 L 8661.25,-1.24878 L 8659.43,-0.276169
 L 8657.45,0.322754 L 8655.4,0.524994 z
M 8679.71,63.9624 L 8677.73,63.3634 L 8675.91,62.3908 L 8674.32,61.0819 L 8673.01,59.487 L 8672.04,57.6673
 L 8671.44,55.6929 L 8671.24,53.6396 L 8671.44,51.5863 L 8672.04,49.6119 L 8673.01,47.7922 L 8674.32,46.1973
 L 8675.91,44.8884 L 8677.73,43.9158 L 8679.71,43.3168 L 8681.76,43.1146 L 8683.81,43.3168 L 8685.79,43.9158
 L 8687.61,44.8884 L 8689.2,46.1973 L 8690.51,47.7922 L 8691.48,49.6119 L 8692.08,51.5863 L 8692.29,53.6396
 L 8692.08,55.6929 L 8691.48,57.6673 L 8690.51,59.487 L 8689.2,61.0819 L 8687.61,62.3908 L 8685.79,63.3634
 L 8683.81,63.9624 L 8681.76,64.1646 z
M 8806.99,63.9624 L 8805.01,63.3634 L 8803.19,62.3908 L 8801.6,61.0819 L 8800.29,59.487 L 8799.32,57.6673
 L 8798.72,55.6929 L 8798.51,53.6396 L 8798.72,51.5863 L 8799.32,49.6119 L 8800.29,47.7922 L 8801.6,46.1973
 L 8803.19,44.8884 L 8805.01,43.9158 L 8806.99,43.3168 L 8809.04,43.1146 L 8811.09,43.3168 L 8813.07,43.9158
 L 8814.89,44.8884 L 8816.48,46.1973 L 8817.79,47.7922 L 8818.76,49.6119 L 8819.36,51.5863 L 8819.56,53.6396
 L 8819.36,55.6929 L 8818.76,57.6673 L 8817.79,59.487 L 8816.48,61.0819 L 8814.89,62.3908 L 8813.07,63.3634
 L 8811.09,63.9624 L 8809.04,64.1646 z
M 8743.35,90.3228 L 8741.37,89.7238 L 8739.55,88.7512 L 8737.96,87.4423 L 8736.65,85.8474 L 8735.68,84.0277
 L 8735.08,82.0533 L 8734.88,80 L 8735.08,77.9467 L 8735.68,75.9722 L 8736.65,74.1526 L 8737.96,72.5577
 L 8739.55,71.2488 L 8741.37,70.2762 L 8743.35,69.6772 L 8745.4,69.475 L 8747.45,69.6772 L 8749.43,70.2762
 L 8751.25,71.2488 L 8752.84,72.5577 L 8754.15,74.1526 L 8755.12,75.9722 L 8755.72,77.9467 L 8755.92,80
 L 8755.72,82.0533 L 8755.12,84.0277 L 8754.15,85.8474 L 8752.84,87.4423 L 8751.25,88.7512 L 8749.43,89.7238
 L 8747.45,90.3228 L 8745.4,90.525 z
M 8648.97,92.2088 L 8647.59,91.7905 L 8646.32,91.1113 L 8645.2,90.1972 L 8644.29,89.0834 L 8643.61,87.8127
 L 8643.19,86.4339 L 8643.05,85 L 8643.19,83.5661 L 8643.61,82.1873 L 8644.29,80.9165 L 8645.2,79.8028
 L 8646.32,78.8887 L 8647.59,78.2095 L 8648.97,77.7912 L 8650.4,77.65 L 8651.83,77.7912 L 8653.21,78.2095
 L 8654.48,78.8887 L 8655.6,79.8028 L 8656.51,80.9165 L 8657.19,82.1873 L 8657.61,83.5661 L 8657.75,85
 L 8657.61,86.4339 L 8657.19,87.8127 L 8656.51,89.0834 L 8655.6,90.1972 L 8654.48,91.1113 L 8653.21,91.7905
 L 8651.83,92.2088 L 8650.4,92.35 z
M 8838.97,92.2088 L 8837.59,91.7905 L 8836.32,91.1113 L 8835.2,90.1972 L 8834.29,89.0834 L 8833.61,87.8127
 L 8833.19,86.4339 L 8833.05,85 L 8833.19,83.5661 L 8833.61,82.1873 L 8834.29,80.9165 L 8835.2,79.8028
 L 8836.32,78.8887 L 8837.59,78.2095 L 8838.97,77.7912 L 8840.4,77.65 L 8841.83,77.7912 L 8843.21,78.2095
 L 8844.48,78.8887 L 8845.6,79.8028 L 8846.51,80.9165 L 8847.19,82.1873 L 8847.61,83.5661 L 8847.75,85
 L 8847.61,86.4339 L 8847.19,87.8127 L 8846.51,89.0834 L 8845.6,90.1972 L 8844.48,91.1113 L 8843.21,91.7905
 L 8841.83,92.2088 L 8840.4,92.35 z
" stroke="black" fill="lightgray" stroke-width="0.5"/>
</svg>
