<?xml version="1.0" standalone="no"?>
<!DOCTYPE svg PUBLIC "-//W3C//DTD SVG 1.1//EN" "http://www.w3.org/Graphics/SVG/1.1/DTD/svg11.dtd">
<svg width="10753mm" height="1700mm" viewBox="-990 -1410 10753 1700" xmlns="http://www.w3.org/2000/svg" version="1.1">
<title>OpenSCAD Model</title>
<path d="
M -200.323,-12.0533 L -199.724,-14.0277 L -198.751,-15.8474 L -197.442,-17.4423 L -195.847,-18.7512 L -194.028,-19.7238
 L -192.053,-20.3228 L -190,-20.525 L -187.947,-20.3228 L -185.972,-19.7238 L -184.153,-18.7512 L -182.558,-17.4423
 L -181.249,-15.8474 L -180.276,-14.0277 L -179.677,-12.0533 L -179.475,-10 L 0,-10 L 2.07912,-10.2185
 L 4.06737,-10.8645 L 5.87785,-11.9098 L 7.43144,-13.3087 L 8.66025,-15 L 9.51056,-16.9098 L 10,-20
 L 10,-1400 L 9.78148,-1402.08 L 9.13545,-1404.07 L 8.09016,-1405.88 L 6.6913,-1407.43 L 5,-1408.66
 L 3.09016,-1409.51 L 0,-1410 L -179.475,-1410 L -179.677,-1407.95 L -180.276,-1405.97 L -181.249,-1404.15
 L -182.558,-1402.56 L -184.153,-1401.25 L -185.972,-1400.28 L -187.947,-1399.68 L -190,-1399.47 L -192.053,-1399.68
 L -194.028,-1400.28 L -195.847,-1401.25 L -197.442,-1402.56 L -198.751,-1404.15 L -199.724,-1405.97 L -200.323,-1407.95
 L -200.525,-1410 L -632.5,-1410 L -634.579,-1409.78 L -636.567,-1409.14 L -638.378,-1408.09 L -639.931,-1406.69
 L -641.16,-1405 L -642.1,-1402.8 L -989.6,-211.371 L -990,-208.571 L -990,-20 L -989.781,-17.9209
 L -989.135,-15.9326 L -988.09,-14.1221 L -986.691,-12.5686 L -985,-11.3398 L -983.09,-10.4894 L -980,-10
 L -200.525,-10 z
M -322.673,-232.094 L -325.243,-232.874 L -327.611,-234.14 L -329.687,-235.843 L -331.391,-237.919 L -332.657,-240.288
 L -333.437,-242.858 L -333.7,-245.531 L -333.437,-248.203 L -332.657,-250.773 L -331.391,-253.142 L -329.687,-255.218
 L -327.611,-256.922 L -325.243,-258.188 L -322.673,-258.967 L -320,-259.231 L -317.327,-258.967 L -314.757,-258.188
 L -312.389,-256.922 L -310.313,-255.218 L -308.609,-253.142 L -307.343,-250.773 L -306.563,-248.203 L -306.3,-245.531
 L -306.563,-242.858 L -307.343,-240.288 L -308.609,-237.919 L -310.313,-235.843 L -312.389,-234.14 L -314.757,-232.874
 L -317.327,-232.094 L -320,-231.831 z
M -942.617,-190.122 L -945.189,-190.633 L -947.673,-191.476 L -950.025,-192.636 L -952.206,-194.093 L -954.177,-195.822
 L -955.907,-197.794 L -957.364,-199.975 L -958.524,-202.327 L -959.367,-204.811 L -959.878,-207.383 L -960.05,-210
 L -959.878,-212.617 L -959.367,-215.189 L -958.524,-217.673 L -957.364,-220.025 L -955.907,-222.206 L -954.177,-224.177
 L -952.206,-225.907 L -950.025,-227.364 L -947.673,-228.524 L -945.189,-229.367 L -942.617,-229.878 L -940,-230.05
 L -937.383,-229.878 L -934.811,-229.367 L -932.327,-228.524 L -929.975,-227.364 L -927.794,-225.907 L -925.822,-224.177
 L -924.093,-222.206 L -922.636,-220.025 L -921.476,-217.673 L -920.633,-215.189 L -920.122,-212.617 L -919.95,-210
 L -920.122,-207.383 L -920.633,-204.811 L -921.476,-202.327 L -922.636,-199.975 L -924.093,-197.794 L -925.822,-195.822
 L -927.794,-194.093 L -929.975,-192.636 L -932.327,-191.476 L -934.811,-190.633 L -937.383,-190.122 L -940,-189.95
 z
M 2875.88,-12.0533 L 2876.48,-14.0277 L 2877.45,-15.8474 L 2878.76,-17.4423 L 2880.35,-18.7512 L 2882.17,-19.7238
 L 2884.15,-20.3228 L 2886.2,-20.525 L 2888.25,-20.3228 L 2890.23,-19.7238 L 2892.05,-18.7512 L 2893.64,-17.4423
 L 2894.95,-15.8474 L 2895.92,-14.0277 L 2896.52,-12.0533 L 2896.72,-10 L 3076.2,-10 L 3078.28,-10.2185
 L 3080.27,-10.8645 L 3082.08,-11.9098 L 3083.63,-13.3087 L 3084.86,-15 L 3085.71,-16.9098 L 3086.2,-20
 L 3086.2,-1400 L 3085.98,-1402.08 L 3085.34,-1404.07 L 3084.29,-1405.88 L 3082.89,-1407.43 L 3081.2,-1408.66
 L 3079.29,-1409.51 L 3076.2,-1410 L 2896.72,-1410 L 2896.52,-1407.95 L 2895.92,-1405.97 L 2894.95,-1404.15
 L 2893.64,-1402.56 L 2892.05,-1401.25 L 2890.23,-1400.28 L 2888.25,-1399.68 L 2886.2,-1399.47 L 2884.15,-1399.68
 L 2882.17,-1400.28 L 2880.35,-1401.25 L 2878.76,-1402.56 L 2877.45,-1404.15 L 2876.48,-1405.97 L 2875.88,-1407.95
 L 2875.67,-1410 L 2443.7,-1410 L 2441.62,-1409.78 L 2439.63,-1409.14 L 2437.82,-1408.09 L 2436.27,-1406.69
 L 2435.04,-1405 L 2434.1,-1402.8 L 2086.6,-211.371 L 2086.2,-208.571 L 2086.2,-20 L 2086.42,-17.9209
 L 2087.06,-15.9326 L 2088.11,-14.1221 L 2089.51,-12.5686 L 2091.2,-11.3398 L 2093.11,-10.4894 L 2096.2,-10
 L 2875.67,-10 z
M 2753.53,-232.094 L 2750.96,-232.874 L 2748.59,-234.14 L 2746.51,-235.843 L 2744.81,-237.919 L 2743.54,-240.288
 L 2742.76,-242.858 L 2742.5,-245.531 L 2742.76,-248.203 L 2743.54,-250.773 L 2744.81,-253.142 L 2746.51,-255.218
 L 2748.59,-256.922 L 2750.96,-258.188 L 2753.53,-258.967 L 2756.2,-259.231 L 2758.87,-258.967 L 2761.44,-258.188
 L 2763.81,-256.922 L 2765.89,-255.218 L 2767.59,-253.142 L 2768.86,-250.773 L 2769.64,-248.203 L 2769.9,-245.531
 L 2769.64,-242.858 L 2768.86,-240.288 L 2767.59,-237.919 L 2765.89,-235.843 L 2763.81,-234.14 L 2761.44,-232.874
 L 2758.87,-232.094 L 2756.2,-231.831 z
M 2133.58,-190.122 L 2131.01,-190.633 L 2128.53,-191.476 L 2126.17,-192.636 L 2123.99,-194.093 L 2122.02,-195.822
 L 2120.29,-197.794 L 2118.84,-199.975 L 2117.68,-202.327 L 2116.83,-204.811 L 2116.32,-207.383 L 2116.15,-210
 L 2116.32,-212.617 L 2116.83,-215.189 L 2117.68,-217.673 L 2118.84,-220.025 L 2120.29,-222.206 L 2122.02,-224.177
 L 2123.99,-225.907 L 2126.17,-227.364 L 2128.53,-228.524 L 2131.01,-229.367 L 2133.58,-229.878 L 2136.2,-230.05
 L 2138.82,-229.878 L 2141.39,-229.367 L 2143.87,-228.524 L 2146.22,-227.364 L 2148.41,-225.907 L 2150.38,-224.177
 L 2152.11,-222.206 L 2153.56,-220.025 L 2154.72,-217.673 L 2155.57,-215.189 L 2156.08,-212.617 L 2156.25,-210
 L 2156.08,-207.383 L 2155.57,-204.811 L 2154.72,-202.327 L 2153.56,-199.975 L 2152.11,-197.794 L 2150.38,-195.822
 L 2148.41,-194.093 L 2146.22,-192.636 L 2143.87,-191.476 L 2141.39,-190.633 L 2138.82,-190.122 L 2136.2,-189.95
 z
M 1850.48,-12.0533 L 1851.08,-14.0277 L 1852.05,-15.8474 L 1853.36,-17.4423 L 1854.95,-18.7512 L 1856.77,-19.7238
 L 1858.75,-20.3228 L 1860.8,-20.525 L 1862.85,-20.3228 L 1864.83,-19.7238 L 1866.65,-18.7512 L 1868.24,-17.4423
 L 1869.55,-15.8474 L 1870.52,-14.0277 L 1871.12,-12.0533 L 1871.32,-10 L 2050.8,-10 L 2052.88,-10.2185
 L 2054.87,-10.8645 L 2056.68,-11.9098 L 2058.23,-13.3087 L 2059.46,-15 L 2060.31,-16.9098 L 2060.8,-20
 L 2060.8,-1400 L 2060.58,-1402.08 L 2059.94,-1404.07 L 2058.89,-1405.88 L 2057.49,-1407.43 L 2055.8,-1408.66
 L 2053.89,-1409.51 L 2050.8,-1410 L 1871.32,-1410 L 1871.12,-1407.95 L 1870.52,-1405.97 L 1869.55,-1404.15
 L 1868.24,-1402.56 L 1866.65,-1401.25 L 1864.83,-1400.28 L 1862.85,-1399.68 L 1860.8,-1399.47 L 1858.75,-1399.68
 L 1856.77,-1400.28 L 1854.95,-1401.25 L 1853.36,-1402.56 L 1852.05,-1404.15 L 1851.08,-1405.97 L 1850.48,-1407.95
 L 1850.27,-1410 L 1418.3,-1410 L 1416.22,-1409.78 L 1414.23,-1409.14 L 1412.42,-1408.09 L 1410.87,-1406.69
 L 1409.64,-1405 L 1408.7,-1402.8 L 1386.37,-1326.23 L 1388.4,-1325.76 L 1423.95,-1316.29 L 1459.17,-1305.68
 L 1494.04,-1293.95 L 1528.52,-1281.11 L 1562.56,-1267.17 L 1564.33,-1266.43 L 1597.91,-1251.41 L 1630.99,-1235.31
 L 1663.54,-1218.17 L 1695.52,-1199.99 L 1726.91,-1180.79 L 1757.66,-1160.59 L 1787.75,-1139.42 L 1817.14,-1117.3
 L 1845.81,-1094.25 L 1873.73,-1070.28 L 1900.86,-1045.44 L 1927.18,-1019.74 L 1927.91,-1017.97 L 1927.18,-1016.2
 L 1869.81,-959.303 L 1868.05,-958.57 L 1866.28,-959.303 L 1841.81,-983.194 L 1816.59,-1006.29 L 1790.64,-1028.56
 L 1763.99,-1049.99 L 1736.66,-1070.56 L 1708.69,-1090.24 L 1680.11,-1109.01 L 1650.94,-1126.86 L 1621.21,-1143.76
 L 1590.95,-1159.7 L 1560.2,-1174.66 L 1529.2,-1188.53 L 1499.1,-1200.85 L 1467.05,-1212.79 L 1434.64,-1223.7
 L 1401.89,-1233.56 L 1368.85,-1242.36 L 1362.35,-1243.87 L 1061.2,-211.371 L 1060.8,-208.571 L 1060.8,-20
 L 1061.02,-17.9209 L 1061.66,-15.9326 L 1062.71,-14.1221 L 1064.11,-12.5686 L 1065.8,-11.3398 L 1067.71,-10.4894
 L 1070.8,-10 L 1850.27,-10 z
M 1728.13,-232.094 L 1725.56,-232.874 L 1723.19,-234.14 L 1721.11,-235.843 L 1719.41,-237.919 L 1718.14,-240.288
 L 1717.36,-242.858 L 1717.1,-245.531 L 1717.36,-248.203 L 1718.14,-250.773 L 1719.41,-253.142 L 1721.11,-255.218
 L 1723.19,-256.922 L 1725.56,-258.188 L 1728.13,-258.967 L 1730.8,-259.231 L 1733.47,-258.967 L 1736.04,-258.188
 L 1738.41,-256.922 L 1740.49,-255.218 L 1742.19,-253.142 L 1743.46,-250.773 L 1744.24,-248.203 L 1744.5,-245.531
 L 1744.24,-242.858 L 1743.46,-240.288 L 1742.19,-237.919 L 1740.49,-235.843 L 1738.41,-234.14 L 1736.04,-232.874
 L 1733.47,-232.094 L 1730.8,-231.831 z
M 1108.18,-190.122 L 1105.61,-190.633 L 1103.13,-191.476 L 1100.77,-192.636 L 1098.59,-194.093 L 1096.62,-195.822
 L 1094.89,-197.794 L 1093.44,-199.975 L 1092.28,-202.327 L 1091.43,-204.811 L 1090.92,-207.383 L 1090.75,-210
 L 1090.92,-212.617 L 1091.43,-215.189 L 1092.28,-217.673 L 1093.44,-220.025 L 1094.89,-222.206 L 1096.62,-224.177
 L 1098.59,-225.907 L 1100.77,-227.364 L 1103.13,-228.524 L 1105.61,-229.367 L 1108.18,-229.878 L 1110.8,-230.05
 L 1113.42,-229.878 L 1115.99,-229.367 L 1118.47,-228.524 L 1120.82,-227.364 L 1123.01,-225.907 L 1124.98,-224.177
 L 1126.71,-222.206 L 1128.16,-220.025 L 1129.32,-217.673 L 1130.17,-215.189 L 1130.68,-212.617 L 1130.85,-210
 L 1130.68,-207.383 L 1130.17,-204.811 L 1129.32,-202.327 L 1128.16,-199.975 L 1126.71,-197.794 L 1124.98,-195.822
 L 1123.01,-194.093 L 1120.82,-192.636 L 1118.47,-191.476 L 1115.99,-190.633 L 1113.42,-190.122 L 1110.8,-189.95
 z
M 825.077,-12.0533 L 825.676,-14.0277 L 826.649,-15.8474 L 827.958,-17.4423 L 829.553,-18.7512 L 831.372,-19.7238
 L 833.347,-20.3228 L 835.4,-20.525 L 837.453,-20.3228 L 839.428,-19.7238 L 841.247,-18.7512 L 842.842,-17.4423
 L 844.151,-15.8474 L 845.124,-14.0277 L 845.723,-12.0533 L 845.925,-10 L 1025.4,-10 L 1027.48,-10.2185
 L 1029.47,-10.8645 L 1031.28,-11.9098 L 1032.83,-13.3087 L 1034.06,-15 L 1034.91,-16.9098 L 1035.4,-20
 L 1035.4,-1400 L 1035.18,-1402.08 L 1034.54,-1404.07 L 1033.49,-1405.88 L 1032.09,-1407.43 L 1030.4,-1408.66
 L 1028.49,-1409.51 L 1025.4,-1410 L 845.925,-1410 L 845.723,-1407.95 L 845.124,-1405.97 L 844.151,-1404.15
 L 842.842,-1402.56 L 841.247,-1401.25 L 839.428,-1400.28 L 837.453,-1399.68 L 835.4,-1399.47 L 833.347,-1399.68
 L 831.372,-1400.28 L 829.553,-1401.25 L 827.958,-1402.56 L 826.649,-1404.15 L 825.676,-1405.97 L 825.077,-1407.95
 L 824.875,-1410 L 392.9,-1410 L 390.821,-1409.78 L 388.833,-1409.14 L 387.022,-1408.09 L 385.469,-1406.69
 L 384.24,-1405 L 383.3,-1402.8 L 360.968,-1326.23 L 362.998,-1325.76 L 398.547,-1316.29 L 433.774,-1305.68
 L 468.642,-1293.95 L 503.117,-1281.11 L 537.163,-1267.17 L 538.93,-1266.43 L 572.511,-1251.41 L 605.593,-1235.31
 L 638.142,-1218.17 L 670.124,-1199.99 L 701.507,-1180.79 L 732.259,-1160.59 L 762.347,-1139.42 L 791.741,-1117.3
 L 820.41,-1094.25 L 848.326,-1070.28 L 875.459,-1045.44 L 901.782,-1019.74 L 902.514,-1017.97 L 901.782,-1016.2
 L 844.414,-959.303 L 842.646,-958.57 L 840.879,-959.303 L 816.41,-983.194 L 791.187,-1006.29 L 765.238,-1028.56
 L 738.587,-1049.99 L 711.263,-1070.56 L 683.294,-1090.24 L 654.708,-1109.01 L 625.535,-1126.86 L 595.805,-1143.76
 L 565.548,-1159.7 L 534.796,-1174.66 L 503.8,-1188.53 L 473.7,-1200.85 L 441.653,-1212.79 L 409.24,-1223.7
 L 376.494,-1233.56 L 343.448,-1242.36 L 336.946,-1243.87 L 35.8,-211.371 L 35.4,-208.571 L 35.4,-20
 L 35.6185,-17.9209 L 36.2645,-15.9326 L 37.3098,-14.1221 L 38.7087,-12.5686 L 40.4,-11.3398 L 42.3098,-10.4894
 L 45.4,-10 L 824.875,-10 z
M 702.727,-232.094 L 700.157,-232.874 L 697.789,-234.14 L 695.713,-235.843 L 694.009,-237.919 L 692.743,-240.288
 L 691.963,-242.858 L 691.7,-245.531 L 691.963,-248.203 L 692.743,-250.773 L 694.009,-253.142 L 695.713,-255.218
 L 697.789,-256.922 L 700.157,-258.188 L 702.727,-258.967 L 705.4,-259.231 L 708.073,-258.967 L 710.643,-258.188
 L 713.011,-256.922 L 715.087,-255.218 L 716.791,-253.142 L 718.057,-250.773 L 718.837,-248.203 L 719.1,-245.531
 L 718.837,-242.858 L 718.057,-240.288 L 716.791,-237.919 L 715.087,-235.843 L 713.011,-234.14 L 710.643,-232.874
 L 708.073,-232.094 L 705.4,-231.831 z
M 82.7829,-190.122 L 80.2107,-190.633 L 77.7272,-191.476 L 75.375,-192.636 L 73.1943,-194.093 L 71.2225,-195.822
 L 69.4933,-197.794 L 68.0362,-199.975 L 66.8762,-202.327 L 66.0332,-204.811 L 65.5215,-207.383 L 65.35,-210
 L 65.5215,-212.617 L 66.0332,-215.189 L 66.8762,-217.673 L 68.0362,-220.025 L 69.4933,-222.206 L 71.2225,-224.177
 L 73.1943,-225.907 L 75.375,-227.364 L 77.7272,-228.524 L 80.2107,-229.367 L 82.7829,-229.878 L 85.4,-230.05
 L 88.017,-229.878 L 90.5893,-229.367 L 93.0728,-228.524 L 95.425,-227.364 L 97.6057,-225.907 L 99.5775,-224.177
 L 101.307,-222.206 L 102.764,-220.025 L 103.924,-217.673 L 104.767,-215.189 L 105.278,-212.617 L 105.45,-210
 L 105.278,-207.383 L 104.767,-204.811 L 103.924,-202.327 L 102.764,-199.975 L 101.307,-197.794 L 99.5775,-195.822
 L 97.6057,-194.093 L 95.425,-192.636 L 93.0728,-191.476 L 90.5893,-190.633 L 88.017,-190.122 L 85.4,-189.95
 z
M 7504.21,-10.3108 L 7505.98,-11.2128 L 7507.39,-12.6176 L 7508.29,-14.3877 L 7508.6,-16.35 L 7508.6,-452.811
 L 7508.29,-454.774 L 7507.39,-456.544 L 7505.98,-457.949 L 7504.21,-458.851 L 7502.25,-459.161 L 7500.29,-458.851
 L 7499.27,-458.421 L 7033.2,-211.115 L 7033.2,-452.811 L 7032.89,-454.774 L 7031.99,-456.544 L 7030.58,-457.949
 L 7028.81,-458.851 L 7026.85,-459.161 L 7024.89,-458.851 L 7023.87,-458.421 L 6555.7,-210 L 5957.8,-210
 L 5957.8,190 L 6657.8,190 L 6657.8,-10 L 7502.25,-10 z
M 7493.42,-340.903 L 7493.42,-354.097 L 7503.77,-354.097 L 7503.77,-340.903 z
M 7018.02,-340.903 L 7018.02,-354.097 L 7028.38,-354.097 L 7028.38,-340.903 z
M 7018.02,-228.403 L 7018.02,-241.597 L 7028.38,-241.597 L 7028.38,-228.403 z
M 7493.42,-228.403 L 7493.42,-241.597 L 7503.77,-241.597 L 7503.77,-228.403 z
M 5996.37,-162.791 L 5994.99,-163.209 L 5993.72,-163.889 L 5992.6,-164.803 L 5991.69,-165.917 L 5991.01,-167.187
 L 5990.59,-168.566 L 5990.45,-170 L 5990.59,-171.434 L 5991.01,-172.813 L 5991.69,-174.083 L 5992.6,-175.197
 L 5993.72,-176.111 L 5994.99,-176.791 L 5996.37,-177.209 L 5997.8,-177.35 L 5999.23,-177.209 L 6000.61,-176.791
 L 6001.88,-176.111 L 6003,-175.197 L 6003.91,-174.083 L 6004.59,-172.813 L 6005.01,-171.434 L 6005.15,-170
 L 6005.01,-168.566 L 6004.59,-167.187 L 6003.91,-165.917 L 6003,-164.803 L 6001.88,-163.889 L 6000.61,-163.209
 L 5999.23,-162.791 L 5997.8,-162.65 z
M 7493.42,-115.903 L 7493.42,-129.097 L 7503.77,-129.097 L 7503.77,-115.903 z
M 6414.56,-97.9259 L 6411.55,-99.1747 L 6408.96,-101.161 L 6406.97,-103.75 L 6405.73,-106.765 L 6405.3,-110
 L 6405.73,-113.235 L 6406.97,-116.25 L 6408.96,-118.839 L 6411.55,-120.825 L 6414.56,-122.074 L 6417.8,-122.5
 L 6421.04,-122.074 L 6424.05,-120.825 L 6426.64,-118.839 L 6428.63,-116.25 L 6429.87,-113.235 L 6430.3,-110
 L 6429.87,-106.765 L 6428.63,-103.75 L 6426.64,-101.161 L 6424.05,-99.1747 L 6421.04,-97.9259 L 6417.8,-97.5
 z
M 6334.56,-97.9259 L 6331.55,-99.1747 L 6328.96,-101.161 L 6326.97,-103.75 L 6325.73,-106.765 L 6325.3,-110
 L 6325.73,-113.235 L 6326.97,-116.25 L 6328.96,-118.839 L 6331.55,-120.825 L 6334.56,-122.074 L 6337.8,-122.5
 L 6341.04,-122.074 L 6344.05,-120.825 L 6346.64,-118.839 L 6348.63,-116.25 L 6349.87,-113.235 L 6350.3,-110
 L 6349.87,-106.765 L 6348.63,-103.75 L 6346.64,-101.161 L 6344.05,-99.1747 L 6341.04,-97.9259 L 6337.8,-97.5
 z
M 6254.56,-97.9259 L 6251.55,-99.1747 L 6248.96,-101.161 L 6246.97,-103.75 L 6245.73,-106.765 L 6245.3,-110
 L 6245.73,-113.235 L 6246.97,-116.25 L 6248.96,-118.839 L 6251.55,-120.825 L 6254.56,-122.074 L 6257.8,-122.5
 L 6261.04,-122.074 L 6264.05,-120.825 L 6266.64,-118.839 L 6268.63,-116.25 L 6269.87,-113.235 L 6270.3,-110
 L 6269.87,-106.765 L 6268.63,-103.75 L 6266.64,-101.161 L 6264.05,-99.1747 L 6261.04,-97.9259 L 6257.8,-97.5
 z
M 6174.56,-97.9259 L 6171.55,-99.1747 L 6168.96,-101.161 L 6166.97,-103.75 L 6165.73,-106.765 L 6165.3,-110
 L 6165.73,-113.235 L 6166.97,-116.25 L 6168.96,-118.839 L 6171.55,-120.825 L 6174.56,-122.074 L 6177.8,-122.5
 L 6181.04,-122.074 L 6184.05,-120.825 L 6186.64,-118.839 L 6188.63,-116.25 L 6189.87,-113.235 L 6190.3,-110
 L 6189.87,-106.765 L 6188.63,-103.75 L 6186.64,-101.161 L 6184.05,-99.1747 L 6181.04,-97.9259 L 6177.8,-97.5
 z
M 6014.56,-97.9259 L 6011.55,-99.1747 L 6008.96,-101.161 L 6006.97,-103.75 L 6005.73,-106.765 L 6005.3,-110
 L 6005.73,-113.235 L 6006.97,-116.25 L 6008.96,-118.839 L 6011.55,-120.825 L 6014.56,-122.074 L 6017.8,-122.5
 L 6021.04,-122.074 L 6024.05,-120.825 L 6026.64,-118.839 L 6028.63,-116.25 L 6029.87,-113.235 L 6030.3,-110
 L 6029.87,-106.765 L 6028.63,-103.75 L 6026.64,-101.161 L 6024.05,-99.1747 L 6021.04,-97.9259 L 6017.8,-97.5
 z
M 6094.56,-97.9259 L 6091.55,-99.1747 L 6088.96,-101.161 L 6086.97,-103.75 L 6085.73,-106.765 L 6085.3,-110
 L 6085.73,-113.235 L 6086.97,-116.25 L 6088.96,-118.839 L 6091.55,-120.825 L 6094.56,-122.074 L 6097.8,-122.5
 L 6101.04,-122.074 L 6104.05,-120.825 L 6106.64,-118.839 L 6108.63,-116.25 L 6109.87,-113.235 L 6110.3,-110
 L 6109.87,-106.765 L 6108.63,-103.75 L 6106.64,-101.161 L 6104.05,-99.1747 L 6101.04,-97.9259 L 6097.8,-97.5
 z
M 6414.56,-17.9259 L 6411.55,-19.1747 L 6408.96,-21.1612 L 6406.97,-23.75 L 6405.73,-26.7648 L 6405.3,-30
 L 6405.73,-33.2352 L 6406.97,-36.25 L 6408.96,-38.8388 L 6411.55,-40.8253 L 6414.56,-42.0741 L 6417.8,-42.5
 L 6421.04,-42.0741 L 6424.05,-40.8253 L 6426.64,-38.8388 L 6428.63,-36.25 L 6429.87,-33.2352 L 6430.3,-30
 L 6429.87,-26.7648 L 6428.63,-23.75 L 6426.64,-21.1612 L 6424.05,-19.1747 L 6421.04,-17.9259 L 6417.8,-17.5
 z
M 6334.56,-17.9259 L 6331.55,-19.1747 L 6328.96,-21.1612 L 6326.97,-23.75 L 6325.73,-26.7648 L 6325.3,-30
 L 6325.73,-33.2352 L 6326.97,-36.25 L 6328.96,-38.8388 L 6331.55,-40.8253 L 6334.56,-42.0741 L 6337.8,-42.5
 L 6341.04,-42.0741 L 6344.05,-40.8253 L 6346.64,-38.8388 L 6348.63,-36.25 L 6349.87,-33.2352 L 6350.3,-30
 L 6349.87,-26.7648 L 6348.63,-23.75 L 6346.64,-21.1612 L 6344.05,-19.1747 L 6341.04,-17.9259 L 6337.8,-17.5
 z
M 6254.56,-17.9259 L 6251.55,-19.1747 L 6248.96,-21.1612 L 6246.97,-23.75 L 6245.73,-26.7648 L 6245.3,-30
 L 6245.73,-33.2352 L 6246.97,-36.25 L 6248.96,-38.8388 L 6251.55,-40.8253 L 6254.56,-42.0741 L 6257.8,-42.5
 L 6261.04,-42.0741 L 6264.05,-40.8253 L 6266.64,-38.8388 L 6268.63,-36.25 L 6269.87,-33.2352 L 6270.3,-30
 L 6269.87,-26.7648 L 6268.63,-23.75 L 6266.64,-21.1612 L 6264.05,-19.1747 L 6261.04,-17.9259 L 6257.8,-17.5
 z
M 6174.56,-17.9259 L 6171.55,-19.1747 L 6168.96,-21.1612 L 6166.97,-23.75 L 6165.73,-26.7648 L 6165.3,-30
 L 6165.73,-33.2352 L 6166.97,-36.25 L 6168.96,-38.8388 L 6171.55,-40.8253 L 6174.56,-42.0741 L 6177.8,-42.5
 L 6181.04,-42.0741 L 6184.05,-40.8253 L 6186.64,-38.8388 L 6188.63,-36.25 L 6189.87,-33.2352 L 6190.3,-30
 L 6189.87,-26.7648 L 6188.63,-23.75 L 6186.64,-21.1612 L 6184.05,-19.1747 L 6181.04,-17.9259 L 6177.8,-17.5
 z
M 6094.56,-17.9259 L 6091.55,-19.1747 L 6088.96,-21.1612 L 6086.97,-23.75 L 6085.73,-26.7648 L 6085.3,-30
 L 6085.73,-33.2352 L 6086.97,-36.25 L 6088.96,-38.8388 L 6091.55,-40.8253 L 6094.56,-42.0741 L 6097.8,-42.5
 L 6101.04,-42.0741 L 6104.05,-40.8253 L 6106.64,-38.8388 L 6108.63,-36.25 L 6109.87,-33.2352 L 6110.3,-30
 L 6109.87,-26.7648 L 6108.63,-23.75 L 6106.64,-21.1612 L 6104.05,-19.1747 L 6101.04,-17.9259 L 6097.8,-17.5
 z
M 6014.56,-17.9259 L 6011.55,-19.1747 L 6008.96,-21.1612 L 6006.97,-23.75 L 6005.73,-26.7648 L 6005.3,-30
 L 6005.73,-33.2352 L 6006.97,-36.25 L 6008.96,-38.8388 L 6011.55,-40.8253 L 6014.56,-42.0741 L 6017.8,-42.5
 L 6021.04,-42.0741 L 6024.05,-40.8253 L 6026.64,-38.8388 L 6028.63,-36.25 L 6029.87,-33.2352 L 6030.3,-30
 L 6029.87,-26.7648 L 6028.63,-23.75 L 6026.64,-21.1612 L 6024.05,-19.1747 L 6021.04,-17.9259 L 6017.8,-17.5
 z
M 7082,-14.825 L 7082,-25.175 L 7095.2,-25.175 L 7095.2,-14.825 z
M 7262,-14.825 L 7262,-25.175 L 7275.2,-25.175 L 7275.2,-14.825 z
M 7422,-14.825 L 7422,-25.175 L 7435.2,-25.175 L 7435.2,-14.825 z
M 6786.6,-14.825 L 6786.6,-25.175 L 6799.8,-25.175 L 6799.8,-14.825 z
M 6506.6,-25.175 L 6509.22,-25.175 L 6508.63,-23.75 L 6506.64,-21.1612 L 6506.6,-21.1338 z
M 6014.56,62.0741 L 6011.55,60.8253 L 6008.96,58.8388 L 6006.97,56.25 L 6005.73,53.2352 L 6005.3,50
 L 6005.73,46.7648 L 6006.97,43.75 L 6008.96,41.1612 L 6011.55,39.1747 L 6014.56,37.9259 L 6017.8,37.5
 L 6021.04,37.9259 L 6024.05,39.1747 L 6026.64,41.1612 L 6028.63,43.75 L 6029.87,46.7648 L 6030.3,50
 L 6029.87,53.2352 L 6028.63,56.25 L 6026.64,58.8388 L 6024.05,60.8253 L 6021.04,62.0741 L 6017.8,62.5
 z
M 6334.56,62.0741 L 6331.55,60.8253 L 6328.96,58.8388 L 6326.97,56.25 L 6325.73,53.2352 L 6325.3,50
 L 6325.73,46.7648 L 6326.97,43.75 L 6328.96,41.1612 L 6331.55,39.1747 L 6334.56,37.9259 L 6337.8,37.5
 L 6341.04,37.9259 L 6344.05,39.1747 L 6346.64,41.1612 L 6348.63,43.75 L 6349.87,46.7648 L 6350.3,50
 L 6349.87,53.2352 L 6348.63,56.25 L 6346.64,58.8388 L 6344.05,60.8253 L 6341.04,62.0741 L 6337.8,62.5
 z
M 6414.56,62.0741 L 6411.55,60.8253 L 6408.96,58.8388 L 6406.97,56.25 L 6405.73,53.2352 L 6405.3,50
 L 6405.73,46.7648 L 6406.97,43.75 L 6408.96,41.1612 L 6411.55,39.1747 L 6414.56,37.9259 L 6417.8,37.5
 L 6421.04,37.9259 L 6424.05,39.1747 L 6426.64,41.1612 L 6428.63,43.75 L 6429.87,46.7648 L 6430.3,50
 L 6429.87,53.2352 L 6428.63,56.25 L 6426.64,58.8388 L 6424.05,60.8253 L 6421.04,62.0741 L 6417.8,62.5
 z
M 6094.56,62.0741 L 6091.55,60.8253 L 6088.96,58.8388 L 6086.97,56.25 L 6085.73,53.2352 L 6085.3,50
 L 6085.73,46.7648 L 6086.97,43.75 L 6088.96,41.1612 L 6091.55,39.1747 L 6094.56,37.9259 L 6097.8,37.5
 L 6101.04,37.9259 L 6104.05,39.1747 L 6106.64,41.1612 L 6108.63,43.75 L 6109.87,46.7648 L 6110.3,50
 L 6109.87,53.2352 L 6108.63,56.25 L 6106.64,58.8388 L 6104.05,60.8253 L 6101.04,62.0741 L 6097.8,62.5
 z
M 6574.56,62.0741 L 6571.55,60.8253 L 6568.96,58.8388 L 6566.97,56.25 L 6565.73,53.2352 L 6565.3,50
 L 6565.73,46.7648 L 6566.97,43.75 L 6568.96,41.1612 L 6571.55,39.1747 L 6574.56,37.9259 L 6577.8,37.5
 L 6581.04,37.9259 L 6584.05,39.1747 L 6586.64,41.1612 L 6588.63,43.75 L 6589.87,46.7648 L 6590.3,50
 L 6589.87,53.2352 L 6588.63,56.25 L 6586.64,58.8388 L 6584.05,60.8253 L 6581.04,62.0741 L 6577.8,62.5
 z
M 6174.56,62.0741 L 6171.55,60.8253 L 6168.96,58.8388 L 6166.97,56.25 L 6165.73,53.2352 L 6165.3,50
 L 6165.73,46.7648 L 6166.97,43.75 L 6168.96,41.1612 L 6171.55,39.1747 L 6174.56,37.9259 L 6177.8,37.5
 L 6181.04,37.9259 L 6184.05,39.1747 L 6186.64,41.1612 L 6188.63,43.75 L 6189.87,46.7648 L 6190.3,50
 L 6189.87,53.2352 L 6188.63,56.25 L 6186.64,58.8388 L 6184.05,60.8253 L 6181.04,62.0741 L 6177.8,62.5
 z
M 6494.56,62.0741 L 6491.55,60.8253 L 6488.96,58.8388 L 6486.97,56.25 L 6485.73,53.2352 L 6485.3,50
 L 6485.73,46.7648 L 6486.97,43.75 L 6488.96,41.1612 L 6491.55,39.1747 L 6494.56,37.9259 L 6497.8,37.5
 L 6501.04,37.9259 L 6504.05,39.1747 L 6506.64,41.1612 L 6508.63,43.75 L 6509.87,46.7648 L 6510.3,50
 L 6509.87,53.2352 L 6508.63,56.25 L 6506.64,58.8388 L 6504.05,60.8253 L 6501.04,62.0741 L 6497.8,62.5
 z
M 6254.56,62.0741 L 6251.55,60.8253 L 6248.96,58.8388 L 6246.97,56.25 L 6245.73,53.2352 L 6245.3,50
 L 6245.73,46.7648 L 6246.97,43.75 L 6248.96,41.1612 L 6251.55,39.1747 L 6254.56,37.9259 L 6257.8,37.5
 L 6261.04,37.9259 L 6264.05,39.1747 L 6266.64,41.1612 L 6268.63,43.75 L 6269.87,46.7648 L 6270.3,50
 L 6269.87,53.2352 L 6268.63,56.25 L 6266.64,58.8388 L 6264.05,60.8253 L 6261.04,62.0741 L 6257.8,62.5
 z
M 6574.56,142.074 L 6571.55,140.825 L 6568.96,138.839 L 6566.97,136.25 L 6565.73,133.235 L 6565.3,130
 L 6565.73,126.765 L 6566.97,123.75 L 6568.96,121.161 L 6571.55,119.175 L 6574.56,117.926 L 6577.8,117.5
 L 6581.04,117.926 L 6584.05,119.175 L 6586.64,121.161 L 6588.63,123.75 L 6589.87,126.765 L 6590.3,130
 L 6589.87,133.235 L 6588.63,136.25 L 6586.64,138.839 L 6584.05,140.825 L 6581.04,142.074 L 6577.8,142.5
 z
M 6414.56,142.074 L 6411.55,140.825 L 6408.96,138.839 L 6406.97,136.25 L 6405.73,133.235 L 6405.3,130
 L 6405.73,126.765 L 6406.97,123.75 L 6408.96,121.161 L 6411.55,119.175 L 6414.56,117.926 L 6417.8,117.5
 L 6421.04,117.926 L 6424.05,119.175 L 6426.64,121.161 L 6428.63,123.75 L 6429.87,126.765 L 6430.3,130
 L 6429.87,133.235 L 6428.63,136.25 L 6426.64,138.839 L 6424.05,140.825 L 6421.04,142.074 L 6417.8,142.5
 z
M 6494.56,142.074 L 6491.55,140.825 L 6488.96,138.839 L 6486.97,136.25 L 6485.73,133.235 L 6485.3,130
 L 6485.73,126.765 L 6486.97,123.75 L 6488.96,121.161 L 6491.55,119.175 L 6494.56,117.926 L 6497.8,117.5
 L 6501.04,117.926 L 6504.05,119.175 L 6506.64,121.161 L 6508.63,123.75 L 6509.87,126.765 L 6510.3,130
 L 6509.87,133.235 L 6508.63,136.25 L 6506.64,138.839 L 6504.05,140.825 L 6501.04,142.074 L 6497.8,142.5
 z
M 6334.56,142.074 L 6331.55,140.825 L 6328.96,138.839 L 6326.97,136.25 L 6325.73,133.235 L 6325.3,130
 L 6325.73,126.765 L 6326.97,123.75 L 6328.96,121.161 L 6331.55,119.175 L 6334.56,117.926 L 6337.8,117.5
 L 6341.04,117.926 L 6344.05,119.175 L 6346.64,121.161 L 6348.63,123.75 L 6349.87,126.765 L 6350.3,130
 L 6349.87,133.235 L 6348.63,136.25 L 6346.64,138.839 L 6344.05,140.825 L 6341.04,142.074 L 6337.8,142.5
 z
M 6254.56,142.074 L 6251.55,140.825 L 6248.96,138.839 L 6246.97,136.25 L 6245.73,133.235 L 6245.3,130
 L 6245.73,126.765 L 6246.97,123.75 L 6248.96,121.161 L 6251.55,119.175 L 6254.56,117.926 L 6257.8,117.5
 L 6261.04,117.926 L 6264.05,119.175 L 6266.64,121.161 L 6268.63,123.75 L 6269.87,126.765 L 6270.3,130
 L 6269.87,133.235 L 6268.63,136.25 L 6266.64,138.839 L 6264.05,140.825 L 6261.04,142.074 L 6257.8,142.5
 z
M 6174.56,142.074 L 6171.55,140.825 L 6168.96,138.839 L 6166.97,136.25 L 6165.73,133.235 L 6165.3,130
 L 6165.73,126.765 L 6166.97,123.75 L 6168.96,121.161 L 6171.55,119.175 L 6174.56,117.926 L 6177.8,117.5
 L 6181.04,117.926 L 6184.05,119.175 L 6186.64,121.161 L 6188.63,123.75 L 6189.87,126.765 L 6190.3,130
 L 6189.87,133.235 L 6188.63,136.25 L 6186.64,138.839 L 6184.05,140.825 L 6181.04,142.074 L 6177.8,142.5
 z
M 6094.56,142.074 L 6091.55,140.825 L 6088.96,138.839 L 6086.97,136.25 L 6085.73,133.235 L 6085.3,130
 L 6085.73,126.765 L 6086.97,123.75 L 6088.96,121.161 L 6091.55,119.175 L 6094.56,117.926 L 6097.8,117.5
 L 6101.04,117.926 L 6104.05,119.175 L 6106.64,121.161 L 6108.63,123.75 L 6109.87,126.765 L 6110.3,130
 L 6109.87,133.235 L 6108.63,136.25 L 6106.64,138.839 L 6104.05,140.825 L 6101.04,142.074 L 6097.8,142.5
 z
M 6014.56,142.074 L 6011.55,140.825 L 6008.96,138.839 L 6006.97,136.25 L 6005.73,133.235 L 6005.3,130
 L 6005.73,126.765 L 6006.97,123.75 L 6008.96,121.161 L 6011.55,119.175 L 6014.56,117.926 L 6017.8,117.5
 L 6021.04,117.926 L 6024.05,119.175 L 6026.64,121.161 L 6028.63,123.75 L 6029.87,126.765 L 6030.3,130
 L 6029.87,133.235 L 6028.63,136.25 L 6026.64,138.839 L 6024.05,140.825 L 6021.04,142.074 L 6017.8,142.5
 z
M 6616.37,157.209 L 6614.99,156.791 L 6613.72,156.111 L 6612.6,155.197 L 6611.69,154.083 L 6611.01,152.813
 L 6610.59,151.434 L 6610.45,150 L 6610.59,148.566 L 6611.01,147.187 L 6611.69,145.917 L 6612.6,144.803
 L 6613.72,143.889 L 6614.99,143.209 L 6616.37,142.791 L 6617.8,142.65 L 6619.23,142.791 L 6620.61,143.209
 L 6621.88,143.889 L 6623,144.803 L 6623.91,145.917 L 6624.59,147.187 L 6625.01,148.566 L 6625.15,150
 L 6625.01,151.434 L 6624.59,152.813 L 6623.91,154.083 L 6623,155.197 L 6621.88,156.111 L 6620.61,156.791
 L 6619.23,157.209 L 6617.8,157.35 z
M 5996.37,157.209 L 5994.99,156.791 L 5993.72,156.111 L 5992.6,155.197 L 5991.69,154.083 L 5991.01,152.813
 L 5990.59,151.434 L 5990.45,150 L 5990.59,148.566 L 5991.01,147.187 L 5991.69,145.917 L 5992.6,144.803
 L 5993.72,143.889 L 5994.99,143.209 L 5996.37,142.791 L 5997.8,142.65 L 5999.23,142.791 L 6000.61,143.209
 L 6001.88,143.889 L 6003,144.803 L 6003.91,145.917 L 6004.59,147.187 L 6005.01,148.566 L 6005.15,150
 L 6005.01,151.434 L 6004.59,152.813 L 6003.91,154.083 L 6003,155.197 L 6001.88,156.111 L 6000.61,156.791
 L 5999.23,157.209 L 5997.8,157.35 z
M 5732.4,-310 L 4632.4,-310 L 4632.4,-285 L 3588.9,-285 L 3588.9,265 L 4632.4,265
 L 4632.4,290 L 5732.4,290 z
M 5180.97,-292.791 L 5179.59,-293.209 L 5178.32,-293.889 L 5177.2,-294.803 L 5176.29,-295.917 L 5175.61,-297.187
 L 5175.19,-298.566 L 5175.05,-300 L 5175.19,-301.434 L 5175.61,-302.813 L 5176.29,-304.083 L 5177.2,-305.197
 L 5178.32,-306.111 L 5179.59,-306.791 L 5180.97,-307.209 L 5182.4,-307.35 L 5183.83,-307.209 L 5185.21,-306.791
 L 5186.48,-306.111 L 5187.6,-305.197 L 5188.51,-304.083 L 5189.19,-302.813 L 5189.61,-301.434 L 5189.75,-300
 L 5189.61,-298.566 L 5189.19,-297.187 L 5188.51,-295.917 L 5187.6,-294.803 L 5186.48,-293.889 L 5185.21,-293.209
 L 5183.83,-292.791 L 5182.4,-292.65 z
M 5030.97,-292.791 L 5029.59,-293.209 L 5028.32,-293.889 L 5027.2,-294.803 L 5026.29,-295.917 L 5025.61,-297.187
 L 5025.19,-298.566 L 5025.05,-300 L 5025.19,-301.434 L 5025.61,-302.813 L 5026.29,-304.083 L 5027.2,-305.197
 L 5028.32,-306.111 L 5029.59,-306.791 L 5030.97,-307.209 L 5032.4,-307.35 L 5033.83,-307.209 L 5035.21,-306.791
 L 5036.48,-306.111 L 5037.6,-305.197 L 5038.51,-304.083 L 5039.19,-302.813 L 5039.61,-301.434 L 5039.75,-300
 L 5039.61,-298.566 L 5039.19,-297.187 L 5038.51,-295.917 L 5037.6,-294.803 L 5036.48,-293.889 L 5035.21,-293.209
 L 5033.83,-292.791 L 5032.4,-292.65 z
M 5330.97,-292.791 L 5329.59,-293.209 L 5328.32,-293.889 L 5327.2,-294.803 L 5326.29,-295.917 L 5325.61,-297.187
 L 5325.19,-298.566 L 5325.05,-300 L 5325.19,-301.434 L 5325.61,-302.813 L 5326.29,-304.083 L 5327.2,-305.197
 L 5328.32,-306.111 L 5329.59,-306.791 L 5330.97,-307.209 L 5332.4,-307.35 L 5333.83,-307.209 L 5335.21,-306.791
 L 5336.48,-306.111 L 5337.6,-305.197 L 5338.51,-304.083 L 5339.19,-302.813 L 5339.61,-301.434 L 5339.75,-300
 L 5339.61,-298.566 L 5339.19,-297.187 L 5338.51,-295.917 L 5337.6,-294.803 L 5336.48,-293.889 L 5335.21,-293.209
 L 5333.83,-292.791 L 5332.4,-292.65 z
M 5480.97,-292.791 L 5479.59,-293.209 L 5478.32,-293.889 L 5477.2,-294.803 L 5476.29,-295.917 L 5475.61,-297.187
 L 5475.19,-298.566 L 5475.05,-300 L 5475.19,-301.434 L 5475.61,-302.813 L 5476.29,-304.083 L 5477.2,-305.197
 L 5478.32,-306.111 L 5479.59,-306.791 L 5480.97,-307.209 L 5482.4,-307.35 L 5483.83,-307.209 L 5485.21,-306.791
 L 5486.48,-306.111 L 5487.6,-305.197 L 5488.51,-304.083 L 5489.19,-302.813 L 5489.61,-301.434 L 5489.75,-300
 L 5489.61,-298.566 L 5489.19,-297.187 L 5488.51,-295.917 L 5487.6,-294.803 L 5486.48,-293.889 L 5485.21,-293.209
 L 5483.83,-292.791 L 5482.4,-292.65 z
M 4880.97,-292.791 L 4879.59,-293.209 L 4878.32,-293.889 L 4877.2,-294.803 L 4876.29,-295.917 L 4875.61,-297.187
 L 4875.19,-298.566 L 4875.05,-300 L 4875.19,-301.434 L 4875.61,-302.813 L 4876.29,-304.083 L 4877.2,-305.197
 L 4878.32,-306.111 L 4879.59,-306.791 L 4880.97,-307.209 L 4882.4,-307.35 L 4883.83,-307.209 L 4885.21,-306.791
 L 4886.48,-306.111 L 4887.6,-305.197 L 4888.51,-304.083 L 4889.19,-302.813 L 4889.61,-301.434 L 4889.75,-300
 L 4889.61,-298.566 L 4889.19,-297.187 L 4888.51,-295.917 L 4887.6,-294.803 L 4886.48,-293.889 L 4885.21,-293.209
 L 4883.83,-292.791 L 4882.4,-292.65 z
M 4730.97,-292.791 L 4729.59,-293.209 L 4728.32,-293.889 L 4727.2,-294.803 L 4726.29,-295.917 L 4725.61,-297.187
 L 4725.19,-298.566 L 4725.05,-300 L 4725.19,-301.434 L 4725.61,-302.813 L 4726.29,-304.083 L 4727.2,-305.197
 L 4728.32,-306.111 L 4729.59,-306.791 L 4730.97,-307.209 L 4732.4,-307.35 L 4733.83,-307.209 L 4735.21,-306.791
 L 4736.48,-306.111 L 4737.6,-305.197 L 4738.51,-304.083 L 4739.19,-302.813 L 4739.61,-301.434 L 4739.75,-300
 L 4739.61,-298.566 L 4739.19,-297.187 L 4738.51,-295.917 L 4737.6,-294.803 L 4736.48,-293.889 L 4735.21,-293.209
 L 4733.83,-292.791 L 4732.4,-292.65 z
M 5630.97,-292.791 L 5629.59,-293.209 L 5628.32,-293.889 L 5627.2,-294.803 L 5626.29,-295.917 L 5625.61,-297.187
 L 5625.19,-298.566 L 5625.05,-300 L 5625.19,-301.434 L 5625.61,-302.813 L 5626.29,-304.083 L 5627.2,-305.197
 L 5628.32,-306.111 L 5629.59,-306.791 L 5630.97,-307.209 L 5632.4,-307.35 L 5633.83,-307.209 L 5635.21,-306.791
 L 5636.48,-306.111 L 5637.6,-305.197 L 5638.51,-304.083 L 5639.19,-302.813 L 5639.61,-301.434 L 5639.75,-300
 L 5639.61,-298.566 L 5639.19,-297.187 L 5638.51,-295.917 L 5637.6,-294.803 L 5636.48,-293.889 L 5635.21,-293.209
 L 5633.83,-292.791 L 5632.4,-292.65 z
M 5720.97,-222.791 L 5719.59,-223.209 L 5718.32,-223.889 L 5717.2,-224.803 L 5716.29,-225.917 L 5715.61,-227.187
 L 5715.19,-228.566 L 5715.05,-230 L 5715.19,-231.434 L 5715.61,-232.813 L 5716.29,-234.083 L 5717.2,-235.197
 L 5718.32,-236.111 L 5719.59,-236.791 L 5720.97,-237.209 L 5722.4,-237.35 L 5723.83,-237.209 L 5725.21,-236.791
 L 5726.48,-236.111 L 5727.6,-235.197 L 5728.51,-234.083 L 5729.19,-232.813 L 5729.61,-231.434 L 5729.75,-230
 L 5729.61,-228.566 L 5729.19,-227.187 L 5728.51,-225.917 L 5727.6,-224.803 L 5726.48,-223.889 L 5725.21,-223.209
 L 5723.83,-222.791 L 5722.4,-222.65 z
M 4640.97,-222.791 L 4639.59,-223.209 L 4638.32,-223.889 L 4637.2,-224.803 L 4636.29,-225.917 L 4635.61,-227.187
 L 4635.19,-228.566 L 4635.05,-230 L 4635.19,-231.434 L 4635.61,-232.813 L 4636.29,-234.083 L 4637.2,-235.197
 L 4638.32,-236.111 L 4639.59,-236.791 L 4640.97,-237.209 L 4642.4,-237.35 L 4643.83,-237.209 L 4645.21,-236.791
 L 4646.48,-236.111 L 4647.6,-235.197 L 4648.51,-234.083 L 4649.19,-232.813 L 4649.61,-231.434 L 4649.75,-230
 L 4649.61,-228.566 L 4649.19,-227.187 L 4648.51,-225.917 L 4647.6,-224.803 L 4646.48,-223.889 L 4645.21,-223.209
 L 4643.83,-222.791 L 4642.4,-222.65 z
M 4582.87,-140.291 L 4581.49,-140.709 L 4580.22,-141.389 L 4579.1,-142.303 L 4578.19,-143.417 L 4577.51,-144.687
 L 4577.09,-146.066 L 4576.95,-147.5 L 4577.09,-148.934 L 4577.51,-150.313 L 4578.19,-151.583 L 4579.1,-152.697
 L 4580.22,-153.611 L 4581.49,-154.291 L 4582.87,-154.709 L 4584.3,-154.85 L 4585.73,-154.709 L 4587.11,-154.291
 L 4588.38,-153.611 L 4589.5,-152.697 L 4590.41,-151.583 L 4591.09,-150.313 L 4591.51,-148.934 L 4591.65,-147.5
 L 4591.51,-146.066 L 4591.09,-144.687 L 4590.41,-143.417 L 4589.5,-142.303 L 4588.38,-141.389 L 4587.11,-140.709
 L 4585.73,-140.291 L 4584.3,-140.15 z
M 3637.47,-140.291 L 3636.09,-140.709 L 3634.82,-141.389 L 3633.7,-142.303 L 3632.79,-143.417 L 3632.11,-144.687
 L 3631.69,-146.066 L 3631.55,-147.5 L 3631.69,-148.934 L 3632.11,-150.313 L 3632.79,-151.583 L 3633.7,-152.697
 L 3634.82,-153.611 L 3636.09,-154.291 L 3637.47,-154.709 L 3638.9,-154.85 L 3640.33,-154.709 L 3641.71,-154.291
 L 3642.98,-153.611 L 3644.1,-152.697 L 3645.01,-151.583 L 3645.69,-150.313 L 3646.11,-148.934 L 3646.25,-147.5
 L 3646.11,-146.066 L 3645.69,-144.687 L 3645.01,-143.417 L 3644.1,-142.303 L 3642.98,-141.389 L 3641.71,-140.709
 L 3640.33,-140.291 L 3638.9,-140.15 z
M 5720.97,-122.791 L 5719.59,-123.209 L 5718.32,-123.889 L 5717.2,-124.803 L 5716.29,-125.917 L 5715.61,-127.187
 L 5715.19,-128.566 L 5715.05,-130 L 5715.19,-131.434 L 5715.61,-132.813 L 5716.29,-134.083 L 5717.2,-135.197
 L 5718.32,-136.111 L 5719.59,-136.791 L 5720.97,-137.209 L 5722.4,-137.35 L 5723.83,-137.209 L 5725.21,-136.791
 L 5726.48,-136.111 L 5727.6,-135.197 L 5728.51,-134.083 L 5729.19,-132.813 L 5729.61,-131.434 L 5729.75,-130
 L 5729.61,-128.566 L 5729.19,-127.187 L 5728.51,-125.917 L 5727.6,-124.803 L 5726.48,-123.889 L 5725.21,-123.209
 L 5723.83,-122.791 L 5722.4,-122.65 z
M 4640.97,-122.791 L 4639.59,-123.209 L 4638.32,-123.889 L 4637.2,-124.803 L 4636.29,-125.917 L 4635.61,-127.187
 L 4635.19,-128.566 L 4635.05,-130 L 4635.19,-131.434 L 4635.61,-132.813 L 4636.29,-134.083 L 4637.2,-135.197
 L 4638.32,-136.111 L 4639.59,-136.791 L 4640.97,-137.209 L 4642.4,-137.35 L 4643.83,-137.209 L 4645.21,-136.791
 L 4646.48,-136.111 L 4647.6,-135.197 L 4648.51,-134.083 L 4649.19,-132.813 L 4649.61,-131.434 L 4649.75,-130
 L 4649.61,-128.566 L 4649.19,-127.187 L 4648.51,-125.917 L 4647.6,-124.803 L 4646.48,-123.889 L 4645.21,-123.209
 L 4643.83,-122.791 L 4642.4,-122.65 z
M 5720.97,57.2088 L 5719.59,56.7905 L 5718.32,56.1113 L 5717.2,55.1972 L 5716.29,54.0834 L 5715.61,52.8127
 L 5715.19,51.4339 L 5715.05,50 L 5715.19,48.5661 L 5715.61,47.1873 L 5716.29,45.9165 L 5717.2,44.8028
 L 5718.32,43.8887 L 5719.59,43.2095 L 5720.97,42.7912 L 5722.4,42.65 L 5723.83,42.7912 L 5725.21,43.2095
 L 5726.48,43.8887 L 5727.6,44.8028 L 5728.51,45.9165 L 5729.19,47.1873 L 5729.61,48.5661 L 5729.75,50
 L 5729.61,51.4339 L 5729.19,52.8127 L 5728.51,54.0834 L 5727.6,55.1972 L 5726.48,56.1113 L 5725.21,56.7905
 L 5723.83,57.2088 L 5722.4,57.35 z
M 4640.97,57.2088 L 4639.59,56.7905 L 4638.32,56.1113 L 4637.2,55.1972 L 4636.29,54.0834 L 4635.61,52.8127
 L 4635.19,51.4339 L 4635.05,50 L 4635.19,48.5661 L 4635.61,47.1873 L 4636.29,45.9165 L 4637.2,44.8028
 L 4638.32,43.8887 L 4639.59,43.2095 L 4640.97,42.7912 L 4642.4,42.65 L 4643.83,42.7912 L 4645.21,43.2095
 L 4646.48,43.8887 L 4647.6,44.8028 L 4648.51,45.9165 L 4649.19,47.1873 L 4649.61,48.5661 L 4649.75,50
 L 4649.61,51.4339 L 4649.19,52.8127 L 4648.51,54.0834 L 4647.6,55.1972 L 4646.48,56.1113 L 4645.21,56.7905
 L 4643.83,57.2088 L 4642.4,57.35 z
M 4105.75,119.424 L 4100.12,117.716 L 4094.93,114.944 L 4090.39,111.213 L 4086.66,106.667 L 4083.88,101.48
 L 4082.18,95.8527 L 4081.6,90 L 4082.18,84.1473 L 4083.88,78.5195 L 4086.66,73.3329 L 4090.39,68.7868
 L 4094.93,65.0559 L 4100.12,62.2836 L 4105.75,60.5764 L 4111.6,60 L 4117.45,60.5764 L 4123.08,62.2836
 L 4128.27,65.0559 L 4132.81,68.7868 L 4136.54,73.3329 L 4139.32,78.5195 L 4141.02,84.1473 L 4141.6,90
 L 4141.02,95.8527 L 4139.32,101.48 L 4136.54,106.667 L 4132.81,111.213 L 4128.27,114.944 L 4123.08,117.716
 L 4117.45,119.424 L 4111.6,120 z
M 4305.75,119.424 L 4300.12,117.716 L 4294.93,114.944 L 4290.39,111.213 L 4286.66,106.667 L 4283.88,101.48
 L 4282.18,95.8527 L 4281.6,90 L 4282.18,84.1473 L 4283.88,78.5195 L 4286.66,73.3329 L 4290.39,68.7868
 L 4294.93,65.0559 L 4300.12,62.2836 L 4305.75,60.5764 L 4311.6,60 L 4317.45,60.5764 L 4323.08,62.2836
 L 4328.27,65.0559 L 4332.81,68.7868 L 4336.54,73.3329 L 4339.32,78.5195 L 4341.02,84.1473 L 4341.6,90
 L 4341.02,95.8527 L 4339.32,101.48 L 4336.54,106.667 L 4332.81,111.213 L 4328.27,114.944 L 4323.08,117.716
 L 4317.45,119.424 L 4311.6,120 z
M 3905.75,119.424 L 3900.12,117.716 L 3894.93,114.944 L 3890.39,111.213 L 3886.66,106.667 L 3883.88,101.48
 L 3882.18,95.8527 L 3881.6,90 L 3882.18,84.1473 L 3883.88,78.5195 L 3886.66,73.3329 L 3890.39,68.7868
 L 3894.93,65.0559 L 3900.12,62.2836 L 3905.75,60.5764 L 3911.6,60 L 3917.45,60.5764 L 3923.08,62.2836
 L 3928.27,65.0559 L 3932.81,68.7868 L 3936.54,73.3329 L 3939.32,78.5195 L 3941.02,84.1473 L 3941.6,90
 L 3941.02,95.8527 L 3939.32,101.48 L 3936.54,106.667 L 3932.81,111.213 L 3928.27,114.944 L 3923.08,117.716
 L 3917.45,119.424 L 3911.6,120 z
M 3637.47,134.709 L 3636.09,134.291 L 3634.82,133.611 L 3633.7,132.697 L 3632.79,131.583 L 3632.11,130.313
 L 3631.69,128.934 L 3631.55,127.5 L 3631.69,126.066 L 3632.11,124.687 L 3632.79,123.417 L 3633.7,122.303
 L 3634.82,121.389 L 3636.09,120.709 L 3637.47,120.291 L 3638.9,120.15 L 3640.33,120.291 L 3641.71,120.709
 L 3642.98,121.389 L 3644.1,122.303 L 3645.01,123.417 L 3645.69,124.687 L 3646.11,126.066 L 3646.25,127.5
 L 3646.11,128.934 L 3645.69,130.313 L 3645.01,131.583 L 3644.1,132.697 L 3642.98,133.611 L 3641.71,134.291
 L 3640.33,134.709 L 3638.9,134.85 z
M 4582.87,134.709 L 4581.49,134.291 L 4580.22,133.611 L 4579.1,132.697 L 4578.19,131.583 L 4577.51,130.313
 L 4577.09,128.934 L 4576.95,127.5 L 4577.09,126.066 L 4577.51,124.687 L 4578.19,123.417 L 4579.1,122.303
 L 4580.22,121.389 L 4581.49,120.709 L 4582.87,120.291 L 4584.3,120.15 L 4585.73,120.291 L 4587.11,120.709
 L 4588.38,121.389 L 4589.5,122.303 L 4590.41,123.417 L 4591.09,124.687 L 4591.51,126.066 L 4591.65,127.5
 L 4591.51,128.934 L 4591.09,130.313 L 4590.41,131.583 L 4589.5,132.697 L 4588.38,133.611 L 4587.11,134.291
 L 4585.73,134.709 L 4584.3,134.85 z
M 5720.97,217.209 L 5719.59,216.791 L 5718.32,216.111 L 5717.2,215.197 L 5716.29,214.083 L 5715.61,212.813
 L 5715.19,211.434 L 5715.05,210 L 5715.19,208.566 L 5715.61,207.187 L 5716.29,205.917 L 5717.2,204.803
 L 5718.32,203.889 L 5719.59,203.209 L 5720.97,202.791 L 5722.4,202.65 L 5723.83,202.791 L 5725.21,203.209
 L 5726.48,203.889 L 5727.6,204.803 L 5728.51,205.917 L 5729.19,207.187 L 5729.61,208.566 L 5729.75,210
 L 5729.61,211.434 L 5729.19,212.813 L 5728.51,214.083 L 5727.6,215.197 L 5726.48,216.111 L 5725.21,216.791
 L 5723.83,217.209 L 5722.4,217.35 z
M 4640.97,217.209 L 4639.59,216.791 L 4638.32,216.111 L 4637.2,215.197 L 4636.29,214.083 L 4635.61,212.813
 L 4635.19,211.434 L 4635.05,210 L 4635.19,208.566 L 4635.61,207.187 L 4636.29,205.917 L 4637.2,204.803
 L 4638.32,203.889 L 4639.59,203.209 L 4640.97,202.791 L 4642.4,202.65 L 4643.83,202.791 L 4645.21,203.209
 L 4646.48,203.889 L 4647.6,204.803 L 4648.51,205.917 L 4649.19,207.187 L 4649.61,208.566 L 4649.75,210
 L 4649.61,211.434 L 4649.19,212.813 L 4648.51,214.083 L 4647.6,215.197 L 4646.48,216.111 L 4645.21,216.791
 L 4643.83,217.209 L 4642.4,217.35 z
M 9505.71,-10.2325 L 9507.52,-10.9164 L 9509.1,-12.0119 L 9510.38,-13.4555 L 9511.28,-15.1632 L 9511.8,-18
 L 9511.8,-125.47 L 9511.57,-127.385 L 9510.88,-129.188 L 9509.79,-130.775 L 9507.92,-132.33 L 9465.92,-157.53
 L 9464.15,-158.316 L 9462.26,-158.657 L 9460.33,-158.535 L 9457.68,-157.53 L 9415.68,-132.33 L 9414.16,-131.146
 L 9412.97,-129.632 L 9412.17,-127.876 L 9411.8,-125.47 L 9411.8,-18 L 9412.03,-16.0855 L 9412.72,-14.2822
 L 9413.81,-12.695 L 9415.26,-11.4161 L 9416.96,-10.5199 L 9419.8,-10 L 9503.8,-10 z
M 9453.45,-107.935 L 9453.45,-132.065 L 9470.15,-132.065 L 9470.15,-107.935 z
M 9490.37,-52.7912 L 9488.99,-53.2095 L 9487.72,-53.8887 L 9486.6,-54.8028 L 9485.69,-55.9165 L 9485.01,-57.1873
 L 9484.59,-58.5661 L 9484.45,-60 L 9484.59,-61.4339 L 9485.01,-62.8127 L 9485.69,-64.0834 L 9486.6,-65.1972
 L 9487.72,-66.1113 L 9488.99,-66.7905 L 9490.37,-67.2088 L 9491.8,-67.35 L 9493.23,-67.2088 L 9494.61,-66.7905
 L 9495.88,-66.1113 L 9497,-65.1972 L 9497.91,-64.0834 L 9498.59,-62.8127 L 9499.01,-61.4339 L 9499.15,-60
 L 9499.01,-58.5661 L 9498.59,-57.1873 L 9497.91,-55.9165 L 9497,-54.8028 L 9495.88,-53.8887 L 9494.61,-53.2095
 L 9493.23,-52.7912 L 9491.8,-52.65 z
M 9430.37,-52.7912 L 9428.99,-53.2095 L 9427.72,-53.8887 L 9426.6,-54.8028 L 9425.69,-55.9165 L 9425.01,-57.1873
 L 9424.59,-58.5661 L 9424.45,-60 L 9424.59,-61.4339 L 9425.01,-62.8127 L 9425.69,-64.0834 L 9426.6,-65.1972
 L 9427.72,-66.1113 L 9428.99,-66.7905 L 9430.37,-67.2088 L 9431.8,-67.35 L 9433.23,-67.2088 L 9434.61,-66.7905
 L 9435.88,-66.1113 L 9437,-65.1972 L 9437.91,-64.0834 L 9438.59,-62.8127 L 9439.01,-61.4339 L 9439.15,-60
 L 9439.01,-58.5661 L 9438.59,-57.1873 L 9437.91,-55.9165 L 9437,-54.8028 L 9435.88,-53.8887 L 9434.61,-53.2095
 L 9433.23,-52.7912 L 9431.8,-52.65 z
M 9490.37,-22.7912 L 9488.99,-23.2095 L 9487.72,-23.8887 L 9486.6,-24.8028 L 9485.69,-25.9165 L 9485.01,-27.1873
 L 9484.59,-28.5661 L 9484.45,-30 L 9484.59,-31.4339 L 9485.01,-32.8127 L 9485.69,-34.0834 L 9486.6,-35.1972
 L 9487.72,-36.1113 L 9488.99,-36.7905 L 9490.37,-37.2088 L 9491.8,-37.35 L 9493.23,-37.2088 L 9494.61,-36.7905
 L 9495.88,-36.1113 L 9497,-35.1972 L 9497.91,-34.0834 L 9498.59,-32.8127 L 9499.01,-31.4339 L 9499.15,-30
 L 9499.01,-28.5661 L 9498.59,-27.1873 L 9497.91,-25.9165 L 9497,-24.8028 L 9495.88,-23.8887 L 9494.61,-23.2095
 L 9493.23,-22.7912 L 9491.8,-22.65 z
M 9430.37,-22.7912 L 9428.99,-23.2095 L 9427.72,-23.8887 L 9426.6,-24.8028 L 9425.69,-25.9165 L 9425.01,-27.1873
 L 9424.59,-28.5661 L 9424.45,-30 L 9424.59,-31.4339 L 9425.01,-32.8127 L 9425.69,-34.0834 L 9426.6,-35.1972
 L 9427.72,-36.1113 L 9428.99,-36.7905 L 9430.37,-37.2088 L 9431.8,-37.35 L 9433.23,-37.2088 L 9434.61,-36.7905
 L 9435.88,-36.1113 L 9437,-35.1972 L 9437.91,-34.0834 L 9438.59,-32.8127 L 9439.01,-31.4339 L 9439.15,-30
 L 9439.01,-28.5661 L 9438.59,-27.1873 L 9437.91,-25.9165 L 9437,-24.8028 L 9435.88,-23.8887 L 9434.61,-23.2095
 L 9433.23,-22.7912 L 9431.8,-22.65 z
M 9254.91,-10.2325 L 9256.72,-10.9164 L 9258.3,-12.0119 L 9259.58,-13.4555 L 9260.48,-15.1632 L 9261,-18
 L 9261,-125.47 L 9260.77,-127.385 L 9260.08,-129.188 L 9258.99,-130.775 L 9257.12,-132.33 L 9215.12,-157.53
 L 9213.35,-158.316 L 9211.46,-158.657 L 9209.53,-158.535 L 9206.88,-157.53 L 9164.88,-132.33 L 9163.36,-131.146
 L 9162.17,-129.632 L 9161.37,-127.876 L 9161,-125.47 L 9161,-18 L 9161.23,-16.0855 L 9161.92,-14.2822
 L 9163.01,-12.695 L 9164.46,-11.4161 L 9166.16,-10.5199 L 9169,-10 L 9253,-10 z
M 9202.65,-107.935 L 9202.65,-132.065 L 9219.35,-132.065 L 9219.35,-107.935 z
M 9179.57,-52.7912 L 9178.19,-53.2095 L 9176.92,-53.8887 L 9175.8,-54.8028 L 9174.89,-55.9165 L 9174.21,-57.1873
 L 9173.79,-58.5661 L 9173.65,-60 L 9173.79,-61.4339 L 9174.21,-62.8127 L 9174.89,-64.0834 L 9175.8,-65.1972
 L 9176.92,-66.1113 L 9178.19,-66.7905 L 9179.57,-67.2088 L 9181,-67.35 L 9182.43,-67.2088 L 9183.81,-66.7905
 L 9185.08,-66.1113 L 9186.2,-65.1972 L 9187.11,-64.0834 L 9187.79,-62.8127 L 9188.21,-61.4339 L 9188.35,-60
 L 9188.21,-58.5661 L 9187.79,-57.1873 L 9187.11,-55.9165 L 9186.2,-54.8028 L 9185.08,-53.8887 L 9183.81,-53.2095
 L 9182.43,-52.7912 L 9181,-52.65 z
M 9239.57,-52.7912 L 9238.19,-53.2095 L 9236.92,-53.8887 L 9235.8,-54.8028 L 9234.89,-55.9165 L 9234.21,-57.1873
 L 9233.79,-58.5661 L 9233.65,-60 L 9233.79,-61.4339 L 9234.21,-62.8127 L 9234.89,-64.0834 L 9235.8,-65.1972
 L 9236.92,-66.1113 L 9238.19,-66.7905 L 9239.57,-67.2088 L 9241,-67.35 L 9242.43,-67.2088 L 9243.81,-66.7905
 L 9245.08,-66.1113 L 9246.2,-65.1972 L 9247.11,-64.0834 L 9247.79,-62.8127 L 9248.21,-61.4339 L 9248.35,-60
 L 9248.21,-58.5661 L 9247.79,-57.1873 L 9247.11,-55.9165 L 9246.2,-54.8028 L 9245.08,-53.8887 L 9243.81,-53.2095
 L 9242.43,-52.7912 L 9241,-52.65 z
M 9239.57,-22.7912 L 9238.19,-23.2095 L 9236.92,-23.8887 L 9235.8,-24.8028 L 9234.89,-25.9165 L 9234.21,-27.1873
 L 9233.79,-28.5661 L 9233.65,-30 L 9233.79,-31.4339 L 9234.21,-32.8127 L 9234.89,-34.0834 L 9235.8,-35.1972
 L 9236.92,-36.1113 L 9238.19,-36.7905 L 9239.57,-37.2088 L 9241,-37.35 L 9242.43,-37.2088 L 9243.81,-36.7905
 L 9245.08,-36.1113 L 9246.2,-35.1972 L 9247.11,-34.0834 L 9247.79,-32.8127 L 9248.21,-31.4339 L 9248.35,-30
 L 9248.21,-28.5661 L 9247.79,-27.1873 L 9247.11,-25.9165 L 9246.2,-24.8028 L 9245.08,-23.8887 L 9243.81,-23.2095
 L 9242.43,-22.7912 L 9241,-22.65 z
M 9179.57,-22.7912 L 9178.19,-23.2095 L 9176.92,-23.8887 L 9175.8,-24.8028 L 9174.89,-25.9165 L 9174.21,-27.1873
 L 9173.79,-28.5661 L 9173.65,-30 L 9173.79,-31.4339 L 9174.21,-32.8127 L 9174.89,-34.0834 L 9175.8,-35.1972
 L 9176.92,-36.1113 L 9178.19,-36.7905 L 9179.57,-37.2088 L 9181,-37.35 L 9182.43,-37.2088 L 9183.81,-36.7905
 L 9185.08,-36.1113 L 9186.2,-35.1972 L 9187.11,-34.0834 L 9187.79,-32.8127 L 9188.21,-31.4339 L 9188.35,-30
 L 9188.21,-28.5661 L 9187.79,-27.1873 L 9187.11,-25.9165 L 9186.2,-24.8028 L 9185.08,-23.8887 L 9183.81,-23.2095
 L 9182.43,-22.7912 L 9181,-22.65 z
M 9129.51,-10.2325 L 9131.32,-10.9164 L 9132.9,-12.0119 L 9134.18,-13.4555 L 9135.08,-15.1632 L 9135.6,-18
 L 9135.6,-125.47 L 9135.37,-127.385 L 9134.68,-129.188 L 9133.59,-130.775 L 9131.72,-132.33 L 9089.72,-157.53
 L 9087.95,-158.316 L 9086.06,-158.657 L 9084.13,-158.535 L 9081.48,-157.53 L 9039.48,-132.33 L 9037.96,-131.146
 L 9036.77,-129.632 L 9035.97,-127.876 L 9035.6,-125.47 L 9035.6,-18 L 9035.83,-16.0855 L 9036.52,-14.2822
 L 9037.61,-12.695 L 9039.06,-11.4161 L 9040.76,-10.5199 L 9043.6,-10 L 9127.6,-10 z
M 9077.25,-107.935 L 9077.25,-132.065 L 9093.95,-132.065 L 9093.95,-107.935 z
M 9054.17,-52.7912 L 9052.79,-53.2095 L 9051.52,-53.8887 L 9050.4,-54.8028 L 9049.49,-55.9165 L 9048.81,-57.1873
 L 9048.39,-58.5661 L 9048.25,-60 L 9048.39,-61.4339 L 9048.81,-62.8127 L 9049.49,-64.0834 L 9050.4,-65.1972
 L 9051.52,-66.1113 L 9052.79,-66.7905 L 9054.17,-67.2088 L 9055.6,-67.35 L 9057.03,-67.2088 L 9058.41,-66.7905
 L 9059.68,-66.1113 L 9060.8,-65.1972 L 9061.71,-64.0834 L 9062.39,-62.8127 L 9062.81,-61.4339 L 9062.95,-60
 L 9062.81,-58.5661 L 9062.39,-57.1873 L 9061.71,-55.9165 L 9060.8,-54.8028 L 9059.68,-53.8887 L 9058.41,-53.2095
 L 9057.03,-52.7912 L 9055.6,-52.65 z
M 9114.17,-52.7912 L 9112.79,-53.2095 L 9111.52,-53.8887 L 9110.4,-54.8028 L 9109.49,-55.9165 L 9108.81,-57.1873
 L 9108.39,-58.5661 L 9108.25,-60 L 9108.39,-61.4339 L 9108.81,-62.8127 L 9109.49,-64.0834 L 9110.4,-65.1972
 L 9111.52,-66.1113 L 9112.79,-66.7905 L 9114.17,-67.2088 L 9115.6,-67.35 L 9117.03,-67.2088 L 9118.41,-66.7905
 L 9119.68,-66.1113 L 9120.8,-65.1972 L 9121.71,-64.0834 L 9122.39,-62.8127 L 9122.81,-61.4339 L 9122.95,-60
 L 9122.81,-58.5661 L 9122.39,-57.1873 L 9121.71,-55.9165 L 9120.8,-54.8028 L 9119.68,-53.8887 L 9118.41,-53.2095
 L 9117.03,-52.7912 L 9115.6,-52.65 z
M 9054.17,-22.7912 L 9052.79,-23.2095 L 9051.52,-23.8887 L 9050.4,-24.8028 L 9049.49,-25.9165 L 9048.81,-27.1873
 L 9048.39,-28.5661 L 9048.25,-30 L 9048.39,-31.4339 L 9048.81,-32.8127 L 9049.49,-34.0834 L 9050.4,-35.1972
 L 9051.52,-36.1113 L 9052.79,-36.7905 L 9054.17,-37.2088 L 9055.6,-37.35 L 9057.03,-37.2088 L 9058.41,-36.7905
 L 9059.68,-36.1113 L 9060.8,-35.1972 L 9061.71,-34.0834 L 9062.39,-32.8127 L 9062.81,-31.4339 L 9062.95,-30
 L 9062.81,-28.5661 L 9062.39,-27.1873 L 9061.71,-25.9165 L 9060.8,-24.8028 L 9059.68,-23.8887 L 9058.41,-23.2095
 L 9057.03,-22.7912 L 9055.6,-22.65 z
M 9114.17,-22.7912 L 9112.79,-23.2095 L 9111.52,-23.8887 L 9110.4,-24.8028 L 9109.49,-25.9165 L 9108.81,-27.1873
 L 9108.39,-28.5661 L 9108.25,-30 L 9108.39,-31.4339 L 9108.81,-32.8127 L 9109.49,-34.0834 L 9110.4,-35.1972
 L 9111.52,-36.1113 L 9112.79,-36.7905 L 9114.17,-37.2088 L 9115.6,-37.35 L 9117.03,-37.2088 L 9118.41,-36.7905
 L 9119.68,-36.1113 L 9120.8,-35.1972 L 9121.71,-34.0834 L 9122.39,-32.8127 L 9122.81,-31.4339 L 9122.95,-30
 L 9122.81,-28.5661 L 9122.39,-27.1873 L 9121.71,-25.9165 L 9120.8,-24.8028 L 9119.68,-23.8887 L 9118.41,-23.2095
 L 9117.03,-22.7912 L 9115.6,-22.65 z
M 9380.31,-10.2325 L 9382.12,-10.9164 L 9383.7,-12.0119 L 9384.98,-13.4555 L 9385.88,-15.1632 L 9386.4,-18
 L 9386.4,-125.47 L 9386.17,-127.385 L 9385.48,-129.188 L 9384.39,-130.775 L 9382.52,-132.33 L 9340.52,-157.53
 L 9338.75,-158.316 L 9336.86,-158.657 L 9334.93,-158.535 L 9332.28,-157.53 L 9290.28,-132.33 L 9288.76,-131.146
 L 9287.57,-129.632 L 9286.77,-127.876 L 9286.4,-125.47 L 9286.4,-18 L 9286.63,-16.0855 L 9287.32,-14.2822
 L 9288.41,-12.695 L 9289.86,-11.4161 L 9291.56,-10.5199 L 9294.4,-10 L 9378.4,-10 z
M 9328.05,-107.935 L 9328.05,-132.065 L 9344.75,-132.065 L 9344.75,-107.935 z
M 9304.97,-52.7912 L 9303.59,-53.2095 L 9302.32,-53.8887 L 9301.2,-54.8028 L 9300.29,-55.9165 L 9299.61,-57.1873
 L 9299.19,-58.5661 L 9299.05,-60 L 9299.19,-61.4339 L 9299.61,-62.8127 L 9300.29,-64.0834 L 9301.2,-65.1972
 L 9302.32,-66.1113 L 9303.59,-66.7905 L 9304.97,-67.2088 L 9306.4,-67.35 L 9307.83,-67.2088 L 9309.21,-66.7905
 L 9310.48,-66.1113 L 9311.6,-65.1972 L 9312.51,-64.0834 L 9313.19,-62.8127 L 9313.61,-61.4339 L 9313.75,-60
 L 9313.61,-58.5661 L 9313.19,-57.1873 L 9312.51,-55.9165 L 9311.6,-54.8028 L 9310.48,-53.8887 L 9309.21,-53.2095
 L 9307.83,-52.7912 L 9306.4,-52.65 z
M 9364.97,-52.7912 L 9363.59,-53.2095 L 9362.32,-53.8887 L 9361.2,-54.8028 L 9360.29,-55.9165 L 9359.61,-57.1873
 L 9359.19,-58.5661 L 9359.05,-60 L 9359.19,-61.4339 L 9359.61,-62.8127 L 9360.29,-64.0834 L 9361.2,-65.1972
 L 9362.32,-66.1113 L 9363.59,-66.7905 L 9364.97,-67.2088 L 9366.4,-67.35 L 9367.83,-67.2088 L 9369.21,-66.7905
 L 9370.48,-66.1113 L 9371.6,-65.1972 L 9372.51,-64.0834 L 9373.19,-62.8127 L 9373.61,-61.4339 L 9373.75,-60
 L 9373.61,-58.5661 L 9373.19,-57.1873 L 9372.51,-55.9165 L 9371.6,-54.8028 L 9370.48,-53.8887 L 9369.21,-53.2095
 L 9367.83,-52.7912 L 9366.4,-52.65 z
M 9364.97,-22.7912 L 9363.59,-23.2095 L 9362.32,-23.8887 L 9361.2,-24.8028 L 9360.29,-25.9165 L 9359.61,-27.1873
 L 9359.19,-28.5661 L 9359.05,-30 L 9359.19,-31.4339 L 9359.61,-32.8127 L 9360.29,-34.0834 L 9361.2,-35.1972
 L 9362.32,-36.1113 L 9363.59,-36.7905 L 9364.97,-37.2088 L 9366.4,-37.35 L 9367.83,-37.2088 L 9369.21,-36.7905
 L 9370.48,-36.1113 L 9371.6,-35.1972 L 9372.51,-34.0834 L 9373.19,-32.8127 L 9373.61,-31.4339 L 9373.75,-30
 L 9373.61,-28.5661 L 9373.19,-27.1873 L 9372.51,-25.9165 L 9371.6,-24.8028 L 9370.48,-23.8887 L 9369.21,-23.2095
 L 9367.83,-22.7912 L 9366.4,-22.65 z
M 9304.97,-22.7912 L 9303.59,-23.2095 L 9302.32,-23.8887 L 9301.2,-24.8028 L 9300.29,-25.9165 L 9299.61,-27.1873
 L 9299.19,-28.5661 L 9299.05,-30 L 9299.19,-31.4339 L 9299.61,-32.8127 L 9300.29,-34.0834 L 9301.2,-35.1972
 L 9302.32,-36.1113 L 9303.59,-36.7905 L 9304.97,-37.2088 L 9306.4,-37.35 L 9307.83,-37.2088 L 9309.21,-36.7905
 L 9310.48,-36.1113 L 9311.6,-35.1972 L 9312.51,-34.0834 L 9313.19,-32.8127 L 9313.61,-31.4339 L 9313.75,-30
 L 9313.61,-28.5661 L 9313.19,-27.1873 L 9312.51,-25.9165 L 9311.6,-24.8028 L 9310.48,-23.8887 L 9309.21,-23.2095
 L 9307.83,-22.7912 L 9306.4,-22.65 z
M 9631.11,-10.2325 L 9632.92,-10.9164 L 9634.5,-12.0119 L 9635.78,-13.4555 L 9636.68,-15.1632 L 9637.2,-18
 L 9637.2,-125.47 L 9636.97,-127.385 L 9636.28,-129.188 L 9635.19,-130.775 L 9633.32,-132.33 L 9591.32,-157.53
 L 9589.55,-158.316 L 9587.66,-158.657 L 9585.73,-158.535 L 9583.08,-157.53 L 9541.08,-132.33 L 9539.56,-131.146
 L 9538.37,-129.632 L 9537.57,-127.876 L 9537.2,-125.47 L 9537.2,-18 L 9537.43,-16.0855 L 9538.12,-14.2822
 L 9539.21,-12.695 L 9540.66,-11.4161 L 9542.36,-10.5199 L 9545.2,-10 L 9629.2,-10 z
M 9578.85,-107.935 L 9578.85,-132.065 L 9595.55,-132.065 L 9595.55,-107.935 z
M 9555.77,-52.7912 L 9554.39,-53.2095 L 9553.12,-53.8887 L 9552,-54.8028 L 9551.09,-55.9165 L 9550.41,-57.1873
 L 9549.99,-58.5661 L 9549.85,-60 L 9549.99,-61.4339 L 9550.41,-62.8127 L 9551.09,-64.0834 L 9552,-65.1972
 L 9553.12,-66.1113 L 9554.39,-66.7905 L 9555.77,-67.2088 L 9557.2,-67.35 L 9558.63,-67.2088 L 9560.01,-66.7905
 L 9561.28,-66.1113 L 9562.4,-65.1972 L 9563.31,-64.0834 L 9563.99,-62.8127 L 9564.41,-61.4339 L 9564.55,-60
 L 9564.41,-58.5661 L 9563.99,-57.1873 L 9563.31,-55.9165 L 9562.4,-54.8028 L 9561.28,-53.8887 L 9560.01,-53.2095
 L 9558.63,-52.7912 L 9557.2,-52.65 z
M 9615.77,-52.7912 L 9614.39,-53.2095 L 9613.12,-53.8887 L 9612,-54.8028 L 9611.09,-55.9165 L 9610.41,-57.1873
 L 9609.99,-58.5661 L 9609.85,-60 L 9609.99,-61.4339 L 9610.41,-62.8127 L 9611.09,-64.0834 L 9612,-65.1972
 L 9613.12,-66.1113 L 9614.39,-66.7905 L 9615.77,-67.2088 L 9617.2,-67.35 L 9618.63,-67.2088 L 9620.01,-66.7905
 L 9621.28,-66.1113 L 9622.4,-65.1972 L 9623.31,-64.0834 L 9623.99,-62.8127 L 9624.41,-61.4339 L 9624.55,-60
 L 9624.41,-58.5661 L 9623.99,-57.1873 L 9623.31,-55.9165 L 9622.4,-54.8028 L 9621.28,-53.8887 L 9620.01,-53.2095
 L 9618.63,-52.7912 L 9617.2,-52.65 z
M 9555.77,-22.7912 L 9554.39,-23.2095 L 9553.12,-23.8887 L 9552,-24.8028 L 9551.09,-25.9165 L 9550.41,-27.1873
 L 9549.99,-28.5661 L 9549.85,-30 L 9549.99,-31.4339 L 9550.41,-32.8127 L 9551.09,-34.0834 L 9552,-35.1972
 L 9553.12,-36.1113 L 9554.39,-36.7905 L 9555.77,-37.2088 L 9557.2,-37.35 L 9558.63,-37.2088 L 9560.01,-36.7905
 L 9561.28,-36.1113 L 9562.4,-35.1972 L 9563.31,-34.0834 L 9563.99,-32.8127 L 9564.41,-31.4339 L 9564.55,-30
 L 9564.41,-28.5661 L 9563.99,-27.1873 L 9563.31,-25.9165 L 9562.4,-24.8028 L 9561.28,-23.8887 L 9560.01,-23.2095
 L 9558.63,-22.7912 L 9557.2,-22.65 z
M 9615.77,-22.7912 L 9614.39,-23.2095 L 9613.12,-23.8887 L 9612,-24.8028 L 9611.09,-25.9165 L 9610.41,-27.1873
 L 9609.99,-28.5661 L 9609.85,-30 L 9609.99,-31.4339 L 9610.41,-32.8127 L 9611.09,-34.0834 L 9612,-35.1972
 L 9613.12,-36.1113 L 9614.39,-36.7905 L 9615.77,-37.2088 L 9617.2,-37.35 L 9618.63,-37.2088 L 9620.01,-36.7905
 L 9621.28,-36.1113 L 9622.4,-35.1972 L 9623.31,-34.0834 L 9623.99,-32.8127 L 9624.41,-31.4339 L 9624.55,-30
 L 9624.41,-28.5661 L 9623.99,-27.1873 L 9623.31,-25.9165 L 9622.4,-24.8028 L 9621.28,-23.8887 L 9620.01,-23.2095
 L 9618.63,-22.7912 L 9617.2,-22.65 z
M 9756.51,-10.2325 L 9758.32,-10.9164 L 9759.9,-12.0119 L 9761.18,-13.4555 L 9762.08,-15.1632 L 9762.6,-18
 L 9762.6,-125.47 L 9762.37,-127.385 L 9761.68,-129.188 L 9760.59,-130.775 L 9758.72,-132.33 L 9716.72,-157.53
 L 9714.95,-158.316 L 9713.06,-158.657 L 9711.13,-158.535 L 9708.48,-157.53 L 9666.48,-132.33 L 9664.96,-131.146
 L 9663.77,-129.632 L 9662.97,-127.876 L 9662.6,-125.47 L 9662.6,-18 L 9662.83,-16.0855 L 9663.52,-14.2822
 L 9664.61,-12.695 L 9666.06,-11.4161 L 9667.76,-10.5199 L 9670.6,-10 L 9754.6,-10 z
M 9704.25,-107.935 L 9704.25,-132.065 L 9720.95,-132.065 L 9720.95,-107.935 z
M 9741.17,-52.7912 L 9739.79,-53.2095 L 9738.52,-53.8887 L 9737.4,-54.8028 L 9736.49,-55.9165 L 9735.81,-57.1873
 L 9735.39,-58.5661 L 9735.25,-60 L 9735.39,-61.4339 L 9735.81,-62.8127 L 9736.49,-64.0834 L 9737.4,-65.1972
 L 9738.52,-66.1113 L 9739.79,-66.7905 L 9741.17,-67.2088 L 9742.6,-67.35 L 9744.03,-67.2088 L 9745.41,-66.7905
 L 9746.68,-66.1113 L 9747.8,-65.1972 L 9748.71,-64.0834 L 9749.39,-62.8127 L 9749.81,-61.4339 L 9749.95,-60
 L 9749.81,-58.5661 L 9749.39,-57.1873 L 9748.71,-55.9165 L 9747.8,-54.8028 L 9746.68,-53.8887 L 9745.41,-53.2095
 L 9744.03,-52.7912 L 9742.6,-52.65 z
M 9681.17,-52.7912 L 9679.79,-53.2095 L 9678.52,-53.8887 L 9677.4,-54.8028 L 9676.49,-55.9165 L 9675.81,-57.1873
 L 9675.39,-58.5661 L 9675.25,-60 L 9675.39,-61.4339 L 9675.81,-62.8127 L 9676.49,-64.0834 L 9677.4,-65.1972
 L 9678.52,-66.1113 L 9679.79,-66.7905 L 9681.17,-67.2088 L 9682.6,-67.35 L 9684.03,-67.2088 L 9685.41,-66.7905
 L 9686.68,-66.1113 L 9687.8,-65.1972 L 9688.71,-64.0834 L 9689.39,-62.8127 L 9689.81,-61.4339 L 9689.95,-60
 L 9689.81,-58.5661 L 9689.39,-57.1873 L 9688.71,-55.9165 L 9687.8,-54.8028 L 9686.68,-53.8887 L 9685.41,-53.2095
 L 9684.03,-52.7912 L 9682.6,-52.65 z
M 9741.17,-22.7912 L 9739.79,-23.2095 L 9738.52,-23.8887 L 9737.4,-24.8028 L 9736.49,-25.9165 L 9735.81,-27.1873
 L 9735.39,-28.5661 L 9735.25,-30 L 9735.39,-31.4339 L 9735.81,-32.8127 L 9736.49,-34.0834 L 9737.4,-35.1972
 L 9738.52,-36.1113 L 9739.79,-36.7905 L 9741.17,-37.2088 L 9742.6,-37.35 L 9744.03,-37.2088 L 9745.41,-36.7905
 L 9746.68,-36.1113 L 9747.8,-35.1972 L 9748.71,-34.0834 L 9749.39,-32.8127 L 9749.81,-31.4339 L 9749.95,-30
 L 9749.81,-28.5661 L 9749.39,-27.1873 L 9748.71,-25.9165 L 9747.8,-24.8028 L 9746.68,-23.8887 L 9745.41,-23.2095
 L 9744.03,-22.7912 L 9742.6,-22.65 z
M 9681.17,-22.7912 L 9679.79,-23.2095 L 9678.52,-23.8887 L 9677.4,-24.8028 L 9676.49,-25.9165 L 9675.81,-27.1873
 L 9675.39,-28.5661 L 9675.25,-30 L 9675.39,-31.4339 L 9675.81,-32.8127 L 9676.49,-34.0834 L 9677.4,-35.1972
 L 9678.52,-36.1113 L 9679.79,-36.7905 L 9681.17,-37.2088 L 9682.6,-37.35 L 9684.03,-37.2088 L 9685.41,-36.7905
 L 9686.68,-36.1113 L 9687.8,-35.1972 L 9688.71,-34.0834 L 9689.39,-32.8127 L 9689.81,-31.4339 L 9689.95,-30
 L 9689.81,-28.5661 L 9689.39,-27.1873 L 9688.71,-25.9165 L 9687.8,-24.8028 L 9686.68,-23.8887 L 9685.41,-23.2095
 L 9684.03,-22.7912 L 9682.6,-22.65 z
M 8101.08,114.781 L 8103.07,114.135 L 8104.88,113.09 L 8106.43,111.691 L 8107.66,110 L 8108.51,108.09
 L 8109,105 L 8109,-125 L 8108.78,-127.079 L 8108.14,-129.067 L 8107.09,-130.878 L 8105.69,-132.431
 L 8104,-133.66 L 8102.09,-134.511 L 8099,-135 L 7869,-135 L 7866.92,-134.781 L 7864.93,-134.135
 L 7863.12,-133.09 L 7861.57,-131.691 L 7860.34,-130 L 7859.49,-128.09 L 7859,-125 L 7859,105
 L 7859.22,107.079 L 7859.86,109.067 L 7860.91,110.878 L 7862.31,112.431 L 7864,113.66 L 7865.91,114.511
 L 7869,115 L 8099,115 z
M 8077.57,-97.7912 L 8076.19,-98.2095 L 8074.92,-98.8887 L 8073.8,-99.8028 L 8072.89,-100.917 L 8072.21,-102.187
 L 8071.79,-103.566 L 8071.65,-105 L 8071.79,-106.434 L 8072.21,-107.813 L 8072.89,-109.083 L 8073.8,-110.197
 L 8074.92,-111.111 L 8076.19,-111.791 L 8077.57,-112.209 L 8079,-112.35 L 8080.43,-112.209 L 8081.81,-111.791
 L 8083.08,-111.111 L 8084.2,-110.197 L 8085.11,-109.083 L 8085.79,-107.813 L 8086.21,-106.434 L 8086.35,-105
 L 8086.21,-103.566 L 8085.79,-102.187 L 8085.11,-100.917 L 8084.2,-99.8028 L 8083.08,-98.8887 L 8081.81,-98.2095
 L 8080.43,-97.7912 L 8079,-97.65 z
M 7887.57,-97.7912 L 7886.19,-98.2095 L 7884.92,-98.8887 L 7883.8,-99.8028 L 7882.89,-100.917 L 7882.21,-102.187
 L 7881.79,-103.566 L 7881.65,-105 L 7881.79,-106.434 L 7882.21,-107.813 L 7882.89,-109.083 L 7883.8,-110.197
 L 7884.92,-111.111 L 7886.19,-111.791 L 7887.57,-112.209 L 7889,-112.35 L 7890.43,-112.209 L 7891.81,-111.791
 L 7893.08,-111.111 L 7894.2,-110.197 L 7895.11,-109.083 L 7895.79,-107.813 L 7896.21,-106.434 L 7896.35,-105
 L 7896.21,-103.566 L 7895.79,-102.187 L 7895.11,-100.917 L 7894.2,-99.8028 L 7893.08,-98.8887 L 7891.81,-98.2095
 L 7890.43,-97.7912 L 7889,-97.65 z
M 7981.95,-89.6772 L 7979.97,-90.2762 L 7978.15,-91.2488 L 7976.56,-92.5577 L 7975.25,-94.1526 L 7974.28,-95.9722
 L 7973.68,-97.9467 L 7973.47,-100 L 7973.68,-102.053 L 7974.28,-104.028 L 7975.25,-105.847 L 7976.56,-107.442
 L 7978.15,-108.751 L 7979.97,-109.724 L 7981.95,-110.323 L 7984,-110.525 L 7986.05,-110.323 L 7988.03,-109.724
 L 7989.85,-108.751 L 7991.44,-107.442 L 7992.75,-105.847 L 7993.72,-104.028 L 7994.32,-102.053 L 7994.52,-100
 L 7994.32,-97.9467 L 7993.72,-95.9722 L 7992.75,-94.1526 L 7991.44,-92.5577 L 7989.85,-91.2488 L 7988.03,-90.2762
 L 7986.05,-89.6772 L 7984,-89.475 z
M 7918.31,-63.3168 L 7916.33,-63.9158 L 7914.51,-64.8884 L 7912.92,-66.1973 L 7911.61,-67.7922 L 7910.64,-69.6119
 L 7910.04,-71.5863 L 7909.84,-73.6396 L 7910.04,-75.6929 L 7910.64,-77.6673 L 7911.61,-79.487 L 7912.92,-81.0819
 L 7914.51,-82.3908 L 7916.33,-83.3634 L 7918.31,-83.9624 L 7920.36,-84.1646 L 7922.41,-83.9624 L 7924.39,-83.3634
 L 7926.21,-82.3908 L 7927.8,-81.0819 L 7929.11,-79.487 L 7930.08,-77.6673 L 7930.68,-75.6929 L 7930.89,-73.6396
 L 7930.68,-71.5863 L 7930.08,-69.6119 L 7929.11,-67.7922 L 7927.8,-66.1973 L 7926.21,-64.8884 L 7924.39,-63.9158
 L 7922.41,-63.3168 L 7920.36,-63.1146 z
M 8045.59,-63.3168 L 8043.61,-63.9158 L 8041.79,-64.8884 L 8040.2,-66.1973 L 8038.89,-67.7922 L 8037.92,-69.6119
 L 8037.32,-71.5863 L 8037.11,-73.6396 L 8037.32,-75.6929 L 8037.92,-77.6673 L 8038.89,-79.487 L 8040.2,-81.0819
 L 8041.79,-82.3908 L 8043.61,-83.3634 L 8045.59,-83.9624 L 8047.64,-84.1646 L 8049.69,-83.9624 L 8051.67,-83.3634
 L 8053.49,-82.3908 L 8055.08,-81.0819 L 8056.39,-79.487 L 8057.36,-77.6673 L 8057.96,-75.6929 L 8058.16,-73.6396
 L 8057.96,-71.5863 L 8057.36,-69.6119 L 8056.39,-67.7922 L 8055.08,-66.1973 L 8053.49,-64.8884 L 8051.67,-63.9158
 L 8049.69,-63.3168 L 8047.64,-63.1146 z
M 7978.78,29.6578 L 7973.65,28.637 L 7968.69,26.9552 L 7964,24.641 L 7959.65,21.7341 L 7955.72,18.2843
 L 7952.27,14.3504 L 7949.36,10 L 7947.04,5.30733 L 7945.36,0.352753 L 7944.34,-4.77895 L 7944,-10
 L 7944.34,-15.221 L 7945.36,-20.3528 L 7947.04,-25.3073 L 7949.36,-30 L 7952.27,-34.3504 L 7955.72,-38.2843
 L 7959.65,-41.7341 L 7964,-44.641 L 7968.69,-46.9552 L 7973.65,-48.637 L 7978.78,-49.6578 L 7984,-50
 L 7989.22,-49.6578 L 7994.35,-48.637 L 7999.31,-46.9552 L 8004,-44.641 L 8008.35,-41.7341 L 8012.28,-38.2843
 L 8015.73,-34.3504 L 8018.64,-30 L 8020.96,-25.3073 L 8022.64,-20.3528 L 8023.66,-15.221 L 8024,-10
 L 8023.66,-4.77895 L 8022.64,0.352753 L 8020.96,5.30733 L 8018.64,10 L 8015.73,14.3504 L 8012.28,18.2843
 L 8008.35,21.7341 L 8004,24.641 L 7999.31,26.9552 L 7994.35,28.637 L 7989.22,29.6578 L 7984,30
 z
M 8071.95,0.322754 L 8069.97,-0.276169 L 8068.15,-1.24878 L 8066.56,-2.55769 L 8065.25,-4.15262 L 8064.28,-5.97224
 L 8063.68,-7.94667 L 8063.47,-10 L 8063.68,-12.0533 L 8064.28,-14.0277 L 8065.25,-15.8474 L 8066.56,-17.4423
 L 8068.15,-18.7512 L 8069.97,-19.7238 L 8071.95,-20.3228 L 8074,-20.525 L 8076.05,-20.3228 L 8078.03,-19.7238
 L 8079.85,-18.7512 L 8081.44,-17.4423 L 8082.75,-15.8474 L 8083.72,-14.0277 L 8084.32,-12.0533 L 8084.52,-10
 L 8084.32,-7.94667 L 8083.72,-5.97224 L 8082.75,-4.15262 L 8081.44,-2.55769 L 8079.85,-1.24878 L 8078.03,-0.276169
 L 8076.05,0.322754 L 8074,0.524994 z
M 7891.95,0.322754 L 7889.97,-0.276169 L 7888.15,-1.24878 L 7886.56,-2.55769 L 7885.25,-4.15262 L 7884.28,-5.97224
 L 7883.68,-7.94667 L 7883.47,-10 L 7883.68,-12.0533 L 7884.28,-14.0277 L 7885.25,-15.8474 L 7886.56,-17.4423
 L 7888.15,-18.7512 L 7889.97,-19.7238 L 7891.95,-20.3228 L 7894,-20.525 L 7896.05,-20.3228 L 7898.03,-19.7238
 L 7899.85,-18.7512 L 7901.44,-17.4423 L 7902.75,-15.8474 L 7903.72,-14.0277 L 7904.32,-12.0533 L 7904.52,-10
 L 7904.32,-7.94667 L 7903.72,-5.97224 L 7902.75,-4.15262 L 7901.44,-2.55769 L 7899.85,-1.24878 L 7898.03,-0.276169
 L 7896.05,0.322754 L 7894,0.524994 z
M 7918.31,63.9624 L 7916.33,63.3634 L 7914.51,62.3908 L 7912.92,61.0819 L 7911.61,59.487 L 7910.64,57.6673
 L 7910.04,55.6929 L 7909.84,53.6396 L 7910.04,51.5863 L 7910.64,49.6119 L 7911.61,47.7922 L 7912.92,46.1973
 L 7914.51,44.8884 L 7916.33,43.9158 L 7918.31,43.3168 L 7920.36,43.1146 L 7922.41,43.3168 L 7924.39,43.9158
 L 7926.21,44.8884 L 7927.8,46.1973 L 7929.11,47.7922 L 7930.08,49.6119 L 7930.68,51.5863 L 7930.89,53.6396
 L 7930.68,55.6929 L 7930.08,57.6673 L 7929.11,59.487 L 7927.8,61.0819 L 7926.21,62.3908 L 7924.39,63.3634
 L 7922.41,63.9624 L 7920.36,64.1646 z
M 8045.59,63.9624 L 8043.61,63.3634 L 8041.79,62.3908 L 8040.2,61.0819 L 8038.89,59.487 L 8037.92,57.6673
 L 8037.32,55.6929 L 8037.11,53.6396 L 8037.32,51.5863 L 8037.92,49.6119 L 8038.89,47.7922 L 8040.2,46.1973
 L 8041.79,44.8884 L 8043.61,43.9158 L 8045.59,43.3168 L 8047.64,43.1146 L 8049.69,43.3168 L 8051.67,43.9158
 L 8053.49,44.8884 L 8055.08,46.1973 L 8056.39,47.7922 L 8057.36,49.6119 L 8057.96,51.5863 L 8058.16,53.6396
 L 8057.96,55.6929 L 8057.36,57.6673 L 8056.39,59.487 L 8055.08,61.0819 L 8053.49,62.3908 L 8051.67,63.3634
 L 8049.69,63.9624 L 8047.64,64.1646 z
M 7981.95,90.3228 L 7979.97,89.7238 L 7978.15,88.7512 L 7976.56,87.4423 L 7975.25,85.8474 L 7974.28,84.0277
 L 7973.68,82.0533 L 7973.47,80 L 7973.68,77.9467 L 7974.28,75.9722 L 7975.25,74.1526 L 7976.56,72.5577
 L 7978.15,71.2488 L 7979.97,70.2762 L 7981.95,69.6772 L 7984,69.475 L 7986.05,69.6772 L 7988.03,70.2762
 L 7989.85,71.2488 L 7991.44,72.5577 L 7992.75,74.1526 L 7993.72,75.9722 L 7994.32,77.9467 L 7994.52,80
 L 7994.32,82.0533 L 7993.72,84.0277 L 7992.75,85.8474 L 7991.44,87.4423 L 7989.85,88.7512 L 7988.03,89.7238
 L 7986.05,90.3228 L 7984,90.525 z
M 8077.57,92.2088 L 8076.19,91.7905 L 8074.92,91.1113 L 8073.8,90.1972 L 8072.89,89.0834 L 8072.21,87.8127
 L 8071.79,86.4339 L 8071.65,85 L 8071.79,83.5661 L 8072.21,82.1873 L 8072.89,80.9165 L 8073.8,79.8028
 L 8074.92,78.8887 L 8076.19,78.2095 L 8077.57,77.7912 L 8079,77.65 L 8080.43,77.7912 L 8081.81,78.2095
 L 8083.08,78.8887 L 8084.2,79.8028 L 8085.11,80.9165 L 8085.79,82.1873 L 8086.21,83.5661 L 8086.35,85
 L 8086.21,86.4339 L 8085.79,87.8127 L 8085.11,89.0834 L 8084.2,90.1972 L 8083.08,91.1113 L 8081.81,91.7905
 L 8080.43,92.2088 L 8079,92.35 z
M 7887.57,92.2088 L 7886.19,91.7905 L 7884.92,91.1113 L 7883.8,90.1972 L 7882.89,89.0834 L 7882.21,87.8127
 L 7881.79,86.4339 L 7881.65,85 L 7881.79,83.5661 L 7882.21,82.1873 L 7882.89,80.9165 L 7883.8,79.8028
 L 7884.92,78.8887 L 7886.19,78.2095 L 7887.57,77.7912 L 7889,77.65 L 7890.43,77.7912 L 7891.81,78.2095
 L 7893.08,78.8887 L 7894.2,79.8028 L 7895.11,80.9165 L 7895.79,82.1873 L 7896.21,83.5661 L 7896.35,85
 L 7896.21,86.4339 L 7895.79,87.8127 L 7895.11,89.0834 L 7894.2,90.1972 L 7893.08,91.1113 L 7891.81,91.7905
 L 7890.43,92.2088 L 7889,92.35 z
M 8651.88,114.781 L 8653.87,114.135 L 8655.68,113.09 L 8657.23,111.691 L 8658.46,110 L 8659.31,108.09
 L 8659.8,105 L 8659.8,-125 L 8659.58,-127.079 L 8658.94,-129.067 L 8657.89,-130.878 L 8656.49,-132.431
 L 8654.8,-133.66 L 8652.89,-134.511 L 8649.8,-135 L 8419.8,-135 L 8417.72,-134.781 L 8415.73,-134.135
 L 8413.92,-133.09 L 8412.37,-131.691 L 8411.14,-130 L 8410.29,-128.09 L 8409.8,-125 L 8409.8,105
 L 8410.02,107.079 L 8410.66,109.067 L 8411.71,110.878 L 8413.11,112.431 L 8414.8,113.66 L 8416.71,114.511
 L 8419.8,115 L 8649.8,115 z
M 8628.37,-97.7912 L 8626.99,-98.2095 L 8625.72,-98.8887 L 8624.6,-99.8028 L 8623.69,-100.917 L 8623.01,-102.187
 L 8622.59,-103.566 L 8622.45,-105 L 8622.59,-106.434 L 8623.01,-107.813 L 8623.69,-109.083 L 8624.6,-110.197
 L 8625.72,-111.111 L 8626.99,-111.791 L 8628.37,-112.209 L 8629.8,-112.35 L 8631.23,-112.209 L 8632.61,-111.791
 L 8633.88,-111.111 L 8635,-110.197 L 8635.91,-109.083 L 8636.59,-107.813 L 8637.01,-106.434 L 8637.15,-105
 L 8637.01,-103.566 L 8636.59,-102.187 L 8635.91,-100.917 L 8635,-99.8028 L 8633.88,-98.8887 L 8632.61,-98.2095
 L 8631.23,-97.7912 L 8629.8,-97.65 z
M 8438.37,-97.7912 L 8436.99,-98.2095 L 8435.72,-98.8887 L 8434.6,-99.8028 L 8433.69,-100.917 L 8433.01,-102.187
 L 8432.59,-103.566 L 8432.45,-105 L 8432.59,-106.434 L 8433.01,-107.813 L 8433.69,-109.083 L 8434.6,-110.197
 L 8435.72,-111.111 L 8436.99,-111.791 L 8438.37,-112.209 L 8439.8,-112.35 L 8441.23,-112.209 L 8442.61,-111.791
 L 8443.88,-111.111 L 8445,-110.197 L 8445.91,-109.083 L 8446.59,-107.813 L 8447.01,-106.434 L 8447.15,-105
 L 8447.01,-103.566 L 8446.59,-102.187 L 8445.91,-100.917 L 8445,-99.8028 L 8443.88,-98.8887 L 8442.61,-98.2095
 L 8441.23,-97.7912 L 8439.8,-97.65 z
M 8532.75,-89.6772 L 8530.77,-90.2762 L 8528.95,-91.2488 L 8527.36,-92.5577 L 8526.05,-94.1526 L 8525.08,-95.9722
 L 8524.48,-97.9467 L 8524.27,-100 L 8524.48,-102.053 L 8525.08,-104.028 L 8526.05,-105.847 L 8527.36,-107.442
 L 8528.95,-108.751 L 8530.77,-109.724 L 8532.75,-110.323 L 8534.8,-110.525 L 8536.85,-110.323 L 8538.83,-109.724
 L 8540.65,-108.751 L 8542.24,-107.442 L 8543.55,-105.847 L 8544.52,-104.028 L 8545.12,-102.053 L 8545.32,-100
 L 8545.12,-97.9467 L 8544.52,-95.9722 L 8543.55,-94.1526 L 8542.24,-92.5577 L 8540.65,-91.2488 L 8538.83,-90.2762
 L 8536.85,-89.6772 L 8534.8,-89.475 z
M 8596.39,-63.3168 L 8594.41,-63.9158 L 8592.59,-64.8884 L 8591,-66.1973 L 8589.69,-67.7922 L 8588.72,-69.6119
 L 8588.12,-71.5863 L 8587.91,-73.6396 L 8588.12,-75.6929 L 8588.72,-77.6673 L 8589.69,-79.487 L 8591,-81.0819
 L 8592.59,-82.3908 L 8594.41,-83.3634 L 8596.39,-83.9624 L 8598.44,-84.1646 L 8600.49,-83.9624 L 8602.47,-83.3634
 L 8604.29,-82.3908 L 8605.88,-81.0819 L 8607.19,-79.487 L 8608.16,-77.6673 L 8608.76,-75.6929 L 8608.96,-73.6396
 L 8608.76,-71.5863 L 8608.16,-69.6119 L 8607.19,-67.7922 L 8605.88,-66.1973 L 8604.29,-64.8884 L 8602.47,-63.9158
 L 8600.49,-63.3168 L 8598.44,-63.1146 z
M 8469.11,-63.3168 L 8467.13,-63.9158 L 8465.31,-64.8884 L 8463.72,-66.1973 L 8462.41,-67.7922 L 8461.44,-69.6119
 L 8460.84,-71.5863 L 8460.64,-73.6396 L 8460.84,-75.6929 L 8461.44,-77.6673 L 8462.41,-79.487 L 8463.72,-81.0819
 L 8465.31,-82.3908 L 8467.13,-83.3634 L 8469.11,-83.9624 L 8471.16,-84.1646 L 8473.21,-83.9624 L 8475.19,-83.3634
 L 8477.01,-82.3908 L 8478.6,-81.0819 L 8479.91,-79.487 L 8480.88,-77.6673 L 8481.48,-75.6929 L 8481.69,-73.6396
 L 8481.48,-71.5863 L 8480.88,-69.6119 L 8479.91,-67.7922 L 8478.6,-66.1973 L 8477.01,-64.8884 L 8475.19,-63.9158
 L 8473.21,-63.3168 L 8471.16,-63.1146 z
M 8529.58,29.6578 L 8524.45,28.637 L 8519.49,26.9552 L 8514.8,24.641 L 8510.45,21.7341 L 8506.52,18.2843
 L 8503.07,14.3504 L 8500.16,10 L 8497.84,5.30733 L 8496.16,0.352753 L 8495.14,-4.77895 L 8494.8,-10
 L 8495.14,-15.221 L 8496.16,-20.3528 L 8497.84,-25.3073 L 8500.16,-30 L 8503.07,-34.3504 L 8506.52,-38.2843
 L 8510.45,-41.7341 L 8514.8,-44.641 L 8519.49,-46.9552 L 8524.45,-48.637 L 8529.58,-49.6578 L 8534.8,-50
 L 8540.02,-49.6578 L 8545.15,-48.637 L 8550.11,-46.9552 L 8554.8,-44.641 L 8559.15,-41.7341 L 8563.08,-38.2843
 L 8566.53,-34.3504 L 8569.44,-30 L 8571.76,-25.3073 L 8573.44,-20.3528 L 8574.46,-15.221 L 8574.8,-10
 L 8574.46,-4.77895 L 8573.44,0.352753 L 8571.76,5.30733 L 8569.44,10 L 8566.53,14.3504 L 8563.08,18.2843
 L 8559.15,21.7341 L 8554.8,24.641 L 8550.11,26.9552 L 8545.15,28.637 L 8540.02,29.6578 L 8534.8,30
 z
M 8622.75,0.322754 L 8620.77,-0.276169 L 8618.95,-1.24878 L 8617.36,-2.55769 L 8616.05,-4.15262 L 8615.08,-5.97224
 L 8614.48,-7.94667 L 8614.27,-10 L 8614.48,-12.0533 L 8615.08,-14.0277 L 8616.05,-15.8474 L 8617.36,-17.4423
 L 8618.95,-18.7512 L 8620.77,-19.7238 L 8622.75,-20.3228 L 8624.8,-20.525 L 8626.85,-20.3228 L 8628.83,-19.7238
 L 8630.65,-18.7512 L 8632.24,-17.4423 L 8633.55,-15.8474 L 8634.52,-14.0277 L 8635.12,-12.0533 L 8635.32,-10
 L 8635.12,-7.94667 L 8634.52,-5.97224 L 8633.55,-4.15262 L 8632.24,-2.55769 L 8630.65,-1.24878 L 8628.83,-0.276169
 L 8626.85,0.322754 L 8624.8,0.524994 z
M 8442.75,0.322754 L 8440.77,-0.276169 L 8438.95,-1.24878 L 8437.36,-2.55769 L 8436.05,-4.15262 L 8435.08,-5.97224
 L 8434.48,-7.94667 L 8434.27,-10 L 8434.48,-12.0533 L 8435.08,-14.0277 L 8436.05,-15.8474 L 8437.36,-17.4423
 L 8438.95,-18.7512 L 8440.77,-19.7238 L 8442.75,-20.3228 L 8444.8,-20.525 L 8446.85,-20.3228 L 8448.83,-19.7238
 L 8450.65,-18.7512 L 8452.24,-17.4423 L 8453.55,-15.8474 L 8454.52,-14.0277 L 8455.12,-12.0533 L 8455.32,-10
 L 8455.12,-7.94667 L 8454.52,-5.97224 L 8453.55,-4.15262 L 8452.24,-2.55769 L 8450.65,-1.24878 L 8448.83,-0.276169
 L 8446.85,0.322754 L 8444.8,0.524994 z
M 8469.11,63.9624 L 8467.13,63.3634 L 8465.31,62.3908 L 8463.72,61.0819 L 8462.41,59.487 L 8461.44,57.6673
 L 8460.84,55.6929 L 8460.64,53.6396 L 8460.84,51.5863 L 8461.44,49.6119 L 8462.41,47.7922 L 8463.72,46.1973
 L 8465.31,44.8884 L 8467.13,43.9158 L 8469.11,43.3168 L 8471.16,43.1146 L 8473.21,43.3168 L 8475.19,43.9158
 L 8477.01,44.8884 L 8478.6,46.1973 L 8479.91,47.7922 L 8480.88,49.6119 L 8481.48,51.5863 L 8481.69,53.6396
 L 8481.48,55.6929 L 8480.88,57.6673 L 8479.91,59.487 L 8478.6,61.0819 L 8477.01,62.3908 L 8475.19,63.3634
 L 8473.21,63.9624 L 8471.16,64.1646 z
M 8596.39,63.9624 L 8594.41,63.3634 L 8592.59,62.3908 L 8591,61.0819 L 8589.69,59.487 L 8588.72,57.6673
 L 8588.12,55.6929 L 8587.91,53.6396 L 8588.12,51.5863 L 8588.72,49.6119 L 8589.69,47.7922 L 8591,46.1973
 L 8592.59,44.8884 L 8594.41,43.9158 L 8596.39,43.3168 L 8598.44,43.1146 L 8600.49,43.3168 L 8602.47,43.9158
 L 8604.29,44.8884 L 8605.88,46.1973 L 8607.19,47.7922 L 8608.16,49.6119 L 8608.76,51.5863 L 8608.96,53.6396
 L 8608.76,55.6929 L 8608.16,57.6673 L 8607.19,59.487 L 8605.88,61.0819 L 8604.29,62.3908 L 8602.47,63.3634
 L 8600.49,63.9624 L 8598.44,64.1646 z
M 8532.75,90.3228 L 8530.77,89.7238 L 8528.95,88.7512 L 8527.36,87.4423 L 8526.05,85.8474 L 8525.08,84.0277
 L 8524.48,82.0533 L 8524.27,80 L 8524.48,77.9467 L 8525.08,75.9722 L 8526.05,74.1526 L 8527.36,72.5577
 L 8528.95,71.2488 L 8530.77,70.2762 L 8532.75,69.6772 L 8534.8,69.475 L 8536.85,69.6772 L 8538.83,70.2762
 L 8540.65,71.2488 L 8542.24,72.5577 L 8543.55,74.1526 L 8544.52,75.9722 L 8545.12,77.9467 L 8545.32,80
 L 8545.12,82.0533 L 8544.52,84.0277 L 8543.55,85.8474 L 8542.24,87.4423 L 8540.65,88.7512 L 8538.83,89.7238
 L 8536.85,90.3228 L 8534.8,90.525 z
M 8628.37,92.2088 L 8626.99,91.7905 L 8625.72,91.1113 L 8624.6,90.1972 L 8623.69,89.0834 L 8623.01,87.8127
 L 8622.59,86.4339 L 8622.45,85 L 8622.59,83.5661 L 8623.01,82.1873 L 8623.69,80.9165 L 8624.6,79.8028
 L 8625.72,78.8887 L 8626.99,78.2095 L 8628.37,77.7912 L 8629.8,77.65 L 8631.23,77.7912 L 8632.61,78.2095
 L 8633.88,78.8887 L 8635,79.8028 L 8635.91,80.9165 L 8636.59,82.1873 L 8637.01,83.5661 L 8637.15,85
 L 8637.01,86.4339 L 8636.59,87.8127 L 8635.91,89.0834 L 8635,90.1972 L 8633.88,91.1113 L 8632.61,91.7905
 L 8631.23,92.2088 L 8629.8,92.35 z
M 8438.37,92.2088 L 8436.99,91.7905 L 8435.72,91.1113 L 8434.6,90.1972 L 8433.69,89.0834 L 8433.01,87.8127
 L 8432.59,86.4339 L 8432.45,85 L 8432.59,83.5661 L 8433.01,82.1873 L 8433.69,80.9165 L 8434.6,79.8028
 L 8435.72,78.8887 L 8436.99,78.2095 L 8438.37,77.7912 L 8439.8,77.65 L 8441.23,77.7912 L 8442.61,78.2095
 L 8443.88,78.8887 L 8445,79.8028 L 8445.91,80.9165 L 8446.59,82.1873 L 8447.01,83.5661 L 8447.15,85
 L 8447.01,86.4339 L 8446.59,87.8127 L 8445.91,89.0834 L 8445,90.1972 L 8443.88,91.1113 L 8442.61,91.7905
 L 8441.23,92.2088 L 8439.8,92.35 z
M 8376.48,114.781 L 8378.47,114.135 L 8380.28,113.09 L 8381.83,111.691 L 8383.06,110 L 8383.91,108.09
 L 8384.4,105 L 8384.4,-125 L 8384.18,-127.079 L 8383.54,-129.067 L 8382.49,-130.878 L 8381.09,-132.431
 L 8379.4,-133.66 L 8377.49,-134.511 L 8374.4,-135 L 8144.4,-135 L 8142.32,-134.781 L 8140.33,-134.135
 L 8138.52,-133.09 L 8136.97,-131.691 L 8135.74,-130 L 8134.89,-128.09 L 8134.4,-125 L 8134.4,105
 L 8134.62,107.079 L 8135.26,109.067 L 8136.31,110.878 L 8137.71,112.431 L 8139.4,113.66 L 8141.31,114.511
 L 8144.4,115 L 8374.4,115 z
M 8352.97,-97.7912 L 8351.59,-98.2095 L 8350.32,-98.8887 L 8349.2,-99.8028 L 8348.29,-100.917 L 8347.61,-102.187
 L 8347.19,-103.566 L 8347.05,-105 L 8347.19,-106.434 L 8347.61,-107.813 L 8348.29,-109.083 L 8349.2,-110.197
 L 8350.32,-111.111 L 8351.59,-111.791 L 8352.97,-112.209 L 8354.4,-112.35 L 8355.83,-112.209 L 8357.21,-111.791
 L 8358.48,-111.111 L 8359.6,-110.197 L 8360.51,-109.083 L 8361.19,-107.813 L 8361.61,-106.434 L 8361.75,-105
 L 8361.61,-103.566 L 8361.19,-102.187 L 8360.51,-100.917 L 8359.6,-99.8028 L 8358.48,-98.8887 L 8357.21,-98.2095
 L 8355.83,-97.7912 L 8354.4,-97.65 z
M 8162.97,-97.7912 L 8161.59,-98.2095 L 8160.32,-98.8887 L 8159.2,-99.8028 L 8158.29,-100.917 L 8157.61,-102.187
 L 8157.19,-103.566 L 8157.05,-105 L 8157.19,-106.434 L 8157.61,-107.813 L 8158.29,-109.083 L 8159.2,-110.197
 L 8160.32,-111.111 L 8161.59,-111.791 L 8162.97,-112.209 L 8164.4,-112.35 L 8165.83,-112.209 L 8167.21,-111.791
 L 8168.48,-111.111 L 8169.6,-110.197 L 8170.51,-109.083 L 8171.19,-107.813 L 8171.61,-106.434 L 8171.75,-105
 L 8171.61,-103.566 L 8171.19,-102.187 L 8170.51,-100.917 L 8169.6,-99.8028 L 8168.48,-98.8887 L 8167.21,-98.2095
 L 8165.83,-97.7912 L 8164.4,-97.65 z
M 8257.35,-89.6772 L 8255.37,-90.2762 L 8253.55,-91.2488 L 8251.96,-92.5577 L 8250.65,-94.1526 L 8249.68,-95.9722
 L 8249.08,-97.9467 L 8248.88,-100 L 8249.08,-102.053 L 8249.68,-104.028 L 8250.65,-105.847 L 8251.96,-107.442
 L 8253.55,-108.751 L 8255.37,-109.724 L 8257.35,-110.323 L 8259.4,-110.525 L 8261.45,-110.323 L 8263.43,-109.724
 L 8265.25,-108.751 L 8266.84,-107.442 L 8268.15,-105.847 L 8269.12,-104.028 L 8269.72,-102.053 L 8269.92,-100
 L 8269.72,-97.9467 L 8269.12,-95.9722 L 8268.15,-94.1526 L 8266.84,-92.5577 L 8265.25,-91.2488 L 8263.43,-90.2762
 L 8261.45,-89.6772 L 8259.4,-89.475 z
M 8193.71,-63.3168 L 8191.73,-63.9158 L 8189.91,-64.8884 L 8188.32,-66.1973 L 8187.01,-67.7922 L 8186.04,-69.6119
 L 8185.44,-71.5863 L 8185.24,-73.6396 L 8185.44,-75.6929 L 8186.04,-77.6673 L 8187.01,-79.487 L 8188.32,-81.0819
 L 8189.91,-82.3908 L 8191.73,-83.3634 L 8193.71,-83.9624 L 8195.76,-84.1646 L 8197.81,-83.9624 L 8199.79,-83.3634
 L 8201.61,-82.3908 L 8203.2,-81.0819 L 8204.51,-79.487 L 8205.48,-77.6673 L 8206.08,-75.6929 L 8206.29,-73.6396
 L 8206.08,-71.5863 L 8205.48,-69.6119 L 8204.51,-67.7922 L 8203.2,-66.1973 L 8201.61,-64.8884 L 8199.79,-63.9158
 L 8197.81,-63.3168 L 8195.76,-63.1146 z
M 8320.99,-63.3168 L 8319.01,-63.9158 L 8317.19,-64.8884 L 8315.6,-66.1973 L 8314.29,-67.7922 L 8313.32,-69.6119
 L 8312.72,-71.5863 L 8312.51,-73.6396 L 8312.72,-75.6929 L 8313.32,-77.6673 L 8314.29,-79.487 L 8315.6,-81.0819
 L 8317.19,-82.3908 L 8319.01,-83.3634 L 8320.99,-83.9624 L 8323.04,-84.1646 L 8325.09,-83.9624 L 8327.07,-83.3634
 L 8328.89,-82.3908 L 8330.48,-81.0819 L 8331.79,-79.487 L 8332.76,-77.6673 L 8333.36,-75.6929 L 8333.56,-73.6396
 L 8333.36,-71.5863 L 8332.76,-69.6119 L 8331.79,-67.7922 L 8330.48,-66.1973 L 8328.89,-64.8884 L 8327.07,-63.9158
 L 8325.09,-63.3168 L 8323.04,-63.1146 z
M 8254.18,29.6578 L 8249.05,28.637 L 8244.09,26.9552 L 8239.4,24.641 L 8235.05,21.7341 L 8231.12,18.2843
 L 8227.67,14.3504 L 8224.76,10 L 8222.44,5.30733 L 8220.76,0.352753 L 8219.74,-4.77895 L 8219.4,-10
 L 8219.74,-15.221 L 8220.76,-20.3528 L 8222.44,-25.3073 L 8224.76,-30 L 8227.67,-34.3504 L 8231.12,-38.2843
 L 8235.05,-41.7341 L 8239.4,-44.641 L 8244.09,-46.9552 L 8249.05,-48.637 L 8254.18,-49.6578 L 8259.4,-50
 L 8264.62,-49.6578 L 8269.75,-48.637 L 8274.71,-46.9552 L 8279.4,-44.641 L 8283.75,-41.7341 L 8287.68,-38.2843
 L 8291.13,-34.3504 L 8294.04,-30 L 8296.36,-25.3073 L 8298.04,-20.3528 L 8299.06,-15.221 L 8299.4,-10
 L 8299.06,-4.77895 L 8298.04,0.352753 L 8296.36,5.30733 L 8294.04,10 L 8291.13,14.3504 L 8287.68,18.2843
 L 8283.75,21.7341 L 8279.4,24.641 L 8274.71,26.9552 L 8269.75,28.637 L 8264.62,29.6578 L 8259.4,30
 z
M 8167.35,0.322754 L 8165.37,-0.276169 L 8163.55,-1.24878 L 8161.96,-2.55769 L 8160.65,-4.15262 L 8159.68,-5.97224
 L 8159.08,-7.94667 L 8158.88,-10 L 8159.08,-12.0533 L 8159.68,-14.0277 L 8160.65,-15.8474 L 8161.96,-17.4423
 L 8163.55,-18.7512 L 8165.37,-19.7238 L 8167.35,-20.3228 L 8169.4,-20.525 L 8171.45,-20.3228 L 8173.43,-19.7238
 L 8175.25,-18.7512 L 8176.84,-17.4423 L 8178.15,-15.8474 L 8179.12,-14.0277 L 8179.72,-12.0533 L 8179.92,-10
 L 8179.72,-7.94667 L 8179.12,-5.97224 L 8178.15,-4.15262 L 8176.84,-2.55769 L 8175.25,-1.24878 L 8173.43,-0.276169
 L 8171.45,0.322754 L 8169.4,0.524994 z
M 8347.35,0.322754 L 8345.37,-0.276169 L 8343.55,-1.24878 L 8341.96,-2.55769 L 8340.65,-4.15262 L 8339.68,-5.97224
 L 8339.08,-7.94667 L 8338.87,-10 L 8339.08,-12.0533 L 8339.68,-14.0277 L 8340.65,-15.8474 L 8341.96,-17.4423
 L 8343.55,-18.7512 L 8345.37,-19.7238 L 8347.35,-20.3228 L 8349.4,-20.525 L 8351.45,-20.3228 L 8353.43,-19.7238
 L 8355.25,-18.7512 L 8356.84,-17.4423 L 8358.15,-15.8474 L 8359.12,-14.0277 L 8359.72,-12.0533 L 8359.92,-10
 L 8359.72,-7.94667 L 8359.12,-5.97224 L 8358.15,-4.15262 L 8356.84,-2.55769 L 8355.25,-1.24878 L 8353.43,-0.276169
 L 8351.45,0.322754 L 8349.4,0.524994 z
M 8193.71,63.9624 L 8191.73,63.3634 L 8189.91,62.3908 L 8188.32,61.0819 L 8187.01,59.487 L 8186.04,57.6673
 L 8185.44,55.6929 L 8185.24,53.6396 L 8185.44,51.5863 L 8186.04,49.6119 L 8187.01,47.7922 L 8188.32,46.1973
 L 8189.91,44.8884 L 8191.73,43.9158 L 8193.71,43.3168 L 8195.76,43.1146 L 8197.81,43.3168 L 8199.79,43.9158
 L 8201.61,44.8884 L 8203.2,46.1973 L 8204.51,47.7922 L 8205.48,49.6119 L 8206.08,51.5863 L 8206.29,53.6396
 L 8206.08,55.6929 L 8205.48,57.6673 L 8204.51,59.487 L 8203.2,61.0819 L 8201.61,62.3908 L 8199.79,63.3634
 L 8197.81,63.9624 L 8195.76,64.1646 z
M 8320.99,63.9624 L 8319.01,63.3634 L 8317.19,62.3908 L 8315.6,61.0819 L 8314.29,59.487 L 8313.32,57.6673
 L 8312.72,55.6929 L 8312.51,53.6396 L 8312.72,51.5863 L 8313.32,49.6119 L 8314.29,47.7922 L 8315.6,46.1973
 L 8317.19,44.8884 L 8319.01,43.9158 L 8320.99,43.3168 L 8323.04,43.1146 L 8325.09,43.3168 L 8327.07,43.9158
 L 8328.89,44.8884 L 8330.48,46.1973 L 8331.79,47.7922 L 8332.76,49.6119 L 8333.36,51.5863 L 8333.56,53.6396
 L 8333.36,55.6929 L 8332.76,57.6673 L 8331.79,59.487 L 8330.48,61.0819 L 8328.89,62.3908 L 8327.07,63.3634
 L 8325.09,63.9624 L 8323.04,64.1646 z
M 8257.35,90.3228 L 8255.37,89.7238 L 8253.55,88.7512 L 8251.96,87.4423 L 8250.65,85.8474 L 8249.68,84.0277
 L 8249.08,82.0533 L 8248.88,80 L 8249.08,77.9467 L 8249.68,75.9722 L 8250.65,74.1526 L 8251.96,72.5577
 L 8253.55,71.2488 L 8255.37,70.2762 L 8257.35,69.6772 L 8259.4,69.475 L 8261.45,69.6772 L 8263.43,70.2762
 L 8265.25,71.2488 L 8266.84,72.5577 L 8268.15,74.1526 L 8269.12,75.9722 L 8269.72,77.9467 L 8269.92,80
 L 8269.72,82.0533 L 8269.12,84.0277 L 8268.15,85.8474 L 8266.84,87.4423 L 8265.25,88.7512 L 8263.43,89.7238
 L 8261.45,90.3228 L 8259.4,90.525 z
M 8162.97,92.2088 L 8161.59,91.7905 L 8160.32,91.1113 L 8159.2,90.1972 L 8158.29,89.0834 L 8157.61,87.8127
 L 8157.19,86.4339 L 8157.05,85 L 8157.19,83.5661 L 8157.61,82.1873 L 8158.29,80.9165 L 8159.2,79.8028
 L 8160.32,78.8887 L 8161.59,78.2095 L 8162.97,77.7912 L 8164.4,77.65 L 8165.83,77.7912 L 8167.21,78.2095
 L 8168.48,78.8887 L 8169.6,79.8028 L 8170.51,80.9165 L 8171.19,82.1873 L 8171.61,83.5661 L 8171.75,85
 L 8171.61,86.4339 L 8171.19,87.8127 L 8170.51,89.0834 L 8169.6,90.1972 L 8168.48,91.1113 L 8167.21,91.7905
 L 8165.83,92.2088 L 8164.4,92.35 z
M 8352.97,92.2088 L 8351.59,91.7905 L 8350.32,91.1113 L 8349.2,90.1972 L 8348.29,89.0834 L 8347.61,87.8127
 L 8347.19,86.4339 L 8347.05,85 L 8347.19,83.5661 L 8347.61,82.1873 L 8348.29,80.9165 L 8349.2,79.8028
 L 8350.32,78.8887 L 8351.59,78.2095 L 8352.97,77.7912 L 8354.4,77.65 L 8355.83,77.7912 L 8357.21,78.2095
 L 8358.48,78.8887 L 8359.6,79.8028 L 8360.51,80.9165 L 8361.19,82.1873 L 8361.61,83.5661 L 8361.75,85
 L 8361.61,86.4339 L 8361.19,87.8127 L 8360.51,89.0834 L 8359.6,90.1972 L 8358.48,91.1113 L 8357.21,91.7905
 L 8355.83,92.2088 L 8354.4,92.35 z
M 8927.28,114.781 L 8929.27,114.135 L 8931.08,113.09 L 8932.63,111.691 L 8933.86,110 L 8934.71,108.09
 L 8935.2,105 L 8935.2,-125 L 8934.98,-127.079 L 8934.34,-129.067 L 8933.29,-130.878 L 8931.89,-132.431
 L 8930.2,-133.66 L 8928.29,-134.511 L 8925.2,-135 L 8695.2,-135 L 8693.12,-134.781 L 8691.13,-134.135
 L 8689.32,-133.09 L 8687.77,-131.691 L 8686.54,-130 L 8685.69,-128.09 L 8685.2,-125 L 8685.2,105
 L 8685.42,107.079 L 8686.06,109.067 L 8687.11,110.878 L 8688.51,112.431 L 8690.2,113.66 L 8692.11,114.511
 L 8695.2,115 L 8925.2,115 z
M 8713.77,-97.7912 L 8712.39,-98.2095 L 8711.12,-98.8887 L 8710,-99.8028 L 8709.09,-100.917 L 8708.41,-102.187
 L 8707.99,-103.566 L 8707.85,-105 L 8707.99,-106.434 L 8708.41,-107.813 L 8709.09,-109.083 L 8710,-110.197
 L 8711.12,-111.111 L 8712.39,-111.791 L 8713.77,-112.209 L 8715.2,-112.35 L 8716.63,-112.209 L 8718.01,-111.791
 L 8719.28,-111.111 L 8720.4,-110.197 L 8721.31,-109.083 L 8721.99,-107.813 L 8722.41,-106.434 L 8722.55,-105
 L 8722.41,-103.566 L 8721.99,-102.187 L 8721.31,-100.917 L 8720.4,-99.8028 L 8719.28,-98.8887 L 8718.01,-98.2095
 L 8716.63,-97.7912 L 8715.2,-97.65 z
M 8903.77,-97.7912 L 8902.39,-98.2095 L 8901.12,-98.8887 L 8900,-99.8028 L 8899.09,-100.917 L 8898.41,-102.187
 L 8897.99,-103.566 L 8897.85,-105 L 8897.99,-106.434 L 8898.41,-107.813 L 8899.09,-109.083 L 8900,-110.197
 L 8901.12,-111.111 L 8902.39,-111.791 L 8903.77,-112.209 L 8905.2,-112.35 L 8906.63,-112.209 L 8908.01,-111.791
 L 8909.28,-111.111 L 8910.4,-110.197 L 8911.31,-109.083 L 8911.99,-107.813 L 8912.41,-106.434 L 8912.55,-105
 L 8912.41,-103.566 L 8911.99,-102.187 L 8911.31,-100.917 L 8910.4,-99.8028 L 8909.28,-98.8887 L 8908.01,-98.2095
 L 8906.63,-97.7912 L 8905.2,-97.65 z
M 8808.15,-89.6772 L 8806.17,-90.2762 L 8804.35,-91.2488 L 8802.76,-92.5577 L 8801.45,-94.1526 L 8800.48,-95.9722
 L 8799.88,-97.9467 L 8799.67,-100 L 8799.88,-102.053 L 8800.48,-104.028 L 8801.45,-105.847 L 8802.76,-107.442
 L 8804.35,-108.751 L 8806.17,-109.724 L 8808.15,-110.323 L 8810.2,-110.525 L 8812.25,-110.323 L 8814.23,-109.724
 L 8816.05,-108.751 L 8817.64,-107.442 L 8818.95,-105.847 L 8819.92,-104.028 L 8820.52,-102.053 L 8820.72,-100
 L 8820.52,-97.9467 L 8819.92,-95.9722 L 8818.95,-94.1526 L 8817.64,-92.5577 L 8816.05,-91.2488 L 8814.23,-90.2762
 L 8812.25,-89.6772 L 8810.2,-89.475 z
M 8744.51,-63.3168 L 8742.53,-63.9158 L 8740.71,-64.8884 L 8739.12,-66.1973 L 8737.81,-67.7922 L 8736.84,-69.6119
 L 8736.24,-71.5863 L 8736.04,-73.6396 L 8736.24,-75.6929 L 8736.84,-77.6673 L 8737.81,-79.487 L 8739.12,-81.0819
 L 8740.71,-82.3908 L 8742.53,-83.3634 L 8744.51,-83.9624 L 8746.56,-84.1646 L 8748.61,-83.9624 L 8750.59,-83.3634
 L 8752.41,-82.3908 L 8754,-81.0819 L 8755.31,-79.487 L 8756.28,-77.6673 L 8756.88,-75.6929 L 8757.09,-73.6396
 L 8756.88,-71.5863 L 8756.28,-69.6119 L 8755.31,-67.7922 L 8754,-66.1973 L 8752.41,-64.8884 L 8750.59,-63.9158
 L 8748.61,-63.3168 L 8746.56,-63.1146 z
M 8871.79,-63.3168 L 8869.81,-63.9158 L 8867.99,-64.8884 L 8866.4,-66.1973 L 8865.09,-67.7922 L 8864.12,-69.6119
 L 8863.52,-71.5863 L 8863.31,-73.6396 L 8863.52,-75.6929 L 8864.12,-77.6673 L 8865.09,-79.487 L 8866.4,-81.0819
 L 8867.99,-82.3908 L 8869.81,-83.3634 L 8871.79,-83.9624 L 8873.84,-84.1646 L 8875.89,-83.9624 L 8877.87,-83.3634
 L 8879.69,-82.3908 L 8881.28,-81.0819 L 8882.59,-79.487 L 8883.56,-77.6673 L 8884.16,-75.6929 L 8884.36,-73.6396
 L 8884.16,-71.5863 L 8883.56,-69.6119 L 8882.59,-67.7922 L 8881.28,-66.1973 L 8879.69,-64.8884 L 8877.87,-63.9158
 L 8875.89,-63.3168 L 8873.84,-63.1146 z
M 8804.98,29.6578 L 8799.85,28.637 L 8794.89,26.9552 L 8790.2,24.641 L 8785.85,21.7341 L 8781.92,18.2843
 L 8778.47,14.3504 L 8775.56,10 L 8773.24,5.30733 L 8771.56,0.352753 L 8770.54,-4.77895 L 8770.2,-10
 L 8770.54,-15.221 L 8771.56,-20.3528 L 8773.24,-25.3073 L 8775.56,-30 L 8778.47,-34.3504 L 8781.92,-38.2843
 L 8785.85,-41.7341 L 8790.2,-44.641 L 8794.89,-46.9552 L 8799.85,-48.637 L 8804.98,-49.6578 L 8810.2,-50
 L 8815.42,-49.6578 L 8820.55,-48.637 L 8825.51,-46.9552 L 8830.2,-44.641 L 8834.55,-41.7341 L 8838.48,-38.2843
 L 8841.93,-34.3504 L 8844.84,-30 L 8847.16,-25.3073 L 8848.84,-20.3528 L 8849.86,-15.221 L 8850.2,-10
 L 8849.86,-4.77895 L 8848.84,0.352753 L 8847.16,5.30733 L 8844.84,10 L 8841.93,14.3504 L 8838.48,18.2843
 L 8834.55,21.7341 L 8830.2,24.641 L 8825.51,26.9552 L 8820.55,28.637 L 8815.42,29.6578 L 8810.2,30
 z
M 8898.15,0.322754 L 8896.17,-0.276169 L 8894.35,-1.24878 L 8892.76,-2.55769 L 8891.45,-4.15262 L 8890.48,-5.97224
 L 8889.88,-7.94667 L 8889.67,-10 L 8889.88,-12.0533 L 8890.48,-14.0277 L 8891.45,-15.8474 L 8892.76,-17.4423
 L 8894.35,-18.7512 L 8896.17,-19.7238 L 8898.15,-20.3228 L 8900.2,-20.525 L 8902.25,-20.3228 L 8904.23,-19.7238
 L 8906.05,-18.7512 L 8907.64,-17.4423 L 8908.95,-15.8474 L 8909.92,-14.0277 L 8910.52,-12.0533 L 8910.72,-10
 L 8910.52,-7.94667 L 8909.92,-5.97224 L 8908.95,-4.15262 L 8907.64,-2.55769 L 8906.05,-1.24878 L 8904.23,-0.276169
 L 8902.25,0.322754 L 8900.2,0.524994 z
M 8718.15,0.322754 L 8716.17,-0.276169 L 8714.35,-1.24878 L 8712.76,-2.55769 L 8711.45,-4.15262 L 8710.48,-5.97224
 L 8709.88,-7.94667 L 8709.67,-10 L 8709.88,-12.0533 L 8710.48,-14.0277 L 8711.45,-15.8474 L 8712.76,-17.4423
 L 8714.35,-18.7512 L 8716.17,-19.7238 L 8718.15,-20.3228 L 8720.2,-20.525 L 8722.25,-20.3228 L 8724.23,-19.7238
 L 8726.05,-18.7512 L 8727.64,-17.4423 L 8728.95,-15.8474 L 8729.92,-14.0277 L 8730.52,-12.0533 L 8730.72,-10
 L 8730.52,-7.94667 L 8729.92,-5.97224 L 8728.95,-4.15262 L 8727.64,-2.55769 L 8726.05,-1.24878 L 8724.23,-0.276169
 L 8722.25,0.322754 L 8720.2,0.524994 z
M 8744.51,63.9624 L 8742.53,63.3634 L 8740.71,62.3908 L 8739.12,61.0819 L 8737.81,59.487 L 8736.84,57.6673
 L 8736.24,55.6929 L 8736.04,53.6396 L 8736.24,51.5863 L 8736.84,49.6119 L 8737.81,47.7922 L 8739.12,46.1973
 L 8740.71,44.8884 L 8742.53,43.9158 L 8744.51,43.3168 L 8746.56,43.1146 L 8748.61,43.3168 L 8750.59,43.9158
 L 8752.41,44.8884 L 8754,46.1973 L 8755.31,47.7922 L 8756.28,49.6119 L 8756.88,51.5863 L 8757.09,53.6396
 L 8756.88,55.6929 L 8756.28,57.6673 L 8755.31,59.487 L 8754,61.0819 L 8752.41,62.3908 L 8750.59,63.3634
 L 8748.61,63.9624 L 8746.56,64.1646 z
M 8871.79,63.9624 L 8869.81,63.3634 L 8867.99,62.3908 L 8866.4,61.0819 L 8865.09,59.487 L 8864.12,57.6673
 L 8863.52,55.6929 L 8863.31,53.6396 L 8863.52,51.5863 L 8864.12,49.6119 L 8865.09,47.7922 L 8866.4,46.1973
 L 8867.99,44.8884 L 8869.81,43.9158 L 8871.79,43.3168 L 8873.84,43.1146 L 8875.89,43.3168 L 8877.87,43.9158
 L 8879.69,44.8884 L 8881.28,46.1973 L 8882.59,47.7922 L 8883.56,49.6119 L 8884.16,51.5863 L 8884.36,53.6396
 L 8884.16,55.6929 L 8883.56,57.6673 L 8882.59,59.487 L 8881.28,61.0819 L 8879.69,62.3908 L 8877.87,63.3634
 L 8875.89,63.9624 L 8873.84,64.1646 z
M 8808.15,90.3228 L 8806.17,89.7238 L 8804.35,88.7512 L 8802.76,87.4423 L 8801.45,85.8474 L 8800.48,84.0277
 L 8799.88,82.0533 L 8799.67,80 L 8799.88,77.9467 L 8800.48,75.9722 L 8801.45,74.1526 L 8802.76,72.5577
 L 8804.35,71.2488 L 8806.17,70.2762 L 8808.15,69.6772 L 8810.2,69.475 L 8812.25,69.6772 L 8814.23,70.2762
 L 8816.05,71.2488 L 8817.64,72.5577 L 8818.95,74.1526 L 8819.92,75.9722 L 8820.52,77.9467 L 8820.72,80
 L 8820.52,82.0533 L 8819.92,84.0277 L 8818.95,85.8474 L 8817.64,87.4423 L 8816.05,88.7512 L 8814.23,89.7238
 L 8812.25,90.3228 L 8810.2,90.525 z
M 8713.77,92.2088 L 8712.39,91.7905 L 8711.12,91.1113 L 8710,90.1972 L 8709.09,89.0834 L 8708.41,87.8127
 L 8707.99,86.4339 L 8707.85,85 L 8707.99,83.5661 L 8708.41,82.1873 L 8709.09,80.9165 L 8710,79.8028
 L 8711.12,78.8887 L 8712.39,78.2095 L 8713.77,77.7912 L 8715.2,77.65 L 8716.63,77.7912 L 8718.01,78.2095
 L 8719.28,78.8887 L 8720.4,79.8028 L 8721.31,80.9165 L 8721.99,82.1873 L 8722.41,83.5661 L 8722.55,85
 L 8722.41,86.4339 L 8721.99,87.8127 L 8721.31,89.0834 L 8720.4,90.1972 L 8719.28,91.1113 L 8718.01,91.7905
 L 8716.63,92.2088 L 8715.2,92.35 z
M 8903.77,92.2088 L 8902.39,91.7905 L 8901.12,91.1113 L 8900,90.1972 L 8899.09,89.0834 L 8898.41,87.8127
 L 8897.99,86.4339 L 8897.85,85 L 8897.99,83.5661 L 8898.41,82.1873 L 8899.09,80.9165 L 8900,79.8028
 L 8901.12,78.8887 L 8902.39,78.2095 L 8903.77,77.7912 L 8905.2,77.65 L 8906.63,77.7912 L 8908.01,78.2095
 L 8909.28,78.8887 L 8910.4,79.8028 L 8911.31,80.9165 L 8911.99,82.1873 L 8912.41,83.5661 L 8912.55,85
 L 8912.41,86.4339 L 8911.99,87.8127 L 8911.31,89.0834 L 8910.4,90.1972 L 8909.28,91.1113 L 8908.01,91.7905
 L 8906.63,92.2088 L 8905.2,92.35 z
" stroke="black" fill="lightgray" stroke-width="0.5"/>
</svg>
