<?xml version="1.0" standalone="no"?>
<!DOCTYPE svg PUBLIC "-//W3C//DTD SVG 1.1//EN" "http://www.w3.org/Graphics/SVG/1.1/DTD/svg11.dtd">
<svg width="1340mm" height="3557mm" viewBox="10 -3567 1340 3557" xmlns="http://www.w3.org/2000/svg" version="1.1">
<title>OpenSCAD Model</title>
<path d="
M 34.4175,-3559.68 L 36.7285,-3559.68 L 36.7285,-3561.74 L 34.4175,-3561.74 L 34.4175,-3562.66 L 34.4375,-3563.02
 L 34.4975,-3563.33 L 34.5975,-3563.57 L 34.7375,-3563.75 L 34.9264,-3563.89 L 35.1729,-3563.98 L 35.4771,-3564.04
 L 35.8389,-3564.06 L 36.0613,-3564.06 L 36.2837,-3564.04 L 36.5061,-3564.01 L 36.7285,-3563.96 L 36.7285,-3565.93
 L 36.205,-3566 L 35.7087,-3566.06 L 35.2394,-3566.09 L 34.7973,-3566.1 L 33.9897,-3566.05 L 33.2919,-3565.91
 L 32.7039,-3565.67 L 32.2258,-3565.33 L 31.8555,-3564.89 L 31.5911,-3564.35 L 31.4324,-3563.71 L 31.3795,-3562.97
 L 31.3795,-3561.74 L 29.6651,-3561.74 L 29.6651,-3559.68 L 31.3795,-3559.68 L 31.3795,-3550 L 34.4175,-3550
 z
M 27.8566,-3566.1 L 24.8076,-3566.1 L 24.8076,-3563.86 L 27.8566,-3563.86 z
M 182.632,-3549.85 L 183.718,-3550.05 L 184.718,-3550.39 L 185.632,-3550.86 L 186.45,-3551.47 L 187.163,-3552.23
 L 187.771,-3553.12 L 188.274,-3554.16 L 185.485,-3555.21 L 184.811,-3553.94 L 183.915,-3553.03 L 182.798,-3552.48
 L 181.46,-3552.3 L 180.434,-3552.39 L 179.536,-3552.65 L 178.766,-3553.08 L 178.124,-3553.69 L 177.618,-3554.46
 L 177.257,-3555.39 L 177.041,-3556.47 L 176.968,-3557.71 L 177.038,-3558.93 L 177.249,-3560 L 177.6,-3560.9
 L 178.091,-3561.65 L 178.718,-3562.24 L 179.476,-3562.66 L 180.365,-3562.91 L 181.384,-3563 L 182.071,-3562.96
 L 182.712,-3562.83 L 183.306,-3562.62 L 183.853,-3562.32 L 184.333,-3561.95 L 184.727,-3561.52 L 185.036,-3561.04
 L 185.258,-3560.49 L 188.079,-3561.26 L 187.674,-3562.25 L 187.143,-3563.1 L 186.486,-3563.83 L 185.702,-3564.44
 L 184.794,-3564.91 L 183.76,-3565.25 L 182.602,-3565.45 L 181.319,-3565.52 L 179.584,-3565.39 L 178.067,-3565.01
 L 176.768,-3564.38 L 175.688,-3563.5 L 174.838,-3562.38 L 174.231,-3561.04 L 173.867,-3559.49 L 173.746,-3557.71
 L 173.872,-3555.94 L 174.249,-3554.38 L 174.878,-3553.02 L 175.758,-3551.87 L 176.87,-3550.96 L 178.19,-3550.31
 L 179.72,-3549.91 L 181.46,-3549.78 z
M 151.288,-3549.85 L 152.374,-3550.05 L 153.374,-3550.39 L 154.288,-3550.86 L 155.106,-3551.47 L 155.819,-3552.23
 L 156.427,-3553.12 L 156.93,-3554.16 L 154.141,-3555.21 L 153.467,-3553.94 L 152.571,-3553.03 L 151.454,-3552.48
 L 150.116,-3552.3 L 149.09,-3552.39 L 148.192,-3552.65 L 147.422,-3553.08 L 146.78,-3553.69 L 146.274,-3554.46
 L 145.913,-3555.39 L 145.696,-3556.47 L 145.624,-3557.71 L 145.694,-3558.93 L 145.905,-3560 L 146.256,-3560.9
 L 146.747,-3561.65 L 147.374,-3562.24 L 148.132,-3562.66 L 149.021,-3562.91 L 150.04,-3563 L 150.727,-3562.96
 L 151.368,-3562.83 L 151.962,-3562.62 L 152.509,-3562.32 L 152.989,-3561.95 L 153.383,-3561.52 L 153.691,-3561.04
 L 153.913,-3560.49 L 156.735,-3561.26 L 156.33,-3562.25 L 155.799,-3563.1 L 155.142,-3563.83 L 154.358,-3564.44
 L 153.45,-3564.91 L 152.416,-3565.25 L 151.258,-3565.45 L 149.975,-3565.52 L 148.24,-3565.39 L 146.723,-3565.01
 L 145.424,-3564.38 L 144.344,-3563.5 L 143.494,-3562.38 L 142.887,-3561.04 L 142.523,-3559.49 L 142.402,-3557.71
 L 142.527,-3555.94 L 142.905,-3554.38 L 143.534,-3553.02 L 144.414,-3551.87 L 145.525,-3550.96 L 146.846,-3550.31
 L 148.376,-3549.91 L 150.116,-3549.78 z
M 122.791,-3552.51 L 115.695,-3552.51 L 115.867,-3552.85 L 116.079,-3553.19 L 116.331,-3553.52 L 116.623,-3553.83
 L 116.943,-3554.14 L 117.28,-3554.45 L 117.635,-3554.75 L 118.006,-3555.06 L 118.389,-3555.36 L 118.778,-3555.67
 L 119.173,-3555.99 L 119.574,-3556.3 L 119.969,-3556.63 L 120.346,-3556.97 L 120.704,-3557.32 L 121.044,-3557.68
 L 121.36,-3558.05 L 121.646,-3558.44 L 121.903,-3558.85 L 122.129,-3559.28 L 122.314,-3559.72 L 122.446,-3560.2
 L 122.526,-3560.69 L 122.552,-3561.22 L 122.47,-3562.18 L 122.221,-3563.03 L 121.808,-3563.77 L 121.229,-3564.39
 L 120.495,-3564.88 L 119.617,-3565.23 L 118.596,-3565.44 L 117.431,-3565.52 L 116.346,-3565.45 L 115.382,-3565.24
 L 114.537,-3564.89 L 113.813,-3564.4 L 113.215,-3563.78 L 112.751,-3563.03 L 112.42,-3562.15 L 112.223,-3561.15
 L 115.294,-3560.98 L 115.392,-3561.47 L 115.536,-3561.9 L 115.726,-3562.26 L 115.961,-3562.56 L 116.247,-3562.79
 L 116.592,-3562.95 L 116.993,-3563.05 L 117.453,-3563.09 L 118.331,-3562.96 L 118.958,-3562.59 L 119.334,-3561.96
 L 119.46,-3561.09 L 119.42,-3560.68 L 119.299,-3560.27 L 119.097,-3559.85 L 118.814,-3559.43 L 118.432,-3558.98
 L 117.929,-3558.47 L 117.306,-3557.9 L 116.563,-3557.28 L 115.763,-3556.61 L 115.034,-3555.95 L 114.377,-3555.31
 L 113.791,-3554.68 L 113.272,-3554.05 L 112.816,-3553.41 L 112.423,-3552.77 L 112.093,-3552.12 L 112.093,-3550
 L 122.791,-3550 z
M 207.426,-3552.47 L 199.223,-3552.47 L 199.223,-3565.29 L 196.022,-3565.29 L 196.022,-3550 L 207.426,-3550
 z
M 130.716,-3549.87 L 131.823,-3550.14 L 132.791,-3550.59 L 133.618,-3551.22 L 134.28,-3552 L 134.753,-3552.91
 L 135.037,-3553.94 L 135.131,-3555.09 L 135.05,-3556.19 L 134.805,-3557.18 L 134.396,-3558.04 L 133.824,-3558.78
 L 133.116,-3559.37 L 132.298,-3559.79 L 131.372,-3560.05 L 130.336,-3560.13 L 129.54,-3560.07 L 128.814,-3559.89
 L 128.157,-3559.58 L 127.569,-3559.16 L 127.819,-3563.02 L 134.242,-3563.02 L 134.242,-3565.29 L 125.052,-3565.29
 L 124.52,-3556.68 L 127.493,-3556.68 L 127.924,-3557.12 L 128.413,-3557.42 L 128.96,-3557.61 L 129.565,-3557.67
 L 130.108,-3557.63 L 130.588,-3557.49 L 131.004,-3557.26 L 131.356,-3556.95 L 131.636,-3556.56 L 131.836,-3556.11
 L 131.956,-3555.6 L 131.996,-3555.02 L 131.953,-3554.38 L 131.826,-3553.82 L 131.614,-3553.33 L 131.318,-3552.93
 L 130.95,-3552.61 L 130.524,-3552.38 L 130.041,-3552.25 L 129.5,-3552.2 L 129.059,-3552.23 L 128.657,-3552.31
 L 128.294,-3552.45 L 127.97,-3552.65 L 127.69,-3552.9 L 127.455,-3553.23 L 127.267,-3553.61 L 127.124,-3554.07
 L 124.075,-3553.82 L 124.304,-3552.9 L 124.665,-3552.09 L 125.159,-3551.4 L 125.784,-3550.82 L 126.533,-3550.37
 L 127.397,-3550.04 L 128.375,-3549.85 L 129.468,-3549.78 z
M 161.491,-3559.02 L 161.479,-3559.58 L 161.443,-3560.23 L 161.382,-3560.96 L 161.296,-3561.77 L 167.958,-3550
 L 171.712,-3550 L 171.712,-3565.29 L 168.87,-3565.29 L 168.87,-3556.4 L 168.882,-3555.71 L 168.918,-3554.98
 L 168.979,-3554.22 L 169.065,-3553.42 L 162.305,-3565.29 L 158.649,-3565.29 L 158.649,-3550 L 161.491,-3550
 z
M 22.8898,-3552.47 L 14.6872,-3552.47 L 14.6872,-3565.29 L 11.4864,-3565.29 L 11.4864,-3550 L 22.8898,-3550
 z
M 56.9684,-3562.81 L 61.9161,-3562.81 L 61.9161,-3565.29 L 48.831,-3565.29 L 48.831,-3562.81 L 53.7676,-3562.81
 L 53.7676,-3550 L 56.9684,-3550 z
M 263.701,-3549.83 L 264.364,-3549.9 L 264.987,-3550.01 L 265.571,-3550.17 L 265.571,-3552.06 L 265.259,-3551.99
 L 264.985,-3551.95 L 264.749,-3551.92 L 264.551,-3551.91 L 264.232,-3551.94 L 263.957,-3552.01 L 263.727,-3552.14
 L 263.542,-3552.32 L 263.4,-3552.55 L 263.298,-3552.84 L 263.237,-3553.18 L 263.217,-3553.58 L 263.217,-3559.68
 L 265.441,-3559.68 L 265.441,-3561.74 L 263.217,-3561.74 L 263.217,-3564.5 L 261.307,-3564.5 L 260.352,-3561.74
 L 258.714,-3561.74 L 258.714,-3559.68 L 260.2,-3559.68 L 260.2,-3552.76 L 260.246,-3552.06 L 260.382,-3551.46
 L 260.609,-3550.95 L 260.927,-3550.54 L 261.329,-3550.22 L 261.809,-3549.99 L 262.365,-3549.85 L 262.999,-3549.8
 z
M 65.2406,-3555.76 L 65.2803,-3556.61 L 65.3993,-3557.35 L 65.5977,-3557.98 L 65.8754,-3558.5 L 66.2242,-3558.9
 L 66.6362,-3559.19 L 67.1112,-3559.36 L 67.6493,-3559.42 L 67.9422,-3559.41 L 68.2568,-3559.38 L 68.5932,-3559.33
 L 68.9512,-3559.26 L 68.9512,-3561.8 L 68.758,-3561.88 L 68.5363,-3561.93 L 68.2861,-3561.96 L 68.0074,-3561.97
 L 67.6642,-3561.95 L 67.3509,-3561.91 L 67.0674,-3561.83 L 66.8138,-3561.72 L 66.5832,-3561.59 L 66.369,-3561.41
 L 66.171,-3561.21 L 65.9893,-3560.97 L 65.8096,-3560.68 L 65.6176,-3560.29 L 65.4135,-3559.81 L 65.1971,-3559.23
 L 65.1537,-3559.23 L 65.1504,-3559.44 L 65.1402,-3559.73 L 65.1232,-3560.1 L 65.0995,-3560.55 L 65.0737,-3561
 L 65.0507,-3561.35 L 65.0303,-3561.59 L 65.0126,-3561.74 L 62.1049,-3561.74 L 62.1208,-3561.48 L 62.1361,-3561.2
 L 62.1506,-3560.91 L 62.1645,-3560.6 L 62.1764,-3560.25 L 62.1849,-3559.87 L 62.19,-3559.45 L 62.1917,-3558.98
 L 62.1917,-3550 L 65.2406,-3550 z
M 74.5593,-3549.93 L 75.6063,-3550.36 L 76.4906,-3551.08 L 77.2122,-3552.09 L 77.2771,-3552.09 L 77.3589,-3551.58
 L 77.4956,-3551.13 L 77.6871,-3550.75 L 77.9336,-3550.43 L 78.2453,-3550.19 L 78.6321,-3550.01 L 79.0943,-3549.91
 L 79.6317,-3549.87 L 79.7893,-3549.87 L 79.9368,-3549.88 L 80.0741,-3549.88 L 80.2013,-3549.89 L 80.3217,-3549.9
 L 80.4387,-3549.92 L 80.5522,-3549.93 L 80.6624,-3549.95 L 80.7709,-3549.96 L 80.8794,-3549.98 L 80.9879,-3550.01
 L 81.0963,-3550.03 L 81.2083,-3550.06 L 81.327,-3550.09 L 81.4524,-3550.12 L 81.5847,-3550.15 L 81.5847,-3551.8
 L 81.4206,-3551.77 L 81.2538,-3551.75 L 81.0843,-3551.74 L 80.912,-3551.74 L 80.6703,-3551.76 L 80.4658,-3551.83
 L 80.2986,-3551.95 L 80.1687,-3552.11 L 80.0714,-3552.34 L 80.0019,-3552.64 L 79.9602,-3553.02 L 79.9463,-3553.47
 L 79.9463,-3557.75 L 79.871,-3558.7 L 79.6452,-3559.53 L 79.2688,-3560.26 L 78.7419,-3560.86 L 78.076,-3561.34
 L 77.2826,-3561.68 L 76.3617,-3561.89 L 75.3133,-3561.96 L 74.27,-3561.9 L 73.3427,-3561.74 L 72.5313,-3561.46
 L 71.8359,-3561.07 L 71.2599,-3560.58 L 70.8066,-3559.98 L 70.476,-3559.28 L 70.2682,-3558.47 L 73.4472,-3558.32
 L 73.5147,-3558.74 L 73.6194,-3559.09 L 73.7615,-3559.37 L 73.9408,-3559.6 L 74.167,-3559.77 L 74.4494,-3559.89
 L 74.7882,-3559.96 L 75.1832,-3559.98 L 75.607,-3559.95 L 75.9671,-3559.84 L 76.2634,-3559.67 L 76.496,-3559.42
 L 76.6716,-3559.11 L 76.7971,-3558.72 L 76.8724,-3558.25 L 76.8975,-3557.71 L 76.8975,-3557.12 L 74.3695,-3557.07
 L 73.3078,-3557.01 L 72.3798,-3556.82 L 71.5854,-3556.52 L 70.9245,-3556.1 L 70.4048,-3555.57 L 70.0335,-3554.93
 L 69.8107,-3554.18 L 69.7365,-3553.32 L 69.7962,-3552.53 L 69.9752,-3551.83 L 70.2735,-3551.22 L 70.6912,-3550.71
 L 71.2154,-3550.3 L 71.8332,-3550.01 L 72.5446,-3549.84 L 73.3495,-3549.78 z
M 74.0219,-3551.94 L 73.7496,-3552.01 L 73.5092,-3552.14 L 73.3007,-3552.32 L 73.1322,-3552.55 L 73.0118,-3552.83
 L 72.9396,-3553.17 L 72.9155,-3553.56 L 72.9301,-3553.87 L 72.9739,-3554.14 L 73.0468,-3554.39 L 73.1488,-3554.6
 L 73.2787,-3554.78 L 73.435,-3554.94 L 73.6177,-3555.07 L 73.8269,-3555.18 L 74.088,-3555.27 L 74.4263,-3555.33
 L 74.842,-3555.38 L 75.3351,-3555.41 L 76.8975,-3555.44 L 76.8975,-3554.84 L 76.8764,-3554.46 L 76.8134,-3554.09
 L 76.7083,-3553.73 L 76.5611,-3553.38 L 76.377,-3553.05 L 76.1611,-3552.77 L 75.9132,-3552.51 L 75.6335,-3552.3
 L 75.33,-3552.13 L 75.0109,-3552.01 L 74.6762,-3551.93 L 74.3259,-3551.91 z
M 213.266,-3549.93 L 214.313,-3550.36 L 215.197,-3551.08 L 215.919,-3552.09 L 215.984,-3552.09 L 216.065,-3551.58
 L 216.202,-3551.13 L 216.394,-3550.75 L 216.64,-3550.43 L 216.952,-3550.19 L 217.339,-3550.01 L 217.801,-3549.91
 L 218.338,-3549.87 L 218.496,-3549.87 L 218.643,-3549.88 L 218.781,-3549.88 L 218.908,-3549.89 L 219.028,-3549.9
 L 219.145,-3549.92 L 219.259,-3549.93 L 219.369,-3549.95 L 219.477,-3549.96 L 219.586,-3549.98 L 219.694,-3550.01
 L 219.803,-3550.03 L 219.915,-3550.06 L 220.033,-3550.09 L 220.159,-3550.12 L 220.291,-3550.15 L 220.291,-3551.8
 L 220.127,-3551.77 L 219.96,-3551.75 L 219.791,-3551.74 L 219.618,-3551.74 L 219.377,-3551.76 L 219.172,-3551.83
 L 219.005,-3551.95 L 218.875,-3552.11 L 218.778,-3552.34 L 218.708,-3552.64 L 218.667,-3553.02 L 218.653,-3553.47
 L 218.653,-3557.75 L 218.577,-3558.7 L 218.352,-3559.53 L 217.975,-3560.26 L 217.448,-3560.86 L 216.782,-3561.34
 L 215.989,-3561.68 L 215.068,-3561.89 L 214.02,-3561.96 L 212.976,-3561.9 L 212.049,-3561.74 L 211.238,-3561.46
 L 210.542,-3561.07 L 209.966,-3560.58 L 209.513,-3559.98 L 209.182,-3559.28 L 208.975,-3558.47 L 212.154,-3558.32
 L 212.221,-3558.74 L 212.326,-3559.09 L 212.468,-3559.37 L 212.647,-3559.6 L 212.873,-3559.77 L 213.156,-3559.89
 L 213.495,-3559.96 L 213.89,-3559.98 L 214.313,-3559.95 L 214.674,-3559.84 L 214.97,-3559.67 L 215.202,-3559.42
 L 215.378,-3559.11 L 215.504,-3558.72 L 215.579,-3558.25 L 215.604,-3557.71 L 215.604,-3557.12 L 213.076,-3557.07
 L 212.014,-3557.01 L 211.086,-3556.82 L 210.292,-3556.52 L 209.631,-3556.1 L 209.111,-3555.57 L 208.74,-3554.93
 L 208.517,-3554.18 L 208.443,-3553.32 L 208.503,-3552.53 L 208.682,-3551.83 L 208.98,-3551.22 L 209.398,-3550.71
 L 209.922,-3550.3 L 210.54,-3550.01 L 211.251,-3549.84 L 212.056,-3549.78 z
M 212.728,-3551.94 L 212.456,-3552.01 L 212.216,-3552.14 L 212.007,-3552.32 L 211.839,-3552.55 L 211.718,-3552.83
 L 211.646,-3553.17 L 211.622,-3553.56 L 211.637,-3553.87 L 211.68,-3554.14 L 211.753,-3554.39 L 211.855,-3554.6
 L 211.985,-3554.78 L 212.141,-3554.94 L 212.324,-3555.07 L 212.533,-3555.18 L 212.794,-3555.27 L 213.133,-3555.33
 L 213.548,-3555.38 L 214.041,-3555.41 L 215.604,-3555.44 L 215.604,-3554.84 L 215.583,-3554.46 L 215.52,-3554.09
 L 215.415,-3553.73 L 215.268,-3553.38 L 215.083,-3553.05 L 214.867,-3552.77 L 214.62,-3552.51 L 214.34,-3552.3
 L 214.036,-3552.13 L 213.717,-3552.01 L 213.383,-3551.93 L 213.032,-3551.91 z
M 44.6192,-3549.98 L 46.0466,-3550.58 L 47.1527,-3551.58 L 47.9373,-3552.97 L 45.0619,-3553.22 L 44.7758,-3552.61
 L 44.3405,-3552.17 L 43.756,-3551.91 L 43.0223,-3551.82 L 42.4699,-3551.88 L 41.9847,-3552.04 L 41.5666,-3552.31
 L 41.2157,-3552.7 L 40.938,-3553.19 L 40.7397,-3553.78 L 40.6207,-3554.48 L 40.581,-3555.28 L 48.1109,-3555.28
 L 48.1109,-3555.37 L 48.0275,-3556.89 L 47.7773,-3558.21 L 47.3602,-3559.34 L 46.7763,-3560.28 L 46.0345,-3561.01
 L 45.1434,-3561.54 L 44.1031,-3561.85 L 42.9136,-3561.96 L 41.6652,-3561.86 L 40.5673,-3561.57 L 39.62,-3561.08
 L 38.8232,-3560.39 L 38.1919,-3559.53 L 37.7409,-3558.5 L 37.4704,-3557.29 L 37.3802,-3555.92 L 37.469,-3554.51
 L 37.7355,-3553.28 L 38.1797,-3552.22 L 38.8015,-3551.35 L 39.5888,-3550.66 L 40.5294,-3550.17 L 41.6232,-3549.88
 L 42.8703,-3549.78 z
M 40.6026,-3557.19 L 40.6531,-3557.83 L 40.7722,-3558.39 L 40.9597,-3558.88 L 41.2157,-3559.29 L 41.5368,-3559.62
 L 41.9196,-3559.85 L 42.3641,-3559.99 L 42.8703,-3560.04 L 43.349,-3559.99 L 43.7763,-3559.86 L 44.1519,-3559.64
 L 44.476,-3559.33 L 44.7426,-3558.93 L 44.9453,-3558.44 L 45.0844,-3557.86 L 45.1597,-3557.19 z
M 239.992,-3549.88 L 241.164,-3550.19 L 242.183,-3550.7 L 243.051,-3551.41 L 243.744,-3552.29 L 244.24,-3553.34
 L 244.537,-3554.53 L 244.636,-3555.88 L 244.541,-3557.27 L 244.257,-3558.48 L 243.784,-3559.52 L 243.122,-3560.39
 L 242.28,-3561.07 L 241.268,-3561.56 L 240.086,-3561.86 L 238.733,-3561.96 L 237.406,-3561.86 L 236.235,-3561.55
 L 235.22,-3561.04 L 234.361,-3560.33 L 233.677,-3559.45 L 233.189,-3558.41 L 232.896,-3557.22 L 232.798,-3555.88
 L 232.896,-3554.54 L 233.189,-3553.34 L 233.677,-3552.3 L 234.361,-3551.41 L 235.216,-3550.7 L 236.219,-3550.19
 L 237.37,-3549.88 L 238.668,-3549.78 z
M 238.033,-3551.93 L 237.506,-3552.12 L 237.054,-3552.44 L 236.677,-3552.89 L 236.381,-3553.46 L 236.169,-3554.15
 L 236.041,-3554.96 L 235.999,-3555.88 L 236.173,-3557.62 L 236.694,-3558.87 L 237.562,-3559.61 L 238.777,-3559.86
 L 239.389,-3559.8 L 239.924,-3559.63 L 240.382,-3559.33 L 240.762,-3558.92 L 241.061,-3558.37 L 241.275,-3557.69
 L 241.403,-3556.86 L 241.446,-3555.88 L 241.27,-3554.12 L 240.743,-3552.87 L 239.865,-3552.12 L 238.636,-3551.87
 z
M 88.2926,-3549.82 L 88.9504,-3549.91 L 89.5729,-3550.07 L 90.1601,-3550.3 L 90.7023,-3550.58 L 91.1896,-3550.92
 L 91.6219,-3551.31 L 91.9993,-3551.76 L 92.3157,-3552.25 L 92.5649,-3552.77 L 92.7469,-3553.32 L 92.8619,-3553.91
 L 89.8022,-3554.05 L 89.7038,-3553.54 L 89.5499,-3553.1 L 89.3403,-3552.72 L 89.0752,-3552.41 L 88.7646,-3552.17
 L 88.4187,-3552 L 88.0376,-3551.9 L 87.6212,-3551.87 L 86.5722,-3552.12 L 85.8229,-3552.88 L 85.3733,-3554.15
 L 85.2235,-3555.92 L 85.3706,-3557.65 L 85.8121,-3558.88 L 86.5478,-3559.62 L 87.5779,-3559.86 L 88.0282,-3559.83
 L 88.4242,-3559.73 L 88.766,-3559.56 L 89.0536,-3559.33 L 89.2895,-3559.03 L 89.4767,-3558.7 L 89.615,-3558.32
 L 89.7044,-3557.89 L 92.775,-3558.04 L 92.5383,-3558.91 L 92.1755,-3559.68 L 91.6866,-3560.34 L 91.0715,-3560.92
 L 90.3486,-3561.37 L 89.5363,-3561.7 L 88.6344,-3561.89 L 87.643,-3561.96 L 86.3742,-3561.86 L 85.2586,-3561.55
 L 84.2964,-3561.04 L 83.4873,-3560.33 L 82.8465,-3559.44 L 82.3888,-3558.39 L 82.1142,-3557.18 L 82.0227,-3555.8
 L 82.1136,-3554.46 L 82.3862,-3553.28 L 82.8405,-3552.25 L 83.4766,-3551.37 L 84.2795,-3550.68 L 85.2343,-3550.18
 L 86.341,-3549.88 L 87.5996,-3549.78 z
M 111.514,-3561.74 L 108.324,-3561.74 L 107.358,-3558.78 L 106.62,-3556.51 L 106.11,-3554.93 L 105.828,-3554.03
 L 105.674,-3553.51 L 105.549,-3553.08 L 105.452,-3552.73 L 105.384,-3552.46 L 105.108,-3553.45 L 104.887,-3554.23
 L 104.722,-3554.8 L 104.613,-3555.18 L 102.563,-3561.74 L 99.3401,-3561.74 L 103.539,-3550 L 107.185,-3550
 z
M 223.687,-3545.44 L 224.371,-3545.61 L 224.981,-3545.88 L 225.519,-3546.26 L 226.017,-3546.78 L 226.505,-3547.47
 L 226.985,-3548.34 L 227.456,-3549.38 L 232.1,-3561.74 L 228.91,-3561.74 L 227.174,-3556.2 L 226.469,-3553.65
 L 226.198,-3552.61 L 225.881,-3553.76 L 225.593,-3554.74 L 225.333,-3555.57 L 225.102,-3556.24 L 223.257,-3561.74
 L 220.035,-3561.74 L 224.679,-3550.12 L 224.472,-3549.59 L 224.276,-3549.15 L 224.09,-3548.78 L 223.914,-3548.5
 L 223.737,-3548.28 L 223.55,-3548.09 L 223.352,-3547.94 L 223.143,-3547.82 L 222.915,-3547.73 L 222.659,-3547.66
 L 222.375,-3547.63 L 222.064,-3547.61 L 221.819,-3547.62 L 221.562,-3547.63 L 221.293,-3547.66 L 221.011,-3547.7
 L 221.011,-3545.53 L 221.44,-3545.47 L 221.904,-3545.42 L 222.401,-3545.4 L 222.932,-3545.39 z
M 251.05,-3549.82 L 251.63,-3549.93 L 252.165,-3550.12 L 252.657,-3550.39 L 253.105,-3550.74 L 253.512,-3551.18
 L 253.878,-3551.71 L 254.203,-3552.33 L 254.257,-3552.33 L 254.265,-3551.9 L 254.29,-3551.36 L 254.33,-3550.73
 L 254.387,-3550 L 257.295,-3550 L 257.257,-3550.59 L 257.23,-3551.22 L 257.214,-3551.9 L 257.208,-3552.63
 L 257.208,-3561.74 L 254.159,-3561.74 L 254.159,-3555.45 L 254.117,-3554.74 L 253.99,-3554.09 L 253.778,-3553.52
 L 253.481,-3553.01 L 253.115,-3552.6 L 252.696,-3552.3 L 252.223,-3552.12 L 251.696,-3552.06 L 250.785,-3552.25
 L 250.134,-3552.83 L 249.743,-3553.8 L 249.613,-3555.15 L 249.613,-3561.74 L 246.564,-3561.74 L 246.564,-3554.29
 L 246.627,-3553.25 L 246.814,-3552.34 L 247.126,-3551.57 L 247.563,-3550.93 L 248.116,-3550.43 L 248.778,-3550.07
 L 249.548,-3549.85 L 250.427,-3549.78 z
M 27.8566,-3561.74 L 24.8076,-3561.74 L 24.8076,-3550 L 27.8566,-3550 z
M 15.1112,-3529.88 L 13.92,-3529.52 L 12.8221,-3528.93 L 11.8599,-3528.14 L 11.0702,-3527.18 L 10.4834,-3526.08
 L 10.122,-3524.89 L 10,-3523.65 L 10,-3336.35 L 10.122,-3335.11 L 10.4834,-3333.92 L 11.0702,-3332.82
 L 11.8599,-3331.86 L 12.8221,-3331.07 L 13.92,-3330.48 L 15.1112,-3330.12 L 16.35,-3330 L 303.65,-3330
 L 304.889,-3330.12 L 306.08,-3330.48 L 307.178,-3331.07 L 308.14,-3331.86 L 308.93,-3332.82 L 309.517,-3333.92
 L 309.878,-3335.11 L 310,-3336.35 L 310,-3523.65 L 309.878,-3524.89 L 309.517,-3526.08 L 308.93,-3527.18
 L 308.14,-3528.14 L 307.178,-3528.93 L 306.08,-3529.52 L 304.889,-3529.88 L 303.65,-3530 L 215.211,-3530
 L 215.993,-3530.3 L 216.635,-3530.84 L 217.069,-3531.6 L 215.998,-3531.91 L 215.894,-3531.67 L 215.751,-3531.46
 L 215.57,-3531.27 L 215.35,-3531.1 L 215.091,-3530.96 L 214.793,-3530.86 L 214.456,-3530.8 L 214.079,-3530.78
 L 213.607,-3530.82 L 213.195,-3530.95 L 212.844,-3531.17 L 212.553,-3531.46 L 212.324,-3531.84 L 212.161,-3532.29
 L 212.063,-3532.82 L 212.031,-3533.41 L 217.266,-3533.41 L 217.266,-3533.57 L 217.064,-3535.28 L 216.457,-3536.5
 L 215.446,-3537.23 L 214.031,-3537.47 L 213.287,-3537.41 L 212.633,-3537.23 L 212.071,-3536.93 L 211.6,-3536.5
 L 211.228,-3535.97 L 210.962,-3535.32 L 210.802,-3534.57 L 210.749,-3533.72 L 210.802,-3532.82 L 210.962,-3532.04
 L 211.228,-3531.38 L 211.6,-3530.83 L 212.074,-3530.41 L 212.645,-3530.11 L 213.038,-3530 L 209.916,-3530
 L 210.147,-3530.05 L 210.147,-3530.96 L 209.93,-3530.91 L 209.741,-3530.88 L 209.578,-3530.87 L 209.442,-3530.86
 L 209.244,-3530.87 L 209.079,-3530.91 L 208.944,-3530.98 L 208.842,-3531.07 L 208.766,-3531.2 L 208.712,-3531.37
 L 208.68,-3531.57 L 208.669,-3531.82 L 208.669,-3536.45 L 210.025,-3536.45 L 210.025,-3537.34 L 208.669,-3537.34
 L 208.669,-3538.98 L 207.855,-3538.98 L 207.496,-3537.34 L 206.601,-3537.34 L 206.601,-3536.45 L 207.449,-3536.45
 L 207.449,-3531.55 L 207.54,-3530.83 L 207.815,-3530.31 L 208.266,-3530 L 206.372,-3530 L 206.571,-3530.04
 L 206.571,-3530.8 L 206.462,-3530.78 L 206.359,-3530.76 L 206.262,-3530.76 L 206.171,-3530.75 L 205.987,-3530.77
 L 205.835,-3530.82 L 205.716,-3530.91 L 205.629,-3531.03 L 205.566,-3531.18 L 205.522,-3531.37 L 205.495,-3531.59
 L 205.486,-3531.84 L 205.486,-3535 L 205.443,-3535.57 L 205.312,-3536.06 L 205.093,-3536.49 L 204.788,-3536.84
 L 204.396,-3537.12 L 203.918,-3537.31 L 203.355,-3537.43 L 202.706,-3537.47 L 201.535,-3537.35 L 200.655,-3536.98
 L 200.064,-3536.36 L 199.763,-3535.49 L 201.038,-3535.38 L 201.094,-3535.66 L 201.187,-3535.9 L 201.317,-3536.11
 L 201.485,-3536.27 L 201.7,-3536.39 L 201.97,-3536.47 L 202.296,-3536.53 L 202.679,-3536.54 L 203.059,-3536.52
 L 203.384,-3536.45 L 203.655,-3536.33 L 203.872,-3536.16 L 204.038,-3535.93 L 204.157,-3535.64 L 204.228,-3535.29
 L 204.252,-3534.88 L 204.252,-3534.48 L 202.604,-3534.45 L 201.827,-3534.39 L 201.166,-3534.27 L 200.619,-3534.07
 L 200.187,-3533.8 L 199.859,-3533.46 L 199.625,-3533.05 L 199.484,-3532.58 L 199.437,-3532.05 L 199.472,-3531.57
 L 199.576,-3531.14 L 199.75,-3530.77 L 199.993,-3530.45 L 200.306,-3530.19 L 200.687,-3530.01 L 200.729,-3530
 L 193.4,-3530 L 193.913,-3530.1 L 194.757,-3530.82 L 195.263,-3532.02 L 195.431,-3533.7 L 195.389,-3534.61
 L 195.264,-3535.39 L 195.054,-3536.04 L 194.76,-3536.56 L 194.382,-3536.96 L 193.917,-3537.24 L 193.368,-3537.41
 L 192.732,-3537.47 L 192.316,-3537.45 L 191.942,-3537.39 L 191.611,-3537.29 L 191.322,-3537.15 L 191.067,-3536.97
 L 190.839,-3536.74 L 190.637,-3536.47 L 190.461,-3536.16 L 190.434,-3536.16 L 190.433,-3536.24 L 190.429,-3536.34
 L 190.424,-3536.47 L 190.417,-3536.63 L 190.408,-3536.79 L 190.401,-3536.93 L 190.393,-3537.05 L 190.386,-3537.14
 L 190.38,-3537.22 L 190.374,-3537.28 L 190.37,-3537.32 L 190.366,-3537.34 L 189.186,-3537.34 L 189.204,-3537.11
 L 189.216,-3536.78 L 189.224,-3536.36 L 189.227,-3535.84 L 189.227,-3530 L 169.531,-3530 L 172.254,-3540.06
 L 171.183,-3540.06 L 168.433,-3530 L 142.1,-3530 L 142.224,-3530.04 L 142.521,-3530.17 L 142.787,-3530.35
 L 143.025,-3530.57 L 143.236,-3530.85 L 143.419,-3531.18 L 143.446,-3531.18 L 143.448,-3531.03 L 143.452,-3530.87
 L 143.46,-3530.69 L 143.47,-3530.5 L 143.482,-3530.32 L 143.493,-3530.18 L 143.504,-3530.07 L 143.514,-3530
 L 144.681,-3530 L 144.663,-3530.23 L 144.65,-3530.56 L 144.642,-3530.99 L 144.64,-3531.51 L 144.64,-3540.06
 L 143.419,-3540.06 L 143.419,-3537.02 L 143.433,-3536.2 L 143.419,-3536.2 L 143.236,-3536.51 L 143.026,-3536.77
 L 142.789,-3536.99 L 142.524,-3537.17 L 142.229,-3537.3 L 141.899,-3537.4 L 141.534,-3537.45 L 141.134,-3537.47
 L 139.953,-3537.23 L 139.11,-3536.51 L 138.604,-3535.31 L 138.435,-3533.63 L 138.476,-3532.75 L 138.599,-3531.98
 L 138.803,-3531.33 L 139.09,-3530.8 L 139.463,-3530.39 L 139.928,-3530.1 L 140.24,-3530 L 135.361,-3530
 L 136.142,-3530.3 L 136.785,-3530.84 L 137.219,-3531.6 L 136.147,-3531.91 L 136.043,-3531.67 L 135.901,-3531.46
 L 135.719,-3531.27 L 135.5,-3531.1 L 135.241,-3530.96 L 134.943,-3530.86 L 134.605,-3530.8 L 134.228,-3530.78
 L 133.757,-3530.82 L 133.345,-3530.95 L 132.994,-3531.17 L 132.702,-3531.46 L 132.474,-3531.84 L 132.311,-3532.29
 L 132.213,-3532.82 L 132.18,-3533.41 L 137.415,-3533.41 L 137.415,-3533.57 L 137.213,-3535.28 L 136.607,-3536.5
 L 135.596,-3537.23 L 134.181,-3537.47 L 133.436,-3537.41 L 132.783,-3537.23 L 132.221,-3536.93 L 131.75,-3536.5
 L 131.377,-3535.97 L 131.111,-3535.32 L 130.952,-3534.57 L 130.899,-3533.72 L 130.952,-3532.82 L 131.111,-3532.04
 L 131.377,-3531.38 L 131.75,-3530.83 L 132.224,-3530.41 L 132.795,-3530.11 L 133.187,-3530 L 115.589,-3530
 L 115.589,-3540.06 L 114.463,-3540.06 L 114.463,-3530 L 106.963,-3530 L 107.744,-3530.3 L 108.387,-3530.84
 L 108.82,-3531.6 L 107.749,-3531.91 L 107.645,-3531.67 L 107.502,-3531.46 L 107.321,-3531.27 L 107.101,-3531.1
 L 106.843,-3530.96 L 106.544,-3530.86 L 106.207,-3530.8 L 105.83,-3530.78 L 105.358,-3530.82 L 104.947,-3530.95
 L 104.595,-3531.17 L 104.304,-3531.46 L 104.076,-3531.84 L 103.912,-3532.29 L 103.815,-3532.82 L 103.782,-3533.41
 L 109.017,-3533.41 L 109.017,-3533.57 L 108.815,-3535.28 L 108.208,-3536.5 L 107.198,-3537.23 L 105.782,-3537.47
 L 105.038,-3537.41 L 104.385,-3537.23 L 103.822,-3536.93 L 103.351,-3536.5 L 102.979,-3535.97 L 102.713,-3535.32
 L 102.554,-3534.57 L 102.5,-3533.72 L 102.554,-3532.82 L 102.713,-3532.04 L 102.979,-3531.38 L 103.351,-3530.83
 L 103.825,-3530.41 L 104.397,-3530.11 L 104.789,-3530 L 101.667,-3530 L 101.899,-3530.05 L 101.899,-3530.96
 L 101.682,-3530.91 L 101.492,-3530.88 L 101.329,-3530.87 L 101.194,-3530.86 L 100.996,-3530.87 L 100.83,-3530.91
 L 100.696,-3530.98 L 100.593,-3531.07 L 100.518,-3531.2 L 100.464,-3531.37 L 100.431,-3531.57 L 100.42,-3531.82
 L 100.42,-3536.45 L 101.777,-3536.45 L 101.777,-3537.34 L 100.42,-3537.34 L 100.42,-3538.98 L 99.6068,-3538.98
 L 99.2473,-3537.34 L 98.3522,-3537.34 L 98.3522,-3536.45 L 99.1999,-3536.45 L 99.1999,-3531.55 L 99.2914,-3530.83
 L 99.5661,-3530.31 L 100.017,-3530 L 98.1237,-3530 L 98.3225,-3530.04 L 98.3225,-3530.8 L 98.2136,-3530.78
 L 98.1107,-3530.76 L 98.0136,-3530.76 L 97.9225,-3530.75 L 97.7386,-3530.77 L 97.5868,-3530.82 L 97.4673,-3530.91
 L 97.3799,-3531.03 L 97.3176,-3531.18 L 97.2731,-3531.37 L 97.2464,-3531.59 L 97.2375,-3531.84 L 97.2375,-3535
 L 97.1939,-3535.57 L 97.0629,-3536.06 L 96.8446,-3536.49 L 96.539,-3536.84 L 96.147,-3537.12 L 95.6694,-3537.31
 L 95.1061,-3537.43 L 94.4572,-3537.47 L 93.2866,-3537.35 L 92.4059,-3536.98 L 91.8151,-3536.36 L 91.5142,-3535.49
 L 92.789,-3535.38 L 92.845,-3535.66 L 92.9382,-3535.9 L 93.0688,-3536.11 L 93.2366,-3536.27 L 93.4511,-3536.39
 L 93.7215,-3536.47 L 94.0478,-3536.53 L 94.4301,-3536.54 L 94.8099,-3536.52 L 95.1354,-3536.45 L 95.4066,-3536.33
 L 95.6236,-3536.16 L 95.7898,-3535.93 L 95.9085,-3535.64 L 95.9797,-3535.29 L 96.0034,-3534.88 L 96.0034,-3534.48
 L 94.3555,-3534.45 L 93.5789,-3534.39 L 92.9171,-3534.27 L 92.3701,-3534.07 L 91.938,-3533.8 L 91.6102,-3533.46
 L 91.3761,-3533.05 L 91.2355,-3532.58 L 91.1887,-3532.05 L 91.2235,-3531.57 L 91.3277,-3531.14 L 91.5015,-3530.77
 L 91.7447,-3530.45 L 92.0571,-3530.19 L 92.4381,-3530.01 L 92.4801,-3530 L 85.1513,-3530 L 85.6646,-3530.1
 L 86.508,-3530.82 L 87.0141,-3532.02 L 87.1828,-3533.7 L 87.1408,-3534.61 L 87.0149,-3535.39 L 86.8051,-3536.04
 L 86.5114,-3536.56 L 86.1329,-3536.96 L 85.6688,-3537.24 L 85.1191,-3537.41 L 84.4838,-3537.47 L 84.0676,-3537.45
 L 83.6938,-3537.39 L 83.3623,-3537.29 L 83.0733,-3537.15 L 82.8186,-3536.97 L 82.5901,-3536.74 L 82.388,-3536.47
 L 82.2121,-3536.16 L 82.185,-3536.16 L 82.1839,-3536.24 L 82.1807,-3536.34 L 82.1754,-3536.47 L 82.168,-3536.63
 L 82.1597,-3536.79 L 82.1519,-3536.93 L 82.1445,-3537.05 L 82.1375,-3537.14 L 82.1311,-3537.22 L 82.1256,-3537.28
 L 82.121,-3537.32 L 82.1172,-3537.34 L 80.9372,-3537.34 L 80.955,-3537.11 L 80.9677,-3536.78 L 80.9753,-3536.36
 L 80.9779,-3535.84 L 80.9779,-3530 L 61.2827,-3530 L 64.0059,-3540.06 L 62.9344,-3540.06 L 60.1844,-3530
 L 34.6555,-3530 L 35.4369,-3530.3 L 36.0798,-3530.84 L 36.5134,-3531.6 L 35.442,-3531.91 L 35.3379,-3531.67
 L 35.1953,-3531.46 L 35.0141,-3531.27 L 34.7943,-3531.1 L 34.5356,-3530.96 L 34.2375,-3530.86 L 33.8999,-3530.8
 L 33.5229,-3530.78 L 33.0512,-3530.82 L 32.6396,-3530.95 L 32.2882,-3531.17 L 31.997,-3531.46 L 31.7686,-3531.84
 L 31.6054,-3532.29 L 31.5075,-3532.82 L 31.4749,-3533.41 L 36.7101,-3533.41 L 36.7101,-3533.57 L 36.5079,-3535.28
 L 35.9014,-3536.5 L 34.8906,-3537.23 L 33.4754,-3537.47 L 32.731,-3537.41 L 32.0776,-3537.23 L 31.5154,-3536.93
 L 31.0443,-3536.5 L 30.672,-3535.97 L 30.4061,-3535.32 L 30.2465,-3534.57 L 30.1933,-3533.72 L 30.2465,-3532.82
 L 30.4061,-3532.04 L 30.672,-3531.38 L 31.0443,-3530.83 L 31.5184,-3530.41 L 32.0895,-3530.11 L 32.4821,-3530
 L 26.2297,-3530 L 26.3681,-3530.04 L 26.6611,-3530.18 L 26.9292,-3530.37 L 27.1808,-3530.61 L 27.4158,-3530.9
 L 27.6342,-3531.25 L 27.6546,-3531.25 L 27.6611,-3531.01 L 27.6673,-3530.8 L 27.673,-3530.64 L 27.6783,-3530.53
 L 27.6831,-3530.43 L 27.6876,-3530.34 L 27.6916,-3530.26 L 27.6953,-3530.18 L 27.6987,-3530.12 L 27.7021,-3530.06
 L 27.7054,-3530.02 L 27.7088,-3530 L 28.8616,-3530 L 28.8438,-3530.2 L 28.8311,-3530.53 L 28.8235,-3530.99
 L 28.821,-3531.57 L 28.821,-3537.34 L 27.6004,-3537.34 L 27.6004,-3533.09 L 27.5686,-3532.58 L 27.4732,-3532.13
 L 27.3143,-3531.74 L 27.0918,-3531.41 L 26.8141,-3531.15 L 26.4899,-3530.96 L 26.119,-3530.84 L 25.7016,-3530.81
 L 25.418,-3530.82 L 25.1709,-3530.85 L 24.9603,-3530.91 L 24.7861,-3530.98 L 24.6407,-3531.09 L 24.5165,-3531.22
 L 24.4135,-3531.37 L 24.3318,-3531.56 L 24.2695,-3531.78 L 24.2249,-3532.04 L 24.1983,-3532.34 L 24.1893,-3532.69
 L 24.1893,-3537.34 L 22.9619,-3537.34 L 22.9619,-3532.45 L 22.9969,-3531.81 L 23.1018,-3531.26 L 23.2766,-3530.81
 L 23.5213,-3530.46 L 23.8416,-3530.2 L 24.2428,-3530.01 L 24.3046,-3530 L 21.2031,-3530 L 21.2031,-3540.06
 L 19.9825,-3540.06 L 19.9825,-3530 L 16.35,-3530 z
M 31.4885,-3534.35 L 31.5387,-3534.84 L 31.6487,-3535.27 L 31.8184,-3535.65 L 32.0479,-3535.98 L 32.3304,-3536.24
 L 32.6591,-3536.42 L 33.034,-3536.53 L 33.4551,-3536.57 L 33.8861,-3536.54 L 34.2637,-3536.44 L 34.5879,-3536.27
 L 34.8587,-3536.04 L 35.0787,-3535.73 L 35.2504,-3535.35 L 35.3737,-3534.89 L 35.4487,-3534.35 z
M 141.02,-3530.85 L 140.658,-3530.97 L 140.359,-3531.18 L 140.124,-3531.47 L 139.946,-3531.86 L 139.818,-3532.35
 L 139.742,-3532.96 L 139.717,-3533.68 L 139.742,-3534.39 L 139.819,-3535 L 139.948,-3535.5 L 140.127,-3535.89
 L 140.364,-3536.19 L 140.665,-3536.4 L 141.03,-3536.53 L 141.46,-3536.57 L 141.937,-3536.53 L 142.345,-3536.4
 L 142.683,-3536.19 L 142.951,-3535.89 L 143.156,-3535.51 L 143.302,-3535.02 L 143.39,-3534.44 L 143.419,-3533.76
 L 143.39,-3533.05 L 143.302,-3532.44 L 143.156,-3531.93 L 142.951,-3531.53 L 142.682,-3531.21 L 142.341,-3530.99
 L 141.929,-3530.85 L 141.446,-3530.81 z
M 132.194,-3534.35 L 132.244,-3534.84 L 132.354,-3535.27 L 132.524,-3535.65 L 132.753,-3535.98 L 133.036,-3536.24
 L 133.364,-3536.42 L 133.739,-3536.53 L 134.16,-3536.57 L 134.591,-3536.54 L 134.969,-3536.44 L 135.293,-3536.27
 L 135.564,-3536.04 L 135.784,-3535.73 L 135.956,-3535.35 L 136.079,-3534.89 L 136.154,-3534.35 z
M 212.044,-3534.35 L 212.094,-3534.84 L 212.204,-3535.27 L 212.374,-3535.65 L 212.604,-3535.98 L 212.886,-3536.24
 L 213.215,-3536.42 L 213.59,-3536.53 L 214.011,-3536.57 L 214.442,-3536.54 L 214.819,-3536.44 L 215.144,-3536.27
 L 215.414,-3536.04 L 215.634,-3535.73 L 215.806,-3535.35 L 215.929,-3534.89 L 216.004,-3534.35 z
M 103.796,-3534.35 L 103.846,-3534.84 L 103.956,-3535.27 L 104.125,-3535.65 L 104.355,-3535.98 L 104.637,-3536.24
 L 104.966,-3536.42 L 105.341,-3536.53 L 105.762,-3536.57 L 106.193,-3536.54 L 106.571,-3536.44 L 106.895,-3536.27
 L 107.166,-3536.04 L 107.386,-3535.73 L 107.557,-3535.35 L 107.681,-3534.89 L 107.756,-3534.35 z
M 83.6756,-3530.81 L 83.2649,-3530.94 L 82.9262,-3531.15 L 82.6596,-3531.45 L 82.4579,-3531.84 L 82.3138,-3532.33
 L 82.2273,-3532.91 L 82.1985,-3533.58 L 82.2118,-3534.07 L 82.2519,-3534.52 L 82.3186,-3534.92 L 82.4121,-3535.27
 L 82.5312,-3535.57 L 82.6749,-3535.83 L 82.8432,-3536.04 L 83.036,-3536.22 L 83.2608,-3536.35 L 83.5251,-3536.45
 L 83.8288,-3536.5 L 84.1719,-3536.52 L 84.5923,-3536.48 L 84.9517,-3536.36 L 85.2501,-3536.15 L 85.4874,-3535.87
 L 85.6684,-3535.48 L 85.7977,-3534.99 L 85.8752,-3534.39 L 85.9011,-3533.68 L 85.875,-3532.95 L 85.7968,-3532.33
 L 85.6665,-3531.82 L 85.484,-3531.43 L 85.2448,-3531.14 L 84.9441,-3530.93 L 84.5819,-3530.81 L 84.1583,-3530.77
 z
M 191.924,-3530.81 L 191.513,-3530.94 L 191.175,-3531.15 L 190.908,-3531.45 L 190.706,-3531.84 L 190.562,-3532.33
 L 190.476,-3532.91 L 190.447,-3533.58 L 190.46,-3534.07 L 190.501,-3534.52 L 190.567,-3534.92 L 190.661,-3535.27
 L 190.78,-3535.57 L 190.924,-3535.83 L 191.092,-3536.04 L 191.285,-3536.22 L 191.509,-3536.35 L 191.774,-3536.45
 L 192.077,-3536.5 L 192.421,-3536.52 L 192.841,-3536.48 L 193.2,-3536.36 L 193.499,-3536.15 L 193.736,-3535.87
 L 193.917,-3535.48 L 194.046,-3534.99 L 194.124,-3534.39 L 194.15,-3533.68 L 194.124,-3532.95 L 194.045,-3532.33
 L 193.915,-3531.82 L 193.733,-3531.43 L 193.493,-3531.14 L 193.193,-3530.93 L 192.831,-3530.81 L 192.407,-3530.77
 z
M 93.403,-3530.8 L 93.1561,-3530.86 L 92.9435,-3530.96 L 92.7653,-3531.11 L 92.6244,-3531.29 L 92.5237,-3531.5
 L 92.4633,-3531.75 L 92.4432,-3532.03 L 92.4581,-3532.29 L 92.5025,-3532.52 L 92.5767,-3532.73 L 92.6805,-3532.92
 L 92.8121,-3533.07 L 92.9696,-3533.21 L 93.1529,-3533.33 L 93.362,-3533.42 L 93.6102,-3533.49 L 93.9105,-3533.54
 L 94.2629,-3533.58 L 94.6675,-3533.59 L 96.0034,-3533.62 L 96.0034,-3533.02 L 95.9846,-3532.74 L 95.928,-3532.46
 L 95.8337,-3532.19 L 95.7016,-3531.92 L 95.5369,-3531.67 L 95.3447,-3531.45 L 95.125,-3531.25 L 94.8776,-3531.08
 L 94.6073,-3530.95 L 94.3182,-3530.86 L 94.0105,-3530.8 L 93.6842,-3530.78 z
M 201.652,-3530.8 L 201.405,-3530.86 L 201.192,-3530.96 L 201.014,-3531.11 L 200.873,-3531.29 L 200.772,-3531.5
 L 200.712,-3531.75 L 200.692,-3532.03 L 200.707,-3532.29 L 200.751,-3532.52 L 200.825,-3532.73 L 200.929,-3532.92
 L 201.061,-3533.07 L 201.218,-3533.21 L 201.402,-3533.33 L 201.611,-3533.42 L 201.859,-3533.49 L 202.159,-3533.54
 L 202.512,-3533.58 L 202.916,-3533.59 L 204.252,-3533.62 L 204.252,-3533.02 L 204.233,-3532.74 L 204.177,-3532.46
 L 204.082,-3532.19 L 203.95,-3531.92 L 203.786,-3531.67 L 203.593,-3531.45 L 203.374,-3531.25 L 203.126,-3531.08
 L 202.856,-3530.95 L 202.567,-3530.86 L 202.259,-3530.8 L 201.933,-3530.78 z
M 94.3871,-3530 L 94.588,-3530.06 L 94.915,-3530.21 L 95.2157,-3530.42 L 95.4974,-3530.69 L 95.7599,-3531.01
 L 96.0034,-3531.4 L 96.044,-3531.4 L 96.0811,-3531.05 L 96.1517,-3530.75 L 96.2557,-3530.49 L 96.3932,-3530.29
 L 96.5706,-3530.13 L 96.7942,-3530.02 L 96.8799,-3530 z
M 202.636,-3530 L 202.837,-3530.06 L 203.164,-3530.21 L 203.464,-3530.42 L 203.746,-3530.69 L 204.009,-3531.01
 L 204.252,-3531.4 L 204.293,-3531.4 L 204.33,-3531.05 L 204.4,-3530.75 L 204.504,-3530.49 L 204.642,-3530.29
 L 204.819,-3530.13 L 205.043,-3530.02 L 205.129,-3530 z
M 190.447,-3530 L 190.445,-3530.47 L 190.44,-3530.82 L 190.432,-3531.05 L 190.42,-3531.14 L 190.454,-3531.14
 L 190.815,-3530.58 L 191.315,-3530.18 L 191.805,-3530 z
M 82.1984,-3530 L 82.1968,-3530.47 L 82.1917,-3530.82 L 82.1832,-3531.05 L 82.1714,-3531.14 L 82.2053,-3531.14
 L 82.5664,-3530.58 L 83.0665,-3530.18 L 83.5562,-3530 z
M 197.99,-3540.06 L 196.77,-3540.06 L 196.77,-3530 L 197.99,-3530 z
M 89.7417,-3540.06 L 88.5211,-3540.06 L 88.5211,-3530 L 89.7417,-3530 z
M 179.19,-3531.04 L 174.206,-3531.04 L 174.323,-3531.28 L 174.473,-3531.52 L 174.656,-3531.77 L 174.87,-3532.02
 L 175.121,-3532.29 L 175.411,-3532.57 L 175.741,-3532.86 L 176.111,-3533.17 L 176.762,-3533.71 L 177.299,-3534.18
 L 177.722,-3534.56 L 178.03,-3534.88 L 178.266,-3535.15 L 178.47,-3535.42 L 178.644,-3535.7 L 178.786,-3535.97
 L 178.898,-3536.25 L 178.977,-3536.53 L 179.025,-3536.8 L 179.041,-3537.08 L 178.992,-3537.67 L 178.846,-3538.19
 L 178.604,-3538.64 L 178.264,-3539.02 L 177.834,-3539.31 L 177.321,-3539.53 L 176.724,-3539.65 L 176.043,-3539.7
 L 175.415,-3539.65 L 174.847,-3539.53 L 174.339,-3539.32 L 173.89,-3539.02 L 173.515,-3538.65 L 173.228,-3538.22
 L 173.029,-3537.74 L 172.917,-3537.19 L 174.165,-3537.08 L 174.235,-3537.44 L 174.357,-3537.76 L 174.532,-3538.04
 L 174.758,-3538.27 L 175.028,-3538.46 L 175.332,-3538.59 L 175.67,-3538.67 L 176.043,-3538.69 L 176.431,-3538.67
 L 176.774,-3538.59 L 177.072,-3538.45 L 177.325,-3538.26 L 177.527,-3538.02 L 177.671,-3537.74 L 177.757,-3537.41
 L 177.786,-3537.04 L 177.769,-3536.75 L 177.719,-3536.49 L 177.635,-3536.23 L 177.518,-3535.99 L 177.374,-3535.77
 L 177.209,-3535.54 L 177.023,-3535.33 L 176.816,-3535.11 L 176.593,-3534.9 L 176.356,-3534.69 L 176.106,-3534.48
 L 175.843,-3534.27 L 175.573,-3534.06 L 175.301,-3533.83 L 175.029,-3533.6 L 174.755,-3533.36 L 174.483,-3533.11
 L 174.218,-3532.84 L 173.959,-3532.56 L 173.707,-3532.26 L 173.467,-3531.95 L 173.247,-3531.61 L 173.045,-3531.25
 L 172.863,-3530.86 L 172.863,-3530 L 179.19,-3530 z
M 59.6498,-3531.04 L 57.3239,-3531.04 L 57.3239,-3539.55 L 56.1982,-3539.55 L 53.94,-3538 L 53.94,-3536.85
 L 56.0964,-3538.39 L 56.0964,-3531.04 L 53.662,-3531.04 L 53.662,-3530 L 59.6498,-3530 z
M 73.2967,-3539.55 L 72.049,-3539.55 L 72.1914,-3536.55 L 73.1475,-3536.55 z
M 15.8001,-3530.04 L 16.4914,-3530.18 L 17.0919,-3530.4 L 17.6018,-3530.71 L 18.0082,-3531.1 L 18.2985,-3531.56
 L 18.4727,-3532.09 L 18.5308,-3532.69 L 18.4922,-3533.15 L 18.3765,-3533.57 L 18.1837,-3533.94 L 17.9137,-3534.28
 L 17.5725,-3534.56 L 17.1661,-3534.78 L 16.6944,-3534.94 L 16.1574,-3535.04 L 16.5668,-3535.16 L 16.9271,-3535.33
 L 17.2382,-3535.55 L 17.5001,-3535.81 L 17.7078,-3536.12 L 17.8561,-3536.46 L 17.9451,-3536.83 L 17.9748,-3537.24
 L 17.7646,-3538.25 L 17.1339,-3538.97 L 16.0828,-3539.41 L 14.6113,-3539.55 L 11.1393,-3539.55 L 11.1393,-3530
 L 15.0181,-3530 z
M 12.4345,-3535.49 L 12.4345,-3538.52 L 14.6113,-3538.52 L 15.0834,-3538.5 L 15.4962,-3538.43 L 15.8497,-3538.33
 L 16.1438,-3538.18 L 16.3752,-3537.99 L 16.5405,-3537.74 L 16.6397,-3537.44 L 16.6728,-3537.08 L 16.6408,-3536.7
 L 16.5448,-3536.38 L 16.3848,-3536.1 L 16.1608,-3535.88 L 15.8719,-3535.71 L 15.5174,-3535.59 L 15.0972,-3535.52
 L 14.6113,-3535.49 z
M 12.4345,-3531.04 L 12.4345,-3534.48 L 14.8486,-3534.48 L 15.8869,-3534.38 L 16.6286,-3534.06 L 17.0737,-3533.53
 L 17.222,-3532.79 L 17.1881,-3532.38 L 17.0864,-3532.03 L 16.9168,-3531.73 L 16.6795,-3531.48 L 16.368,-3531.29
 L 15.9759,-3531.15 L 15.5034,-3531.07 L 14.9503,-3531.04 z
M 122.948,-3533.97 L 125.925,-3533.97 L 128.407,-3530 L 129.899,-3530 L 127.186,-3534.12 L 127.703,-3534.24
 L 128.16,-3534.44 L 128.559,-3534.7 L 128.899,-3535.03 L 129.17,-3535.42 L 129.364,-3535.84 L 129.48,-3536.31
 L 129.519,-3536.82 L 129.464,-3537.43 L 129.3,-3537.97 L 129.025,-3538.44 L 128.641,-3538.83 L 128.156,-3539.15
 L 127.579,-3539.37 L 126.91,-3539.51 L 126.149,-3539.55 L 121.653,-3539.55 L 121.653,-3530 L 122.948,-3530
 z
M 122.948,-3534.99 L 122.948,-3538.52 L 126.02,-3538.52 L 126.521,-3538.49 L 126.96,-3538.41 L 127.337,-3538.27
 L 127.651,-3538.08 L 127.899,-3537.84 L 128.076,-3537.54 L 128.182,-3537.2 L 128.217,-3536.81 L 128.182,-3536.4
 L 128.077,-3536.04 L 127.902,-3535.73 L 127.658,-3535.47 L 127.349,-3535.26 L 126.982,-3535.11 L 126.557,-3535.02
 L 126.074,-3534.99 z
M 69.89,-3532.16 L 71.2327,-3532.16 L 71.2327,-3533.13 L 69.89,-3533.13 L 69.89,-3539.55 L 68.6083,-3539.55
 L 64.2344,-3533.11 L 64.2344,-3532.16 L 68.7372,-3532.16 L 68.7372,-3530 L 69.89,-3530 z
M 65.3601,-3533.13 L 65.4686,-3533.26 L 65.8348,-3533.76 L 68.2828,-3537.37 L 68.3324,-3537.45 L 68.393,-3537.55
 L 68.4647,-3537.67 L 68.5473,-3537.82 L 68.6253,-3537.96 L 68.6829,-3538.07 L 68.7202,-3538.14 L 68.7372,-3538.18
 L 68.7372,-3533.13 z
M 75.799,-3539.55 L 74.5513,-3539.55 L 74.6869,-3536.55 L 75.6498,-3536.55 z
M 181.545,-3539.55 L 180.298,-3539.55 L 180.44,-3536.55 L 181.396,-3536.55 z
M 167.898,-3531.04 L 165.573,-3531.04 L 165.573,-3539.55 L 164.447,-3539.55 L 162.189,-3538 L 162.189,-3536.85
 L 164.345,-3538.39 L 164.345,-3531.04 L 161.911,-3531.04 L 161.911,-3530 L 167.898,-3530 z
M 184.048,-3539.55 L 182.8,-3539.55 L 182.936,-3536.55 L 183.898,-3536.55 z
M 48.3404,-3536.81 L 41.593,-3536.81 L 41.593,-3535.8 L 48.3404,-3535.8 z
M 156.589,-3536.81 L 149.842,-3536.81 L 149.842,-3535.8 L 156.589,-3535.8 z
M 156.589,-3533.34 L 149.842,-3533.34 L 149.842,-3532.33 L 156.589,-3532.33 z
M 48.3404,-3533.34 L 41.593,-3533.34 L 41.593,-3532.33 L 48.3404,-3532.33 z
M 324.889,-2110.12 L 326.08,-2110.48 L 327.178,-2111.07 L 328.14,-2111.86 L 328.93,-2112.82 L 329.517,-2113.92
 L 329.878,-2115.11 L 330,-2116.35 L 330,-3303.65 L 329.878,-3304.89 L 329.517,-3306.08 L 328.93,-3307.18
 L 328.14,-3308.14 L 327.178,-3308.93 L 326.08,-3309.52 L 324.889,-3309.88 L 323.65,-3310 L 186.35,-3310
 L 185.111,-3309.88 L 183.92,-3309.52 L 182.822,-3308.93 L 181.86,-3308.14 L 181.07,-3307.18 L 180.483,-3306.08
 L 180.122,-3304.89 L 180,-3303.65 L 180,-2116.35 L 180.122,-2115.11 L 180.483,-2113.92 L 181.07,-2112.82
 L 181.86,-2111.86 L 182.822,-2111.07 L 183.92,-2110.48 L 185.111,-2110.12 L 186.35,-2110 L 323.65,-2110
 z
M 154.889,-2110.12 L 156.08,-2110.48 L 157.178,-2111.07 L 158.14,-2111.86 L 158.93,-2112.82 L 159.517,-2113.92
 L 159.878,-2115.11 L 160,-2116.35 L 160,-3303.65 L 159.878,-3304.89 L 159.517,-3306.08 L 158.93,-3307.18
 L 158.14,-3308.14 L 157.178,-3308.93 L 156.08,-3309.52 L 154.889,-3309.88 L 153.65,-3310 L 16.35,-3310
 L 15.1112,-3309.88 L 13.92,-3309.52 L 12.8221,-3308.93 L 11.8599,-3308.14 L 11.0702,-3307.18 L 10.4834,-3306.08
 L 10.122,-3304.89 L 10,-3303.65 L 10,-2116.35 L 10.122,-2115.11 L 10.4834,-2113.92 L 11.0702,-2112.82
 L 11.8599,-2111.86 L 12.8221,-2111.07 L 13.92,-2110.48 L 15.1112,-2110.12 L 16.35,-2110 L 153.65,-2110
 z
M 1344.89,-2110.12 L 1346.08,-2110.48 L 1347.18,-2111.07 L 1348.14,-2111.86 L 1348.93,-2112.82 L 1349.52,-2113.92
 L 1349.88,-2115.11 L 1350,-2116.35 L 1350,-2503.65 L 1349.88,-2504.89 L 1349.52,-2506.08 L 1348.93,-2507.18
 L 1348.14,-2508.14 L 1347.18,-2508.93 L 1346.08,-2509.52 L 1344.89,-2509.88 L 1343.65,-2510 L 356.35,-2510
 L 355.111,-2509.88 L 353.92,-2509.52 L 352.822,-2508.93 L 351.86,-2508.14 L 351.07,-2507.18 L 350.483,-2506.08
 L 350.122,-2504.89 L 350,-2503.65 L 350,-2116.35 L 350.122,-2115.11 L 350.483,-2113.92 L 351.07,-2112.82
 L 351.86,-2111.86 L 352.822,-2111.07 L 353.92,-2110.48 L 355.111,-2110.12 L 356.35,-2110 L 1343.65,-2110
 z
M 1224.89,-1690.12 L 1226.08,-1690.48 L 1227.18,-1691.07 L 1228.14,-1691.86 L 1228.93,-1692.82 L 1229.52,-1693.92
 L 1229.88,-1695.11 L 1230,-1696.35 L 1230,-2083.65 L 1229.88,-2084.89 L 1229.52,-2086.08 L 1228.93,-2087.18
 L 1228.14,-2088.14 L 1227.18,-2088.93 L 1226.08,-2089.52 L 1224.89,-2089.88 L 1223.65,-2090 L 636.35,-2090
 L 635.111,-2089.88 L 633.92,-2089.52 L 632.822,-2088.93 L 631.86,-2088.14 L 631.07,-2087.18 L 630.483,-2086.08
 L 630.122,-2084.89 L 630,-2083.65 L 630,-1696.35 L 630.122,-1695.11 L 630.483,-1693.92 L 631.07,-1692.82
 L 631.86,-1691.86 L 632.822,-1691.07 L 633.92,-1690.48 L 635.111,-1690.12 L 636.35,-1690 L 1223.65,-1690
 z
M 604.889,-1690.12 L 606.08,-1690.48 L 607.178,-1691.07 L 608.14,-1691.86 L 608.93,-1692.82 L 609.517,-1693.92
 L 609.878,-1695.11 L 610,-1696.35 L 610,-2083.65 L 609.878,-2084.89 L 609.517,-2086.08 L 608.93,-2087.18
 L 608.14,-2088.14 L 607.178,-2088.93 L 606.08,-2089.52 L 604.889,-2089.88 L 603.65,-2090 L 16.35,-2090
 L 15.1112,-2089.88 L 13.92,-2089.52 L 12.8221,-2088.93 L 11.8599,-2088.14 L 11.0702,-2087.18 L 10.4834,-2086.08
 L 10.122,-2084.89 L 10,-2083.65 L 10,-1696.35 L 10.122,-1695.11 L 10.4834,-1693.92 L 11.0702,-1692.82
 L 11.8599,-1691.86 L 12.8221,-1691.07 L 13.92,-1690.48 L 15.1112,-1690.12 L 16.35,-1690 L 603.65,-1690
 z
M 1104.89,-1270.12 L 1106.08,-1270.48 L 1107.18,-1271.07 L 1108.14,-1271.86 L 1108.93,-1272.82 L 1109.52,-1273.92
 L 1109.88,-1275.11 L 1110,-1276.35 L 1110,-1663.65 L 1109.88,-1664.89 L 1109.52,-1666.08 L 1108.93,-1667.18
 L 1108.14,-1668.14 L 1107.18,-1668.93 L 1106.08,-1669.52 L 1104.89,-1669.88 L 1103.65,-1670 L 16.35,-1670
 L 15.1112,-1669.88 L 13.92,-1669.52 L 12.8221,-1668.93 L 11.8599,-1668.14 L 11.0702,-1667.18 L 10.4834,-1666.08
 L 10.122,-1664.89 L 10,-1663.65 L 10,-1276.35 L 10.122,-1275.11 L 10.4834,-1273.92 L 11.0702,-1272.82
 L 11.8599,-1271.86 L 12.8221,-1271.07 L 13.92,-1270.48 L 15.1112,-1270.12 L 16.35,-1270 L 1103.65,-1270
 z
M 1104.89,-650.122 L 1106.08,-650.483 L 1107.18,-651.07 L 1108.14,-651.86 L 1108.93,-652.822 L 1109.52,-653.92
 L 1109.88,-655.111 L 1110,-656.35 L 1110,-1243.65 L 1109.88,-1244.89 L 1109.52,-1246.08 L 1108.93,-1247.18
 L 1108.14,-1248.14 L 1107.18,-1248.93 L 1106.08,-1249.52 L 1104.89,-1249.88 L 1103.65,-1250 L 16.35,-1250
 L 15.1112,-1249.88 L 13.92,-1249.52 L 12.8221,-1248.93 L 11.8599,-1248.14 L 11.0702,-1247.18 L 10.4834,-1246.08
 L 10.122,-1244.89 L 10,-1243.65 L 10,-656.35 L 10.122,-655.111 L 10.4834,-653.92 L 11.0702,-652.822
 L 11.8599,-651.86 L 12.8221,-651.07 L 13.92,-650.483 L 15.1112,-650.122 L 16.35,-650 L 1103.65,-650
 z
M 204.889,-330.122 L 206.08,-330.483 L 207.178,-331.07 L 208.14,-331.86 L 208.93,-332.822 L 209.517,-333.92
 L 209.878,-335.111 L 210,-336.35 L 210,-523.65 L 209.878,-524.889 L 209.517,-526.08 L 208.93,-527.178
 L 208.14,-528.14 L 207.178,-528.93 L 206.08,-529.517 L 204.889,-529.878 L 203.65,-530 L 16.35,-530
 L 15.1112,-529.878 L 13.92,-529.517 L 12.8221,-528.93 L 11.8599,-528.14 L 11.0702,-527.178 L 10.4834,-526.08
 L 10.122,-524.889 L 10,-523.65 L 10,-336.35 L 10.122,-335.111 L 10.4834,-333.92 L 11.0702,-332.822
 L 11.8599,-331.86 L 12.8221,-331.07 L 13.92,-330.483 L 15.1112,-330.122 L 16.35,-330 L 203.65,-330
 z
M 424.889,-330.122 L 426.08,-330.483 L 427.178,-331.07 L 428.14,-331.86 L 428.93,-332.822 L 429.517,-333.92
 L 429.878,-335.111 L 430,-336.35 L 430,-523.65 L 429.878,-524.889 L 429.517,-526.08 L 428.93,-527.178
 L 428.14,-528.14 L 427.178,-528.93 L 426.08,-529.517 L 424.889,-529.878 L 423.65,-530 L 236.35,-530
 L 235.111,-529.878 L 233.92,-529.517 L 232.822,-528.93 L 231.86,-528.14 L 231.07,-527.178 L 230.483,-526.08
 L 230.122,-524.889 L 230,-523.65 L 230,-336.35 L 230.122,-335.111 L 230.483,-333.92 L 231.07,-332.822
 L 231.86,-331.86 L 232.822,-331.07 L 233.92,-330.483 L 235.111,-330.122 L 236.35,-330 L 423.65,-330
 z
M 904.889,-330.122 L 906.08,-330.483 L 907.178,-331.07 L 908.14,-331.86 L 908.93,-332.822 L 909.517,-333.92
 L 909.878,-335.111 L 910,-336.35 L 910,-473.65 L 909.878,-474.889 L 909.517,-476.08 L 908.93,-477.178
 L 908.14,-478.14 L 907.178,-478.93 L 906.08,-479.517 L 904.889,-479.878 L 903.65,-480 L 816.35,-480
 L 815.111,-479.878 L 813.92,-479.517 L 812.822,-478.93 L 811.86,-478.14 L 811.07,-477.178 L 810.483,-476.08
 L 810.122,-474.889 L 810,-473.65 L 810,-336.35 L 810.122,-335.111 L 810.483,-333.92 L 811.07,-332.822
 L 811.86,-331.86 L 812.822,-331.07 L 813.92,-330.483 L 815.111,-330.122 L 816.35,-330 L 903.65,-330
 z
M 544.889,-330.122 L 546.08,-330.483 L 547.178,-331.07 L 548.14,-331.86 L 548.93,-332.822 L 549.517,-333.92
 L 549.878,-335.111 L 550,-336.35 L 550,-473.65 L 549.878,-474.889 L 549.517,-476.08 L 548.93,-477.178
 L 548.14,-478.14 L 547.178,-478.93 L 546.08,-479.517 L 544.889,-479.878 L 543.65,-480 L 456.35,-480
 L 455.111,-479.878 L 453.92,-479.517 L 452.822,-478.93 L 451.86,-478.14 L 451.07,-477.178 L 450.483,-476.08
 L 450.122,-474.889 L 450,-473.65 L 450,-336.35 L 450.122,-335.111 L 450.483,-333.92 L 451.07,-332.822
 L 451.86,-331.86 L 452.822,-331.07 L 453.92,-330.483 L 455.111,-330.122 L 456.35,-330 L 543.65,-330
 z
M 664.889,-330.122 L 666.08,-330.483 L 667.178,-331.07 L 668.14,-331.86 L 668.93,-332.822 L 669.517,-333.92
 L 669.878,-335.111 L 670,-336.35 L 670,-473.65 L 669.878,-474.889 L 669.517,-476.08 L 668.93,-477.178
 L 668.14,-478.14 L 667.178,-478.93 L 666.08,-479.517 L 664.889,-479.878 L 663.65,-480 L 576.35,-480
 L 575.111,-479.878 L 573.92,-479.517 L 572.822,-478.93 L 571.86,-478.14 L 571.07,-477.178 L 570.483,-476.08
 L 570.122,-474.889 L 570,-473.65 L 570,-336.35 L 570.122,-335.111 L 570.483,-333.92 L 571.07,-332.822
 L 571.86,-331.86 L 572.822,-331.07 L 573.92,-330.483 L 575.111,-330.122 L 576.35,-330 L 663.65,-330
 z
M 784.889,-330.122 L 786.08,-330.483 L 787.178,-331.07 L 788.14,-331.86 L 788.93,-332.822 L 789.517,-333.92
 L 789.878,-335.111 L 790,-336.35 L 790,-473.65 L 789.878,-474.889 L 789.517,-476.08 L 788.93,-477.178
 L 788.14,-478.14 L 787.178,-478.93 L 786.08,-479.517 L 784.889,-479.878 L 783.65,-480 L 696.35,-480
 L 695.111,-479.878 L 693.92,-479.517 L 692.822,-478.93 L 691.86,-478.14 L 691.07,-477.178 L 690.483,-476.08
 L 690.122,-474.889 L 690,-473.65 L 690,-336.35 L 690.122,-335.111 L 690.483,-333.92 L 691.07,-332.822
 L 691.86,-331.86 L 692.822,-331.07 L 693.92,-330.483 L 695.111,-330.122 L 696.35,-330 L 783.65,-330
 z
M 1264.89,-10.122 L 1266.08,-10.4834 L 1267.18,-11.0702 L 1268.14,-11.8599 L 1268.93,-12.8221 L 1269.52,-13.92
 L 1269.88,-15.1112 L 1270,-16.35 L 1270,-303.65 L 1269.88,-304.889 L 1269.52,-306.08 L 1268.93,-307.178
 L 1268.14,-308.14 L 1267.18,-308.93 L 1266.08,-309.517 L 1264.89,-309.878 L 1263.65,-310 L 976.35,-310
 L 975.111,-309.878 L 973.92,-309.517 L 972.822,-308.93 L 971.86,-308.14 L 971.07,-307.178 L 970.483,-306.08
 L 970.122,-304.889 L 970,-303.65 L 970,-16.35 L 970.122,-15.1112 L 970.483,-13.92 L 971.07,-12.8221
 L 971.86,-11.8599 L 972.822,-11.0702 L 973.92,-10.4834 L 975.111,-10.122 L 976.35,-10 L 1263.65,-10
 z
M 944.889,-10.122 L 946.08,-10.4834 L 947.178,-11.0702 L 948.14,-11.8599 L 948.93,-12.8221 L 949.517,-13.92
 L 949.878,-15.1112 L 950,-16.35 L 950,-303.65 L 949.878,-304.889 L 949.517,-306.08 L 948.93,-307.178
 L 948.14,-308.14 L 947.178,-308.93 L 946.08,-309.517 L 944.889,-309.878 L 943.65,-310 L 656.35,-310
 L 655.111,-309.878 L 653.92,-309.517 L 652.822,-308.93 L 651.86,-308.14 L 651.07,-307.178 L 650.483,-306.08
 L 650.122,-304.889 L 650,-303.65 L 650,-16.35 L 650.122,-15.1112 L 650.483,-13.92 L 651.07,-12.8221
 L 651.86,-11.8599 L 652.822,-11.0702 L 653.92,-10.4834 L 655.111,-10.122 L 656.35,-10 L 943.65,-10
 z
M 624.889,-10.122 L 626.08,-10.4834 L 627.178,-11.0702 L 628.14,-11.8599 L 628.93,-12.8221 L 629.517,-13.92
 L 629.878,-15.1112 L 630,-16.35 L 630,-303.65 L 629.878,-304.889 L 629.517,-306.08 L 628.93,-307.178
 L 628.14,-308.14 L 627.178,-308.93 L 626.08,-309.517 L 624.889,-309.878 L 623.65,-310 L 336.35,-310
 L 335.111,-309.878 L 333.92,-309.517 L 332.822,-308.93 L 331.86,-308.14 L 331.07,-307.178 L 330.483,-306.08
 L 330.122,-304.889 L 330,-303.65 L 330,-16.35 L 330.122,-15.1112 L 330.483,-13.92 L 331.07,-12.8221
 L 331.86,-11.8599 L 332.822,-11.0702 L 333.92,-10.4834 L 335.111,-10.122 L 336.35,-10 L 623.65,-10
 z
M 304.889,-10.122 L 306.08,-10.4834 L 307.178,-11.0702 L 308.14,-11.8599 L 308.93,-12.8221 L 309.517,-13.92
 L 309.878,-15.1112 L 310,-16.35 L 310,-303.65 L 309.878,-304.889 L 309.517,-306.08 L 308.93,-307.178
 L 308.14,-308.14 L 307.178,-308.93 L 306.08,-309.517 L 304.889,-309.878 L 303.65,-310 L 16.35,-310
 L 15.1112,-309.878 L 13.92,-309.517 L 12.8221,-308.93 L 11.8599,-308.14 L 11.0702,-307.178 L 10.4834,-306.08
 L 10.122,-304.889 L 10,-303.65 L 10,-16.35 L 10.122,-15.1112 L 10.4834,-13.92 L 11.0702,-12.8221
 L 11.8599,-11.8599 L 12.8221,-11.0702 L 13.92,-10.4834 L 15.1112,-10.122 L 16.35,-10 L 303.65,-10
 z
" stroke="black" fill="lightgray" stroke-width="0.5"/>
</svg>
