<svg width="1280" height="720" xmlns="http://www.w3.org/2000/svg">
  <!-- Dark background representing camera view -->
  <rect width="1280" height="720" fill="#1a1a1a"/>
  
  <!-- Grid pattern to simulate terrain -->
  <defs>
    <pattern id="grid" width="80" height="80" patternUnits="userSpaceOnUse">
      <rect width="80" height="80" fill="none" stroke="#333" stroke-width="1"/>
    </pattern>
  </defs>
  <rect width="1280" height="720" fill="url(#grid)"/>
  
  <!-- Horizon line -->
  <line x1="0" y1="400" x2="1280" y2="400" stroke="#555" stroke-width="2"/>
  
  <!-- Sky gradient -->
  <defs>
    <linearGradient id="sky" x1="0%" y1="0%" x2="0%" y2="100%">
      <stop offset="0%" style="stop-color:#2c3e50;stop-opacity:1" />
      <stop offset="100%" style="stop-color:#34495e;stop-opacity:1" />
    </linearGradient>
  </defs>
  <rect width="1280" height="400" fill="url(#sky)"/>
  
  <!-- Ground -->
  <rect y="400" width="1280" height="320" fill="#3e2723"/>
  
  <!-- Distant trees (in the background) -->
  <g opacity="0.4">
    <!-- Small distant tree 1 -->
    <ellipse cx="350" cy="390" rx="20" ry="30" fill="#2d5016"/>
    <rect x="345" y="390" width="10" height="30" fill="#4a3520"/>
    
    <!-- Small distant tree 2 -->
    <ellipse cx="450" cy="395" rx="18" ry="25" fill="#2d5016"/>
    <rect x="446" y="395" width="8" height="25" fill="#4a3520"/>
    
    <!-- Small distant tree 3 -->
    <ellipse cx="750" cy="395" rx="18" ry="25" fill="#2d5016"/>
    <rect x="746" y="395" width="8" height="25" fill="#4a3520"/>
    
    <!-- Small distant tree 4 -->
    <ellipse cx="900" cy="390" rx="20" ry="30" fill="#2d5016"/>
    <rect x="895" y="390" width="10" height="30" fill="#4a3520"/>
  </g>
  
  <!-- Left side trees (closer, larger) -->
  <g>
    <!-- Left tree 1 - closest -->
    <rect x="50" y="480" width="30" height="150" fill="#4a3520"/>
    <ellipse cx="65" cy="480" rx="50" ry="70" fill="#3d6b1f"/>
    <ellipse cx="65" cy="450" rx="40" ry="55" fill="#4d7f29"/>
    <ellipse cx="65" cy="430" rx="30" ry="40" fill="#5a9033"/>
    
    <!-- Left tree 2 -->
    <rect x="140" y="500" width="25" height="120" fill="#4a3520"/>
    <ellipse cx="152" cy="500" rx="40" ry="60" fill="#3d6b1f"/>
    <ellipse cx="152" cy="475" rx="35" ry="50" fill="#4d7f29"/>
    <ellipse cx="152" cy="455" rx="25" ry="35" fill="#5a9033"/>
  </g>
  
  <!-- Right side trees (closer, larger) -->
  <g>
    <!-- Right tree 1 -->
    <rect x="1110" y="500" width="25" height="120" fill="#4a3520"/>
    <ellipse cx="1122" cy="500" rx="40" ry="60" fill="#3d6b1f"/>
    <ellipse cx="1122" cy="475" rx="35" ry="50" fill="#4d7f29"/>
    <ellipse cx="1122" cy="455" rx="25" ry="35" fill="#5a9033"/>
    
    <!-- Right tree 2 - closest -->
    <rect x="1200" y="480" width="30" height="150" fill="#4a3520"/>
    <ellipse cx="1215" cy="480" rx="50" ry="70" fill="#3d6b1f"/>
    <ellipse cx="1215" cy="450" rx="40" ry="55" fill="#4d7f29"/>
    <ellipse cx="1215" cy="430" rx="30" ry="40" fill="#5a9033"/>
  </g>
  
  <!-- Camera icon in center -->
  <g transform="translate(640, 360)">
    <circle r="60" fill="none" stroke="#4CAF50" stroke-width="3" opacity="0.5"/>
    <rect x="-40" y="-25" width="80" height="50" rx="5" fill="none" stroke="#4CAF50" stroke-width="3"/>
    <circle cx="0" cy="0" r="20" fill="none" stroke="#4CAF50" stroke-width="3"/>
    <rect x="40" y="-10" width="20" height="20" rx="3" fill="none" stroke="#4CAF50" stroke-width="2"/>
  </g>
  
  <!-- Text overlay -->
  <text x="640" y="500" font-family="Arial, sans-serif" font-size="36" fill="#4CAF50" text-anchor="middle" opacity="0.7">
    LifeTrac v25 Camera Feed
  </text>
  <text x="640" y="550" font-family="Arial, sans-serif" font-size="24" fill="#888" text-anchor="middle">
    Live view from Arducam IMX335
  </text>
</svg>
