  0
SECTION
  2
HEADER
  9
$ACADVER
  1
AC1015
  9
$ACADMAINTVER
 70
6
  9
$DWGCODEPAGE
  3
ANSI_1252
  9
$INSBASE
 10
0.0
 20
0.0
 30
0.0
  9
$EXTMIN
 10
1e+20
 20
1e+20
 30
1e+20
  9
$EXTMAX
 10
-1e+20
 20
-1e+20
 30
-1e+20
  9
$LIMMIN
 10
0.0
 20
0.0
  9
$LIMMAX
 10
420.0
 20
297.0
  9
$ORTHOMODE
 70
0
  9
$REGENMODE
 70
1
  9
$FILLMODE
 70
1
  9
$QTEXTMODE
 70
0
  9
$MIRRTEXT
 70
1
  9
$LTSCALE
 40
1.0
  9
$ATTMODE
 70
1
  9
$TEXTSIZE
 40
2.5
  9
$TRACEWID
 40
1.0
  9
$TEXTSTYLE
  7
Standard
  9
$CLAYER
  8
0
  9
$CELTYPE
  6
ByLayer
  9
$CECOLOR
 62
256
  9
$CELTSCALE
 40
1.0
  9
$DISPSILH
 70
0
  9
$DIMSCALE
 40
1.0
  9
$DIMASZ
 40
2.5
  9
$DIMEXO
 40
0.625
  9
$DIMDLI
 40
3.75
  9
$DIMRND
 40
0.0
  9
$DIMDLE
 40
0.0
  9
$DIMEXE
 40
1.25
  9
$DIMTP
 40
0.0
  9
$DIMTM
 40
0.0
  9
$DIMTXT
 40
2.5
  9
$DIMCEN
 40
2.5
  9
$DIMTSZ
 40
0.0
  9
$DIMTOL
 70
0
  9
$DIMLIM
 70
0
  9
$DIMTIH
 70
0
  9
$DIMTOH
 70
0
  9
$DIMSE1
 70
0
  9
$DIMSE2
 70
0
  9
$DIMTAD
 70
1
  9
$DIMZIN
 70
8
  9
$DIMBLK
  1

  9
$DIMASO
 70
1
  9
$DIMSHO
 70
1
  9
$DIMPOST
  1

  9
$DIMAPOST
  1

  9
$DIMALT
 70
0
  9
$DIMALTD
 70
3
  9
$DIMALTF
 40
0.03937007874
  9
$DIMLFAC
 40
1.0
  9
$DIMTOFL
 70
1
  9
$DIMTVP
 40
0.0
  9
$DIMTIX
 70
0
  9
$DIMSOXD
 70
0
  9
$DIMSAH
 70
0
  9
$DIMBLK1
  1

  9
$DIMBLK2
  1

  9
$DIMSTYLE
  2
ISO-25
  9
$DIMCLRD
 70
0
  9
$DIMCLRE
 70
0
  9
$DIMCLRT
 70
0
  9
$DIMTFAC
 40
1.0
  9
$DIMGAP
 40
0.625
  9
$DIMJUST
 70
0
  9
$DIMSD1
 70
0
  9
$DIMSD2
 70
0
  9
$DIMTOLJ
 70
0
  9
$DIMTZIN
 70
8
  9
$DIMALTZ
 70
0
  9
$DIMALTTZ
 70
0
  9
$DIMUPT
 70
0
  9
$DIMDEC
 70
2
  9
$DIMTDEC
 70
2
  9
$DIMALTU
 70
2
  9
$DIMALTTD
 70
3
  9
$DIMTXSTY
  7
Standard
  9
$DIMAUNIT
 70
0
  9
$DIMADEC
 70
0
  9
$DIMALTRND
 40
0.0
  9
$DIMAZIN
 70
0
  9
$DIMDSEP
 70
44
  9
$DIMATFIT
 70
3
  9
$DIMFRAC
 70
0
  9
$DIMLDRBLK
  1

  9
$DIMLUNIT
 70
2
  9
$DIMLWD
 70
-2
  9
$DIMLWE
 70
-2
  9
$DIMTMOVE
 70
0
  9
$LUNITS
 70
2
  9
$LUPREC
 70
4
  9
$SKETCHINC
 40
1.0
  9
$FILLETRAD
 40
10.0
  9
$AUNITS
 70
0
  9
$AUPREC
 70
2
  9
$MENU
  1
.
  9
$ELEVATION
 40
0.0
  9
$PELEVATION
 40
0.0
  9
$THICKNESS
 40
0.0
  9
$LIMCHECK
 70
0
  9
$CHAMFERA
 40
0.0
  9
$CHAMFERB
 40
0.0
  9
$CHAMFERC
 40
0.0
  9
$CHAMFERD
 40
0.0
  9
$SKPOLY
 70
0
  9
$TDCREATE
 40
2451545.0
  9
$TDUCREATE
 40
2451545.0
  9
$TDUPDATE
 40
2451545.0
  9
$TDUUPDATE
 40
2451545.0
  9
$TDINDWG
 40
0.0
  9
$TDUSRTIMER
 40
0.0
  9
$USRTIMER
 70
1
  9
$ANGBASE
 50
0.0
  9
$ANGDIR
 70
0
  9
$PDMODE
 70
0
  9
$PDSIZE
 40
0.0
  9
$PLINEWID
 40
0.0
  9
$SPLFRAME
 70
0
  9
$SPLINETYPE
 70
6
  9
$SPLINESEGS
 70
8
  9
$HANDSEED
  5
288
  9
$SURFTAB1
 70
6
  9
$SURFTAB2
 70
6
  9
$SURFTYPE
 70
6
  9
$SURFU
 70
6
  9
$SURFV
 70
6
  9
$UCSBASE
  2

  9
$UCSNAME
  2

  9
$UCSORG
 10
0.0
 20
0.0
 30
0.0
  9
$UCSXDIR
 10
1.0
 20
0.0
 30
0.0
  9
$UCSYDIR
 10
0.0
 20
1.0
 30
0.0
  9
$UCSORTHOREF
  2

  9
$UCSORTHOVIEW
 70
0
  9
$UCSORGTOP
 10
0.0
 20
0.0
 30
0.0
  9
$UCSORGBOTTOM
 10
0.0
 20
0.0
 30
0.0
  9
$UCSORGLEFT
 10
0.0
 20
0.0
 30
0.0
  9
$UCSORGRIGHT
 10
0.0
 20
0.0
 30
0.0
  9
$UCSORGFRONT
 10
0.0
 20
0.0
 30
0.0
  9
$UCSORGBACK
 10
0.0
 20
0.0
 30
0.0
  9
$PUCSBASE
  2

  9
$PUCSNAME
  2

  9
$PUCSORG
 10
0.0
 20
0.0
 30
0.0
  9
$PUCSXDIR
 10
1.0
 20
0.0
 30
0.0
  9
$PUCSYDIR
 10
0.0
 20
1.0
 30
0.0
  9
$PUCSORTHOREF
  2

  9
$PUCSORTHOVIEW
 70
0
  9
$PUCSORGTOP
 10
0.0
 20
0.0
 30
0.0
  9
$PUCSORGBOTTOM
 10
0.0
 20
0.0
 30
0.0
  9
$PUCSORGLEFT
 10
0.0
 20
0.0
 30
0.0
  9
$PUCSORGRIGHT
 10
0.0
 20
0.0
 30
0.0
  9
$PUCSORGFRONT
 10
0.0
 20
0.0
 30
0.0
  9
$PUCSORGBACK
 10
0.0
 20
0.0
 30
0.0
  9
$USERI1
 70
0
  9
$USERI2
 70
0
  9
$USERI3
 70
0
  9
$USERI4
 70
0
  9
$USERI5
 70
0
  9
$USERR1
 40
0.0
  9
$USERR2
 40
0.0
  9
$USERR3
 40
0.0
  9
$USERR4
 40
0.0
  9
$USERR5
 40
0.0
  9
$WORLDVIEW
 70
1
  9
$SHADEDGE
 70
3
  9
$SHADEDIF
 70
70
  9
$TILEMODE
 70
1
  9
$MAXACTVP
 70
64
  9
$PINSBASE
 10
0.0
 20
0.0
 30
0.0
  9
$PLIMCHECK
 70
0
  9
$PEXTMIN
 10
1e+20
 20
1e+20
 30
1e+20
  9
$PEXTMAX
 10
-1e+20
 20
-1e+20
 30
-1e+20
  9
$PLIMMIN
 10
0.0
 20
0.0
  9
$PLIMMAX
 10
420.0
 20
297.0
  9
$UNITMODE
 70
0
  9
$VISRETAIN
 70
1
  9
$PLINEGEN
 70
0
  9
$PSLTSCALE
 70
1
  9
$TREEDEPTH
 70
3020
  9
$CMLSTYLE
  2
Standard
  9
$CMLJUST
 70
0
  9
$CMLSCALE
 40
20.0
  9
$PROXYGRAPHICS
 70
1
  9
$MEASUREMENT
 70
1
  9
$CELWEIGHT
370
-1
  9
$ENDCAPS
280
0
  9
$JOINSTYLE
280
0
  9
$LWDISPLAY
290
0
  9
$INSUNITS
 70
4
  9
$HYPERLINKBASE
  1

  9
$STYLESHEET
  1

  9
$XEDIT
290
1
  9
$CEPSNTYPE
380
0
  9
$PSTYLEMODE
290
1
  9
$FINGERPRINTGUID
  2
{00000000-0000-0000-0000-000000000000}
  9
$VERSIONGUID
  2
{00000000-0000-0000-0000-000000000000}
  9
$EXTNAMES
290
1
  9
$PSVPSCALE
 40
0.0
  9
$OLESTARTUP
290
0
  0
ENDSEC
  0
SECTION
  2
CLASSES
  0
CLASS
  1
ACDBDICTIONARYWDFLT
  2
AcDbDictionaryWithDefault
  3
ObjectDBX Classes
 90
0
280
0
281
0
  0
CLASS
  1
SUN
  2
AcDbSun
  3
SCENEOE
 90
1153
280
0
281
0
  0
CLASS
  1
VISUALSTYLE
  2
AcDbVisualStyle
  3
ObjectDBX Classes
 90
4095
280
0
281
0
  0
CLASS
  1
MATERIAL
  2
AcDbMaterial
  3
ObjectDBX Classes
 90
1153
280
0
281
0
  0
CLASS
  1
SCALE
  2
AcDbScale
  3
ObjectDBX Classes
 90
1153
280
0
281
0
  0
CLASS
  1
TABLESTYLE
  2
AcDbTableStyle
  3
ObjectDBX Classes
 90
4095
280
0
281
0
  0
CLASS
  1
MLEADERSTYLE
  2
AcDbMLeaderStyle
  3
ACDB_MLEADERSTYLE_CLASS
 90
4095
280
0
281
0
  0
CLASS
  1
DICTIONARYVAR
  2
AcDbDictionaryVar
  3
ObjectDBX Classes
 90
0
280
0
281
0
  0
CLASS
  1
CELLSTYLEMAP
  2
AcDbCellStyleMap
  3
ObjectDBX Classes
 90
1152
280
0
281
0
  0
CLASS
  1
MENTALRAYRENDERSETTINGS
  2
AcDbMentalRayRenderSettings
  3
SCENEOE
 90
1024
280
0
281
0
  0
CLASS
  1
ACDBDETAILVIEWSTYLE
  2
AcDbDetailViewStyle
  3
ObjectDBX Classes
 90
1025
280
0
281
0
  0
CLASS
  1
ACDBSECTIONVIEWSTYLE
  2
AcDbSectionViewStyle
  3
ObjectDBX Classes
 90
1025
280
0
281
0
  0
CLASS
  1
RASTERVARIABLES
  2
AcDbRasterVariables
  3
ISM
 90
0
280
0
281
0
  0
CLASS
  1
ACDBPLACEHOLDER
  2
AcDbPlaceHolder
  3
ObjectDBX Classes
 90
0
280
0
281
0
  0
CLASS
  1
LAYOUT
  2
AcDbLayout
  3
ObjectDBX Classes
 90
0
280
0
281
0
  0
ENDSEC
  0
SECTION
  2
TABLES
  0
TABLE
  2
VPORT
  5
8
330
0
100
AcDbSymbolTable
 70
1
  0
VPORT
  5
23
330
8
100
AcDbSymbolTableRecord
100
AcDbViewportTableRecord
  2
*Active
 70
0
 10
0.0
 20
0.0
 11
1.0
 21
1.0
 12
0.0
 22
0.0
 13
0.0
 23
0.0
 14
0.5
 24
0.5
 15
0.5
 25
0.5
 16
0.0
 26
0.0
 36
1.0
 17
0.0
 27
0.0
 37
0.0
 40
1000.0
 41
1.34
 42
50.0
 43
0.0
 44
0.0
 50
0.0
 51
0.0
 71
0
 72
1000
 73
1
 74
3
 75
0
 76
0
 77
0
 78
0
281
0
 65
0
146
0.0
  0
ENDTAB
  0
TABLE
  2
LTYPE
  5
2
330
0
100
AcDbSymbolTable
 70
3
  0
LTYPE
  5
24
330
2
100
AcDbSymbolTableRecord
100
AcDbLinetypeTableRecord
  2
ByBlock
 70
0
  3

 72
65
 73
0
 40
0.0
  0
LTYPE
  5
25
330
2
100
AcDbSymbolTableRecord
100
AcDbLinetypeTableRecord
  2
ByLayer
 70
0
  3

 72
65
 73
0
 40
0.0
  0
LTYPE
  5
26
330
2
100
AcDbSymbolTableRecord
100
AcDbLinetypeTableRecord
  2
Continuous
 70
0
  3

 72
65
 73
0
 40
0.0
  0
ENDTAB
  0
TABLE
  2
LAYER
  5
1
330
0
100
AcDbSymbolTable
 70
2
  0
LAYER
  5
27
330
1
100
AcDbSymbolTableRecord
100
AcDbLayerTableRecord
  2
0
 70
0
 62
7
  6
Continuous
370
-3
390
13
  0
LAYER
  5
28
330
1
100
AcDbSymbolTableRecord
100
AcDbLayerTableRecord
  2
Defpoints
 70
0
 62
7
  6
Continuous
290
0
370
-3
390
13
  0
ENDTAB
  0
TABLE
  2
STYLE
  5
5
330
0
100
AcDbSymbolTable
 70
1
  0
STYLE
  5
29
330
5
100
AcDbSymbolTableRecord
100
AcDbTextStyleTableRecord
  2
Standard
 70
0
 40
0.0
 41
1.0
 50
0.0
 71
0
 42
2.5
  3
txt
  4

  0
ENDTAB
  0
TABLE
  2
VIEW
  5
7
330
0
100
AcDbSymbolTable
 70
0
  0
ENDTAB
  0
TABLE
  2
UCS
  5
6
330
0
100
AcDbSymbolTable
 70
0
  0
ENDTAB
  0
TABLE
  2
APPID
  5
3
330
0
100
AcDbSymbolTable
 70
3
  0
APPID
  5
2A
330
3
100
AcDbSymbolTableRecord
100
AcDbRegAppTableRecord
  2
ACAD
 70
0
  0
APPID
  5
285
330
3
100
AcDbSymbolTableRecord
100
AcDbRegAppTableRecord
  2
HATCHBACKGROUNDCOLOR
 70
0
  0
APPID
  5
286
330
3
100
AcDbSymbolTableRecord
100
AcDbRegAppTableRecord
  2
EZDXF
 70
0
  0
ENDTAB
  0
TABLE
  2
DIMSTYLE
  5
4
330
0
100
AcDbSymbolTable
 70
1
100
AcDbDimStyleTable
  0
DIMSTYLE
105
2B
330
4
100
AcDbSymbolTableRecord
100
AcDbDimStyleTableRecord
  2
Standard
 70
0
  3

  4

 40
1.0
 41
2.5
 42
0.625
 43
3.75
 44
1.25
 45
0.0
 46
0.0
 47
0.0
 48
0.0
140
2.5
141
2.5
142
0.0
143
0.03937007874
144
1.0
145
0.0
146
1.0
147
0.625
148
0.0
 71
0
 72
0
 73
0
 74
0
 75
0
 76
0
 77
1
 78
8
 79
3
170
0
171
3
172
1
173
0
174
0
175
0
176
0
177
0
178
0
179
2
271
2
272
2
273
2
274
3
275
0
276
0
277
2
278
44
279
0
280
0
281
0
282
0
283
0
284
8
285
0
286
0
288
0
289
3
371
-2
372
-2
  0
ENDTAB
  0
TABLE
  2
BLOCK_RECORD
  5
9
330
0
100
AcDbSymbolTable
 70
2
  0
BLOCK_RECORD
  5
17
330
9
100
AcDbSymbolTableRecord
100
AcDbBlockTableRecord
  2
*Model_Space
340
1A
  0
BLOCK_RECORD
  5
1B
330
9
100
AcDbSymbolTableRecord
100
AcDbBlockTableRecord
  2
*Paper_Space
340
1E
  0
ENDTAB
  0
ENDSEC
  0
SECTION
  2
BLOCKS
  0
BLOCK
  5
18
330
17
100
AcDbEntity
  8
0
100
AcDbBlockBegin
  2
*Model_Space
 70
0
 10
0.0
 20
0.0
 30
0.0
  3
*Model_Space
  1

  0
ENDBLK
  5
19
330
17
100
AcDbEntity
  8
0
100
AcDbBlockEnd
  0
BLOCK
  5
1C
330
1B
100
AcDbEntity
  8
0
100
AcDbBlockBegin
  2
*Paper_Space
 70
0
 10
0.0
 20
0.0
 30
0.0
  3
*Paper_Space
  1

  0
ENDBLK
  5
1D
330
1B
100
AcDbEntity
  8
0
100
AcDbBlockEnd
  0
ENDSEC
  0
SECTION
  2
ENTITIES
  0
LINE
  5
2F
330
17
100
AcDbEntity
  8
0
100
AcDbLine
 10
3.26294e-05
 20
242.143
 30
0.0
 11
1.97242
 21
237.973
 31
0.0
  0
LINE
  5
30
330
17
100
AcDbEntity
  8
0
100
AcDbLine
 10
1.97242
 20
237.973
 30
0.0
 11
5.81671
 21
231.559
 31
0.0
  0
LINE
  5
31
330
17
100
AcDbEntity
  8
0
100
AcDbLine
 10
5.81671
 20
231.559
 30
0.0
 11
10.2712
 21
225.552
 31
0.0
  0
LINE
  5
32
330
17
100
AcDbEntity
  8
0
100
AcDbLine
 10
10.2712
 20
225.552
 30
0.0
 11
15.2929
 21
220.011
 31
0.0
  0
LINE
  5
33
330
17
100
AcDbEntity
  8
0
100
AcDbLine
 10
15.2929
 20
220.011
 30
0.0
 11
20.8336
 21
214.989
 31
0.0
  0
LINE
  5
34
330
17
100
AcDbEntity
  8
0
100
AcDbLine
 10
20.8336
 20
214.989
 30
0.0
 11
26.8398
 21
210.535
 31
0.0
  0
LINE
  5
35
330
17
100
AcDbEntity
  8
0
100
AcDbLine
 10
26.8398
 20
210.535
 30
0.0
 11
33.2538
 21
206.69
 31
0.0
  0
LINE
  5
36
330
17
100
AcDbEntity
  8
0
100
AcDbLine
 10
33.2538
 20
206.69
 30
0.0
 11
40.0137
 21
203.493
 31
0.0
  0
LINE
  5
37
330
17
100
AcDbEntity
  8
0
100
AcDbLine
 10
40.0137
 20
203.493
 30
0.0
 11
47.0544
 21
200.974
 31
0.0
  0
LINE
  5
38
330
17
100
AcDbEntity
  8
0
100
AcDbLine
 10
47.0544
 20
200.974
 30
0.0
 11
54.3082
 21
199.156
 31
0.0
  0
LINE
  5
39
330
17
100
AcDbEntity
  8
0
100
AcDbLine
 10
54.3082
 20
199.156
 30
0.0
 11
61.7051
 21
198.059
 31
0.0
  0
LINE
  5
3A
330
17
100
AcDbEntity
  8
0
100
AcDbLine
 10
61.7051
 20
198.059
 30
0.0
 11
69.174
 21
197.692
 31
0.0
  0
LINE
  5
3B
330
17
100
AcDbEntity
  8
0
100
AcDbLine
 10
69.174
 20
197.692
 30
0.0
 11
821.474
 21
197.677
 31
0.0
  0
LINE
  5
3C
330
17
100
AcDbEntity
  8
0
100
AcDbLine
 10
821.474
 20
197.677
 30
0.0
 11
867.446
 21
136.383
 31
0.0
  0
LINE
  5
3D
330
17
100
AcDbEntity
  8
0
100
AcDbLine
 10
867.446
 20
136.383
 30
0.0
 11
870.732
 21
132.636
 31
0.0
  0
LINE
  5
3E
330
17
100
AcDbEntity
  8
0
100
AcDbLine
 10
870.732
 20
132.636
 30
0.0
 11
874.479
 21
129.35
 31
0.0
  0
LINE
  5
3F
330
17
100
AcDbEntity
  8
0
100
AcDbLine
 10
874.479
 20
129.35
 30
0.0
 11
878.623
 21
126.581
 31
0.0
  0
LINE
  5
40
330
17
100
AcDbEntity
  8
0
100
AcDbLine
 10
878.623
 20
126.581
 30
0.0
 11
883.092
 21
124.376
 31
0.0
  0
LINE
  5
41
330
17
100
AcDbEntity
  8
0
100
AcDbLine
 10
883.092
 20
124.376
 30
0.0
 11
887.812
 21
122.774
 31
0.0
  0
LINE
  5
42
330
17
100
AcDbEntity
  8
0
100
AcDbLine
 10
887.812
 20
122.774
 30
0.0
 11
892.7
 21
121.802
 31
0.0
  0
LINE
  5
43
330
17
100
AcDbEntity
  8
0
100
AcDbLine
 10
892.7
 20
121.802
 30
0.0
 11
897.673
 21
121.476
 31
0.0
  0
LINE
  5
44
330
17
100
AcDbEntity
  8
0
100
AcDbLine
 10
897.673
 20
121.476
 30
0.0
 11
902.646
 21
121.802
 31
0.0
  0
LINE
  5
45
330
17
100
AcDbEntity
  8
0
100
AcDbLine
 10
902.646
 20
121.802
 30
0.0
 11
907.534
 21
122.774
 31
0.0
  0
LINE
  5
46
330
17
100
AcDbEntity
  8
0
100
AcDbLine
 10
907.534
 20
122.774
 30
0.0
 11
912.253
 21
124.376
 31
0.0
  0
LINE
  5
47
330
17
100
AcDbEntity
  8
0
100
AcDbLine
 10
912.253
 20
124.376
 30
0.0
 11
916.723
 21
126.58
 31
0.0
  0
LINE
  5
48
330
17
100
AcDbEntity
  8
0
100
AcDbLine
 10
916.723
 20
126.58
 30
0.0
 11
920.867
 21
129.349
 31
0.0
  0
LINE
  5
49
330
17
100
AcDbEntity
  8
0
100
AcDbLine
 10
920.867
 20
129.349
 30
0.0
 11
924.614
 21
132.635
 31
0.0
  0
LINE
  5
4A
330
17
100
AcDbEntity
  8
0
100
AcDbLine
 10
924.614
 20
132.635
 30
0.0
 11
927.9
 21
136.381
 31
0.0
  0
LINE
  5
4B
330
17
100
AcDbEntity
  8
0
100
AcDbLine
 10
927.9
 20
136.381
 30
0.0
 11
973.874
 21
197.674
 31
0.0
  0
LINE
  5
4C
330
17
100
AcDbEntity
  8
0
100
AcDbLine
 10
973.874
 20
197.674
 30
0.0
 11
1456.23
 21
197.665
 31
0.0
  0
LINE
  5
4D
330
17
100
AcDbEntity
  8
0
100
AcDbLine
 10
1456.23
 20
197.665
 30
0.0
 11
1569.95
 21
62.1382
 31
0.0
  0
LINE
  5
4E
330
17
100
AcDbEntity
  8
0
100
AcDbLine
 10
1569.95
 20
62.1382
 30
0.0
 11
1757.92
 21
1.46993
 31
0.0
  0
LINE
  5
4F
330
17
100
AcDbEntity
  8
0
100
AcDbLine
 10
1757.92
 20
1.46993
 30
0.0
 11
1763.07
 21
0.185209
 31
0.0
  0
LINE
  5
50
330
17
100
AcDbEntity
  8
0
100
AcDbLine
 10
1763.07
 20
0.185209
 30
0.0
 11
1768.38
 21
-0.000211023
 31
0.0
  0
LINE
  5
51
330
17
100
AcDbEntity
  8
0
100
AcDbLine
 10
1768.38
 20
-0.000211023
 30
0.0
 11
1773.61
 21
0.921767
 31
0.0
  0
LINE
  5
52
330
17
100
AcDbEntity
  8
0
100
AcDbLine
 10
1773.61
 20
0.921767
 30
0.0
 11
1778.53
 21
2.91085
 31
0.0
  0
LINE
  5
53
330
17
100
AcDbEntity
  8
0
100
AcDbLine
 10
1778.53
 20
2.91085
 30
0.0
 11
1782.93
 21
5.8801
 31
0.0
  0
LINE
  5
54
330
17
100
AcDbEntity
  8
0
100
AcDbLine
 10
1782.93
 20
5.8801
 30
0.0
 11
1786.62
 21
9.69976
 31
0.0
  0
LINE
  5
55
330
17
100
AcDbEntity
  8
0
100
AcDbLine
 10
1786.62
 20
9.69976
 30
0.0
 11
1789.44
 21
14.2029
 31
0.0
  0
LINE
  5
56
330
17
100
AcDbEntity
  8
0
100
AcDbLine
 10
1789.44
 20
14.2029
 30
0.0
 11
1791.25
 21
19.1927
 31
0.0
  0
LINE
  5
57
330
17
100
AcDbEntity
  8
0
100
AcDbLine
 10
1791.25
 20
19.1927
 30
0.0
 11
1791.99
 21
24.451
 31
0.0
  0
LINE
  5
58
330
17
100
AcDbEntity
  8
0
100
AcDbLine
 10
1791.99
 20
24.451
 30
0.0
 11
1791.62
 21
29.7481
 31
0.0
  0
LINE
  5
59
330
17
100
AcDbEntity
  8
0
100
AcDbLine
 10
1791.62
 20
29.7481
 30
0.0
 11
1790.16
 21
34.8525
 31
0.0
  0
LINE
  5
5A
330
17
100
AcDbEntity
  8
0
100
AcDbLine
 10
1790.16
 20
34.8525
 30
0.0
 11
1787.67
 21
39.541
 31
0.0
  0
LINE
  5
5B
330
17
100
AcDbEntity
  8
0
100
AcDbLine
 10
1787.67
 20
39.541
 30
0.0
 11
1686.69
 21
160.097
 31
0.0
  0
LINE
  5
5C
330
17
100
AcDbEntity
  8
0
100
AcDbLine
 10
1686.69
 20
160.097
 30
0.0
 11
1527.3
 21
350.064
 31
0.0
  0
LINE
  5
5D
330
17
100
AcDbEntity
  8
0
100
AcDbLine
 10
1527.3
 20
350.064
 30
0.0
 11
1527.3
 21
350.064
 31
0.0
  0
LINE
  5
5E
330
17
100
AcDbEntity
  8
0
100
AcDbLine
 10
1527.3
 20
350.064
 30
0.0
 11
69.177
 21
350.092
 31
0.0
  0
LINE
  5
5F
330
17
100
AcDbEntity
  8
0
100
AcDbLine
 10
69.177
 20
350.092
 30
0.0
 11
61.7081
 21
349.725
 31
0.0
  0
LINE
  5
60
330
17
100
AcDbEntity
  8
0
100
AcDbLine
 10
61.7081
 20
349.725
 30
0.0
 11
54.3111
 21
348.628
 31
0.0
  0
LINE
  5
61
330
17
100
AcDbEntity
  8
0
100
AcDbLine
 10
54.3111
 20
348.628
 30
0.0
 11
47.0572
 21
346.811
 31
0.0
  0
LINE
  5
62
330
17
100
AcDbEntity
  8
0
100
AcDbLine
 10
47.0572
 20
346.811
 30
0.0
 11
40.0164
 21
344.292
 31
0.0
  0
LINE
  5
63
330
17
100
AcDbEntity
  8
0
100
AcDbLine
 10
40.0164
 20
344.292
 30
0.0
 11
33.2564
 21
341.095
 31
0.0
  0
LINE
  5
64
330
17
100
AcDbEntity
  8
0
100
AcDbLine
 10
33.2564
 20
341.095
 30
0.0
 11
26.8423
 21
337.251
 31
0.0
  0
LINE
  5
65
330
17
100
AcDbEntity
  8
0
100
AcDbLine
 10
26.8423
 20
337.251
 30
0.0
 11
20.8359
 21
332.796
 31
0.0
  0
LINE
  5
66
330
17
100
AcDbEntity
  8
0
100
AcDbLine
 10
20.8359
 20
332.796
 30
0.0
 11
15.295
 21
327.775
 31
0.0
  0
LINE
  5
67
330
17
100
AcDbEntity
  8
0
100
AcDbLine
 10
15.295
 20
327.775
 30
0.0
 11
10.2731
 21
322.234
 31
0.0
  0
LINE
  5
68
330
17
100
AcDbEntity
  8
0
100
AcDbLine
 10
10.2731
 20
322.234
 30
0.0
 11
5.81835
 21
316.228
 31
0.0
  0
LINE
  5
69
330
17
100
AcDbEntity
  8
0
100
AcDbLine
 10
5.81835
 20
316.228
 30
0.0
 11
1.97381
 21
309.814
 31
0.0
  0
LINE
  5
6A
330
17
100
AcDbEntity
  8
0
100
AcDbLine
 10
1.97381
 20
309.814
 30
0.0
 11
0.00126425
 21
305.643
 31
0.0
  0
LINE
  5
6B
330
17
100
AcDbEntity
  8
0
100
AcDbLine
 10
0.00126425
 20
305.643
 30
0.0
 11
69.1761
 21
305.642
 31
0.0
  0
LINE
  5
6C
330
17
100
AcDbEntity
  8
0
100
AcDbLine
 10
69.1761
 20
305.642
 30
0.0
 11
72.2882
 21
305.489
 31
0.0
  0
LINE
  5
6D
330
17
100
AcDbEntity
  8
0
100
AcDbLine
 10
72.2882
 20
305.489
 30
0.0
 11
75.3702
 21
305.032
 31
0.0
  0
LINE
  5
6E
330
17
100
AcDbEntity
  8
0
100
AcDbLine
 10
75.3702
 20
305.032
 30
0.0
 11
78.3926
 21
304.275
 31
0.0
  0
LINE
  5
6F
330
17
100
AcDbEntity
  8
0
100
AcDbLine
 10
78.3926
 20
304.275
 30
0.0
 11
81.3263
 21
303.225
 31
0.0
  0
LINE
  5
70
330
17
100
AcDbEntity
  8
0
100
AcDbLine
 10
81.3263
 20
303.225
 30
0.0
 11
84.1429
 21
301.893
 31
0.0
  0
LINE
  5
71
330
17
100
AcDbEntity
  8
0
100
AcDbLine
 10
84.1429
 20
301.893
 30
0.0
 11
86.8154
 21
300.291
 31
0.0
  0
LINE
  5
72
330
17
100
AcDbEntity
  8
0
100
AcDbLine
 10
86.8154
 20
300.291
 30
0.0
 11
89.318
 21
298.435
 31
0.0
  0
LINE
  5
73
330
17
100
AcDbEntity
  8
0
100
AcDbLine
 10
89.318
 20
298.435
 30
0.0
 11
91.6266
 21
296.342
 31
0.0
  0
LINE
  5
74
330
17
100
AcDbEntity
  8
0
100
AcDbLine
 10
91.6266
 20
296.342
 30
0.0
 11
93.719
 21
294.033
 31
0.0
  0
LINE
  5
75
330
17
100
AcDbEntity
  8
0
100
AcDbLine
 10
93.719
 20
294.033
 30
0.0
 11
95.575
 21
291.531
 31
0.0
  0
LINE
  5
76
330
17
100
AcDbEntity
  8
0
100
AcDbLine
 10
95.575
 20
291.531
 30
0.0
 11
97.1768
 21
288.858
 31
0.0
  0
LINE
  5
77
330
17
100
AcDbEntity
  8
0
100
AcDbLine
 10
97.1768
 20
288.858
 30
0.0
 11
98.5089
 21
286.042
 31
0.0
  0
LINE
  5
78
330
17
100
AcDbEntity
  8
0
100
AcDbLine
 10
98.5089
 20
286.042
 30
0.0
 11
99.5585
 21
283.108
 31
0.0
  0
LINE
  5
79
330
17
100
AcDbEntity
  8
0
100
AcDbLine
 10
99.5585
 20
283.108
 30
0.0
 11
100.316
 21
280.085
 31
0.0
  0
LINE
  5
7A
330
17
100
AcDbEntity
  8
0
100
AcDbLine
 10
100.316
 20
280.085
 30
0.0
 11
100.773
 21
277.003
 31
0.0
  0
LINE
  5
7B
330
17
100
AcDbEntity
  8
0
100
AcDbLine
 10
100.773
 20
277.003
 30
0.0
 11
100.926
 21
273.891
 31
0.0
  0
LINE
  5
7C
330
17
100
AcDbEntity
  8
0
100
AcDbLine
 10
100.926
 20
273.891
 30
0.0
 11
100.773
 21
270.779
 31
0.0
  0
LINE
  5
7D
330
17
100
AcDbEntity
  8
0
100
AcDbLine
 10
100.773
 20
270.779
 30
0.0
 11
100.315
 21
267.697
 31
0.0
  0
LINE
  5
7E
330
17
100
AcDbEntity
  8
0
100
AcDbLine
 10
100.315
 20
267.697
 30
0.0
 11
99.5582
 21
264.675
 31
0.0
  0
LINE
  5
7F
330
17
100
AcDbEntity
  8
0
100
AcDbLine
 10
99.5582
 20
264.675
 30
0.0
 11
98.5084
 21
261.741
 31
0.0
  0
LINE
  5
80
330
17
100
AcDbEntity
  8
0
100
AcDbLine
 10
98.5084
 20
261.741
 30
0.0
 11
97.1762
 21
258.925
 31
0.0
  0
LINE
  5
81
330
17
100
AcDbEntity
  8
0
100
AcDbLine
 10
97.1762
 20
258.925
 30
0.0
 11
95.5743
 21
256.252
 31
0.0
  0
LINE
  5
82
330
17
100
AcDbEntity
  8
0
100
AcDbLine
 10
95.5743
 20
256.252
 30
0.0
 11
93.7182
 21
253.749
 31
0.0
  0
LINE
  5
83
330
17
100
AcDbEntity
  8
0
100
AcDbLine
 10
93.7182
 20
253.749
 30
0.0
 11
91.6257
 21
251.441
 31
0.0
  0
LINE
  5
84
330
17
100
AcDbEntity
  8
0
100
AcDbLine
 10
91.6257
 20
251.441
 30
0.0
 11
89.317
 21
249.348
 31
0.0
  0
LINE
  5
85
330
17
100
AcDbEntity
  8
0
100
AcDbLine
 10
89.317
 20
249.348
 30
0.0
 11
86.8143
 21
247.492
 31
0.0
  0
LINE
  5
86
330
17
100
AcDbEntity
  8
0
100
AcDbLine
 10
86.8143
 20
247.492
 30
0.0
 11
84.1418
 21
245.891
 31
0.0
  0
LINE
  5
87
330
17
100
AcDbEntity
  8
0
100
AcDbLine
 10
84.1418
 20
245.891
 30
0.0
 11
81.3251
 21
244.559
 31
0.0
  0
LINE
  5
88
330
17
100
AcDbEntity
  8
0
100
AcDbLine
 10
81.3251
 20
244.559
 30
0.0
 11
78.3915
 21
243.509
 31
0.0
  0
LINE
  5
89
330
17
100
AcDbEntity
  8
0
100
AcDbLine
 10
78.3915
 20
243.509
 30
0.0
 11
75.369
 21
242.752
 31
0.0
  0
LINE
  5
8A
330
17
100
AcDbEntity
  8
0
100
AcDbLine
 10
75.369
 20
242.752
 30
0.0
 11
72.2869
 21
242.295
 31
0.0
  0
LINE
  5
8B
330
17
100
AcDbEntity
  8
0
100
AcDbLine
 10
72.2869
 20
242.295
 30
0.0
 11
69.1749
 21
242.142
 31
0.0
  0
LINE
  5
8C
330
17
100
AcDbEntity
  8
0
100
AcDbLine
 10
69.1749
 20
242.142
 30
0.0
 11
3.26294e-05
 21
242.143
 31
0.0
  0
LINE
  5
8D
330
17
100
AcDbEntity
  8
0
100
AcDbLine
 10
37.469
 20
222.675
 30
0.0
 11
37.6854
 21
224.319
 31
0.0
  0
LINE
  5
8E
330
17
100
AcDbEntity
  8
0
100
AcDbLine
 10
37.6854
 20
224.319
 30
0.0
 11
38.3198
 21
225.85
 31
0.0
  0
LINE
  5
8F
330
17
100
AcDbEntity
  8
0
100
AcDbLine
 10
38.3198
 20
225.85
 30
0.0
 11
39.329
 21
227.165
 31
0.0
  0
LINE
  5
90
330
17
100
AcDbEntity
  8
0
100
AcDbLine
 10
39.329
 20
227.165
 30
0.0
 11
40.6441
 21
228.174
 31
0.0
  0
LINE
  5
91
330
17
100
AcDbEntity
  8
0
100
AcDbLine
 10
40.6441
 20
228.174
 30
0.0
 11
42.1756
 21
228.809
 31
0.0
  0
LINE
  5
92
330
17
100
AcDbEntity
  8
0
100
AcDbLine
 10
42.1756
 20
228.809
 30
0.0
 11
43.8191
 21
229.025
 31
0.0
  0
LINE
  5
93
330
17
100
AcDbEntity
  8
0
100
AcDbLine
 10
43.8191
 20
229.025
 30
0.0
 11
45.4626
 21
228.809
 31
0.0
  0
LINE
  5
94
330
17
100
AcDbEntity
  8
0
100
AcDbLine
 10
45.4626
 20
228.809
 30
0.0
 11
46.9941
 21
228.174
 31
0.0
  0
LINE
  5
95
330
17
100
AcDbEntity
  8
0
100
AcDbLine
 10
46.9941
 20
228.174
 30
0.0
 11
48.3092
 21
227.165
 31
0.0
  0
LINE
  5
96
330
17
100
AcDbEntity
  8
0
100
AcDbLine
 10
48.3092
 20
227.165
 30
0.0
 11
49.3183
 21
225.85
 31
0.0
  0
LINE
  5
97
330
17
100
AcDbEntity
  8
0
100
AcDbLine
 10
49.3183
 20
225.85
 30
0.0
 11
49.9527
 21
224.318
 31
0.0
  0
LINE
  5
98
330
17
100
AcDbEntity
  8
0
100
AcDbLine
 10
49.9527
 20
224.318
 30
0.0
 11
50.169
 21
222.675
 31
0.0
  0
LINE
  5
99
330
17
100
AcDbEntity
  8
0
100
AcDbLine
 10
50.169
 20
222.675
 30
0.0
 11
49.9526
 21
221.031
 31
0.0
  0
LINE
  5
9A
330
17
100
AcDbEntity
  8
0
100
AcDbLine
 10
49.9526
 20
221.031
 30
0.0
 11
49.3182
 21
219.5
 31
0.0
  0
LINE
  5
9B
330
17
100
AcDbEntity
  8
0
100
AcDbLine
 10
49.3182
 20
219.5
 30
0.0
 11
48.3091
 21
218.185
 31
0.0
  0
LINE
  5
9C
330
17
100
AcDbEntity
  8
0
100
AcDbLine
 10
48.3091
 20
218.185
 30
0.0
 11
46.9939
 21
217.176
 31
0.0
  0
LINE
  5
9D
330
17
100
AcDbEntity
  8
0
100
AcDbLine
 10
46.9939
 20
217.176
 30
0.0
 11
45.4624
 21
216.541
 31
0.0
  0
LINE
  5
9E
330
17
100
AcDbEntity
  8
0
100
AcDbLine
 10
45.4624
 20
216.541
 30
0.0
 11
43.8189
 21
216.325
 31
0.0
  0
LINE
  5
9F
330
17
100
AcDbEntity
  8
0
100
AcDbLine
 10
43.8189
 20
216.325
 30
0.0
 11
42.1754
 21
216.541
 31
0.0
  0
LINE
  5
A0
330
17
100
AcDbEntity
  8
0
100
AcDbLine
 10
42.1754
 20
216.541
 30
0.0
 11
40.6439
 21
217.176
 31
0.0
  0
LINE
  5
A1
330
17
100
AcDbEntity
  8
0
100
AcDbLine
 10
40.6439
 20
217.176
 30
0.0
 11
39.3288
 21
218.185
 31
0.0
  0
LINE
  5
A2
330
17
100
AcDbEntity
  8
0
100
AcDbLine
 10
39.3288
 20
218.185
 30
0.0
 11
38.3197
 21
219.5
 31
0.0
  0
LINE
  5
A3
330
17
100
AcDbEntity
  8
0
100
AcDbLine
 10
38.3197
 20
219.5
 30
0.0
 11
37.6853
 21
221.032
 31
0.0
  0
LINE
  5
A4
330
17
100
AcDbEntity
  8
0
100
AcDbLine
 10
37.6853
 20
221.032
 30
0.0
 11
37.469
 21
222.675
 31
0.0
  0
LINE
  5
A5
330
17
100
AcDbEntity
  8
0
100
AcDbLine
 10
37.471
 20
325.11
 30
0.0
 11
37.6874
 21
326.753
 31
0.0
  0
LINE
  5
A6
330
17
100
AcDbEntity
  8
0
100
AcDbLine
 10
37.6874
 20
326.753
 30
0.0
 11
38.3218
 21
328.285
 31
0.0
  0
LINE
  5
A7
330
17
100
AcDbEntity
  8
0
100
AcDbLine
 10
38.3218
 20
328.285
 30
0.0
 11
39.331
 21
329.6
 31
0.0
  0
LINE
  5
A8
330
17
100
AcDbEntity
  8
0
100
AcDbLine
 10
39.331
 20
329.6
 30
0.0
 11
40.6461
 21
330.609
 31
0.0
  0
LINE
  5
A9
330
17
100
AcDbEntity
  8
0
100
AcDbLine
 10
40.6461
 20
330.609
 30
0.0
 11
42.1776
 21
331.243
 31
0.0
  0
LINE
  5
AA
330
17
100
AcDbEntity
  8
0
100
AcDbLine
 10
42.1776
 20
331.243
 30
0.0
 11
43.8211
 21
331.46
 31
0.0
  0
LINE
  5
AB
330
17
100
AcDbEntity
  8
0
100
AcDbLine
 10
43.8211
 20
331.46
 30
0.0
 11
45.4646
 21
331.243
 31
0.0
  0
LINE
  5
AC
330
17
100
AcDbEntity
  8
0
100
AcDbLine
 10
45.4646
 20
331.243
 30
0.0
 11
46.9961
 21
330.609
 31
0.0
  0
LINE
  5
AD
330
17
100
AcDbEntity
  8
0
100
AcDbLine
 10
46.9961
 20
330.609
 30
0.0
 11
48.3112
 21
329.6
 31
0.0
  0
LINE
  5
AE
330
17
100
AcDbEntity
  8
0
100
AcDbLine
 10
48.3112
 20
329.6
 30
0.0
 11
49.3203
 21
328.285
 31
0.0
  0
LINE
  5
AF
330
17
100
AcDbEntity
  8
0
100
AcDbLine
 10
49.3203
 20
328.285
 30
0.0
 11
49.9547
 21
326.753
 31
0.0
  0
LINE
  5
B0
330
17
100
AcDbEntity
  8
0
100
AcDbLine
 10
49.9547
 20
326.753
 30
0.0
 11
50.171
 21
325.11
 31
0.0
  0
LINE
  5
B1
330
17
100
AcDbEntity
  8
0
100
AcDbLine
 10
50.171
 20
325.11
 30
0.0
 11
49.9546
 21
323.466
 31
0.0
  0
LINE
  5
B2
330
17
100
AcDbEntity
  8
0
100
AcDbLine
 10
49.9546
 20
323.466
 30
0.0
 11
49.3202
 21
321.935
 31
0.0
  0
LINE
  5
B3
330
17
100
AcDbEntity
  8
0
100
AcDbLine
 10
49.3202
 20
321.935
 30
0.0
 11
48.311
 21
320.62
 31
0.0
  0
LINE
  5
B4
330
17
100
AcDbEntity
  8
0
100
AcDbLine
 10
48.311
 20
320.62
 30
0.0
 11
46.9959
 21
319.611
 31
0.0
  0
LINE
  5
B5
330
17
100
AcDbEntity
  8
0
100
AcDbLine
 10
46.9959
 20
319.611
 30
0.0
 11
45.4644
 21
318.976
 31
0.0
  0
LINE
  5
B6
330
17
100
AcDbEntity
  8
0
100
AcDbLine
 10
45.4644
 20
318.976
 30
0.0
 11
43.8209
 21
318.76
 31
0.0
  0
LINE
  5
B7
330
17
100
AcDbEntity
  8
0
100
AcDbLine
 10
43.8209
 20
318.76
 30
0.0
 11
42.1774
 21
318.976
 31
0.0
  0
LINE
  5
B8
330
17
100
AcDbEntity
  8
0
100
AcDbLine
 10
42.1774
 20
318.976
 30
0.0
 11
40.6459
 21
319.611
 31
0.0
  0
LINE
  5
B9
330
17
100
AcDbEntity
  8
0
100
AcDbLine
 10
40.6459
 20
319.611
 30
0.0
 11
39.3308
 21
320.62
 31
0.0
  0
LINE
  5
BA
330
17
100
AcDbEntity
  8
0
100
AcDbLine
 10
39.3308
 20
320.62
 30
0.0
 11
38.3217
 21
321.935
 31
0.0
  0
LINE
  5
BB
330
17
100
AcDbEntity
  8
0
100
AcDbLine
 10
38.3217
 20
321.935
 30
0.0
 11
37.6873
 21
323.466
 31
0.0
  0
LINE
  5
BC
330
17
100
AcDbEntity
  8
0
100
AcDbLine
 10
37.6873
 20
323.466
 30
0.0
 11
37.471
 21
325.11
 31
0.0
  0
LINE
  5
BD
330
17
100
AcDbEntity
  8
0
100
AcDbLine
 10
92.9664
 20
225.336
 30
0.0
 11
93.1828
 21
226.98
 31
0.0
  0
LINE
  5
BE
330
17
100
AcDbEntity
  8
0
100
AcDbLine
 10
93.1828
 20
226.98
 30
0.0
 11
93.8172
 21
228.511
 31
0.0
  0
LINE
  5
BF
330
17
100
AcDbEntity
  8
0
100
AcDbLine
 10
93.8172
 20
228.511
 30
0.0
 11
94.8263
 21
229.827
 31
0.0
  0
LINE
  5
C0
330
17
100
AcDbEntity
  8
0
100
AcDbLine
 10
94.8263
 20
229.827
 30
0.0
 11
96.1415
 21
230.836
 31
0.0
  0
LINE
  5
C1
330
17
100
AcDbEntity
  8
0
100
AcDbLine
 10
96.1415
 20
230.836
 30
0.0
 11
97.673
 21
231.47
 31
0.0
  0
LINE
  5
C2
330
17
100
AcDbEntity
  8
0
100
AcDbLine
 10
97.673
 20
231.47
 30
0.0
 11
99.3165
 21
231.686
 31
0.0
  0
LINE
  5
C3
330
17
100
AcDbEntity
  8
0
100
AcDbLine
 10
99.3165
 20
231.686
 30
0.0
 11
100.96
 21
231.47
 31
0.0
  0
LINE
  5
C4
330
17
100
AcDbEntity
  8
0
100
AcDbLine
 10
100.96
 20
231.47
 30
0.0
 11
102.491
 21
230.835
 31
0.0
  0
LINE
  5
C5
330
17
100
AcDbEntity
  8
0
100
AcDbLine
 10
102.491
 20
230.835
 30
0.0
 11
103.807
 21
229.826
 31
0.0
  0
LINE
  5
C6
330
17
100
AcDbEntity
  8
0
100
AcDbLine
 10
103.807
 20
229.826
 30
0.0
 11
104.816
 21
228.511
 31
0.0
  0
LINE
  5
C7
330
17
100
AcDbEntity
  8
0
100
AcDbLine
 10
104.816
 20
228.511
 30
0.0
 11
105.45
 21
226.98
 31
0.0
  0
LINE
  5
C8
330
17
100
AcDbEntity
  8
0
100
AcDbLine
 10
105.45
 20
226.98
 30
0.0
 11
105.666
 21
225.336
 31
0.0
  0
LINE
  5
C9
330
17
100
AcDbEntity
  8
0
100
AcDbLine
 10
105.666
 20
225.336
 30
0.0
 11
105.45
 21
223.693
 31
0.0
  0
LINE
  5
CA
330
17
100
AcDbEntity
  8
0
100
AcDbLine
 10
105.45
 20
223.693
 30
0.0
 11
104.816
 21
222.161
 31
0.0
  0
LINE
  5
CB
330
17
100
AcDbEntity
  8
0
100
AcDbLine
 10
104.816
 20
222.161
 30
0.0
 11
103.806
 21
220.846
 31
0.0
  0
LINE
  5
CC
330
17
100
AcDbEntity
  8
0
100
AcDbLine
 10
103.806
 20
220.846
 30
0.0
 11
102.491
 21
219.837
 31
0.0
  0
LINE
  5
CD
330
17
100
AcDbEntity
  8
0
100
AcDbLine
 10
102.491
 20
219.837
 30
0.0
 11
100.96
 21
219.203
 31
0.0
  0
LINE
  5
CE
330
17
100
AcDbEntity
  8
0
100
AcDbLine
 10
100.96
 20
219.203
 30
0.0
 11
99.3162
 21
218.986
 31
0.0
  0
LINE
  5
CF
330
17
100
AcDbEntity
  8
0
100
AcDbLine
 10
99.3162
 20
218.986
 30
0.0
 11
97.6727
 21
219.203
 31
0.0
  0
LINE
  5
D0
330
17
100
AcDbEntity
  8
0
100
AcDbLine
 10
97.6727
 20
219.203
 30
0.0
 11
96.1413
 21
219.837
 31
0.0
  0
LINE
  5
D1
330
17
100
AcDbEntity
  8
0
100
AcDbLine
 10
96.1413
 20
219.837
 30
0.0
 11
94.8261
 21
220.846
 31
0.0
  0
LINE
  5
D2
330
17
100
AcDbEntity
  8
0
100
AcDbLine
 10
94.8261
 20
220.846
 30
0.0
 11
93.817
 21
222.161
 31
0.0
  0
LINE
  5
D3
330
17
100
AcDbEntity
  8
0
100
AcDbLine
 10
93.817
 20
222.161
 30
0.0
 11
93.1827
 21
223.693
 31
0.0
  0
LINE
  5
D4
330
17
100
AcDbEntity
  8
0
100
AcDbLine
 10
93.1827
 20
223.693
 30
0.0
 11
92.9664
 21
225.336
 31
0.0
  0
LINE
  5
D5
330
17
100
AcDbEntity
  8
0
100
AcDbLine
 10
92.9682
 20
322.447
 30
0.0
 11
93.1846
 21
324.09
 31
0.0
  0
LINE
  5
D6
330
17
100
AcDbEntity
  8
0
100
AcDbLine
 10
93.1846
 20
324.09
 30
0.0
 11
93.819
 21
325.622
 31
0.0
  0
LINE
  5
D7
330
17
100
AcDbEntity
  8
0
100
AcDbLine
 10
93.819
 20
325.622
 30
0.0
 11
94.8282
 21
326.937
 31
0.0
  0
LINE
  5
D8
330
17
100
AcDbEntity
  8
0
100
AcDbLine
 10
94.8282
 20
326.937
 30
0.0
 11
96.1434
 21
327.946
 31
0.0
  0
LINE
  5
D9
330
17
100
AcDbEntity
  8
0
100
AcDbLine
 10
96.1434
 20
327.946
 30
0.0
 11
97.6749
 21
328.58
 31
0.0
  0
LINE
  5
DA
330
17
100
AcDbEntity
  8
0
100
AcDbLine
 10
97.6749
 20
328.58
 30
0.0
 11
99.3184
 21
328.796
 31
0.0
  0
LINE
  5
DB
330
17
100
AcDbEntity
  8
0
100
AcDbLine
 10
99.3184
 20
328.796
 30
0.0
 11
100.962
 21
328.58
 31
0.0
  0
LINE
  5
DC
330
17
100
AcDbEntity
  8
0
100
AcDbLine
 10
100.962
 20
328.58
 30
0.0
 11
102.493
 21
327.946
 31
0.0
  0
LINE
  5
DD
330
17
100
AcDbEntity
  8
0
100
AcDbLine
 10
102.493
 20
327.946
 30
0.0
 11
103.808
 21
326.936
 31
0.0
  0
LINE
  5
DE
330
17
100
AcDbEntity
  8
0
100
AcDbLine
 10
103.808
 20
326.936
 30
0.0
 11
104.818
 21
325.621
 31
0.0
  0
LINE
  5
DF
330
17
100
AcDbEntity
  8
0
100
AcDbLine
 10
104.818
 20
325.621
 30
0.0
 11
105.452
 21
324.09
 31
0.0
  0
LINE
  5
E0
330
17
100
AcDbEntity
  8
0
100
AcDbLine
 10
105.452
 20
324.09
 30
0.0
 11
105.668
 21
322.446
 31
0.0
  0
LINE
  5
E1
330
17
100
AcDbEntity
  8
0
100
AcDbLine
 10
105.668
 20
322.446
 30
0.0
 11
105.452
 21
320.803
 31
0.0
  0
LINE
  5
E2
330
17
100
AcDbEntity
  8
0
100
AcDbLine
 10
105.452
 20
320.803
 30
0.0
 11
104.817
 21
319.271
 31
0.0
  0
LINE
  5
E3
330
17
100
AcDbEntity
  8
0
100
AcDbLine
 10
104.817
 20
319.271
 30
0.0
 11
103.808
 21
317.956
 31
0.0
  0
LINE
  5
E4
330
17
100
AcDbEntity
  8
0
100
AcDbLine
 10
103.808
 20
317.956
 30
0.0
 11
102.493
 21
316.947
 31
0.0
  0
LINE
  5
E5
330
17
100
AcDbEntity
  8
0
100
AcDbLine
 10
102.493
 20
316.947
 30
0.0
 11
100.962
 21
316.313
 31
0.0
  0
LINE
  5
E6
330
17
100
AcDbEntity
  8
0
100
AcDbLine
 10
100.962
 20
316.313
 30
0.0
 11
99.3181
 21
316.096
 31
0.0
  0
LINE
  5
E7
330
17
100
AcDbEntity
  8
0
100
AcDbLine
 10
99.3181
 20
316.096
 30
0.0
 11
97.6746
 21
316.313
 31
0.0
  0
LINE
  5
E8
330
17
100
AcDbEntity
  8
0
100
AcDbLine
 10
97.6746
 20
316.313
 30
0.0
 11
96.1431
 21
316.947
 31
0.0
  0
LINE
  5
E9
330
17
100
AcDbEntity
  8
0
100
AcDbLine
 10
96.1431
 20
316.947
 30
0.0
 11
94.828
 21
317.956
 31
0.0
  0
LINE
  5
EA
330
17
100
AcDbEntity
  8
0
100
AcDbLine
 10
94.828
 20
317.956
 30
0.0
 11
93.8189
 21
319.272
 31
0.0
  0
LINE
  5
EB
330
17
100
AcDbEntity
  8
0
100
AcDbLine
 10
93.8189
 20
319.272
 30
0.0
 11
93.1846
 21
320.803
 31
0.0
  0
LINE
  5
EC
330
17
100
AcDbEntity
  8
0
100
AcDbLine
 10
93.1846
 20
320.803
 30
0.0
 11
92.9682
 21
322.447
 31
0.0
  0
LINE
  5
ED
330
17
100
AcDbEntity
  8
0
100
AcDbLine
 10
119.976
 20
273.891
 30
0.0
 11
120.192
 21
275.534
 31
0.0
  0
LINE
  5
EE
330
17
100
AcDbEntity
  8
0
100
AcDbLine
 10
120.192
 20
275.534
 30
0.0
 11
120.826
 21
277.066
 31
0.0
  0
LINE
  5
EF
330
17
100
AcDbEntity
  8
0
100
AcDbLine
 10
120.826
 20
277.066
 30
0.0
 11
121.835
 21
278.381
 31
0.0
  0
LINE
  5
F0
330
17
100
AcDbEntity
  8
0
100
AcDbLine
 10
121.835
 20
278.381
 30
0.0
 11
123.151
 21
279.39
 31
0.0
  0
LINE
  5
F1
330
17
100
AcDbEntity
  8
0
100
AcDbLine
 10
123.151
 20
279.39
 30
0.0
 11
124.682
 21
280.025
 31
0.0
  0
LINE
  5
F2
330
17
100
AcDbEntity
  8
0
100
AcDbLine
 10
124.682
 20
280.025
 30
0.0
 11
126.326
 21
280.241
 31
0.0
  0
LINE
  5
F3
330
17
100
AcDbEntity
  8
0
100
AcDbLine
 10
126.326
 20
280.241
 30
0.0
 11
127.969
 21
280.024
 31
0.0
  0
LINE
  5
F4
330
17
100
AcDbEntity
  8
0
100
AcDbLine
 10
127.969
 20
280.024
 30
0.0
 11
129.501
 21
279.39
 31
0.0
  0
LINE
  5
F5
330
17
100
AcDbEntity
  8
0
100
AcDbLine
 10
129.501
 20
279.39
 30
0.0
 11
130.816
 21
278.381
 31
0.0
  0
LINE
  5
F6
330
17
100
AcDbEntity
  8
0
100
AcDbLine
 10
130.816
 20
278.381
 30
0.0
 11
131.825
 21
277.066
 31
0.0
  0
LINE
  5
F7
330
17
100
AcDbEntity
  8
0
100
AcDbLine
 10
131.825
 20
277.066
 30
0.0
 11
132.459
 21
275.534
 31
0.0
  0
LINE
  5
F8
330
17
100
AcDbEntity
  8
0
100
AcDbLine
 10
132.459
 20
275.534
 30
0.0
 11
132.676
 21
273.891
 31
0.0
  0
LINE
  5
F9
330
17
100
AcDbEntity
  8
0
100
AcDbLine
 10
132.676
 20
273.891
 30
0.0
 11
132.459
 21
272.247
 31
0.0
  0
LINE
  5
FA
330
17
100
AcDbEntity
  8
0
100
AcDbLine
 10
132.459
 20
272.247
 30
0.0
 11
131.825
 21
270.716
 31
0.0
  0
LINE
  5
FB
330
17
100
AcDbEntity
  8
0
100
AcDbLine
 10
131.825
 20
270.716
 30
0.0
 11
130.816
 21
269.401
 31
0.0
  0
LINE
  5
FC
330
17
100
AcDbEntity
  8
0
100
AcDbLine
 10
130.816
 20
269.401
 30
0.0
 11
129.5
 21
268.392
 31
0.0
  0
LINE
  5
FD
330
17
100
AcDbEntity
  8
0
100
AcDbLine
 10
129.5
 20
268.392
 30
0.0
 11
127.969
 21
267.757
 31
0.0
  0
LINE
  5
FE
330
17
100
AcDbEntity
  8
0
100
AcDbLine
 10
127.969
 20
267.757
 30
0.0
 11
126.325
 21
267.541
 31
0.0
  0
LINE
  5
FF
330
17
100
AcDbEntity
  8
0
100
AcDbLine
 10
126.325
 20
267.541
 30
0.0
 11
124.682
 21
267.757
 31
0.0
  0
LINE
  5
100
330
17
100
AcDbEntity
  8
0
100
AcDbLine
 10
124.682
 20
267.757
 30
0.0
 11
123.15
 21
268.392
 31
0.0
  0
LINE
  5
101
330
17
100
AcDbEntity
  8
0
100
AcDbLine
 10
123.15
 20
268.392
 30
0.0
 11
121.835
 21
269.401
 31
0.0
  0
LINE
  5
102
330
17
100
AcDbEntity
  8
0
100
AcDbLine
 10
121.835
 20
269.401
 30
0.0
 11
120.826
 21
270.716
 31
0.0
  0
LINE
  5
103
330
17
100
AcDbEntity
  8
0
100
AcDbLine
 10
120.826
 20
270.716
 30
0.0
 11
120.192
 21
272.247
 31
0.0
  0
LINE
  5
104
330
17
100
AcDbEntity
  8
0
100
AcDbLine
 10
120.192
 20
272.247
 30
0.0
 11
119.976
 21
273.891
 31
0.0
  0
LINE
  5
105
330
17
100
AcDbEntity
  8
0
100
AcDbLine
 10
215.225
 20
233.889
 30
0.0
 11
215.347
 21
235.128
 31
0.0
  0
LINE
  5
106
330
17
100
AcDbEntity
  8
0
100
AcDbLine
 10
215.347
 20
235.128
 30
0.0
 11
215.708
 21
236.319
 31
0.0
  0
LINE
  5
107
330
17
100
AcDbEntity
  8
0
100
AcDbLine
 10
215.708
 20
236.319
 30
0.0
 11
216.295
 21
237.417
 31
0.0
  0
LINE
  5
108
330
17
100
AcDbEntity
  8
0
100
AcDbLine
 10
216.295
 20
237.417
 30
0.0
 11
217.085
 21
238.379
 31
0.0
  0
LINE
  5
109
330
17
100
AcDbEntity
  8
0
100
AcDbLine
 10
217.085
 20
238.379
 30
0.0
 11
218.047
 21
239.169
 31
0.0
  0
LINE
  5
10A
330
17
100
AcDbEntity
  8
0
100
AcDbLine
 10
218.047
 20
239.169
 30
0.0
 11
219.145
 21
239.756
 31
0.0
  0
LINE
  5
10B
330
17
100
AcDbEntity
  8
0
100
AcDbLine
 10
219.145
 20
239.756
 30
0.0
 11
220.336
 21
240.117
 31
0.0
  0
LINE
  5
10C
330
17
100
AcDbEntity
  8
0
100
AcDbLine
 10
220.336
 20
240.117
 30
0.0
 11
221.575
 21
240.239
 31
0.0
  0
LINE
  5
10D
330
17
100
AcDbEntity
  8
0
100
AcDbLine
 10
221.575
 20
240.239
 30
0.0
 11
222.814
 21
240.117
 31
0.0
  0
LINE
  5
10E
330
17
100
AcDbEntity
  8
0
100
AcDbLine
 10
222.814
 20
240.117
 30
0.0
 11
224.005
 21
239.756
 31
0.0
  0
LINE
  5
10F
330
17
100
AcDbEntity
  8
0
100
AcDbLine
 10
224.005
 20
239.756
 30
0.0
 11
225.103
 21
239.169
 31
0.0
  0
LINE
  5
110
330
17
100
AcDbEntity
  8
0
100
AcDbLine
 10
225.103
 20
239.169
 30
0.0
 11
226.065
 21
238.379
 31
0.0
  0
LINE
  5
111
330
17
100
AcDbEntity
  8
0
100
AcDbLine
 10
226.065
 20
238.379
 30
0.0
 11
226.855
 21
237.417
 31
0.0
  0
LINE
  5
112
330
17
100
AcDbEntity
  8
0
100
AcDbLine
 10
226.855
 20
237.417
 30
0.0
 11
227.441
 21
236.319
 31
0.0
  0
LINE
  5
113
330
17
100
AcDbEntity
  8
0
100
AcDbLine
 10
227.441
 20
236.319
 30
0.0
 11
227.803
 21
235.128
 31
0.0
  0
LINE
  5
114
330
17
100
AcDbEntity
  8
0
100
AcDbLine
 10
227.803
 20
235.128
 30
0.0
 11
227.925
 21
233.889
 31
0.0
  0
LINE
  5
115
330
17
100
AcDbEntity
  8
0
100
AcDbLine
 10
227.925
 20
233.889
 30
0.0
 11
227.803
 21
232.65
 31
0.0
  0
LINE
  5
116
330
17
100
AcDbEntity
  8
0
100
AcDbLine
 10
227.803
 20
232.65
 30
0.0
 11
227.441
 21
231.459
 31
0.0
  0
LINE
  5
117
330
17
100
AcDbEntity
  8
0
100
AcDbLine
 10
227.441
 20
231.459
 30
0.0
 11
226.855
 21
230.361
 31
0.0
  0
LINE
  5
118
330
17
100
AcDbEntity
  8
0
100
AcDbLine
 10
226.855
 20
230.361
 30
0.0
 11
226.065
 21
229.399
 31
0.0
  0
LINE
  5
119
330
17
100
AcDbEntity
  8
0
100
AcDbLine
 10
226.065
 20
229.399
 30
0.0
 11
225.103
 21
228.609
 31
0.0
  0
LINE
  5
11A
330
17
100
AcDbEntity
  8
0
100
AcDbLine
 10
225.103
 20
228.609
 30
0.0
 11
224.005
 21
228.022
 31
0.0
  0
LINE
  5
11B
330
17
100
AcDbEntity
  8
0
100
AcDbLine
 10
224.005
 20
228.022
 30
0.0
 11
222.813
 21
227.661
 31
0.0
  0
LINE
  5
11C
330
17
100
AcDbEntity
  8
0
100
AcDbLine
 10
222.813
 20
227.661
 30
0.0
 11
221.575
 21
227.539
 31
0.0
  0
LINE
  5
11D
330
17
100
AcDbEntity
  8
0
100
AcDbLine
 10
221.575
 20
227.539
 30
0.0
 11
220.336
 21
227.661
 31
0.0
  0
LINE
  5
11E
330
17
100
AcDbEntity
  8
0
100
AcDbLine
 10
220.336
 20
227.661
 30
0.0
 11
219.145
 21
228.022
 31
0.0
  0
LINE
  5
11F
330
17
100
AcDbEntity
  8
0
100
AcDbLine
 10
219.145
 20
228.022
 30
0.0
 11
218.047
 21
228.609
 31
0.0
  0
LINE
  5
120
330
17
100
AcDbEntity
  8
0
100
AcDbLine
 10
218.047
 20
228.609
 30
0.0
 11
217.085
 21
229.399
 31
0.0
  0
LINE
  5
121
330
17
100
AcDbEntity
  8
0
100
AcDbLine
 10
217.085
 20
229.399
 30
0.0
 11
216.295
 21
230.361
 31
0.0
  0
LINE
  5
122
330
17
100
AcDbEntity
  8
0
100
AcDbLine
 10
216.295
 20
230.361
 30
0.0
 11
215.708
 21
231.459
 31
0.0
  0
LINE
  5
123
330
17
100
AcDbEntity
  8
0
100
AcDbLine
 10
215.708
 20
231.459
 30
0.0
 11
215.347
 21
232.65
 31
0.0
  0
LINE
  5
124
330
17
100
AcDbEntity
  8
0
100
AcDbLine
 10
215.347
 20
232.65
 30
0.0
 11
215.225
 21
233.889
 31
0.0
  0
LINE
  5
125
330
17
100
AcDbEntity
  8
0
100
AcDbLine
 10
215.226
 20
313.889
 30
0.0
 11
215.348
 21
315.128
 31
0.0
  0
LINE
  5
126
330
17
100
AcDbEntity
  8
0
100
AcDbLine
 10
215.348
 20
315.128
 30
0.0
 11
215.71
 21
316.319
 31
0.0
  0
LINE
  5
127
330
17
100
AcDbEntity
  8
0
100
AcDbLine
 10
215.71
 20
316.319
 30
0.0
 11
216.297
 21
317.417
 31
0.0
  0
LINE
  5
128
330
17
100
AcDbEntity
  8
0
100
AcDbLine
 10
216.297
 20
317.417
 30
0.0
 11
217.086
 21
318.379
 31
0.0
  0
LINE
  5
129
330
17
100
AcDbEntity
  8
0
100
AcDbLine
 10
217.086
 20
318.379
 30
0.0
 11
218.049
 21
319.169
 31
0.0
  0
LINE
  5
12A
330
17
100
AcDbEntity
  8
0
100
AcDbLine
 10
218.049
 20
319.169
 30
0.0
 11
219.146
 21
319.756
 31
0.0
  0
LINE
  5
12B
330
17
100
AcDbEntity
  8
0
100
AcDbLine
 10
219.146
 20
319.756
 30
0.0
 11
220.338
 21
320.117
 31
0.0
  0
LINE
  5
12C
330
17
100
AcDbEntity
  8
0
100
AcDbLine
 10
220.338
 20
320.117
 30
0.0
 11
221.576
 21
320.239
 31
0.0
  0
LINE
  5
12D
330
17
100
AcDbEntity
  8
0
100
AcDbLine
 10
221.576
 20
320.239
 30
0.0
 11
222.815
 21
320.117
 31
0.0
  0
LINE
  5
12E
330
17
100
AcDbEntity
  8
0
100
AcDbLine
 10
222.815
 20
320.117
 30
0.0
 11
224.006
 21
319.756
 31
0.0
  0
LINE
  5
12F
330
17
100
AcDbEntity
  8
0
100
AcDbLine
 10
224.006
 20
319.756
 30
0.0
 11
225.104
 21
319.169
 31
0.0
  0
LINE
  5
130
330
17
100
AcDbEntity
  8
0
100
AcDbLine
 10
225.104
 20
319.169
 30
0.0
 11
226.067
 21
318.379
 31
0.0
  0
LINE
  5
131
330
17
100
AcDbEntity
  8
0
100
AcDbLine
 10
226.067
 20
318.379
 30
0.0
 11
226.856
 21
317.417
 31
0.0
  0
LINE
  5
132
330
17
100
AcDbEntity
  8
0
100
AcDbLine
 10
226.856
 20
317.417
 30
0.0
 11
227.443
 21
316.319
 31
0.0
  0
LINE
  5
133
330
17
100
AcDbEntity
  8
0
100
AcDbLine
 10
227.443
 20
316.319
 30
0.0
 11
227.804
 21
315.128
 31
0.0
  0
LINE
  5
134
330
17
100
AcDbEntity
  8
0
100
AcDbLine
 10
227.804
 20
315.128
 30
0.0
 11
227.926
 21
313.889
 31
0.0
  0
LINE
  5
135
330
17
100
AcDbEntity
  8
0
100
AcDbLine
 10
227.926
 20
313.889
 30
0.0
 11
227.804
 21
312.65
 31
0.0
  0
LINE
  5
136
330
17
100
AcDbEntity
  8
0
100
AcDbLine
 10
227.804
 20
312.65
 30
0.0
 11
227.443
 21
311.459
 31
0.0
  0
LINE
  5
137
330
17
100
AcDbEntity
  8
0
100
AcDbLine
 10
227.443
 20
311.459
 30
0.0
 11
226.856
 21
310.361
 31
0.0
  0
LINE
  5
138
330
17
100
AcDbEntity
  8
0
100
AcDbLine
 10
226.856
 20
310.361
 30
0.0
 11
226.066
 21
309.399
 31
0.0
  0
LINE
  5
139
330
17
100
AcDbEntity
  8
0
100
AcDbLine
 10
226.066
 20
309.399
 30
0.0
 11
225.104
 21
308.609
 31
0.0
  0
LINE
  5
13A
330
17
100
AcDbEntity
  8
0
100
AcDbLine
 10
225.104
 20
308.609
 30
0.0
 11
224.006
 21
308.022
 31
0.0
  0
LINE
  5
13B
330
17
100
AcDbEntity
  8
0
100
AcDbLine
 10
224.006
 20
308.022
 30
0.0
 11
222.815
 21
307.661
 31
0.0
  0
LINE
  5
13C
330
17
100
AcDbEntity
  8
0
100
AcDbLine
 10
222.815
 20
307.661
 30
0.0
 11
221.576
 21
307.539
 31
0.0
  0
LINE
  5
13D
330
17
100
AcDbEntity
  8
0
100
AcDbLine
 10
221.576
 20
307.539
 30
0.0
 11
220.337
 21
307.661
 31
0.0
  0
LINE
  5
13E
330
17
100
AcDbEntity
  8
0
100
AcDbLine
 10
220.337
 20
307.661
 30
0.0
 11
219.146
 21
308.022
 31
0.0
  0
LINE
  5
13F
330
17
100
AcDbEntity
  8
0
100
AcDbLine
 10
219.146
 20
308.022
 30
0.0
 11
218.048
 21
308.609
 31
0.0
  0
LINE
  5
140
330
17
100
AcDbEntity
  8
0
100
AcDbLine
 10
218.048
 20
308.609
 30
0.0
 11
217.086
 21
309.399
 31
0.0
  0
LINE
  5
141
330
17
100
AcDbEntity
  8
0
100
AcDbLine
 10
217.086
 20
309.399
 30
0.0
 11
216.296
 21
310.361
 31
0.0
  0
LINE
  5
142
330
17
100
AcDbEntity
  8
0
100
AcDbLine
 10
216.296
 20
310.361
 30
0.0
 11
215.71
 21
311.459
 31
0.0
  0
LINE
  5
143
330
17
100
AcDbEntity
  8
0
100
AcDbLine
 10
215.71
 20
311.459
 30
0.0
 11
215.348
 21
312.65
 31
0.0
  0
LINE
  5
144
330
17
100
AcDbEntity
  8
0
100
AcDbLine
 10
215.348
 20
312.65
 30
0.0
 11
215.226
 21
313.889
 31
0.0
  0
LINE
  5
145
330
17
100
AcDbEntity
  8
0
100
AcDbLine
 10
315.225
 20
233.887
 30
0.0
 11
315.347
 21
235.126
 31
0.0
  0
LINE
  5
146
330
17
100
AcDbEntity
  8
0
100
AcDbLine
 10
315.347
 20
235.126
 30
0.0
 11
315.708
 21
236.317
 31
0.0
  0
LINE
  5
147
330
17
100
AcDbEntity
  8
0
100
AcDbLine
 10
315.708
 20
236.317
 30
0.0
 11
316.295
 21
237.415
 31
0.0
  0
LINE
  5
148
330
17
100
AcDbEntity
  8
0
100
AcDbLine
 10
316.295
 20
237.415
 30
0.0
 11
317.085
 21
238.377
 31
0.0
  0
LINE
  5
149
330
17
100
AcDbEntity
  8
0
100
AcDbLine
 10
317.085
 20
238.377
 30
0.0
 11
318.047
 21
239.167
 31
0.0
  0
LINE
  5
14A
330
17
100
AcDbEntity
  8
0
100
AcDbLine
 10
318.047
 20
239.167
 30
0.0
 11
319.145
 21
239.754
 31
0.0
  0
LINE
  5
14B
330
17
100
AcDbEntity
  8
0
100
AcDbLine
 10
319.145
 20
239.754
 30
0.0
 11
320.336
 21
240.115
 31
0.0
  0
LINE
  5
14C
330
17
100
AcDbEntity
  8
0
100
AcDbLine
 10
320.336
 20
240.115
 30
0.0
 11
321.575
 21
240.237
 31
0.0
  0
LINE
  5
14D
330
17
100
AcDbEntity
  8
0
100
AcDbLine
 10
321.575
 20
240.237
 30
0.0
 11
322.814
 21
240.115
 31
0.0
  0
LINE
  5
14E
330
17
100
AcDbEntity
  8
0
100
AcDbLine
 10
322.814
 20
240.115
 30
0.0
 11
324.005
 21
239.754
 31
0.0
  0
LINE
  5
14F
330
17
100
AcDbEntity
  8
0
100
AcDbLine
 10
324.005
 20
239.754
 30
0.0
 11
325.103
 21
239.167
 31
0.0
  0
LINE
  5
150
330
17
100
AcDbEntity
  8
0
100
AcDbLine
 10
325.103
 20
239.167
 30
0.0
 11
326.065
 21
238.377
 31
0.0
  0
LINE
  5
151
330
17
100
AcDbEntity
  8
0
100
AcDbLine
 10
326.065
 20
238.377
 30
0.0
 11
326.855
 21
237.415
 31
0.0
  0
LINE
  5
152
330
17
100
AcDbEntity
  8
0
100
AcDbLine
 10
326.855
 20
237.415
 30
0.0
 11
327.441
 21
236.317
 31
0.0
  0
LINE
  5
153
330
17
100
AcDbEntity
  8
0
100
AcDbLine
 10
327.441
 20
236.317
 30
0.0
 11
327.803
 21
235.126
 31
0.0
  0
LINE
  5
154
330
17
100
AcDbEntity
  8
0
100
AcDbLine
 10
327.803
 20
235.126
 30
0.0
 11
327.925
 21
233.887
 31
0.0
  0
LINE
  5
155
330
17
100
AcDbEntity
  8
0
100
AcDbLine
 10
327.925
 20
233.887
 30
0.0
 11
327.803
 21
232.648
 31
0.0
  0
LINE
  5
156
330
17
100
AcDbEntity
  8
0
100
AcDbLine
 10
327.803
 20
232.648
 30
0.0
 11
327.441
 21
231.457
 31
0.0
  0
LINE
  5
157
330
17
100
AcDbEntity
  8
0
100
AcDbLine
 10
327.441
 20
231.457
 30
0.0
 11
326.855
 21
230.359
 31
0.0
  0
LINE
  5
158
330
17
100
AcDbEntity
  8
0
100
AcDbLine
 10
326.855
 20
230.359
 30
0.0
 11
326.065
 21
229.397
 31
0.0
  0
LINE
  5
159
330
17
100
AcDbEntity
  8
0
100
AcDbLine
 10
326.065
 20
229.397
 30
0.0
 11
325.103
 21
228.607
 31
0.0
  0
LINE
  5
15A
330
17
100
AcDbEntity
  8
0
100
AcDbLine
 10
325.103
 20
228.607
 30
0.0
 11
324.005
 21
228.02
 31
0.0
  0
LINE
  5
15B
330
17
100
AcDbEntity
  8
0
100
AcDbLine
 10
324.005
 20
228.02
 30
0.0
 11
322.813
 21
227.659
 31
0.0
  0
LINE
  5
15C
330
17
100
AcDbEntity
  8
0
100
AcDbLine
 10
322.813
 20
227.659
 30
0.0
 11
321.575
 21
227.537
 31
0.0
  0
LINE
  5
15D
330
17
100
AcDbEntity
  8
0
100
AcDbLine
 10
321.575
 20
227.537
 30
0.0
 11
320.336
 21
227.659
 31
0.0
  0
LINE
  5
15E
330
17
100
AcDbEntity
  8
0
100
AcDbLine
 10
320.336
 20
227.659
 30
0.0
 11
319.145
 21
228.02
 31
0.0
  0
LINE
  5
15F
330
17
100
AcDbEntity
  8
0
100
AcDbLine
 10
319.145
 20
228.02
 30
0.0
 11
318.047
 21
228.607
 31
0.0
  0
LINE
  5
160
330
17
100
AcDbEntity
  8
0
100
AcDbLine
 10
318.047
 20
228.607
 30
0.0
 11
317.085
 21
229.397
 31
0.0
  0
LINE
  5
161
330
17
100
AcDbEntity
  8
0
100
AcDbLine
 10
317.085
 20
229.397
 30
0.0
 11
316.295
 21
230.359
 31
0.0
  0
LINE
  5
162
330
17
100
AcDbEntity
  8
0
100
AcDbLine
 10
316.295
 20
230.359
 30
0.0
 11
315.708
 21
231.457
 31
0.0
  0
LINE
  5
163
330
17
100
AcDbEntity
  8
0
100
AcDbLine
 10
315.708
 20
231.457
 30
0.0
 11
315.347
 21
232.648
 31
0.0
  0
LINE
  5
164
330
17
100
AcDbEntity
  8
0
100
AcDbLine
 10
315.347
 20
232.648
 30
0.0
 11
315.225
 21
233.887
 31
0.0
  0
LINE
  5
165
330
17
100
AcDbEntity
  8
0
100
AcDbLine
 10
315.226
 20
313.887
 30
0.0
 11
315.348
 21
315.126
 31
0.0
  0
LINE
  5
166
330
17
100
AcDbEntity
  8
0
100
AcDbLine
 10
315.348
 20
315.126
 30
0.0
 11
315.71
 21
316.317
 31
0.0
  0
LINE
  5
167
330
17
100
AcDbEntity
  8
0
100
AcDbLine
 10
315.71
 20
316.317
 30
0.0
 11
316.297
 21
317.415
 31
0.0
  0
LINE
  5
168
330
17
100
AcDbEntity
  8
0
100
AcDbLine
 10
316.297
 20
317.415
 30
0.0
 11
317.086
 21
318.377
 31
0.0
  0
LINE
  5
169
330
17
100
AcDbEntity
  8
0
100
AcDbLine
 10
317.086
 20
318.377
 30
0.0
 11
318.049
 21
319.167
 31
0.0
  0
LINE
  5
16A
330
17
100
AcDbEntity
  8
0
100
AcDbLine
 10
318.049
 20
319.167
 30
0.0
 11
319.146
 21
319.754
 31
0.0
  0
LINE
  5
16B
330
17
100
AcDbEntity
  8
0
100
AcDbLine
 10
319.146
 20
319.754
 30
0.0
 11
320.338
 21
320.115
 31
0.0
  0
LINE
  5
16C
330
17
100
AcDbEntity
  8
0
100
AcDbLine
 10
320.338
 20
320.115
 30
0.0
 11
321.576
 21
320.237
 31
0.0
  0
LINE
  5
16D
330
17
100
AcDbEntity
  8
0
100
AcDbLine
 10
321.576
 20
320.237
 30
0.0
 11
322.815
 21
320.115
 31
0.0
  0
LINE
  5
16E
330
17
100
AcDbEntity
  8
0
100
AcDbLine
 10
322.815
 20
320.115
 30
0.0
 11
324.006
 21
319.754
 31
0.0
  0
LINE
  5
16F
330
17
100
AcDbEntity
  8
0
100
AcDbLine
 10
324.006
 20
319.754
 30
0.0
 11
325.104
 21
319.167
 31
0.0
  0
LINE
  5
170
330
17
100
AcDbEntity
  8
0
100
AcDbLine
 10
325.104
 20
319.167
 30
0.0
 11
326.067
 21
318.377
 31
0.0
  0
LINE
  5
171
330
17
100
AcDbEntity
  8
0
100
AcDbLine
 10
326.067
 20
318.377
 30
0.0
 11
326.856
 21
317.415
 31
0.0
  0
LINE
  5
172
330
17
100
AcDbEntity
  8
0
100
AcDbLine
 10
326.856
 20
317.415
 30
0.0
 11
327.443
 21
316.317
 31
0.0
  0
LINE
  5
173
330
17
100
AcDbEntity
  8
0
100
AcDbLine
 10
327.443
 20
316.317
 30
0.0
 11
327.804
 21
315.126
 31
0.0
  0
LINE
  5
174
330
17
100
AcDbEntity
  8
0
100
AcDbLine
 10
327.804
 20
315.126
 30
0.0
 11
327.926
 21
313.887
 31
0.0
  0
LINE
  5
175
330
17
100
AcDbEntity
  8
0
100
AcDbLine
 10
327.926
 20
313.887
 30
0.0
 11
327.804
 21
312.648
 31
0.0
  0
LINE
  5
176
330
17
100
AcDbEntity
  8
0
100
AcDbLine
 10
327.804
 20
312.648
 30
0.0
 11
327.443
 21
311.457
 31
0.0
  0
LINE
  5
177
330
17
100
AcDbEntity
  8
0
100
AcDbLine
 10
327.443
 20
311.457
 30
0.0
 11
326.856
 21
310.359
 31
0.0
  0
LINE
  5
178
330
17
100
AcDbEntity
  8
0
100
AcDbLine
 10
326.856
 20
310.359
 30
0.0
 11
326.066
 21
309.397
 31
0.0
  0
LINE
  5
179
330
17
100
AcDbEntity
  8
0
100
AcDbLine
 10
326.066
 20
309.397
 30
0.0
 11
325.104
 21
308.607
 31
0.0
  0
LINE
  5
17A
330
17
100
AcDbEntity
  8
0
100
AcDbLine
 10
325.104
 20
308.607
 30
0.0
 11
324.006
 21
308.02
 31
0.0
  0
LINE
  5
17B
330
17
100
AcDbEntity
  8
0
100
AcDbLine
 10
324.006
 20
308.02
 30
0.0
 11
322.815
 21
307.659
 31
0.0
  0
LINE
  5
17C
330
17
100
AcDbEntity
  8
0
100
AcDbLine
 10
322.815
 20
307.659
 30
0.0
 11
321.576
 21
307.537
 31
0.0
  0
LINE
  5
17D
330
17
100
AcDbEntity
  8
0
100
AcDbLine
 10
321.576
 20
307.537
 30
0.0
 11
320.337
 21
307.659
 31
0.0
  0
LINE
  5
17E
330
17
100
AcDbEntity
  8
0
100
AcDbLine
 10
320.337
 20
307.659
 30
0.0
 11
319.146
 21
308.02
 31
0.0
  0
LINE
  5
17F
330
17
100
AcDbEntity
  8
0
100
AcDbLine
 10
319.146
 20
308.02
 30
0.0
 11
318.048
 21
308.607
 31
0.0
  0
LINE
  5
180
330
17
100
AcDbEntity
  8
0
100
AcDbLine
 10
318.048
 20
308.607
 30
0.0
 11
317.086
 21
309.397
 31
0.0
  0
LINE
  5
181
330
17
100
AcDbEntity
  8
0
100
AcDbLine
 10
317.086
 20
309.397
 30
0.0
 11
316.296
 21
310.359
 31
0.0
  0
LINE
  5
182
330
17
100
AcDbEntity
  8
0
100
AcDbLine
 10
316.296
 20
310.359
 30
0.0
 11
315.71
 21
311.457
 31
0.0
  0
LINE
  5
183
330
17
100
AcDbEntity
  8
0
100
AcDbLine
 10
315.71
 20
311.457
 30
0.0
 11
315.348
 21
312.648
 31
0.0
  0
LINE
  5
184
330
17
100
AcDbEntity
  8
0
100
AcDbLine
 10
315.348
 20
312.648
 30
0.0
 11
315.226
 21
313.887
 31
0.0
  0
LINE
  5
185
330
17
100
AcDbEntity
  8
0
100
AcDbLine
 10
883.973
 20
159.576
 30
0.0
 11
884.237
 21
162.249
 31
0.0
  0
LINE
  5
186
330
17
100
AcDbEntity
  8
0
100
AcDbLine
 10
884.237
 20
162.249
 30
0.0
 11
885.016
 21
164.819
 31
0.0
  0
LINE
  5
187
330
17
100
AcDbEntity
  8
0
100
AcDbLine
 10
885.016
 20
164.819
 30
0.0
 11
886.282
 21
167.187
 31
0.0
  0
LINE
  5
188
330
17
100
AcDbEntity
  8
0
100
AcDbLine
 10
886.282
 20
167.187
 30
0.0
 11
887.986
 21
169.263
 31
0.0
  0
LINE
  5
189
330
17
100
AcDbEntity
  8
0
100
AcDbLine
 10
887.986
 20
169.263
 30
0.0
 11
890.062
 21
170.967
 31
0.0
  0
LINE
  5
18A
330
17
100
AcDbEntity
  8
0
100
AcDbLine
 10
890.062
 20
170.967
 30
0.0
 11
892.431
 21
172.233
 31
0.0
  0
LINE
  5
18B
330
17
100
AcDbEntity
  8
0
100
AcDbLine
 10
892.431
 20
172.233
 30
0.0
 11
895.001
 21
173.013
 31
0.0
  0
LINE
  5
18C
330
17
100
AcDbEntity
  8
0
100
AcDbLine
 10
895.001
 20
173.013
 30
0.0
 11
897.674
 21
173.276
 31
0.0
  0
LINE
  5
18D
330
17
100
AcDbEntity
  8
0
100
AcDbLine
 10
897.674
 20
173.276
 30
0.0
 11
900.346
 21
173.013
 31
0.0
  0
LINE
  5
18E
330
17
100
AcDbEntity
  8
0
100
AcDbLine
 10
900.346
 20
173.013
 30
0.0
 11
902.916
 21
172.233
 31
0.0
  0
LINE
  5
18F
330
17
100
AcDbEntity
  8
0
100
AcDbLine
 10
902.916
 20
172.233
 30
0.0
 11
905.285
 21
170.967
 31
0.0
  0
LINE
  5
190
330
17
100
AcDbEntity
  8
0
100
AcDbLine
 10
905.285
 20
170.967
 30
0.0
 11
907.361
 21
169.263
 31
0.0
  0
LINE
  5
191
330
17
100
AcDbEntity
  8
0
100
AcDbLine
 10
907.361
 20
169.263
 30
0.0
 11
909.065
 21
167.187
 31
0.0
  0
LINE
  5
192
330
17
100
AcDbEntity
  8
0
100
AcDbLine
 10
909.065
 20
167.187
 30
0.0
 11
910.331
 21
164.818
 31
0.0
  0
LINE
  5
193
330
17
100
AcDbEntity
  8
0
100
AcDbLine
 10
910.331
 20
164.818
 30
0.0
 11
911.11
 21
162.248
 31
0.0
  0
LINE
  5
194
330
17
100
AcDbEntity
  8
0
100
AcDbLine
 10
911.11
 20
162.248
 30
0.0
 11
911.373
 21
159.576
 31
0.0
  0
LINE
  5
195
330
17
100
AcDbEntity
  8
0
100
AcDbLine
 10
911.373
 20
159.576
 30
0.0
 11
911.11
 21
156.903
 31
0.0
  0
LINE
  5
196
330
17
100
AcDbEntity
  8
0
100
AcDbLine
 10
911.11
 20
156.903
 30
0.0
 11
910.33
 21
154.333
 31
0.0
  0
LINE
  5
197
330
17
100
AcDbEntity
  8
0
100
AcDbLine
 10
910.33
 20
154.333
 30
0.0
 11
909.064
 21
151.964
 31
0.0
  0
LINE
  5
198
330
17
100
AcDbEntity
  8
0
100
AcDbLine
 10
909.064
 20
151.964
 30
0.0
 11
907.36
 21
149.888
 31
0.0
  0
LINE
  5
199
330
17
100
AcDbEntity
  8
0
100
AcDbLine
 10
907.36
 20
149.888
 30
0.0
 11
905.284
 21
148.185
 31
0.0
  0
LINE
  5
19A
330
17
100
AcDbEntity
  8
0
100
AcDbLine
 10
905.284
 20
148.185
 30
0.0
 11
902.916
 21
146.919
 31
0.0
  0
LINE
  5
19B
330
17
100
AcDbEntity
  8
0
100
AcDbLine
 10
902.916
 20
146.919
 30
0.0
 11
900.346
 21
146.139
 31
0.0
  0
LINE
  5
19C
330
17
100
AcDbEntity
  8
0
100
AcDbLine
 10
900.346
 20
146.139
 30
0.0
 11
897.673
 21
145.876
 31
0.0
  0
LINE
  5
19D
330
17
100
AcDbEntity
  8
0
100
AcDbLine
 10
897.673
 20
145.876
 30
0.0
 11
895.0
 21
146.139
 31
0.0
  0
LINE
  5
19E
330
17
100
AcDbEntity
  8
0
100
AcDbLine
 10
895.0
 20
146.139
 30
0.0
 11
892.43
 21
146.919
 31
0.0
  0
LINE
  5
19F
330
17
100
AcDbEntity
  8
0
100
AcDbLine
 10
892.43
 20
146.919
 30
0.0
 11
890.062
 21
148.185
 31
0.0
  0
LINE
  5
1A0
330
17
100
AcDbEntity
  8
0
100
AcDbLine
 10
890.062
 20
148.185
 30
0.0
 11
887.986
 21
149.889
 31
0.0
  0
LINE
  5
1A1
330
17
100
AcDbEntity
  8
0
100
AcDbLine
 10
887.986
 20
149.889
 30
0.0
 11
886.282
 21
151.965
 31
0.0
  0
LINE
  5
1A2
330
17
100
AcDbEntity
  8
0
100
AcDbLine
 10
886.282
 20
151.965
 30
0.0
 11
885.016
 21
154.333
 31
0.0
  0
LINE
  5
1A3
330
17
100
AcDbEntity
  8
0
100
AcDbLine
 10
885.016
 20
154.333
 30
0.0
 11
884.236
 21
156.903
 31
0.0
  0
LINE
  5
1A4
330
17
100
AcDbEntity
  8
0
100
AcDbLine
 10
884.236
 20
156.903
 30
0.0
 11
883.973
 21
159.576
 31
0.0
  0
LINE
  5
1A5
330
17
100
AcDbEntity
  8
0
100
AcDbLine
 10
942.126
 20
273.875
 30
0.0
 11
942.248
 21
275.114
 31
0.0
  0
LINE
  5
1A6
330
17
100
AcDbEntity
  8
0
100
AcDbLine
 10
942.248
 20
275.114
 30
0.0
 11
942.609
 21
276.305
 31
0.0
  0
LINE
  5
1A7
330
17
100
AcDbEntity
  8
0
100
AcDbLine
 10
942.609
 20
276.305
 30
0.0
 11
943.196
 21
277.403
 31
0.0
  0
LINE
  5
1A8
330
17
100
AcDbEntity
  8
0
100
AcDbLine
 10
943.196
 20
277.403
 30
0.0
 11
943.985
 21
278.365
 31
0.0
  0
LINE
  5
1A9
330
17
100
AcDbEntity
  8
0
100
AcDbLine
 10
943.985
 20
278.365
 30
0.0
 11
944.948
 21
279.155
 31
0.0
  0
LINE
  5
1AA
330
17
100
AcDbEntity
  8
0
100
AcDbLine
 10
944.948
 20
279.155
 30
0.0
 11
946.046
 21
279.742
 31
0.0
  0
LINE
  5
1AB
330
17
100
AcDbEntity
  8
0
100
AcDbLine
 10
946.046
 20
279.742
 30
0.0
 11
947.237
 21
280.103
 31
0.0
  0
LINE
  5
1AC
330
17
100
AcDbEntity
  8
0
100
AcDbLine
 10
947.237
 20
280.103
 30
0.0
 11
948.476
 21
280.225
 31
0.0
  0
LINE
  5
1AD
330
17
100
AcDbEntity
  8
0
100
AcDbLine
 10
948.476
 20
280.225
 30
0.0
 11
949.714
 21
280.103
 31
0.0
  0
LINE
  5
1AE
330
17
100
AcDbEntity
  8
0
100
AcDbLine
 10
949.714
 20
280.103
 30
0.0
 11
950.906
 21
279.741
 31
0.0
  0
LINE
  5
1AF
330
17
100
AcDbEntity
  8
0
100
AcDbLine
 10
950.906
 20
279.741
 30
0.0
 11
952.003
 21
279.155
 31
0.0
  0
LINE
  5
1B0
330
17
100
AcDbEntity
  8
0
100
AcDbLine
 10
952.003
 20
279.155
 30
0.0
 11
952.966
 21
278.365
 31
0.0
  0
LINE
  5
1B1
330
17
100
AcDbEntity
  8
0
100
AcDbLine
 10
952.966
 20
278.365
 30
0.0
 11
953.755
 21
277.403
 31
0.0
  0
LINE
  5
1B2
330
17
100
AcDbEntity
  8
0
100
AcDbLine
 10
953.755
 20
277.403
 30
0.0
 11
954.342
 21
276.305
 31
0.0
  0
LINE
  5
1B3
330
17
100
AcDbEntity
  8
0
100
AcDbLine
 10
954.342
 20
276.305
 30
0.0
 11
954.704
 21
275.114
 31
0.0
  0
LINE
  5
1B4
330
17
100
AcDbEntity
  8
0
100
AcDbLine
 10
954.704
 20
275.114
 30
0.0
 11
954.826
 21
273.875
 31
0.0
  0
LINE
  5
1B5
330
17
100
AcDbEntity
  8
0
100
AcDbLine
 10
954.826
 20
273.875
 30
0.0
 11
954.703
 21
272.636
 31
0.0
  0
LINE
  5
1B6
330
17
100
AcDbEntity
  8
0
100
AcDbLine
 10
954.703
 20
272.636
 30
0.0
 11
954.342
 21
271.445
 31
0.0
  0
LINE
  5
1B7
330
17
100
AcDbEntity
  8
0
100
AcDbLine
 10
954.342
 20
271.445
 30
0.0
 11
953.755
 21
270.347
 31
0.0
  0
LINE
  5
1B8
330
17
100
AcDbEntity
  8
0
100
AcDbLine
 10
953.755
 20
270.347
 30
0.0
 11
952.966
 21
269.385
 31
0.0
  0
LINE
  5
1B9
330
17
100
AcDbEntity
  8
0
100
AcDbLine
 10
952.966
 20
269.385
 30
0.0
 11
952.003
 21
268.595
 31
0.0
  0
LINE
  5
1BA
330
17
100
AcDbEntity
  8
0
100
AcDbLine
 10
952.003
 20
268.595
 30
0.0
 11
950.905
 21
268.008
 31
0.0
  0
LINE
  5
1BB
330
17
100
AcDbEntity
  8
0
100
AcDbLine
 10
950.905
 20
268.008
 30
0.0
 11
949.714
 21
267.647
 31
0.0
  0
LINE
  5
1BC
330
17
100
AcDbEntity
  8
0
100
AcDbLine
 10
949.714
 20
267.647
 30
0.0
 11
948.475
 21
267.525
 31
0.0
  0
LINE
  5
1BD
330
17
100
AcDbEntity
  8
0
100
AcDbLine
 10
948.475
 20
267.525
 30
0.0
 11
947.237
 21
267.647
 31
0.0
  0
LINE
  5
1BE
330
17
100
AcDbEntity
  8
0
100
AcDbLine
 10
947.237
 20
267.647
 30
0.0
 11
946.045
 21
268.008
 31
0.0
  0
LINE
  5
1BF
330
17
100
AcDbEntity
  8
0
100
AcDbLine
 10
946.045
 20
268.008
 30
0.0
 11
944.948
 21
268.595
 31
0.0
  0
LINE
  5
1C0
330
17
100
AcDbEntity
  8
0
100
AcDbLine
 10
944.948
 20
268.595
 30
0.0
 11
943.985
 21
269.385
 31
0.0
  0
LINE
  5
1C1
330
17
100
AcDbEntity
  8
0
100
AcDbLine
 10
943.985
 20
269.385
 30
0.0
 11
943.196
 21
270.347
 31
0.0
  0
LINE
  5
1C2
330
17
100
AcDbEntity
  8
0
100
AcDbLine
 10
943.196
 20
270.347
 30
0.0
 11
942.609
 21
271.445
 31
0.0
  0
LINE
  5
1C3
330
17
100
AcDbEntity
  8
0
100
AcDbLine
 10
942.609
 20
271.445
 30
0.0
 11
942.248
 21
272.636
 31
0.0
  0
LINE
  5
1C4
330
17
100
AcDbEntity
  8
0
100
AcDbLine
 10
942.248
 20
272.636
 30
0.0
 11
942.126
 21
273.875
 31
0.0
  0
LINE
  5
1C5
330
17
100
AcDbEntity
  8
0
100
AcDbLine
 10
992.926
 20
273.874
 30
0.0
 11
993.048
 21
275.113
 31
0.0
  0
LINE
  5
1C6
330
17
100
AcDbEntity
  8
0
100
AcDbLine
 10
993.048
 20
275.113
 30
0.0
 11
993.409
 21
276.304
 31
0.0
  0
LINE
  5
1C7
330
17
100
AcDbEntity
  8
0
100
AcDbLine
 10
993.409
 20
276.304
 30
0.0
 11
993.996
 21
277.402
 31
0.0
  0
LINE
  5
1C8
330
17
100
AcDbEntity
  8
0
100
AcDbLine
 10
993.996
 20
277.402
 30
0.0
 11
994.785
 21
278.364
 31
0.0
  0
LINE
  5
1C9
330
17
100
AcDbEntity
  8
0
100
AcDbLine
 10
994.785
 20
278.364
 30
0.0
 11
995.748
 21
279.154
 31
0.0
  0
LINE
  5
1CA
330
17
100
AcDbEntity
  8
0
100
AcDbLine
 10
995.748
 20
279.154
 30
0.0
 11
996.846
 21
279.741
 31
0.0
  0
LINE
  5
1CB
330
17
100
AcDbEntity
  8
0
100
AcDbLine
 10
996.846
 20
279.741
 30
0.0
 11
998.037
 21
280.102
 31
0.0
  0
LINE
  5
1CC
330
17
100
AcDbEntity
  8
0
100
AcDbLine
 10
998.037
 20
280.102
 30
0.0
 11
999.276
 21
280.224
 31
0.0
  0
LINE
  5
1CD
330
17
100
AcDbEntity
  8
0
100
AcDbLine
 10
999.276
 20
280.224
 30
0.0
 11
1000.51
 21
280.102
 31
0.0
  0
LINE
  5
1CE
330
17
100
AcDbEntity
  8
0
100
AcDbLine
 10
1000.51
 20
280.102
 30
0.0
 11
1001.71
 21
279.741
 31
0.0
  0
LINE
  5
1CF
330
17
100
AcDbEntity
  8
0
100
AcDbLine
 10
1001.71
 20
279.741
 30
0.0
 11
1002.8
 21
279.154
 31
0.0
  0
LINE
  5
1D0
330
17
100
AcDbEntity
  8
0
100
AcDbLine
 10
1002.8
 20
279.154
 30
0.0
 11
1003.77
 21
278.364
 31
0.0
  0
LINE
  5
1D1
330
17
100
AcDbEntity
  8
0
100
AcDbLine
 10
1003.77
 20
278.364
 30
0.0
 11
1004.56
 21
277.402
 31
0.0
  0
LINE
  5
1D2
330
17
100
AcDbEntity
  8
0
100
AcDbLine
 10
1004.56
 20
277.402
 30
0.0
 11
1005.14
 21
276.304
 31
0.0
  0
LINE
  5
1D3
330
17
100
AcDbEntity
  8
0
100
AcDbLine
 10
1005.14
 20
276.304
 30
0.0
 11
1005.5
 21
275.113
 31
0.0
  0
LINE
  5
1D4
330
17
100
AcDbEntity
  8
0
100
AcDbLine
 10
1005.5
 20
275.113
 30
0.0
 11
1005.63
 21
273.874
 31
0.0
  0
LINE
  5
1D5
330
17
100
AcDbEntity
  8
0
100
AcDbLine
 10
1005.63
 20
273.874
 30
0.0
 11
1005.5
 21
272.635
 31
0.0
  0
LINE
  5
1D6
330
17
100
AcDbEntity
  8
0
100
AcDbLine
 10
1005.5
 20
272.635
 30
0.0
 11
1005.14
 21
271.444
 31
0.0
  0
LINE
  5
1D7
330
17
100
AcDbEntity
  8
0
100
AcDbLine
 10
1005.14
 20
271.444
 30
0.0
 11
1004.56
 21
270.346
 31
0.0
  0
LINE
  5
1D8
330
17
100
AcDbEntity
  8
0
100
AcDbLine
 10
1004.56
 20
270.346
 30
0.0
 11
1003.77
 21
269.384
 31
0.0
  0
LINE
  5
1D9
330
17
100
AcDbEntity
  8
0
100
AcDbLine
 10
1003.77
 20
269.384
 30
0.0
 11
1002.8
 21
268.594
 31
0.0
  0
LINE
  5
1DA
330
17
100
AcDbEntity
  8
0
100
AcDbLine
 10
1002.8
 20
268.594
 30
0.0
 11
1001.71
 21
268.007
 31
0.0
  0
LINE
  5
1DB
330
17
100
AcDbEntity
  8
0
100
AcDbLine
 10
1001.71
 20
268.007
 30
0.0
 11
1000.51
 21
267.646
 31
0.0
  0
LINE
  5
1DC
330
17
100
AcDbEntity
  8
0
100
AcDbLine
 10
1000.51
 20
267.646
 30
0.0
 11
999.275
 21
267.524
 31
0.0
  0
LINE
  5
1DD
330
17
100
AcDbEntity
  8
0
100
AcDbLine
 10
999.275
 20
267.524
 30
0.0
 11
998.037
 21
267.646
 31
0.0
  0
LINE
  5
1DE
330
17
100
AcDbEntity
  8
0
100
AcDbLine
 10
998.037
 20
267.646
 30
0.0
 11
996.845
 21
268.007
 31
0.0
  0
LINE
  5
1DF
330
17
100
AcDbEntity
  8
0
100
AcDbLine
 10
996.845
 20
268.007
 30
0.0
 11
995.748
 21
268.594
 31
0.0
  0
LINE
  5
1E0
330
17
100
AcDbEntity
  8
0
100
AcDbLine
 10
995.748
 20
268.594
 30
0.0
 11
994.785
 21
269.384
 31
0.0
  0
LINE
  5
1E1
330
17
100
AcDbEntity
  8
0
100
AcDbLine
 10
994.785
 20
269.384
 30
0.0
 11
993.996
 21
270.346
 31
0.0
  0
LINE
  5
1E2
330
17
100
AcDbEntity
  8
0
100
AcDbLine
 10
993.996
 20
270.346
 30
0.0
 11
993.409
 21
271.444
 31
0.0
  0
LINE
  5
1E3
330
17
100
AcDbEntity
  8
0
100
AcDbLine
 10
993.409
 20
271.444
 30
0.0
 11
993.048
 21
272.635
 31
0.0
  0
LINE
  5
1E4
330
17
100
AcDbEntity
  8
0
100
AcDbLine
 10
993.048
 20
272.635
 30
0.0
 11
992.926
 21
273.874
 31
0.0
  0
LINE
  5
1E5
330
17
100
AcDbEntity
  8
0
100
AcDbLine
 10
1370.15
 20
233.867
 30
0.0
 11
1370.27
 21
235.106
 31
0.0
  0
LINE
  5
1E6
330
17
100
AcDbEntity
  8
0
100
AcDbLine
 10
1370.27
 20
235.106
 30
0.0
 11
1370.63
 21
236.297
 31
0.0
  0
LINE
  5
1E7
330
17
100
AcDbEntity
  8
0
100
AcDbLine
 10
1370.63
 20
236.297
 30
0.0
 11
1371.22
 21
237.395
 31
0.0
  0
LINE
  5
1E8
330
17
100
AcDbEntity
  8
0
100
AcDbLine
 10
1371.22
 20
237.395
 30
0.0
 11
1372.01
 21
238.357
 31
0.0
  0
LINE
  5
1E9
330
17
100
AcDbEntity
  8
0
100
AcDbLine
 10
1372.01
 20
238.357
 30
0.0
 11
1372.97
 21
239.147
 31
0.0
  0
LINE
  5
1EA
330
17
100
AcDbEntity
  8
0
100
AcDbLine
 10
1372.97
 20
239.147
 30
0.0
 11
1374.07
 21
239.733
 31
0.0
  0
LINE
  5
1EB
330
17
100
AcDbEntity
  8
0
100
AcDbLine
 10
1374.07
 20
239.733
 30
0.0
 11
1375.26
 21
240.095
 31
0.0
  0
LINE
  5
1EC
330
17
100
AcDbEntity
  8
0
100
AcDbLine
 10
1375.26
 20
240.095
 30
0.0
 11
1376.5
 21
240.217
 31
0.0
  0
LINE
  5
1ED
330
17
100
AcDbEntity
  8
0
100
AcDbLine
 10
1376.5
 20
240.217
 30
0.0
 11
1377.74
 21
240.095
 31
0.0
  0
LINE
  5
1EE
330
17
100
AcDbEntity
  8
0
100
AcDbLine
 10
1377.74
 20
240.095
 30
0.0
 11
1378.93
 21
239.733
 31
0.0
  0
LINE
  5
1EF
330
17
100
AcDbEntity
  8
0
100
AcDbLine
 10
1378.93
 20
239.733
 30
0.0
 11
1380.02
 21
239.146
 31
0.0
  0
LINE
  5
1F0
330
17
100
AcDbEntity
  8
0
100
AcDbLine
 10
1380.02
 20
239.146
 30
0.0
 11
1380.99
 21
238.357
 31
0.0
  0
LINE
  5
1F1
330
17
100
AcDbEntity
  8
0
100
AcDbLine
 10
1380.99
 20
238.357
 30
0.0
 11
1381.78
 21
237.394
 31
0.0
  0
LINE
  5
1F2
330
17
100
AcDbEntity
  8
0
100
AcDbLine
 10
1381.78
 20
237.394
 30
0.0
 11
1382.36
 21
236.297
 31
0.0
  0
LINE
  5
1F3
330
17
100
AcDbEntity
  8
0
100
AcDbLine
 10
1382.36
 20
236.297
 30
0.0
 11
1382.72
 21
235.105
 31
0.0
  0
LINE
  5
1F4
330
17
100
AcDbEntity
  8
0
100
AcDbLine
 10
1382.72
 20
235.105
 30
0.0
 11
1382.85
 21
233.866
 31
0.0
  0
LINE
  5
1F5
330
17
100
AcDbEntity
  8
0
100
AcDbLine
 10
1382.85
 20
233.866
 30
0.0
 11
1382.72
 21
232.628
 31
0.0
  0
LINE
  5
1F6
330
17
100
AcDbEntity
  8
0
100
AcDbLine
 10
1382.72
 20
232.628
 30
0.0
 11
1382.36
 21
231.436
 31
0.0
  0
LINE
  5
1F7
330
17
100
AcDbEntity
  8
0
100
AcDbLine
 10
1382.36
 20
231.436
 30
0.0
 11
1381.78
 21
230.339
 31
0.0
  0
LINE
  5
1F8
330
17
100
AcDbEntity
  8
0
100
AcDbLine
 10
1381.78
 20
230.339
 30
0.0
 11
1380.99
 21
229.376
 31
0.0
  0
LINE
  5
1F9
330
17
100
AcDbEntity
  8
0
100
AcDbLine
 10
1380.99
 20
229.376
 30
0.0
 11
1380.02
 21
228.587
 31
0.0
  0
LINE
  5
1FA
330
17
100
AcDbEntity
  8
0
100
AcDbLine
 10
1380.02
 20
228.587
 30
0.0
 11
1378.93
 21
228.0
 31
0.0
  0
LINE
  5
1FB
330
17
100
AcDbEntity
  8
0
100
AcDbLine
 10
1378.93
 20
228.0
 30
0.0
 11
1377.74
 21
227.639
 31
0.0
  0
LINE
  5
1FC
330
17
100
AcDbEntity
  8
0
100
AcDbLine
 10
1377.74
 20
227.639
 30
0.0
 11
1376.5
 21
227.517
 31
0.0
  0
LINE
  5
1FD
330
17
100
AcDbEntity
  8
0
100
AcDbLine
 10
1376.5
 20
227.517
 30
0.0
 11
1375.26
 21
227.639
 31
0.0
  0
LINE
  5
1FE
330
17
100
AcDbEntity
  8
0
100
AcDbLine
 10
1375.26
 20
227.639
 30
0.0
 11
1374.07
 21
228.0
 31
0.0
  0
LINE
  5
1FF
330
17
100
AcDbEntity
  8
0
100
AcDbLine
 10
1374.07
 20
228.0
 30
0.0
 11
1372.97
 21
228.587
 31
0.0
  0
LINE
  5
200
330
17
100
AcDbEntity
  8
0
100
AcDbLine
 10
1372.97
 20
228.587
 30
0.0
 11
1372.01
 21
229.377
 31
0.0
  0
LINE
  5
201
330
17
100
AcDbEntity
  8
0
100
AcDbLine
 10
1372.01
 20
229.377
 30
0.0
 11
1371.22
 21
230.339
 31
0.0
  0
LINE
  5
202
330
17
100
AcDbEntity
  8
0
100
AcDbLine
 10
1371.22
 20
230.339
 30
0.0
 11
1370.63
 21
231.437
 31
0.0
  0
LINE
  5
203
330
17
100
AcDbEntity
  8
0
100
AcDbLine
 10
1370.63
 20
231.437
 30
0.0
 11
1370.27
 21
232.628
 31
0.0
  0
LINE
  5
204
330
17
100
AcDbEntity
  8
0
100
AcDbLine
 10
1370.27
 20
232.628
 30
0.0
 11
1370.15
 21
233.867
 31
0.0
  0
LINE
  5
205
330
17
100
AcDbEntity
  8
0
100
AcDbLine
 10
1370.15
 20
313.867
 30
0.0
 11
1370.27
 21
315.106
 31
0.0
  0
LINE
  5
206
330
17
100
AcDbEntity
  8
0
100
AcDbLine
 10
1370.27
 20
315.106
 30
0.0
 11
1370.63
 21
316.297
 31
0.0
  0
LINE
  5
207
330
17
100
AcDbEntity
  8
0
100
AcDbLine
 10
1370.63
 20
316.297
 30
0.0
 11
1371.22
 21
317.395
 31
0.0
  0
LINE
  5
208
330
17
100
AcDbEntity
  8
0
100
AcDbLine
 10
1371.22
 20
317.395
 30
0.0
 11
1372.01
 21
318.357
 31
0.0
  0
LINE
  5
209
330
17
100
AcDbEntity
  8
0
100
AcDbLine
 10
1372.01
 20
318.357
 30
0.0
 11
1372.97
 21
319.146
 31
0.0
  0
LINE
  5
20A
330
17
100
AcDbEntity
  8
0
100
AcDbLine
 10
1372.97
 20
319.146
 30
0.0
 11
1374.07
 21
319.733
 31
0.0
  0
LINE
  5
20B
330
17
100
AcDbEntity
  8
0
100
AcDbLine
 10
1374.07
 20
319.733
 30
0.0
 11
1375.26
 21
320.095
 31
0.0
  0
LINE
  5
20C
330
17
100
AcDbEntity
  8
0
100
AcDbLine
 10
1375.26
 20
320.095
 30
0.0
 11
1376.5
 21
320.217
 31
0.0
  0
LINE
  5
20D
330
17
100
AcDbEntity
  8
0
100
AcDbLine
 10
1376.5
 20
320.217
 30
0.0
 11
1377.74
 21
320.095
 31
0.0
  0
LINE
  5
20E
330
17
100
AcDbEntity
  8
0
100
AcDbLine
 10
1377.74
 20
320.095
 30
0.0
 11
1378.93
 21
319.733
 31
0.0
  0
LINE
  5
20F
330
17
100
AcDbEntity
  8
0
100
AcDbLine
 10
1378.93
 20
319.733
 30
0.0
 11
1380.03
 21
319.146
 31
0.0
  0
LINE
  5
210
330
17
100
AcDbEntity
  8
0
100
AcDbLine
 10
1380.03
 20
319.146
 30
0.0
 11
1380.99
 21
318.357
 31
0.0
  0
LINE
  5
211
330
17
100
AcDbEntity
  8
0
100
AcDbLine
 10
1380.99
 20
318.357
 30
0.0
 11
1381.78
 21
317.394
 31
0.0
  0
LINE
  5
212
330
17
100
AcDbEntity
  8
0
100
AcDbLine
 10
1381.78
 20
317.394
 30
0.0
 11
1382.36
 21
316.297
 31
0.0
  0
LINE
  5
213
330
17
100
AcDbEntity
  8
0
100
AcDbLine
 10
1382.36
 20
316.297
 30
0.0
 11
1382.73
 21
315.105
 31
0.0
  0
LINE
  5
214
330
17
100
AcDbEntity
  8
0
100
AcDbLine
 10
1382.73
 20
315.105
 30
0.0
 11
1382.85
 21
313.866
 31
0.0
  0
LINE
  5
215
330
17
100
AcDbEntity
  8
0
100
AcDbLine
 10
1382.85
 20
313.866
 30
0.0
 11
1382.73
 21
312.628
 31
0.0
  0
LINE
  5
216
330
17
100
AcDbEntity
  8
0
100
AcDbLine
 10
1382.73
 20
312.628
 30
0.0
 11
1382.36
 21
311.436
 31
0.0
  0
LINE
  5
217
330
17
100
AcDbEntity
  8
0
100
AcDbLine
 10
1382.36
 20
311.436
 30
0.0
 11
1381.78
 21
310.339
 31
0.0
  0
LINE
  5
218
330
17
100
AcDbEntity
  8
0
100
AcDbLine
 10
1381.78
 20
310.339
 30
0.0
 11
1380.99
 21
309.376
 31
0.0
  0
LINE
  5
219
330
17
100
AcDbEntity
  8
0
100
AcDbLine
 10
1380.99
 20
309.376
 30
0.0
 11
1380.03
 21
308.587
 31
0.0
  0
LINE
  5
21A
330
17
100
AcDbEntity
  8
0
100
AcDbLine
 10
1380.03
 20
308.587
 30
0.0
 11
1378.93
 21
308.0
 31
0.0
  0
LINE
  5
21B
330
17
100
AcDbEntity
  8
0
100
AcDbLine
 10
1378.93
 20
308.0
 30
0.0
 11
1377.74
 21
307.639
 31
0.0
  0
LINE
  5
21C
330
17
100
AcDbEntity
  8
0
100
AcDbLine
 10
1377.74
 20
307.639
 30
0.0
 11
1376.5
 21
307.517
 31
0.0
  0
LINE
  5
21D
330
17
100
AcDbEntity
  8
0
100
AcDbLine
 10
1376.5
 20
307.517
 30
0.0
 11
1375.26
 21
307.639
 31
0.0
  0
LINE
  5
21E
330
17
100
AcDbEntity
  8
0
100
AcDbLine
 10
1375.26
 20
307.639
 30
0.0
 11
1374.07
 21
308.0
 31
0.0
  0
LINE
  5
21F
330
17
100
AcDbEntity
  8
0
100
AcDbLine
 10
1374.07
 20
308.0
 30
0.0
 11
1372.97
 21
308.587
 31
0.0
  0
LINE
  5
220
330
17
100
AcDbEntity
  8
0
100
AcDbLine
 10
1372.97
 20
308.587
 30
0.0
 11
1372.01
 21
309.377
 31
0.0
  0
LINE
  5
221
330
17
100
AcDbEntity
  8
0
100
AcDbLine
 10
1372.01
 20
309.377
 30
0.0
 11
1371.22
 21
310.339
 31
0.0
  0
LINE
  5
222
330
17
100
AcDbEntity
  8
0
100
AcDbLine
 10
1371.22
 20
310.339
 30
0.0
 11
1370.63
 21
311.437
 31
0.0
  0
LINE
  5
223
330
17
100
AcDbEntity
  8
0
100
AcDbLine
 10
1370.63
 20
311.437
 30
0.0
 11
1370.27
 21
312.628
 31
0.0
  0
LINE
  5
224
330
17
100
AcDbEntity
  8
0
100
AcDbLine
 10
1370.27
 20
312.628
 30
0.0
 11
1370.15
 21
313.867
 31
0.0
  0
LINE
  5
225
330
17
100
AcDbEntity
  8
0
100
AcDbLine
 10
1470.15
 20
233.865
 30
0.0
 11
1470.27
 21
235.104
 31
0.0
  0
LINE
  5
226
330
17
100
AcDbEntity
  8
0
100
AcDbLine
 10
1470.27
 20
235.104
 30
0.0
 11
1470.63
 21
236.295
 31
0.0
  0
LINE
  5
227
330
17
100
AcDbEntity
  8
0
100
AcDbLine
 10
1470.63
 20
236.295
 30
0.0
 11
1471.22
 21
237.393
 31
0.0
  0
LINE
  5
228
330
17
100
AcDbEntity
  8
0
100
AcDbLine
 10
1471.22
 20
237.393
 30
0.0
 11
1472.01
 21
238.355
 31
0.0
  0
LINE
  5
229
330
17
100
AcDbEntity
  8
0
100
AcDbLine
 10
1472.01
 20
238.355
 30
0.0
 11
1472.97
 21
239.145
 31
0.0
  0
LINE
  5
22A
330
17
100
AcDbEntity
  8
0
100
AcDbLine
 10
1472.97
 20
239.145
 30
0.0
 11
1474.07
 21
239.731
 31
0.0
  0
LINE
  5
22B
330
17
100
AcDbEntity
  8
0
100
AcDbLine
 10
1474.07
 20
239.731
 30
0.0
 11
1475.26
 21
240.093
 31
0.0
  0
LINE
  5
22C
330
17
100
AcDbEntity
  8
0
100
AcDbLine
 10
1475.26
 20
240.093
 30
0.0
 11
1476.5
 21
240.215
 31
0.0
  0
LINE
  5
22D
330
17
100
AcDbEntity
  8
0
100
AcDbLine
 10
1476.5
 20
240.215
 30
0.0
 11
1477.74
 21
240.093
 31
0.0
  0
LINE
  5
22E
330
17
100
AcDbEntity
  8
0
100
AcDbLine
 10
1477.74
 20
240.093
 30
0.0
 11
1478.93
 21
239.731
 31
0.0
  0
LINE
  5
22F
330
17
100
AcDbEntity
  8
0
100
AcDbLine
 10
1478.93
 20
239.731
 30
0.0
 11
1480.02
 21
239.144
 31
0.0
  0
LINE
  5
230
330
17
100
AcDbEntity
  8
0
100
AcDbLine
 10
1480.02
 20
239.144
 30
0.0
 11
1480.99
 21
238.355
 31
0.0
  0
LINE
  5
231
330
17
100
AcDbEntity
  8
0
100
AcDbLine
 10
1480.99
 20
238.355
 30
0.0
 11
1481.78
 21
237.392
 31
0.0
  0
LINE
  5
232
330
17
100
AcDbEntity
  8
0
100
AcDbLine
 10
1481.78
 20
237.392
 30
0.0
 11
1482.36
 21
236.295
 31
0.0
  0
LINE
  5
233
330
17
100
AcDbEntity
  8
0
100
AcDbLine
 10
1482.36
 20
236.295
 30
0.0
 11
1482.72
 21
235.103
 31
0.0
  0
LINE
  5
234
330
17
100
AcDbEntity
  8
0
100
AcDbLine
 10
1482.72
 20
235.103
 30
0.0
 11
1482.85
 21
233.865
 31
0.0
  0
LINE
  5
235
330
17
100
AcDbEntity
  8
0
100
AcDbLine
 10
1482.85
 20
233.865
 30
0.0
 11
1482.72
 21
232.626
 31
0.0
  0
LINE
  5
236
330
17
100
AcDbEntity
  8
0
100
AcDbLine
 10
1482.72
 20
232.626
 30
0.0
 11
1482.36
 21
231.435
 31
0.0
  0
LINE
  5
237
330
17
100
AcDbEntity
  8
0
100
AcDbLine
 10
1482.36
 20
231.435
 30
0.0
 11
1481.78
 21
230.337
 31
0.0
  0
LINE
  5
238
330
17
100
AcDbEntity
  8
0
100
AcDbLine
 10
1481.78
 20
230.337
 30
0.0
 11
1480.99
 21
229.374
 31
0.0
  0
LINE
  5
239
330
17
100
AcDbEntity
  8
0
100
AcDbLine
 10
1480.99
 20
229.374
 30
0.0
 11
1480.02
 21
228.585
 31
0.0
  0
LINE
  5
23A
330
17
100
AcDbEntity
  8
0
100
AcDbLine
 10
1480.02
 20
228.585
 30
0.0
 11
1478.93
 21
227.998
 31
0.0
  0
LINE
  5
23B
330
17
100
AcDbEntity
  8
0
100
AcDbLine
 10
1478.93
 20
227.998
 30
0.0
 11
1477.74
 21
227.637
 31
0.0
  0
LINE
  5
23C
330
17
100
AcDbEntity
  8
0
100
AcDbLine
 10
1477.74
 20
227.637
 30
0.0
 11
1476.5
 21
227.515
 31
0.0
  0
LINE
  5
23D
330
17
100
AcDbEntity
  8
0
100
AcDbLine
 10
1476.5
 20
227.515
 30
0.0
 11
1475.26
 21
227.637
 31
0.0
  0
LINE
  5
23E
330
17
100
AcDbEntity
  8
0
100
AcDbLine
 10
1475.26
 20
227.637
 30
0.0
 11
1474.07
 21
227.998
 31
0.0
  0
LINE
  5
23F
330
17
100
AcDbEntity
  8
0
100
AcDbLine
 10
1474.07
 20
227.998
 30
0.0
 11
1472.97
 21
228.585
 31
0.0
  0
LINE
  5
240
330
17
100
AcDbEntity
  8
0
100
AcDbLine
 10
1472.97
 20
228.585
 30
0.0
 11
1472.01
 21
229.375
 31
0.0
  0
LINE
  5
241
330
17
100
AcDbEntity
  8
0
100
AcDbLine
 10
1472.01
 20
229.375
 30
0.0
 11
1471.22
 21
230.337
 31
0.0
  0
LINE
  5
242
330
17
100
AcDbEntity
  8
0
100
AcDbLine
 10
1471.22
 20
230.337
 30
0.0
 11
1470.63
 21
231.435
 31
0.0
  0
LINE
  5
243
330
17
100
AcDbEntity
  8
0
100
AcDbLine
 10
1470.63
 20
231.435
 30
0.0
 11
1470.27
 21
232.626
 31
0.0
  0
LINE
  5
244
330
17
100
AcDbEntity
  8
0
100
AcDbLine
 10
1470.27
 20
232.626
 30
0.0
 11
1470.15
 21
233.865
 31
0.0
  0
LINE
  5
245
330
17
100
AcDbEntity
  8
0
100
AcDbLine
 10
1470.15
 20
313.865
 30
0.0
 11
1470.27
 21
315.104
 31
0.0
  0
LINE
  5
246
330
17
100
AcDbEntity
  8
0
100
AcDbLine
 10
1470.27
 20
315.104
 30
0.0
 11
1470.63
 21
316.295
 31
0.0
  0
LINE
  5
247
330
17
100
AcDbEntity
  8
0
100
AcDbLine
 10
1470.63
 20
316.295
 30
0.0
 11
1471.22
 21
317.393
 31
0.0
  0
LINE
  5
248
330
17
100
AcDbEntity
  8
0
100
AcDbLine
 10
1471.22
 20
317.393
 30
0.0
 11
1472.01
 21
318.355
 31
0.0
  0
LINE
  5
249
330
17
100
AcDbEntity
  8
0
100
AcDbLine
 10
1472.01
 20
318.355
 30
0.0
 11
1472.97
 21
319.145
 31
0.0
  0
LINE
  5
24A
330
17
100
AcDbEntity
  8
0
100
AcDbLine
 10
1472.97
 20
319.145
 30
0.0
 11
1474.07
 21
319.731
 31
0.0
  0
LINE
  5
24B
330
17
100
AcDbEntity
  8
0
100
AcDbLine
 10
1474.07
 20
319.731
 30
0.0
 11
1475.26
 21
320.093
 31
0.0
  0
LINE
  5
24C
330
17
100
AcDbEntity
  8
0
100
AcDbLine
 10
1475.26
 20
320.093
 30
0.0
 11
1476.5
 21
320.215
 31
0.0
  0
LINE
  5
24D
330
17
100
AcDbEntity
  8
0
100
AcDbLine
 10
1476.5
 20
320.215
 30
0.0
 11
1477.74
 21
320.093
 31
0.0
  0
LINE
  5
24E
330
17
100
AcDbEntity
  8
0
100
AcDbLine
 10
1477.74
 20
320.093
 30
0.0
 11
1478.93
 21
319.731
 31
0.0
  0
LINE
  5
24F
330
17
100
AcDbEntity
  8
0
100
AcDbLine
 10
1478.93
 20
319.731
 30
0.0
 11
1480.03
 21
319.144
 31
0.0
  0
LINE
  5
250
330
17
100
AcDbEntity
  8
0
100
AcDbLine
 10
1480.03
 20
319.144
 30
0.0
 11
1480.99
 21
318.355
 31
0.0
  0
LINE
  5
251
330
17
100
AcDbEntity
  8
0
100
AcDbLine
 10
1480.99
 20
318.355
 30
0.0
 11
1481.78
 21
317.392
 31
0.0
  0
LINE
  5
252
330
17
100
AcDbEntity
  8
0
100
AcDbLine
 10
1481.78
 20
317.392
 30
0.0
 11
1482.36
 21
316.295
 31
0.0
  0
LINE
  5
253
330
17
100
AcDbEntity
  8
0
100
AcDbLine
 10
1482.36
 20
316.295
 30
0.0
 11
1482.73
 21
315.103
 31
0.0
  0
LINE
  5
254
330
17
100
AcDbEntity
  8
0
100
AcDbLine
 10
1482.73
 20
315.103
 30
0.0
 11
1482.85
 21
313.865
 31
0.0
  0
LINE
  5
255
330
17
100
AcDbEntity
  8
0
100
AcDbLine
 10
1482.85
 20
313.865
 30
0.0
 11
1482.73
 21
312.626
 31
0.0
  0
LINE
  5
256
330
17
100
AcDbEntity
  8
0
100
AcDbLine
 10
1482.73
 20
312.626
 30
0.0
 11
1482.36
 21
311.435
 31
0.0
  0
LINE
  5
257
330
17
100
AcDbEntity
  8
0
100
AcDbLine
 10
1482.36
 20
311.435
 30
0.0
 11
1481.78
 21
310.337
 31
0.0
  0
LINE
  5
258
330
17
100
AcDbEntity
  8
0
100
AcDbLine
 10
1481.78
 20
310.337
 30
0.0
 11
1480.99
 21
309.374
 31
0.0
  0
LINE
  5
259
330
17
100
AcDbEntity
  8
0
100
AcDbLine
 10
1480.99
 20
309.374
 30
0.0
 11
1480.03
 21
308.585
 31
0.0
  0
LINE
  5
25A
330
17
100
AcDbEntity
  8
0
100
AcDbLine
 10
1480.03
 20
308.585
 30
0.0
 11
1478.93
 21
307.998
 31
0.0
  0
LINE
  5
25B
330
17
100
AcDbEntity
  8
0
100
AcDbLine
 10
1478.93
 20
307.998
 30
0.0
 11
1477.74
 21
307.637
 31
0.0
  0
LINE
  5
25C
330
17
100
AcDbEntity
  8
0
100
AcDbLine
 10
1477.74
 20
307.637
 30
0.0
 11
1476.5
 21
307.515
 31
0.0
  0
LINE
  5
25D
330
17
100
AcDbEntity
  8
0
100
AcDbLine
 10
1476.5
 20
307.515
 30
0.0
 11
1475.26
 21
307.637
 31
0.0
  0
LINE
  5
25E
330
17
100
AcDbEntity
  8
0
100
AcDbLine
 10
1475.26
 20
307.637
 30
0.0
 11
1474.07
 21
307.998
 31
0.0
  0
LINE
  5
25F
330
17
100
AcDbEntity
  8
0
100
AcDbLine
 10
1474.07
 20
307.998
 30
0.0
 11
1472.97
 21
308.585
 31
0.0
  0
LINE
  5
260
330
17
100
AcDbEntity
  8
0
100
AcDbLine
 10
1472.97
 20
308.585
 30
0.0
 11
1472.01
 21
309.375
 31
0.0
  0
LINE
  5
261
330
17
100
AcDbEntity
  8
0
100
AcDbLine
 10
1472.01
 20
309.375
 30
0.0
 11
1471.22
 21
310.337
 31
0.0
  0
LINE
  5
262
330
17
100
AcDbEntity
  8
0
100
AcDbLine
 10
1471.22
 20
310.337
 30
0.0
 11
1470.63
 21
311.435
 31
0.0
  0
LINE
  5
263
330
17
100
AcDbEntity
  8
0
100
AcDbLine
 10
1470.63
 20
311.435
 30
0.0
 11
1470.27
 21
312.626
 31
0.0
  0
LINE
  5
264
330
17
100
AcDbEntity
  8
0
100
AcDbLine
 10
1470.27
 20
312.626
 30
0.0
 11
1470.15
 21
313.865
 31
0.0
  0
LINE
  5
265
330
17
100
AcDbEntity
  8
0
100
AcDbLine
 10
1753.96
 20
26.4451
 30
0.0
 11
1754.42
 21
28.892
 31
0.0
  0
LINE
  5
266
330
17
100
AcDbEntity
  8
0
100
AcDbLine
 10
1754.42
 20
28.892
 30
0.0
 11
1755.34
 21
31.2024
 31
0.0
  0
LINE
  5
267
330
17
100
AcDbEntity
  8
0
100
AcDbLine
 10
1755.34
 20
31.2024
 30
0.0
 11
1756.7
 21
33.2874
 31
0.0
  0
LINE
  5
268
330
17
100
AcDbEntity
  8
0
100
AcDbLine
 10
1756.7
 20
33.2874
 30
0.0
 11
1758.45
 21
35.0669
 31
0.0
  0
LINE
  5
269
330
17
100
AcDbEntity
  8
0
100
AcDbLine
 10
1758.45
 20
35.0669
 30
0.0
 11
1760.5
 21
36.4725
 31
0.0
  0
LINE
  5
26A
330
17
100
AcDbEntity
  8
0
100
AcDbLine
 10
1760.5
 20
36.4725
 30
0.0
 11
1762.79
 21
37.4502
 31
0.0
  0
LINE
  5
26B
330
17
100
AcDbEntity
  8
0
100
AcDbLine
 10
1762.79
 20
37.4502
 30
0.0
 11
1765.23
 21
37.9625
 31
0.0
  0
LINE
  5
26C
330
17
100
AcDbEntity
  8
0
100
AcDbLine
 10
1765.23
 20
37.9625
 30
0.0
 11
1767.72
 21
37.9896
 31
0.0
  0
LINE
  5
26D
330
17
100
AcDbEntity
  8
0
100
AcDbLine
 10
1767.72
 20
37.9896
 30
0.0
 11
1770.16
 21
37.5305
 31
0.0
  0
LINE
  5
26E
330
17
100
AcDbEntity
  8
0
100
AcDbLine
 10
1770.16
 20
37.5305
 30
0.0
 11
1772.47
 21
36.6029
 31
0.0
  0
LINE
  5
26F
330
17
100
AcDbEntity
  8
0
100
AcDbLine
 10
1772.47
 20
36.6029
 30
0.0
 11
1774.56
 21
35.2423
 31
0.0
  0
LINE
  5
270
330
17
100
AcDbEntity
  8
0
100
AcDbLine
 10
1774.56
 20
35.2423
 30
0.0
 11
1776.34
 21
33.5012
 31
0.0
  0
LINE
  5
271
330
17
100
AcDbEntity
  8
0
100
AcDbLine
 10
1776.34
 20
33.5012
 30
0.0
 11
1777.74
 21
31.4463
 31
0.0
  0
LINE
  5
272
330
17
100
AcDbEntity
  8
0
100
AcDbLine
 10
1777.74
 20
31.4463
 30
0.0
 11
1778.72
 21
29.1567
 31
0.0
  0
LINE
  5
273
330
17
100
AcDbEntity
  8
0
100
AcDbLine
 10
1778.72
 20
29.1567
 30
0.0
 11
1779.23
 21
26.7203
 31
0.0
  0
LINE
  5
274
330
17
100
AcDbEntity
  8
0
100
AcDbLine
 10
1779.23
 20
26.7203
 30
0.0
 11
1779.26
 21
24.2308
 31
0.0
  0
LINE
  5
275
330
17
100
AcDbEntity
  8
0
100
AcDbLine
 10
1779.26
 20
24.2308
 30
0.0
 11
1778.8
 21
21.7839
 31
0.0
  0
LINE
  5
276
330
17
100
AcDbEntity
  8
0
100
AcDbLine
 10
1778.8
 20
21.7839
 30
0.0
 11
1777.87
 21
19.4735
 31
0.0
  0
LINE
  5
277
330
17
100
AcDbEntity
  8
0
100
AcDbLine
 10
1777.87
 20
19.4735
 30
0.0
 11
1776.51
 21
17.3885
 31
0.0
  0
LINE
  5
278
330
17
100
AcDbEntity
  8
0
100
AcDbLine
 10
1776.51
 20
17.3885
 30
0.0
 11
1774.77
 21
15.609
 31
0.0
  0
LINE
  5
279
330
17
100
AcDbEntity
  8
0
100
AcDbLine
 10
1774.77
 20
15.609
 30
0.0
 11
1772.72
 21
14.2034
 31
0.0
  0
LINE
  5
27A
330
17
100
AcDbEntity
  8
0
100
AcDbLine
 10
1772.72
 20
14.2034
 30
0.0
 11
1770.43
 21
13.2257
 31
0.0
  0
LINE
  5
27B
330
17
100
AcDbEntity
  8
0
100
AcDbLine
 10
1770.43
 20
13.2257
 30
0.0
 11
1767.99
 21
12.7134
 31
0.0
  0
LINE
  5
27C
330
17
100
AcDbEntity
  8
0
100
AcDbLine
 10
1767.99
 20
12.7134
 30
0.0
 11
1765.5
 21
12.6863
 31
0.0
  0
LINE
  5
27D
330
17
100
AcDbEntity
  8
0
100
AcDbLine
 10
1765.5
 20
12.6863
 30
0.0
 11
1763.05
 21
13.1454
 31
0.0
  0
LINE
  5
27E
330
17
100
AcDbEntity
  8
0
100
AcDbLine
 10
1763.05
 20
13.1454
 30
0.0
 11
1760.74
 21
14.073
 31
0.0
  0
LINE
  5
27F
330
17
100
AcDbEntity
  8
0
100
AcDbLine
 10
1760.74
 20
14.073
 30
0.0
 11
1758.66
 21
15.4336
 31
0.0
  0
LINE
  5
280
330
17
100
AcDbEntity
  8
0
100
AcDbLine
 10
1758.66
 20
15.4336
 30
0.0
 11
1756.88
 21
17.1747
 31
0.0
  0
LINE
  5
281
330
17
100
AcDbEntity
  8
0
100
AcDbLine
 10
1756.88
 20
17.1747
 30
0.0
 11
1755.47
 21
19.2296
 31
0.0
  0
LINE
  5
282
330
17
100
AcDbEntity
  8
0
100
AcDbLine
 10
1755.47
 20
19.2296
 30
0.0
 11
1754.5
 21
21.5192
 31
0.0
  0
LINE
  5
283
330
17
100
AcDbEntity
  8
0
100
AcDbLine
 10
1754.5
 20
21.5192
 30
0.0
 11
1753.98
 21
23.9556
 31
0.0
  0
LINE
  5
284
330
17
100
AcDbEntity
  8
0
100
AcDbLine
 10
1753.98
 20
23.9556
 30
0.0
 11
1753.96
 21
26.4451
 31
0.0
  0
ENDSEC
  0
SECTION
  2
OBJECTS
  0
DICTIONARY
  5
A
330
0
100
AcDbDictionary
281
1
  3
ACAD_COLOR
350
B
  3
ACAD_GROUP
350
C
  3
ACAD_LAYOUT
350
D
  3
ACAD_MATERIAL
350
E
  3
ACAD_MLEADERSTYLE
350
F
  3
ACAD_MLINESTYLE
350
10
  3
ACAD_PLOTSETTINGS
350
11
  3
ACAD_PLOTSTYLENAME
350
12
  3
ACAD_SCALELIST
350
14
  3
ACAD_TABLESTYLE
350
15
  3
ACAD_VISUALSTYLE
350
16
  3
EZDXF_META
350
2D
  0
DICTIONARY
  5
B
330
A
100
AcDbDictionary
281
1
  0
DICTIONARY
  5
C
330
A
100
AcDbDictionary
281
1
  0
DICTIONARY
  5
D
330
A
100
AcDbDictionary
281
1
  3
Model
350
1A
  3
Layout1
350
1E
  0
DICTIONARY
  5
E
330
A
100
AcDbDictionary
281
1
  3
ByBlock
350
1F
  3
ByLayer
350
20
  3
Global
350
21
  0
DICTIONARY
  5
F
330
A
100
AcDbDictionary
281
1
  3
Standard
350
2C
  0
DICTIONARY
  5
10
330
A
100
AcDbDictionary
281
1
  3
Standard
350
22
  0
DICTIONARY
  5
11
330
A
100
AcDbDictionary
281
1
  0
ACDBDICTIONARYWDFLT
  5
12
330
A
100
AcDbDictionary
281
1
  3
Normal
350
13
100
AcDbDictionaryWithDefault
340
13
  0
ACDBPLACEHOLDER
  5
13
330
12
  0
DICTIONARY
  5
14
330
A
100
AcDbDictionary
281
1
  0
DICTIONARY
  5
15
330
A
100
AcDbDictionary
281
1
  0
DICTIONARY
  5
16
330
A
100
AcDbDictionary
281
1
  0
LAYOUT
  5
1A
330
D
100
AcDbPlotSettings
  1

  4
A3
  6

 40
7.5
 41
20.0
 42
7.5
 43
20.0
 44
420.0
 45
297.0
 46
0.0
 47
0.0
 48
0.0
 49
0.0
140
0.0
141
0.0
142
1.0
143
1.0
 70
1024
 72
1
 73
0
 74
5
  7

 75
16
 76
0
 77
2
 78
300
147
1.0
148
0.0
149
0.0
100
AcDbLayout
  1
Model
 70
1
 71
0
 10
0.0
 20
0.0
 11
420.0
 21
297.0
 12
0.0
 22
0.0
 32
0.0
 14
1e+20
 24
1e+20
 34
1e+20
 15
-1e+20
 25
-1e+20
 35
-1e+20
146
0.0
 13
0.0
 23
0.0
 33
0.0
 16
1.0
 26
0.0
 36
0.0
 17
0.0
 27
1.0
 37
0.0
 76
1
330
17
  0
LAYOUT
  5
1E
330
D
100
AcDbPlotSettings
  1

  4
A3
  6

 40
7.5
 41
20.0
 42
7.5
 43
20.0
 44
420.0
 45
297.0
 46
0.0
 47
0.0
 48
0.0
 49
0.0
140
0.0
141
0.0
142
1.0
143
1.0
 70
0
 72
1
 73
0
 74
5
  7

 75
16
 76
0
 77
2
 78
300
147
1.0
148
0.0
149
0.0
100
AcDbLayout
  1
Layout1
 70
1
 71
1
 10
0.0
 20
0.0
 11
420.0
 21
297.0
 12
0.0
 22
0.0
 32
0.0
 14
1e+20
 24
1e+20
 34
1e+20
 15
-1e+20
 25
-1e+20
 35
-1e+20
146
0.0
 13
0.0
 23
0.0
 33
0.0
 16
1.0
 26
0.0
 36
0.0
 17
0.0
 27
1.0
 37
0.0
 76
1
330
1B
  0
MATERIAL
  5
1F
102
{ACAD_REACTORS
330
E
102
}
330
E
100
AcDbMaterial
  1
ByBlock
  2

 70
0
 40
1.0
 71
1
 41
1.0
 91
-1023410177
 42
1.0
 72
1
  3

 73
1
 74
1
 75
1
 44
0.5
 73
0
 45
1.0
 46
1.0
 77
1
  4

 78
1
 79
1
170
1
 48
1.0
171
1
  6

172
1
173
1
174
1
140
1.0
141
1.0
175
1
  7

176
1
177
1
178
1
143
1.0
179
1
  8

270
1
271
1
272
1
145
1.0
146
1.0
273
1
  9

274
1
275
1
276
1
 42
1.0
 72
1
  3

 73
1
 74
1
 75
1
 94
63
  0
MATERIAL
  5
20
102
{ACAD_REACTORS
330
E
102
}
330
E
100
AcDbMaterial
  1
ByLayer
  2

 70
0
 40
1.0
 71
1
 41
1.0
 91
-1023410177
 42
1.0
 72
1
  3

 73
1
 74
1
 75
1
 44
0.5
 73
0
 45
1.0
 46
1.0
 77
1
  4

 78
1
 79
1
170
1
 48
1.0
171
1
  6

172
1
173
1
174
1
140
1.0
141
1.0
175
1
  7

176
1
177
1
178
1
143
1.0
179
1
  8

270
1
271
1
272
1
145
1.0
146
1.0
273
1
  9

274
1
275
1
276
1
 42
1.0
 72
1
  3

 73
1
 74
1
 75
1
 94
63
  0
MATERIAL
  5
21
102
{ACAD_REACTORS
330
E
102
}
330
E
100
AcDbMaterial
  1
Global
  2

 70
0
 40
1.0
 71
1
 41
1.0
 91
-1023410177
 42
1.0
 72
1
  3

 73
1
 74
1
 75
1
 44
0.5
 73
0
 45
1.0
 46
1.0
 77
1
  4

 78
1
 79
1
170
1
 48
1.0
171
1
  6

172
1
173
1
174
1
140
1.0
141
1.0
175
1
  7

176
1
177
1
178
1
143
1.0
179
1
  8

270
1
271
1
272
1
145
1.0
146
1.0
273
1
  9

274
1
275
1
276
1
 42
1.0
 72
1
  3

 73
1
 74
1
 75
1
 94
63
  0
MLINESTYLE
  5
22
102
{ACAD_REACTORS
330
10
102
}
330
10
100
AcDbMlineStyle
  2
Standard
 70
0
  3

 62
256
 51
90.0
 52
90.0
 71
2
 49
0.5
 62
256
  6
BYLAYER
 49
-0.5
 62
256
  6
BYLAYER
  0
MLEADERSTYLE
  5
2C
102
{ACAD_REACTORS
330
F
102
}
330
F
100
AcDbMLeaderStyle
179
2
170
2
171
1
172
0
 90
2
 40
0.0
 41
0.0
173
1
 91
-1056964608
 92
-2
290
1
 42
2.0
291
1
 43
8.0
  3
Standard
 44
4.0
300

342
29
174
1
175
1
176
0
178
1
 93
-1056964608
 45
4.0
292
0
297
0
 46
4.0
 94
-1056964608
 47
1.0
 49
1.0
140
1.0
294
1
141
0.0
177
0
142
1.0
295
0
296
0
143
3.75
271
0
272
9
273
9
  0
DICTIONARY
  5
2D
330
A
100
AcDbDictionary
280
1
281
1
  3
CREATED_BY_EZDXF
350
2E
  3
WRITTEN_BY_EZDXF
350
287
  0
DICTIONARYVAR
  5
2E
330
2D
100
DictionaryVariables
280
0
  1
0.0 @ 2000-01-01T00:00:00.000000+00:00
  0
DICTIONARYVAR
  5
287
330
2D
100
DictionaryVariables
280
0
  1
0.0 @ 2000-01-01T00:00:00.000000+00:00
  0
ENDSEC
  0
EOF
