  0
SECTION
  2
HEADER
  9
$ACADVER
  1
AC1009
  9
$INSUNITS
 70
4
  9
$MEASUREMENT
 70
1
  0
ENDSEC
  0
SECTION
  2
BLOCKS
  0
ENDSEC
  0
SECTION
  2
ENTITIES
  0
LINE
  8
0
 10
3.26294e-05
 20
242.143
 11
1.97242
 21
237.973
  0
LINE
  8
0
 10
1.97242
 20
237.973
 11
5.81671
 21
231.559
  0
LINE
  8
0
 10
5.81671
 20
231.559
 11
10.2712
 21
225.552
  0
LINE
  8
0
 10
10.2712
 20
225.552
 11
15.2929
 21
220.011
  0
LINE
  8
0
 10
15.2929
 20
220.011
 11
20.8336
 21
214.989
  0
LINE
  8
0
 10
20.8336
 20
214.989
 11
26.8398
 21
210.535
  0
LINE
  8
0
 10
26.8398
 20
210.535
 11
33.2538
 21
206.69
  0
LINE
  8
0
 10
33.2538
 20
206.69
 11
40.0137
 21
203.493
  0
LINE
  8
0
 10
40.0137
 20
203.493
 11
47.0544
 21
200.974
  0
LINE
  8
0
 10
47.0544
 20
200.974
 11
54.3082
 21
199.156
  0
LINE
  8
0
 10
54.3082
 20
199.156
 11
61.7051
 21
198.059
  0
LINE
  8
0
 10
61.7051
 20
198.059
 11
69.174
 21
197.692
  0
LINE
  8
0
 10
69.174
 20
197.692
 11
821.474
 21
197.677
  0
LINE
  8
0
 10
821.474
 20
197.677
 11
867.446
 21
136.383
  0
LINE
  8
0
 10
867.446
 20
136.383
 11
870.732
 21
132.636
  0
LINE
  8
0
 10
870.732
 20
132.636
 11
874.479
 21
129.35
  0
LINE
  8
0
 10
874.479
 20
129.35
 11
878.623
 21
126.581
  0
LINE
  8
0
 10
878.623
 20
126.581
 11
883.092
 21
124.376
  0
LINE
  8
0
 10
883.092
 20
124.376
 11
887.812
 21
122.774
  0
LINE
  8
0
 10
887.812
 20
122.774
 11
892.7
 21
121.802
  0
LINE
  8
0
 10
892.7
 20
121.802
 11
897.673
 21
121.476
  0
LINE
  8
0
 10
897.673
 20
121.476
 11
902.646
 21
121.802
  0
LINE
  8
0
 10
902.646
 20
121.802
 11
907.534
 21
122.774
  0
LINE
  8
0
 10
907.534
 20
122.774
 11
912.253
 21
124.376
  0
LINE
  8
0
 10
912.253
 20
124.376
 11
916.723
 21
126.58
  0
LINE
  8
0
 10
916.723
 20
126.58
 11
920.867
 21
129.349
  0
LINE
  8
0
 10
920.867
 20
129.349
 11
924.614
 21
132.635
  0
LINE
  8
0
 10
924.614
 20
132.635
 11
927.9
 21
136.381
  0
LINE
  8
0
 10
927.9
 20
136.381
 11
973.874
 21
197.674
  0
LINE
  8
0
 10
973.874
 20
197.674
 11
1456.23
 21
197.665
  0
LINE
  8
0
 10
1456.23
 20
197.665
 11
1569.95
 21
62.1382
  0
LINE
  8
0
 10
1569.95
 20
62.1382
 11
1757.92
 21
1.46993
  0
LINE
  8
0
 10
1757.92
 20
1.46993
 11
1763.07
 21
0.185209
  0
LINE
  8
0
 10
1763.07
 20
0.185209
 11
1768.38
 21
-0.000211023
  0
LINE
  8
0
 10
1768.38
 20
-0.000211023
 11
1773.61
 21
0.921767
  0
LINE
  8
0
 10
1773.61
 20
0.921767
 11
1778.53
 21
2.91085
  0
LINE
  8
0
 10
1778.53
 20
2.91085
 11
1782.93
 21
5.8801
  0
LINE
  8
0
 10
1782.93
 20
5.8801
 11
1786.62
 21
9.69976
  0
LINE
  8
0
 10
1786.62
 20
9.69976
 11
1789.44
 21
14.2029
  0
LINE
  8
0
 10
1789.44
 20
14.2029
 11
1791.25
 21
19.1927
  0
LINE
  8
0
 10
1791.25
 20
19.1927
 11
1791.99
 21
24.451
  0
LINE
  8
0
 10
1791.99
 20
24.451
 11
1791.62
 21
29.7481
  0
LINE
  8
0
 10
1791.62
 20
29.7481
 11
1790.16
 21
34.8525
  0
LINE
  8
0
 10
1790.16
 20
34.8525
 11
1787.67
 21
39.541
  0
LINE
  8
0
 10
1787.67
 20
39.541
 11
1686.69
 21
160.097
  0
LINE
  8
0
 10
1686.69
 20
160.097
 11
1527.3
 21
350.064
  0
LINE
  8
0
 10
1527.3
 20
350.064
 11
1527.3
 21
350.064
  0
LINE
  8
0
 10
1527.3
 20
350.064
 11
69.177
 21
350.092
  0
LINE
  8
0
 10
69.177
 20
350.092
 11
61.7081
 21
349.725
  0
LINE
  8
0
 10
61.7081
 20
349.725
 11
54.3111
 21
348.628
  0
LINE
  8
0
 10
54.3111
 20
348.628
 11
47.0572
 21
346.811
  0
LINE
  8
0
 10
47.0572
 20
346.811
 11
40.0164
 21
344.292
  0
LINE
  8
0
 10
40.0164
 20
344.292
 11
33.2564
 21
341.095
  0
LINE
  8
0
 10
33.2564
 20
341.095
 11
26.8423
 21
337.251
  0
LINE
  8
0
 10
26.8423
 20
337.251
 11
20.8359
 21
332.796
  0
LINE
  8
0
 10
20.8359
 20
332.796
 11
15.295
 21
327.775
  0
LINE
  8
0
 10
15.295
 20
327.775
 11
10.2731
 21
322.234
  0
LINE
  8
0
 10
10.2731
 20
322.234
 11
5.81835
 21
316.228
  0
LINE
  8
0
 10
5.81835
 20
316.228
 11
1.97381
 21
309.814
  0
LINE
  8
0
 10
1.97381
 20
309.814
 11
0.00126425
 21
305.643
  0
LINE
  8
0
 10
0.00126425
 20
305.643
 11
69.1761
 21
305.642
  0
LINE
  8
0
 10
69.1761
 20
305.642
 11
72.2882
 21
305.489
  0
LINE
  8
0
 10
72.2882
 20
305.489
 11
75.3702
 21
305.032
  0
LINE
  8
0
 10
75.3702
 20
305.032
 11
78.3926
 21
304.275
  0
LINE
  8
0
 10
78.3926
 20
304.275
 11
81.3263
 21
303.225
  0
LINE
  8
0
 10
81.3263
 20
303.225
 11
84.1429
 21
301.893
  0
LINE
  8
0
 10
84.1429
 20
301.893
 11
86.8154
 21
300.291
  0
LINE
  8
0
 10
86.8154
 20
300.291
 11
89.318
 21
298.435
  0
LINE
  8
0
 10
89.318
 20
298.435
 11
91.6266
 21
296.342
  0
LINE
  8
0
 10
91.6266
 20
296.342
 11
93.719
 21
294.033
  0
LINE
  8
0
 10
93.719
 20
294.033
 11
95.575
 21
291.531
  0
LINE
  8
0
 10
95.575
 20
291.531
 11
97.1768
 21
288.858
  0
LINE
  8
0
 10
97.1768
 20
288.858
 11
98.5089
 21
286.042
  0
LINE
  8
0
 10
98.5089
 20
286.042
 11
99.5585
 21
283.108
  0
LINE
  8
0
 10
99.5585
 20
283.108
 11
100.316
 21
280.085
  0
LINE
  8
0
 10
100.316
 20
280.085
 11
100.773
 21
277.003
  0
LINE
  8
0
 10
100.773
 20
277.003
 11
100.926
 21
273.891
  0
LINE
  8
0
 10
100.926
 20
273.891
 11
100.773
 21
270.779
  0
LINE
  8
0
 10
100.773
 20
270.779
 11
100.315
 21
267.697
  0
LINE
  8
0
 10
100.315
 20
267.697
 11
99.5582
 21
264.675
  0
LINE
  8
0
 10
99.5582
 20
264.675
 11
98.5084
 21
261.741
  0
LINE
  8
0
 10
98.5084
 20
261.741
 11
97.1762
 21
258.925
  0
LINE
  8
0
 10
97.1762
 20
258.925
 11
95.5743
 21
256.252
  0
LINE
  8
0
 10
95.5743
 20
256.252
 11
93.7182
 21
253.749
  0
LINE
  8
0
 10
93.7182
 20
253.749
 11
91.6257
 21
251.441
  0
LINE
  8
0
 10
91.6257
 20
251.441
 11
89.317
 21
249.348
  0
LINE
  8
0
 10
89.317
 20
249.348
 11
86.8143
 21
247.492
  0
LINE
  8
0
 10
86.8143
 20
247.492
 11
84.1418
 21
245.891
  0
LINE
  8
0
 10
84.1418
 20
245.891
 11
81.3251
 21
244.559
  0
LINE
  8
0
 10
81.3251
 20
244.559
 11
78.3915
 21
243.509
  0
LINE
  8
0
 10
78.3915
 20
243.509
 11
75.369
 21
242.752
  0
LINE
  8
0
 10
75.369
 20
242.752
 11
72.2869
 21
242.295
  0
LINE
  8
0
 10
72.2869
 20
242.295
 11
69.1749
 21
242.142
  0
LINE
  8
0
 10
69.1749
 20
242.142
 11
3.26294e-05
 21
242.143
  0
LINE
  8
0
 10
37.469
 20
222.675
 11
37.6854
 21
224.319
  0
LINE
  8
0
 10
37.6854
 20
224.319
 11
38.3198
 21
225.85
  0
LINE
  8
0
 10
38.3198
 20
225.85
 11
39.329
 21
227.165
  0
LINE
  8
0
 10
39.329
 20
227.165
 11
40.6441
 21
228.174
  0
LINE
  8
0
 10
40.6441
 20
228.174
 11
42.1756
 21
228.809
  0
LINE
  8
0
 10
42.1756
 20
228.809
 11
43.8191
 21
229.025
  0
LINE
  8
0
 10
43.8191
 20
229.025
 11
45.4626
 21
228.809
  0
LINE
  8
0
 10
45.4626
 20
228.809
 11
46.9941
 21
228.174
  0
LINE
  8
0
 10
46.9941
 20
228.174
 11
48.3092
 21
227.165
  0
LINE
  8
0
 10
48.3092
 20
227.165
 11
49.3183
 21
225.85
  0
LINE
  8
0
 10
49.3183
 20
225.85
 11
49.9527
 21
224.318
  0
LINE
  8
0
 10
49.9527
 20
224.318
 11
50.169
 21
222.675
  0
LINE
  8
0
 10
50.169
 20
222.675
 11
49.9526
 21
221.031
  0
LINE
  8
0
 10
49.9526
 20
221.031
 11
49.3182
 21
219.5
  0
LINE
  8
0
 10
49.3182
 20
219.5
 11
48.3091
 21
218.185
  0
LINE
  8
0
 10
48.3091
 20
218.185
 11
46.9939
 21
217.176
  0
LINE
  8
0
 10
46.9939
 20
217.176
 11
45.4624
 21
216.541
  0
LINE
  8
0
 10
45.4624
 20
216.541
 11
43.8189
 21
216.325
  0
LINE
  8
0
 10
43.8189
 20
216.325
 11
42.1754
 21
216.541
  0
LINE
  8
0
 10
42.1754
 20
216.541
 11
40.6439
 21
217.176
  0
LINE
  8
0
 10
40.6439
 20
217.176
 11
39.3288
 21
218.185
  0
LINE
  8
0
 10
39.3288
 20
218.185
 11
38.3197
 21
219.5
  0
LINE
  8
0
 10
38.3197
 20
219.5
 11
37.6853
 21
221.032
  0
LINE
  8
0
 10
37.6853
 20
221.032
 11
37.469
 21
222.675
  0
LINE
  8
0
 10
37.471
 20
325.11
 11
37.6874
 21
326.753
  0
LINE
  8
0
 10
37.6874
 20
326.753
 11
38.3218
 21
328.285
  0
LINE
  8
0
 10
38.3218
 20
328.285
 11
39.331
 21
329.6
  0
LINE
  8
0
 10
39.331
 20
329.6
 11
40.6461
 21
330.609
  0
LINE
  8
0
 10
40.6461
 20
330.609
 11
42.1776
 21
331.243
  0
LINE
  8
0
 10
42.1776
 20
331.243
 11
43.8211
 21
331.46
  0
LINE
  8
0
 10
43.8211
 20
331.46
 11
45.4646
 21
331.243
  0
LINE
  8
0
 10
45.4646
 20
331.243
 11
46.9961
 21
330.609
  0
LINE
  8
0
 10
46.9961
 20
330.609
 11
48.3112
 21
329.6
  0
LINE
  8
0
 10
48.3112
 20
329.6
 11
49.3203
 21
328.285
  0
LINE
  8
0
 10
49.3203
 20
328.285
 11
49.9547
 21
326.753
  0
LINE
  8
0
 10
49.9547
 20
326.753
 11
50.171
 21
325.11
  0
LINE
  8
0
 10
50.171
 20
325.11
 11
49.9546
 21
323.466
  0
LINE
  8
0
 10
49.9546
 20
323.466
 11
49.3202
 21
321.935
  0
LINE
  8
0
 10
49.3202
 20
321.935
 11
48.311
 21
320.62
  0
LINE
  8
0
 10
48.311
 20
320.62
 11
46.9959
 21
319.611
  0
LINE
  8
0
 10
46.9959
 20
319.611
 11
45.4644
 21
318.976
  0
LINE
  8
0
 10
45.4644
 20
318.976
 11
43.8209
 21
318.76
  0
LINE
  8
0
 10
43.8209
 20
318.76
 11
42.1774
 21
318.976
  0
LINE
  8
0
 10
42.1774
 20
318.976
 11
40.6459
 21
319.611
  0
LINE
  8
0
 10
40.6459
 20
319.611
 11
39.3308
 21
320.62
  0
LINE
  8
0
 10
39.3308
 20
320.62
 11
38.3217
 21
321.935
  0
LINE
  8
0
 10
38.3217
 20
321.935
 11
37.6873
 21
323.466
  0
LINE
  8
0
 10
37.6873
 20
323.466
 11
37.471
 21
325.11
  0
LINE
  8
0
 10
92.9664
 20
225.336
 11
93.1828
 21
226.98
  0
LINE
  8
0
 10
93.1828
 20
226.98
 11
93.8172
 21
228.511
  0
LINE
  8
0
 10
93.8172
 20
228.511
 11
94.8263
 21
229.827
  0
LINE
  8
0
 10
94.8263
 20
229.827
 11
96.1415
 21
230.836
  0
LINE
  8
0
 10
96.1415
 20
230.836
 11
97.673
 21
231.47
  0
LINE
  8
0
 10
97.673
 20
231.47
 11
99.3165
 21
231.686
  0
LINE
  8
0
 10
99.3165
 20
231.686
 11
100.96
 21
231.47
  0
LINE
  8
0
 10
100.96
 20
231.47
 11
102.491
 21
230.835
  0
LINE
  8
0
 10
102.491
 20
230.835
 11
103.807
 21
229.826
  0
LINE
  8
0
 10
103.807
 20
229.826
 11
104.816
 21
228.511
  0
LINE
  8
0
 10
104.816
 20
228.511
 11
105.45
 21
226.98
  0
LINE
  8
0
 10
105.45
 20
226.98
 11
105.666
 21
225.336
  0
LINE
  8
0
 10
105.666
 20
225.336
 11
105.45
 21
223.693
  0
LINE
  8
0
 10
105.45
 20
223.693
 11
104.816
 21
222.161
  0
LINE
  8
0
 10
104.816
 20
222.161
 11
103.806
 21
220.846
  0
LINE
  8
0
 10
103.806
 20
220.846
 11
102.491
 21
219.837
  0
LINE
  8
0
 10
102.491
 20
219.837
 11
100.96
 21
219.203
  0
LINE
  8
0
 10
100.96
 20
219.203
 11
99.3162
 21
218.986
  0
LINE
  8
0
 10
99.3162
 20
218.986
 11
97.6727
 21
219.203
  0
LINE
  8
0
 10
97.6727
 20
219.203
 11
96.1413
 21
219.837
  0
LINE
  8
0
 10
96.1413
 20
219.837
 11
94.8261
 21
220.846
  0
LINE
  8
0
 10
94.8261
 20
220.846
 11
93.817
 21
222.161
  0
LINE
  8
0
 10
93.817
 20
222.161
 11
93.1827
 21
223.693
  0
LINE
  8
0
 10
93.1827
 20
223.693
 11
92.9664
 21
225.336
  0
LINE
  8
0
 10
92.9682
 20
322.447
 11
93.1846
 21
324.09
  0
LINE
  8
0
 10
93.1846
 20
324.09
 11
93.819
 21
325.622
  0
LINE
  8
0
 10
93.819
 20
325.622
 11
94.8282
 21
326.937
  0
LINE
  8
0
 10
94.8282
 20
326.937
 11
96.1434
 21
327.946
  0
LINE
  8
0
 10
96.1434
 20
327.946
 11
97.6749
 21
328.58
  0
LINE
  8
0
 10
97.6749
 20
328.58
 11
99.3184
 21
328.796
  0
LINE
  8
0
 10
99.3184
 20
328.796
 11
100.962
 21
328.58
  0
LINE
  8
0
 10
100.962
 20
328.58
 11
102.493
 21
327.946
  0
LINE
  8
0
 10
102.493
 20
327.946
 11
103.808
 21
326.936
  0
LINE
  8
0
 10
103.808
 20
326.936
 11
104.818
 21
325.621
  0
LINE
  8
0
 10
104.818
 20
325.621
 11
105.452
 21
324.09
  0
LINE
  8
0
 10
105.452
 20
324.09
 11
105.668
 21
322.446
  0
LINE
  8
0
 10
105.668
 20
322.446
 11
105.452
 21
320.803
  0
LINE
  8
0
 10
105.452
 20
320.803
 11
104.817
 21
319.271
  0
LINE
  8
0
 10
104.817
 20
319.271
 11
103.808
 21
317.956
  0
LINE
  8
0
 10
103.808
 20
317.956
 11
102.493
 21
316.947
  0
LINE
  8
0
 10
102.493
 20
316.947
 11
100.962
 21
316.313
  0
LINE
  8
0
 10
100.962
 20
316.313
 11
99.3181
 21
316.096
  0
LINE
  8
0
 10
99.3181
 20
316.096
 11
97.6746
 21
316.313
  0
LINE
  8
0
 10
97.6746
 20
316.313
 11
96.1431
 21
316.947
  0
LINE
  8
0
 10
96.1431
 20
316.947
 11
94.828
 21
317.956
  0
LINE
  8
0
 10
94.828
 20
317.956
 11
93.8189
 21
319.272
  0
LINE
  8
0
 10
93.8189
 20
319.272
 11
93.1846
 21
320.803
  0
LINE
  8
0
 10
93.1846
 20
320.803
 11
92.9682
 21
322.447
  0
LINE
  8
0
 10
119.976
 20
273.891
 11
120.192
 21
275.534
  0
LINE
  8
0
 10
120.192
 20
275.534
 11
120.826
 21
277.066
  0
LINE
  8
0
 10
120.826
 20
277.066
 11
121.835
 21
278.381
  0
LINE
  8
0
 10
121.835
 20
278.381
 11
123.151
 21
279.39
  0
LINE
  8
0
 10
123.151
 20
279.39
 11
124.682
 21
280.025
  0
LINE
  8
0
 10
124.682
 20
280.025
 11
126.326
 21
280.241
  0
LINE
  8
0
 10
126.326
 20
280.241
 11
127.969
 21
280.024
  0
LINE
  8
0
 10
127.969
 20
280.024
 11
129.501
 21
279.39
  0
LINE
  8
0
 10
129.501
 20
279.39
 11
130.816
 21
278.381
  0
LINE
  8
0
 10
130.816
 20
278.381
 11
131.825
 21
277.066
  0
LINE
  8
0
 10
131.825
 20
277.066
 11
132.459
 21
275.534
  0
LINE
  8
0
 10
132.459
 20
275.534
 11
132.676
 21
273.891
  0
LINE
  8
0
 10
132.676
 20
273.891
 11
132.459
 21
272.247
  0
LINE
  8
0
 10
132.459
 20
272.247
 11
131.825
 21
270.716
  0
LINE
  8
0
 10
131.825
 20
270.716
 11
130.816
 21
269.401
  0
LINE
  8
0
 10
130.816
 20
269.401
 11
129.5
 21
268.392
  0
LINE
  8
0
 10
129.5
 20
268.392
 11
127.969
 21
267.757
  0
LINE
  8
0
 10
127.969
 20
267.757
 11
126.325
 21
267.541
  0
LINE
  8
0
 10
126.325
 20
267.541
 11
124.682
 21
267.757
  0
LINE
  8
0
 10
124.682
 20
267.757
 11
123.15
 21
268.392
  0
LINE
  8
0
 10
123.15
 20
268.392
 11
121.835
 21
269.401
  0
LINE
  8
0
 10
121.835
 20
269.401
 11
120.826
 21
270.716
  0
LINE
  8
0
 10
120.826
 20
270.716
 11
120.192
 21
272.247
  0
LINE
  8
0
 10
120.192
 20
272.247
 11
119.976
 21
273.891
  0
LINE
  8
0
 10
215.225
 20
233.889
 11
215.347
 21
235.128
  0
LINE
  8
0
 10
215.347
 20
235.128
 11
215.708
 21
236.319
  0
LINE
  8
0
 10
215.708
 20
236.319
 11
216.295
 21
237.417
  0
LINE
  8
0
 10
216.295
 20
237.417
 11
217.085
 21
238.379
  0
LINE
  8
0
 10
217.085
 20
238.379
 11
218.047
 21
239.169
  0
LINE
  8
0
 10
218.047
 20
239.169
 11
219.145
 21
239.756
  0
LINE
  8
0
 10
219.145
 20
239.756
 11
220.336
 21
240.117
  0
LINE
  8
0
 10
220.336
 20
240.117
 11
221.575
 21
240.239
  0
LINE
  8
0
 10
221.575
 20
240.239
 11
222.814
 21
240.117
  0
LINE
  8
0
 10
222.814
 20
240.117
 11
224.005
 21
239.756
  0
LINE
  8
0
 10
224.005
 20
239.756
 11
225.103
 21
239.169
  0
LINE
  8
0
 10
225.103
 20
239.169
 11
226.065
 21
238.379
  0
LINE
  8
0
 10
226.065
 20
238.379
 11
226.855
 21
237.417
  0
LINE
  8
0
 10
226.855
 20
237.417
 11
227.441
 21
236.319
  0
LINE
  8
0
 10
227.441
 20
236.319
 11
227.803
 21
235.128
  0
LINE
  8
0
 10
227.803
 20
235.128
 11
227.925
 21
233.889
  0
LINE
  8
0
 10
227.925
 20
233.889
 11
227.803
 21
232.65
  0
LINE
  8
0
 10
227.803
 20
232.65
 11
227.441
 21
231.459
  0
LINE
  8
0
 10
227.441
 20
231.459
 11
226.855
 21
230.361
  0
LINE
  8
0
 10
226.855
 20
230.361
 11
226.065
 21
229.399
  0
LINE
  8
0
 10
226.065
 20
229.399
 11
225.103
 21
228.609
  0
LINE
  8
0
 10
225.103
 20
228.609
 11
224.005
 21
228.022
  0
LINE
  8
0
 10
224.005
 20
228.022
 11
222.813
 21
227.661
  0
LINE
  8
0
 10
222.813
 20
227.661
 11
221.575
 21
227.539
  0
LINE
  8
0
 10
221.575
 20
227.539
 11
220.336
 21
227.661
  0
LINE
  8
0
 10
220.336
 20
227.661
 11
219.145
 21
228.022
  0
LINE
  8
0
 10
219.145
 20
228.022
 11
218.047
 21
228.609
  0
LINE
  8
0
 10
218.047
 20
228.609
 11
217.085
 21
229.399
  0
LINE
  8
0
 10
217.085
 20
229.399
 11
216.295
 21
230.361
  0
LINE
  8
0
 10
216.295
 20
230.361
 11
215.708
 21
231.459
  0
LINE
  8
0
 10
215.708
 20
231.459
 11
215.347
 21
232.65
  0
LINE
  8
0
 10
215.347
 20
232.65
 11
215.225
 21
233.889
  0
LINE
  8
0
 10
215.226
 20
313.889
 11
215.348
 21
315.128
  0
LINE
  8
0
 10
215.348
 20
315.128
 11
215.71
 21
316.319
  0
LINE
  8
0
 10
215.71
 20
316.319
 11
216.297
 21
317.417
  0
LINE
  8
0
 10
216.297
 20
317.417
 11
217.086
 21
318.379
  0
LINE
  8
0
 10
217.086
 20
318.379
 11
218.049
 21
319.169
  0
LINE
  8
0
 10
218.049
 20
319.169
 11
219.146
 21
319.756
  0
LINE
  8
0
 10
219.146
 20
319.756
 11
220.338
 21
320.117
  0
LINE
  8
0
 10
220.338
 20
320.117
 11
221.576
 21
320.239
  0
LINE
  8
0
 10
221.576
 20
320.239
 11
222.815
 21
320.117
  0
LINE
  8
0
 10
222.815
 20
320.117
 11
224.006
 21
319.756
  0
LINE
  8
0
 10
224.006
 20
319.756
 11
225.104
 21
319.169
  0
LINE
  8
0
 10
225.104
 20
319.169
 11
226.067
 21
318.379
  0
LINE
  8
0
 10
226.067
 20
318.379
 11
226.856
 21
317.417
  0
LINE
  8
0
 10
226.856
 20
317.417
 11
227.443
 21
316.319
  0
LINE
  8
0
 10
227.443
 20
316.319
 11
227.804
 21
315.128
  0
LINE
  8
0
 10
227.804
 20
315.128
 11
227.926
 21
313.889
  0
LINE
  8
0
 10
227.926
 20
313.889
 11
227.804
 21
312.65
  0
LINE
  8
0
 10
227.804
 20
312.65
 11
227.443
 21
311.459
  0
LINE
  8
0
 10
227.443
 20
311.459
 11
226.856
 21
310.361
  0
LINE
  8
0
 10
226.856
 20
310.361
 11
226.066
 21
309.399
  0
LINE
  8
0
 10
226.066
 20
309.399
 11
225.104
 21
308.609
  0
LINE
  8
0
 10
225.104
 20
308.609
 11
224.006
 21
308.022
  0
LINE
  8
0
 10
224.006
 20
308.022
 11
222.815
 21
307.661
  0
LINE
  8
0
 10
222.815
 20
307.661
 11
221.576
 21
307.539
  0
LINE
  8
0
 10
221.576
 20
307.539
 11
220.337
 21
307.661
  0
LINE
  8
0
 10
220.337
 20
307.661
 11
219.146
 21
308.022
  0
LINE
  8
0
 10
219.146
 20
308.022
 11
218.048
 21
308.609
  0
LINE
  8
0
 10
218.048
 20
308.609
 11
217.086
 21
309.399
  0
LINE
  8
0
 10
217.086
 20
309.399
 11
216.296
 21
310.361
  0
LINE
  8
0
 10
216.296
 20
310.361
 11
215.71
 21
311.459
  0
LINE
  8
0
 10
215.71
 20
311.459
 11
215.348
 21
312.65
  0
LINE
  8
0
 10
215.348
 20
312.65
 11
215.226
 21
313.889
  0
LINE
  8
0
 10
315.225
 20
233.887
 11
315.347
 21
235.126
  0
LINE
  8
0
 10
315.347
 20
235.126
 11
315.708
 21
236.317
  0
LINE
  8
0
 10
315.708
 20
236.317
 11
316.295
 21
237.415
  0
LINE
  8
0
 10
316.295
 20
237.415
 11
317.085
 21
238.377
  0
LINE
  8
0
 10
317.085
 20
238.377
 11
318.047
 21
239.167
  0
LINE
  8
0
 10
318.047
 20
239.167
 11
319.145
 21
239.754
  0
LINE
  8
0
 10
319.145
 20
239.754
 11
320.336
 21
240.115
  0
LINE
  8
0
 10
320.336
 20
240.115
 11
321.575
 21
240.237
  0
LINE
  8
0
 10
321.575
 20
240.237
 11
322.814
 21
240.115
  0
LINE
  8
0
 10
322.814
 20
240.115
 11
324.005
 21
239.754
  0
LINE
  8
0
 10
324.005
 20
239.754
 11
325.103
 21
239.167
  0
LINE
  8
0
 10
325.103
 20
239.167
 11
326.065
 21
238.377
  0
LINE
  8
0
 10
326.065
 20
238.377
 11
326.855
 21
237.415
  0
LINE
  8
0
 10
326.855
 20
237.415
 11
327.441
 21
236.317
  0
LINE
  8
0
 10
327.441
 20
236.317
 11
327.803
 21
235.126
  0
LINE
  8
0
 10
327.803
 20
235.126
 11
327.925
 21
233.887
  0
LINE
  8
0
 10
327.925
 20
233.887
 11
327.803
 21
232.648
  0
LINE
  8
0
 10
327.803
 20
232.648
 11
327.441
 21
231.457
  0
LINE
  8
0
 10
327.441
 20
231.457
 11
326.855
 21
230.359
  0
LINE
  8
0
 10
326.855
 20
230.359
 11
326.065
 21
229.397
  0
LINE
  8
0
 10
326.065
 20
229.397
 11
325.103
 21
228.607
  0
LINE
  8
0
 10
325.103
 20
228.607
 11
324.005
 21
228.02
  0
LINE
  8
0
 10
324.005
 20
228.02
 11
322.813
 21
227.659
  0
LINE
  8
0
 10
322.813
 20
227.659
 11
321.575
 21
227.537
  0
LINE
  8
0
 10
321.575
 20
227.537
 11
320.336
 21
227.659
  0
LINE
  8
0
 10
320.336
 20
227.659
 11
319.145
 21
228.02
  0
LINE
  8
0
 10
319.145
 20
228.02
 11
318.047
 21
228.607
  0
LINE
  8
0
 10
318.047
 20
228.607
 11
317.085
 21
229.397
  0
LINE
  8
0
 10
317.085
 20
229.397
 11
316.295
 21
230.359
  0
LINE
  8
0
 10
316.295
 20
230.359
 11
315.708
 21
231.457
  0
LINE
  8
0
 10
315.708
 20
231.457
 11
315.347
 21
232.648
  0
LINE
  8
0
 10
315.347
 20
232.648
 11
315.225
 21
233.887
  0
LINE
  8
0
 10
315.226
 20
313.887
 11
315.348
 21
315.126
  0
LINE
  8
0
 10
315.348
 20
315.126
 11
315.71
 21
316.317
  0
LINE
  8
0
 10
315.71
 20
316.317
 11
316.297
 21
317.415
  0
LINE
  8
0
 10
316.297
 20
317.415
 11
317.086
 21
318.377
  0
LINE
  8
0
 10
317.086
 20
318.377
 11
318.049
 21
319.167
  0
LINE
  8
0
 10
318.049
 20
319.167
 11
319.146
 21
319.754
  0
LINE
  8
0
 10
319.146
 20
319.754
 11
320.338
 21
320.115
  0
LINE
  8
0
 10
320.338
 20
320.115
 11
321.576
 21
320.237
  0
LINE
  8
0
 10
321.576
 20
320.237
 11
322.815
 21
320.115
  0
LINE
  8
0
 10
322.815
 20
320.115
 11
324.006
 21
319.754
  0
LINE
  8
0
 10
324.006
 20
319.754
 11
325.104
 21
319.167
  0
LINE
  8
0
 10
325.104
 20
319.167
 11
326.067
 21
318.377
  0
LINE
  8
0
 10
326.067
 20
318.377
 11
326.856
 21
317.415
  0
LINE
  8
0
 10
326.856
 20
317.415
 11
327.443
 21
316.317
  0
LINE
  8
0
 10
327.443
 20
316.317
 11
327.804
 21
315.126
  0
LINE
  8
0
 10
327.804
 20
315.126
 11
327.926
 21
313.887
  0
LINE
  8
0
 10
327.926
 20
313.887
 11
327.804
 21
312.648
  0
LINE
  8
0
 10
327.804
 20
312.648
 11
327.443
 21
311.457
  0
LINE
  8
0
 10
327.443
 20
311.457
 11
326.856
 21
310.359
  0
LINE
  8
0
 10
326.856
 20
310.359
 11
326.066
 21
309.397
  0
LINE
  8
0
 10
326.066
 20
309.397
 11
325.104
 21
308.607
  0
LINE
  8
0
 10
325.104
 20
308.607
 11
324.006
 21
308.02
  0
LINE
  8
0
 10
324.006
 20
308.02
 11
322.815
 21
307.659
  0
LINE
  8
0
 10
322.815
 20
307.659
 11
321.576
 21
307.537
  0
LINE
  8
0
 10
321.576
 20
307.537
 11
320.337
 21
307.659
  0
LINE
  8
0
 10
320.337
 20
307.659
 11
319.146
 21
308.02
  0
LINE
  8
0
 10
319.146
 20
308.02
 11
318.048
 21
308.607
  0
LINE
  8
0
 10
318.048
 20
308.607
 11
317.086
 21
309.397
  0
LINE
  8
0
 10
317.086
 20
309.397
 11
316.296
 21
310.359
  0
LINE
  8
0
 10
316.296
 20
310.359
 11
315.71
 21
311.457
  0
LINE
  8
0
 10
315.71
 20
311.457
 11
315.348
 21
312.648
  0
LINE
  8
0
 10
315.348
 20
312.648
 11
315.226
 21
313.887
  0
LINE
  8
0
 10
883.973
 20
159.576
 11
884.237
 21
162.249
  0
LINE
  8
0
 10
884.237
 20
162.249
 11
885.016
 21
164.819
  0
LINE
  8
0
 10
885.016
 20
164.819
 11
886.282
 21
167.187
  0
LINE
  8
0
 10
886.282
 20
167.187
 11
887.986
 21
169.263
  0
LINE
  8
0
 10
887.986
 20
169.263
 11
890.062
 21
170.967
  0
LINE
  8
0
 10
890.062
 20
170.967
 11
892.431
 21
172.233
  0
LINE
  8
0
 10
892.431
 20
172.233
 11
895.001
 21
173.013
  0
LINE
  8
0
 10
895.001
 20
173.013
 11
897.674
 21
173.276
  0
LINE
  8
0
 10
897.674
 20
173.276
 11
900.346
 21
173.013
  0
LINE
  8
0
 10
900.346
 20
173.013
 11
902.916
 21
172.233
  0
LINE
  8
0
 10
902.916
 20
172.233
 11
905.285
 21
170.967
  0
LINE
  8
0
 10
905.285
 20
170.967
 11
907.361
 21
169.263
  0
LINE
  8
0
 10
907.361
 20
169.263
 11
909.065
 21
167.187
  0
LINE
  8
0
 10
909.065
 20
167.187
 11
910.331
 21
164.818
  0
LINE
  8
0
 10
910.331
 20
164.818
 11
911.11
 21
162.248
  0
LINE
  8
0
 10
911.11
 20
162.248
 11
911.373
 21
159.576
  0
LINE
  8
0
 10
911.373
 20
159.576
 11
911.11
 21
156.903
  0
LINE
  8
0
 10
911.11
 20
156.903
 11
910.33
 21
154.333
  0
LINE
  8
0
 10
910.33
 20
154.333
 11
909.064
 21
151.964
  0
LINE
  8
0
 10
909.064
 20
151.964
 11
907.36
 21
149.888
  0
LINE
  8
0
 10
907.36
 20
149.888
 11
905.284
 21
148.185
  0
LINE
  8
0
 10
905.284
 20
148.185
 11
902.916
 21
146.919
  0
LINE
  8
0
 10
902.916
 20
146.919
 11
900.346
 21
146.139
  0
LINE
  8
0
 10
900.346
 20
146.139
 11
897.673
 21
145.876
  0
LINE
  8
0
 10
897.673
 20
145.876
 11
895
 21
146.139
  0
LINE
  8
0
 10
895
 20
146.139
 11
892.43
 21
146.919
  0
LINE
  8
0
 10
892.43
 20
146.919
 11
890.062
 21
148.185
  0
LINE
  8
0
 10
890.062
 20
148.185
 11
887.986
 21
149.889
  0
LINE
  8
0
 10
887.986
 20
149.889
 11
886.282
 21
151.965
  0
LINE
  8
0
 10
886.282
 20
151.965
 11
885.016
 21
154.333
  0
LINE
  8
0
 10
885.016
 20
154.333
 11
884.236
 21
156.903
  0
LINE
  8
0
 10
884.236
 20
156.903
 11
883.973
 21
159.576
  0
LINE
  8
0
 10
942.126
 20
273.875
 11
942.248
 21
275.114
  0
LINE
  8
0
 10
942.248
 20
275.114
 11
942.609
 21
276.305
  0
LINE
  8
0
 10
942.609
 20
276.305
 11
943.196
 21
277.403
  0
LINE
  8
0
 10
943.196
 20
277.403
 11
943.985
 21
278.365
  0
LINE
  8
0
 10
943.985
 20
278.365
 11
944.948
 21
279.155
  0
LINE
  8
0
 10
944.948
 20
279.155
 11
946.046
 21
279.742
  0
LINE
  8
0
 10
946.046
 20
279.742
 11
947.237
 21
280.103
  0
LINE
  8
0
 10
947.237
 20
280.103
 11
948.476
 21
280.225
  0
LINE
  8
0
 10
948.476
 20
280.225
 11
949.714
 21
280.103
  0
LINE
  8
0
 10
949.714
 20
280.103
 11
950.906
 21
279.741
  0
LINE
  8
0
 10
950.906
 20
279.741
 11
952.003
 21
279.155
  0
LINE
  8
0
 10
952.003
 20
279.155
 11
952.966
 21
278.365
  0
LINE
  8
0
 10
952.966
 20
278.365
 11
953.755
 21
277.403
  0
LINE
  8
0
 10
953.755
 20
277.403
 11
954.342
 21
276.305
  0
LINE
  8
0
 10
954.342
 20
276.305
 11
954.704
 21
275.114
  0
LINE
  8
0
 10
954.704
 20
275.114
 11
954.826
 21
273.875
  0
LINE
  8
0
 10
954.826
 20
273.875
 11
954.703
 21
272.636
  0
LINE
  8
0
 10
954.703
 20
272.636
 11
954.342
 21
271.445
  0
LINE
  8
0
 10
954.342
 20
271.445
 11
953.755
 21
270.347
  0
LINE
  8
0
 10
953.755
 20
270.347
 11
952.966
 21
269.385
  0
LINE
  8
0
 10
952.966
 20
269.385
 11
952.003
 21
268.595
  0
LINE
  8
0
 10
952.003
 20
268.595
 11
950.905
 21
268.008
  0
LINE
  8
0
 10
950.905
 20
268.008
 11
949.714
 21
267.647
  0
LINE
  8
0
 10
949.714
 20
267.647
 11
948.475
 21
267.525
  0
LINE
  8
0
 10
948.475
 20
267.525
 11
947.237
 21
267.647
  0
LINE
  8
0
 10
947.237
 20
267.647
 11
946.045
 21
268.008
  0
LINE
  8
0
 10
946.045
 20
268.008
 11
944.948
 21
268.595
  0
LINE
  8
0
 10
944.948
 20
268.595
 11
943.985
 21
269.385
  0
LINE
  8
0
 10
943.985
 20
269.385
 11
943.196
 21
270.347
  0
LINE
  8
0
 10
943.196
 20
270.347
 11
942.609
 21
271.445
  0
LINE
  8
0
 10
942.609
 20
271.445
 11
942.248
 21
272.636
  0
LINE
  8
0
 10
942.248
 20
272.636
 11
942.126
 21
273.875
  0
LINE
  8
0
 10
992.926
 20
273.874
 11
993.048
 21
275.113
  0
LINE
  8
0
 10
993.048
 20
275.113
 11
993.409
 21
276.304
  0
LINE
  8
0
 10
993.409
 20
276.304
 11
993.996
 21
277.402
  0
LINE
  8
0
 10
993.996
 20
277.402
 11
994.785
 21
278.364
  0
LINE
  8
0
 10
994.785
 20
278.364
 11
995.748
 21
279.154
  0
LINE
  8
0
 10
995.748
 20
279.154
 11
996.846
 21
279.741
  0
LINE
  8
0
 10
996.846
 20
279.741
 11
998.037
 21
280.102
  0
LINE
  8
0
 10
998.037
 20
280.102
 11
999.276
 21
280.224
  0
LINE
  8
0
 10
999.276
 20
280.224
 11
1000.51
 21
280.102
  0
LINE
  8
0
 10
1000.51
 20
280.102
 11
1001.71
 21
279.741
  0
LINE
  8
0
 10
1001.71
 20
279.741
 11
1002.8
 21
279.154
  0
LINE
  8
0
 10
1002.8
 20
279.154
 11
1003.77
 21
278.364
  0
LINE
  8
0
 10
1003.77
 20
278.364
 11
1004.56
 21
277.402
  0
LINE
  8
0
 10
1004.56
 20
277.402
 11
1005.14
 21
276.304
  0
LINE
  8
0
 10
1005.14
 20
276.304
 11
1005.5
 21
275.113
  0
LINE
  8
0
 10
1005.5
 20
275.113
 11
1005.63
 21
273.874
  0
LINE
  8
0
 10
1005.63
 20
273.874
 11
1005.5
 21
272.635
  0
LINE
  8
0
 10
1005.5
 20
272.635
 11
1005.14
 21
271.444
  0
LINE
  8
0
 10
1005.14
 20
271.444
 11
1004.56
 21
270.346
  0
LINE
  8
0
 10
1004.56
 20
270.346
 11
1003.77
 21
269.384
  0
LINE
  8
0
 10
1003.77
 20
269.384
 11
1002.8
 21
268.594
  0
LINE
  8
0
 10
1002.8
 20
268.594
 11
1001.71
 21
268.007
  0
LINE
  8
0
 10
1001.71
 20
268.007
 11
1000.51
 21
267.646
  0
LINE
  8
0
 10
1000.51
 20
267.646
 11
999.275
 21
267.524
  0
LINE
  8
0
 10
999.275
 20
267.524
 11
998.037
 21
267.646
  0
LINE
  8
0
 10
998.037
 20
267.646
 11
996.845
 21
268.007
  0
LINE
  8
0
 10
996.845
 20
268.007
 11
995.748
 21
268.594
  0
LINE
  8
0
 10
995.748
 20
268.594
 11
994.785
 21
269.384
  0
LINE
  8
0
 10
994.785
 20
269.384
 11
993.996
 21
270.346
  0
LINE
  8
0
 10
993.996
 20
270.346
 11
993.409
 21
271.444
  0
LINE
  8
0
 10
993.409
 20
271.444
 11
993.048
 21
272.635
  0
LINE
  8
0
 10
993.048
 20
272.635
 11
992.926
 21
273.874
  0
LINE
  8
0
 10
1370.15
 20
233.867
 11
1370.27
 21
235.106
  0
LINE
  8
0
 10
1370.27
 20
235.106
 11
1370.63
 21
236.297
  0
LINE
  8
0
 10
1370.63
 20
236.297
 11
1371.22
 21
237.395
  0
LINE
  8
0
 10
1371.22
 20
237.395
 11
1372.01
 21
238.357
  0
LINE
  8
0
 10
1372.01
 20
238.357
 11
1372.97
 21
239.147
  0
LINE
  8
0
 10
1372.97
 20
239.147
 11
1374.07
 21
239.733
  0
LINE
  8
0
 10
1374.07
 20
239.733
 11
1375.26
 21
240.095
  0
LINE
  8
0
 10
1375.26
 20
240.095
 11
1376.5
 21
240.217
  0
LINE
  8
0
 10
1376.5
 20
240.217
 11
1377.74
 21
240.095
  0
LINE
  8
0
 10
1377.74
 20
240.095
 11
1378.93
 21
239.733
  0
LINE
  8
0
 10
1378.93
 20
239.733
 11
1380.02
 21
239.146
  0
LINE
  8
0
 10
1380.02
 20
239.146
 11
1380.99
 21
238.357
  0
LINE
  8
0
 10
1380.99
 20
238.357
 11
1381.78
 21
237.394
  0
LINE
  8
0
 10
1381.78
 20
237.394
 11
1382.36
 21
236.297
  0
LINE
  8
0
 10
1382.36
 20
236.297
 11
1382.72
 21
235.105
  0
LINE
  8
0
 10
1382.72
 20
235.105
 11
1382.85
 21
233.866
  0
LINE
  8
0
 10
1382.85
 20
233.866
 11
1382.72
 21
232.628
  0
LINE
  8
0
 10
1382.72
 20
232.628
 11
1382.36
 21
231.436
  0
LINE
  8
0
 10
1382.36
 20
231.436
 11
1381.78
 21
230.339
  0
LINE
  8
0
 10
1381.78
 20
230.339
 11
1380.99
 21
229.376
  0
LINE
  8
0
 10
1380.99
 20
229.376
 11
1380.02
 21
228.587
  0
LINE
  8
0
 10
1380.02
 20
228.587
 11
1378.93
 21
228
  0
LINE
  8
0
 10
1378.93
 20
228
 11
1377.74
 21
227.639
  0
LINE
  8
0
 10
1377.74
 20
227.639
 11
1376.5
 21
227.517
  0
LINE
  8
0
 10
1376.5
 20
227.517
 11
1375.26
 21
227.639
  0
LINE
  8
0
 10
1375.26
 20
227.639
 11
1374.07
 21
228
  0
LINE
  8
0
 10
1374.07
 20
228
 11
1372.97
 21
228.587
  0
LINE
  8
0
 10
1372.97
 20
228.587
 11
1372.01
 21
229.377
  0
LINE
  8
0
 10
1372.01
 20
229.377
 11
1371.22
 21
230.339
  0
LINE
  8
0
 10
1371.22
 20
230.339
 11
1370.63
 21
231.437
  0
LINE
  8
0
 10
1370.63
 20
231.437
 11
1370.27
 21
232.628
  0
LINE
  8
0
 10
1370.27
 20
232.628
 11
1370.15
 21
233.867
  0
LINE
  8
0
 10
1370.15
 20
313.867
 11
1370.27
 21
315.106
  0
LINE
  8
0
 10
1370.27
 20
315.106
 11
1370.63
 21
316.297
  0
LINE
  8
0
 10
1370.63
 20
316.297
 11
1371.22
 21
317.395
  0
LINE
  8
0
 10
1371.22
 20
317.395
 11
1372.01
 21
318.357
  0
LINE
  8
0
 10
1372.01
 20
318.357
 11
1372.97
 21
319.146
  0
LINE
  8
0
 10
1372.97
 20
319.146
 11
1374.07
 21
319.733
  0
LINE
  8
0
 10
1374.07
 20
319.733
 11
1375.26
 21
320.095
  0
LINE
  8
0
 10
1375.26
 20
320.095
 11
1376.5
 21
320.217
  0
LINE
  8
0
 10
1376.5
 20
320.217
 11
1377.74
 21
320.095
  0
LINE
  8
0
 10
1377.74
 20
320.095
 11
1378.93
 21
319.733
  0
LINE
  8
0
 10
1378.93
 20
319.733
 11
1380.03
 21
319.146
  0
LINE
  8
0
 10
1380.03
 20
319.146
 11
1380.99
 21
318.357
  0
LINE
  8
0
 10
1380.99
 20
318.357
 11
1381.78
 21
317.394
  0
LINE
  8
0
 10
1381.78
 20
317.394
 11
1382.36
 21
316.297
  0
LINE
  8
0
 10
1382.36
 20
316.297
 11
1382.73
 21
315.105
  0
LINE
  8
0
 10
1382.73
 20
315.105
 11
1382.85
 21
313.866
  0
LINE
  8
0
 10
1382.85
 20
313.866
 11
1382.73
 21
312.628
  0
LINE
  8
0
 10
1382.73
 20
312.628
 11
1382.36
 21
311.436
  0
LINE
  8
0
 10
1382.36
 20
311.436
 11
1381.78
 21
310.339
  0
LINE
  8
0
 10
1381.78
 20
310.339
 11
1380.99
 21
309.376
  0
LINE
  8
0
 10
1380.99
 20
309.376
 11
1380.03
 21
308.587
  0
LINE
  8
0
 10
1380.03
 20
308.587
 11
1378.93
 21
308
  0
LINE
  8
0
 10
1378.93
 20
308
 11
1377.74
 21
307.639
  0
LINE
  8
0
 10
1377.74
 20
307.639
 11
1376.5
 21
307.517
  0
LINE
  8
0
 10
1376.5
 20
307.517
 11
1375.26
 21
307.639
  0
LINE
  8
0
 10
1375.26
 20
307.639
 11
1374.07
 21
308
  0
LINE
  8
0
 10
1374.07
 20
308
 11
1372.97
 21
308.587
  0
LINE
  8
0
 10
1372.97
 20
308.587
 11
1372.01
 21
309.377
  0
LINE
  8
0
 10
1372.01
 20
309.377
 11
1371.22
 21
310.339
  0
LINE
  8
0
 10
1371.22
 20
310.339
 11
1370.63
 21
311.437
  0
LINE
  8
0
 10
1370.63
 20
311.437
 11
1370.27
 21
312.628
  0
LINE
  8
0
 10
1370.27
 20
312.628
 11
1370.15
 21
313.867
  0
LINE
  8
0
 10
1470.15
 20
233.865
 11
1470.27
 21
235.104
  0
LINE
  8
0
 10
1470.27
 20
235.104
 11
1470.63
 21
236.295
  0
LINE
  8
0
 10
1470.63
 20
236.295
 11
1471.22
 21
237.393
  0
LINE
  8
0
 10
1471.22
 20
237.393
 11
1472.01
 21
238.355
  0
LINE
  8
0
 10
1472.01
 20
238.355
 11
1472.97
 21
239.145
  0
LINE
  8
0
 10
1472.97
 20
239.145
 11
1474.07
 21
239.731
  0
LINE
  8
0
 10
1474.07
 20
239.731
 11
1475.26
 21
240.093
  0
LINE
  8
0
 10
1475.26
 20
240.093
 11
1476.5
 21
240.215
  0
LINE
  8
0
 10
1476.5
 20
240.215
 11
1477.74
 21
240.093
  0
LINE
  8
0
 10
1477.74
 20
240.093
 11
1478.93
 21
239.731
  0
LINE
  8
0
 10
1478.93
 20
239.731
 11
1480.02
 21
239.144
  0
LINE
  8
0
 10
1480.02
 20
239.144
 11
1480.99
 21
238.355
  0
LINE
  8
0
 10
1480.99
 20
238.355
 11
1481.78
 21
237.392
  0
LINE
  8
0
 10
1481.78
 20
237.392
 11
1482.36
 21
236.295
  0
LINE
  8
0
 10
1482.36
 20
236.295
 11
1482.72
 21
235.103
  0
LINE
  8
0
 10
1482.72
 20
235.103
 11
1482.85
 21
233.865
  0
LINE
  8
0
 10
1482.85
 20
233.865
 11
1482.72
 21
232.626
  0
LINE
  8
0
 10
1482.72
 20
232.626
 11
1482.36
 21
231.435
  0
LINE
  8
0
 10
1482.36
 20
231.435
 11
1481.78
 21
230.337
  0
LINE
  8
0
 10
1481.78
 20
230.337
 11
1480.99
 21
229.374
  0
LINE
  8
0
 10
1480.99
 20
229.374
 11
1480.02
 21
228.585
  0
LINE
  8
0
 10
1480.02
 20
228.585
 11
1478.93
 21
227.998
  0
LINE
  8
0
 10
1478.93
 20
227.998
 11
1477.74
 21
227.637
  0
LINE
  8
0
 10
1477.74
 20
227.637
 11
1476.5
 21
227.515
  0
LINE
  8
0
 10
1476.5
 20
227.515
 11
1475.26
 21
227.637
  0
LINE
  8
0
 10
1475.26
 20
227.637
 11
1474.07
 21
227.998
  0
LINE
  8
0
 10
1474.07
 20
227.998
 11
1472.97
 21
228.585
  0
LINE
  8
0
 10
1472.97
 20
228.585
 11
1472.01
 21
229.375
  0
LINE
  8
0
 10
1472.01
 20
229.375
 11
1471.22
 21
230.337
  0
LINE
  8
0
 10
1471.22
 20
230.337
 11
1470.63
 21
231.435
  0
LINE
  8
0
 10
1470.63
 20
231.435
 11
1470.27
 21
232.626
  0
LINE
  8
0
 10
1470.27
 20
232.626
 11
1470.15
 21
233.865
  0
LINE
  8
0
 10
1470.15
 20
313.865
 11
1470.27
 21
315.104
  0
LINE
  8
0
 10
1470.27
 20
315.104
 11
1470.63
 21
316.295
  0
LINE
  8
0
 10
1470.63
 20
316.295
 11
1471.22
 21
317.393
  0
LINE
  8
0
 10
1471.22
 20
317.393
 11
1472.01
 21
318.355
  0
LINE
  8
0
 10
1472.01
 20
318.355
 11
1472.97
 21
319.145
  0
LINE
  8
0
 10
1472.97
 20
319.145
 11
1474.07
 21
319.731
  0
LINE
  8
0
 10
1474.07
 20
319.731
 11
1475.26
 21
320.093
  0
LINE
  8
0
 10
1475.26
 20
320.093
 11
1476.5
 21
320.215
  0
LINE
  8
0
 10
1476.5
 20
320.215
 11
1477.74
 21
320.093
  0
LINE
  8
0
 10
1477.74
 20
320.093
 11
1478.93
 21
319.731
  0
LINE
  8
0
 10
1478.93
 20
319.731
 11
1480.03
 21
319.144
  0
LINE
  8
0
 10
1480.03
 20
319.144
 11
1480.99
 21
318.355
  0
LINE
  8
0
 10
1480.99
 20
318.355
 11
1481.78
 21
317.392
  0
LINE
  8
0
 10
1481.78
 20
317.392
 11
1482.36
 21
316.295
  0
LINE
  8
0
 10
1482.36
 20
316.295
 11
1482.73
 21
315.103
  0
LINE
  8
0
 10
1482.73
 20
315.103
 11
1482.85
 21
313.865
  0
LINE
  8
0
 10
1482.85
 20
313.865
 11
1482.73
 21
312.626
  0
LINE
  8
0
 10
1482.73
 20
312.626
 11
1482.36
 21
311.435
  0
LINE
  8
0
 10
1482.36
 20
311.435
 11
1481.78
 21
310.337
  0
LINE
  8
0
 10
1481.78
 20
310.337
 11
1480.99
 21
309.374
  0
LINE
  8
0
 10
1480.99
 20
309.374
 11
1480.03
 21
308.585
  0
LINE
  8
0
 10
1480.03
 20
308.585
 11
1478.93
 21
307.998
  0
LINE
  8
0
 10
1478.93
 20
307.998
 11
1477.74
 21
307.637
  0
LINE
  8
0
 10
1477.74
 20
307.637
 11
1476.5
 21
307.515
  0
LINE
  8
0
 10
1476.5
 20
307.515
 11
1475.26
 21
307.637
  0
LINE
  8
0
 10
1475.26
 20
307.637
 11
1474.07
 21
307.998
  0
LINE
  8
0
 10
1474.07
 20
307.998
 11
1472.97
 21
308.585
  0
LINE
  8
0
 10
1472.97
 20
308.585
 11
1472.01
 21
309.375
  0
LINE
  8
0
 10
1472.01
 20
309.375
 11
1471.22
 21
310.337
  0
LINE
  8
0
 10
1471.22
 20
310.337
 11
1470.63
 21
311.435
  0
LINE
  8
0
 10
1470.63
 20
311.435
 11
1470.27
 21
312.626
  0
LINE
  8
0
 10
1470.27
 20
312.626
 11
1470.15
 21
313.865
  0
LINE
  8
0
 10
1753.96
 20
26.4451
 11
1754.42
 21
28.892
  0
LINE
  8
0
 10
1754.42
 20
28.892
 11
1755.34
 21
31.2024
  0
LINE
  8
0
 10
1755.34
 20
31.2024
 11
1756.7
 21
33.2874
  0
LINE
  8
0
 10
1756.7
 20
33.2874
 11
1758.45
 21
35.0669
  0
LINE
  8
0
 10
1758.45
 20
35.0669
 11
1760.5
 21
36.4725
  0
LINE
  8
0
 10
1760.5
 20
36.4725
 11
1762.79
 21
37.4502
  0
LINE
  8
0
 10
1762.79
 20
37.4502
 11
1765.23
 21
37.9625
  0
LINE
  8
0
 10
1765.23
 20
37.9625
 11
1767.72
 21
37.9896
  0
LINE
  8
0
 10
1767.72
 20
37.9896
 11
1770.16
 21
37.5305
  0
LINE
  8
0
 10
1770.16
 20
37.5305
 11
1772.47
 21
36.6029
  0
LINE
  8
0
 10
1772.47
 20
36.6029
 11
1774.56
 21
35.2423
  0
LINE
  8
0
 10
1774.56
 20
35.2423
 11
1776.34
 21
33.5012
  0
LINE
  8
0
 10
1776.34
 20
33.5012
 11
1777.74
 21
31.4463
  0
LINE
  8
0
 10
1777.74
 20
31.4463
 11
1778.72
 21
29.1567
  0
LINE
  8
0
 10
1778.72
 20
29.1567
 11
1779.23
 21
26.7203
  0
LINE
  8
0
 10
1779.23
 20
26.7203
 11
1779.26
 21
24.2308
  0
LINE
  8
0
 10
1779.26
 20
24.2308
 11
1778.8
 21
21.7839
  0
LINE
  8
0
 10
1778.8
 20
21.7839
 11
1777.87
 21
19.4735
  0
LINE
  8
0
 10
1777.87
 20
19.4735
 11
1776.51
 21
17.3885
  0
LINE
  8
0
 10
1776.51
 20
17.3885
 11
1774.77
 21
15.609
  0
LINE
  8
0
 10
1774.77
 20
15.609
 11
1772.72
 21
14.2034
  0
LINE
  8
0
 10
1772.72
 20
14.2034
 11
1770.43
 21
13.2257
  0
LINE
  8
0
 10
1770.43
 20
13.2257
 11
1767.99
 21
12.7134
  0
LINE
  8
0
 10
1767.99
 20
12.7134
 11
1765.5
 21
12.6863
  0
LINE
  8
0
 10
1765.5
 20
12.6863
 11
1763.05
 21
13.1454
  0
LINE
  8
0
 10
1763.05
 20
13.1454
 11
1760.74
 21
14.073
  0
LINE
  8
0
 10
1760.74
 20
14.073
 11
1758.66
 21
15.4336
  0
LINE
  8
0
 10
1758.66
 20
15.4336
 11
1756.88
 21
17.1747
  0
LINE
  8
0
 10
1756.88
 20
17.1747
 11
1755.47
 21
19.2296
  0
LINE
  8
0
 10
1755.47
 20
19.2296
 11
1754.5
 21
21.5192
  0
LINE
  8
0
 10
1754.5
 20
21.5192
 11
1753.98
 21
23.9556
  0
LINE
  8
0
 10
1753.98
 20
23.9556
 11
1753.96
 21
26.4451
  0
ENDSEC
  0
SECTION
  2
OBJECTS
  0
DICTIONARY
  0
ENDSEC
  0
EOF
