  0
SECTION
  2
BLOCKS
  0
ENDSEC
  0
SECTION
  2
ENTITIES
  0
LINE
  8
0
 10
2.28019e-05
 20
72.9596
 11
0.677764
 21
65.5124
  0
LINE
  8
0
 10
0.677764
 20
65.5124
 11
2.08219
 21
58.1676
  0
LINE
  8
0
 10
2.08219
 20
58.1676
 11
4.19977
 21
50.9958
  0
LINE
  8
0
 10
4.19977
 20
50.9958
 11
7.01012
 21
44.066
  0
LINE
  8
0
 10
7.01012
 20
44.066
 11
10.4862
 21
37.4451
  0
LINE
  8
0
 10
10.4862
 20
37.4451
 11
14.5944
 21
31.1968
  0
LINE
  8
0
 10
14.5944
 20
31.1968
 11
19.2954
 21
25.3813
  0
LINE
  8
0
 10
19.2954
 20
25.3813
 11
24.5437
 21
20.0545
  0
LINE
  8
0
 10
24.5437
 20
20.0545
 11
30.2888
 21
15.2679
  0
LINE
  8
0
 10
30.2888
 20
15.2679
 11
36.4755
 21
11.0673
  0
LINE
  8
0
 10
36.4755
 20
11.0673
 11
43.0441
 21
7.49346
  0
LINE
  8
0
 10
43.0441
 20
7.49346
 11
49.9314
 21
4.58061
  0
LINE
  8
0
 10
49.9314
 20
4.58061
 11
57.071
 21
2.35687
  0
LINE
  8
0
 10
57.071
 20
2.35687
 11
64.3942
 21
0.843637
  0
LINE
  8
0
 10
64.3942
 20
0.843637
 11
71.8305
 21
0.0554918
  0
LINE
  8
0
 10
71.8305
 20
0.0554918
 11
79.3082
 21
2.28143e-05
  0
LINE
  8
0
 10
79.3082
 20
2.28143e-05
 11
86.7553
 21
0.677764
  0
LINE
  8
0
 10
86.7553
 20
0.677764
 11
94.1002
 21
2.08219
  0
LINE
  8
0
 10
94.1002
 20
2.08219
 11
101.272
 21
4.19977
  0
LINE
  8
0
 10
101.272
 20
4.19977
 11
108.202
 21
7.01012
  0
LINE
  8
0
 10
108.202
 20
7.01012
 11
114.823
 21
10.4862
  0
LINE
  8
0
 10
114.823
 20
10.4862
 11
121.071
 21
14.5944
  0
LINE
  8
0
 10
121.071
 20
14.5944
 11
126.886
 21
19.2954
  0
LINE
  8
0
 10
126.886
 20
19.2954
 11
132.213
 21
24.5437
  0
LINE
  8
0
 10
132.213
 20
24.5437
 11
137
 21
30.2888
  0
LINE
  8
0
 10
137
 20
30.2888
 11
141.2
 21
36.4755
  0
LINE
  8
0
 10
141.2
 20
36.4755
 11
144.774
 21
43.0441
  0
LINE
  8
0
 10
144.774
 20
43.0441
 11
147.687
 21
49.9314
  0
LINE
  8
0
 10
147.687
 20
49.9314
 11
149.911
 21
57.071
  0
LINE
  8
0
 10
149.911
 20
57.071
 11
151.424
 21
64.3942
  0
LINE
  8
0
 10
151.424
 20
64.3942
 11
152.212
 21
71.8305
  0
LINE
  8
0
 10
152.212
 20
71.8305
 11
152.268
 21
79.3082
  0
LINE
  8
0
 10
152.268
 20
79.3082
 11
151.59
 21
86.7553
  0
LINE
  8
0
 10
151.59
 20
86.7553
 11
150.186
 21
94.1002
  0
LINE
  8
0
 10
150.186
 20
94.1002
 11
148.068
 21
101.272
  0
LINE
  8
0
 10
148.068
 20
101.272
 11
145.258
 21
108.202
  0
LINE
  8
0
 10
145.258
 20
108.202
 11
141.782
 21
114.823
  0
LINE
  8
0
 10
141.782
 20
114.823
 11
137.673
 21
121.071
  0
LINE
  8
0
 10
137.673
 20
121.071
 11
132.972
 21
126.886
  0
LINE
  8
0
 10
132.972
 20
126.886
 11
127.724
 21
132.213
  0
LINE
  8
0
 10
127.724
 20
132.213
 11
121.979
 21
137
  0
LINE
  8
0
 10
121.979
 20
137
 11
115.792
 21
141.2
  0
LINE
  8
0
 10
115.792
 20
141.2
 11
109.224
 21
144.774
  0
LINE
  8
0
 10
109.224
 20
144.774
 11
102.336
 21
147.687
  0
LINE
  8
0
 10
102.336
 20
147.687
 11
95.1967
 21
149.911
  0
LINE
  8
0
 10
95.1967
 20
149.911
 11
87.8735
 21
151.424
  0
LINE
  8
0
 10
87.8735
 20
151.424
 11
80.4373
 21
152.212
  0
LINE
  8
0
 10
80.4373
 20
152.212
 11
72.9596
 21
152.268
  0
LINE
  8
0
 10
72.9596
 20
152.268
 11
65.5124
 21
151.59
  0
LINE
  8
0
 10
65.5124
 20
151.59
 11
58.1676
 21
150.186
  0
LINE
  8
0
 10
58.1676
 20
150.186
 11
50.9958
 21
148.068
  0
LINE
  8
0
 10
50.9958
 20
148.068
 11
44.066
 21
145.258
  0
LINE
  8
0
 10
44.066
 20
145.258
 11
37.4451
 21
141.782
  0
LINE
  8
0
 10
37.4451
 20
141.782
 11
31.1968
 21
137.673
  0
LINE
  8
0
 10
31.1968
 20
137.673
 11
25.3813
 21
132.972
  0
LINE
  8
0
 10
25.3813
 20
132.972
 11
20.0545
 21
127.724
  0
LINE
  8
0
 10
20.0545
 20
127.724
 11
15.2679
 21
121.979
  0
LINE
  8
0
 10
15.2679
 20
121.979
 11
11.0673
 21
115.792
  0
LINE
  8
0
 10
11.0673
 20
115.792
 11
7.49346
 21
109.224
  0
LINE
  8
0
 10
7.49346
 20
109.224
 11
4.58061
 21
102.336
  0
LINE
  8
0
 10
4.58061
 20
102.336
 11
2.35687
 21
95.1967
  0
LINE
  8
0
 10
2.35687
 20
95.1967
 11
0.843637
 21
87.8735
  0
LINE
  8
0
 10
0.843637
 20
87.8735
 11
0.0554918
 21
80.4373
  0
LINE
  8
0
 10
0.0554918
 20
80.4373
 11
2.28019e-05
 21
72.9596
  0
LINE
  8
0
 10
16.5421
 20
56.2567
 11
16.9568
 21
57.8617
  0
LINE
  8
0
 10
16.9568
 20
57.8617
 11
17.7727
 21
59.3047
  0
LINE
  8
0
 10
17.7727
 20
59.3047
 11
18.9344
 21
60.4873
  0
LINE
  8
0
 10
18.9344
 20
60.4873
 11
20.3625
 21
61.3289
  0
LINE
  8
0
 10
20.3625
 20
61.3289
 11
21.9598
 21
61.7722
  0
LINE
  8
0
 10
21.9598
 20
61.7722
 11
23.6174
 21
61.7871
  0
LINE
  8
0
 10
23.6174
 20
61.7871
 11
25.2224
 21
61.3724
  0
LINE
  8
0
 10
25.2224
 20
61.3724
 11
26.6653
 21
60.5564
  0
LINE
  8
0
 10
26.6653
 20
60.5564
 11
27.8479
 21
59.3948
  0
LINE
  8
0
 10
27.8479
 20
59.3948
 11
28.6896
 21
57.9667
  0
LINE
  8
0
 10
28.6896
 20
57.9667
 11
29.1329
 21
56.3694
  0
LINE
  8
0
 10
29.1329
 20
56.3694
 11
29.1477
 21
54.7117
  0
LINE
  8
0
 10
29.1477
 20
54.7117
 11
28.733
 21
53.1068
  0
LINE
  8
0
 10
28.733
 20
53.1068
 11
27.9171
 21
51.6638
  0
LINE
  8
0
 10
27.9171
 20
51.6638
 11
26.7554
 21
50.4812
  0
LINE
  8
0
 10
26.7554
 20
50.4812
 11
25.3273
 21
49.6396
  0
LINE
  8
0
 10
25.3273
 20
49.6396
 11
23.73
 21
49.1962
  0
LINE
  8
0
 10
23.73
 20
49.1962
 11
22.0724
 21
49.1814
  0
LINE
  8
0
 10
22.0724
 20
49.1814
 11
20.4674
 21
49.5961
  0
LINE
  8
0
 10
20.4674
 20
49.5961
 11
19.0245
 21
50.4121
  0
LINE
  8
0
 10
19.0245
 20
50.4121
 11
17.8419
 21
51.5737
  0
LINE
  8
0
 10
17.8419
 20
51.5737
 11
17.0002
 21
53.0018
  0
LINE
  8
0
 10
17.0002
 20
53.0018
 11
16.5569
 21
54.5991
  0
LINE
  8
0
 10
16.5569
 20
54.5991
 11
16.5421
 21
56.2567
  0
LINE
  8
0
 10
24.1815
 20
111.29
 11
24.5962
 21
112.895
  0
LINE
  8
0
 10
24.5962
 20
112.895
 11
25.4122
 21
114.338
  0
LINE
  8
0
 10
25.4122
 20
114.338
 11
26.5738
 21
115.521
  0
LINE
  8
0
 10
26.5738
 20
115.521
 11
28.0019
 21
116.362
  0
LINE
  8
0
 10
28.0019
 20
116.362
 11
29.5992
 21
116.806
  0
LINE
  8
0
 10
29.5992
 20
116.806
 11
31.2569
 21
116.82
  0
LINE
  8
0
 10
31.2569
 20
116.82
 11
32.8618
 21
116.406
  0
LINE
  8
0
 10
32.8618
 20
116.406
 11
34.3048
 21
115.59
  0
LINE
  8
0
 10
34.3048
 20
115.59
 11
35.4874
 21
114.428
  0
LINE
  8
0
 10
35.4874
 20
114.428
 11
36.329
 21
113
  0
LINE
  8
0
 10
36.329
 20
113
 11
36.7724
 21
111.403
  0
LINE
  8
0
 10
36.7724
 20
111.403
 11
36.7872
 21
109.745
  0
LINE
  8
0
 10
36.7872
 20
109.745
 11
36.3725
 21
108.14
  0
LINE
  8
0
 10
36.3725
 20
108.14
 11
35.5565
 21
106.697
  0
LINE
  8
0
 10
35.5565
 20
106.697
 11
34.3949
 21
105.515
  0
LINE
  8
0
 10
34.3949
 20
105.515
 11
32.9668
 21
104.673
  0
LINE
  8
0
 10
32.9668
 20
104.673
 11
31.3695
 21
104.23
  0
LINE
  8
0
 10
31.3695
 20
104.23
 11
29.7119
 21
104.215
  0
LINE
  8
0
 10
29.7119
 20
104.215
 11
28.1069
 21
104.63
  0
LINE
  8
0
 10
28.1069
 20
104.63
 11
26.6639
 21
105.445
  0
LINE
  8
0
 10
26.6639
 20
105.445
 11
25.4813
 21
106.607
  0
LINE
  8
0
 10
25.4813
 20
106.607
 11
24.6397
 21
108.035
  0
LINE
  8
0
 10
24.6397
 20
108.035
 11
24.1964
 21
109.633
  0
LINE
  8
0
 10
24.1964
 20
109.633
 11
24.1815
 21
111.29
  0
LINE
  8
0
 10
50.7559
 20
75.0758
 11
50.7744
 21
77.5683
  0
LINE
  8
0
 10
50.7744
 20
77.5683
 11
51.0371
 21
80.0471
  0
LINE
  8
0
 10
51.0371
 20
80.0471
 11
51.5415
 21
82.4882
  0
LINE
  8
0
 10
51.5415
 20
82.4882
 11
52.2828
 21
84.868
  0
LINE
  8
0
 10
52.2828
 20
84.868
 11
53.2537
 21
87.1638
  0
LINE
  8
0
 10
53.2537
 20
87.1638
 11
54.445
 21
89.3533
  0
LINE
  8
0
 10
54.445
 20
89.3533
 11
55.8452
 21
91.4156
  0
LINE
  8
0
 10
55.8452
 20
91.4156
 11
57.4408
 21
93.3306
  0
LINE
  8
0
 10
57.4408
 20
93.3306
 11
59.2164
 21
95.08
  0
LINE
  8
0
 10
59.2164
 20
95.08
 11
61.1549
 21
96.647
  0
LINE
  8
0
 10
61.1549
 20
96.647
 11
63.2376
 21
98.0164
  0
LINE
  8
0
 10
63.2376
 20
98.0164
 11
65.4446
 21
99.1751
  0
LINE
  8
0
 10
65.4446
 20
99.1751
 11
67.7545
 21
100.112
  0
LINE
  8
0
 10
67.7545
 20
100.112
 11
70.1451
 21
100.818
  0
LINE
  8
0
 10
70.1451
 20
100.818
 11
72.5934
 21
101.286
  0
LINE
  8
0
 10
72.5934
 20
101.286
 11
75.0758
 21
101.512
  0
LINE
  8
0
 10
75.0758
 20
101.512
 11
77.5683
 21
101.493
  0
LINE
  8
0
 10
77.5683
 20
101.493
 11
80.0471
 21
101.231
  0
LINE
  8
0
 10
80.0471
 20
101.231
 11
82.4882
 21
100.726
  0
LINE
  8
0
 10
82.4882
 20
100.726
 11
84.868
 21
99.985
  0
LINE
  8
0
 10
84.868
 20
99.985
 11
87.1638
 21
99.014
  0
LINE
  8
0
 10
87.1638
 20
99.014
 11
89.3533
 21
97.8227
  0
LINE
  8
0
 10
89.3533
 20
97.8227
 11
91.4156
 21
96.4226
  0
LINE
  8
0
 10
91.4156
 20
96.4226
 11
93.3306
 21
94.827
  0
LINE
  8
0
 10
93.3306
 20
94.827
 11
95.08
 21
93.0514
  0
LINE
  8
0
 10
95.08
 20
93.0514
 11
96.647
 21
91.1129
  0
LINE
  8
0
 10
96.647
 20
91.1129
 11
98.0164
 21
89.0301
  0
LINE
  8
0
 10
98.0164
 20
89.0301
 11
99.1751
 21
86.8232
  0
LINE
  8
0
 10
99.1751
 20
86.8232
 11
100.112
 21
84.5132
  0
LINE
  8
0
 10
100.112
 20
84.5132
 11
100.818
 21
82.1226
  0
LINE
  8
0
 10
100.818
 20
82.1226
 11
101.286
 21
79.6744
  0
LINE
  8
0
 10
101.286
 20
79.6744
 11
101.512
 21
77.192
  0
LINE
  8
0
 10
101.512
 20
77.192
 11
101.493
 21
74.6994
  0
LINE
  8
0
 10
101.493
 20
74.6994
 11
101.231
 21
72.2207
  0
LINE
  8
0
 10
101.231
 20
72.2207
 11
100.726
 21
69.7796
  0
LINE
  8
0
 10
100.726
 20
69.7796
 11
99.985
 21
67.3997
  0
LINE
  8
0
 10
99.985
 20
67.3997
 11
99.014
 21
65.104
  0
LINE
  8
0
 10
99.014
 20
65.104
 11
97.8227
 21
62.9144
  0
LINE
  8
0
 10
97.8227
 20
62.9144
 11
96.4226
 21
60.8522
  0
LINE
  8
0
 10
96.4226
 20
60.8522
 11
94.827
 21
58.9371
  0
LINE
  8
0
 10
94.827
 20
58.9371
 11
93.0514
 21
57.1877
  0
LINE
  8
0
 10
93.0514
 20
57.1877
 11
91.1129
 21
55.6207
  0
LINE
  8
0
 10
91.1129
 20
55.6207
 11
89.0301
 21
54.2513
  0
LINE
  8
0
 10
89.0301
 20
54.2513
 11
86.8232
 21
53.0926
  0
LINE
  8
0
 10
86.8232
 20
53.0926
 11
84.5132
 21
52.1558
  0
LINE
  8
0
 10
84.5132
 20
52.1558
 11
82.1226
 21
51.45
  0
LINE
  8
0
 10
82.1226
 20
51.45
 11
79.6744
 21
50.9818
  0
LINE
  8
0
 10
79.6744
 20
50.9818
 11
77.192
 21
50.7559
  0
LINE
  8
0
 10
77.192
 20
50.7559
 11
74.6994
 21
50.7744
  0
LINE
  8
0
 10
74.6994
 20
50.7744
 11
72.2207
 21
51.0371
  0
LINE
  8
0
 10
72.2207
 20
51.0371
 11
69.7796
 21
51.5415
  0
LINE
  8
0
 10
69.7796
 20
51.5415
 11
67.3997
 21
52.2828
  0
LINE
  8
0
 10
67.3997
 20
52.2828
 11
65.104
 21
53.2537
  0
LINE
  8
0
 10
65.104
 20
53.2537
 11
62.9144
 21
54.445
  0
LINE
  8
0
 10
62.9144
 20
54.445
 11
60.8522
 21
55.8452
  0
LINE
  8
0
 10
60.8522
 20
55.8452
 11
58.9371
 21
57.4408
  0
LINE
  8
0
 10
58.9371
 20
57.4408
 11
57.1877
 21
59.2164
  0
LINE
  8
0
 10
57.1877
 20
59.2164
 11
55.6207
 21
61.1549
  0
LINE
  8
0
 10
55.6207
 20
61.1549
 11
54.2513
 21
63.2376
  0
LINE
  8
0
 10
54.2513
 20
63.2376
 11
53.0926
 21
65.4446
  0
LINE
  8
0
 10
53.0926
 20
65.4446
 11
52.1558
 21
67.7545
  0
LINE
  8
0
 10
52.1558
 20
67.7545
 11
51.45
 21
70.1451
  0
LINE
  8
0
 10
51.45
 20
70.1451
 11
50.9818
 21
72.5934
  0
LINE
  8
0
 10
50.9818
 20
72.5934
 11
50.7559
 21
75.0758
  0
LINE
  8
0
 10
59.2697
 20
20.7407
 11
59.6844
 21
22.3457
  0
LINE
  8
0
 10
59.6844
 20
22.3457
 11
60.5004
 21
23.7886
  0
LINE
  8
0
 10
60.5004
 20
23.7886
 11
61.662
 21
24.9712
  0
LINE
  8
0
 10
61.662
 20
24.9712
 11
63.0901
 21
25.8129
  0
LINE
  8
0
 10
63.0901
 20
25.8129
 11
64.6874
 21
26.2562
  0
LINE
  8
0
 10
64.6874
 20
26.2562
 11
66.345
 21
26.2711
  0
LINE
  8
0
 10
66.345
 20
26.2711
 11
67.95
 21
25.8564
  0
LINE
  8
0
 10
67.95
 20
25.8564
 11
69.393
 21
25.0404
  0
LINE
  8
0
 10
69.393
 20
25.0404
 11
70.5756
 21
23.8788
  0
LINE
  8
0
 10
70.5756
 20
23.8788
 11
71.4172
 21
22.4506
  0
LINE
  8
0
 10
71.4172
 20
22.4506
 11
71.8606
 21
20.8533
  0
LINE
  8
0
 10
71.8606
 20
20.8533
 11
71.8754
 21
19.1957
  0
LINE
  8
0
 10
71.8754
 20
19.1957
 11
71.4607
 21
17.5908
  0
LINE
  8
0
 10
71.4607
 20
17.5908
 11
70.6447
 21
16.1478
  0
LINE
  8
0
 10
70.6447
 20
16.1478
 11
69.4831
 21
14.9652
  0
LINE
  8
0
 10
69.4831
 20
14.9652
 11
68.055
 21
14.1236
  0
LINE
  8
0
 10
68.055
 20
14.1236
 11
66.4577
 21
13.6802
  0
LINE
  8
0
 10
66.4577
 20
13.6802
 11
64.8
 21
13.6654
  0
LINE
  8
0
 10
64.8
 20
13.6654
 11
63.1951
 21
14.0801
  0
LINE
  8
0
 10
63.1951
 20
14.0801
 11
61.7521
 21
14.8961
  0
LINE
  8
0
 10
61.7521
 20
14.8961
 11
60.5695
 21
16.0577
  0
LINE
  8
0
 10
60.5695
 20
16.0577
 11
59.7279
 21
17.4858
  0
LINE
  8
0
 10
59.7279
 20
17.4858
 11
59.2845
 21
19.0831
  0
LINE
  8
0
 10
59.2845
 20
19.0831
 11
59.2697
 21
20.7407
  0
LINE
  8
0
 10
74.9675
 20
133.825
 11
75.3822
 21
135.43
  0
LINE
  8
0
 10
75.3822
 20
135.43
 11
76.1982
 21
136.873
  0
LINE
  8
0
 10
76.1982
 20
136.873
 11
77.3598
 21
138.056
  0
LINE
  8
0
 10
77.3598
 20
138.056
 11
78.7879
 21
138.897
  0
LINE
  8
0
 10
78.7879
 20
138.897
 11
80.3852
 21
139.341
  0
LINE
  8
0
 10
80.3852
 20
139.341
 11
82.0428
 21
139.355
  0
LINE
  8
0
 10
82.0428
 20
139.355
 11
83.6478
 21
138.941
  0
LINE
  8
0
 10
83.6478
 20
138.941
 11
85.0908
 21
138.125
  0
LINE
  8
0
 10
85.0908
 20
138.125
 11
86.2734
 21
136.963
  0
LINE
  8
0
 10
86.2734
 20
136.963
 11
87.115
 21
135.535
  0
LINE
  8
0
 10
87.115
 20
135.535
 11
87.5583
 21
133.938
  0
LINE
  8
0
 10
87.5583
 20
133.938
 11
87.5732
 21
132.28
  0
LINE
  8
0
 10
87.5732
 20
132.28
 11
87.1585
 21
130.675
  0
LINE
  8
0
 10
87.1585
 20
130.675
 11
86.3425
 21
129.232
  0
LINE
  8
0
 10
86.3425
 20
129.232
 11
85.1809
 21
128.05
  0
LINE
  8
0
 10
85.1809
 20
128.05
 11
83.7528
 21
127.208
  0
LINE
  8
0
 10
83.7528
 20
127.208
 11
82.1555
 21
126.765
  0
LINE
  8
0
 10
82.1555
 20
126.765
 11
80.4978
 21
126.75
  0
LINE
  8
0
 10
80.4978
 20
126.75
 11
78.8929
 21
127.164
  0
LINE
  8
0
 10
78.8929
 20
127.164
 11
77.4499
 21
127.98
  0
LINE
  8
0
 10
77.4499
 20
127.98
 11
76.2673
 21
129.142
  0
LINE
  8
0
 10
76.2673
 20
129.142
 11
75.4257
 21
130.57
  0
LINE
  8
0
 10
75.4257
 20
130.57
 11
74.9823
 21
132.167
  0
LINE
  8
0
 10
74.9823
 20
132.167
 11
74.9675
 21
133.825
  0
LINE
  8
0
 10
120.899
 20
102.562
 11
121.313
 21
104.167
  0
LINE
  8
0
 10
121.313
 20
104.167
 11
122.129
 21
105.61
  0
LINE
  8
0
 10
122.129
 20
105.61
 11
123.291
 21
106.793
  0
LINE
  8
0
 10
123.291
 20
106.793
 11
124.719
 21
107.634
  0
LINE
  8
0
 10
124.719
 20
107.634
 11
126.316
 21
108.078
  0
LINE
  8
0
 10
126.316
 20
108.078
 11
127.974
 21
108.093
  0
LINE
  8
0
 10
127.974
 20
108.093
 11
129.579
 21
107.678
  0
LINE
  8
0
 10
129.579
 20
107.678
 11
131.022
 21
106.862
  0
LINE
  8
0
 10
131.022
 20
106.862
 11
132.205
 21
105.7
  0
LINE
  8
0
 10
132.205
 20
105.7
 11
133.046
 21
104.272
  0
LINE
  8
0
 10
133.046
 20
104.272
 11
133.489
 21
102.675
  0
LINE
  8
0
 10
133.489
 20
102.675
 11
133.504
 21
101.017
  0
LINE
  8
0
 10
133.504
 20
101.017
 11
133.09
 21
99.4122
  0
LINE
  8
0
 10
133.09
 20
99.4122
 11
132.274
 21
97.9693
  0
LINE
  8
0
 10
132.274
 20
97.9693
 11
131.112
 21
96.7867
  0
LINE
  8
0
 10
131.112
 20
96.7867
 11
129.684
 21
95.945
  0
LINE
  8
0
 10
129.684
 20
95.945
 11
128.087
 21
95.5017
  0
LINE
  8
0
 10
128.087
 20
95.5017
 11
126.429
 21
95.4869
  0
LINE
  8
0
 10
126.429
 20
95.4869
 11
124.824
 21
95.9016
  0
LINE
  8
0
 10
124.824
 20
95.9016
 11
123.381
 21
96.7175
  0
LINE
  8
0
 10
123.381
 20
96.7175
 11
122.198
 21
97.8792
  0
LINE
  8
0
 10
122.198
 20
97.8792
 11
121.357
 21
99.3073
  0
LINE
  8
0
 10
121.357
 20
99.3073
 11
120.913
 21
100.905
  0
LINE
  8
0
 10
120.913
 20
100.905
 11
120.899
 21
102.562
  0
ENDSEC
  0
SECTION
  2
OBJECTS
  0
DICTIONARY
  0
ENDSEC
  0
EOF
