  0
SECTION
  2
BLOCKS
  0
ENDSEC
  0
SECTION
  2
ENTITIES
  0
LINE
  8
0
 10
5.72205e-07
 20
50
 11
6.35
 21
50
  0
LINE
  8
0
 10
6.35
 20
50
 11
6.35
 21
0
  0
LINE
  8
0
 10
6.35
 20
0
 11
56.35
 21
0
  0
LINE
  8
0
 10
56.35
 20
0
 11
56.35
 21
6.35
  0
LINE
  8
0
 10
56.35
 20
6.35
 11
106.35
 21
6.35
  0
LINE
  8
0
 10
106.35
 20
6.35
 11
106.35
 21
0
  0
LINE
  8
0
 10
106.35
 20
0
 11
206.35
 21
0
  0
LINE
  8
0
 10
206.35
 20
0
 11
206.35
 21
6.35
  0
LINE
  8
0
 10
206.35
 20
6.35
 11
256.35
 21
6.35
  0
LINE
  8
0
 10
256.35
 20
6.35
 11
256.35
 21
0
  0
LINE
  8
0
 10
256.35
 20
0
 11
356.35
 21
0
  0
LINE
  8
0
 10
356.35
 20
0
 11
356.35
 21
6.35
  0
LINE
  8
0
 10
356.35
 20
6.35
 11
406.35
 21
6.35
  0
LINE
  8
0
 10
406.35
 20
6.35
 11
406.35
 21
0
  0
LINE
  8
0
 10
406.35
 20
0
 11
506.35
 21
0
  0
LINE
  8
0
 10
506.35
 20
0
 11
506.35
 21
6.35
  0
LINE
  8
0
 10
506.35
 20
6.35
 11
556.35
 21
6.35
  0
LINE
  8
0
 10
556.35
 20
6.35
 11
556.35
 21
0
  0
LINE
  8
0
 10
556.35
 20
0
 11
656.35
 21
0
  0
LINE
  8
0
 10
656.35
 20
0
 11
656.35
 21
6.35
  0
LINE
  8
0
 10
656.35
 20
6.35
 11
706.35
 21
6.35
  0
LINE
  8
0
 10
706.35
 20
6.35
 11
706.35
 21
0
  0
LINE
  8
0
 10
706.35
 20
0
 11
806.35
 21
0
  0
LINE
  8
0
 10
806.35
 20
0
 11
806.35
 21
6.35
  0
LINE
  8
0
 10
806.35
 20
6.35
 11
856.35
 21
6.35
  0
LINE
  8
0
 10
856.35
 20
6.35
 11
856.35
 21
0
  0
LINE
  8
0
 10
856.35
 20
0
 11
956.35
 21
0
  0
LINE
  8
0
 10
956.35
 20
0
 11
956.35
 21
6.35
  0
LINE
  8
0
 10
956.35
 20
6.35
 11
1006.35
 21
6.35
  0
LINE
  8
0
 10
1006.35
 20
6.35
 11
1006.35
 21
0
  0
LINE
  8
0
 10
1006.35
 20
0
 11
1106.35
 21
0
  0
LINE
  8
0
 10
1106.35
 20
0
 11
1106.35
 21
50
  0
LINE
  8
0
 10
1106.35
 20
50
 11
1112.7
 21
50
  0
LINE
  8
0
 10
1112.7
 20
50
 11
1112.7
 21
100
  0
LINE
  8
0
 10
1112.7
 20
100
 11
1106.35
 21
100
  0
LINE
  8
0
 10
1106.35
 20
100
 11
1106.35
 21
200
  0
LINE
  8
0
 10
1106.35
 20
200
 11
1112.7
 21
200
  0
LINE
  8
0
 10
1112.7
 20
200
 11
1112.7
 21
250
  0
LINE
  8
0
 10
1112.7
 20
250
 11
1106.35
 21
250
  0
LINE
  8
0
 10
1106.35
 20
250
 11
1106.35
 21
350
  0
LINE
  8
0
 10
1106.35
 20
350
 11
1112.7
 21
350
  0
LINE
  8
0
 10
1112.7
 20
350
 11
1112.7
 21
400
  0
LINE
  8
0
 10
1112.7
 20
400
 11
1106.35
 21
400
  0
LINE
  8
0
 10
1106.35
 20
400
 11
1106.35
 21
450
  0
LINE
  8
0
 10
1106.35
 20
450
 11
6.35
 21
450
  0
LINE
  8
0
 10
6.35
 20
450
 11
6.35
 21
400
  0
LINE
  8
0
 10
6.35
 20
400
 11
5.72205e-07
 21
400
  0
LINE
  8
0
 10
5.72205e-07
 20
400
 11
5.72205e-07
 21
350
  0
LINE
  8
0
 10
5.72205e-07
 20
350
 11
6.35
 21
350
  0
LINE
  8
0
 10
6.35
 20
350
 11
6.35
 21
250
  0
LINE
  8
0
 10
6.35
 20
250
 11
5.72205e-07
 21
250
  0
LINE
  8
0
 10
5.72205e-07
 20
250
 11
5.72205e-07
 21
200
  0
LINE
  8
0
 10
5.72205e-07
 20
200
 11
6.35
 21
200
  0
LINE
  8
0
 10
6.35
 20
200
 11
6.35
 21
100
  0
LINE
  8
0
 10
6.35
 20
100
 11
5.72205e-07
 21
100
  0
LINE
  8
0
 10
5.72205e-07
 20
100
 11
5.72205e-07
 21
50
  0
ENDSEC
  0
SECTION
  2
OBJECTS
  0
DICTIONARY
  0
ENDSEC
  0
EOF
