  0
SECTION
  2
HEADER
  9
$ACADVER
  1
AC1009
  9
$INSUNITS
 70
4
  9
$MEASUREMENT
 70
1
  0
ENDSEC
  0
SECTION
  2
BLOCKS
  0
ENDSEC
  0
SECTION
  2
ENTITIES
  0
LINE
  8
0
 10
5.72205e-07
 20
56.35
 11
6.35
 21
56.35
  0
LINE
  8
0
 10
6.35
 20
56.35
 11
6.35
 21
6.35
  0
LINE
  8
0
 10
6.35
 20
6.35
 11
106.35
 21
6.35
  0
LINE
  8
0
 10
106.35
 20
6.35
 11
106.35
 21
0
  0
LINE
  8
0
 10
106.35
 20
0
 11
156.35
 21
0
  0
LINE
  8
0
 10
156.35
 20
0
 11
156.35
 21
6.35
  0
LINE
  8
0
 10
156.35
 20
6.35
 11
256.35
 21
6.35
  0
LINE
  8
0
 10
256.35
 20
6.35
 11
256.35
 21
0
  0
LINE
  8
0
 10
256.35
 20
0
 11
306.35
 21
0
  0
LINE
  8
0
 10
306.35
 20
0
 11
306.35
 21
6.35
  0
LINE
  8
0
 10
306.35
 20
6.35
 11
406.35
 21
6.35
  0
LINE
  8
0
 10
406.35
 20
6.35
 11
406.35
 21
0
  0
LINE
  8
0
 10
406.35
 20
0
 11
456.35
 21
0
  0
LINE
  8
0
 10
456.35
 20
0
 11
456.35
 21
6.35
  0
LINE
  8
0
 10
456.35
 20
6.35
 11
556.35
 21
6.35
  0
LINE
  8
0
 10
556.35
 20
6.35
 11
556.35
 21
0
  0
LINE
  8
0
 10
556.35
 20
0
 11
606.35
 21
0
  0
LINE
  8
0
 10
606.35
 20
0
 11
606.35
 21
6.35
  0
LINE
  8
0
 10
606.35
 20
6.35
 11
706.35
 21
6.35
  0
LINE
  8
0
 10
706.35
 20
6.35
 11
706.35
 21
0
  0
LINE
  8
0
 10
706.35
 20
0
 11
756.35
 21
0
  0
LINE
  8
0
 10
756.35
 20
0
 11
756.35
 21
6.35
  0
LINE
  8
0
 10
756.35
 20
6.35
 11
856.35
 21
6.35
  0
LINE
  8
0
 10
856.35
 20
6.35
 11
856.35
 21
0
  0
LINE
  8
0
 10
856.35
 20
0
 11
906.35
 21
0
  0
LINE
  8
0
 10
906.35
 20
0
 11
906.35
 21
6.35
  0
LINE
  8
0
 10
906.35
 20
6.35
 11
1006.35
 21
6.35
  0
LINE
  8
0
 10
1006.35
 20
6.35
 11
1006.35
 21
0
  0
LINE
  8
0
 10
1006.35
 20
0
 11
1056.35
 21
0
  0
LINE
  8
0
 10
1056.35
 20
0
 11
1056.35
 21
6.35
  0
LINE
  8
0
 10
1056.35
 20
6.35
 11
1106.35
 21
6.35
  0
LINE
  8
0
 10
1106.35
 20
6.35
 11
1106.35
 21
56.35
  0
LINE
  8
0
 10
1106.35
 20
56.35
 11
1112.7
 21
56.35
  0
LINE
  8
0
 10
1112.7
 20
56.35
 11
1112.7
 21
106.35
  0
LINE
  8
0
 10
1112.7
 20
106.35
 11
1106.35
 21
106.35
  0
LINE
  8
0
 10
1106.35
 20
106.35
 11
1106.35
 21
206.35
  0
LINE
  8
0
 10
1106.35
 20
206.35
 11
1112.7
 21
206.35
  0
LINE
  8
0
 10
1112.7
 20
206.35
 11
1112.7
 21
256.35
  0
LINE
  8
0
 10
1112.7
 20
256.35
 11
1106.35
 21
256.35
  0
LINE
  8
0
 10
1106.35
 20
256.35
 11
1106.35
 21
356.35
  0
LINE
  8
0
 10
1106.35
 20
356.35
 11
1112.7
 21
356.35
  0
LINE
  8
0
 10
1112.7
 20
356.35
 11
1112.7
 21
406.35
  0
LINE
  8
0
 10
1112.7
 20
406.35
 11
1106.35
 21
406.35
  0
LINE
  8
0
 10
1106.35
 20
406.35
 11
1106.35
 21
506.35
  0
LINE
  8
0
 10
1106.35
 20
506.35
 11
1112.7
 21
506.35
  0
LINE
  8
0
 10
1112.7
 20
506.35
 11
1112.7
 21
556.35
  0
LINE
  8
0
 10
1112.7
 20
556.35
 11
1106.35
 21
556.35
  0
LINE
  8
0
 10
1106.35
 20
556.35
 11
1106.35
 21
600
  0
LINE
  8
0
 10
1106.35
 20
600
 11
6.35
 21
600
  0
LINE
  8
0
 10
6.35
 20
600
 11
6.35
 21
556.35
  0
LINE
  8
0
 10
6.35
 20
556.35
 11
5.72205e-07
 21
556.35
  0
LINE
  8
0
 10
5.72205e-07
 20
556.35
 11
5.72205e-07
 21
506.35
  0
LINE
  8
0
 10
5.72205e-07
 20
506.35
 11
6.35
 21
506.35
  0
LINE
  8
0
 10
6.35
 20
506.35
 11
6.35
 21
406.35
  0
LINE
  8
0
 10
6.35
 20
406.35
 11
5.72205e-07
 21
406.35
  0
LINE
  8
0
 10
5.72205e-07
 20
406.35
 11
5.72205e-07
 21
356.35
  0
LINE
  8
0
 10
5.72205e-07
 20
356.35
 11
6.35
 21
356.35
  0
LINE
  8
0
 10
6.35
 20
356.35
 11
6.35
 21
256.35
  0
LINE
  8
0
 10
6.35
 20
256.35
 11
5.72205e-07
 21
256.35
  0
LINE
  8
0
 10
5.72205e-07
 20
256.35
 11
5.72205e-07
 21
206.35
  0
LINE
  8
0
 10
5.72205e-07
 20
206.35
 11
6.35
 21
206.35
  0
LINE
  8
0
 10
6.35
 20
206.35
 11
6.35
 21
106.35
  0
LINE
  8
0
 10
6.35
 20
106.35
 11
5.72205e-07
 21
106.35
  0
LINE
  8
0
 10
5.72205e-07
 20
106.35
 11
5.72205e-07
 21
56.35
  0
ENDSEC
  0
SECTION
  2
OBJECTS
  0
DICTIONARY
  0
ENDSEC
  0
EOF
