  0
SECTION
  2
HEADER
  9
$ACADVER
  1
AC1009
  9
$INSUNITS
 70
4
  9
$MEASUREMENT
 70
1
  0
ENDSEC
  0
SECTION
  2
BLOCKS
  0
ENDSEC
  0
SECTION
  2
ENTITIES
  0
LINE
  8
0
 10
3.8147e-07
 20
0
 11
735.55
 21
0
  0
LINE
  8
0
 10
735.55
 20
0
 11
735.55
 21
400
  0
LINE
  8
0
 10
735.55
 20
400
 11
3.8147e-07
 21
400
  0
LINE
  8
0
 10
3.8147e-07
 20
400
 11
3.8147e-07
 21
0
  0
LINE
  8
0
 10
14.875
 20
110.2
 11
15.0162
 21
111.634
  0
LINE
  8
0
 10
15.0162
 20
111.634
 11
15.4345
 21
113.013
  0
LINE
  8
0
 10
15.4345
 20
113.013
 11
16.1137
 21
114.283
  0
LINE
  8
0
 10
16.1137
 20
114.283
 11
17.0278
 21
115.397
  0
LINE
  8
0
 10
17.0278
 20
115.397
 11
18.1416
 21
116.311
  0
LINE
  8
0
 10
18.1416
 20
116.311
 11
19.4123
 21
116.991
  0
LINE
  8
0
 10
19.4123
 20
116.991
 11
20.7911
 21
117.409
  0
LINE
  8
0
 10
20.7911
 20
117.409
 11
22.225
 21
117.55
  0
LINE
  8
0
 10
22.225
 20
117.55
 11
23.6589
 21
117.409
  0
LINE
  8
0
 10
23.6589
 20
117.409
 11
25.0377
 21
116.991
  0
LINE
  8
0
 10
25.0377
 20
116.991
 11
26.3084
 21
116.311
  0
LINE
  8
0
 10
26.3084
 20
116.311
 11
27.4222
 21
115.397
  0
LINE
  8
0
 10
27.4222
 20
115.397
 11
28.3363
 21
114.283
  0
LINE
  8
0
 10
28.3363
 20
114.283
 11
29.0155
 21
113.013
  0
LINE
  8
0
 10
29.0155
 20
113.013
 11
29.4338
 21
111.634
  0
LINE
  8
0
 10
29.4338
 20
111.634
 11
29.575
 21
110.2
  0
LINE
  8
0
 10
29.575
 20
110.2
 11
29.4338
 21
108.766
  0
LINE
  8
0
 10
29.4338
 20
108.766
 11
29.0155
 21
107.387
  0
LINE
  8
0
 10
29.0155
 20
107.387
 11
28.3363
 21
106.117
  0
LINE
  8
0
 10
28.3363
 20
106.117
 11
27.4222
 21
105.003
  0
LINE
  8
0
 10
27.4222
 20
105.003
 11
26.3084
 21
104.089
  0
LINE
  8
0
 10
26.3084
 20
104.089
 11
25.0377
 21
103.409
  0
LINE
  8
0
 10
25.0377
 20
103.409
 11
23.6589
 21
102.991
  0
LINE
  8
0
 10
23.6589
 20
102.991
 11
22.225
 21
102.85
  0
LINE
  8
0
 10
22.225
 20
102.85
 11
20.7911
 21
102.991
  0
LINE
  8
0
 10
20.7911
 20
102.991
 11
19.4123
 21
103.409
  0
LINE
  8
0
 10
19.4123
 20
103.409
 11
18.1416
 21
104.089
  0
LINE
  8
0
 10
18.1416
 20
104.089
 11
17.0278
 21
105.003
  0
LINE
  8
0
 10
17.0278
 20
105.003
 11
16.1137
 21
106.117
  0
LINE
  8
0
 10
16.1137
 20
106.117
 11
15.4345
 21
107.387
  0
LINE
  8
0
 10
15.4345
 20
107.387
 11
15.0162
 21
108.766
  0
LINE
  8
0
 10
15.0162
 20
108.766
 11
14.875
 21
110.2
  0
LINE
  8
0
 10
14.875
 20
289.8
 11
15.0162
 21
291.234
  0
LINE
  8
0
 10
15.0162
 20
291.234
 11
15.4345
 21
292.613
  0
LINE
  8
0
 10
15.4345
 20
292.613
 11
16.1137
 21
293.883
  0
LINE
  8
0
 10
16.1137
 20
293.883
 11
17.0278
 21
294.997
  0
LINE
  8
0
 10
17.0278
 20
294.997
 11
18.1416
 21
295.911
  0
LINE
  8
0
 10
18.1416
 20
295.911
 11
19.4123
 21
296.591
  0
LINE
  8
0
 10
19.4123
 20
296.591
 11
20.7911
 21
297.009
  0
LINE
  8
0
 10
20.7911
 20
297.009
 11
22.225
 21
297.15
  0
LINE
  8
0
 10
22.225
 20
297.15
 11
23.6589
 21
297.009
  0
LINE
  8
0
 10
23.6589
 20
297.009
 11
25.0377
 21
296.591
  0
LINE
  8
0
 10
25.0377
 20
296.591
 11
26.3084
 21
295.911
  0
LINE
  8
0
 10
26.3084
 20
295.911
 11
27.4222
 21
294.997
  0
LINE
  8
0
 10
27.4222
 20
294.997
 11
28.3363
 21
293.883
  0
LINE
  8
0
 10
28.3363
 20
293.883
 11
29.0155
 21
292.613
  0
LINE
  8
0
 10
29.0155
 20
292.613
 11
29.4338
 21
291.234
  0
LINE
  8
0
 10
29.4338
 20
291.234
 11
29.575
 21
289.8
  0
LINE
  8
0
 10
29.575
 20
289.8
 11
29.4338
 21
288.366
  0
LINE
  8
0
 10
29.4338
 20
288.366
 11
29.0155
 21
286.987
  0
LINE
  8
0
 10
29.0155
 20
286.987
 11
28.3363
 21
285.717
  0
LINE
  8
0
 10
28.3363
 20
285.717
 11
27.4222
 21
284.603
  0
LINE
  8
0
 10
27.4222
 20
284.603
 11
26.3084
 21
283.689
  0
LINE
  8
0
 10
26.3084
 20
283.689
 11
25.0377
 21
283.009
  0
LINE
  8
0
 10
25.0377
 20
283.009
 11
23.6589
 21
282.591
  0
LINE
  8
0
 10
23.6589
 20
282.591
 11
22.225
 21
282.45
  0
LINE
  8
0
 10
22.225
 20
282.45
 11
20.7911
 21
282.591
  0
LINE
  8
0
 10
20.7911
 20
282.591
 11
19.4123
 21
283.009
  0
LINE
  8
0
 10
19.4123
 20
283.009
 11
18.1416
 21
283.689
  0
LINE
  8
0
 10
18.1416
 20
283.689
 11
17.0278
 21
284.603
  0
LINE
  8
0
 10
17.0278
 20
284.603
 11
16.1137
 21
285.717
  0
LINE
  8
0
 10
16.1137
 20
285.717
 11
15.4345
 21
286.987
  0
LINE
  8
0
 10
15.4345
 20
286.987
 11
15.0162
 21
288.366
  0
LINE
  8
0
 10
15.0162
 20
288.366
 11
14.875
 21
289.8
  0
LINE
  8
0
 10
69.38
 20
38.1
 11
69.5212
 21
39.5339
  0
LINE
  8
0
 10
69.5212
 20
39.5339
 11
69.9395
 21
40.9127
  0
LINE
  8
0
 10
69.9395
 20
40.9127
 11
70.6187
 21
42.1834
  0
LINE
  8
0
 10
70.6187
 20
42.1834
 11
71.5328
 21
43.2972
  0
LINE
  8
0
 10
71.5328
 20
43.2972
 11
72.6466
 21
44.2113
  0
LINE
  8
0
 10
72.6466
 20
44.2113
 11
73.9173
 21
44.8905
  0
LINE
  8
0
 10
73.9173
 20
44.8905
 11
75.2961
 21
45.3088
  0
LINE
  8
0
 10
75.2961
 20
45.3088
 11
76.73
 21
45.45
  0
LINE
  8
0
 10
76.73
 20
45.45
 11
78.1639
 21
45.3088
  0
LINE
  8
0
 10
78.1639
 20
45.3088
 11
79.5427
 21
44.8905
  0
LINE
  8
0
 10
79.5427
 20
44.8905
 11
80.8134
 21
44.2113
  0
LINE
  8
0
 10
80.8134
 20
44.2113
 11
81.9272
 21
43.2972
  0
LINE
  8
0
 10
81.9272
 20
43.2972
 11
82.8413
 21
42.1834
  0
LINE
  8
0
 10
82.8413
 20
42.1834
 11
83.5205
 21
40.9127
  0
LINE
  8
0
 10
83.5205
 20
40.9127
 11
83.9388
 21
39.5339
  0
LINE
  8
0
 10
83.9388
 20
39.5339
 11
84.08
 21
38.1
  0
LINE
  8
0
 10
84.08
 20
38.1
 11
83.9388
 21
36.6661
  0
LINE
  8
0
 10
83.9388
 20
36.6661
 11
83.5205
 21
35.2873
  0
LINE
  8
0
 10
83.5205
 20
35.2873
 11
82.8413
 21
34.0166
  0
LINE
  8
0
 10
82.8413
 20
34.0166
 11
81.9272
 21
32.9028
  0
LINE
  8
0
 10
81.9272
 20
32.9028
 11
80.8134
 21
31.9887
  0
LINE
  8
0
 10
80.8134
 20
31.9887
 11
79.5427
 21
31.3095
  0
LINE
  8
0
 10
79.5427
 20
31.3095
 11
78.1639
 21
30.8912
  0
LINE
  8
0
 10
78.1639
 20
30.8912
 11
76.73
 21
30.75
  0
LINE
  8
0
 10
76.73
 20
30.75
 11
75.2961
 21
30.8912
  0
LINE
  8
0
 10
75.2961
 20
30.8912
 11
73.9173
 21
31.3095
  0
LINE
  8
0
 10
73.9173
 20
31.3095
 11
72.6466
 21
31.9887
  0
LINE
  8
0
 10
72.6466
 20
31.9887
 11
71.5328
 21
32.9028
  0
LINE
  8
0
 10
71.5328
 20
32.9028
 11
70.6187
 21
34.0166
  0
LINE
  8
0
 10
70.6187
 20
34.0166
 11
69.9395
 21
35.2873
  0
LINE
  8
0
 10
69.9395
 20
35.2873
 11
69.5212
 21
36.6661
  0
LINE
  8
0
 10
69.5212
 20
36.6661
 11
69.38
 21
38.1
  0
LINE
  8
0
 10
69.38
 20
361.9
 11
69.5212
 21
363.334
  0
LINE
  8
0
 10
69.5212
 20
363.334
 11
69.9395
 21
364.713
  0
LINE
  8
0
 10
69.9395
 20
364.713
 11
70.6187
 21
365.983
  0
LINE
  8
0
 10
70.6187
 20
365.983
 11
71.5328
 21
367.097
  0
LINE
  8
0
 10
71.5328
 20
367.097
 11
72.6466
 21
368.011
  0
LINE
  8
0
 10
72.6466
 20
368.011
 11
73.9173
 21
368.691
  0
LINE
  8
0
 10
73.9173
 20
368.691
 11
75.2961
 21
369.109
  0
LINE
  8
0
 10
75.2961
 20
369.109
 11
76.73
 21
369.25
  0
LINE
  8
0
 10
76.73
 20
369.25
 11
78.1639
 21
369.109
  0
LINE
  8
0
 10
78.1639
 20
369.109
 11
79.5427
 21
368.691
  0
LINE
  8
0
 10
79.5427
 20
368.691
 11
80.8134
 21
368.011
  0
LINE
  8
0
 10
80.8134
 20
368.011
 11
81.9272
 21
367.097
  0
LINE
  8
0
 10
81.9272
 20
367.097
 11
82.8413
 21
365.983
  0
LINE
  8
0
 10
82.8413
 20
365.983
 11
83.5205
 21
364.713
  0
LINE
  8
0
 10
83.5205
 20
364.713
 11
83.9388
 21
363.334
  0
LINE
  8
0
 10
83.9388
 20
363.334
 11
84.08
 21
361.9
  0
LINE
  8
0
 10
84.08
 20
361.9
 11
83.9388
 21
360.466
  0
LINE
  8
0
 10
83.9388
 20
360.466
 11
83.5205
 21
359.087
  0
LINE
  8
0
 10
83.5205
 20
359.087
 11
82.8413
 21
357.817
  0
LINE
  8
0
 10
82.8413
 20
357.817
 11
81.9272
 21
356.703
  0
LINE
  8
0
 10
81.9272
 20
356.703
 11
80.8134
 21
355.789
  0
LINE
  8
0
 10
80.8134
 20
355.789
 11
79.5427
 21
355.109
  0
LINE
  8
0
 10
79.5427
 20
355.109
 11
78.1639
 21
354.691
  0
LINE
  8
0
 10
78.1639
 20
354.691
 11
76.73
 21
354.55
  0
LINE
  8
0
 10
76.73
 20
354.55
 11
75.2961
 21
354.691
  0
LINE
  8
0
 10
75.2961
 20
354.691
 11
73.9173
 21
355.109
  0
LINE
  8
0
 10
73.9173
 20
355.109
 11
72.6466
 21
355.789
  0
LINE
  8
0
 10
72.6466
 20
355.789
 11
71.5328
 21
356.703
  0
LINE
  8
0
 10
71.5328
 20
356.703
 11
70.6187
 21
357.817
  0
LINE
  8
0
 10
70.6187
 20
357.817
 11
69.9395
 21
359.087
  0
LINE
  8
0
 10
69.9395
 20
359.087
 11
69.5212
 21
360.466
  0
LINE
  8
0
 10
69.5212
 20
360.466
 11
69.38
 21
361.9
  0
LINE
  8
0
 10
80.275
 20
80
 11
80.5306
 21
81.9411
  0
LINE
  8
0
 10
80.5306
 20
81.9411
 11
81.2798
 21
83.75
  0
LINE
  8
0
 10
81.2798
 20
83.75
 11
82.4717
 21
85.3033
  0
LINE
  8
0
 10
82.4717
 20
85.3033
 11
84.025
 21
86.4952
  0
LINE
  8
0
 10
84.025
 20
86.4952
 11
85.8339
 21
87.2444
  0
LINE
  8
0
 10
85.8339
 20
87.2444
 11
87.775
 21
87.5
  0
LINE
  8
0
 10
87.775
 20
87.5
 11
89.7161
 21
87.2444
  0
LINE
  8
0
 10
89.7161
 20
87.2444
 11
91.525
 21
86.4952
  0
LINE
  8
0
 10
91.525
 20
86.4952
 11
93.0783
 21
85.3033
  0
LINE
  8
0
 10
93.0783
 20
85.3033
 11
94.2702
 21
83.75
  0
LINE
  8
0
 10
94.2702
 20
83.75
 11
95.0194
 21
81.9411
  0
LINE
  8
0
 10
95.0194
 20
81.9411
 11
95.275
 21
80
  0
LINE
  8
0
 10
95.275
 20
80
 11
95.0194
 21
78.0589
  0
LINE
  8
0
 10
95.0194
 20
78.0589
 11
94.2702
 21
76.25
  0
LINE
  8
0
 10
94.2702
 20
76.25
 11
93.0783
 21
74.6967
  0
LINE
  8
0
 10
93.0783
 20
74.6967
 11
91.525
 21
73.5048
  0
LINE
  8
0
 10
91.525
 20
73.5048
 11
89.7161
 21
72.7556
  0
LINE
  8
0
 10
89.7161
 20
72.7556
 11
87.775
 21
72.5
  0
LINE
  8
0
 10
87.775
 20
72.5
 11
85.8339
 21
72.7556
  0
LINE
  8
0
 10
85.8339
 20
72.7556
 11
84.025
 21
73.5048
  0
LINE
  8
0
 10
84.025
 20
73.5048
 11
82.4717
 21
74.6967
  0
LINE
  8
0
 10
82.4717
 20
74.6967
 11
81.2798
 21
76.25
  0
LINE
  8
0
 10
81.2798
 20
76.25
 11
80.5306
 21
78.0589
  0
LINE
  8
0
 10
80.5306
 20
78.0589
 11
80.275
 21
80
  0
LINE
  8
0
 10
80.275
 20
160
 11
80.5306
 21
161.941
  0
LINE
  8
0
 10
80.5306
 20
161.941
 11
81.2798
 21
163.75
  0
LINE
  8
0
 10
81.2798
 20
163.75
 11
82.4717
 21
165.303
  0
LINE
  8
0
 10
82.4717
 20
165.303
 11
84.025
 21
166.495
  0
LINE
  8
0
 10
84.025
 20
166.495
 11
85.8339
 21
167.244
  0
LINE
  8
0
 10
85.8339
 20
167.244
 11
87.775
 21
167.5
  0
LINE
  8
0
 10
87.775
 20
167.5
 11
89.7161
 21
167.244
  0
LINE
  8
0
 10
89.7161
 20
167.244
 11
91.525
 21
166.495
  0
LINE
  8
0
 10
91.525
 20
166.495
 11
93.0783
 21
165.303
  0
LINE
  8
0
 10
93.0783
 20
165.303
 11
94.2702
 21
163.75
  0
LINE
  8
0
 10
94.2702
 20
163.75
 11
95.0194
 21
161.941
  0
LINE
  8
0
 10
95.0194
 20
161.941
 11
95.275
 21
160
  0
LINE
  8
0
 10
95.275
 20
160
 11
95.0194
 21
158.059
  0
LINE
  8
0
 10
95.0194
 20
158.059
 11
94.2702
 21
156.25
  0
LINE
  8
0
 10
94.2702
 20
156.25
 11
93.0783
 21
154.697
  0
LINE
  8
0
 10
93.0783
 20
154.697
 11
91.525
 21
153.505
  0
LINE
  8
0
 10
91.525
 20
153.505
 11
89.7161
 21
152.756
  0
LINE
  8
0
 10
89.7161
 20
152.756
 11
87.775
 21
152.5
  0
LINE
  8
0
 10
87.775
 20
152.5
 11
85.8339
 21
152.756
  0
LINE
  8
0
 10
85.8339
 20
152.756
 11
84.025
 21
153.505
  0
LINE
  8
0
 10
84.025
 20
153.505
 11
82.4717
 21
154.697
  0
LINE
  8
0
 10
82.4717
 20
154.697
 11
81.2798
 21
156.25
  0
LINE
  8
0
 10
81.2798
 20
156.25
 11
80.5306
 21
158.059
  0
LINE
  8
0
 10
80.5306
 20
158.059
 11
80.275
 21
160
  0
LINE
  8
0
 10
80.275
 20
240
 11
80.5306
 21
241.941
  0
LINE
  8
0
 10
80.5306
 20
241.941
 11
81.2798
 21
243.75
  0
LINE
  8
0
 10
81.2798
 20
243.75
 11
82.4717
 21
245.303
  0
LINE
  8
0
 10
82.4717
 20
245.303
 11
84.025
 21
246.495
  0
LINE
  8
0
 10
84.025
 20
246.495
 11
85.8339
 21
247.244
  0
LINE
  8
0
 10
85.8339
 20
247.244
 11
87.775
 21
247.5
  0
LINE
  8
0
 10
87.775
 20
247.5
 11
89.7161
 21
247.244
  0
LINE
  8
0
 10
89.7161
 20
247.244
 11
91.525
 21
246.495
  0
LINE
  8
0
 10
91.525
 20
246.495
 11
93.0783
 21
245.303
  0
LINE
  8
0
 10
93.0783
 20
245.303
 11
94.2702
 21
243.75
  0
LINE
  8
0
 10
94.2702
 20
243.75
 11
95.0194
 21
241.941
  0
LINE
  8
0
 10
95.0194
 20
241.941
 11
95.275
 21
240
  0
LINE
  8
0
 10
95.275
 20
240
 11
95.0194
 21
238.059
  0
LINE
  8
0
 10
95.0194
 20
238.059
 11
94.2702
 21
236.25
  0
LINE
  8
0
 10
94.2702
 20
236.25
 11
93.0783
 21
234.697
  0
LINE
  8
0
 10
93.0783
 20
234.697
 11
91.525
 21
233.505
  0
LINE
  8
0
 10
91.525
 20
233.505
 11
89.7161
 21
232.756
  0
LINE
  8
0
 10
89.7161
 20
232.756
 11
87.775
 21
232.5
  0
LINE
  8
0
 10
87.775
 20
232.5
 11
85.8339
 21
232.756
  0
LINE
  8
0
 10
85.8339
 20
232.756
 11
84.025
 21
233.505
  0
LINE
  8
0
 10
84.025
 20
233.505
 11
82.4717
 21
234.697
  0
LINE
  8
0
 10
82.4717
 20
234.697
 11
81.2798
 21
236.25
  0
LINE
  8
0
 10
81.2798
 20
236.25
 11
80.5306
 21
238.059
  0
LINE
  8
0
 10
80.5306
 20
238.059
 11
80.275
 21
240
  0
LINE
  8
0
 10
80.275
 20
320
 11
80.5306
 21
321.941
  0
LINE
  8
0
 10
80.5306
 20
321.941
 11
81.2798
 21
323.75
  0
LINE
  8
0
 10
81.2798
 20
323.75
 11
82.4717
 21
325.303
  0
LINE
  8
0
 10
82.4717
 20
325.303
 11
84.025
 21
326.495
  0
LINE
  8
0
 10
84.025
 20
326.495
 11
85.8339
 21
327.244
  0
LINE
  8
0
 10
85.8339
 20
327.244
 11
87.775
 21
327.5
  0
LINE
  8
0
 10
87.775
 20
327.5
 11
89.7161
 21
327.244
  0
LINE
  8
0
 10
89.7161
 20
327.244
 11
91.525
 21
326.495
  0
LINE
  8
0
 10
91.525
 20
326.495
 11
93.0783
 21
325.303
  0
LINE
  8
0
 10
93.0783
 20
325.303
 11
94.2702
 21
323.75
  0
LINE
  8
0
 10
94.2702
 20
323.75
 11
95.0194
 21
321.941
  0
LINE
  8
0
 10
95.0194
 20
321.941
 11
95.275
 21
320
  0
LINE
  8
0
 10
95.275
 20
320
 11
95.0194
 21
318.059
  0
LINE
  8
0
 10
95.0194
 20
318.059
 11
94.2702
 21
316.25
  0
LINE
  8
0
 10
94.2702
 20
316.25
 11
93.0783
 21
314.697
  0
LINE
  8
0
 10
93.0783
 20
314.697
 11
91.525
 21
313.505
  0
LINE
  8
0
 10
91.525
 20
313.505
 11
89.7161
 21
312.756
  0
LINE
  8
0
 10
89.7161
 20
312.756
 11
87.775
 21
312.5
  0
LINE
  8
0
 10
87.775
 20
312.5
 11
85.8339
 21
312.756
  0
LINE
  8
0
 10
85.8339
 20
312.756
 11
84.025
 21
313.505
  0
LINE
  8
0
 10
84.025
 20
313.505
 11
82.4717
 21
314.697
  0
LINE
  8
0
 10
82.4717
 20
314.697
 11
81.2798
 21
316.25
  0
LINE
  8
0
 10
81.2798
 20
316.25
 11
80.5306
 21
318.059
  0
LINE
  8
0
 10
80.5306
 20
318.059
 11
80.275
 21
320
  0
LINE
  8
0
 10
160.275
 20
80
 11
160.531
 21
81.9411
  0
LINE
  8
0
 10
160.531
 20
81.9411
 11
161.28
 21
83.75
  0
LINE
  8
0
 10
161.28
 20
83.75
 11
162.472
 21
85.3033
  0
LINE
  8
0
 10
162.472
 20
85.3033
 11
164.025
 21
86.4952
  0
LINE
  8
0
 10
164.025
 20
86.4952
 11
165.834
 21
87.2444
  0
LINE
  8
0
 10
165.834
 20
87.2444
 11
167.775
 21
87.5
  0
LINE
  8
0
 10
167.775
 20
87.5
 11
169.716
 21
87.2444
  0
LINE
  8
0
 10
169.716
 20
87.2444
 11
171.525
 21
86.4952
  0
LINE
  8
0
 10
171.525
 20
86.4952
 11
173.078
 21
85.3033
  0
LINE
  8
0
 10
173.078
 20
85.3033
 11
174.27
 21
83.75
  0
LINE
  8
0
 10
174.27
 20
83.75
 11
175.019
 21
81.9411
  0
LINE
  8
0
 10
175.019
 20
81.9411
 11
175.275
 21
80
  0
LINE
  8
0
 10
175.275
 20
80
 11
175.019
 21
78.0589
  0
LINE
  8
0
 10
175.019
 20
78.0589
 11
174.27
 21
76.25
  0
LINE
  8
0
 10
174.27
 20
76.25
 11
173.078
 21
74.6967
  0
LINE
  8
0
 10
173.078
 20
74.6967
 11
171.525
 21
73.5048
  0
LINE
  8
0
 10
171.525
 20
73.5048
 11
169.716
 21
72.7556
  0
LINE
  8
0
 10
169.716
 20
72.7556
 11
167.775
 21
72.5
  0
LINE
  8
0
 10
167.775
 20
72.5
 11
165.834
 21
72.7556
  0
LINE
  8
0
 10
165.834
 20
72.7556
 11
164.025
 21
73.5048
  0
LINE
  8
0
 10
164.025
 20
73.5048
 11
162.472
 21
74.6967
  0
LINE
  8
0
 10
162.472
 20
74.6967
 11
161.28
 21
76.25
  0
LINE
  8
0
 10
161.28
 20
76.25
 11
160.531
 21
78.0589
  0
LINE
  8
0
 10
160.531
 20
78.0589
 11
160.275
 21
80
  0
LINE
  8
0
 10
160.275
 20
160
 11
160.531
 21
161.941
  0
LINE
  8
0
 10
160.531
 20
161.941
 11
161.28
 21
163.75
  0
LINE
  8
0
 10
161.28
 20
163.75
 11
162.472
 21
165.303
  0
LINE
  8
0
 10
162.472
 20
165.303
 11
164.025
 21
166.495
  0
LINE
  8
0
 10
164.025
 20
166.495
 11
165.834
 21
167.244
  0
LINE
  8
0
 10
165.834
 20
167.244
 11
167.775
 21
167.5
  0
LINE
  8
0
 10
167.775
 20
167.5
 11
169.716
 21
167.244
  0
LINE
  8
0
 10
169.716
 20
167.244
 11
171.525
 21
166.495
  0
LINE
  8
0
 10
171.525
 20
166.495
 11
173.078
 21
165.303
  0
LINE
  8
0
 10
173.078
 20
165.303
 11
174.27
 21
163.75
  0
LINE
  8
0
 10
174.27
 20
163.75
 11
175.019
 21
161.941
  0
LINE
  8
0
 10
175.019
 20
161.941
 11
175.275
 21
160
  0
LINE
  8
0
 10
175.275
 20
160
 11
175.019
 21
158.059
  0
LINE
  8
0
 10
175.019
 20
158.059
 11
174.27
 21
156.25
  0
LINE
  8
0
 10
174.27
 20
156.25
 11
173.078
 21
154.697
  0
LINE
  8
0
 10
173.078
 20
154.697
 11
171.525
 21
153.505
  0
LINE
  8
0
 10
171.525
 20
153.505
 11
169.716
 21
152.756
  0
LINE
  8
0
 10
169.716
 20
152.756
 11
167.775
 21
152.5
  0
LINE
  8
0
 10
167.775
 20
152.5
 11
165.834
 21
152.756
  0
LINE
  8
0
 10
165.834
 20
152.756
 11
164.025
 21
153.505
  0
LINE
  8
0
 10
164.025
 20
153.505
 11
162.472
 21
154.697
  0
LINE
  8
0
 10
162.472
 20
154.697
 11
161.28
 21
156.25
  0
LINE
  8
0
 10
161.28
 20
156.25
 11
160.531
 21
158.059
  0
LINE
  8
0
 10
160.531
 20
158.059
 11
160.275
 21
160
  0
LINE
  8
0
 10
160.275
 20
240
 11
160.531
 21
241.941
  0
LINE
  8
0
 10
160.531
 20
241.941
 11
161.28
 21
243.75
  0
LINE
  8
0
 10
161.28
 20
243.75
 11
162.472
 21
245.303
  0
LINE
  8
0
 10
162.472
 20
245.303
 11
164.025
 21
246.495
  0
LINE
  8
0
 10
164.025
 20
246.495
 11
165.834
 21
247.244
  0
LINE
  8
0
 10
165.834
 20
247.244
 11
167.775
 21
247.5
  0
LINE
  8
0
 10
167.775
 20
247.5
 11
169.716
 21
247.244
  0
LINE
  8
0
 10
169.716
 20
247.244
 11
171.525
 21
246.495
  0
LINE
  8
0
 10
171.525
 20
246.495
 11
173.078
 21
245.303
  0
LINE
  8
0
 10
173.078
 20
245.303
 11
174.27
 21
243.75
  0
LINE
  8
0
 10
174.27
 20
243.75
 11
175.019
 21
241.941
  0
LINE
  8
0
 10
175.019
 20
241.941
 11
175.275
 21
240
  0
LINE
  8
0
 10
175.275
 20
240
 11
175.019
 21
238.059
  0
LINE
  8
0
 10
175.019
 20
238.059
 11
174.27
 21
236.25
  0
LINE
  8
0
 10
174.27
 20
236.25
 11
173.078
 21
234.697
  0
LINE
  8
0
 10
173.078
 20
234.697
 11
171.525
 21
233.505
  0
LINE
  8
0
 10
171.525
 20
233.505
 11
169.716
 21
232.756
  0
LINE
  8
0
 10
169.716
 20
232.756
 11
167.775
 21
232.5
  0
LINE
  8
0
 10
167.775
 20
232.5
 11
165.834
 21
232.756
  0
LINE
  8
0
 10
165.834
 20
232.756
 11
164.025
 21
233.505
  0
LINE
  8
0
 10
164.025
 20
233.505
 11
162.472
 21
234.697
  0
LINE
  8
0
 10
162.472
 20
234.697
 11
161.28
 21
236.25
  0
LINE
  8
0
 10
161.28
 20
236.25
 11
160.531
 21
238.059
  0
LINE
  8
0
 10
160.531
 20
238.059
 11
160.275
 21
240
  0
LINE
  8
0
 10
160.275
 20
320
 11
160.531
 21
321.941
  0
LINE
  8
0
 10
160.531
 20
321.941
 11
161.28
 21
323.75
  0
LINE
  8
0
 10
161.28
 20
323.75
 11
162.472
 21
325.303
  0
LINE
  8
0
 10
162.472
 20
325.303
 11
164.025
 21
326.495
  0
LINE
  8
0
 10
164.025
 20
326.495
 11
165.834
 21
327.244
  0
LINE
  8
0
 10
165.834
 20
327.244
 11
167.775
 21
327.5
  0
LINE
  8
0
 10
167.775
 20
327.5
 11
169.716
 21
327.244
  0
LINE
  8
0
 10
169.716
 20
327.244
 11
171.525
 21
326.495
  0
LINE
  8
0
 10
171.525
 20
326.495
 11
173.078
 21
325.303
  0
LINE
  8
0
 10
173.078
 20
325.303
 11
174.27
 21
323.75
  0
LINE
  8
0
 10
174.27
 20
323.75
 11
175.019
 21
321.941
  0
LINE
  8
0
 10
175.019
 20
321.941
 11
175.275
 21
320
  0
LINE
  8
0
 10
175.275
 20
320
 11
175.019
 21
318.059
  0
LINE
  8
0
 10
175.019
 20
318.059
 11
174.27
 21
316.25
  0
LINE
  8
0
 10
174.27
 20
316.25
 11
173.078
 21
314.697
  0
LINE
  8
0
 10
173.078
 20
314.697
 11
171.525
 21
313.505
  0
LINE
  8
0
 10
171.525
 20
313.505
 11
169.716
 21
312.756
  0
LINE
  8
0
 10
169.716
 20
312.756
 11
167.775
 21
312.5
  0
LINE
  8
0
 10
167.775
 20
312.5
 11
165.834
 21
312.756
  0
LINE
  8
0
 10
165.834
 20
312.756
 11
164.025
 21
313.505
  0
LINE
  8
0
 10
164.025
 20
313.505
 11
162.472
 21
314.697
  0
LINE
  8
0
 10
162.472
 20
314.697
 11
161.28
 21
316.25
  0
LINE
  8
0
 10
161.28
 20
316.25
 11
160.531
 21
318.059
  0
LINE
  8
0
 10
160.531
 20
318.059
 11
160.275
 21
320
  0
LINE
  8
0
 10
240.275
 20
80
 11
240.531
 21
81.9411
  0
LINE
  8
0
 10
240.531
 20
81.9411
 11
241.28
 21
83.75
  0
LINE
  8
0
 10
241.28
 20
83.75
 11
242.472
 21
85.3033
  0
LINE
  8
0
 10
242.472
 20
85.3033
 11
244.025
 21
86.4952
  0
LINE
  8
0
 10
244.025
 20
86.4952
 11
245.834
 21
87.2444
  0
LINE
  8
0
 10
245.834
 20
87.2444
 11
247.775
 21
87.5
  0
LINE
  8
0
 10
247.775
 20
87.5
 11
249.716
 21
87.2444
  0
LINE
  8
0
 10
249.716
 20
87.2444
 11
251.525
 21
86.4952
  0
LINE
  8
0
 10
251.525
 20
86.4952
 11
253.078
 21
85.3033
  0
LINE
  8
0
 10
253.078
 20
85.3033
 11
254.27
 21
83.75
  0
LINE
  8
0
 10
254.27
 20
83.75
 11
255.019
 21
81.9411
  0
LINE
  8
0
 10
255.019
 20
81.9411
 11
255.275
 21
80
  0
LINE
  8
0
 10
255.275
 20
80
 11
255.019
 21
78.0589
  0
LINE
  8
0
 10
255.019
 20
78.0589
 11
254.27
 21
76.25
  0
LINE
  8
0
 10
254.27
 20
76.25
 11
253.078
 21
74.6967
  0
LINE
  8
0
 10
253.078
 20
74.6967
 11
251.525
 21
73.5048
  0
LINE
  8
0
 10
251.525
 20
73.5048
 11
249.716
 21
72.7556
  0
LINE
  8
0
 10
249.716
 20
72.7556
 11
247.775
 21
72.5
  0
LINE
  8
0
 10
247.775
 20
72.5
 11
245.834
 21
72.7556
  0
LINE
  8
0
 10
245.834
 20
72.7556
 11
244.025
 21
73.5048
  0
LINE
  8
0
 10
244.025
 20
73.5048
 11
242.472
 21
74.6967
  0
LINE
  8
0
 10
242.472
 20
74.6967
 11
241.28
 21
76.25
  0
LINE
  8
0
 10
241.28
 20
76.25
 11
240.531
 21
78.0589
  0
LINE
  8
0
 10
240.531
 20
78.0589
 11
240.275
 21
80
  0
LINE
  8
0
 10
240.275
 20
160
 11
240.531
 21
161.941
  0
LINE
  8
0
 10
240.531
 20
161.941
 11
241.28
 21
163.75
  0
LINE
  8
0
 10
241.28
 20
163.75
 11
242.472
 21
165.303
  0
LINE
  8
0
 10
242.472
 20
165.303
 11
244.025
 21
166.495
  0
LINE
  8
0
 10
244.025
 20
166.495
 11
245.834
 21
167.244
  0
LINE
  8
0
 10
245.834
 20
167.244
 11
247.775
 21
167.5
  0
LINE
  8
0
 10
247.775
 20
167.5
 11
249.716
 21
167.244
  0
LINE
  8
0
 10
249.716
 20
167.244
 11
251.525
 21
166.495
  0
LINE
  8
0
 10
251.525
 20
166.495
 11
253.078
 21
165.303
  0
LINE
  8
0
 10
253.078
 20
165.303
 11
254.27
 21
163.75
  0
LINE
  8
0
 10
254.27
 20
163.75
 11
255.019
 21
161.941
  0
LINE
  8
0
 10
255.019
 20
161.941
 11
255.275
 21
160
  0
LINE
  8
0
 10
255.275
 20
160
 11
255.019
 21
158.059
  0
LINE
  8
0
 10
255.019
 20
158.059
 11
254.27
 21
156.25
  0
LINE
  8
0
 10
254.27
 20
156.25
 11
253.078
 21
154.697
  0
LINE
  8
0
 10
253.078
 20
154.697
 11
251.525
 21
153.505
  0
LINE
  8
0
 10
251.525
 20
153.505
 11
249.716
 21
152.756
  0
LINE
  8
0
 10
249.716
 20
152.756
 11
247.775
 21
152.5
  0
LINE
  8
0
 10
247.775
 20
152.5
 11
245.834
 21
152.756
  0
LINE
  8
0
 10
245.834
 20
152.756
 11
244.025
 21
153.505
  0
LINE
  8
0
 10
244.025
 20
153.505
 11
242.472
 21
154.697
  0
LINE
  8
0
 10
242.472
 20
154.697
 11
241.28
 21
156.25
  0
LINE
  8
0
 10
241.28
 20
156.25
 11
240.531
 21
158.059
  0
LINE
  8
0
 10
240.531
 20
158.059
 11
240.275
 21
160
  0
LINE
  8
0
 10
240.275
 20
240
 11
240.531
 21
241.941
  0
LINE
  8
0
 10
240.531
 20
241.941
 11
241.28
 21
243.75
  0
LINE
  8
0
 10
241.28
 20
243.75
 11
242.472
 21
245.303
  0
LINE
  8
0
 10
242.472
 20
245.303
 11
244.025
 21
246.495
  0
LINE
  8
0
 10
244.025
 20
246.495
 11
245.834
 21
247.244
  0
LINE
  8
0
 10
245.834
 20
247.244
 11
247.775
 21
247.5
  0
LINE
  8
0
 10
247.775
 20
247.5
 11
249.716
 21
247.244
  0
LINE
  8
0
 10
249.716
 20
247.244
 11
251.525
 21
246.495
  0
LINE
  8
0
 10
251.525
 20
246.495
 11
253.078
 21
245.303
  0
LINE
  8
0
 10
253.078
 20
245.303
 11
254.27
 21
243.75
  0
LINE
  8
0
 10
254.27
 20
243.75
 11
255.019
 21
241.941
  0
LINE
  8
0
 10
255.019
 20
241.941
 11
255.275
 21
240
  0
LINE
  8
0
 10
255.275
 20
240
 11
255.019
 21
238.059
  0
LINE
  8
0
 10
255.019
 20
238.059
 11
254.27
 21
236.25
  0
LINE
  8
0
 10
254.27
 20
236.25
 11
253.078
 21
234.697
  0
LINE
  8
0
 10
253.078
 20
234.697
 11
251.525
 21
233.505
  0
LINE
  8
0
 10
251.525
 20
233.505
 11
249.716
 21
232.756
  0
LINE
  8
0
 10
249.716
 20
232.756
 11
247.775
 21
232.5
  0
LINE
  8
0
 10
247.775
 20
232.5
 11
245.834
 21
232.756
  0
LINE
  8
0
 10
245.834
 20
232.756
 11
244.025
 21
233.505
  0
LINE
  8
0
 10
244.025
 20
233.505
 11
242.472
 21
234.697
  0
LINE
  8
0
 10
242.472
 20
234.697
 11
241.28
 21
236.25
  0
LINE
  8
0
 10
241.28
 20
236.25
 11
240.531
 21
238.059
  0
LINE
  8
0
 10
240.531
 20
238.059
 11
240.275
 21
240
  0
LINE
  8
0
 10
240.275
 20
320
 11
240.531
 21
321.941
  0
LINE
  8
0
 10
240.531
 20
321.941
 11
241.28
 21
323.75
  0
LINE
  8
0
 10
241.28
 20
323.75
 11
242.472
 21
325.303
  0
LINE
  8
0
 10
242.472
 20
325.303
 11
244.025
 21
326.495
  0
LINE
  8
0
 10
244.025
 20
326.495
 11
245.834
 21
327.244
  0
LINE
  8
0
 10
245.834
 20
327.244
 11
247.775
 21
327.5
  0
LINE
  8
0
 10
247.775
 20
327.5
 11
249.716
 21
327.244
  0
LINE
  8
0
 10
249.716
 20
327.244
 11
251.525
 21
326.495
  0
LINE
  8
0
 10
251.525
 20
326.495
 11
253.078
 21
325.303
  0
LINE
  8
0
 10
253.078
 20
325.303
 11
254.27
 21
323.75
  0
LINE
  8
0
 10
254.27
 20
323.75
 11
255.019
 21
321.941
  0
LINE
  8
0
 10
255.019
 20
321.941
 11
255.275
 21
320
  0
LINE
  8
0
 10
255.275
 20
320
 11
255.019
 21
318.059
  0
LINE
  8
0
 10
255.019
 20
318.059
 11
254.27
 21
316.25
  0
LINE
  8
0
 10
254.27
 20
316.25
 11
253.078
 21
314.697
  0
LINE
  8
0
 10
253.078
 20
314.697
 11
251.525
 21
313.505
  0
LINE
  8
0
 10
251.525
 20
313.505
 11
249.716
 21
312.756
  0
LINE
  8
0
 10
249.716
 20
312.756
 11
247.775
 21
312.5
  0
LINE
  8
0
 10
247.775
 20
312.5
 11
245.834
 21
312.756
  0
LINE
  8
0
 10
245.834
 20
312.756
 11
244.025
 21
313.505
  0
LINE
  8
0
 10
244.025
 20
313.505
 11
242.472
 21
314.697
  0
LINE
  8
0
 10
242.472
 20
314.697
 11
241.28
 21
316.25
  0
LINE
  8
0
 10
241.28
 20
316.25
 11
240.531
 21
318.059
  0
LINE
  8
0
 10
240.531
 20
318.059
 11
240.275
 21
320
  0
LINE
  8
0
 10
320.275
 20
80
 11
320.531
 21
81.9411
  0
LINE
  8
0
 10
320.531
 20
81.9411
 11
321.28
 21
83.75
  0
LINE
  8
0
 10
321.28
 20
83.75
 11
322.472
 21
85.3033
  0
LINE
  8
0
 10
322.472
 20
85.3033
 11
324.025
 21
86.4952
  0
LINE
  8
0
 10
324.025
 20
86.4952
 11
325.834
 21
87.2444
  0
LINE
  8
0
 10
325.834
 20
87.2444
 11
327.775
 21
87.5
  0
LINE
  8
0
 10
327.775
 20
87.5
 11
329.716
 21
87.2444
  0
LINE
  8
0
 10
329.716
 20
87.2444
 11
331.525
 21
86.4952
  0
LINE
  8
0
 10
331.525
 20
86.4952
 11
333.078
 21
85.3033
  0
LINE
  8
0
 10
333.078
 20
85.3033
 11
334.27
 21
83.75
  0
LINE
  8
0
 10
334.27
 20
83.75
 11
335.019
 21
81.9411
  0
LINE
  8
0
 10
335.019
 20
81.9411
 11
335.275
 21
80
  0
LINE
  8
0
 10
335.275
 20
80
 11
335.019
 21
78.0589
  0
LINE
  8
0
 10
335.019
 20
78.0589
 11
334.27
 21
76.25
  0
LINE
  8
0
 10
334.27
 20
76.25
 11
333.078
 21
74.6967
  0
LINE
  8
0
 10
333.078
 20
74.6967
 11
331.525
 21
73.5048
  0
LINE
  8
0
 10
331.525
 20
73.5048
 11
329.716
 21
72.7556
  0
LINE
  8
0
 10
329.716
 20
72.7556
 11
327.775
 21
72.5
  0
LINE
  8
0
 10
327.775
 20
72.5
 11
325.834
 21
72.7556
  0
LINE
  8
0
 10
325.834
 20
72.7556
 11
324.025
 21
73.5048
  0
LINE
  8
0
 10
324.025
 20
73.5048
 11
322.472
 21
74.6967
  0
LINE
  8
0
 10
322.472
 20
74.6967
 11
321.28
 21
76.25
  0
LINE
  8
0
 10
321.28
 20
76.25
 11
320.531
 21
78.0589
  0
LINE
  8
0
 10
320.531
 20
78.0589
 11
320.275
 21
80
  0
LINE
  8
0
 10
320.275
 20
160
 11
320.531
 21
161.941
  0
LINE
  8
0
 10
320.531
 20
161.941
 11
321.28
 21
163.75
  0
LINE
  8
0
 10
321.28
 20
163.75
 11
322.472
 21
165.303
  0
LINE
  8
0
 10
322.472
 20
165.303
 11
324.025
 21
166.495
  0
LINE
  8
0
 10
324.025
 20
166.495
 11
325.834
 21
167.244
  0
LINE
  8
0
 10
325.834
 20
167.244
 11
327.775
 21
167.5
  0
LINE
  8
0
 10
327.775
 20
167.5
 11
329.716
 21
167.244
  0
LINE
  8
0
 10
329.716
 20
167.244
 11
331.525
 21
166.495
  0
LINE
  8
0
 10
331.525
 20
166.495
 11
333.078
 21
165.303
  0
LINE
  8
0
 10
333.078
 20
165.303
 11
334.27
 21
163.75
  0
LINE
  8
0
 10
334.27
 20
163.75
 11
335.019
 21
161.941
  0
LINE
  8
0
 10
335.019
 20
161.941
 11
335.275
 21
160
  0
LINE
  8
0
 10
335.275
 20
160
 11
335.019
 21
158.059
  0
LINE
  8
0
 10
335.019
 20
158.059
 11
334.27
 21
156.25
  0
LINE
  8
0
 10
334.27
 20
156.25
 11
333.078
 21
154.697
  0
LINE
  8
0
 10
333.078
 20
154.697
 11
331.525
 21
153.505
  0
LINE
  8
0
 10
331.525
 20
153.505
 11
329.716
 21
152.756
  0
LINE
  8
0
 10
329.716
 20
152.756
 11
327.775
 21
152.5
  0
LINE
  8
0
 10
327.775
 20
152.5
 11
325.834
 21
152.756
  0
LINE
  8
0
 10
325.834
 20
152.756
 11
324.025
 21
153.505
  0
LINE
  8
0
 10
324.025
 20
153.505
 11
322.472
 21
154.697
  0
LINE
  8
0
 10
322.472
 20
154.697
 11
321.28
 21
156.25
  0
LINE
  8
0
 10
321.28
 20
156.25
 11
320.531
 21
158.059
  0
LINE
  8
0
 10
320.531
 20
158.059
 11
320.275
 21
160
  0
LINE
  8
0
 10
320.275
 20
240
 11
320.531
 21
241.941
  0
LINE
  8
0
 10
320.531
 20
241.941
 11
321.28
 21
243.75
  0
LINE
  8
0
 10
321.28
 20
243.75
 11
322.472
 21
245.303
  0
LINE
  8
0
 10
322.472
 20
245.303
 11
324.025
 21
246.495
  0
LINE
  8
0
 10
324.025
 20
246.495
 11
325.834
 21
247.244
  0
LINE
  8
0
 10
325.834
 20
247.244
 11
327.775
 21
247.5
  0
LINE
  8
0
 10
327.775
 20
247.5
 11
329.716
 21
247.244
  0
LINE
  8
0
 10
329.716
 20
247.244
 11
331.525
 21
246.495
  0
LINE
  8
0
 10
331.525
 20
246.495
 11
333.078
 21
245.303
  0
LINE
  8
0
 10
333.078
 20
245.303
 11
334.27
 21
243.75
  0
LINE
  8
0
 10
334.27
 20
243.75
 11
335.019
 21
241.941
  0
LINE
  8
0
 10
335.019
 20
241.941
 11
335.275
 21
240
  0
LINE
  8
0
 10
335.275
 20
240
 11
335.019
 21
238.059
  0
LINE
  8
0
 10
335.019
 20
238.059
 11
334.27
 21
236.25
  0
LINE
  8
0
 10
334.27
 20
236.25
 11
333.078
 21
234.697
  0
LINE
  8
0
 10
333.078
 20
234.697
 11
331.525
 21
233.505
  0
LINE
  8
0
 10
331.525
 20
233.505
 11
329.716
 21
232.756
  0
LINE
  8
0
 10
329.716
 20
232.756
 11
327.775
 21
232.5
  0
LINE
  8
0
 10
327.775
 20
232.5
 11
325.834
 21
232.756
  0
LINE
  8
0
 10
325.834
 20
232.756
 11
324.025
 21
233.505
  0
LINE
  8
0
 10
324.025
 20
233.505
 11
322.472
 21
234.697
  0
LINE
  8
0
 10
322.472
 20
234.697
 11
321.28
 21
236.25
  0
LINE
  8
0
 10
321.28
 20
236.25
 11
320.531
 21
238.059
  0
LINE
  8
0
 10
320.531
 20
238.059
 11
320.275
 21
240
  0
LINE
  8
0
 10
320.275
 20
320
 11
320.531
 21
321.941
  0
LINE
  8
0
 10
320.531
 20
321.941
 11
321.28
 21
323.75
  0
LINE
  8
0
 10
321.28
 20
323.75
 11
322.472
 21
325.303
  0
LINE
  8
0
 10
322.472
 20
325.303
 11
324.025
 21
326.495
  0
LINE
  8
0
 10
324.025
 20
326.495
 11
325.834
 21
327.244
  0
LINE
  8
0
 10
325.834
 20
327.244
 11
327.775
 21
327.5
  0
LINE
  8
0
 10
327.775
 20
327.5
 11
329.716
 21
327.244
  0
LINE
  8
0
 10
329.716
 20
327.244
 11
331.525
 21
326.495
  0
LINE
  8
0
 10
331.525
 20
326.495
 11
333.078
 21
325.303
  0
LINE
  8
0
 10
333.078
 20
325.303
 11
334.27
 21
323.75
  0
LINE
  8
0
 10
334.27
 20
323.75
 11
335.019
 21
321.941
  0
LINE
  8
0
 10
335.019
 20
321.941
 11
335.275
 21
320
  0
LINE
  8
0
 10
335.275
 20
320
 11
335.019
 21
318.059
  0
LINE
  8
0
 10
335.019
 20
318.059
 11
334.27
 21
316.25
  0
LINE
  8
0
 10
334.27
 20
316.25
 11
333.078
 21
314.697
  0
LINE
  8
0
 10
333.078
 20
314.697
 11
331.525
 21
313.505
  0
LINE
  8
0
 10
331.525
 20
313.505
 11
329.716
 21
312.756
  0
LINE
  8
0
 10
329.716
 20
312.756
 11
327.775
 21
312.5
  0
LINE
  8
0
 10
327.775
 20
312.5
 11
325.834
 21
312.756
  0
LINE
  8
0
 10
325.834
 20
312.756
 11
324.025
 21
313.505
  0
LINE
  8
0
 10
324.025
 20
313.505
 11
322.472
 21
314.697
  0
LINE
  8
0
 10
322.472
 20
314.697
 11
321.28
 21
316.25
  0
LINE
  8
0
 10
321.28
 20
316.25
 11
320.531
 21
318.059
  0
LINE
  8
0
 10
320.531
 20
318.059
 11
320.275
 21
320
  0
LINE
  8
0
 10
360.425
 20
38.1
 11
360.566
 21
39.5339
  0
LINE
  8
0
 10
360.566
 20
39.5339
 11
360.984
 21
40.9127
  0
LINE
  8
0
 10
360.984
 20
40.9127
 11
361.664
 21
42.1834
  0
LINE
  8
0
 10
361.664
 20
42.1834
 11
362.578
 21
43.2972
  0
LINE
  8
0
 10
362.578
 20
43.2972
 11
363.692
 21
44.2113
  0
LINE
  8
0
 10
363.692
 20
44.2113
 11
364.962
 21
44.8905
  0
LINE
  8
0
 10
364.962
 20
44.8905
 11
366.341
 21
45.3088
  0
LINE
  8
0
 10
366.341
 20
45.3088
 11
367.775
 21
45.45
  0
LINE
  8
0
 10
367.775
 20
45.45
 11
369.209
 21
45.3088
  0
LINE
  8
0
 10
369.209
 20
45.3088
 11
370.588
 21
44.8905
  0
LINE
  8
0
 10
370.588
 20
44.8905
 11
371.858
 21
44.2113
  0
LINE
  8
0
 10
371.858
 20
44.2113
 11
372.972
 21
43.2972
  0
LINE
  8
0
 10
372.972
 20
43.2972
 11
373.886
 21
42.1834
  0
LINE
  8
0
 10
373.886
 20
42.1834
 11
374.566
 21
40.9127
  0
LINE
  8
0
 10
374.566
 20
40.9127
 11
374.984
 21
39.5339
  0
LINE
  8
0
 10
374.984
 20
39.5339
 11
375.125
 21
38.1
  0
LINE
  8
0
 10
375.125
 20
38.1
 11
374.984
 21
36.6661
  0
LINE
  8
0
 10
374.984
 20
36.6661
 11
374.566
 21
35.2873
  0
LINE
  8
0
 10
374.566
 20
35.2873
 11
373.886
 21
34.0166
  0
LINE
  8
0
 10
373.886
 20
34.0166
 11
372.972
 21
32.9028
  0
LINE
  8
0
 10
372.972
 20
32.9028
 11
371.858
 21
31.9887
  0
LINE
  8
0
 10
371.858
 20
31.9887
 11
370.588
 21
31.3095
  0
LINE
  8
0
 10
370.588
 20
31.3095
 11
369.209
 21
30.8912
  0
LINE
  8
0
 10
369.209
 20
30.8912
 11
367.775
 21
30.75
  0
LINE
  8
0
 10
367.775
 20
30.75
 11
366.341
 21
30.8912
  0
LINE
  8
0
 10
366.341
 20
30.8912
 11
364.962
 21
31.3095
  0
LINE
  8
0
 10
364.962
 20
31.3095
 11
363.692
 21
31.9887
  0
LINE
  8
0
 10
363.692
 20
31.9887
 11
362.578
 21
32.9028
  0
LINE
  8
0
 10
362.578
 20
32.9028
 11
361.664
 21
34.0166
  0
LINE
  8
0
 10
361.664
 20
34.0166
 11
360.984
 21
35.2873
  0
LINE
  8
0
 10
360.984
 20
35.2873
 11
360.566
 21
36.6661
  0
LINE
  8
0
 10
360.566
 20
36.6661
 11
360.425
 21
38.1
  0
LINE
  8
0
 10
360.425
 20
361.9
 11
360.566
 21
363.334
  0
LINE
  8
0
 10
360.566
 20
363.334
 11
360.984
 21
364.713
  0
LINE
  8
0
 10
360.984
 20
364.713
 11
361.664
 21
365.983
  0
LINE
  8
0
 10
361.664
 20
365.983
 11
362.578
 21
367.097
  0
LINE
  8
0
 10
362.578
 20
367.097
 11
363.692
 21
368.011
  0
LINE
  8
0
 10
363.692
 20
368.011
 11
364.962
 21
368.691
  0
LINE
  8
0
 10
364.962
 20
368.691
 11
366.341
 21
369.109
  0
LINE
  8
0
 10
366.341
 20
369.109
 11
367.775
 21
369.25
  0
LINE
  8
0
 10
367.775
 20
369.25
 11
369.209
 21
369.109
  0
LINE
  8
0
 10
369.209
 20
369.109
 11
370.588
 21
368.691
  0
LINE
  8
0
 10
370.588
 20
368.691
 11
371.858
 21
368.011
  0
LINE
  8
0
 10
371.858
 20
368.011
 11
372.972
 21
367.097
  0
LINE
  8
0
 10
372.972
 20
367.097
 11
373.886
 21
365.983
  0
LINE
  8
0
 10
373.886
 20
365.983
 11
374.566
 21
364.713
  0
LINE
  8
0
 10
374.566
 20
364.713
 11
374.984
 21
363.334
  0
LINE
  8
0
 10
374.984
 20
363.334
 11
375.125
 21
361.9
  0
LINE
  8
0
 10
375.125
 20
361.9
 11
374.984
 21
360.466
  0
LINE
  8
0
 10
374.984
 20
360.466
 11
374.566
 21
359.087
  0
LINE
  8
0
 10
374.566
 20
359.087
 11
373.886
 21
357.817
  0
LINE
  8
0
 10
373.886
 20
357.817
 11
372.972
 21
356.703
  0
LINE
  8
0
 10
372.972
 20
356.703
 11
371.858
 21
355.789
  0
LINE
  8
0
 10
371.858
 20
355.789
 11
370.588
 21
355.109
  0
LINE
  8
0
 10
370.588
 20
355.109
 11
369.209
 21
354.691
  0
LINE
  8
0
 10
369.209
 20
354.691
 11
367.775
 21
354.55
  0
LINE
  8
0
 10
367.775
 20
354.55
 11
366.341
 21
354.691
  0
LINE
  8
0
 10
366.341
 20
354.691
 11
364.962
 21
355.109
  0
LINE
  8
0
 10
364.962
 20
355.109
 11
363.692
 21
355.789
  0
LINE
  8
0
 10
363.692
 20
355.789
 11
362.578
 21
356.703
  0
LINE
  8
0
 10
362.578
 20
356.703
 11
361.664
 21
357.817
  0
LINE
  8
0
 10
361.664
 20
357.817
 11
360.984
 21
359.087
  0
LINE
  8
0
 10
360.984
 20
359.087
 11
360.566
 21
360.466
  0
LINE
  8
0
 10
360.566
 20
360.466
 11
360.425
 21
361.9
  0
LINE
  8
0
 10
400.275
 20
80
 11
400.531
 21
81.9411
  0
LINE
  8
0
 10
400.531
 20
81.9411
 11
401.28
 21
83.75
  0
LINE
  8
0
 10
401.28
 20
83.75
 11
402.472
 21
85.3033
  0
LINE
  8
0
 10
402.472
 20
85.3033
 11
404.025
 21
86.4952
  0
LINE
  8
0
 10
404.025
 20
86.4952
 11
405.834
 21
87.2444
  0
LINE
  8
0
 10
405.834
 20
87.2444
 11
407.775
 21
87.5
  0
LINE
  8
0
 10
407.775
 20
87.5
 11
409.716
 21
87.2444
  0
LINE
  8
0
 10
409.716
 20
87.2444
 11
411.525
 21
86.4952
  0
LINE
  8
0
 10
411.525
 20
86.4952
 11
413.078
 21
85.3033
  0
LINE
  8
0
 10
413.078
 20
85.3033
 11
414.27
 21
83.75
  0
LINE
  8
0
 10
414.27
 20
83.75
 11
415.019
 21
81.9411
  0
LINE
  8
0
 10
415.019
 20
81.9411
 11
415.275
 21
80
  0
LINE
  8
0
 10
415.275
 20
80
 11
415.019
 21
78.0589
  0
LINE
  8
0
 10
415.019
 20
78.0589
 11
414.27
 21
76.25
  0
LINE
  8
0
 10
414.27
 20
76.25
 11
413.078
 21
74.6967
  0
LINE
  8
0
 10
413.078
 20
74.6967
 11
411.525
 21
73.5048
  0
LINE
  8
0
 10
411.525
 20
73.5048
 11
409.716
 21
72.7556
  0
LINE
  8
0
 10
409.716
 20
72.7556
 11
407.775
 21
72.5
  0
LINE
  8
0
 10
407.775
 20
72.5
 11
405.834
 21
72.7556
  0
LINE
  8
0
 10
405.834
 20
72.7556
 11
404.025
 21
73.5048
  0
LINE
  8
0
 10
404.025
 20
73.5048
 11
402.472
 21
74.6967
  0
LINE
  8
0
 10
402.472
 20
74.6967
 11
401.28
 21
76.25
  0
LINE
  8
0
 10
401.28
 20
76.25
 11
400.531
 21
78.0589
  0
LINE
  8
0
 10
400.531
 20
78.0589
 11
400.275
 21
80
  0
LINE
  8
0
 10
400.275
 20
160
 11
400.531
 21
161.941
  0
LINE
  8
0
 10
400.531
 20
161.941
 11
401.28
 21
163.75
  0
LINE
  8
0
 10
401.28
 20
163.75
 11
402.472
 21
165.303
  0
LINE
  8
0
 10
402.472
 20
165.303
 11
404.025
 21
166.495
  0
LINE
  8
0
 10
404.025
 20
166.495
 11
405.834
 21
167.244
  0
LINE
  8
0
 10
405.834
 20
167.244
 11
407.775
 21
167.5
  0
LINE
  8
0
 10
407.775
 20
167.5
 11
409.716
 21
167.244
  0
LINE
  8
0
 10
409.716
 20
167.244
 11
411.525
 21
166.495
  0
LINE
  8
0
 10
411.525
 20
166.495
 11
413.078
 21
165.303
  0
LINE
  8
0
 10
413.078
 20
165.303
 11
414.27
 21
163.75
  0
LINE
  8
0
 10
414.27
 20
163.75
 11
415.019
 21
161.941
  0
LINE
  8
0
 10
415.019
 20
161.941
 11
415.275
 21
160
  0
LINE
  8
0
 10
415.275
 20
160
 11
415.019
 21
158.059
  0
LINE
  8
0
 10
415.019
 20
158.059
 11
414.27
 21
156.25
  0
LINE
  8
0
 10
414.27
 20
156.25
 11
413.078
 21
154.697
  0
LINE
  8
0
 10
413.078
 20
154.697
 11
411.525
 21
153.505
  0
LINE
  8
0
 10
411.525
 20
153.505
 11
409.716
 21
152.756
  0
LINE
  8
0
 10
409.716
 20
152.756
 11
407.775
 21
152.5
  0
LINE
  8
0
 10
407.775
 20
152.5
 11
405.834
 21
152.756
  0
LINE
  8
0
 10
405.834
 20
152.756
 11
404.025
 21
153.505
  0
LINE
  8
0
 10
404.025
 20
153.505
 11
402.472
 21
154.697
  0
LINE
  8
0
 10
402.472
 20
154.697
 11
401.28
 21
156.25
  0
LINE
  8
0
 10
401.28
 20
156.25
 11
400.531
 21
158.059
  0
LINE
  8
0
 10
400.531
 20
158.059
 11
400.275
 21
160
  0
LINE
  8
0
 10
400.275
 20
240
 11
400.531
 21
241.941
  0
LINE
  8
0
 10
400.531
 20
241.941
 11
401.28
 21
243.75
  0
LINE
  8
0
 10
401.28
 20
243.75
 11
402.472
 21
245.303
  0
LINE
  8
0
 10
402.472
 20
245.303
 11
404.025
 21
246.495
  0
LINE
  8
0
 10
404.025
 20
246.495
 11
405.834
 21
247.244
  0
LINE
  8
0
 10
405.834
 20
247.244
 11
407.775
 21
247.5
  0
LINE
  8
0
 10
407.775
 20
247.5
 11
409.716
 21
247.244
  0
LINE
  8
0
 10
409.716
 20
247.244
 11
411.525
 21
246.495
  0
LINE
  8
0
 10
411.525
 20
246.495
 11
413.078
 21
245.303
  0
LINE
  8
0
 10
413.078
 20
245.303
 11
414.27
 21
243.75
  0
LINE
  8
0
 10
414.27
 20
243.75
 11
415.019
 21
241.941
  0
LINE
  8
0
 10
415.019
 20
241.941
 11
415.275
 21
240
  0
LINE
  8
0
 10
415.275
 20
240
 11
415.019
 21
238.059
  0
LINE
  8
0
 10
415.019
 20
238.059
 11
414.27
 21
236.25
  0
LINE
  8
0
 10
414.27
 20
236.25
 11
413.078
 21
234.697
  0
LINE
  8
0
 10
413.078
 20
234.697
 11
411.525
 21
233.505
  0
LINE
  8
0
 10
411.525
 20
233.505
 11
409.716
 21
232.756
  0
LINE
  8
0
 10
409.716
 20
232.756
 11
407.775
 21
232.5
  0
LINE
  8
0
 10
407.775
 20
232.5
 11
405.834
 21
232.756
  0
LINE
  8
0
 10
405.834
 20
232.756
 11
404.025
 21
233.505
  0
LINE
  8
0
 10
404.025
 20
233.505
 11
402.472
 21
234.697
  0
LINE
  8
0
 10
402.472
 20
234.697
 11
401.28
 21
236.25
  0
LINE
  8
0
 10
401.28
 20
236.25
 11
400.531
 21
238.059
  0
LINE
  8
0
 10
400.531
 20
238.059
 11
400.275
 21
240
  0
LINE
  8
0
 10
400.275
 20
320
 11
400.531
 21
321.941
  0
LINE
  8
0
 10
400.531
 20
321.941
 11
401.28
 21
323.75
  0
LINE
  8
0
 10
401.28
 20
323.75
 11
402.472
 21
325.303
  0
LINE
  8
0
 10
402.472
 20
325.303
 11
404.025
 21
326.495
  0
LINE
  8
0
 10
404.025
 20
326.495
 11
405.834
 21
327.244
  0
LINE
  8
0
 10
405.834
 20
327.244
 11
407.775
 21
327.5
  0
LINE
  8
0
 10
407.775
 20
327.5
 11
409.716
 21
327.244
  0
LINE
  8
0
 10
409.716
 20
327.244
 11
411.525
 21
326.495
  0
LINE
  8
0
 10
411.525
 20
326.495
 11
413.078
 21
325.303
  0
LINE
  8
0
 10
413.078
 20
325.303
 11
414.27
 21
323.75
  0
LINE
  8
0
 10
414.27
 20
323.75
 11
415.019
 21
321.941
  0
LINE
  8
0
 10
415.019
 20
321.941
 11
415.275
 21
320
  0
LINE
  8
0
 10
415.275
 20
320
 11
415.019
 21
318.059
  0
LINE
  8
0
 10
415.019
 20
318.059
 11
414.27
 21
316.25
  0
LINE
  8
0
 10
414.27
 20
316.25
 11
413.078
 21
314.697
  0
LINE
  8
0
 10
413.078
 20
314.697
 11
411.525
 21
313.505
  0
LINE
  8
0
 10
411.525
 20
313.505
 11
409.716
 21
312.756
  0
LINE
  8
0
 10
409.716
 20
312.756
 11
407.775
 21
312.5
  0
LINE
  8
0
 10
407.775
 20
312.5
 11
405.834
 21
312.756
  0
LINE
  8
0
 10
405.834
 20
312.756
 11
404.025
 21
313.505
  0
LINE
  8
0
 10
404.025
 20
313.505
 11
402.472
 21
314.697
  0
LINE
  8
0
 10
402.472
 20
314.697
 11
401.28
 21
316.25
  0
LINE
  8
0
 10
401.28
 20
316.25
 11
400.531
 21
318.059
  0
LINE
  8
0
 10
400.531
 20
318.059
 11
400.275
 21
320
  0
LINE
  8
0
 10
480.275
 20
80
 11
480.531
 21
81.9411
  0
LINE
  8
0
 10
480.531
 20
81.9411
 11
481.28
 21
83.75
  0
LINE
  8
0
 10
481.28
 20
83.75
 11
482.472
 21
85.3033
  0
LINE
  8
0
 10
482.472
 20
85.3033
 11
484.025
 21
86.4952
  0
LINE
  8
0
 10
484.025
 20
86.4952
 11
485.834
 21
87.2444
  0
LINE
  8
0
 10
485.834
 20
87.2444
 11
487.775
 21
87.5
  0
LINE
  8
0
 10
487.775
 20
87.5
 11
489.716
 21
87.2444
  0
LINE
  8
0
 10
489.716
 20
87.2444
 11
491.525
 21
86.4952
  0
LINE
  8
0
 10
491.525
 20
86.4952
 11
493.078
 21
85.3033
  0
LINE
  8
0
 10
493.078
 20
85.3033
 11
494.27
 21
83.75
  0
LINE
  8
0
 10
494.27
 20
83.75
 11
495.019
 21
81.9411
  0
LINE
  8
0
 10
495.019
 20
81.9411
 11
495.275
 21
80
  0
LINE
  8
0
 10
495.275
 20
80
 11
495.019
 21
78.0589
  0
LINE
  8
0
 10
495.019
 20
78.0589
 11
494.27
 21
76.25
  0
LINE
  8
0
 10
494.27
 20
76.25
 11
493.078
 21
74.6967
  0
LINE
  8
0
 10
493.078
 20
74.6967
 11
491.525
 21
73.5048
  0
LINE
  8
0
 10
491.525
 20
73.5048
 11
489.716
 21
72.7556
  0
LINE
  8
0
 10
489.716
 20
72.7556
 11
487.775
 21
72.5
  0
LINE
  8
0
 10
487.775
 20
72.5
 11
485.834
 21
72.7556
  0
LINE
  8
0
 10
485.834
 20
72.7556
 11
484.025
 21
73.5048
  0
LINE
  8
0
 10
484.025
 20
73.5048
 11
482.472
 21
74.6967
  0
LINE
  8
0
 10
482.472
 20
74.6967
 11
481.28
 21
76.25
  0
LINE
  8
0
 10
481.28
 20
76.25
 11
480.531
 21
78.0589
  0
LINE
  8
0
 10
480.531
 20
78.0589
 11
480.275
 21
80
  0
LINE
  8
0
 10
480.275
 20
160
 11
480.531
 21
161.941
  0
LINE
  8
0
 10
480.531
 20
161.941
 11
481.28
 21
163.75
  0
LINE
  8
0
 10
481.28
 20
163.75
 11
482.472
 21
165.303
  0
LINE
  8
0
 10
482.472
 20
165.303
 11
484.025
 21
166.495
  0
LINE
  8
0
 10
484.025
 20
166.495
 11
485.834
 21
167.244
  0
LINE
  8
0
 10
485.834
 20
167.244
 11
487.775
 21
167.5
  0
LINE
  8
0
 10
487.775
 20
167.5
 11
489.716
 21
167.244
  0
LINE
  8
0
 10
489.716
 20
167.244
 11
491.525
 21
166.495
  0
LINE
  8
0
 10
491.525
 20
166.495
 11
493.078
 21
165.303
  0
LINE
  8
0
 10
493.078
 20
165.303
 11
494.27
 21
163.75
  0
LINE
  8
0
 10
494.27
 20
163.75
 11
495.019
 21
161.941
  0
LINE
  8
0
 10
495.019
 20
161.941
 11
495.275
 21
160
  0
LINE
  8
0
 10
495.275
 20
160
 11
495.019
 21
158.059
  0
LINE
  8
0
 10
495.019
 20
158.059
 11
494.27
 21
156.25
  0
LINE
  8
0
 10
494.27
 20
156.25
 11
493.078
 21
154.697
  0
LINE
  8
0
 10
493.078
 20
154.697
 11
491.525
 21
153.505
  0
LINE
  8
0
 10
491.525
 20
153.505
 11
489.716
 21
152.756
  0
LINE
  8
0
 10
489.716
 20
152.756
 11
487.775
 21
152.5
  0
LINE
  8
0
 10
487.775
 20
152.5
 11
485.834
 21
152.756
  0
LINE
  8
0
 10
485.834
 20
152.756
 11
484.025
 21
153.505
  0
LINE
  8
0
 10
484.025
 20
153.505
 11
482.472
 21
154.697
  0
LINE
  8
0
 10
482.472
 20
154.697
 11
481.28
 21
156.25
  0
LINE
  8
0
 10
481.28
 20
156.25
 11
480.531
 21
158.059
  0
LINE
  8
0
 10
480.531
 20
158.059
 11
480.275
 21
160
  0
LINE
  8
0
 10
480.275
 20
240
 11
480.531
 21
241.941
  0
LINE
  8
0
 10
480.531
 20
241.941
 11
481.28
 21
243.75
  0
LINE
  8
0
 10
481.28
 20
243.75
 11
482.472
 21
245.303
  0
LINE
  8
0
 10
482.472
 20
245.303
 11
484.025
 21
246.495
  0
LINE
  8
0
 10
484.025
 20
246.495
 11
485.834
 21
247.244
  0
LINE
  8
0
 10
485.834
 20
247.244
 11
487.775
 21
247.5
  0
LINE
  8
0
 10
487.775
 20
247.5
 11
489.716
 21
247.244
  0
LINE
  8
0
 10
489.716
 20
247.244
 11
491.525
 21
246.495
  0
LINE
  8
0
 10
491.525
 20
246.495
 11
493.078
 21
245.303
  0
LINE
  8
0
 10
493.078
 20
245.303
 11
494.27
 21
243.75
  0
LINE
  8
0
 10
494.27
 20
243.75
 11
495.019
 21
241.941
  0
LINE
  8
0
 10
495.019
 20
241.941
 11
495.275
 21
240
  0
LINE
  8
0
 10
495.275
 20
240
 11
495.019
 21
238.059
  0
LINE
  8
0
 10
495.019
 20
238.059
 11
494.27
 21
236.25
  0
LINE
  8
0
 10
494.27
 20
236.25
 11
493.078
 21
234.697
  0
LINE
  8
0
 10
493.078
 20
234.697
 11
491.525
 21
233.505
  0
LINE
  8
0
 10
491.525
 20
233.505
 11
489.716
 21
232.756
  0
LINE
  8
0
 10
489.716
 20
232.756
 11
487.775
 21
232.5
  0
LINE
  8
0
 10
487.775
 20
232.5
 11
485.834
 21
232.756
  0
LINE
  8
0
 10
485.834
 20
232.756
 11
484.025
 21
233.505
  0
LINE
  8
0
 10
484.025
 20
233.505
 11
482.472
 21
234.697
  0
LINE
  8
0
 10
482.472
 20
234.697
 11
481.28
 21
236.25
  0
LINE
  8
0
 10
481.28
 20
236.25
 11
480.531
 21
238.059
  0
LINE
  8
0
 10
480.531
 20
238.059
 11
480.275
 21
240
  0
LINE
  8
0
 10
480.275
 20
320
 11
480.531
 21
321.941
  0
LINE
  8
0
 10
480.531
 20
321.941
 11
481.28
 21
323.75
  0
LINE
  8
0
 10
481.28
 20
323.75
 11
482.472
 21
325.303
  0
LINE
  8
0
 10
482.472
 20
325.303
 11
484.025
 21
326.495
  0
LINE
  8
0
 10
484.025
 20
326.495
 11
485.834
 21
327.244
  0
LINE
  8
0
 10
485.834
 20
327.244
 11
487.775
 21
327.5
  0
LINE
  8
0
 10
487.775
 20
327.5
 11
489.716
 21
327.244
  0
LINE
  8
0
 10
489.716
 20
327.244
 11
491.525
 21
326.495
  0
LINE
  8
0
 10
491.525
 20
326.495
 11
493.078
 21
325.303
  0
LINE
  8
0
 10
493.078
 20
325.303
 11
494.27
 21
323.75
  0
LINE
  8
0
 10
494.27
 20
323.75
 11
495.019
 21
321.941
  0
LINE
  8
0
 10
495.019
 20
321.941
 11
495.275
 21
320
  0
LINE
  8
0
 10
495.275
 20
320
 11
495.019
 21
318.059
  0
LINE
  8
0
 10
495.019
 20
318.059
 11
494.27
 21
316.25
  0
LINE
  8
0
 10
494.27
 20
316.25
 11
493.078
 21
314.697
  0
LINE
  8
0
 10
493.078
 20
314.697
 11
491.525
 21
313.505
  0
LINE
  8
0
 10
491.525
 20
313.505
 11
489.716
 21
312.756
  0
LINE
  8
0
 10
489.716
 20
312.756
 11
487.775
 21
312.5
  0
LINE
  8
0
 10
487.775
 20
312.5
 11
485.834
 21
312.756
  0
LINE
  8
0
 10
485.834
 20
312.756
 11
484.025
 21
313.505
  0
LINE
  8
0
 10
484.025
 20
313.505
 11
482.472
 21
314.697
  0
LINE
  8
0
 10
482.472
 20
314.697
 11
481.28
 21
316.25
  0
LINE
  8
0
 10
481.28
 20
316.25
 11
480.531
 21
318.059
  0
LINE
  8
0
 10
480.531
 20
318.059
 11
480.275
 21
320
  0
LINE
  8
0
 10
560.275
 20
80
 11
560.531
 21
81.9411
  0
LINE
  8
0
 10
560.531
 20
81.9411
 11
561.28
 21
83.75
  0
LINE
  8
0
 10
561.28
 20
83.75
 11
562.472
 21
85.3033
  0
LINE
  8
0
 10
562.472
 20
85.3033
 11
564.025
 21
86.4952
  0
LINE
  8
0
 10
564.025
 20
86.4952
 11
565.834
 21
87.2444
  0
LINE
  8
0
 10
565.834
 20
87.2444
 11
567.775
 21
87.5
  0
LINE
  8
0
 10
567.775
 20
87.5
 11
569.716
 21
87.2444
  0
LINE
  8
0
 10
569.716
 20
87.2444
 11
571.525
 21
86.4952
  0
LINE
  8
0
 10
571.525
 20
86.4952
 11
573.078
 21
85.3033
  0
LINE
  8
0
 10
573.078
 20
85.3033
 11
574.27
 21
83.75
  0
LINE
  8
0
 10
574.27
 20
83.75
 11
575.019
 21
81.9411
  0
LINE
  8
0
 10
575.019
 20
81.9411
 11
575.275
 21
80
  0
LINE
  8
0
 10
575.275
 20
80
 11
575.019
 21
78.0589
  0
LINE
  8
0
 10
575.019
 20
78.0589
 11
574.27
 21
76.25
  0
LINE
  8
0
 10
574.27
 20
76.25
 11
573.078
 21
74.6967
  0
LINE
  8
0
 10
573.078
 20
74.6967
 11
571.525
 21
73.5048
  0
LINE
  8
0
 10
571.525
 20
73.5048
 11
569.716
 21
72.7556
  0
LINE
  8
0
 10
569.716
 20
72.7556
 11
567.775
 21
72.5
  0
LINE
  8
0
 10
567.775
 20
72.5
 11
565.834
 21
72.7556
  0
LINE
  8
0
 10
565.834
 20
72.7556
 11
564.025
 21
73.5048
  0
LINE
  8
0
 10
564.025
 20
73.5048
 11
562.472
 21
74.6967
  0
LINE
  8
0
 10
562.472
 20
74.6967
 11
561.28
 21
76.25
  0
LINE
  8
0
 10
561.28
 20
76.25
 11
560.531
 21
78.0589
  0
LINE
  8
0
 10
560.531
 20
78.0589
 11
560.275
 21
80
  0
LINE
  8
0
 10
560.275
 20
160
 11
560.531
 21
161.941
  0
LINE
  8
0
 10
560.531
 20
161.941
 11
561.28
 21
163.75
  0
LINE
  8
0
 10
561.28
 20
163.75
 11
562.472
 21
165.303
  0
LINE
  8
0
 10
562.472
 20
165.303
 11
564.025
 21
166.495
  0
LINE
  8
0
 10
564.025
 20
166.495
 11
565.834
 21
167.244
  0
LINE
  8
0
 10
565.834
 20
167.244
 11
567.775
 21
167.5
  0
LINE
  8
0
 10
567.775
 20
167.5
 11
569.716
 21
167.244
  0
LINE
  8
0
 10
569.716
 20
167.244
 11
571.525
 21
166.495
  0
LINE
  8
0
 10
571.525
 20
166.495
 11
573.078
 21
165.303
  0
LINE
  8
0
 10
573.078
 20
165.303
 11
574.27
 21
163.75
  0
LINE
  8
0
 10
574.27
 20
163.75
 11
575.019
 21
161.941
  0
LINE
  8
0
 10
575.019
 20
161.941
 11
575.275
 21
160
  0
LINE
  8
0
 10
575.275
 20
160
 11
575.019
 21
158.059
  0
LINE
  8
0
 10
575.019
 20
158.059
 11
574.27
 21
156.25
  0
LINE
  8
0
 10
574.27
 20
156.25
 11
573.078
 21
154.697
  0
LINE
  8
0
 10
573.078
 20
154.697
 11
571.525
 21
153.505
  0
LINE
  8
0
 10
571.525
 20
153.505
 11
569.716
 21
152.756
  0
LINE
  8
0
 10
569.716
 20
152.756
 11
567.775
 21
152.5
  0
LINE
  8
0
 10
567.775
 20
152.5
 11
565.834
 21
152.756
  0
LINE
  8
0
 10
565.834
 20
152.756
 11
564.025
 21
153.505
  0
LINE
  8
0
 10
564.025
 20
153.505
 11
562.472
 21
154.697
  0
LINE
  8
0
 10
562.472
 20
154.697
 11
561.28
 21
156.25
  0
LINE
  8
0
 10
561.28
 20
156.25
 11
560.531
 21
158.059
  0
LINE
  8
0
 10
560.531
 20
158.059
 11
560.275
 21
160
  0
LINE
  8
0
 10
560.275
 20
240
 11
560.531
 21
241.941
  0
LINE
  8
0
 10
560.531
 20
241.941
 11
561.28
 21
243.75
  0
LINE
  8
0
 10
561.28
 20
243.75
 11
562.472
 21
245.303
  0
LINE
  8
0
 10
562.472
 20
245.303
 11
564.025
 21
246.495
  0
LINE
  8
0
 10
564.025
 20
246.495
 11
565.834
 21
247.244
  0
LINE
  8
0
 10
565.834
 20
247.244
 11
567.775
 21
247.5
  0
LINE
  8
0
 10
567.775
 20
247.5
 11
569.716
 21
247.244
  0
LINE
  8
0
 10
569.716
 20
247.244
 11
571.525
 21
246.495
  0
LINE
  8
0
 10
571.525
 20
246.495
 11
573.078
 21
245.303
  0
LINE
  8
0
 10
573.078
 20
245.303
 11
574.27
 21
243.75
  0
LINE
  8
0
 10
574.27
 20
243.75
 11
575.019
 21
241.941
  0
LINE
  8
0
 10
575.019
 20
241.941
 11
575.275
 21
240
  0
LINE
  8
0
 10
575.275
 20
240
 11
575.019
 21
238.059
  0
LINE
  8
0
 10
575.019
 20
238.059
 11
574.27
 21
236.25
  0
LINE
  8
0
 10
574.27
 20
236.25
 11
573.078
 21
234.697
  0
LINE
  8
0
 10
573.078
 20
234.697
 11
571.525
 21
233.505
  0
LINE
  8
0
 10
571.525
 20
233.505
 11
569.716
 21
232.756
  0
LINE
  8
0
 10
569.716
 20
232.756
 11
567.775
 21
232.5
  0
LINE
  8
0
 10
567.775
 20
232.5
 11
565.834
 21
232.756
  0
LINE
  8
0
 10
565.834
 20
232.756
 11
564.025
 21
233.505
  0
LINE
  8
0
 10
564.025
 20
233.505
 11
562.472
 21
234.697
  0
LINE
  8
0
 10
562.472
 20
234.697
 11
561.28
 21
236.25
  0
LINE
  8
0
 10
561.28
 20
236.25
 11
560.531
 21
238.059
  0
LINE
  8
0
 10
560.531
 20
238.059
 11
560.275
 21
240
  0
LINE
  8
0
 10
560.275
 20
320
 11
560.531
 21
321.941
  0
LINE
  8
0
 10
560.531
 20
321.941
 11
561.28
 21
323.75
  0
LINE
  8
0
 10
561.28
 20
323.75
 11
562.472
 21
325.303
  0
LINE
  8
0
 10
562.472
 20
325.303
 11
564.025
 21
326.495
  0
LINE
  8
0
 10
564.025
 20
326.495
 11
565.834
 21
327.244
  0
LINE
  8
0
 10
565.834
 20
327.244
 11
567.775
 21
327.5
  0
LINE
  8
0
 10
567.775
 20
327.5
 11
569.716
 21
327.244
  0
LINE
  8
0
 10
569.716
 20
327.244
 11
571.525
 21
326.495
  0
LINE
  8
0
 10
571.525
 20
326.495
 11
573.078
 21
325.303
  0
LINE
  8
0
 10
573.078
 20
325.303
 11
574.27
 21
323.75
  0
LINE
  8
0
 10
574.27
 20
323.75
 11
575.019
 21
321.941
  0
LINE
  8
0
 10
575.019
 20
321.941
 11
575.275
 21
320
  0
LINE
  8
0
 10
575.275
 20
320
 11
575.019
 21
318.059
  0
LINE
  8
0
 10
575.019
 20
318.059
 11
574.27
 21
316.25
  0
LINE
  8
0
 10
574.27
 20
316.25
 11
573.078
 21
314.697
  0
LINE
  8
0
 10
573.078
 20
314.697
 11
571.525
 21
313.505
  0
LINE
  8
0
 10
571.525
 20
313.505
 11
569.716
 21
312.756
  0
LINE
  8
0
 10
569.716
 20
312.756
 11
567.775
 21
312.5
  0
LINE
  8
0
 10
567.775
 20
312.5
 11
565.834
 21
312.756
  0
LINE
  8
0
 10
565.834
 20
312.756
 11
564.025
 21
313.505
  0
LINE
  8
0
 10
564.025
 20
313.505
 11
562.472
 21
314.697
  0
LINE
  8
0
 10
562.472
 20
314.697
 11
561.28
 21
316.25
  0
LINE
  8
0
 10
561.28
 20
316.25
 11
560.531
 21
318.059
  0
LINE
  8
0
 10
560.531
 20
318.059
 11
560.275
 21
320
  0
LINE
  8
0
 10
640.275
 20
80
 11
640.531
 21
81.9411
  0
LINE
  8
0
 10
640.531
 20
81.9411
 11
641.28
 21
83.75
  0
LINE
  8
0
 10
641.28
 20
83.75
 11
642.472
 21
85.3033
  0
LINE
  8
0
 10
642.472
 20
85.3033
 11
644.025
 21
86.4952
  0
LINE
  8
0
 10
644.025
 20
86.4952
 11
645.834
 21
87.2444
  0
LINE
  8
0
 10
645.834
 20
87.2444
 11
647.775
 21
87.5
  0
LINE
  8
0
 10
647.775
 20
87.5
 11
649.716
 21
87.2444
  0
LINE
  8
0
 10
649.716
 20
87.2444
 11
651.525
 21
86.4952
  0
LINE
  8
0
 10
651.525
 20
86.4952
 11
653.078
 21
85.3033
  0
LINE
  8
0
 10
653.078
 20
85.3033
 11
654.27
 21
83.75
  0
LINE
  8
0
 10
654.27
 20
83.75
 11
655.019
 21
81.9411
  0
LINE
  8
0
 10
655.019
 20
81.9411
 11
655.275
 21
80
  0
LINE
  8
0
 10
655.275
 20
80
 11
655.019
 21
78.0589
  0
LINE
  8
0
 10
655.019
 20
78.0589
 11
654.27
 21
76.25
  0
LINE
  8
0
 10
654.27
 20
76.25
 11
653.078
 21
74.6967
  0
LINE
  8
0
 10
653.078
 20
74.6967
 11
651.525
 21
73.5048
  0
LINE
  8
0
 10
651.525
 20
73.5048
 11
649.716
 21
72.7556
  0
LINE
  8
0
 10
649.716
 20
72.7556
 11
647.775
 21
72.5
  0
LINE
  8
0
 10
647.775
 20
72.5
 11
645.834
 21
72.7556
  0
LINE
  8
0
 10
645.834
 20
72.7556
 11
644.025
 21
73.5048
  0
LINE
  8
0
 10
644.025
 20
73.5048
 11
642.472
 21
74.6967
  0
LINE
  8
0
 10
642.472
 20
74.6967
 11
641.28
 21
76.25
  0
LINE
  8
0
 10
641.28
 20
76.25
 11
640.531
 21
78.0589
  0
LINE
  8
0
 10
640.531
 20
78.0589
 11
640.275
 21
80
  0
LINE
  8
0
 10
640.275
 20
160
 11
640.531
 21
161.941
  0
LINE
  8
0
 10
640.531
 20
161.941
 11
641.28
 21
163.75
  0
LINE
  8
0
 10
641.28
 20
163.75
 11
642.472
 21
165.303
  0
LINE
  8
0
 10
642.472
 20
165.303
 11
644.025
 21
166.495
  0
LINE
  8
0
 10
644.025
 20
166.495
 11
645.834
 21
167.244
  0
LINE
  8
0
 10
645.834
 20
167.244
 11
647.775
 21
167.5
  0
LINE
  8
0
 10
647.775
 20
167.5
 11
649.716
 21
167.244
  0
LINE
  8
0
 10
649.716
 20
167.244
 11
651.525
 21
166.495
  0
LINE
  8
0
 10
651.525
 20
166.495
 11
653.078
 21
165.303
  0
LINE
  8
0
 10
653.078
 20
165.303
 11
654.27
 21
163.75
  0
LINE
  8
0
 10
654.27
 20
163.75
 11
655.019
 21
161.941
  0
LINE
  8
0
 10
655.019
 20
161.941
 11
655.275
 21
160
  0
LINE
  8
0
 10
655.275
 20
160
 11
655.019
 21
158.059
  0
LINE
  8
0
 10
655.019
 20
158.059
 11
654.27
 21
156.25
  0
LINE
  8
0
 10
654.27
 20
156.25
 11
653.078
 21
154.697
  0
LINE
  8
0
 10
653.078
 20
154.697
 11
651.525
 21
153.505
  0
LINE
  8
0
 10
651.525
 20
153.505
 11
649.716
 21
152.756
  0
LINE
  8
0
 10
649.716
 20
152.756
 11
647.775
 21
152.5
  0
LINE
  8
0
 10
647.775
 20
152.5
 11
645.834
 21
152.756
  0
LINE
  8
0
 10
645.834
 20
152.756
 11
644.025
 21
153.505
  0
LINE
  8
0
 10
644.025
 20
153.505
 11
642.472
 21
154.697
  0
LINE
  8
0
 10
642.472
 20
154.697
 11
641.28
 21
156.25
  0
LINE
  8
0
 10
641.28
 20
156.25
 11
640.531
 21
158.059
  0
LINE
  8
0
 10
640.531
 20
158.059
 11
640.275
 21
160
  0
LINE
  8
0
 10
640.275
 20
240
 11
640.531
 21
241.941
  0
LINE
  8
0
 10
640.531
 20
241.941
 11
641.28
 21
243.75
  0
LINE
  8
0
 10
641.28
 20
243.75
 11
642.472
 21
245.303
  0
LINE
  8
0
 10
642.472
 20
245.303
 11
644.025
 21
246.495
  0
LINE
  8
0
 10
644.025
 20
246.495
 11
645.834
 21
247.244
  0
LINE
  8
0
 10
645.834
 20
247.244
 11
647.775
 21
247.5
  0
LINE
  8
0
 10
647.775
 20
247.5
 11
649.716
 21
247.244
  0
LINE
  8
0
 10
649.716
 20
247.244
 11
651.525
 21
246.495
  0
LINE
  8
0
 10
651.525
 20
246.495
 11
653.078
 21
245.303
  0
LINE
  8
0
 10
653.078
 20
245.303
 11
654.27
 21
243.75
  0
LINE
  8
0
 10
654.27
 20
243.75
 11
655.019
 21
241.941
  0
LINE
  8
0
 10
655.019
 20
241.941
 11
655.275
 21
240
  0
LINE
  8
0
 10
655.275
 20
240
 11
655.019
 21
238.059
  0
LINE
  8
0
 10
655.019
 20
238.059
 11
654.27
 21
236.25
  0
LINE
  8
0
 10
654.27
 20
236.25
 11
653.078
 21
234.697
  0
LINE
  8
0
 10
653.078
 20
234.697
 11
651.525
 21
233.505
  0
LINE
  8
0
 10
651.525
 20
233.505
 11
649.716
 21
232.756
  0
LINE
  8
0
 10
649.716
 20
232.756
 11
647.775
 21
232.5
  0
LINE
  8
0
 10
647.775
 20
232.5
 11
645.834
 21
232.756
  0
LINE
  8
0
 10
645.834
 20
232.756
 11
644.025
 21
233.505
  0
LINE
  8
0
 10
644.025
 20
233.505
 11
642.472
 21
234.697
  0
LINE
  8
0
 10
642.472
 20
234.697
 11
641.28
 21
236.25
  0
LINE
  8
0
 10
641.28
 20
236.25
 11
640.531
 21
238.059
  0
LINE
  8
0
 10
640.531
 20
238.059
 11
640.275
 21
240
  0
LINE
  8
0
 10
640.275
 20
320
 11
640.531
 21
321.941
  0
LINE
  8
0
 10
640.531
 20
321.941
 11
641.28
 21
323.75
  0
LINE
  8
0
 10
641.28
 20
323.75
 11
642.472
 21
325.303
  0
LINE
  8
0
 10
642.472
 20
325.303
 11
644.025
 21
326.495
  0
LINE
  8
0
 10
644.025
 20
326.495
 11
645.834
 21
327.244
  0
LINE
  8
0
 10
645.834
 20
327.244
 11
647.775
 21
327.5
  0
LINE
  8
0
 10
647.775
 20
327.5
 11
649.716
 21
327.244
  0
LINE
  8
0
 10
649.716
 20
327.244
 11
651.525
 21
326.495
  0
LINE
  8
0
 10
651.525
 20
326.495
 11
653.078
 21
325.303
  0
LINE
  8
0
 10
653.078
 20
325.303
 11
654.27
 21
323.75
  0
LINE
  8
0
 10
654.27
 20
323.75
 11
655.019
 21
321.941
  0
LINE
  8
0
 10
655.019
 20
321.941
 11
655.275
 21
320
  0
LINE
  8
0
 10
655.275
 20
320
 11
655.019
 21
318.059
  0
LINE
  8
0
 10
655.019
 20
318.059
 11
654.27
 21
316.25
  0
LINE
  8
0
 10
654.27
 20
316.25
 11
653.078
 21
314.697
  0
LINE
  8
0
 10
653.078
 20
314.697
 11
651.525
 21
313.505
  0
LINE
  8
0
 10
651.525
 20
313.505
 11
649.716
 21
312.756
  0
LINE
  8
0
 10
649.716
 20
312.756
 11
647.775
 21
312.5
  0
LINE
  8
0
 10
647.775
 20
312.5
 11
645.834
 21
312.756
  0
LINE
  8
0
 10
645.834
 20
312.756
 11
644.025
 21
313.505
  0
LINE
  8
0
 10
644.025
 20
313.505
 11
642.472
 21
314.697
  0
LINE
  8
0
 10
642.472
 20
314.697
 11
641.28
 21
316.25
  0
LINE
  8
0
 10
641.28
 20
316.25
 11
640.531
 21
318.059
  0
LINE
  8
0
 10
640.531
 20
318.059
 11
640.275
 21
320
  0
LINE
  8
0
 10
651.47
 20
38.1
 11
651.611
 21
39.5339
  0
LINE
  8
0
 10
651.611
 20
39.5339
 11
652.029
 21
40.9127
  0
LINE
  8
0
 10
652.029
 20
40.9127
 11
652.709
 21
42.1834
  0
LINE
  8
0
 10
652.709
 20
42.1834
 11
653.623
 21
43.2972
  0
LINE
  8
0
 10
653.623
 20
43.2972
 11
654.737
 21
44.2113
  0
LINE
  8
0
 10
654.737
 20
44.2113
 11
656.007
 21
44.8905
  0
LINE
  8
0
 10
656.007
 20
44.8905
 11
657.386
 21
45.3088
  0
LINE
  8
0
 10
657.386
 20
45.3088
 11
658.82
 21
45.45
  0
LINE
  8
0
 10
658.82
 20
45.45
 11
660.254
 21
45.3088
  0
LINE
  8
0
 10
660.254
 20
45.3088
 11
661.633
 21
44.8905
  0
LINE
  8
0
 10
661.633
 20
44.8905
 11
662.903
 21
44.2113
  0
LINE
  8
0
 10
662.903
 20
44.2113
 11
664.017
 21
43.2972
  0
LINE
  8
0
 10
664.017
 20
43.2972
 11
664.931
 21
42.1834
  0
LINE
  8
0
 10
664.931
 20
42.1834
 11
665.611
 21
40.9127
  0
LINE
  8
0
 10
665.611
 20
40.9127
 11
666.029
 21
39.5339
  0
LINE
  8
0
 10
666.029
 20
39.5339
 11
666.17
 21
38.1
  0
LINE
  8
0
 10
666.17
 20
38.1
 11
666.029
 21
36.6661
  0
LINE
  8
0
 10
666.029
 20
36.6661
 11
665.611
 21
35.2873
  0
LINE
  8
0
 10
665.611
 20
35.2873
 11
664.931
 21
34.0166
  0
LINE
  8
0
 10
664.931
 20
34.0166
 11
664.017
 21
32.9028
  0
LINE
  8
0
 10
664.017
 20
32.9028
 11
662.903
 21
31.9887
  0
LINE
  8
0
 10
662.903
 20
31.9887
 11
661.633
 21
31.3095
  0
LINE
  8
0
 10
661.633
 20
31.3095
 11
660.254
 21
30.8912
  0
LINE
  8
0
 10
660.254
 20
30.8912
 11
658.82
 21
30.75
  0
LINE
  8
0
 10
658.82
 20
30.75
 11
657.386
 21
30.8912
  0
LINE
  8
0
 10
657.386
 20
30.8912
 11
656.007
 21
31.3095
  0
LINE
  8
0
 10
656.007
 20
31.3095
 11
654.737
 21
31.9887
  0
LINE
  8
0
 10
654.737
 20
31.9887
 11
653.623
 21
32.9028
  0
LINE
  8
0
 10
653.623
 20
32.9028
 11
652.709
 21
34.0166
  0
LINE
  8
0
 10
652.709
 20
34.0166
 11
652.029
 21
35.2873
  0
LINE
  8
0
 10
652.029
 20
35.2873
 11
651.611
 21
36.6661
  0
LINE
  8
0
 10
651.611
 20
36.6661
 11
651.47
 21
38.1
  0
LINE
  8
0
 10
651.47
 20
361.9
 11
651.611
 21
363.334
  0
LINE
  8
0
 10
651.611
 20
363.334
 11
652.029
 21
364.713
  0
LINE
  8
0
 10
652.029
 20
364.713
 11
652.709
 21
365.983
  0
LINE
  8
0
 10
652.709
 20
365.983
 11
653.623
 21
367.097
  0
LINE
  8
0
 10
653.623
 20
367.097
 11
654.737
 21
368.011
  0
LINE
  8
0
 10
654.737
 20
368.011
 11
656.007
 21
368.691
  0
LINE
  8
0
 10
656.007
 20
368.691
 11
657.386
 21
369.109
  0
LINE
  8
0
 10
657.386
 20
369.109
 11
658.82
 21
369.25
  0
LINE
  8
0
 10
658.82
 20
369.25
 11
660.254
 21
369.109
  0
LINE
  8
0
 10
660.254
 20
369.109
 11
661.633
 21
368.691
  0
LINE
  8
0
 10
661.633
 20
368.691
 11
662.903
 21
368.011
  0
LINE
  8
0
 10
662.903
 20
368.011
 11
664.017
 21
367.097
  0
LINE
  8
0
 10
664.017
 20
367.097
 11
664.931
 21
365.983
  0
LINE
  8
0
 10
664.931
 20
365.983
 11
665.611
 21
364.713
  0
LINE
  8
0
 10
665.611
 20
364.713
 11
666.029
 21
363.334
  0
LINE
  8
0
 10
666.029
 20
363.334
 11
666.17
 21
361.9
  0
LINE
  8
0
 10
666.17
 20
361.9
 11
666.029
 21
360.466
  0
LINE
  8
0
 10
666.029
 20
360.466
 11
665.611
 21
359.087
  0
LINE
  8
0
 10
665.611
 20
359.087
 11
664.931
 21
357.817
  0
LINE
  8
0
 10
664.931
 20
357.817
 11
664.017
 21
356.703
  0
LINE
  8
0
 10
664.017
 20
356.703
 11
662.903
 21
355.789
  0
LINE
  8
0
 10
662.903
 20
355.789
 11
661.633
 21
355.109
  0
LINE
  8
0
 10
661.633
 20
355.109
 11
660.254
 21
354.691
  0
LINE
  8
0
 10
660.254
 20
354.691
 11
658.82
 21
354.55
  0
LINE
  8
0
 10
658.82
 20
354.55
 11
657.386
 21
354.691
  0
LINE
  8
0
 10
657.386
 20
354.691
 11
656.007
 21
355.109
  0
LINE
  8
0
 10
656.007
 20
355.109
 11
654.737
 21
355.789
  0
LINE
  8
0
 10
654.737
 20
355.789
 11
653.623
 21
356.703
  0
LINE
  8
0
 10
653.623
 20
356.703
 11
652.709
 21
357.817
  0
LINE
  8
0
 10
652.709
 20
357.817
 11
652.029
 21
359.087
  0
LINE
  8
0
 10
652.029
 20
359.087
 11
651.611
 21
360.466
  0
LINE
  8
0
 10
651.611
 20
360.466
 11
651.47
 21
361.9
  0
LINE
  8
0
 10
705.975
 20
110.2
 11
706.116
 21
111.634
  0
LINE
  8
0
 10
706.116
 20
111.634
 11
706.534
 21
113.013
  0
LINE
  8
0
 10
706.534
 20
113.013
 11
707.214
 21
114.283
  0
LINE
  8
0
 10
707.214
 20
114.283
 11
708.128
 21
115.397
  0
LINE
  8
0
 10
708.128
 20
115.397
 11
709.242
 21
116.311
  0
LINE
  8
0
 10
709.242
 20
116.311
 11
710.512
 21
116.991
  0
LINE
  8
0
 10
710.512
 20
116.991
 11
711.891
 21
117.409
  0
LINE
  8
0
 10
711.891
 20
117.409
 11
713.325
 21
117.55
  0
LINE
  8
0
 10
713.325
 20
117.55
 11
714.759
 21
117.409
  0
LINE
  8
0
 10
714.759
 20
117.409
 11
716.138
 21
116.991
  0
LINE
  8
0
 10
716.138
 20
116.991
 11
717.408
 21
116.311
  0
LINE
  8
0
 10
717.408
 20
116.311
 11
718.522
 21
115.397
  0
LINE
  8
0
 10
718.522
 20
115.397
 11
719.436
 21
114.283
  0
LINE
  8
0
 10
719.436
 20
114.283
 11
720.116
 21
113.013
  0
LINE
  8
0
 10
720.116
 20
113.013
 11
720.534
 21
111.634
  0
LINE
  8
0
 10
720.534
 20
111.634
 11
720.675
 21
110.2
  0
LINE
  8
0
 10
720.675
 20
110.2
 11
720.534
 21
108.766
  0
LINE
  8
0
 10
720.534
 20
108.766
 11
720.116
 21
107.387
  0
LINE
  8
0
 10
720.116
 20
107.387
 11
719.436
 21
106.117
  0
LINE
  8
0
 10
719.436
 20
106.117
 11
718.522
 21
105.003
  0
LINE
  8
0
 10
718.522
 20
105.003
 11
717.408
 21
104.089
  0
LINE
  8
0
 10
717.408
 20
104.089
 11
716.138
 21
103.409
  0
LINE
  8
0
 10
716.138
 20
103.409
 11
714.759
 21
102.991
  0
LINE
  8
0
 10
714.759
 20
102.991
 11
713.325
 21
102.85
  0
LINE
  8
0
 10
713.325
 20
102.85
 11
711.891
 21
102.991
  0
LINE
  8
0
 10
711.891
 20
102.991
 11
710.512
 21
103.409
  0
LINE
  8
0
 10
710.512
 20
103.409
 11
709.242
 21
104.089
  0
LINE
  8
0
 10
709.242
 20
104.089
 11
708.128
 21
105.003
  0
LINE
  8
0
 10
708.128
 20
105.003
 11
707.214
 21
106.117
  0
LINE
  8
0
 10
707.214
 20
106.117
 11
706.534
 21
107.387
  0
LINE
  8
0
 10
706.534
 20
107.387
 11
706.116
 21
108.766
  0
LINE
  8
0
 10
706.116
 20
108.766
 11
705.975
 21
110.2
  0
LINE
  8
0
 10
705.975
 20
289.8
 11
706.116
 21
291.234
  0
LINE
  8
0
 10
706.116
 20
291.234
 11
706.534
 21
292.613
  0
LINE
  8
0
 10
706.534
 20
292.613
 11
707.214
 21
293.883
  0
LINE
  8
0
 10
707.214
 20
293.883
 11
708.128
 21
294.997
  0
LINE
  8
0
 10
708.128
 20
294.997
 11
709.242
 21
295.911
  0
LINE
  8
0
 10
709.242
 20
295.911
 11
710.512
 21
296.591
  0
LINE
  8
0
 10
710.512
 20
296.591
 11
711.891
 21
297.009
  0
LINE
  8
0
 10
711.891
 20
297.009
 11
713.325
 21
297.15
  0
LINE
  8
0
 10
713.325
 20
297.15
 11
714.759
 21
297.009
  0
LINE
  8
0
 10
714.759
 20
297.009
 11
716.138
 21
296.591
  0
LINE
  8
0
 10
716.138
 20
296.591
 11
717.408
 21
295.911
  0
LINE
  8
0
 10
717.408
 20
295.911
 11
718.522
 21
294.997
  0
LINE
  8
0
 10
718.522
 20
294.997
 11
719.436
 21
293.883
  0
LINE
  8
0
 10
719.436
 20
293.883
 11
720.116
 21
292.613
  0
LINE
  8
0
 10
720.116
 20
292.613
 11
720.534
 21
291.234
  0
LINE
  8
0
 10
720.534
 20
291.234
 11
720.675
 21
289.8
  0
LINE
  8
0
 10
720.675
 20
289.8
 11
720.534
 21
288.366
  0
LINE
  8
0
 10
720.534
 20
288.366
 11
720.116
 21
286.987
  0
LINE
  8
0
 10
720.116
 20
286.987
 11
719.436
 21
285.717
  0
LINE
  8
0
 10
719.436
 20
285.717
 11
718.522
 21
284.603
  0
LINE
  8
0
 10
718.522
 20
284.603
 11
717.408
 21
283.689
  0
LINE
  8
0
 10
717.408
 20
283.689
 11
716.138
 21
283.009
  0
LINE
  8
0
 10
716.138
 20
283.009
 11
714.759
 21
282.591
  0
LINE
  8
0
 10
714.759
 20
282.591
 11
713.325
 21
282.45
  0
LINE
  8
0
 10
713.325
 20
282.45
 11
711.891
 21
282.591
  0
LINE
  8
0
 10
711.891
 20
282.591
 11
710.512
 21
283.009
  0
LINE
  8
0
 10
710.512
 20
283.009
 11
709.242
 21
283.689
  0
LINE
  8
0
 10
709.242
 20
283.689
 11
708.128
 21
284.603
  0
LINE
  8
0
 10
708.128
 20
284.603
 11
707.214
 21
285.717
  0
LINE
  8
0
 10
707.214
 20
285.717
 11
706.534
 21
286.987
  0
LINE
  8
0
 10
706.534
 20
286.987
 11
706.116
 21
288.366
  0
LINE
  8
0
 10
706.116
 20
288.366
 11
705.975
 21
289.8
  0
ENDSEC
  0
SECTION
  2
OBJECTS
  0
DICTIONARY
  0
ENDSEC
  0
EOF
