  0
SECTION
  2
BLOCKS
  0
ENDSEC
  0
SECTION
  2
ENTITIES
  0
LINE
  8
0
 10
0
 20
50
 11
0.427757
 21
43.4737
  0
LINE
  8
0
 10
0.427757
 20
43.4737
 11
1.70371
 21
37.059
  0
LINE
  8
0
 10
1.70371
 20
37.059
 11
3.80602
 21
30.8658
  0
LINE
  8
0
 10
3.80602
 20
30.8658
 11
6.69873
 21
25
  0
LINE
  8
0
 10
6.69873
 20
25
 11
10.3323
 21
19.5619
  0
LINE
  8
0
 10
10.3323
 20
19.5619
 11
14.6447
 21
14.6447
  0
LINE
  8
0
 10
14.6447
 20
14.6447
 11
19.5619
 21
10.3323
  0
LINE
  8
0
 10
19.5619
 20
10.3323
 11
25
 21
6.69873
  0
LINE
  8
0
 10
25
 20
6.69873
 11
30.8658
 21
3.80602
  0
LINE
  8
0
 10
30.8658
 20
3.80602
 11
37.059
 21
1.70371
  0
LINE
  8
0
 10
37.059
 20
1.70371
 11
43.4737
 21
0.427757
  0
LINE
  8
0
 10
43.4737
 20
0.427757
 11
50
 21
0
  0
LINE
  8
0
 10
50
 20
0
 11
350
 21
0
  0
LINE
  8
0
 10
350
 20
0
 11
356.526
 21
0.427757
  0
LINE
  8
0
 10
356.526
 20
0.427757
 11
362.941
 21
1.70371
  0
LINE
  8
0
 10
362.941
 20
1.70371
 11
369.134
 21
3.80602
  0
LINE
  8
0
 10
369.134
 20
3.80602
 11
375
 21
6.69873
  0
LINE
  8
0
 10
375
 20
6.69873
 11
380.438
 21
10.3323
  0
LINE
  8
0
 10
380.438
 20
10.3323
 11
385.355
 21
14.6447
  0
LINE
  8
0
 10
385.355
 20
14.6447
 11
389.668
 21
19.5619
  0
LINE
  8
0
 10
389.668
 20
19.5619
 11
393.301
 21
25
  0
LINE
  8
0
 10
393.301
 20
25
 11
396.194
 21
30.8658
  0
LINE
  8
0
 10
396.194
 20
30.8658
 11
398.296
 21
37.059
  0
LINE
  8
0
 10
398.296
 20
37.059
 11
399.572
 21
43.4737
  0
LINE
  8
0
 10
399.572
 20
43.4737
 11
400
 21
50
  0
LINE
  8
0
 10
400
 20
50
 11
400
 21
180
  0
LINE
  8
0
 10
400
 20
180
 11
399.572
 21
186.526
  0
LINE
  8
0
 10
399.572
 20
186.526
 11
398.296
 21
192.941
  0
LINE
  8
0
 10
398.296
 20
192.941
 11
396.194
 21
199.134
  0
LINE
  8
0
 10
396.194
 20
199.134
 11
393.301
 21
205
  0
LINE
  8
0
 10
393.301
 20
205
 11
389.668
 21
210.438
  0
LINE
  8
0
 10
389.668
 20
210.438
 11
385.355
 21
215.355
  0
LINE
  8
0
 10
385.355
 20
215.355
 11
380.438
 21
219.668
  0
LINE
  8
0
 10
380.438
 20
219.668
 11
375
 21
223.301
  0
LINE
  8
0
 10
375
 20
223.301
 11
369.134
 21
226.194
  0
LINE
  8
0
 10
369.134
 20
226.194
 11
362.941
 21
228.296
  0
LINE
  8
0
 10
362.941
 20
228.296
 11
356.526
 21
229.572
  0
LINE
  8
0
 10
356.526
 20
229.572
 11
350
 21
230
  0
LINE
  8
0
 10
350
 20
230
 11
343.474
 21
229.572
  0
LINE
  8
0
 10
343.474
 20
229.572
 11
337.059
 21
228.296
  0
LINE
  8
0
 10
337.059
 20
228.296
 11
330.866
 21
226.194
  0
LINE
  8
0
 10
330.866
 20
226.194
 11
325
 21
223.301
  0
LINE
  8
0
 10
325
 20
223.301
 11
319.562
 21
219.668
  0
LINE
  8
0
 10
319.562
 20
219.668
 11
314.645
 21
215.355
  0
LINE
  8
0
 10
314.645
 20
215.355
 11
310.332
 21
210.438
  0
LINE
  8
0
 10
310.332
 20
210.438
 11
306.699
 21
205
  0
LINE
  8
0
 10
306.699
 20
205
 11
303.806
 21
199.134
  0
LINE
  8
0
 10
303.806
 20
199.134
 11
301.704
 21
192.941
  0
LINE
  8
0
 10
301.704
 20
192.941
 11
300.428
 21
186.526
  0
LINE
  8
0
 10
300.428
 20
186.526
 11
300
 21
180
  0
LINE
  8
0
 10
300
 20
180
 11
300
 21
100
  0
LINE
  8
0
 10
300
 20
100
 11
50
 21
100
  0
LINE
  8
0
 10
50
 20
100
 11
43.4737
 21
99.5722
  0
LINE
  8
0
 10
43.4737
 20
99.5722
 11
37.059
 21
98.2963
  0
LINE
  8
0
 10
37.059
 20
98.2963
 11
30.8658
 21
96.194
  0
LINE
  8
0
 10
30.8658
 20
96.194
 11
25
 21
93.3013
  0
LINE
  8
0
 10
25
 20
93.3013
 11
19.5619
 21
89.6677
  0
LINE
  8
0
 10
19.5619
 20
89.6677
 11
14.6447
 21
85.3553
  0
LINE
  8
0
 10
14.6447
 20
85.3553
 11
10.3323
 21
80.4381
  0
LINE
  8
0
 10
10.3323
 20
80.4381
 11
6.69873
 21
75
  0
LINE
  8
0
 10
6.69873
 20
75
 11
3.80602
 21
69.1342
  0
LINE
  8
0
 10
3.80602
 20
69.1342
 11
1.70371
 21
62.941
  0
LINE
  8
0
 10
1.70371
 20
62.941
 11
0.427757
 21
56.5263
  0
LINE
  8
0
 10
0.427757
 20
56.5263
 11
0
 21
50
  0
LINE
  8
0
 10
132.65
 20
25.4
 11
132.791
 21
26.8339
  0
LINE
  8
0
 10
132.791
 20
26.8339
 11
133.209
 21
28.2127
  0
LINE
  8
0
 10
133.209
 20
28.2127
 11
133.889
 21
29.4834
  0
LINE
  8
0
 10
133.889
 20
29.4834
 11
134.803
 21
30.5972
  0
LINE
  8
0
 10
134.803
 20
30.5972
 11
135.917
 21
31.5113
  0
LINE
  8
0
 10
135.917
 20
31.5113
 11
137.187
 21
32.1905
  0
LINE
  8
0
 10
137.187
 20
32.1905
 11
138.566
 21
32.6088
  0
LINE
  8
0
 10
138.566
 20
32.6088
 11
140
 21
32.75
  0
LINE
  8
0
 10
140
 20
32.75
 11
141.434
 21
32.6088
  0
LINE
  8
0
 10
141.434
 20
32.6088
 11
142.813
 21
32.1905
  0
LINE
  8
0
 10
142.813
 20
32.1905
 11
144.083
 21
31.5113
  0
LINE
  8
0
 10
144.083
 20
31.5113
 11
145.197
 21
30.5972
  0
LINE
  8
0
 10
145.197
 20
30.5972
 11
146.111
 21
29.4834
  0
LINE
  8
0
 10
146.111
 20
29.4834
 11
146.791
 21
28.2127
  0
LINE
  8
0
 10
146.791
 20
28.2127
 11
147.209
 21
26.8339
  0
LINE
  8
0
 10
147.209
 20
26.8339
 11
147.35
 21
25.4
  0
LINE
  8
0
 10
147.35
 20
25.4
 11
147.209
 21
23.9661
  0
LINE
  8
0
 10
147.209
 20
23.9661
 11
146.791
 21
22.5873
  0
LINE
  8
0
 10
146.791
 20
22.5873
 11
146.111
 21
21.3166
  0
LINE
  8
0
 10
146.111
 20
21.3166
 11
145.197
 21
20.2028
  0
LINE
  8
0
 10
145.197
 20
20.2028
 11
144.083
 21
19.2887
  0
LINE
  8
0
 10
144.083
 20
19.2887
 11
142.813
 21
18.6095
  0
LINE
  8
0
 10
142.813
 20
18.6095
 11
141.434
 21
18.1912
  0
LINE
  8
0
 10
141.434
 20
18.1912
 11
140
 21
18.05
  0
LINE
  8
0
 10
140
 20
18.05
 11
138.566
 21
18.1912
  0
LINE
  8
0
 10
138.566
 20
18.1912
 11
137.187
 21
18.6095
  0
LINE
  8
0
 10
137.187
 20
18.6095
 11
135.917
 21
19.2887
  0
LINE
  8
0
 10
135.917
 20
19.2887
 11
134.803
 21
20.2028
  0
LINE
  8
0
 10
134.803
 20
20.2028
 11
133.889
 21
21.3166
  0
LINE
  8
0
 10
133.889
 20
21.3166
 11
133.209
 21
22.5873
  0
LINE
  8
0
 10
133.209
 20
22.5873
 11
132.791
 21
23.9661
  0
LINE
  8
0
 10
132.791
 20
23.9661
 11
132.65
 21
25.4
  0
LINE
  8
0
 10
252.65
 20
25.4
 11
252.791
 21
26.8339
  0
LINE
  8
0
 10
252.791
 20
26.8339
 11
253.209
 21
28.2127
  0
LINE
  8
0
 10
253.209
 20
28.2127
 11
253.889
 21
29.4834
  0
LINE
  8
0
 10
253.889
 20
29.4834
 11
254.803
 21
30.5972
  0
LINE
  8
0
 10
254.803
 20
30.5972
 11
255.917
 21
31.5113
  0
LINE
  8
0
 10
255.917
 20
31.5113
 11
257.187
 21
32.1905
  0
LINE
  8
0
 10
257.187
 20
32.1905
 11
258.566
 21
32.6088
  0
LINE
  8
0
 10
258.566
 20
32.6088
 11
260
 21
32.75
  0
LINE
  8
0
 10
260
 20
32.75
 11
261.434
 21
32.6088
  0
LINE
  8
0
 10
261.434
 20
32.6088
 11
262.813
 21
32.1905
  0
LINE
  8
0
 10
262.813
 20
32.1905
 11
264.083
 21
31.5113
  0
LINE
  8
0
 10
264.083
 20
31.5113
 11
265.197
 21
30.5972
  0
LINE
  8
0
 10
265.197
 20
30.5972
 11
266.111
 21
29.4834
  0
LINE
  8
0
 10
266.111
 20
29.4834
 11
266.791
 21
28.2127
  0
LINE
  8
0
 10
266.791
 20
28.2127
 11
267.209
 21
26.8339
  0
LINE
  8
0
 10
267.209
 20
26.8339
 11
267.35
 21
25.4
  0
LINE
  8
0
 10
267.35
 20
25.4
 11
267.209
 21
23.9661
  0
LINE
  8
0
 10
267.209
 20
23.9661
 11
266.791
 21
22.5873
  0
LINE
  8
0
 10
266.791
 20
22.5873
 11
266.111
 21
21.3166
  0
LINE
  8
0
 10
266.111
 20
21.3166
 11
265.197
 21
20.2028
  0
LINE
  8
0
 10
265.197
 20
20.2028
 11
264.083
 21
19.2887
  0
LINE
  8
0
 10
264.083
 20
19.2887
 11
262.813
 21
18.6095
  0
LINE
  8
0
 10
262.813
 20
18.6095
 11
261.434
 21
18.1912
  0
LINE
  8
0
 10
261.434
 20
18.1912
 11
260
 21
18.05
  0
LINE
  8
0
 10
260
 20
18.05
 11
258.566
 21
18.1912
  0
LINE
  8
0
 10
258.566
 20
18.1912
 11
257.187
 21
18.6095
  0
LINE
  8
0
 10
257.187
 20
18.6095
 11
255.917
 21
19.2887
  0
LINE
  8
0
 10
255.917
 20
19.2887
 11
254.803
 21
20.2028
  0
LINE
  8
0
 10
254.803
 20
20.2028
 11
253.889
 21
21.3166
  0
LINE
  8
0
 10
253.889
 20
21.3166
 11
253.209
 21
22.5873
  0
LINE
  8
0
 10
253.209
 20
22.5873
 11
252.791
 21
23.9661
  0
LINE
  8
0
 10
252.791
 20
23.9661
 11
252.65
 21
25.4
  0
LINE
  8
0
 10
336.3
 20
180
 11
336.417
 21
181.788
  0
LINE
  8
0
 10
336.417
 20
181.788
 11
336.767
 21
183.546
  0
LINE
  8
0
 10
336.767
 20
183.546
 11
337.343
 21
185.243
  0
LINE
  8
0
 10
337.343
 20
185.243
 11
338.135
 21
186.85
  0
LINE
  8
0
 10
338.135
 20
186.85
 11
339.131
 21
188.34
  0
LINE
  8
0
 10
339.131
 20
188.34
 11
340.313
 21
189.687
  0
LINE
  8
0
 10
340.313
 20
189.687
 11
341.66
 21
190.869
  0
LINE
  8
0
 10
341.66
 20
190.869
 11
343.15
 21
191.865
  0
LINE
  8
0
 10
343.15
 20
191.865
 11
344.757
 21
192.657
  0
LINE
  8
0
 10
344.757
 20
192.657
 11
346.454
 21
193.233
  0
LINE
  8
0
 10
346.454
 20
193.233
 11
348.212
 21
193.583
  0
LINE
  8
0
 10
348.212
 20
193.583
 11
350
 21
193.7
  0
LINE
  8
0
 10
350
 20
193.7
 11
351.788
 21
193.583
  0
LINE
  8
0
 10
351.788
 20
193.583
 11
353.546
 21
193.233
  0
LINE
  8
0
 10
353.546
 20
193.233
 11
355.243
 21
192.657
  0
LINE
  8
0
 10
355.243
 20
192.657
 11
356.85
 21
191.865
  0
LINE
  8
0
 10
356.85
 20
191.865
 11
358.34
 21
190.869
  0
LINE
  8
0
 10
358.34
 20
190.869
 11
359.687
 21
189.687
  0
LINE
  8
0
 10
359.687
 20
189.687
 11
360.869
 21
188.34
  0
LINE
  8
0
 10
360.869
 20
188.34
 11
361.865
 21
186.85
  0
LINE
  8
0
 10
361.865
 20
186.85
 11
362.657
 21
185.243
  0
LINE
  8
0
 10
362.657
 20
185.243
 11
363.233
 21
183.546
  0
LINE
  8
0
 10
363.233
 20
183.546
 11
363.583
 21
181.788
  0
LINE
  8
0
 10
363.583
 20
181.788
 11
363.7
 21
180
  0
LINE
  8
0
 10
363.7
 20
180
 11
363.583
 21
178.212
  0
LINE
  8
0
 10
363.583
 20
178.212
 11
363.233
 21
176.454
  0
LINE
  8
0
 10
363.233
 20
176.454
 11
362.657
 21
174.757
  0
LINE
  8
0
 10
362.657
 20
174.757
 11
361.865
 21
173.15
  0
LINE
  8
0
 10
361.865
 20
173.15
 11
360.869
 21
171.66
  0
LINE
  8
0
 10
360.869
 20
171.66
 11
359.687
 21
170.313
  0
LINE
  8
0
 10
359.687
 20
170.313
 11
358.34
 21
169.131
  0
LINE
  8
0
 10
358.34
 20
169.131
 11
356.85
 21
168.135
  0
LINE
  8
0
 10
356.85
 20
168.135
 11
355.243
 21
167.343
  0
LINE
  8
0
 10
355.243
 20
167.343
 11
353.546
 21
166.767
  0
LINE
  8
0
 10
353.546
 20
166.767
 11
351.788
 21
166.417
  0
LINE
  8
0
 10
351.788
 20
166.417
 11
350
 21
166.3
  0
LINE
  8
0
 10
350
 20
166.3
 11
348.212
 21
166.417
  0
LINE
  8
0
 10
348.212
 20
166.417
 11
346.454
 21
166.767
  0
LINE
  8
0
 10
346.454
 20
166.767
 11
344.757
 21
167.343
  0
LINE
  8
0
 10
344.757
 20
167.343
 11
343.15
 21
168.135
  0
LINE
  8
0
 10
343.15
 20
168.135
 11
341.66
 21
169.131
  0
LINE
  8
0
 10
341.66
 20
169.131
 11
340.313
 21
170.313
  0
LINE
  8
0
 10
340.313
 20
170.313
 11
339.131
 21
171.66
  0
LINE
  8
0
 10
339.131
 20
171.66
 11
338.135
 21
173.15
  0
LINE
  8
0
 10
338.135
 20
173.15
 11
337.343
 21
174.757
  0
LINE
  8
0
 10
337.343
 20
174.757
 11
336.767
 21
176.454
  0
LINE
  8
0
 10
336.767
 20
176.454
 11
336.417
 21
178.212
  0
LINE
  8
0
 10
336.417
 20
178.212
 11
336.3
 21
180
  0
LINE
  8
0
 10
341.062
 20
120
 11
341.234
 21
121.744
  0
LINE
  8
0
 10
341.234
 20
121.744
 11
341.743
 21
123.42
  0
LINE
  8
0
 10
341.743
 20
123.42
 11
342.569
 21
124.965
  0
LINE
  8
0
 10
342.569
 20
124.965
 11
343.68
 21
126.32
  0
LINE
  8
0
 10
343.68
 20
126.32
 11
345.035
 21
127.431
  0
LINE
  8
0
 10
345.035
 20
127.431
 11
346.58
 21
128.257
  0
LINE
  8
0
 10
346.58
 20
128.257
 11
348.256
 21
128.766
  0
LINE
  8
0
 10
348.256
 20
128.766
 11
350
 21
128.938
  0
LINE
  8
0
 10
350
 20
128.938
 11
351.744
 21
128.766
  0
LINE
  8
0
 10
351.744
 20
128.766
 11
353.42
 21
128.257
  0
LINE
  8
0
 10
353.42
 20
128.257
 11
354.965
 21
127.431
  0
LINE
  8
0
 10
354.965
 20
127.431
 11
356.32
 21
126.32
  0
LINE
  8
0
 10
356.32
 20
126.32
 11
357.431
 21
124.965
  0
LINE
  8
0
 10
357.431
 20
124.965
 11
358.257
 21
123.42
  0
LINE
  8
0
 10
358.257
 20
123.42
 11
358.766
 21
121.744
  0
LINE
  8
0
 10
358.766
 20
121.744
 11
358.938
 21
120
  0
LINE
  8
0
 10
358.938
 20
120
 11
358.766
 21
118.256
  0
LINE
  8
0
 10
358.766
 20
118.256
 11
358.257
 21
116.58
  0
LINE
  8
0
 10
358.257
 20
116.58
 11
357.431
 21
115.035
  0
LINE
  8
0
 10
357.431
 20
115.035
 11
356.32
 21
113.68
  0
LINE
  8
0
 10
356.32
 20
113.68
 11
354.965
 21
112.569
  0
LINE
  8
0
 10
354.965
 20
112.569
 11
353.42
 21
111.743
  0
LINE
  8
0
 10
353.42
 20
111.743
 11
351.744
 21
111.234
  0
LINE
  8
0
 10
351.744
 20
111.234
 11
350
 21
111.062
  0
LINE
  8
0
 10
350
 20
111.062
 11
348.256
 21
111.234
  0
LINE
  8
0
 10
348.256
 20
111.234
 11
346.58
 21
111.743
  0
LINE
  8
0
 10
346.58
 20
111.743
 11
345.035
 21
112.569
  0
LINE
  8
0
 10
345.035
 20
112.569
 11
343.68
 21
113.68
  0
LINE
  8
0
 10
343.68
 20
113.68
 11
342.569
 21
115.035
  0
LINE
  8
0
 10
342.569
 20
115.035
 11
341.743
 21
116.58
  0
LINE
  8
0
 10
341.743
 20
116.58
 11
341.234
 21
118.256
  0
LINE
  8
0
 10
341.234
 20
118.256
 11
341.062
 21
120
  0
ENDSEC
  0
SECTION
  2
OBJECTS
  0
DICTIONARY
  0
ENDSEC
  0
EOF
