  0
SECTION
  2
HEADER
  9
$ACADVER
  1
AC1009
  9
$INSUNITS
 70
4
  9
$MEASUREMENT
 70
1
  0
ENDSEC
  0
SECTION
  2
BLOCKS
  0
ENDSEC
  0
SECTION
  2
ENTITIES
  0
LINE
  8
0
 10
-0.000403421
 20
114.299
 11
0.550086
 21
103.095
  0
LINE
  8
0
 10
0.550086
 20
103.095
 11
2.19605
 21
91.9997
  0
LINE
  8
0
 10
2.19605
 20
91.9997
 11
4.92163
 21
81.119
  0
LINE
  8
0
 10
4.92163
 20
81.119
 11
8.70057
 21
70.5579
  0
LINE
  8
0
 10
8.70057
 20
70.5579
 11
13.4965
 21
60.418
  0
LINE
  8
0
 10
13.4965
 20
60.418
 11
19.2632
 21
50.797
  0
LINE
  8
0
 10
19.2632
 20
50.797
 11
25.9452
 21
41.7876
  0
LINE
  8
0
 10
25.9452
 20
41.7876
 11
33.478
 21
33.4765
  0
LINE
  8
0
 10
33.478
 20
33.4765
 11
41.7893
 21
25.9438
  0
LINE
  8
0
 10
41.7893
 20
25.9438
 11
50.7988
 21
19.262
  0
LINE
  8
0
 10
50.7988
 20
19.262
 11
60.4199
 21
13.4955
  0
LINE
  8
0
 10
60.4199
 20
13.4955
 11
70.5599
 21
8.69976
  0
LINE
  8
0
 10
70.5599
 20
8.69976
 11
81.1211
 21
4.92101
  0
LINE
  8
0
 10
81.1211
 20
4.92101
 11
92.0018
 21
2.19563
  0
LINE
  8
0
 10
92.0018
 20
2.19563
 11
103.097
 21
0.549878
  0
LINE
  8
0
 10
103.097
 20
0.549878
 11
114.301
 21
-0.000403421
  0
LINE
  8
0
 10
114.301
 20
-0.000403421
 11
125.504
 21
0.550086
  0
LINE
  8
0
 10
125.504
 20
0.550086
 11
136.599
 21
2.19605
  0
LINE
  8
0
 10
136.599
 20
2.19605
 11
147.48
 21
4.92163
  0
LINE
  8
0
 10
147.48
 20
4.92163
 11
158.041
 21
8.70057
  0
LINE
  8
0
 10
158.041
 20
8.70057
 11
168.181
 21
13.4965
  0
LINE
  8
0
 10
168.181
 20
13.4965
 11
177.802
 21
19.2632
  0
LINE
  8
0
 10
177.802
 20
19.2632
 11
186.812
 21
25.9452
  0
LINE
  8
0
 10
186.812
 20
25.9452
 11
195.123
 21
33.478
  0
LINE
  8
0
 10
195.123
 20
33.478
 11
202.655
 21
41.7893
  0
LINE
  8
0
 10
202.655
 20
41.7893
 11
209.337
 21
50.7988
  0
LINE
  8
0
 10
209.337
 20
50.7988
 11
215.104
 21
60.4199
  0
LINE
  8
0
 10
215.104
 20
60.4199
 11
219.899
 21
70.5599
  0
LINE
  8
0
 10
219.899
 20
70.5599
 11
223.678
 21
81.1211
  0
LINE
  8
0
 10
223.678
 20
81.1211
 11
226.404
 21
92.0018
  0
LINE
  8
0
 10
226.404
 20
92.0018
 11
228.049
 21
103.097
  0
LINE
  8
0
 10
228.049
 20
103.097
 11
228.6
 21
114.301
  0
LINE
  8
0
 10
228.6
 20
114.301
 11
228.049
 21
125.504
  0
LINE
  8
0
 10
228.049
 20
125.504
 11
226.403
 21
136.599
  0
LINE
  8
0
 10
226.403
 20
136.599
 11
223.678
 21
147.48
  0
LINE
  8
0
 10
223.678
 20
147.48
 11
219.899
 21
158.041
  0
LINE
  8
0
 10
219.899
 20
158.041
 11
215.103
 21
168.181
  0
LINE
  8
0
 10
215.103
 20
168.181
 11
209.336
 21
177.802
  0
LINE
  8
0
 10
209.336
 20
177.802
 11
202.654
 21
186.812
  0
LINE
  8
0
 10
202.654
 20
186.812
 11
195.121
 21
195.123
  0
LINE
  8
0
 10
195.121
 20
195.123
 11
186.81
 21
202.655
  0
LINE
  8
0
 10
186.81
 20
202.655
 11
177.8
 21
209.337
  0
LINE
  8
0
 10
177.8
 20
209.337
 11
168.179
 21
215.104
  0
LINE
  8
0
 10
168.179
 20
215.104
 11
158.039
 21
219.899
  0
LINE
  8
0
 10
158.039
 20
219.899
 11
147.478
 21
223.678
  0
LINE
  8
0
 10
147.478
 20
223.678
 11
136.597
 21
226.404
  0
LINE
  8
0
 10
136.597
 20
226.404
 11
125.502
 21
228.049
  0
LINE
  8
0
 10
125.502
 20
228.049
 11
114.299
 21
228.6
  0
LINE
  8
0
 10
114.299
 20
228.6
 11
103.095
 21
228.049
  0
LINE
  8
0
 10
103.095
 20
228.049
 11
91.9997
 21
226.403
  0
LINE
  8
0
 10
91.9997
 20
226.403
 11
81.119
 21
223.678
  0
LINE
  8
0
 10
81.119
 20
223.678
 11
70.5579
 21
219.899
  0
LINE
  8
0
 10
70.5579
 20
219.899
 11
60.418
 21
215.103
  0
LINE
  8
0
 10
60.418
 20
215.103
 11
50.797
 21
209.336
  0
LINE
  8
0
 10
50.797
 20
209.336
 11
41.7876
 21
202.654
  0
LINE
  8
0
 10
41.7876
 20
202.654
 11
33.4765
 21
195.121
  0
LINE
  8
0
 10
33.4765
 20
195.121
 11
25.9438
 21
186.81
  0
LINE
  8
0
 10
25.9438
 20
186.81
 11
19.262
 21
177.8
  0
LINE
  8
0
 10
19.262
 20
177.8
 11
13.4955
 21
168.179
  0
LINE
  8
0
 10
13.4955
 20
168.179
 11
8.69976
 21
158.039
  0
LINE
  8
0
 10
8.69976
 20
158.039
 11
4.92101
 21
147.478
  0
LINE
  8
0
 10
4.92101
 20
147.478
 11
2.19563
 21
136.597
  0
LINE
  8
0
 10
2.19563
 20
136.597
 11
0.549878
 21
125.502
  0
LINE
  8
0
 10
0.549878
 20
125.502
 11
-0.000403421
 21
114.299
  0
LINE
  8
0
 10
12.5635
 20
154.215
 11
13.0998
 21
156.217
  0
LINE
  8
0
 10
13.0998
 20
156.217
 11
14.1358
 21
158.011
  0
LINE
  8
0
 10
14.1358
 20
158.011
 11
15.601
 21
159.477
  0
LINE
  8
0
 10
15.601
 20
159.477
 11
17.3955
 21
160.513
  0
LINE
  8
0
 10
17.3955
 20
160.513
 11
19.3969
 21
161.049
  0
LINE
  8
0
 10
19.3969
 20
161.049
 11
21.4691
 21
161.049
  0
LINE
  8
0
 10
21.4691
 20
161.049
 11
23.4706
 21
160.513
  0
LINE
  8
0
 10
23.4706
 20
160.513
 11
25.2651
 21
159.477
  0
LINE
  8
0
 10
25.2651
 20
159.477
 11
26.7303
 21
158.011
  0
LINE
  8
0
 10
26.7303
 20
158.011
 11
27.7663
 21
156.217
  0
LINE
  8
0
 10
27.7663
 20
156.217
 11
28.3027
 21
154.215
  0
LINE
  8
0
 10
28.3027
 20
154.215
 11
28.3027
 21
152.143
  0
LINE
  8
0
 10
28.3027
 20
152.143
 11
27.7664
 21
150.142
  0
LINE
  8
0
 10
27.7664
 20
150.142
 11
26.7304
 21
148.347
  0
LINE
  8
0
 10
26.7304
 20
148.347
 11
25.2652
 21
146.882
  0
LINE
  8
0
 10
25.2652
 20
146.882
 11
23.4707
 21
145.846
  0
LINE
  8
0
 10
23.4707
 20
145.846
 11
21.4692
 21
145.31
  0
LINE
  8
0
 10
21.4692
 20
145.31
 11
19.3971
 21
145.31
  0
LINE
  8
0
 10
19.3971
 20
145.31
 11
17.3956
 21
145.846
  0
LINE
  8
0
 10
17.3956
 20
145.846
 11
15.6011
 21
146.882
  0
LINE
  8
0
 10
15.6011
 20
146.882
 11
14.1359
 21
148.347
  0
LINE
  8
0
 10
14.1359
 20
148.347
 11
13.0998
 21
150.142
  0
LINE
  8
0
 10
13.0998
 20
150.142
 11
12.5635
 21
152.143
  0
LINE
  8
0
 10
12.5635
 20
152.143
 11
12.5635
 21
154.215
  0
LINE
  8
0
 10
12.5642
 20
76.4541
 11
13.1005
 21
78.4556
  0
LINE
  8
0
 10
13.1005
 20
78.4556
 11
14.1365
 21
80.2501
  0
LINE
  8
0
 10
14.1365
 20
80.2501
 11
15.6017
 21
81.7153
  0
LINE
  8
0
 10
15.6017
 20
81.7153
 11
17.3962
 21
82.7514
  0
LINE
  8
0
 10
17.3962
 20
82.7514
 11
19.3977
 21
83.2877
  0
LINE
  8
0
 10
19.3977
 20
83.2877
 11
21.4698
 21
83.2877
  0
LINE
  8
0
 10
21.4698
 20
83.2877
 11
23.4713
 21
82.7514
  0
LINE
  8
0
 10
23.4713
 20
82.7514
 11
25.2658
 21
81.7154
  0
LINE
  8
0
 10
25.2658
 20
81.7154
 11
26.731
 21
80.2502
  0
LINE
  8
0
 10
26.731
 20
80.2502
 11
27.7671
 21
78.4557
  0
LINE
  8
0
 10
27.7671
 20
78.4557
 11
28.3034
 21
76.4542
  0
LINE
  8
0
 10
28.3034
 20
76.4542
 11
28.3034
 21
74.3821
  0
LINE
  8
0
 10
28.3034
 20
74.3821
 11
27.7671
 21
72.3806
  0
LINE
  8
0
 10
27.7671
 20
72.3806
 11
26.7311
 21
70.5861
  0
LINE
  8
0
 10
26.7311
 20
70.5861
 11
25.2659
 21
69.1209
  0
LINE
  8
0
 10
25.2659
 20
69.1209
 11
23.4714
 21
68.0848
  0
LINE
  8
0
 10
23.4714
 20
68.0848
 11
21.4699
 21
67.5485
  0
LINE
  8
0
 10
21.4699
 20
67.5485
 11
19.3978
 21
67.5485
  0
LINE
  8
0
 10
19.3978
 20
67.5485
 11
17.3963
 21
68.0848
  0
LINE
  8
0
 10
17.3963
 20
68.0848
 11
15.6018
 21
69.1208
  0
LINE
  8
0
 10
15.6018
 20
69.1208
 11
14.1366
 21
70.586
  0
LINE
  8
0
 10
14.1366
 20
70.586
 11
13.1005
 21
72.3805
  0
LINE
  8
0
 10
13.1005
 20
72.3805
 11
12.5642
 21
74.382
  0
LINE
  8
0
 10
12.5642
 20
74.382
 11
12.5642
 21
76.4541
  0
LINE
  8
0
 10
67.5485
 20
209.201
 11
68.0848
 21
211.203
  0
LINE
  8
0
 10
68.0848
 20
211.203
 11
69.1208
 21
212.997
  0
LINE
  8
0
 10
69.1208
 20
212.997
 11
70.586
 21
214.463
  0
LINE
  8
0
 10
70.586
 20
214.463
 11
72.3805
 21
215.499
  0
LINE
  8
0
 10
72.3805
 20
215.499
 11
74.382
 21
216.035
  0
LINE
  8
0
 10
74.382
 20
216.035
 11
76.4541
 21
216.035
  0
LINE
  8
0
 10
76.4541
 20
216.035
 11
78.4556
 21
215.499
  0
LINE
  8
0
 10
78.4556
 20
215.499
 11
80.2501
 21
214.463
  0
LINE
  8
0
 10
80.2501
 20
214.463
 11
81.7153
 21
212.997
  0
LINE
  8
0
 10
81.7153
 20
212.997
 11
82.7514
 21
211.203
  0
LINE
  8
0
 10
82.7514
 20
211.203
 11
83.2877
 21
209.202
  0
LINE
  8
0
 10
83.2877
 20
209.202
 11
83.2877
 21
207.129
  0
LINE
  8
0
 10
83.2877
 20
207.129
 11
82.7514
 21
205.128
  0
LINE
  8
0
 10
82.7514
 20
205.128
 11
81.7154
 21
203.333
  0
LINE
  8
0
 10
81.7154
 20
203.333
 11
80.2502
 21
201.868
  0
LINE
  8
0
 10
80.2502
 20
201.868
 11
78.4557
 21
200.832
  0
LINE
  8
0
 10
78.4557
 20
200.832
 11
76.4542
 21
200.296
  0
LINE
  8
0
 10
76.4542
 20
200.296
 11
74.3821
 21
200.296
  0
LINE
  8
0
 10
74.3821
 20
200.296
 11
72.3806
 21
200.832
  0
LINE
  8
0
 10
72.3806
 20
200.832
 11
70.5861
 21
201.868
  0
LINE
  8
0
 10
70.5861
 20
201.868
 11
69.1209
 21
203.333
  0
LINE
  8
0
 10
69.1209
 20
203.333
 11
68.0848
 21
205.128
  0
LINE
  8
0
 10
68.0848
 20
205.128
 11
67.5485
 21
207.129
  0
LINE
  8
0
 10
67.5485
 20
207.129
 11
67.5485
 21
209.201
  0
LINE
  8
0
 10
67.5502
 20
21.4691
 11
68.0865
 21
23.4706
  0
LINE
  8
0
 10
68.0865
 20
23.4706
 11
69.1225
 21
25.2651
  0
LINE
  8
0
 10
69.1225
 20
25.2651
 11
70.5877
 21
26.7303
  0
LINE
  8
0
 10
70.5877
 20
26.7303
 11
72.3822
 21
27.7663
  0
LINE
  8
0
 10
72.3822
 20
27.7663
 11
74.3837
 21
28.3027
  0
LINE
  8
0
 10
74.3837
 20
28.3027
 11
76.4558
 21
28.3027
  0
LINE
  8
0
 10
76.4558
 20
28.3027
 11
78.4573
 21
27.7664
  0
LINE
  8
0
 10
78.4573
 20
27.7664
 11
80.2518
 21
26.7304
  0
LINE
  8
0
 10
80.2518
 20
26.7304
 11
81.717
 21
25.2652
  0
LINE
  8
0
 10
81.717
 20
25.2652
 11
82.7531
 21
23.4707
  0
LINE
  8
0
 10
82.7531
 20
23.4707
 11
83.2894
 21
21.4692
  0
LINE
  8
0
 10
83.2894
 20
21.4692
 11
83.2894
 21
19.3971
  0
LINE
  8
0
 10
83.2894
 20
19.3971
 11
82.7532
 21
17.3956
  0
LINE
  8
0
 10
82.7532
 20
17.3956
 11
81.7171
 21
15.6011
  0
LINE
  8
0
 10
81.7171
 20
15.6011
 11
80.2519
 21
14.1359
  0
LINE
  8
0
 10
80.2519
 20
14.1359
 11
78.4575
 21
13.0998
  0
LINE
  8
0
 10
78.4575
 20
13.0998
 11
76.456
 21
12.5635
  0
LINE
  8
0
 10
76.456
 20
12.5635
 11
74.3839
 21
12.5635
  0
LINE
  8
0
 10
74.3839
 20
12.5635
 11
72.3824
 21
13.0998
  0
LINE
  8
0
 10
72.3824
 20
13.0998
 11
70.5878
 21
14.1358
  0
LINE
  8
0
 10
70.5878
 20
14.1358
 11
69.1226
 21
15.601
  0
LINE
  8
0
 10
69.1226
 20
15.601
 11
68.0866
 21
17.3955
  0
LINE
  8
0
 10
68.0866
 20
17.3955
 11
67.5503
 21
19.3969
  0
LINE
  8
0
 10
67.5503
 20
19.3969
 11
67.5502
 21
21.4691
  0
LINE
  8
0
 10
88.1058
 20
114.299
 11
88.3299
 21
117.718
  0
LINE
  8
0
 10
88.3299
 20
117.718
 11
88.9983
 21
121.079
  0
LINE
  8
0
 10
88.9983
 20
121.079
 11
90.0996
 21
124.323
  0
LINE
  8
0
 10
90.0996
 20
124.323
 11
91.615
 21
127.396
  0
LINE
  8
0
 10
91.615
 20
127.396
 11
93.5185
 21
130.245
  0
LINE
  8
0
 10
93.5185
 20
130.245
 11
95.7776
 21
132.821
  0
LINE
  8
0
 10
95.7776
 20
132.821
 11
98.3537
 21
135.08
  0
LINE
  8
0
 10
98.3537
 20
135.08
 11
101.203
 21
136.984
  0
LINE
  8
0
 10
101.203
 20
136.984
 11
104.275
 21
138.499
  0
LINE
  8
0
 10
104.275
 20
138.499
 11
107.52
 21
139.601
  0
LINE
  8
0
 10
107.52
 20
139.601
 11
110.88
 21
140.269
  0
LINE
  8
0
 10
110.88
 20
140.269
 11
114.299
 21
140.493
  0
LINE
  8
0
 10
114.299
 20
140.493
 11
117.718
 21
140.269
  0
LINE
  8
0
 10
117.718
 20
140.269
 11
121.079
 21
139.601
  0
LINE
  8
0
 10
121.079
 20
139.601
 11
124.323
 21
138.5
  0
LINE
  8
0
 10
124.323
 20
138.5
 11
127.396
 21
136.984
  0
LINE
  8
0
 10
127.396
 20
136.984
 11
130.245
 21
135.081
  0
LINE
  8
0
 10
130.245
 20
135.081
 11
132.821
 21
132.822
  0
LINE
  8
0
 10
132.821
 20
132.822
 11
135.08
 21
130.246
  0
LINE
  8
0
 10
135.08
 20
130.246
 11
136.984
 21
127.397
  0
LINE
  8
0
 10
136.984
 20
127.397
 11
138.499
 21
124.324
  0
LINE
  8
0
 10
138.499
 20
124.324
 11
139.601
 21
121.079
  0
LINE
  8
0
 10
139.601
 20
121.079
 11
140.269
 21
117.719
  0
LINE
  8
0
 10
140.269
 20
117.719
 11
140.493
 21
114.3
  0
LINE
  8
0
 10
140.493
 20
114.3
 11
140.269
 21
110.881
  0
LINE
  8
0
 10
140.269
 20
110.881
 11
139.601
 21
107.52
  0
LINE
  8
0
 10
139.601
 20
107.52
 11
138.5
 21
104.276
  0
LINE
  8
0
 10
138.5
 20
104.276
 11
136.984
 21
101.203
  0
LINE
  8
0
 10
136.984
 20
101.203
 11
135.081
 21
98.354
  0
LINE
  8
0
 10
135.081
 20
98.354
 11
132.822
 21
95.778
  0
LINE
  8
0
 10
132.822
 20
95.778
 11
130.246
 21
93.5188
  0
LINE
  8
0
 10
130.246
 20
93.5188
 11
127.397
 21
91.6153
  0
LINE
  8
0
 10
127.397
 20
91.6153
 11
124.324
 21
90.0998
  0
LINE
  8
0
 10
124.324
 20
90.0998
 11
121.079
 21
88.9984
  0
LINE
  8
0
 10
121.079
 20
88.9984
 11
117.719
 21
88.33
  0
LINE
  8
0
 10
117.719
 20
88.33
 11
114.3
 21
88.1058
  0
LINE
  8
0
 10
114.3
 20
88.1058
 11
110.881
 21
88.3299
  0
LINE
  8
0
 10
110.881
 20
88.3299
 11
107.52
 21
88.9983
  0
LINE
  8
0
 10
107.52
 20
88.9983
 11
104.276
 21
90.0996
  0
LINE
  8
0
 10
104.276
 20
90.0996
 11
101.203
 21
91.615
  0
LINE
  8
0
 10
101.203
 20
91.615
 11
98.354
 21
93.5185
  0
LINE
  8
0
 10
98.354
 20
93.5185
 11
95.778
 21
95.7776
  0
LINE
  8
0
 10
95.778
 20
95.7776
 11
93.5188
 21
98.3537
  0
LINE
  8
0
 10
93.5188
 20
98.3537
 11
91.6153
 21
101.203
  0
LINE
  8
0
 10
91.6153
 20
101.203
 11
90.0998
 21
104.275
  0
LINE
  8
0
 10
90.0998
 20
104.275
 11
88.9984
 21
107.52
  0
LINE
  8
0
 10
88.9984
 20
107.52
 11
88.33
 21
110.88
  0
LINE
  8
0
 10
88.33
 20
110.88
 11
88.1058
 21
114.299
  0
LINE
  8
0
 10
145.31
 20
209.202
 11
145.846
 21
211.204
  0
LINE
  8
0
 10
145.846
 20
211.204
 11
146.882
 21
212.998
  0
LINE
  8
0
 10
146.882
 20
212.998
 11
148.347
 21
214.463
  0
LINE
  8
0
 10
148.347
 20
214.463
 11
150.142
 21
215.499
  0
LINE
  8
0
 10
150.142
 20
215.499
 11
152.143
 21
216.036
  0
LINE
  8
0
 10
152.143
 20
216.036
 11
154.215
 21
216.036
  0
LINE
  8
0
 10
154.215
 20
216.036
 11
156.217
 21
215.499
  0
LINE
  8
0
 10
156.217
 20
215.499
 11
158.011
 21
214.463
  0
LINE
  8
0
 10
158.011
 20
214.463
 11
159.477
 21
212.998
  0
LINE
  8
0
 10
159.477
 20
212.998
 11
160.513
 21
211.204
  0
LINE
  8
0
 10
160.513
 20
211.204
 11
161.049
 21
209.202
  0
LINE
  8
0
 10
161.049
 20
209.202
 11
161.049
 21
207.13
  0
LINE
  8
0
 10
161.049
 20
207.13
 11
160.513
 21
205.129
  0
LINE
  8
0
 10
160.513
 20
205.129
 11
159.477
 21
203.334
  0
LINE
  8
0
 10
159.477
 20
203.334
 11
158.011
 21
201.869
  0
LINE
  8
0
 10
158.011
 20
201.869
 11
156.217
 21
200.833
  0
LINE
  8
0
 10
156.217
 20
200.833
 11
154.215
 21
200.297
  0
LINE
  8
0
 10
154.215
 20
200.297
 11
152.143
 21
200.297
  0
LINE
  8
0
 10
152.143
 20
200.297
 11
150.142
 21
200.833
  0
LINE
  8
0
 10
150.142
 20
200.833
 11
148.347
 21
201.869
  0
LINE
  8
0
 10
148.347
 20
201.869
 11
146.882
 21
203.334
  0
LINE
  8
0
 10
146.882
 20
203.334
 11
145.846
 21
205.128
  0
LINE
  8
0
 10
145.846
 20
205.128
 11
145.31
 21
207.13
  0
LINE
  8
0
 10
145.31
 20
207.13
 11
145.31
 21
209.202
  0
LINE
  8
0
 10
145.312
 20
21.4698
 11
145.848
 21
23.4713
  0
LINE
  8
0
 10
145.848
 20
23.4713
 11
146.884
 21
25.2658
  0
LINE
  8
0
 10
146.884
 20
25.2658
 11
148.349
 21
26.731
  0
LINE
  8
0
 10
148.349
 20
26.731
 11
150.143
 21
27.7671
  0
LINE
  8
0
 10
150.143
 20
27.7671
 11
152.145
 21
28.3034
  0
LINE
  8
0
 10
152.145
 20
28.3034
 11
154.217
 21
28.3034
  0
LINE
  8
0
 10
154.217
 20
28.3034
 11
156.219
 21
27.7671
  0
LINE
  8
0
 10
156.219
 20
27.7671
 11
158.013
 21
26.7311
  0
LINE
  8
0
 10
158.013
 20
26.7311
 11
159.478
 21
25.2659
  0
LINE
  8
0
 10
159.478
 20
25.2659
 11
160.514
 21
23.4714
  0
LINE
  8
0
 10
160.514
 20
23.4714
 11
161.051
 21
21.4699
  0
LINE
  8
0
 10
161.051
 20
21.4699
 11
161.051
 21
19.3978
  0
LINE
  8
0
 10
161.051
 20
19.3978
 11
160.514
 21
17.3963
  0
LINE
  8
0
 10
160.514
 20
17.3963
 11
159.478
 21
15.6018
  0
LINE
  8
0
 10
159.478
 20
15.6018
 11
158.013
 21
14.1366
  0
LINE
  8
0
 10
158.013
 20
14.1366
 11
156.219
 21
13.1005
  0
LINE
  8
0
 10
156.219
 20
13.1005
 11
154.217
 21
12.5642
  0
LINE
  8
0
 10
154.217
 20
12.5642
 11
152.145
 21
12.5642
  0
LINE
  8
0
 10
152.145
 20
12.5642
 11
150.144
 21
13.1005
  0
LINE
  8
0
 10
150.144
 20
13.1005
 11
148.349
 21
14.1365
  0
LINE
  8
0
 10
148.349
 20
14.1365
 11
146.884
 21
15.6017
  0
LINE
  8
0
 10
146.884
 20
15.6017
 11
145.848
 21
17.3962
  0
LINE
  8
0
 10
145.848
 20
17.3962
 11
145.312
 21
19.3977
  0
LINE
  8
0
 10
145.312
 20
19.3977
 11
145.312
 21
21.4698
  0
LINE
  8
0
 10
200.296
 20
154.217
 11
200.832
 21
156.219
  0
LINE
  8
0
 10
200.832
 20
156.219
 11
201.868
 21
158.013
  0
LINE
  8
0
 10
201.868
 20
158.013
 11
203.333
 21
159.478
  0
LINE
  8
0
 10
203.333
 20
159.478
 11
205.128
 21
160.514
  0
LINE
  8
0
 10
205.128
 20
160.514
 11
207.129
 21
161.051
  0
LINE
  8
0
 10
207.129
 20
161.051
 11
209.201
 21
161.051
  0
LINE
  8
0
 10
209.201
 20
161.051
 11
211.203
 21
160.514
  0
LINE
  8
0
 10
211.203
 20
160.514
 11
212.997
 21
159.478
  0
LINE
  8
0
 10
212.997
 20
159.478
 11
214.463
 21
158.013
  0
LINE
  8
0
 10
214.463
 20
158.013
 11
215.499
 21
156.219
  0
LINE
  8
0
 10
215.499
 20
156.219
 11
216.035
 21
154.217
  0
LINE
  8
0
 10
216.035
 20
154.217
 11
216.035
 21
152.145
  0
LINE
  8
0
 10
216.035
 20
152.145
 11
215.499
 21
150.144
  0
LINE
  8
0
 10
215.499
 20
150.144
 11
214.463
 21
148.349
  0
LINE
  8
0
 10
214.463
 20
148.349
 11
212.997
 21
146.884
  0
LINE
  8
0
 10
212.997
 20
146.884
 11
211.203
 21
145.848
  0
LINE
  8
0
 10
211.203
 20
145.848
 11
209.202
 21
145.312
  0
LINE
  8
0
 10
209.202
 20
145.312
 11
207.129
 21
145.312
  0
LINE
  8
0
 10
207.129
 20
145.312
 11
205.128
 21
145.848
  0
LINE
  8
0
 10
205.128
 20
145.848
 11
203.333
 21
146.884
  0
LINE
  8
0
 10
203.333
 20
146.884
 11
201.868
 21
148.349
  0
LINE
  8
0
 10
201.868
 20
148.349
 11
200.832
 21
150.143
  0
LINE
  8
0
 10
200.832
 20
150.143
 11
200.296
 21
152.145
  0
LINE
  8
0
 10
200.296
 20
152.145
 11
200.296
 21
154.217
  0
LINE
  8
0
 10
200.297
 20
76.4558
 11
200.833
 21
78.4573
  0
LINE
  8
0
 10
200.833
 20
78.4573
 11
201.869
 21
80.2518
  0
LINE
  8
0
 10
201.869
 20
80.2518
 11
203.334
 21
81.717
  0
LINE
  8
0
 10
203.334
 20
81.717
 11
205.128
 21
82.7531
  0
LINE
  8
0
 10
205.128
 20
82.7531
 11
207.13
 21
83.2894
  0
LINE
  8
0
 10
207.13
 20
83.2894
 11
209.202
 21
83.2894
  0
LINE
  8
0
 10
209.202
 20
83.2894
 11
211.204
 21
82.7532
  0
LINE
  8
0
 10
211.204
 20
82.7532
 11
212.998
 21
81.7171
  0
LINE
  8
0
 10
212.998
 20
81.7171
 11
214.463
 21
80.2519
  0
LINE
  8
0
 10
214.463
 20
80.2519
 11
215.499
 21
78.4575
  0
LINE
  8
0
 10
215.499
 20
78.4575
 11
216.036
 21
76.456
  0
LINE
  8
0
 10
216.036
 20
76.456
 11
216.036
 21
74.3839
  0
LINE
  8
0
 10
216.036
 20
74.3839
 11
215.499
 21
72.3824
  0
LINE
  8
0
 10
215.499
 20
72.3824
 11
214.463
 21
70.5878
  0
LINE
  8
0
 10
214.463
 20
70.5878
 11
212.998
 21
69.1226
  0
LINE
  8
0
 10
212.998
 20
69.1226
 11
211.204
 21
68.0866
  0
LINE
  8
0
 10
211.204
 20
68.0866
 11
209.202
 21
67.5503
  0
LINE
  8
0
 10
209.202
 20
67.5503
 11
207.13
 21
67.5502
  0
LINE
  8
0
 10
207.13
 20
67.5502
 11
205.129
 21
68.0865
  0
LINE
  8
0
 10
205.129
 20
68.0865
 11
203.334
 21
69.1225
  0
LINE
  8
0
 10
203.334
 20
69.1225
 11
201.869
 21
70.5877
  0
LINE
  8
0
 10
201.869
 20
70.5877
 11
200.833
 21
72.3822
  0
LINE
  8
0
 10
200.833
 20
72.3822
 11
200.297
 21
74.3837
  0
LINE
  8
0
 10
200.297
 20
74.3837
 11
200.297
 21
76.4558
  0
ENDSEC
  0
SECTION
  2
OBJECTS
  0
DICTIONARY
  0
ENDSEC
  0
EOF
