  0
SECTION
  2
HEADER
  9
$ACADVER
  1
AC1015
  9
$ACADMAINTVER
 70
6
  9
$DWGCODEPAGE
  3
ANSI_1252
  9
$INSBASE
 10
0.0
 20
0.0
 30
0.0
  9
$EXTMIN
 10
1e+20
 20
1e+20
 30
1e+20
  9
$EXTMAX
 10
-1e+20
 20
-1e+20
 30
-1e+20
  9
$LIMMIN
 10
0.0
 20
0.0
  9
$LIMMAX
 10
420.0
 20
297.0
  9
$ORTHOMODE
 70
0
  9
$REGENMODE
 70
1
  9
$FILLMODE
 70
1
  9
$QTEXTMODE
 70
0
  9
$MIRRTEXT
 70
1
  9
$LTSCALE
 40
1.0
  9
$ATTMODE
 70
1
  9
$TEXTSIZE
 40
2.5
  9
$TRACEWID
 40
1.0
  9
$TEXTSTYLE
  7
Standard
  9
$CLAYER
  8
0
  9
$CELTYPE
  6
ByLayer
  9
$CECOLOR
 62
256
  9
$CELTSCALE
 40
1.0
  9
$DISPSILH
 70
0
  9
$DIMSCALE
 40
1.0
  9
$DIMASZ
 40
2.5
  9
$DIMEXO
 40
0.625
  9
$DIMDLI
 40
3.75
  9
$DIMRND
 40
0.0
  9
$DIMDLE
 40
0.0
  9
$DIMEXE
 40
1.25
  9
$DIMTP
 40
0.0
  9
$DIMTM
 40
0.0
  9
$DIMTXT
 40
2.5
  9
$DIMCEN
 40
2.5
  9
$DIMTSZ
 40
0.0
  9
$DIMTOL
 70
0
  9
$DIMLIM
 70
0
  9
$DIMTIH
 70
0
  9
$DIMTOH
 70
0
  9
$DIMSE1
 70
0
  9
$DIMSE2
 70
0
  9
$DIMTAD
 70
1
  9
$DIMZIN
 70
8
  9
$DIMBLK
  1

  9
$DIMASO
 70
1
  9
$DIMSHO
 70
1
  9
$DIMPOST
  1

  9
$DIMAPOST
  1

  9
$DIMALT
 70
0
  9
$DIMALTD
 70
3
  9
$DIMALTF
 40
0.03937007874
  9
$DIMLFAC
 40
1.0
  9
$DIMTOFL
 70
1
  9
$DIMTVP
 40
0.0
  9
$DIMTIX
 70
0
  9
$DIMSOXD
 70
0
  9
$DIMSAH
 70
0
  9
$DIMBLK1
  1

  9
$DIMBLK2
  1

  9
$DIMSTYLE
  2
ISO-25
  9
$DIMCLRD
 70
0
  9
$DIMCLRE
 70
0
  9
$DIMCLRT
 70
0
  9
$DIMTFAC
 40
1.0
  9
$DIMGAP
 40
0.625
  9
$DIMJUST
 70
0
  9
$DIMSD1
 70
0
  9
$DIMSD2
 70
0
  9
$DIMTOLJ
 70
0
  9
$DIMTZIN
 70
8
  9
$DIMALTZ
 70
0
  9
$DIMALTTZ
 70
0
  9
$DIMUPT
 70
0
  9
$DIMDEC
 70
2
  9
$DIMTDEC
 70
2
  9
$DIMALTU
 70
2
  9
$DIMALTTD
 70
3
  9
$DIMTXSTY
  7
Standard
  9
$DIMAUNIT
 70
0
  9
$DIMADEC
 70
0
  9
$DIMALTRND
 40
0.0
  9
$DIMAZIN
 70
0
  9
$DIMDSEP
 70
44
  9
$DIMATFIT
 70
3
  9
$DIMFRAC
 70
0
  9
$DIMLDRBLK
  1

  9
$DIMLUNIT
 70
2
  9
$DIMLWD
 70
-2
  9
$DIMLWE
 70
-2
  9
$DIMTMOVE
 70
0
  9
$LUNITS
 70
2
  9
$LUPREC
 70
4
  9
$SKETCHINC
 40
1.0
  9
$FILLETRAD
 40
10.0
  9
$AUNITS
 70
0
  9
$AUPREC
 70
2
  9
$MENU
  1
.
  9
$ELEVATION
 40
0.0
  9
$PELEVATION
 40
0.0
  9
$THICKNESS
 40
0.0
  9
$LIMCHECK
 70
0
  9
$CHAMFERA
 40
0.0
  9
$CHAMFERB
 40
0.0
  9
$CHAMFERC
 40
0.0
  9
$CHAMFERD
 40
0.0
  9
$SKPOLY
 70
0
  9
$TDCREATE
 40
2451545.0
  9
$TDUCREATE
 40
2451545.0
  9
$TDUPDATE
 40
2451545.0
  9
$TDUUPDATE
 40
2451545.0
  9
$TDINDWG
 40
0.0
  9
$TDUSRTIMER
 40
0.0
  9
$USRTIMER
 70
1
  9
$ANGBASE
 50
0.0
  9
$ANGDIR
 70
0
  9
$PDMODE
 70
0
  9
$PDSIZE
 40
0.0
  9
$PLINEWID
 40
0.0
  9
$SPLFRAME
 70
0
  9
$SPLINETYPE
 70
6
  9
$SPLINESEGS
 70
8
  9
$HANDSEED
  5
286
  9
$SURFTAB1
 70
6
  9
$SURFTAB2
 70
6
  9
$SURFTYPE
 70
6
  9
$SURFU
 70
6
  9
$SURFV
 70
6
  9
$UCSBASE
  2

  9
$UCSNAME
  2

  9
$UCSORG
 10
0.0
 20
0.0
 30
0.0
  9
$UCSXDIR
 10
1.0
 20
0.0
 30
0.0
  9
$UCSYDIR
 10
0.0
 20
1.0
 30
0.0
  9
$UCSORTHOREF
  2

  9
$UCSORTHOVIEW
 70
0
  9
$UCSORGTOP
 10
0.0
 20
0.0
 30
0.0
  9
$UCSORGBOTTOM
 10
0.0
 20
0.0
 30
0.0
  9
$UCSORGLEFT
 10
0.0
 20
0.0
 30
0.0
  9
$UCSORGRIGHT
 10
0.0
 20
0.0
 30
0.0
  9
$UCSORGFRONT
 10
0.0
 20
0.0
 30
0.0
  9
$UCSORGBACK
 10
0.0
 20
0.0
 30
0.0
  9
$PUCSBASE
  2

  9
$PUCSNAME
  2

  9
$PUCSORG
 10
0.0
 20
0.0
 30
0.0
  9
$PUCSXDIR
 10
1.0
 20
0.0
 30
0.0
  9
$PUCSYDIR
 10
0.0
 20
1.0
 30
0.0
  9
$PUCSORTHOREF
  2

  9
$PUCSORTHOVIEW
 70
0
  9
$PUCSORGTOP
 10
0.0
 20
0.0
 30
0.0
  9
$PUCSORGBOTTOM
 10
0.0
 20
0.0
 30
0.0
  9
$PUCSORGLEFT
 10
0.0
 20
0.0
 30
0.0
  9
$PUCSORGRIGHT
 10
0.0
 20
0.0
 30
0.0
  9
$PUCSORGFRONT
 10
0.0
 20
0.0
 30
0.0
  9
$PUCSORGBACK
 10
0.0
 20
0.0
 30
0.0
  9
$USERI1
 70
0
  9
$USERI2
 70
0
  9
$USERI3
 70
0
  9
$USERI4
 70
0
  9
$USERI5
 70
0
  9
$USERR1
 40
0.0
  9
$USERR2
 40
0.0
  9
$USERR3
 40
0.0
  9
$USERR4
 40
0.0
  9
$USERR5
 40
0.0
  9
$WORLDVIEW
 70
1
  9
$SHADEDGE
 70
3
  9
$SHADEDIF
 70
70
  9
$TILEMODE
 70
1
  9
$MAXACTVP
 70
64
  9
$PINSBASE
 10
0.0
 20
0.0
 30
0.0
  9
$PLIMCHECK
 70
0
  9
$PEXTMIN
 10
1e+20
 20
1e+20
 30
1e+20
  9
$PEXTMAX
 10
-1e+20
 20
-1e+20
 30
-1e+20
  9
$PLIMMIN
 10
0.0
 20
0.0
  9
$PLIMMAX
 10
420.0
 20
297.0
  9
$UNITMODE
 70
0
  9
$VISRETAIN
 70
1
  9
$PLINEGEN
 70
0
  9
$PSLTSCALE
 70
1
  9
$TREEDEPTH
 70
3020
  9
$CMLSTYLE
  2
Standard
  9
$CMLJUST
 70
0
  9
$CMLSCALE
 40
20.0
  9
$PROXYGRAPHICS
 70
1
  9
$MEASUREMENT
 70
1
  9
$CELWEIGHT
370
-1
  9
$ENDCAPS
280
0
  9
$JOINSTYLE
280
0
  9
$LWDISPLAY
290
0
  9
$INSUNITS
 70
4
  9
$HYPERLINKBASE
  1

  9
$STYLESHEET
  1

  9
$XEDIT
290
1
  9
$CEPSNTYPE
380
0
  9
$PSTYLEMODE
290
1
  9
$FINGERPRINTGUID
  2
{00000000-0000-0000-0000-000000000000}
  9
$VERSIONGUID
  2
{00000000-0000-0000-0000-000000000000}
  9
$EXTNAMES
290
1
  9
$PSVPSCALE
 40
0.0
  9
$OLESTARTUP
290
0
  0
ENDSEC
  0
SECTION
  2
CLASSES
  0
CLASS
  1
ACDBDICTIONARYWDFLT
  2
AcDbDictionaryWithDefault
  3
ObjectDBX Classes
 90
0
280
0
281
0
  0
CLASS
  1
SUN
  2
AcDbSun
  3
SCENEOE
 90
1153
280
0
281
0
  0
CLASS
  1
VISUALSTYLE
  2
AcDbVisualStyle
  3
ObjectDBX Classes
 90
4095
280
0
281
0
  0
CLASS
  1
MATERIAL
  2
AcDbMaterial
  3
ObjectDBX Classes
 90
1153
280
0
281
0
  0
CLASS
  1
SCALE
  2
AcDbScale
  3
ObjectDBX Classes
 90
1153
280
0
281
0
  0
CLASS
  1
TABLESTYLE
  2
AcDbTableStyle
  3
ObjectDBX Classes
 90
4095
280
0
281
0
  0
CLASS
  1
MLEADERSTYLE
  2
AcDbMLeaderStyle
  3
ACDB_MLEADERSTYLE_CLASS
 90
4095
280
0
281
0
  0
CLASS
  1
DICTIONARYVAR
  2
AcDbDictionaryVar
  3
ObjectDBX Classes
 90
0
280
0
281
0
  0
CLASS
  1
CELLSTYLEMAP
  2
AcDbCellStyleMap
  3
ObjectDBX Classes
 90
1152
280
0
281
0
  0
CLASS
  1
MENTALRAYRENDERSETTINGS
  2
AcDbMentalRayRenderSettings
  3
SCENEOE
 90
1024
280
0
281
0
  0
CLASS
  1
ACDBDETAILVIEWSTYLE
  2
AcDbDetailViewStyle
  3
ObjectDBX Classes
 90
1025
280
0
281
0
  0
CLASS
  1
ACDBSECTIONVIEWSTYLE
  2
AcDbSectionViewStyle
  3
ObjectDBX Classes
 90
1025
280
0
281
0
  0
CLASS
  1
RASTERVARIABLES
  2
AcDbRasterVariables
  3
ISM
 90
0
280
0
281
0
  0
CLASS
  1
ACDBPLACEHOLDER
  2
AcDbPlaceHolder
  3
ObjectDBX Classes
 90
0
280
0
281
0
  0
CLASS
  1
LAYOUT
  2
AcDbLayout
  3
ObjectDBX Classes
 90
0
280
0
281
0
  0
ENDSEC
  0
SECTION
  2
TABLES
  0
TABLE
  2
VPORT
  5
8
330
0
100
AcDbSymbolTable
 70
1
  0
VPORT
  5
23
330
8
100
AcDbSymbolTableRecord
100
AcDbViewportTableRecord
  2
*Active
 70
0
 10
0.0
 20
0.0
 11
1.0
 21
1.0
 12
0.0
 22
0.0
 13
0.0
 23
0.0
 14
0.5
 24
0.5
 15
0.5
 25
0.5
 16
0.0
 26
0.0
 36
1.0
 17
0.0
 27
0.0
 37
0.0
 40
1000.0
 41
1.34
 42
50.0
 43
0.0
 44
0.0
 50
0.0
 51
0.0
 71
0
 72
1000
 73
1
 74
3
 75
0
 76
0
 77
0
 78
0
281
0
 65
0
146
0.0
  0
ENDTAB
  0
TABLE
  2
LTYPE
  5
2
330
0
100
AcDbSymbolTable
 70
3
  0
LTYPE
  5
24
330
2
100
AcDbSymbolTableRecord
100
AcDbLinetypeTableRecord
  2
ByBlock
 70
0
  3

 72
65
 73
0
 40
0.0
  0
LTYPE
  5
25
330
2
100
AcDbSymbolTableRecord
100
AcDbLinetypeTableRecord
  2
ByLayer
 70
0
  3

 72
65
 73
0
 40
0.0
  0
LTYPE
  5
26
330
2
100
AcDbSymbolTableRecord
100
AcDbLinetypeTableRecord
  2
Continuous
 70
0
  3

 72
65
 73
0
 40
0.0
  0
ENDTAB
  0
TABLE
  2
LAYER
  5
1
330
0
100
AcDbSymbolTable
 70
2
  0
LAYER
  5
27
330
1
100
AcDbSymbolTableRecord
100
AcDbLayerTableRecord
  2
0
 70
0
 62
7
  6
Continuous
370
-3
390
13
  0
LAYER
  5
28
330
1
100
AcDbSymbolTableRecord
100
AcDbLayerTableRecord
  2
Defpoints
 70
0
 62
7
  6
Continuous
290
0
370
-3
390
13
  0
ENDTAB
  0
TABLE
  2
STYLE
  5
5
330
0
100
AcDbSymbolTable
 70
1
  0
STYLE
  5
29
330
5
100
AcDbSymbolTableRecord
100
AcDbTextStyleTableRecord
  2
Standard
 70
0
 40
0.0
 41
1.0
 50
0.0
 71
0
 42
2.5
  3
txt
  4

  0
ENDTAB
  0
TABLE
  2
VIEW
  5
7
330
0
100
AcDbSymbolTable
 70
0
  0
ENDTAB
  0
TABLE
  2
UCS
  5
6
330
0
100
AcDbSymbolTable
 70
0
  0
ENDTAB
  0
TABLE
  2
APPID
  5
3
330
0
100
AcDbSymbolTable
 70
3
  0
APPID
  5
2A
330
3
100
AcDbSymbolTableRecord
100
AcDbRegAppTableRecord
  2
ACAD
 70
0
  0
APPID
  5
283
330
3
100
AcDbSymbolTableRecord
100
AcDbRegAppTableRecord
  2
HATCHBACKGROUNDCOLOR
 70
0
  0
APPID
  5
284
330
3
100
AcDbSymbolTableRecord
100
AcDbRegAppTableRecord
  2
EZDXF
 70
0
  0
ENDTAB
  0
TABLE
  2
DIMSTYLE
  5
4
330
0
100
AcDbSymbolTable
 70
1
100
AcDbDimStyleTable
  0
DIMSTYLE
105
2B
330
4
100
AcDbSymbolTableRecord
100
AcDbDimStyleTableRecord
  2
Standard
 70
0
  3

  4

 40
1.0
 41
2.5
 42
0.625
 43
3.75
 44
1.25
 45
0.0
 46
0.0
 47
0.0
 48
0.0
140
2.5
141
2.5
142
0.0
143
0.03937007874
144
1.0
145
0.0
146
1.0
147
0.625
148
0.0
 71
0
 72
0
 73
0
 74
0
 75
0
 76
0
 77
1
 78
8
 79
3
170
0
171
3
172
1
173
0
174
0
175
0
176
0
177
0
178
0
179
2
271
2
272
2
273
2
274
3
275
0
276
0
277
2
278
44
279
0
280
0
281
0
282
0
283
0
284
8
285
0
286
0
288
0
289
3
371
-2
372
-2
  0
ENDTAB
  0
TABLE
  2
BLOCK_RECORD
  5
9
330
0
100
AcDbSymbolTable
 70
2
  0
BLOCK_RECORD
  5
17
330
9
100
AcDbSymbolTableRecord
100
AcDbBlockTableRecord
  2
*Model_Space
340
1A
  0
BLOCK_RECORD
  5
1B
330
9
100
AcDbSymbolTableRecord
100
AcDbBlockTableRecord
  2
*Paper_Space
340
1E
  0
ENDTAB
  0
ENDSEC
  0
SECTION
  2
BLOCKS
  0
BLOCK
  5
18
330
17
100
AcDbEntity
  8
0
100
AcDbBlockBegin
  2
*Model_Space
 70
0
 10
0.0
 20
0.0
 30
0.0
  3
*Model_Space
  1

  0
ENDBLK
  5
19
330
17
100
AcDbEntity
  8
0
100
AcDbBlockEnd
  0
BLOCK
  5
1C
330
1B
100
AcDbEntity
  8
0
100
AcDbBlockBegin
  2
*Paper_Space
 70
0
 10
0.0
 20
0.0
 30
0.0
  3
*Paper_Space
  1

  0
ENDBLK
  5
1D
330
1B
100
AcDbEntity
  8
0
100
AcDbBlockEnd
  0
ENDSEC
  0
SECTION
  2
ENTITIES
  0
LINE
  5
2F
330
17
100
AcDbEntity
  8
0
100
AcDbLine
 10
0.00140442
 20
10.0
 30
0.0
 11
0.193558
 21
8.0491
 31
0.0
  0
LINE
  5
30
330
17
100
AcDbEntity
  8
0
100
AcDbLine
 10
0.193558
 20
8.0491
 30
0.0
 11
0.762604
 21
6.17317
 31
0.0
  0
LINE
  5
31
330
17
100
AcDbEntity
  8
0
100
AcDbLine
 10
0.762604
 20
6.17317
 30
0.0
 11
1.68671
 21
4.44429
 31
0.0
  0
LINE
  5
32
330
17
100
AcDbEntity
  8
0
100
AcDbLine
 10
1.68671
 20
4.44429
 30
0.0
 11
2.93033
 21
2.92892
 31
0.0
  0
LINE
  5
33
330
17
100
AcDbEntity
  8
0
100
AcDbLine
 10
2.93033
 20
2.92892
 30
0.0
 11
4.44569
 21
1.6853
 31
0.0
  0
LINE
  5
34
330
17
100
AcDbEntity
  8
0
100
AcDbLine
 10
4.44569
 20
1.6853
 30
0.0
 11
6.17458
 21
0.7612
 31
0.0
  0
LINE
  5
35
330
17
100
AcDbEntity
  8
0
100
AcDbLine
 10
6.17458
 20
0.7612
 30
0.0
 11
8.05051
 21
0.192154
 31
0.0
  0
LINE
  5
36
330
17
100
AcDbEntity
  8
0
100
AcDbLine
 10
8.05051
 20
0.192154
 30
0.0
 11
10.0014
 21
0.0
 31
0.0
  0
LINE
  5
37
330
17
100
AcDbEntity
  8
0
100
AcDbLine
 10
10.0014
 20
0.0
 30
0.0
 11
1382.64
 21
0.0
 31
0.0
  0
LINE
  5
38
330
17
100
AcDbEntity
  8
0
100
AcDbLine
 10
1382.64
 20
0.0
 30
0.0
 11
1384.59
 21
0.192154
 31
0.0
  0
LINE
  5
39
330
17
100
AcDbEntity
  8
0
100
AcDbLine
 10
1384.59
 20
0.192154
 30
0.0
 11
1386.47
 21
0.7612
 31
0.0
  0
LINE
  5
3A
330
17
100
AcDbEntity
  8
0
100
AcDbLine
 10
1386.47
 20
0.7612
 30
0.0
 11
1388.2
 21
1.6853
 31
0.0
  0
LINE
  5
3B
330
17
100
AcDbEntity
  8
0
100
AcDbLine
 10
1388.2
 20
1.6853
 30
0.0
 11
1389.71
 21
2.92892
 31
0.0
  0
LINE
  5
3C
330
17
100
AcDbEntity
  8
0
100
AcDbLine
 10
1389.71
 20
2.92892
 30
0.0
 11
1390.95
 21
4.44429
 31
0.0
  0
LINE
  5
3D
330
17
100
AcDbEntity
  8
0
100
AcDbLine
 10
1390.95
 20
4.44429
 30
0.0
 11
1391.88
 21
6.17317
 31
0.0
  0
LINE
  5
3E
330
17
100
AcDbEntity
  8
0
100
AcDbLine
 10
1391.88
 20
6.17317
 30
0.0
 11
1392.45
 21
8.0491
 31
0.0
  0
LINE
  5
3F
330
17
100
AcDbEntity
  8
0
100
AcDbLine
 10
1392.45
 20
8.0491
 30
0.0
 11
1392.64
 21
10.0
 31
0.0
  0
LINE
  5
40
330
17
100
AcDbEntity
  8
0
100
AcDbLine
 10
1392.64
 20
10.0
 30
0.0
 11
1392.64
 21
189.475
 31
0.0
  0
LINE
  5
41
330
17
100
AcDbEntity
  8
0
100
AcDbLine
 10
1392.64
 20
189.475
 30
0.0
 11
1390.59
 21
189.677
 31
0.0
  0
LINE
  5
42
330
17
100
AcDbEntity
  8
0
100
AcDbLine
 10
1390.59
 20
189.677
 30
0.0
 11
1388.61
 21
190.276
 31
0.0
  0
LINE
  5
43
330
17
100
AcDbEntity
  8
0
100
AcDbLine
 10
1388.61
 20
190.276
 30
0.0
 11
1386.79
 21
191.249
 31
0.0
  0
LINE
  5
44
330
17
100
AcDbEntity
  8
0
100
AcDbLine
 10
1386.79
 20
191.249
 30
0.0
 11
1385.2
 21
192.558
 31
0.0
  0
LINE
  5
45
330
17
100
AcDbEntity
  8
0
100
AcDbLine
 10
1385.2
 20
192.558
 30
0.0
 11
1383.89
 21
194.153
 31
0.0
  0
LINE
  5
46
330
17
100
AcDbEntity
  8
0
100
AcDbLine
 10
1383.89
 20
194.153
 30
0.0
 11
1382.92
 21
195.972
 31
0.0
  0
LINE
  5
47
330
17
100
AcDbEntity
  8
0
100
AcDbLine
 10
1382.92
 20
195.972
 30
0.0
 11
1382.32
 21
197.947
 31
0.0
  0
LINE
  5
48
330
17
100
AcDbEntity
  8
0
100
AcDbLine
 10
1382.32
 20
197.947
 30
0.0
 11
1382.12
 21
200.0
 31
0.0
  0
LINE
  5
49
330
17
100
AcDbEntity
  8
0
100
AcDbLine
 10
1382.12
 20
200.0
 30
0.0
 11
1382.32
 21
202.053
 31
0.0
  0
LINE
  5
4A
330
17
100
AcDbEntity
  8
0
100
AcDbLine
 10
1382.32
 20
202.053
 30
0.0
 11
1382.92
 21
204.028
 31
0.0
  0
LINE
  5
4B
330
17
100
AcDbEntity
  8
0
100
AcDbLine
 10
1382.92
 20
204.028
 30
0.0
 11
1383.89
 21
205.847
 31
0.0
  0
LINE
  5
4C
330
17
100
AcDbEntity
  8
0
100
AcDbLine
 10
1383.89
 20
205.847
 30
0.0
 11
1385.2
 21
207.442
 31
0.0
  0
LINE
  5
4D
330
17
100
AcDbEntity
  8
0
100
AcDbLine
 10
1385.2
 20
207.442
 30
0.0
 11
1386.79
 21
208.751
 31
0.0
  0
LINE
  5
4E
330
17
100
AcDbEntity
  8
0
100
AcDbLine
 10
1386.79
 20
208.751
 30
0.0
 11
1388.61
 21
209.724
 31
0.0
  0
LINE
  5
4F
330
17
100
AcDbEntity
  8
0
100
AcDbLine
 10
1388.61
 20
209.724
 30
0.0
 11
1390.59
 21
210.323
 31
0.0
  0
LINE
  5
50
330
17
100
AcDbEntity
  8
0
100
AcDbLine
 10
1390.59
 20
210.323
 30
0.0
 11
1392.64
 21
210.525
 31
0.0
  0
LINE
  5
51
330
17
100
AcDbEntity
  8
0
100
AcDbLine
 10
1392.64
 20
210.525
 30
0.0
 11
1392.64
 21
990.0
 31
0.0
  0
LINE
  5
52
330
17
100
AcDbEntity
  8
0
100
AcDbLine
 10
1392.64
 20
990.0
 30
0.0
 11
1392.45
 21
991.951
 31
0.0
  0
LINE
  5
53
330
17
100
AcDbEntity
  8
0
100
AcDbLine
 10
1392.45
 20
991.951
 30
0.0
 11
1391.88
 21
993.827
 31
0.0
  0
LINE
  5
54
330
17
100
AcDbEntity
  8
0
100
AcDbLine
 10
1391.88
 20
993.827
 30
0.0
 11
1390.95
 21
995.556
 31
0.0
  0
LINE
  5
55
330
17
100
AcDbEntity
  8
0
100
AcDbLine
 10
1390.95
 20
995.556
 30
0.0
 11
1389.71
 21
997.071
 31
0.0
  0
LINE
  5
56
330
17
100
AcDbEntity
  8
0
100
AcDbLine
 10
1389.71
 20
997.071
 30
0.0
 11
1388.2
 21
998.315
 31
0.0
  0
LINE
  5
57
330
17
100
AcDbEntity
  8
0
100
AcDbLine
 10
1388.2
 20
998.315
 30
0.0
 11
1386.47
 21
999.239
 31
0.0
  0
LINE
  5
58
330
17
100
AcDbEntity
  8
0
100
AcDbLine
 10
1386.47
 20
999.239
 30
0.0
 11
1384.59
 21
999.808
 31
0.0
  0
LINE
  5
59
330
17
100
AcDbEntity
  8
0
100
AcDbLine
 10
1384.59
 20
999.808
 30
0.0
 11
1382.64
 21
1000.0
 31
0.0
  0
LINE
  5
5A
330
17
100
AcDbEntity
  8
0
100
AcDbLine
 10
1382.64
 20
1000.0
 30
0.0
 11
1198.56
 21
1000.0
 31
0.0
  0
LINE
  5
5B
330
17
100
AcDbEntity
  8
0
100
AcDbLine
 10
1198.56
 20
1000.0
 30
0.0
 11
1195.76
 21
999.599
 31
0.0
  0
LINE
  5
5C
330
17
100
AcDbEntity
  8
0
100
AcDbLine
 10
1195.76
 20
999.599
 30
0.0
 11
1193.94
 21
998.867
 31
0.0
  0
LINE
  5
5D
330
17
100
AcDbEntity
  8
0
100
AcDbLine
 10
1193.94
 20
998.867
 30
0.0
 11
1192.3
 21
997.795
 31
0.0
  0
LINE
  5
5E
330
17
100
AcDbEntity
  8
0
100
AcDbLine
 10
1192.3
 20
997.795
 30
0.0
 11
1190.9
 21
996.424
 31
0.0
  0
LINE
  5
5F
330
17
100
AcDbEntity
  8
0
100
AcDbLine
 10
1190.9
 20
996.424
 30
0.0
 11
1189.79
 21
994.805
 31
0.0
  0
LINE
  5
60
330
17
100
AcDbEntity
  8
0
100
AcDbLine
 10
1189.79
 20
994.805
 30
0.0
 11
1092.87
 21
817.902
 31
0.0
  0
LINE
  5
61
330
17
100
AcDbEntity
  8
0
100
AcDbLine
 10
1092.87
 20
817.902
 30
0.0
 11
1092.61
 21
817.515
 31
0.0
  0
LINE
  5
62
330
17
100
AcDbEntity
  8
0
100
AcDbLine
 10
1092.61
 20
817.515
 30
0.0
 11
1092.21
 21
817.25
 31
0.0
  0
LINE
  5
63
330
17
100
AcDbEntity
  8
0
100
AcDbLine
 10
1092.21
 20
817.25
 30
0.0
 11
195.193
 21
346.124
 31
0.0
  0
LINE
  5
64
330
17
100
AcDbEntity
  8
0
100
AcDbLine
 10
195.193
 20
346.124
 30
0.0
 11
193.772
 21
345.217
 31
0.0
  0
LINE
  5
65
330
17
100
AcDbEntity
  8
0
100
AcDbLine
 10
193.772
 20
345.217
 30
0.0
 11
192.338
 21
343.879
 31
0.0
  0
LINE
  5
66
330
17
100
AcDbEntity
  8
0
100
AcDbLine
 10
192.338
 20
343.879
 30
0.0
 11
191.193
 21
342.288
 31
0.0
  0
LINE
  5
67
330
17
100
AcDbEntity
  8
0
100
AcDbLine
 10
191.193
 20
342.288
 30
0.0
 11
1.35138
 21
15.0177
 31
0.0
  0
LINE
  5
68
330
17
100
AcDbEntity
  8
0
100
AcDbLine
 10
1.35138
 20
15.0177
 30
0.0
 11
0.762604
 21
13.8268
 31
0.0
  0
LINE
  5
69
330
17
100
AcDbEntity
  8
0
100
AcDbLine
 10
0.762604
 20
13.8268
 30
0.0
 11
0.193558
 21
11.9509
 31
0.0
  0
LINE
  5
6A
330
17
100
AcDbEntity
  8
0
100
AcDbLine
 10
0.193558
 20
11.9509
 30
0.0
 11
0.00140442
 21
10.0
 31
0.0
  0
LINE
  5
6B
330
17
100
AcDbEntity
  8
0
100
AcDbLine
 10
63.0775
 20
62.23
 30
0.0
 11
63.44
 21
64.0525
 31
0.0
  0
LINE
  5
6C
330
17
100
AcDbEntity
  8
0
100
AcDbLine
 10
63.44
 20
64.0525
 30
0.0
 11
64.4724
 21
65.5976
 31
0.0
  0
LINE
  5
6D
330
17
100
AcDbEntity
  8
0
100
AcDbLine
 10
64.4724
 20
65.5976
 30
0.0
 11
66.0175
 21
66.63
 31
0.0
  0
LINE
  5
6E
330
17
100
AcDbEntity
  8
0
100
AcDbLine
 10
66.0175
 20
66.63
 30
0.0
 11
67.84
 21
66.9925
 31
0.0
  0
LINE
  5
6F
330
17
100
AcDbEntity
  8
0
100
AcDbLine
 10
67.84
 20
66.9925
 30
0.0
 11
69.6625
 21
66.63
 31
0.0
  0
LINE
  5
70
330
17
100
AcDbEntity
  8
0
100
AcDbLine
 10
69.6625
 20
66.63
 30
0.0
 11
71.2076
 21
65.5976
 31
0.0
  0
LINE
  5
71
330
17
100
AcDbEntity
  8
0
100
AcDbLine
 10
71.2076
 20
65.5976
 30
0.0
 11
72.24
 21
64.0525
 31
0.0
  0
LINE
  5
72
330
17
100
AcDbEntity
  8
0
100
AcDbLine
 10
72.24
 20
64.0525
 30
0.0
 11
72.6025
 21
62.23
 31
0.0
  0
LINE
  5
73
330
17
100
AcDbEntity
  8
0
100
AcDbLine
 10
72.6025
 20
62.23
 30
0.0
 11
72.24
 21
60.4075
 31
0.0
  0
LINE
  5
74
330
17
100
AcDbEntity
  8
0
100
AcDbLine
 10
72.24
 20
60.4075
 30
0.0
 11
71.2076
 21
58.8624
 31
0.0
  0
LINE
  5
75
330
17
100
AcDbEntity
  8
0
100
AcDbLine
 10
71.2076
 20
58.8624
 30
0.0
 11
69.6625
 21
57.83
 31
0.0
  0
LINE
  5
76
330
17
100
AcDbEntity
  8
0
100
AcDbLine
 10
69.6625
 20
57.83
 30
0.0
 11
67.84
 21
57.4675
 31
0.0
  0
LINE
  5
77
330
17
100
AcDbEntity
  8
0
100
AcDbLine
 10
67.84
 20
57.4675
 30
0.0
 11
66.0175
 21
57.83
 31
0.0
  0
LINE
  5
78
330
17
100
AcDbEntity
  8
0
100
AcDbLine
 10
66.0175
 20
57.83
 30
0.0
 11
64.4724
 21
58.8624
 31
0.0
  0
LINE
  5
79
330
17
100
AcDbEntity
  8
0
100
AcDbLine
 10
64.4724
 20
58.8624
 30
0.0
 11
63.44
 21
60.4075
 31
0.0
  0
LINE
  5
7A
330
17
100
AcDbEntity
  8
0
100
AcDbLine
 10
63.44
 20
60.4075
 30
0.0
 11
63.0775
 21
62.23
 31
0.0
  0
LINE
  5
7B
330
17
100
AcDbEntity
  8
0
100
AcDbLine
 10
111.878
 20
62.23
 30
0.0
 11
112.24
 21
64.0525
 31
0.0
  0
LINE
  5
7C
330
17
100
AcDbEntity
  8
0
100
AcDbLine
 10
112.24
 20
64.0525
 30
0.0
 11
113.272
 21
65.5976
 31
0.0
  0
LINE
  5
7D
330
17
100
AcDbEntity
  8
0
100
AcDbLine
 10
113.272
 20
65.5976
 30
0.0
 11
114.817
 21
66.63
 31
0.0
  0
LINE
  5
7E
330
17
100
AcDbEntity
  8
0
100
AcDbLine
 10
114.817
 20
66.63
 30
0.0
 11
116.64
 21
66.9925
 31
0.0
  0
LINE
  5
7F
330
17
100
AcDbEntity
  8
0
100
AcDbLine
 10
116.64
 20
66.9925
 30
0.0
 11
118.463
 21
66.63
 31
0.0
  0
LINE
  5
80
330
17
100
AcDbEntity
  8
0
100
AcDbLine
 10
118.463
 20
66.63
 30
0.0
 11
120.008
 21
65.5976
 31
0.0
  0
LINE
  5
81
330
17
100
AcDbEntity
  8
0
100
AcDbLine
 10
120.008
 20
65.5976
 30
0.0
 11
121.04
 21
64.0525
 31
0.0
  0
LINE
  5
82
330
17
100
AcDbEntity
  8
0
100
AcDbLine
 10
121.04
 20
64.0525
 30
0.0
 11
121.403
 21
62.23
 31
0.0
  0
LINE
  5
83
330
17
100
AcDbEntity
  8
0
100
AcDbLine
 10
121.403
 20
62.23
 30
0.0
 11
121.04
 21
60.4075
 31
0.0
  0
LINE
  5
84
330
17
100
AcDbEntity
  8
0
100
AcDbLine
 10
121.04
 20
60.4075
 30
0.0
 11
120.008
 21
58.8624
 31
0.0
  0
LINE
  5
85
330
17
100
AcDbEntity
  8
0
100
AcDbLine
 10
120.008
 20
58.8624
 30
0.0
 11
118.463
 21
57.83
 31
0.0
  0
LINE
  5
86
330
17
100
AcDbEntity
  8
0
100
AcDbLine
 10
118.463
 20
57.83
 30
0.0
 11
116.64
 21
57.4675
 31
0.0
  0
LINE
  5
87
330
17
100
AcDbEntity
  8
0
100
AcDbLine
 10
116.64
 20
57.4675
 30
0.0
 11
114.817
 21
57.83
 31
0.0
  0
LINE
  5
88
330
17
100
AcDbEntity
  8
0
100
AcDbLine
 10
114.817
 20
57.83
 30
0.0
 11
113.272
 21
58.8624
 31
0.0
  0
LINE
  5
89
330
17
100
AcDbEntity
  8
0
100
AcDbLine
 10
113.272
 20
58.8624
 30
0.0
 11
112.24
 21
60.4075
 31
0.0
  0
LINE
  5
8A
330
17
100
AcDbEntity
  8
0
100
AcDbLine
 10
112.24
 20
60.4075
 30
0.0
 11
111.878
 21
62.23
 31
0.0
  0
LINE
  5
8B
330
17
100
AcDbEntity
  8
0
100
AcDbLine
 10
180.701
 20
103.161
 30
0.0
 11
181.184
 21
105.591
 31
0.0
  0
LINE
  5
8C
330
17
100
AcDbEntity
  8
0
100
AcDbLine
 10
181.184
 20
105.591
 30
0.0
 11
182.561
 21
107.651
 31
0.0
  0
LINE
  5
8D
330
17
100
AcDbEntity
  8
0
100
AcDbLine
 10
182.561
 20
107.651
 30
0.0
 11
184.621
 21
109.027
 31
0.0
  0
LINE
  5
8E
330
17
100
AcDbEntity
  8
0
100
AcDbLine
 10
184.621
 20
109.027
 30
0.0
 11
187.051
 21
109.511
 31
0.0
  0
LINE
  5
8F
330
17
100
AcDbEntity
  8
0
100
AcDbLine
 10
187.051
 20
109.511
 30
0.0
 11
189.481
 21
109.027
 31
0.0
  0
LINE
  5
90
330
17
100
AcDbEntity
  8
0
100
AcDbLine
 10
189.481
 20
109.027
 30
0.0
 11
191.541
 21
107.651
 31
0.0
  0
LINE
  5
91
330
17
100
AcDbEntity
  8
0
100
AcDbLine
 10
191.541
 20
107.651
 30
0.0
 11
192.917
 21
105.591
 31
0.0
  0
LINE
  5
92
330
17
100
AcDbEntity
  8
0
100
AcDbLine
 10
192.917
 20
105.591
 30
0.0
 11
193.401
 21
103.161
 31
0.0
  0
LINE
  5
93
330
17
100
AcDbEntity
  8
0
100
AcDbLine
 10
193.401
 20
103.161
 30
0.0
 11
192.917
 21
100.731
 31
0.0
  0
LINE
  5
94
330
17
100
AcDbEntity
  8
0
100
AcDbLine
 10
192.917
 20
100.731
 30
0.0
 11
191.541
 21
98.6707
 31
0.0
  0
LINE
  5
95
330
17
100
AcDbEntity
  8
0
100
AcDbLine
 10
191.541
 20
98.6707
 30
0.0
 11
189.481
 21
97.2942
 31
0.0
  0
LINE
  5
96
330
17
100
AcDbEntity
  8
0
100
AcDbLine
 10
189.481
 20
97.2942
 30
0.0
 11
187.051
 21
96.8108
 31
0.0
  0
LINE
  5
97
330
17
100
AcDbEntity
  8
0
100
AcDbLine
 10
187.051
 20
96.8108
 30
0.0
 11
184.621
 21
97.2942
 31
0.0
  0
LINE
  5
98
330
17
100
AcDbEntity
  8
0
100
AcDbLine
 10
184.621
 20
97.2942
 30
0.0
 11
182.561
 21
98.6707
 31
0.0
  0
LINE
  5
99
330
17
100
AcDbEntity
  8
0
100
AcDbLine
 10
182.561
 20
98.6707
 30
0.0
 11
181.184
 21
100.731
 31
0.0
  0
LINE
  5
9A
330
17
100
AcDbEntity
  8
0
100
AcDbLine
 10
181.184
 20
100.731
 30
0.0
 11
180.701
 21
103.161
 31
0.0
  0
LINE
  5
9B
330
17
100
AcDbEntity
  8
0
100
AcDbLine
 10
180.701
 20
214.339
 30
0.0
 11
181.184
 21
216.769
 31
0.0
  0
LINE
  5
9C
330
17
100
AcDbEntity
  8
0
100
AcDbLine
 10
181.184
 20
216.769
 30
0.0
 11
182.561
 21
218.829
 31
0.0
  0
LINE
  5
9D
330
17
100
AcDbEntity
  8
0
100
AcDbLine
 10
182.561
 20
218.829
 30
0.0
 11
184.621
 21
220.206
 31
0.0
  0
LINE
  5
9E
330
17
100
AcDbEntity
  8
0
100
AcDbLine
 10
184.621
 20
220.206
 30
0.0
 11
187.051
 21
220.689
 31
0.0
  0
LINE
  5
9F
330
17
100
AcDbEntity
  8
0
100
AcDbLine
 10
187.051
 20
220.689
 30
0.0
 11
189.481
 21
220.206
 31
0.0
  0
LINE
  5
A0
330
17
100
AcDbEntity
  8
0
100
AcDbLine
 10
189.481
 20
220.206
 30
0.0
 11
191.541
 21
218.829
 31
0.0
  0
LINE
  5
A1
330
17
100
AcDbEntity
  8
0
100
AcDbLine
 10
191.541
 20
218.829
 30
0.0
 11
192.917
 21
216.769
 31
0.0
  0
LINE
  5
A2
330
17
100
AcDbEntity
  8
0
100
AcDbLine
 10
192.917
 20
216.769
 30
0.0
 11
193.401
 21
214.339
 31
0.0
  0
LINE
  5
A3
330
17
100
AcDbEntity
  8
0
100
AcDbLine
 10
193.401
 20
214.339
 30
0.0
 11
192.917
 21
211.909
 31
0.0
  0
LINE
  5
A4
330
17
100
AcDbEntity
  8
0
100
AcDbLine
 10
192.917
 20
211.909
 30
0.0
 11
191.541
 21
209.849
 31
0.0
  0
LINE
  5
A5
330
17
100
AcDbEntity
  8
0
100
AcDbLine
 10
191.541
 20
209.849
 30
0.0
 11
189.481
 21
208.473
 31
0.0
  0
LINE
  5
A6
330
17
100
AcDbEntity
  8
0
100
AcDbLine
 10
189.481
 20
208.473
 30
0.0
 11
187.051
 21
207.989
 31
0.0
  0
LINE
  5
A7
330
17
100
AcDbEntity
  8
0
100
AcDbLine
 10
187.051
 20
207.989
 30
0.0
 11
184.621
 21
208.473
 31
0.0
  0
LINE
  5
A8
330
17
100
AcDbEntity
  8
0
100
AcDbLine
 10
184.621
 20
208.473
 30
0.0
 11
182.561
 21
209.849
 31
0.0
  0
LINE
  5
A9
330
17
100
AcDbEntity
  8
0
100
AcDbLine
 10
182.561
 20
209.849
 30
0.0
 11
181.184
 21
211.909
 31
0.0
  0
LINE
  5
AA
330
17
100
AcDbEntity
  8
0
100
AcDbLine
 10
181.184
 20
211.909
 30
0.0
 11
180.701
 21
214.339
 31
0.0
  0
LINE
  5
AB
330
17
100
AcDbEntity
  8
0
100
AcDbLine
 10
217.24
 20
158.75
 30
0.0
 11
217.728
 21
163.705
 31
0.0
  0
LINE
  5
AC
330
17
100
AcDbEntity
  8
0
100
AcDbLine
 10
217.728
 20
163.705
 30
0.0
 11
219.173
 21
168.47
 31
0.0
  0
LINE
  5
AD
330
17
100
AcDbEntity
  8
0
100
AcDbLine
 10
219.173
 20
168.47
 30
0.0
 11
221.521
 21
172.861
 31
0.0
  0
LINE
  5
AE
330
17
100
AcDbEntity
  8
0
100
AcDbLine
 10
221.521
 20
172.861
 30
0.0
 11
224.679
 21
176.711
 31
0.0
  0
LINE
  5
AF
330
17
100
AcDbEntity
  8
0
100
AcDbLine
 10
224.679
 20
176.711
 30
0.0
 11
228.529
 21
179.869
 31
0.0
  0
LINE
  5
B0
330
17
100
AcDbEntity
  8
0
100
AcDbLine
 10
228.529
 20
179.869
 30
0.0
 11
232.92
 21
182.217
 31
0.0
  0
LINE
  5
B1
330
17
100
AcDbEntity
  8
0
100
AcDbLine
 10
232.92
 20
182.217
 30
0.0
 11
237.685
 21
183.662
 31
0.0
  0
LINE
  5
B2
330
17
100
AcDbEntity
  8
0
100
AcDbLine
 10
237.685
 20
183.662
 30
0.0
 11
242.64
 21
184.15
 31
0.0
  0
LINE
  5
B3
330
17
100
AcDbEntity
  8
0
100
AcDbLine
 10
242.64
 20
184.15
 30
0.0
 11
247.595
 21
183.662
 31
0.0
  0
LINE
  5
B4
330
17
100
AcDbEntity
  8
0
100
AcDbLine
 10
247.595
 20
183.662
 30
0.0
 11
252.36
 21
182.217
 31
0.0
  0
LINE
  5
B5
330
17
100
AcDbEntity
  8
0
100
AcDbLine
 10
252.36
 20
182.217
 30
0.0
 11
256.751
 21
179.869
 31
0.0
  0
LINE
  5
B6
330
17
100
AcDbEntity
  8
0
100
AcDbLine
 10
256.751
 20
179.869
 30
0.0
 11
260.601
 21
176.711
 31
0.0
  0
LINE
  5
B7
330
17
100
AcDbEntity
  8
0
100
AcDbLine
 10
260.601
 20
176.711
 30
0.0
 11
263.759
 21
172.861
 31
0.0
  0
LINE
  5
B8
330
17
100
AcDbEntity
  8
0
100
AcDbLine
 10
263.759
 20
172.861
 30
0.0
 11
266.107
 21
168.47
 31
0.0
  0
LINE
  5
B9
330
17
100
AcDbEntity
  8
0
100
AcDbLine
 10
266.107
 20
168.47
 30
0.0
 11
267.552
 21
163.705
 31
0.0
  0
LINE
  5
BA
330
17
100
AcDbEntity
  8
0
100
AcDbLine
 10
267.552
 20
163.705
 30
0.0
 11
268.04
 21
158.75
 31
0.0
  0
LINE
  5
BB
330
17
100
AcDbEntity
  8
0
100
AcDbLine
 10
268.04
 20
158.75
 30
0.0
 11
267.552
 21
153.795
 31
0.0
  0
LINE
  5
BC
330
17
100
AcDbEntity
  8
0
100
AcDbLine
 10
267.552
 20
153.795
 30
0.0
 11
266.107
 21
149.03
 31
0.0
  0
LINE
  5
BD
330
17
100
AcDbEntity
  8
0
100
AcDbLine
 10
266.107
 20
149.03
 30
0.0
 11
263.759
 21
144.639
 31
0.0
  0
LINE
  5
BE
330
17
100
AcDbEntity
  8
0
100
AcDbLine
 10
263.759
 20
144.639
 30
0.0
 11
260.601
 21
140.789
 31
0.0
  0
LINE
  5
BF
330
17
100
AcDbEntity
  8
0
100
AcDbLine
 10
260.601
 20
140.789
 30
0.0
 11
256.751
 21
137.631
 31
0.0
  0
LINE
  5
C0
330
17
100
AcDbEntity
  8
0
100
AcDbLine
 10
256.751
 20
137.631
 30
0.0
 11
252.36
 21
135.283
 31
0.0
  0
LINE
  5
C1
330
17
100
AcDbEntity
  8
0
100
AcDbLine
 10
252.36
 20
135.283
 30
0.0
 11
247.595
 21
133.838
 31
0.0
  0
LINE
  5
C2
330
17
100
AcDbEntity
  8
0
100
AcDbLine
 10
247.595
 20
133.838
 30
0.0
 11
242.64
 21
133.35
 31
0.0
  0
LINE
  5
C3
330
17
100
AcDbEntity
  8
0
100
AcDbLine
 10
242.64
 20
133.35
 30
0.0
 11
237.685
 21
133.838
 31
0.0
  0
LINE
  5
C4
330
17
100
AcDbEntity
  8
0
100
AcDbLine
 10
237.685
 20
133.838
 30
0.0
 11
232.92
 21
135.283
 31
0.0
  0
LINE
  5
C5
330
17
100
AcDbEntity
  8
0
100
AcDbLine
 10
232.92
 20
135.283
 30
0.0
 11
228.529
 21
137.631
 31
0.0
  0
LINE
  5
C6
330
17
100
AcDbEntity
  8
0
100
AcDbLine
 10
228.529
 20
137.631
 30
0.0
 11
224.679
 21
140.789
 31
0.0
  0
LINE
  5
C7
330
17
100
AcDbEntity
  8
0
100
AcDbLine
 10
224.679
 20
140.789
 30
0.0
 11
221.521
 21
144.639
 31
0.0
  0
LINE
  5
C8
330
17
100
AcDbEntity
  8
0
100
AcDbLine
 10
221.521
 20
144.639
 30
0.0
 11
219.173
 21
149.03
 31
0.0
  0
LINE
  5
C9
330
17
100
AcDbEntity
  8
0
100
AcDbLine
 10
219.173
 20
149.03
 30
0.0
 11
217.728
 21
153.795
 31
0.0
  0
LINE
  5
CA
330
17
100
AcDbEntity
  8
0
100
AcDbLine
 10
217.728
 20
153.795
 30
0.0
 11
217.24
 21
158.75
 31
0.0
  0
LINE
  5
CB
330
17
100
AcDbEntity
  8
0
100
AcDbLine
 10
291.879
 20
103.161
 30
0.0
 11
292.363
 21
105.591
 31
0.0
  0
LINE
  5
CC
330
17
100
AcDbEntity
  8
0
100
AcDbLine
 10
292.363
 20
105.591
 30
0.0
 11
293.739
 21
107.651
 31
0.0
  0
LINE
  5
CD
330
17
100
AcDbEntity
  8
0
100
AcDbLine
 10
293.739
 20
107.651
 30
0.0
 11
295.799
 21
109.027
 31
0.0
  0
LINE
  5
CE
330
17
100
AcDbEntity
  8
0
100
AcDbLine
 10
295.799
 20
109.027
 30
0.0
 11
298.229
 21
109.511
 31
0.0
  0
LINE
  5
CF
330
17
100
AcDbEntity
  8
0
100
AcDbLine
 10
298.229
 20
109.511
 30
0.0
 11
300.659
 21
109.027
 31
0.0
  0
LINE
  5
D0
330
17
100
AcDbEntity
  8
0
100
AcDbLine
 10
300.659
 20
109.027
 30
0.0
 11
302.719
 21
107.651
 31
0.0
  0
LINE
  5
D1
330
17
100
AcDbEntity
  8
0
100
AcDbLine
 10
302.719
 20
107.651
 30
0.0
 11
304.096
 21
105.591
 31
0.0
  0
LINE
  5
D2
330
17
100
AcDbEntity
  8
0
100
AcDbLine
 10
304.096
 20
105.591
 30
0.0
 11
304.579
 21
103.161
 31
0.0
  0
LINE
  5
D3
330
17
100
AcDbEntity
  8
0
100
AcDbLine
 10
304.579
 20
103.161
 30
0.0
 11
304.096
 21
100.731
 31
0.0
  0
LINE
  5
D4
330
17
100
AcDbEntity
  8
0
100
AcDbLine
 10
304.096
 20
100.731
 30
0.0
 11
302.719
 21
98.6707
 31
0.0
  0
LINE
  5
D5
330
17
100
AcDbEntity
  8
0
100
AcDbLine
 10
302.719
 20
98.6707
 30
0.0
 11
300.659
 21
97.2942
 31
0.0
  0
LINE
  5
D6
330
17
100
AcDbEntity
  8
0
100
AcDbLine
 10
300.659
 20
97.2942
 30
0.0
 11
298.229
 21
96.8108
 31
0.0
  0
LINE
  5
D7
330
17
100
AcDbEntity
  8
0
100
AcDbLine
 10
298.229
 20
96.8108
 30
0.0
 11
295.799
 21
97.2942
 31
0.0
  0
LINE
  5
D8
330
17
100
AcDbEntity
  8
0
100
AcDbLine
 10
295.799
 20
97.2942
 30
0.0
 11
293.739
 21
98.6707
 31
0.0
  0
LINE
  5
D9
330
17
100
AcDbEntity
  8
0
100
AcDbLine
 10
293.739
 20
98.6707
 30
0.0
 11
292.363
 21
100.731
 31
0.0
  0
LINE
  5
DA
330
17
100
AcDbEntity
  8
0
100
AcDbLine
 10
292.363
 20
100.731
 30
0.0
 11
291.879
 21
103.161
 31
0.0
  0
LINE
  5
DB
330
17
100
AcDbEntity
  8
0
100
AcDbLine
 10
291.879
 20
214.339
 30
0.0
 11
292.363
 21
216.769
 31
0.0
  0
LINE
  5
DC
330
17
100
AcDbEntity
  8
0
100
AcDbLine
 10
292.363
 20
216.769
 30
0.0
 11
293.739
 21
218.829
 31
0.0
  0
LINE
  5
DD
330
17
100
AcDbEntity
  8
0
100
AcDbLine
 10
293.739
 20
218.829
 30
0.0
 11
295.799
 21
220.206
 31
0.0
  0
LINE
  5
DE
330
17
100
AcDbEntity
  8
0
100
AcDbLine
 10
295.799
 20
220.206
 30
0.0
 11
298.229
 21
220.689
 31
0.0
  0
LINE
  5
DF
330
17
100
AcDbEntity
  8
0
100
AcDbLine
 10
298.229
 20
220.689
 30
0.0
 11
300.659
 21
220.206
 31
0.0
  0
LINE
  5
E0
330
17
100
AcDbEntity
  8
0
100
AcDbLine
 10
300.659
 20
220.206
 30
0.0
 11
302.719
 21
218.829
 31
0.0
  0
LINE
  5
E1
330
17
100
AcDbEntity
  8
0
100
AcDbLine
 10
302.719
 20
218.829
 30
0.0
 11
304.096
 21
216.769
 31
0.0
  0
LINE
  5
E2
330
17
100
AcDbEntity
  8
0
100
AcDbLine
 10
304.096
 20
216.769
 30
0.0
 11
304.579
 21
214.339
 31
0.0
  0
LINE
  5
E3
330
17
100
AcDbEntity
  8
0
100
AcDbLine
 10
304.579
 20
214.339
 30
0.0
 11
304.096
 21
211.909
 31
0.0
  0
LINE
  5
E4
330
17
100
AcDbEntity
  8
0
100
AcDbLine
 10
304.096
 20
211.909
 30
0.0
 11
302.719
 21
209.849
 31
0.0
  0
LINE
  5
E5
330
17
100
AcDbEntity
  8
0
100
AcDbLine
 10
302.719
 20
209.849
 30
0.0
 11
300.659
 21
208.473
 31
0.0
  0
LINE
  5
E6
330
17
100
AcDbEntity
  8
0
100
AcDbLine
 10
300.659
 20
208.473
 30
0.0
 11
298.229
 21
207.989
 31
0.0
  0
LINE
  5
E7
330
17
100
AcDbEntity
  8
0
100
AcDbLine
 10
298.229
 20
207.989
 30
0.0
 11
295.799
 21
208.473
 31
0.0
  0
LINE
  5
E8
330
17
100
AcDbEntity
  8
0
100
AcDbLine
 10
295.799
 20
208.473
 30
0.0
 11
293.739
 21
209.849
 31
0.0
  0
LINE
  5
E9
330
17
100
AcDbEntity
  8
0
100
AcDbLine
 10
293.739
 20
209.849
 30
0.0
 11
292.363
 21
211.909
 31
0.0
  0
LINE
  5
EA
330
17
100
AcDbEntity
  8
0
100
AcDbLine
 10
292.363
 20
211.909
 30
0.0
 11
291.879
 21
214.339
 31
0.0
  0
LINE
  5
EB
330
17
100
AcDbEntity
  8
0
100
AcDbLine
 10
395.04
 20
85.725
 30
0.0
 11
395.04
 21
231.775
 31
0.0
  0
LINE
  5
EC
330
17
100
AcDbEntity
  8
0
100
AcDbLine
 10
395.04
 20
231.775
 30
0.0
 11
395.101
 21
232.394
 31
0.0
  0
LINE
  5
ED
330
17
100
AcDbEntity
  8
0
100
AcDbLine
 10
395.101
 20
232.394
 30
0.0
 11
395.282
 21
232.99
 31
0.0
  0
LINE
  5
EE
330
17
100
AcDbEntity
  8
0
100
AcDbLine
 10
395.282
 20
232.99
 30
0.0
 11
395.575
 21
233.539
 31
0.0
  0
LINE
  5
EF
330
17
100
AcDbEntity
  8
0
100
AcDbLine
 10
395.575
 20
233.539
 30
0.0
 11
395.97
 21
234.02
 31
0.0
  0
LINE
  5
F0
330
17
100
AcDbEntity
  8
0
100
AcDbLine
 10
395.97
 20
234.02
 30
0.0
 11
396.451
 21
234.415
 31
0.0
  0
LINE
  5
F1
330
17
100
AcDbEntity
  8
0
100
AcDbLine
 10
396.451
 20
234.415
 30
0.0
 11
397.0
 21
234.708
 31
0.0
  0
LINE
  5
F2
330
17
100
AcDbEntity
  8
0
100
AcDbLine
 10
397.0
 20
234.708
 30
0.0
 11
397.596
 21
234.889
 31
0.0
  0
LINE
  5
F3
330
17
100
AcDbEntity
  8
0
100
AcDbLine
 10
397.596
 20
234.889
 30
0.0
 11
398.215
 21
234.95
 31
0.0
  0
LINE
  5
F4
330
17
100
AcDbEntity
  8
0
100
AcDbLine
 10
398.215
 20
234.95
 30
0.0
 11
442.665
 21
234.95
 31
0.0
  0
LINE
  5
F5
330
17
100
AcDbEntity
  8
0
100
AcDbLine
 10
442.665
 20
234.95
 30
0.0
 11
443.284
 21
234.889
 31
0.0
  0
LINE
  5
F6
330
17
100
AcDbEntity
  8
0
100
AcDbLine
 10
443.284
 20
234.889
 30
0.0
 11
443.88
 21
234.708
 31
0.0
  0
LINE
  5
F7
330
17
100
AcDbEntity
  8
0
100
AcDbLine
 10
443.88
 20
234.708
 30
0.0
 11
444.429
 21
234.415
 31
0.0
  0
LINE
  5
F8
330
17
100
AcDbEntity
  8
0
100
AcDbLine
 10
444.429
 20
234.415
 30
0.0
 11
444.91
 21
234.02
 31
0.0
  0
LINE
  5
F9
330
17
100
AcDbEntity
  8
0
100
AcDbLine
 10
444.91
 20
234.02
 30
0.0
 11
445.305
 21
233.539
 31
0.0
  0
LINE
  5
FA
330
17
100
AcDbEntity
  8
0
100
AcDbLine
 10
445.305
 20
233.539
 30
0.0
 11
445.598
 21
232.99
 31
0.0
  0
LINE
  5
FB
330
17
100
AcDbEntity
  8
0
100
AcDbLine
 10
445.598
 20
232.99
 30
0.0
 11
445.779
 21
232.394
 31
0.0
  0
LINE
  5
FC
330
17
100
AcDbEntity
  8
0
100
AcDbLine
 10
445.779
 20
232.394
 30
0.0
 11
445.84
 21
231.775
 31
0.0
  0
LINE
  5
FD
330
17
100
AcDbEntity
  8
0
100
AcDbLine
 10
445.84
 20
231.775
 30
0.0
 11
445.84
 21
85.725
 31
0.0
  0
LINE
  5
FE
330
17
100
AcDbEntity
  8
0
100
AcDbLine
 10
445.84
 20
85.725
 30
0.0
 11
445.779
 21
85.1056
 31
0.0
  0
LINE
  5
FF
330
17
100
AcDbEntity
  8
0
100
AcDbLine
 10
445.779
 20
85.1056
 30
0.0
 11
445.598
 21
84.51
 31
0.0
  0
LINE
  5
100
330
17
100
AcDbEntity
  8
0
100
AcDbLine
 10
445.598
 20
84.51
 30
0.0
 11
445.305
 21
83.9611
 31
0.0
  0
LINE
  5
101
330
17
100
AcDbEntity
  8
0
100
AcDbLine
 10
445.305
 20
83.9611
 30
0.0
 11
444.91
 21
83.4799
 31
0.0
  0
LINE
  5
102
330
17
100
AcDbEntity
  8
0
100
AcDbLine
 10
444.91
 20
83.4799
 30
0.0
 11
444.429
 21
83.0851
 31
0.0
  0
LINE
  5
103
330
17
100
AcDbEntity
  8
0
100
AcDbLine
 10
444.429
 20
83.0851
 30
0.0
 11
443.88
 21
82.7917
 31
0.0
  0
LINE
  5
104
330
17
100
AcDbEntity
  8
0
100
AcDbLine
 10
443.88
 20
82.7917
 30
0.0
 11
443.284
 21
82.611
 31
0.0
  0
LINE
  5
105
330
17
100
AcDbEntity
  8
0
100
AcDbLine
 10
443.284
 20
82.611
 30
0.0
 11
442.665
 21
82.55
 31
0.0
  0
LINE
  5
106
330
17
100
AcDbEntity
  8
0
100
AcDbLine
 10
442.665
 20
82.55
 30
0.0
 11
398.215
 21
82.55
 31
0.0
  0
LINE
  5
107
330
17
100
AcDbEntity
  8
0
100
AcDbLine
 10
398.215
 20
82.55
 30
0.0
 11
397.596
 21
82.611
 31
0.0
  0
LINE
  5
108
330
17
100
AcDbEntity
  8
0
100
AcDbLine
 10
397.596
 20
82.611
 30
0.0
 11
397.0
 21
82.7917
 31
0.0
  0
LINE
  5
109
330
17
100
AcDbEntity
  8
0
100
AcDbLine
 10
397.0
 20
82.7917
 30
0.0
 11
396.451
 21
83.0851
 31
0.0
  0
LINE
  5
10A
330
17
100
AcDbEntity
  8
0
100
AcDbLine
 10
396.451
 20
83.0851
 30
0.0
 11
395.97
 21
83.4799
 31
0.0
  0
LINE
  5
10B
330
17
100
AcDbEntity
  8
0
100
AcDbLine
 10
395.97
 20
83.4799
 30
0.0
 11
395.575
 21
83.9611
 31
0.0
  0
LINE
  5
10C
330
17
100
AcDbEntity
  8
0
100
AcDbLine
 10
395.575
 20
83.9611
 30
0.0
 11
395.282
 21
84.51
 31
0.0
  0
LINE
  5
10D
330
17
100
AcDbEntity
  8
0
100
AcDbLine
 10
395.282
 20
84.51
 30
0.0
 11
395.101
 21
85.1056
 31
0.0
  0
LINE
  5
10E
330
17
100
AcDbEntity
  8
0
100
AcDbLine
 10
395.101
 20
85.1056
 30
0.0
 11
395.04
 21
85.725
 31
0.0
  0
LINE
  5
10F
330
17
100
AcDbEntity
  8
0
100
AcDbLine
 10
503.518
 20
62.23
 30
0.0
 11
503.88
 21
64.0525
 31
0.0
  0
LINE
  5
110
330
17
100
AcDbEntity
  8
0
100
AcDbLine
 10
503.88
 20
64.0525
 30
0.0
 11
504.912
 21
65.5976
 31
0.0
  0
LINE
  5
111
330
17
100
AcDbEntity
  8
0
100
AcDbLine
 10
504.912
 20
65.5976
 30
0.0
 11
506.457
 21
66.63
 31
0.0
  0
LINE
  5
112
330
17
100
AcDbEntity
  8
0
100
AcDbLine
 10
506.457
 20
66.63
 30
0.0
 11
508.28
 21
66.9925
 31
0.0
  0
LINE
  5
113
330
17
100
AcDbEntity
  8
0
100
AcDbLine
 10
508.28
 20
66.9925
 30
0.0
 11
510.103
 21
66.63
 31
0.0
  0
LINE
  5
114
330
17
100
AcDbEntity
  8
0
100
AcDbLine
 10
510.103
 20
66.63
 30
0.0
 11
511.648
 21
65.5976
 31
0.0
  0
LINE
  5
115
330
17
100
AcDbEntity
  8
0
100
AcDbLine
 10
511.648
 20
65.5976
 30
0.0
 11
512.68
 21
64.0525
 31
0.0
  0
LINE
  5
116
330
17
100
AcDbEntity
  8
0
100
AcDbLine
 10
512.68
 20
64.0525
 30
0.0
 11
513.043
 21
62.23
 31
0.0
  0
LINE
  5
117
330
17
100
AcDbEntity
  8
0
100
AcDbLine
 10
513.043
 20
62.23
 30
0.0
 11
512.68
 21
60.4075
 31
0.0
  0
LINE
  5
118
330
17
100
AcDbEntity
  8
0
100
AcDbLine
 10
512.68
 20
60.4075
 30
0.0
 11
511.648
 21
58.8624
 31
0.0
  0
LINE
  5
119
330
17
100
AcDbEntity
  8
0
100
AcDbLine
 10
511.648
 20
58.8624
 30
0.0
 11
510.103
 21
57.83
 31
0.0
  0
LINE
  5
11A
330
17
100
AcDbEntity
  8
0
100
AcDbLine
 10
510.103
 20
57.83
 30
0.0
 11
508.28
 21
57.4675
 31
0.0
  0
LINE
  5
11B
330
17
100
AcDbEntity
  8
0
100
AcDbLine
 10
508.28
 20
57.4675
 30
0.0
 11
506.457
 21
57.83
 31
0.0
  0
LINE
  5
11C
330
17
100
AcDbEntity
  8
0
100
AcDbLine
 10
506.457
 20
57.83
 30
0.0
 11
504.912
 21
58.8624
 31
0.0
  0
LINE
  5
11D
330
17
100
AcDbEntity
  8
0
100
AcDbLine
 10
504.912
 20
58.8624
 30
0.0
 11
503.88
 21
60.4075
 31
0.0
  0
LINE
  5
11E
330
17
100
AcDbEntity
  8
0
100
AcDbLine
 10
503.88
 20
60.4075
 30
0.0
 11
503.518
 21
62.23
 31
0.0
  0
LINE
  5
11F
330
17
100
AcDbEntity
  8
0
100
AcDbLine
 10
612.878
 20
62.23
 30
0.0
 11
613.24
 21
64.0525
 31
0.0
  0
LINE
  5
120
330
17
100
AcDbEntity
  8
0
100
AcDbLine
 10
613.24
 20
64.0525
 30
0.0
 11
614.272
 21
65.5976
 31
0.0
  0
LINE
  5
121
330
17
100
AcDbEntity
  8
0
100
AcDbLine
 10
614.272
 20
65.5976
 30
0.0
 11
615.817
 21
66.63
 31
0.0
  0
LINE
  5
122
330
17
100
AcDbEntity
  8
0
100
AcDbLine
 10
615.817
 20
66.63
 30
0.0
 11
617.64
 21
66.9925
 31
0.0
  0
LINE
  5
123
330
17
100
AcDbEntity
  8
0
100
AcDbLine
 10
617.64
 20
66.9925
 30
0.0
 11
619.463
 21
66.63
 31
0.0
  0
LINE
  5
124
330
17
100
AcDbEntity
  8
0
100
AcDbLine
 10
619.463
 20
66.63
 30
0.0
 11
621.008
 21
65.5976
 31
0.0
  0
LINE
  5
125
330
17
100
AcDbEntity
  8
0
100
AcDbLine
 10
621.008
 20
65.5976
 30
0.0
 11
622.04
 21
64.0525
 31
0.0
  0
LINE
  5
126
330
17
100
AcDbEntity
  8
0
100
AcDbLine
 10
622.04
 20
64.0525
 30
0.0
 11
622.403
 21
62.23
 31
0.0
  0
LINE
  5
127
330
17
100
AcDbEntity
  8
0
100
AcDbLine
 10
622.403
 20
62.23
 30
0.0
 11
622.04
 21
60.4075
 31
0.0
  0
LINE
  5
128
330
17
100
AcDbEntity
  8
0
100
AcDbLine
 10
622.04
 20
60.4075
 30
0.0
 11
621.008
 21
58.8624
 31
0.0
  0
LINE
  5
129
330
17
100
AcDbEntity
  8
0
100
AcDbLine
 10
621.008
 20
58.8624
 30
0.0
 11
619.463
 21
57.83
 31
0.0
  0
LINE
  5
12A
330
17
100
AcDbEntity
  8
0
100
AcDbLine
 10
619.463
 20
57.83
 30
0.0
 11
617.64
 21
57.4675
 31
0.0
  0
LINE
  5
12B
330
17
100
AcDbEntity
  8
0
100
AcDbLine
 10
617.64
 20
57.4675
 30
0.0
 11
615.817
 21
57.83
 31
0.0
  0
LINE
  5
12C
330
17
100
AcDbEntity
  8
0
100
AcDbLine
 10
615.817
 20
57.83
 30
0.0
 11
614.272
 21
58.8624
 31
0.0
  0
LINE
  5
12D
330
17
100
AcDbEntity
  8
0
100
AcDbLine
 10
614.272
 20
58.8624
 30
0.0
 11
613.24
 21
60.4075
 31
0.0
  0
LINE
  5
12E
330
17
100
AcDbEntity
  8
0
100
AcDbLine
 10
613.24
 20
60.4075
 30
0.0
 11
612.878
 21
62.23
 31
0.0
  0
LINE
  5
12F
330
17
100
AcDbEntity
  8
0
100
AcDbLine
 10
722.238
 20
62.23
 30
0.0
 11
722.6
 21
64.0525
 31
0.0
  0
LINE
  5
130
330
17
100
AcDbEntity
  8
0
100
AcDbLine
 10
722.6
 20
64.0525
 30
0.0
 11
723.632
 21
65.5976
 31
0.0
  0
LINE
  5
131
330
17
100
AcDbEntity
  8
0
100
AcDbLine
 10
723.632
 20
65.5976
 30
0.0
 11
725.177
 21
66.63
 31
0.0
  0
LINE
  5
132
330
17
100
AcDbEntity
  8
0
100
AcDbLine
 10
725.177
 20
66.63
 30
0.0
 11
727.0
 21
66.9925
 31
0.0
  0
LINE
  5
133
330
17
100
AcDbEntity
  8
0
100
AcDbLine
 10
727.0
 20
66.9925
 30
0.0
 11
728.823
 21
66.63
 31
0.0
  0
LINE
  5
134
330
17
100
AcDbEntity
  8
0
100
AcDbLine
 10
728.823
 20
66.63
 30
0.0
 11
730.368
 21
65.5976
 31
0.0
  0
LINE
  5
135
330
17
100
AcDbEntity
  8
0
100
AcDbLine
 10
730.368
 20
65.5976
 30
0.0
 11
731.4
 21
64.0525
 31
0.0
  0
LINE
  5
136
330
17
100
AcDbEntity
  8
0
100
AcDbLine
 10
731.4
 20
64.0525
 30
0.0
 11
731.763
 21
62.23
 31
0.0
  0
LINE
  5
137
330
17
100
AcDbEntity
  8
0
100
AcDbLine
 10
731.763
 20
62.23
 30
0.0
 11
731.4
 21
60.4075
 31
0.0
  0
LINE
  5
138
330
17
100
AcDbEntity
  8
0
100
AcDbLine
 10
731.4
 20
60.4075
 30
0.0
 11
730.368
 21
58.8624
 31
0.0
  0
LINE
  5
139
330
17
100
AcDbEntity
  8
0
100
AcDbLine
 10
730.368
 20
58.8624
 30
0.0
 11
728.823
 21
57.83
 31
0.0
  0
LINE
  5
13A
330
17
100
AcDbEntity
  8
0
100
AcDbLine
 10
728.823
 20
57.83
 30
0.0
 11
727.0
 21
57.4675
 31
0.0
  0
LINE
  5
13B
330
17
100
AcDbEntity
  8
0
100
AcDbLine
 10
727.0
 20
57.4675
 30
0.0
 11
725.177
 21
57.83
 31
0.0
  0
LINE
  5
13C
330
17
100
AcDbEntity
  8
0
100
AcDbLine
 10
725.177
 20
57.83
 30
0.0
 11
723.632
 21
58.8624
 31
0.0
  0
LINE
  5
13D
330
17
100
AcDbEntity
  8
0
100
AcDbLine
 10
723.632
 20
58.8624
 30
0.0
 11
722.6
 21
60.4075
 31
0.0
  0
LINE
  5
13E
330
17
100
AcDbEntity
  8
0
100
AcDbLine
 10
722.6
 20
60.4075
 30
0.0
 11
722.238
 21
62.23
 31
0.0
  0
LINE
  5
13F
330
17
100
AcDbEntity
  8
0
100
AcDbLine
 10
789.44
 20
85.725
 30
0.0
 11
789.44
 21
231.775
 31
0.0
  0
LINE
  5
140
330
17
100
AcDbEntity
  8
0
100
AcDbLine
 10
789.44
 20
231.775
 30
0.0
 11
789.501
 21
232.394
 31
0.0
  0
LINE
  5
141
330
17
100
AcDbEntity
  8
0
100
AcDbLine
 10
789.501
 20
232.394
 30
0.0
 11
789.682
 21
232.99
 31
0.0
  0
LINE
  5
142
330
17
100
AcDbEntity
  8
0
100
AcDbLine
 10
789.682
 20
232.99
 30
0.0
 11
789.975
 21
233.539
 31
0.0
  0
LINE
  5
143
330
17
100
AcDbEntity
  8
0
100
AcDbLine
 10
789.975
 20
233.539
 30
0.0
 11
790.37
 21
234.02
 31
0.0
  0
LINE
  5
144
330
17
100
AcDbEntity
  8
0
100
AcDbLine
 10
790.37
 20
234.02
 30
0.0
 11
790.851
 21
234.415
 31
0.0
  0
LINE
  5
145
330
17
100
AcDbEntity
  8
0
100
AcDbLine
 10
790.851
 20
234.415
 30
0.0
 11
791.4
 21
234.708
 31
0.0
  0
LINE
  5
146
330
17
100
AcDbEntity
  8
0
100
AcDbLine
 10
791.4
 20
234.708
 30
0.0
 11
791.996
 21
234.889
 31
0.0
  0
LINE
  5
147
330
17
100
AcDbEntity
  8
0
100
AcDbLine
 10
791.996
 20
234.889
 30
0.0
 11
792.615
 21
234.95
 31
0.0
  0
LINE
  5
148
330
17
100
AcDbEntity
  8
0
100
AcDbLine
 10
792.615
 20
234.95
 30
0.0
 11
837.065
 21
234.95
 31
0.0
  0
LINE
  5
149
330
17
100
AcDbEntity
  8
0
100
AcDbLine
 10
837.065
 20
234.95
 30
0.0
 11
837.684
 21
234.889
 31
0.0
  0
LINE
  5
14A
330
17
100
AcDbEntity
  8
0
100
AcDbLine
 10
837.684
 20
234.889
 30
0.0
 11
838.28
 21
234.708
 31
0.0
  0
LINE
  5
14B
330
17
100
AcDbEntity
  8
0
100
AcDbLine
 10
838.28
 20
234.708
 30
0.0
 11
838.829
 21
234.415
 31
0.0
  0
LINE
  5
14C
330
17
100
AcDbEntity
  8
0
100
AcDbLine
 10
838.829
 20
234.415
 30
0.0
 11
839.31
 21
234.02
 31
0.0
  0
LINE
  5
14D
330
17
100
AcDbEntity
  8
0
100
AcDbLine
 10
839.31
 20
234.02
 30
0.0
 11
839.705
 21
233.539
 31
0.0
  0
LINE
  5
14E
330
17
100
AcDbEntity
  8
0
100
AcDbLine
 10
839.705
 20
233.539
 30
0.0
 11
839.998
 21
232.99
 31
0.0
  0
LINE
  5
14F
330
17
100
AcDbEntity
  8
0
100
AcDbLine
 10
839.998
 20
232.99
 30
0.0
 11
840.179
 21
232.394
 31
0.0
  0
LINE
  5
150
330
17
100
AcDbEntity
  8
0
100
AcDbLine
 10
840.179
 20
232.394
 30
0.0
 11
840.24
 21
231.775
 31
0.0
  0
LINE
  5
151
330
17
100
AcDbEntity
  8
0
100
AcDbLine
 10
840.24
 20
231.775
 30
0.0
 11
840.24
 21
85.725
 31
0.0
  0
LINE
  5
152
330
17
100
AcDbEntity
  8
0
100
AcDbLine
 10
840.24
 20
85.725
 30
0.0
 11
840.179
 21
85.1056
 31
0.0
  0
LINE
  5
153
330
17
100
AcDbEntity
  8
0
100
AcDbLine
 10
840.179
 20
85.1056
 30
0.0
 11
839.998
 21
84.51
 31
0.0
  0
LINE
  5
154
330
17
100
AcDbEntity
  8
0
100
AcDbLine
 10
839.998
 20
84.51
 30
0.0
 11
839.705
 21
83.9611
 31
0.0
  0
LINE
  5
155
330
17
100
AcDbEntity
  8
0
100
AcDbLine
 10
839.705
 20
83.9611
 30
0.0
 11
839.31
 21
83.4799
 31
0.0
  0
LINE
  5
156
330
17
100
AcDbEntity
  8
0
100
AcDbLine
 10
839.31
 20
83.4799
 30
0.0
 11
838.829
 21
83.0851
 31
0.0
  0
LINE
  5
157
330
17
100
AcDbEntity
  8
0
100
AcDbLine
 10
838.829
 20
83.0851
 30
0.0
 11
838.28
 21
82.7917
 31
0.0
  0
LINE
  5
158
330
17
100
AcDbEntity
  8
0
100
AcDbLine
 10
838.28
 20
82.7917
 30
0.0
 11
837.684
 21
82.611
 31
0.0
  0
LINE
  5
159
330
17
100
AcDbEntity
  8
0
100
AcDbLine
 10
837.684
 20
82.611
 30
0.0
 11
837.065
 21
82.55
 31
0.0
  0
LINE
  5
15A
330
17
100
AcDbEntity
  8
0
100
AcDbLine
 10
837.065
 20
82.55
 30
0.0
 11
792.615
 21
82.55
 31
0.0
  0
LINE
  5
15B
330
17
100
AcDbEntity
  8
0
100
AcDbLine
 10
792.615
 20
82.55
 30
0.0
 11
791.996
 21
82.611
 31
0.0
  0
LINE
  5
15C
330
17
100
AcDbEntity
  8
0
100
AcDbLine
 10
791.996
 20
82.611
 30
0.0
 11
791.4
 21
82.7917
 31
0.0
  0
LINE
  5
15D
330
17
100
AcDbEntity
  8
0
100
AcDbLine
 10
791.4
 20
82.7917
 30
0.0
 11
790.851
 21
83.0851
 31
0.0
  0
LINE
  5
15E
330
17
100
AcDbEntity
  8
0
100
AcDbLine
 10
790.851
 20
83.0851
 30
0.0
 11
790.37
 21
83.4799
 31
0.0
  0
LINE
  5
15F
330
17
100
AcDbEntity
  8
0
100
AcDbLine
 10
790.37
 20
83.4799
 30
0.0
 11
789.975
 21
83.9611
 31
0.0
  0
LINE
  5
160
330
17
100
AcDbEntity
  8
0
100
AcDbLine
 10
789.975
 20
83.9611
 30
0.0
 11
789.682
 21
84.51
 31
0.0
  0
LINE
  5
161
330
17
100
AcDbEntity
  8
0
100
AcDbLine
 10
789.682
 20
84.51
 30
0.0
 11
789.501
 21
85.1056
 31
0.0
  0
LINE
  5
162
330
17
100
AcDbEntity
  8
0
100
AcDbLine
 10
789.501
 20
85.1056
 30
0.0
 11
789.44
 21
85.725
 31
0.0
  0
LINE
  5
163
330
17
100
AcDbEntity
  8
0
100
AcDbLine
 10
831.598
 20
62.23
 30
0.0
 11
831.96
 21
64.0525
 31
0.0
  0
LINE
  5
164
330
17
100
AcDbEntity
  8
0
100
AcDbLine
 10
831.96
 20
64.0525
 30
0.0
 11
832.992
 21
65.5976
 31
0.0
  0
LINE
  5
165
330
17
100
AcDbEntity
  8
0
100
AcDbLine
 10
832.992
 20
65.5976
 30
0.0
 11
834.537
 21
66.63
 31
0.0
  0
LINE
  5
166
330
17
100
AcDbEntity
  8
0
100
AcDbLine
 10
834.537
 20
66.63
 30
0.0
 11
836.36
 21
66.9925
 31
0.0
  0
LINE
  5
167
330
17
100
AcDbEntity
  8
0
100
AcDbLine
 10
836.36
 20
66.9925
 30
0.0
 11
838.183
 21
66.63
 31
0.0
  0
LINE
  5
168
330
17
100
AcDbEntity
  8
0
100
AcDbLine
 10
838.183
 20
66.63
 30
0.0
 11
839.728
 21
65.5976
 31
0.0
  0
LINE
  5
169
330
17
100
AcDbEntity
  8
0
100
AcDbLine
 10
839.728
 20
65.5976
 30
0.0
 11
840.76
 21
64.0525
 31
0.0
  0
LINE
  5
16A
330
17
100
AcDbEntity
  8
0
100
AcDbLine
 10
840.76
 20
64.0525
 30
0.0
 11
841.123
 21
62.23
 31
0.0
  0
LINE
  5
16B
330
17
100
AcDbEntity
  8
0
100
AcDbLine
 10
841.123
 20
62.23
 30
0.0
 11
840.76
 21
60.4075
 31
0.0
  0
LINE
  5
16C
330
17
100
AcDbEntity
  8
0
100
AcDbLine
 10
840.76
 20
60.4075
 30
0.0
 11
839.728
 21
58.8624
 31
0.0
  0
LINE
  5
16D
330
17
100
AcDbEntity
  8
0
100
AcDbLine
 10
839.728
 20
58.8624
 30
0.0
 11
838.183
 21
57.83
 31
0.0
  0
LINE
  5
16E
330
17
100
AcDbEntity
  8
0
100
AcDbLine
 10
838.183
 20
57.83
 30
0.0
 11
836.36
 21
57.4675
 31
0.0
  0
LINE
  5
16F
330
17
100
AcDbEntity
  8
0
100
AcDbLine
 10
836.36
 20
57.4675
 30
0.0
 11
834.537
 21
57.83
 31
0.0
  0
LINE
  5
170
330
17
100
AcDbEntity
  8
0
100
AcDbLine
 10
834.537
 20
57.83
 30
0.0
 11
832.992
 21
58.8624
 31
0.0
  0
LINE
  5
171
330
17
100
AcDbEntity
  8
0
100
AcDbLine
 10
832.992
 20
58.8624
 30
0.0
 11
831.96
 21
60.4075
 31
0.0
  0
LINE
  5
172
330
17
100
AcDbEntity
  8
0
100
AcDbLine
 10
831.96
 20
60.4075
 30
0.0
 11
831.598
 21
62.23
 31
0.0
  0
LINE
  5
173
330
17
100
AcDbEntity
  8
0
100
AcDbLine
 10
930.701
 20
103.161
 30
0.0
 11
931.184
 21
105.591
 31
0.0
  0
LINE
  5
174
330
17
100
AcDbEntity
  8
0
100
AcDbLine
 10
931.184
 20
105.591
 30
0.0
 11
932.561
 21
107.651
 31
0.0
  0
LINE
  5
175
330
17
100
AcDbEntity
  8
0
100
AcDbLine
 10
932.561
 20
107.651
 30
0.0
 11
934.621
 21
109.027
 31
0.0
  0
LINE
  5
176
330
17
100
AcDbEntity
  8
0
100
AcDbLine
 10
934.621
 20
109.027
 30
0.0
 11
937.051
 21
109.511
 31
0.0
  0
LINE
  5
177
330
17
100
AcDbEntity
  8
0
100
AcDbLine
 10
937.051
 20
109.511
 30
0.0
 11
939.481
 21
109.027
 31
0.0
  0
LINE
  5
178
330
17
100
AcDbEntity
  8
0
100
AcDbLine
 10
939.481
 20
109.027
 30
0.0
 11
941.541
 21
107.651
 31
0.0
  0
LINE
  5
179
330
17
100
AcDbEntity
  8
0
100
AcDbLine
 10
941.541
 20
107.651
 30
0.0
 11
942.917
 21
105.591
 31
0.0
  0
LINE
  5
17A
330
17
100
AcDbEntity
  8
0
100
AcDbLine
 10
942.917
 20
105.591
 30
0.0
 11
943.401
 21
103.161
 31
0.0
  0
LINE
  5
17B
330
17
100
AcDbEntity
  8
0
100
AcDbLine
 10
943.401
 20
103.161
 30
0.0
 11
942.917
 21
100.731
 31
0.0
  0
LINE
  5
17C
330
17
100
AcDbEntity
  8
0
100
AcDbLine
 10
942.917
 20
100.731
 30
0.0
 11
941.541
 21
98.6707
 31
0.0
  0
LINE
  5
17D
330
17
100
AcDbEntity
  8
0
100
AcDbLine
 10
941.541
 20
98.6707
 30
0.0
 11
939.481
 21
97.2942
 31
0.0
  0
LINE
  5
17E
330
17
100
AcDbEntity
  8
0
100
AcDbLine
 10
939.481
 20
97.2942
 30
0.0
 11
937.051
 21
96.8108
 31
0.0
  0
LINE
  5
17F
330
17
100
AcDbEntity
  8
0
100
AcDbLine
 10
937.051
 20
96.8108
 30
0.0
 11
934.621
 21
97.2942
 31
0.0
  0
LINE
  5
180
330
17
100
AcDbEntity
  8
0
100
AcDbLine
 10
934.621
 20
97.2942
 30
0.0
 11
932.561
 21
98.6707
 31
0.0
  0
LINE
  5
181
330
17
100
AcDbEntity
  8
0
100
AcDbLine
 10
932.561
 20
98.6707
 30
0.0
 11
931.184
 21
100.731
 31
0.0
  0
LINE
  5
182
330
17
100
AcDbEntity
  8
0
100
AcDbLine
 10
931.184
 20
100.731
 30
0.0
 11
930.701
 21
103.161
 31
0.0
  0
LINE
  5
183
330
17
100
AcDbEntity
  8
0
100
AcDbLine
 10
930.701
 20
214.339
 30
0.0
 11
931.184
 21
216.769
 31
0.0
  0
LINE
  5
184
330
17
100
AcDbEntity
  8
0
100
AcDbLine
 10
931.184
 20
216.769
 30
0.0
 11
932.561
 21
218.829
 31
0.0
  0
LINE
  5
185
330
17
100
AcDbEntity
  8
0
100
AcDbLine
 10
932.561
 20
218.829
 30
0.0
 11
934.621
 21
220.206
 31
0.0
  0
LINE
  5
186
330
17
100
AcDbEntity
  8
0
100
AcDbLine
 10
934.621
 20
220.206
 30
0.0
 11
937.051
 21
220.689
 31
0.0
  0
LINE
  5
187
330
17
100
AcDbEntity
  8
0
100
AcDbLine
 10
937.051
 20
220.689
 30
0.0
 11
939.481
 21
220.206
 31
0.0
  0
LINE
  5
188
330
17
100
AcDbEntity
  8
0
100
AcDbLine
 10
939.481
 20
220.206
 30
0.0
 11
941.541
 21
218.829
 31
0.0
  0
LINE
  5
189
330
17
100
AcDbEntity
  8
0
100
AcDbLine
 10
941.541
 20
218.829
 30
0.0
 11
942.917
 21
216.769
 31
0.0
  0
LINE
  5
18A
330
17
100
AcDbEntity
  8
0
100
AcDbLine
 10
942.917
 20
216.769
 30
0.0
 11
943.401
 21
214.339
 31
0.0
  0
LINE
  5
18B
330
17
100
AcDbEntity
  8
0
100
AcDbLine
 10
943.401
 20
214.339
 30
0.0
 11
942.917
 21
211.909
 31
0.0
  0
LINE
  5
18C
330
17
100
AcDbEntity
  8
0
100
AcDbLine
 10
942.917
 20
211.909
 30
0.0
 11
941.541
 21
209.849
 31
0.0
  0
LINE
  5
18D
330
17
100
AcDbEntity
  8
0
100
AcDbLine
 10
941.541
 20
209.849
 30
0.0
 11
939.481
 21
208.473
 31
0.0
  0
LINE
  5
18E
330
17
100
AcDbEntity
  8
0
100
AcDbLine
 10
939.481
 20
208.473
 30
0.0
 11
937.051
 21
207.989
 31
0.0
  0
LINE
  5
18F
330
17
100
AcDbEntity
  8
0
100
AcDbLine
 10
937.051
 20
207.989
 30
0.0
 11
934.621
 21
208.473
 31
0.0
  0
LINE
  5
190
330
17
100
AcDbEntity
  8
0
100
AcDbLine
 10
934.621
 20
208.473
 30
0.0
 11
932.561
 21
209.849
 31
0.0
  0
LINE
  5
191
330
17
100
AcDbEntity
  8
0
100
AcDbLine
 10
932.561
 20
209.849
 30
0.0
 11
931.184
 21
211.909
 31
0.0
  0
LINE
  5
192
330
17
100
AcDbEntity
  8
0
100
AcDbLine
 10
931.184
 20
211.909
 30
0.0
 11
930.701
 21
214.339
 31
0.0
  0
LINE
  5
193
330
17
100
AcDbEntity
  8
0
100
AcDbLine
 10
967.24
 20
158.75
 30
0.0
 11
967.728
 21
163.705
 31
0.0
  0
LINE
  5
194
330
17
100
AcDbEntity
  8
0
100
AcDbLine
 10
967.728
 20
163.705
 30
0.0
 11
969.173
 21
168.47
 31
0.0
  0
LINE
  5
195
330
17
100
AcDbEntity
  8
0
100
AcDbLine
 10
969.173
 20
168.47
 30
0.0
 11
971.521
 21
172.861
 31
0.0
  0
LINE
  5
196
330
17
100
AcDbEntity
  8
0
100
AcDbLine
 10
971.521
 20
172.861
 30
0.0
 11
974.679
 21
176.711
 31
0.0
  0
LINE
  5
197
330
17
100
AcDbEntity
  8
0
100
AcDbLine
 10
974.679
 20
176.711
 30
0.0
 11
978.529
 21
179.869
 31
0.0
  0
LINE
  5
198
330
17
100
AcDbEntity
  8
0
100
AcDbLine
 10
978.529
 20
179.869
 30
0.0
 11
982.92
 21
182.217
 31
0.0
  0
LINE
  5
199
330
17
100
AcDbEntity
  8
0
100
AcDbLine
 10
982.92
 20
182.217
 30
0.0
 11
987.685
 21
183.662
 31
0.0
  0
LINE
  5
19A
330
17
100
AcDbEntity
  8
0
100
AcDbLine
 10
987.685
 20
183.662
 30
0.0
 11
992.64
 21
184.15
 31
0.0
  0
LINE
  5
19B
330
17
100
AcDbEntity
  8
0
100
AcDbLine
 10
992.64
 20
184.15
 30
0.0
 11
997.595
 21
183.662
 31
0.0
  0
LINE
  5
19C
330
17
100
AcDbEntity
  8
0
100
AcDbLine
 10
997.595
 20
183.662
 30
0.0
 11
1002.36
 21
182.217
 31
0.0
  0
LINE
  5
19D
330
17
100
AcDbEntity
  8
0
100
AcDbLine
 10
1002.36
 20
182.217
 30
0.0
 11
1006.75
 21
179.869
 31
0.0
  0
LINE
  5
19E
330
17
100
AcDbEntity
  8
0
100
AcDbLine
 10
1006.75
 20
179.869
 30
0.0
 11
1010.6
 21
176.711
 31
0.0
  0
LINE
  5
19F
330
17
100
AcDbEntity
  8
0
100
AcDbLine
 10
1010.6
 20
176.711
 30
0.0
 11
1013.76
 21
172.861
 31
0.0
  0
LINE
  5
1A0
330
17
100
AcDbEntity
  8
0
100
AcDbLine
 10
1013.76
 20
172.861
 30
0.0
 11
1016.11
 21
168.47
 31
0.0
  0
LINE
  5
1A1
330
17
100
AcDbEntity
  8
0
100
AcDbLine
 10
1016.11
 20
168.47
 30
0.0
 11
1017.55
 21
163.705
 31
0.0
  0
LINE
  5
1A2
330
17
100
AcDbEntity
  8
0
100
AcDbLine
 10
1017.55
 20
163.705
 30
0.0
 11
1018.04
 21
158.75
 31
0.0
  0
LINE
  5
1A3
330
17
100
AcDbEntity
  8
0
100
AcDbLine
 10
1018.04
 20
158.75
 30
0.0
 11
1017.55
 21
153.795
 31
0.0
  0
LINE
  5
1A4
330
17
100
AcDbEntity
  8
0
100
AcDbLine
 10
1017.55
 20
153.795
 30
0.0
 11
1016.11
 21
149.03
 31
0.0
  0
LINE
  5
1A5
330
17
100
AcDbEntity
  8
0
100
AcDbLine
 10
1016.11
 20
149.03
 30
0.0
 11
1013.76
 21
144.639
 31
0.0
  0
LINE
  5
1A6
330
17
100
AcDbEntity
  8
0
100
AcDbLine
 10
1013.76
 20
144.639
 30
0.0
 11
1010.6
 21
140.789
 31
0.0
  0
LINE
  5
1A7
330
17
100
AcDbEntity
  8
0
100
AcDbLine
 10
1010.6
 20
140.789
 30
0.0
 11
1006.75
 21
137.631
 31
0.0
  0
LINE
  5
1A8
330
17
100
AcDbEntity
  8
0
100
AcDbLine
 10
1006.75
 20
137.631
 30
0.0
 11
1002.36
 21
135.283
 31
0.0
  0
LINE
  5
1A9
330
17
100
AcDbEntity
  8
0
100
AcDbLine
 10
1002.36
 20
135.283
 30
0.0
 11
997.595
 21
133.838
 31
0.0
  0
LINE
  5
1AA
330
17
100
AcDbEntity
  8
0
100
AcDbLine
 10
997.595
 20
133.838
 30
0.0
 11
992.64
 21
133.35
 31
0.0
  0
LINE
  5
1AB
330
17
100
AcDbEntity
  8
0
100
AcDbLine
 10
992.64
 20
133.35
 30
0.0
 11
987.685
 21
133.838
 31
0.0
  0
LINE
  5
1AC
330
17
100
AcDbEntity
  8
0
100
AcDbLine
 10
987.685
 20
133.838
 30
0.0
 11
982.92
 21
135.283
 31
0.0
  0
LINE
  5
1AD
330
17
100
AcDbEntity
  8
0
100
AcDbLine
 10
982.92
 20
135.283
 30
0.0
 11
978.529
 21
137.631
 31
0.0
  0
LINE
  5
1AE
330
17
100
AcDbEntity
  8
0
100
AcDbLine
 10
978.529
 20
137.631
 30
0.0
 11
974.679
 21
140.789
 31
0.0
  0
LINE
  5
1AF
330
17
100
AcDbEntity
  8
0
100
AcDbLine
 10
974.679
 20
140.789
 30
0.0
 11
971.521
 21
144.639
 31
0.0
  0
LINE
  5
1B0
330
17
100
AcDbEntity
  8
0
100
AcDbLine
 10
971.521
 20
144.639
 30
0.0
 11
969.173
 21
149.03
 31
0.0
  0
LINE
  5
1B1
330
17
100
AcDbEntity
  8
0
100
AcDbLine
 10
969.173
 20
149.03
 30
0.0
 11
967.728
 21
153.795
 31
0.0
  0
LINE
  5
1B2
330
17
100
AcDbEntity
  8
0
100
AcDbLine
 10
967.728
 20
153.795
 30
0.0
 11
967.24
 21
158.75
 31
0.0
  0
LINE
  5
1B3
330
17
100
AcDbEntity
  8
0
100
AcDbLine
 10
1041.88
 20
103.161
 30
0.0
 11
1042.36
 21
105.591
 31
0.0
  0
LINE
  5
1B4
330
17
100
AcDbEntity
  8
0
100
AcDbLine
 10
1042.36
 20
105.591
 30
0.0
 11
1043.74
 21
107.651
 31
0.0
  0
LINE
  5
1B5
330
17
100
AcDbEntity
  8
0
100
AcDbLine
 10
1043.74
 20
107.651
 30
0.0
 11
1045.8
 21
109.027
 31
0.0
  0
LINE
  5
1B6
330
17
100
AcDbEntity
  8
0
100
AcDbLine
 10
1045.8
 20
109.027
 30
0.0
 11
1048.23
 21
109.511
 31
0.0
  0
LINE
  5
1B7
330
17
100
AcDbEntity
  8
0
100
AcDbLine
 10
1048.23
 20
109.511
 30
0.0
 11
1050.66
 21
109.027
 31
0.0
  0
LINE
  5
1B8
330
17
100
AcDbEntity
  8
0
100
AcDbLine
 10
1050.66
 20
109.027
 30
0.0
 11
1052.72
 21
107.651
 31
0.0
  0
LINE
  5
1B9
330
17
100
AcDbEntity
  8
0
100
AcDbLine
 10
1052.72
 20
107.651
 30
0.0
 11
1054.1
 21
105.591
 31
0.0
  0
LINE
  5
1BA
330
17
100
AcDbEntity
  8
0
100
AcDbLine
 10
1054.1
 20
105.591
 30
0.0
 11
1054.58
 21
103.161
 31
0.0
  0
LINE
  5
1BB
330
17
100
AcDbEntity
  8
0
100
AcDbLine
 10
1054.58
 20
103.161
 30
0.0
 11
1054.1
 21
100.731
 31
0.0
  0
LINE
  5
1BC
330
17
100
AcDbEntity
  8
0
100
AcDbLine
 10
1054.1
 20
100.731
 30
0.0
 11
1052.72
 21
98.6707
 31
0.0
  0
LINE
  5
1BD
330
17
100
AcDbEntity
  8
0
100
AcDbLine
 10
1052.72
 20
98.6707
 30
0.0
 11
1050.66
 21
97.2942
 31
0.0
  0
LINE
  5
1BE
330
17
100
AcDbEntity
  8
0
100
AcDbLine
 10
1050.66
 20
97.2942
 30
0.0
 11
1048.23
 21
96.8108
 31
0.0
  0
LINE
  5
1BF
330
17
100
AcDbEntity
  8
0
100
AcDbLine
 10
1048.23
 20
96.8108
 30
0.0
 11
1045.8
 21
97.2942
 31
0.0
  0
LINE
  5
1C0
330
17
100
AcDbEntity
  8
0
100
AcDbLine
 10
1045.8
 20
97.2942
 30
0.0
 11
1043.74
 21
98.6707
 31
0.0
  0
LINE
  5
1C1
330
17
100
AcDbEntity
  8
0
100
AcDbLine
 10
1043.74
 20
98.6707
 30
0.0
 11
1042.36
 21
100.731
 31
0.0
  0
LINE
  5
1C2
330
17
100
AcDbEntity
  8
0
100
AcDbLine
 10
1042.36
 20
100.731
 30
0.0
 11
1041.88
 21
103.161
 31
0.0
  0
LINE
  5
1C3
330
17
100
AcDbEntity
  8
0
100
AcDbLine
 10
1041.88
 20
214.339
 30
0.0
 11
1042.36
 21
216.769
 31
0.0
  0
LINE
  5
1C4
330
17
100
AcDbEntity
  8
0
100
AcDbLine
 10
1042.36
 20
216.769
 30
0.0
 11
1043.74
 21
218.829
 31
0.0
  0
LINE
  5
1C5
330
17
100
AcDbEntity
  8
0
100
AcDbLine
 10
1043.74
 20
218.829
 30
0.0
 11
1045.8
 21
220.206
 31
0.0
  0
LINE
  5
1C6
330
17
100
AcDbEntity
  8
0
100
AcDbLine
 10
1045.8
 20
220.206
 30
0.0
 11
1048.23
 21
220.689
 31
0.0
  0
LINE
  5
1C7
330
17
100
AcDbEntity
  8
0
100
AcDbLine
 10
1048.23
 20
220.689
 30
0.0
 11
1050.66
 21
220.206
 31
0.0
  0
LINE
  5
1C8
330
17
100
AcDbEntity
  8
0
100
AcDbLine
 10
1050.66
 20
220.206
 30
0.0
 11
1052.72
 21
218.829
 31
0.0
  0
LINE
  5
1C9
330
17
100
AcDbEntity
  8
0
100
AcDbLine
 10
1052.72
 20
218.829
 30
0.0
 11
1054.1
 21
216.769
 31
0.0
  0
LINE
  5
1CA
330
17
100
AcDbEntity
  8
0
100
AcDbLine
 10
1054.1
 20
216.769
 30
0.0
 11
1054.58
 21
214.339
 31
0.0
  0
LINE
  5
1CB
330
17
100
AcDbEntity
  8
0
100
AcDbLine
 10
1054.58
 20
214.339
 30
0.0
 11
1054.1
 21
211.909
 31
0.0
  0
LINE
  5
1CC
330
17
100
AcDbEntity
  8
0
100
AcDbLine
 10
1054.1
 20
211.909
 30
0.0
 11
1052.72
 21
209.849
 31
0.0
  0
LINE
  5
1CD
330
17
100
AcDbEntity
  8
0
100
AcDbLine
 10
1052.72
 20
209.849
 30
0.0
 11
1050.66
 21
208.473
 31
0.0
  0
LINE
  5
1CE
330
17
100
AcDbEntity
  8
0
100
AcDbLine
 10
1050.66
 20
208.473
 30
0.0
 11
1048.23
 21
207.989
 31
0.0
  0
LINE
  5
1CF
330
17
100
AcDbEntity
  8
0
100
AcDbLine
 10
1048.23
 20
207.989
 30
0.0
 11
1045.8
 21
208.473
 31
0.0
  0
LINE
  5
1D0
330
17
100
AcDbEntity
  8
0
100
AcDbLine
 10
1045.8
 20
208.473
 30
0.0
 11
1043.74
 21
209.849
 31
0.0
  0
LINE
  5
1D1
330
17
100
AcDbEntity
  8
0
100
AcDbLine
 10
1043.74
 20
209.849
 30
0.0
 11
1042.36
 21
211.909
 31
0.0
  0
LINE
  5
1D2
330
17
100
AcDbEntity
  8
0
100
AcDbLine
 10
1042.36
 20
211.909
 30
0.0
 11
1041.88
 21
214.339
 31
0.0
  0
LINE
  5
1D3
330
17
100
AcDbEntity
  8
0
100
AcDbLine
 10
1125.98
 20
62.23
 30
0.0
 11
1126.34
 21
64.0525
 31
0.0
  0
LINE
  5
1D4
330
17
100
AcDbEntity
  8
0
100
AcDbLine
 10
1126.34
 20
64.0525
 30
0.0
 11
1127.37
 21
65.5976
 31
0.0
  0
LINE
  5
1D5
330
17
100
AcDbEntity
  8
0
100
AcDbLine
 10
1127.37
 20
65.5976
 30
0.0
 11
1128.92
 21
66.63
 31
0.0
  0
LINE
  5
1D6
330
17
100
AcDbEntity
  8
0
100
AcDbLine
 10
1128.92
 20
66.63
 30
0.0
 11
1130.74
 21
66.9925
 31
0.0
  0
LINE
  5
1D7
330
17
100
AcDbEntity
  8
0
100
AcDbLine
 10
1130.74
 20
66.9925
 30
0.0
 11
1132.56
 21
66.63
 31
0.0
  0
LINE
  5
1D8
330
17
100
AcDbEntity
  8
0
100
AcDbLine
 10
1132.56
 20
66.63
 30
0.0
 11
1134.11
 21
65.5976
 31
0.0
  0
LINE
  5
1D9
330
17
100
AcDbEntity
  8
0
100
AcDbLine
 10
1134.11
 20
65.5976
 30
0.0
 11
1135.14
 21
64.0525
 31
0.0
  0
LINE
  5
1DA
330
17
100
AcDbEntity
  8
0
100
AcDbLine
 10
1135.14
 20
64.0525
 30
0.0
 11
1135.5
 21
62.23
 31
0.0
  0
LINE
  5
1DB
330
17
100
AcDbEntity
  8
0
100
AcDbLine
 10
1135.5
 20
62.23
 30
0.0
 11
1135.14
 21
60.4075
 31
0.0
  0
LINE
  5
1DC
330
17
100
AcDbEntity
  8
0
100
AcDbLine
 10
1135.14
 20
60.4075
 30
0.0
 11
1134.11
 21
58.8624
 31
0.0
  0
LINE
  5
1DD
330
17
100
AcDbEntity
  8
0
100
AcDbLine
 10
1134.11
 20
58.8624
 30
0.0
 11
1132.56
 21
57.83
 31
0.0
  0
LINE
  5
1DE
330
17
100
AcDbEntity
  8
0
100
AcDbLine
 10
1132.56
 20
57.83
 30
0.0
 11
1130.74
 21
57.4675
 31
0.0
  0
LINE
  5
1DF
330
17
100
AcDbEntity
  8
0
100
AcDbLine
 10
1130.74
 20
57.4675
 30
0.0
 11
1128.92
 21
57.83
 31
0.0
  0
LINE
  5
1E0
330
17
100
AcDbEntity
  8
0
100
AcDbLine
 10
1128.92
 20
57.83
 30
0.0
 11
1127.37
 21
58.8624
 31
0.0
  0
LINE
  5
1E1
330
17
100
AcDbEntity
  8
0
100
AcDbLine
 10
1127.37
 20
58.8624
 30
0.0
 11
1126.34
 21
60.4075
 31
0.0
  0
LINE
  5
1E2
330
17
100
AcDbEntity
  8
0
100
AcDbLine
 10
1126.34
 20
60.4075
 30
0.0
 11
1125.98
 21
62.23
 31
0.0
  0
LINE
  5
1E3
330
17
100
AcDbEntity
  8
0
100
AcDbLine
 10
1172.59
 20
950.0
 30
0.0
 11
1172.76
 21
952.617
 31
0.0
  0
LINE
  5
1E4
330
17
100
AcDbEntity
  8
0
100
AcDbLine
 10
1172.76
 20
952.617
 30
0.0
 11
1173.27
 21
955.189
 31
0.0
  0
LINE
  5
1E5
330
17
100
AcDbEntity
  8
0
100
AcDbLine
 10
1173.27
 20
955.189
 30
0.0
 11
1174.12
 21
957.673
 31
0.0
  0
LINE
  5
1E6
330
17
100
AcDbEntity
  8
0
100
AcDbLine
 10
1174.12
 20
957.673
 30
0.0
 11
1175.28
 21
960.025
 31
0.0
  0
LINE
  5
1E7
330
17
100
AcDbEntity
  8
0
100
AcDbLine
 10
1175.28
 20
960.025
 30
0.0
 11
1176.73
 21
962.206
 31
0.0
  0
LINE
  5
1E8
330
17
100
AcDbEntity
  8
0
100
AcDbLine
 10
1176.73
 20
962.206
 30
0.0
 11
1178.46
 21
964.177
 31
0.0
  0
LINE
  5
1E9
330
17
100
AcDbEntity
  8
0
100
AcDbLine
 10
1178.46
 20
964.177
 30
0.0
 11
1180.43
 21
965.907
 31
0.0
  0
LINE
  5
1EA
330
17
100
AcDbEntity
  8
0
100
AcDbLine
 10
1180.43
 20
965.907
 30
0.0
 11
1182.62
 21
967.364
 31
0.0
  0
LINE
  5
1EB
330
17
100
AcDbEntity
  8
0
100
AcDbLine
 10
1182.62
 20
967.364
 30
0.0
 11
1184.97
 21
968.524
 31
0.0
  0
LINE
  5
1EC
330
17
100
AcDbEntity
  8
0
100
AcDbLine
 10
1184.97
 20
968.524
 30
0.0
 11
1187.45
 21
969.367
 31
0.0
  0
LINE
  5
1ED
330
17
100
AcDbEntity
  8
0
100
AcDbLine
 10
1187.45
 20
969.367
 30
0.0
 11
1190.02
 21
969.878
 31
0.0
  0
LINE
  5
1EE
330
17
100
AcDbEntity
  8
0
100
AcDbLine
 10
1190.02
 20
969.878
 30
0.0
 11
1192.64
 21
970.05
 31
0.0
  0
LINE
  5
1EF
330
17
100
AcDbEntity
  8
0
100
AcDbLine
 10
1192.64
 20
970.05
 30
0.0
 11
1195.26
 21
969.878
 31
0.0
  0
LINE
  5
1F0
330
17
100
AcDbEntity
  8
0
100
AcDbLine
 10
1195.26
 20
969.878
 30
0.0
 11
1197.83
 21
969.367
 31
0.0
  0
LINE
  5
1F1
330
17
100
AcDbEntity
  8
0
100
AcDbLine
 10
1197.83
 20
969.367
 30
0.0
 11
1200.31
 21
968.524
 31
0.0
  0
LINE
  5
1F2
330
17
100
AcDbEntity
  8
0
100
AcDbLine
 10
1200.31
 20
968.524
 30
0.0
 11
1202.67
 21
967.364
 31
0.0
  0
LINE
  5
1F3
330
17
100
AcDbEntity
  8
0
100
AcDbLine
 10
1202.67
 20
967.364
 30
0.0
 11
1204.85
 21
965.907
 31
0.0
  0
LINE
  5
1F4
330
17
100
AcDbEntity
  8
0
100
AcDbLine
 10
1204.85
 20
965.907
 30
0.0
 11
1206.82
 21
964.177
 31
0.0
  0
LINE
  5
1F5
330
17
100
AcDbEntity
  8
0
100
AcDbLine
 10
1206.82
 20
964.177
 30
0.0
 11
1208.55
 21
962.206
 31
0.0
  0
LINE
  5
1F6
330
17
100
AcDbEntity
  8
0
100
AcDbLine
 10
1208.55
 20
962.206
 30
0.0
 11
1210.0
 21
960.025
 31
0.0
  0
LINE
  5
1F7
330
17
100
AcDbEntity
  8
0
100
AcDbLine
 10
1210.0
 20
960.025
 30
0.0
 11
1211.16
 21
957.673
 31
0.0
  0
LINE
  5
1F8
330
17
100
AcDbEntity
  8
0
100
AcDbLine
 10
1211.16
 20
957.673
 30
0.0
 11
1212.01
 21
955.189
 31
0.0
  0
LINE
  5
1F9
330
17
100
AcDbEntity
  8
0
100
AcDbLine
 10
1212.01
 20
955.189
 30
0.0
 11
1212.52
 21
952.617
 31
0.0
  0
LINE
  5
1FA
330
17
100
AcDbEntity
  8
0
100
AcDbLine
 10
1212.52
 20
952.617
 30
0.0
 11
1212.69
 21
950.0
 31
0.0
  0
LINE
  5
1FB
330
17
100
AcDbEntity
  8
0
100
AcDbLine
 10
1212.69
 20
950.0
 30
0.0
 11
1212.52
 21
947.383
 31
0.0
  0
LINE
  5
1FC
330
17
100
AcDbEntity
  8
0
100
AcDbLine
 10
1212.52
 20
947.383
 30
0.0
 11
1212.01
 21
944.811
 31
0.0
  0
LINE
  5
1FD
330
17
100
AcDbEntity
  8
0
100
AcDbLine
 10
1212.01
 20
944.811
 30
0.0
 11
1211.16
 21
942.327
 31
0.0
  0
LINE
  5
1FE
330
17
100
AcDbEntity
  8
0
100
AcDbLine
 10
1211.16
 20
942.327
 30
0.0
 11
1210.0
 21
939.975
 31
0.0
  0
LINE
  5
1FF
330
17
100
AcDbEntity
  8
0
100
AcDbLine
 10
1210.0
 20
939.975
 30
0.0
 11
1208.55
 21
937.794
 31
0.0
  0
LINE
  5
200
330
17
100
AcDbEntity
  8
0
100
AcDbLine
 10
1208.55
 20
937.794
 30
0.0
 11
1206.82
 21
935.823
 31
0.0
  0
LINE
  5
201
330
17
100
AcDbEntity
  8
0
100
AcDbLine
 10
1206.82
 20
935.823
 30
0.0
 11
1204.85
 21
934.093
 31
0.0
  0
LINE
  5
202
330
17
100
AcDbEntity
  8
0
100
AcDbLine
 10
1204.85
 20
934.093
 30
0.0
 11
1202.67
 21
932.636
 31
0.0
  0
LINE
  5
203
330
17
100
AcDbEntity
  8
0
100
AcDbLine
 10
1202.67
 20
932.636
 30
0.0
 11
1200.31
 21
931.476
 31
0.0
  0
LINE
  5
204
330
17
100
AcDbEntity
  8
0
100
AcDbLine
 10
1200.31
 20
931.476
 30
0.0
 11
1197.83
 21
930.633
 31
0.0
  0
LINE
  5
205
330
17
100
AcDbEntity
  8
0
100
AcDbLine
 10
1197.83
 20
930.633
 30
0.0
 11
1195.26
 21
930.122
 31
0.0
  0
LINE
  5
206
330
17
100
AcDbEntity
  8
0
100
AcDbLine
 10
1195.26
 20
930.122
 30
0.0
 11
1192.64
 21
929.95
 31
0.0
  0
LINE
  5
207
330
17
100
AcDbEntity
  8
0
100
AcDbLine
 10
1192.64
 20
929.95
 30
0.0
 11
1190.02
 21
930.122
 31
0.0
  0
LINE
  5
208
330
17
100
AcDbEntity
  8
0
100
AcDbLine
 10
1190.02
 20
930.122
 30
0.0
 11
1187.45
 21
930.633
 31
0.0
  0
LINE
  5
209
330
17
100
AcDbEntity
  8
0
100
AcDbLine
 10
1187.45
 20
930.633
 30
0.0
 11
1184.97
 21
931.476
 31
0.0
  0
LINE
  5
20A
330
17
100
AcDbEntity
  8
0
100
AcDbLine
 10
1184.97
 20
931.476
 30
0.0
 11
1182.62
 21
932.636
 31
0.0
  0
LINE
  5
20B
330
17
100
AcDbEntity
  8
0
100
AcDbLine
 10
1182.62
 20
932.636
 30
0.0
 11
1180.43
 21
934.093
 31
0.0
  0
LINE
  5
20C
330
17
100
AcDbEntity
  8
0
100
AcDbLine
 10
1180.43
 20
934.093
 30
0.0
 11
1178.46
 21
935.823
 31
0.0
  0
LINE
  5
20D
330
17
100
AcDbEntity
  8
0
100
AcDbLine
 10
1178.46
 20
935.823
 30
0.0
 11
1176.73
 21
937.794
 31
0.0
  0
LINE
  5
20E
330
17
100
AcDbEntity
  8
0
100
AcDbLine
 10
1176.73
 20
937.794
 30
0.0
 11
1175.28
 21
939.975
 31
0.0
  0
LINE
  5
20F
330
17
100
AcDbEntity
  8
0
100
AcDbLine
 10
1175.28
 20
939.975
 30
0.0
 11
1174.12
 21
942.327
 31
0.0
  0
LINE
  5
210
330
17
100
AcDbEntity
  8
0
100
AcDbLine
 10
1174.12
 20
942.327
 30
0.0
 11
1173.27
 21
944.811
 31
0.0
  0
LINE
  5
211
330
17
100
AcDbEntity
  8
0
100
AcDbLine
 10
1173.27
 20
944.811
 30
0.0
 11
1172.76
 21
947.383
 31
0.0
  0
LINE
  5
212
330
17
100
AcDbEntity
  8
0
100
AcDbLine
 10
1172.76
 20
947.383
 30
0.0
 11
1172.59
 21
950.0
 31
0.0
  0
LINE
  5
213
330
17
100
AcDbEntity
  8
0
100
AcDbLine
 10
1198.98
 20
62.23
 30
0.0
 11
1199.34
 21
64.0525
 31
0.0
  0
LINE
  5
214
330
17
100
AcDbEntity
  8
0
100
AcDbLine
 10
1199.34
 20
64.0525
 30
0.0
 11
1200.37
 21
65.5976
 31
0.0
  0
LINE
  5
215
330
17
100
AcDbEntity
  8
0
100
AcDbLine
 10
1200.37
 20
65.5976
 30
0.0
 11
1201.92
 21
66.63
 31
0.0
  0
LINE
  5
216
330
17
100
AcDbEntity
  8
0
100
AcDbLine
 10
1201.92
 20
66.63
 30
0.0
 11
1203.74
 21
66.9925
 31
0.0
  0
LINE
  5
217
330
17
100
AcDbEntity
  8
0
100
AcDbLine
 10
1203.74
 20
66.9925
 30
0.0
 11
1205.56
 21
66.63
 31
0.0
  0
LINE
  5
218
330
17
100
AcDbEntity
  8
0
100
AcDbLine
 10
1205.56
 20
66.63
 30
0.0
 11
1207.11
 21
65.5976
 31
0.0
  0
LINE
  5
219
330
17
100
AcDbEntity
  8
0
100
AcDbLine
 10
1207.11
 20
65.5976
 30
0.0
 11
1208.14
 21
64.0525
 31
0.0
  0
LINE
  5
21A
330
17
100
AcDbEntity
  8
0
100
AcDbLine
 10
1208.14
 20
64.0525
 30
0.0
 11
1208.5
 21
62.23
 31
0.0
  0
LINE
  5
21B
330
17
100
AcDbEntity
  8
0
100
AcDbLine
 10
1208.5
 20
62.23
 30
0.0
 11
1208.14
 21
60.4075
 31
0.0
  0
LINE
  5
21C
330
17
100
AcDbEntity
  8
0
100
AcDbLine
 10
1208.14
 20
60.4075
 30
0.0
 11
1207.11
 21
58.8624
 31
0.0
  0
LINE
  5
21D
330
17
100
AcDbEntity
  8
0
100
AcDbLine
 10
1207.11
 20
58.8624
 30
0.0
 11
1205.56
 21
57.83
 31
0.0
  0
LINE
  5
21E
330
17
100
AcDbEntity
  8
0
100
AcDbLine
 10
1205.56
 20
57.83
 30
0.0
 11
1203.74
 21
57.4675
 31
0.0
  0
LINE
  5
21F
330
17
100
AcDbEntity
  8
0
100
AcDbLine
 10
1203.74
 20
57.4675
 30
0.0
 11
1201.92
 21
57.83
 31
0.0
  0
LINE
  5
220
330
17
100
AcDbEntity
  8
0
100
AcDbLine
 10
1201.92
 20
57.83
 30
0.0
 11
1200.37
 21
58.8624
 31
0.0
  0
LINE
  5
221
330
17
100
AcDbEntity
  8
0
100
AcDbLine
 10
1200.37
 20
58.8624
 30
0.0
 11
1199.34
 21
60.4075
 31
0.0
  0
LINE
  5
222
330
17
100
AcDbEntity
  8
0
100
AcDbLine
 10
1199.34
 20
60.4075
 30
0.0
 11
1198.98
 21
62.23
 31
0.0
  0
LINE
  5
223
330
17
100
AcDbEntity
  8
0
100
AcDbLine
 10
1325.65
 20
415.0
 30
0.0
 11
1326.01
 21
416.823
 31
0.0
  0
LINE
  5
224
330
17
100
AcDbEntity
  8
0
100
AcDbLine
 10
1326.01
 20
416.823
 30
0.0
 11
1327.04
 21
418.368
 31
0.0
  0
LINE
  5
225
330
17
100
AcDbEntity
  8
0
100
AcDbLine
 10
1327.04
 20
418.368
 30
0.0
 11
1328.59
 21
419.4
 31
0.0
  0
LINE
  5
226
330
17
100
AcDbEntity
  8
0
100
AcDbLine
 10
1328.59
 20
419.4
 30
0.0
 11
1330.41
 21
419.762
 31
0.0
  0
LINE
  5
227
330
17
100
AcDbEntity
  8
0
100
AcDbLine
 10
1330.41
 20
419.762
 30
0.0
 11
1332.23
 21
419.4
 31
0.0
  0
LINE
  5
228
330
17
100
AcDbEntity
  8
0
100
AcDbLine
 10
1332.23
 20
419.4
 30
0.0
 11
1333.78
 21
418.368
 31
0.0
  0
LINE
  5
229
330
17
100
AcDbEntity
  8
0
100
AcDbLine
 10
1333.78
 20
418.368
 30
0.0
 11
1334.81
 21
416.823
 31
0.0
  0
LINE
  5
22A
330
17
100
AcDbEntity
  8
0
100
AcDbLine
 10
1334.81
 20
416.823
 30
0.0
 11
1335.17
 21
415.0
 31
0.0
  0
LINE
  5
22B
330
17
100
AcDbEntity
  8
0
100
AcDbLine
 10
1335.17
 20
415.0
 30
0.0
 11
1334.81
 21
413.177
 31
0.0
  0
LINE
  5
22C
330
17
100
AcDbEntity
  8
0
100
AcDbLine
 10
1334.81
 20
413.177
 30
0.0
 11
1333.78
 21
411.632
 31
0.0
  0
LINE
  5
22D
330
17
100
AcDbEntity
  8
0
100
AcDbLine
 10
1333.78
 20
411.632
 30
0.0
 11
1332.23
 21
410.6
 31
0.0
  0
LINE
  5
22E
330
17
100
AcDbEntity
  8
0
100
AcDbLine
 10
1332.23
 20
410.6
 30
0.0
 11
1330.41
 21
410.237
 31
0.0
  0
LINE
  5
22F
330
17
100
AcDbEntity
  8
0
100
AcDbLine
 10
1330.41
 20
410.237
 30
0.0
 11
1328.59
 21
410.6
 31
0.0
  0
LINE
  5
230
330
17
100
AcDbEntity
  8
0
100
AcDbLine
 10
1328.59
 20
410.6
 30
0.0
 11
1327.04
 21
411.632
 31
0.0
  0
LINE
  5
231
330
17
100
AcDbEntity
  8
0
100
AcDbLine
 10
1327.04
 20
411.632
 30
0.0
 11
1326.01
 21
413.177
 31
0.0
  0
LINE
  5
232
330
17
100
AcDbEntity
  8
0
100
AcDbLine
 10
1326.01
 20
413.177
 30
0.0
 11
1325.65
 21
415.0
 31
0.0
  0
LINE
  5
233
330
17
100
AcDbEntity
  8
0
100
AcDbLine
 10
1325.65
 20
545.0
 30
0.0
 11
1326.01
 21
546.823
 31
0.0
  0
LINE
  5
234
330
17
100
AcDbEntity
  8
0
100
AcDbLine
 10
1326.01
 20
546.823
 30
0.0
 11
1327.04
 21
548.368
 31
0.0
  0
LINE
  5
235
330
17
100
AcDbEntity
  8
0
100
AcDbLine
 10
1327.04
 20
548.368
 30
0.0
 11
1328.59
 21
549.4
 31
0.0
  0
LINE
  5
236
330
17
100
AcDbEntity
  8
0
100
AcDbLine
 10
1328.59
 20
549.4
 30
0.0
 11
1330.41
 21
549.762
 31
0.0
  0
LINE
  5
237
330
17
100
AcDbEntity
  8
0
100
AcDbLine
 10
1330.41
 20
549.762
 30
0.0
 11
1332.23
 21
549.4
 31
0.0
  0
LINE
  5
238
330
17
100
AcDbEntity
  8
0
100
AcDbLine
 10
1332.23
 20
549.4
 30
0.0
 11
1333.78
 21
548.368
 31
0.0
  0
LINE
  5
239
330
17
100
AcDbEntity
  8
0
100
AcDbLine
 10
1333.78
 20
548.368
 30
0.0
 11
1334.81
 21
546.823
 31
0.0
  0
LINE
  5
23A
330
17
100
AcDbEntity
  8
0
100
AcDbLine
 10
1334.81
 20
546.823
 30
0.0
 11
1335.17
 21
545.0
 31
0.0
  0
LINE
  5
23B
330
17
100
AcDbEntity
  8
0
100
AcDbLine
 10
1335.17
 20
545.0
 30
0.0
 11
1334.81
 21
543.177
 31
0.0
  0
LINE
  5
23C
330
17
100
AcDbEntity
  8
0
100
AcDbLine
 10
1334.81
 20
543.177
 30
0.0
 11
1333.78
 21
541.632
 31
0.0
  0
LINE
  5
23D
330
17
100
AcDbEntity
  8
0
100
AcDbLine
 10
1333.78
 20
541.632
 30
0.0
 11
1332.23
 21
540.6
 31
0.0
  0
LINE
  5
23E
330
17
100
AcDbEntity
  8
0
100
AcDbLine
 10
1332.23
 20
540.6
 30
0.0
 11
1330.41
 21
540.237
 31
0.0
  0
LINE
  5
23F
330
17
100
AcDbEntity
  8
0
100
AcDbLine
 10
1330.41
 20
540.237
 30
0.0
 11
1328.59
 21
540.6
 31
0.0
  0
LINE
  5
240
330
17
100
AcDbEntity
  8
0
100
AcDbLine
 10
1328.59
 20
540.6
 30
0.0
 11
1327.04
 21
541.632
 31
0.0
  0
LINE
  5
241
330
17
100
AcDbEntity
  8
0
100
AcDbLine
 10
1327.04
 20
541.632
 30
0.0
 11
1326.01
 21
543.177
 31
0.0
  0
LINE
  5
242
330
17
100
AcDbEntity
  8
0
100
AcDbLine
 10
1326.01
 20
543.177
 30
0.0
 11
1325.65
 21
545.0
 31
0.0
  0
LINE
  5
243
330
17
100
AcDbEntity
  8
0
100
AcDbLine
 10
1325.65
 20
675.0
 30
0.0
 11
1326.01
 21
676.823
 31
0.0
  0
LINE
  5
244
330
17
100
AcDbEntity
  8
0
100
AcDbLine
 10
1326.01
 20
676.823
 30
0.0
 11
1327.04
 21
678.368
 31
0.0
  0
LINE
  5
245
330
17
100
AcDbEntity
  8
0
100
AcDbLine
 10
1327.04
 20
678.368
 30
0.0
 11
1328.59
 21
679.4
 31
0.0
  0
LINE
  5
246
330
17
100
AcDbEntity
  8
0
100
AcDbLine
 10
1328.59
 20
679.4
 30
0.0
 11
1330.41
 21
679.762
 31
0.0
  0
LINE
  5
247
330
17
100
AcDbEntity
  8
0
100
AcDbLine
 10
1330.41
 20
679.762
 30
0.0
 11
1332.23
 21
679.4
 31
0.0
  0
LINE
  5
248
330
17
100
AcDbEntity
  8
0
100
AcDbLine
 10
1332.23
 20
679.4
 30
0.0
 11
1333.78
 21
678.368
 31
0.0
  0
LINE
  5
249
330
17
100
AcDbEntity
  8
0
100
AcDbLine
 10
1333.78
 20
678.368
 30
0.0
 11
1334.81
 21
676.823
 31
0.0
  0
LINE
  5
24A
330
17
100
AcDbEntity
  8
0
100
AcDbLine
 10
1334.81
 20
676.823
 30
0.0
 11
1335.17
 21
675.0
 31
0.0
  0
LINE
  5
24B
330
17
100
AcDbEntity
  8
0
100
AcDbLine
 10
1335.17
 20
675.0
 30
0.0
 11
1334.81
 21
673.177
 31
0.0
  0
LINE
  5
24C
330
17
100
AcDbEntity
  8
0
100
AcDbLine
 10
1334.81
 20
673.177
 30
0.0
 11
1333.78
 21
671.632
 31
0.0
  0
LINE
  5
24D
330
17
100
AcDbEntity
  8
0
100
AcDbLine
 10
1333.78
 20
671.632
 30
0.0
 11
1332.23
 21
670.6
 31
0.0
  0
LINE
  5
24E
330
17
100
AcDbEntity
  8
0
100
AcDbLine
 10
1332.23
 20
670.6
 30
0.0
 11
1330.41
 21
670.237
 31
0.0
  0
LINE
  5
24F
330
17
100
AcDbEntity
  8
0
100
AcDbLine
 10
1330.41
 20
670.237
 30
0.0
 11
1328.59
 21
670.6
 31
0.0
  0
LINE
  5
250
330
17
100
AcDbEntity
  8
0
100
AcDbLine
 10
1328.59
 20
670.6
 30
0.0
 11
1327.04
 21
671.632
 31
0.0
  0
LINE
  5
251
330
17
100
AcDbEntity
  8
0
100
AcDbLine
 10
1327.04
 20
671.632
 30
0.0
 11
1326.01
 21
673.177
 31
0.0
  0
LINE
  5
252
330
17
100
AcDbEntity
  8
0
100
AcDbLine
 10
1326.01
 20
673.177
 30
0.0
 11
1325.65
 21
675.0
 31
0.0
  0
LINE
  5
253
330
17
100
AcDbEntity
  8
0
100
AcDbLine
 10
1325.65
 20
805.0
 30
0.0
 11
1326.01
 21
806.823
 31
0.0
  0
LINE
  5
254
330
17
100
AcDbEntity
  8
0
100
AcDbLine
 10
1326.01
 20
806.823
 30
0.0
 11
1327.04
 21
808.368
 31
0.0
  0
LINE
  5
255
330
17
100
AcDbEntity
  8
0
100
AcDbLine
 10
1327.04
 20
808.368
 30
0.0
 11
1328.59
 21
809.4
 31
0.0
  0
LINE
  5
256
330
17
100
AcDbEntity
  8
0
100
AcDbLine
 10
1328.59
 20
809.4
 30
0.0
 11
1330.41
 21
809.762
 31
0.0
  0
LINE
  5
257
330
17
100
AcDbEntity
  8
0
100
AcDbLine
 10
1330.41
 20
809.762
 30
0.0
 11
1332.23
 21
809.4
 31
0.0
  0
LINE
  5
258
330
17
100
AcDbEntity
  8
0
100
AcDbLine
 10
1332.23
 20
809.4
 30
0.0
 11
1333.78
 21
808.368
 31
0.0
  0
LINE
  5
259
330
17
100
AcDbEntity
  8
0
100
AcDbLine
 10
1333.78
 20
808.368
 30
0.0
 11
1334.81
 21
806.823
 31
0.0
  0
LINE
  5
25A
330
17
100
AcDbEntity
  8
0
100
AcDbLine
 10
1334.81
 20
806.823
 30
0.0
 11
1335.17
 21
805.0
 31
0.0
  0
LINE
  5
25B
330
17
100
AcDbEntity
  8
0
100
AcDbLine
 10
1335.17
 20
805.0
 30
0.0
 11
1334.81
 21
803.177
 31
0.0
  0
LINE
  5
25C
330
17
100
AcDbEntity
  8
0
100
AcDbLine
 10
1334.81
 20
803.177
 30
0.0
 11
1333.78
 21
801.632
 31
0.0
  0
LINE
  5
25D
330
17
100
AcDbEntity
  8
0
100
AcDbLine
 10
1333.78
 20
801.632
 30
0.0
 11
1332.23
 21
800.6
 31
0.0
  0
LINE
  5
25E
330
17
100
AcDbEntity
  8
0
100
AcDbLine
 10
1332.23
 20
800.6
 30
0.0
 11
1330.41
 21
800.237
 31
0.0
  0
LINE
  5
25F
330
17
100
AcDbEntity
  8
0
100
AcDbLine
 10
1330.41
 20
800.237
 30
0.0
 11
1328.59
 21
800.6
 31
0.0
  0
LINE
  5
260
330
17
100
AcDbEntity
  8
0
100
AcDbLine
 10
1328.59
 20
800.6
 30
0.0
 11
1327.04
 21
801.632
 31
0.0
  0
LINE
  5
261
330
17
100
AcDbEntity
  8
0
100
AcDbLine
 10
1327.04
 20
801.632
 30
0.0
 11
1326.01
 21
803.177
 31
0.0
  0
LINE
  5
262
330
17
100
AcDbEntity
  8
0
100
AcDbLine
 10
1326.01
 20
803.177
 30
0.0
 11
1325.65
 21
805.0
 31
0.0
  0
LINE
  5
263
330
17
100
AcDbEntity
  8
0
100
AcDbLine
 10
1328.94
 20
450.0
 30
0.0
 11
1329.2
 21
452.673
 31
0.0
  0
LINE
  5
264
330
17
100
AcDbEntity
  8
0
100
AcDbLine
 10
1329.2
 20
452.673
 30
0.0
 11
1329.98
 21
455.243
 31
0.0
  0
LINE
  5
265
330
17
100
AcDbEntity
  8
0
100
AcDbLine
 10
1329.98
 20
455.243
 30
0.0
 11
1331.25
 21
457.611
 31
0.0
  0
LINE
  5
266
330
17
100
AcDbEntity
  8
0
100
AcDbLine
 10
1331.25
 20
457.611
 30
0.0
 11
1332.95
 21
459.687
 31
0.0
  0
LINE
  5
267
330
17
100
AcDbEntity
  8
0
100
AcDbLine
 10
1332.95
 20
459.687
 30
0.0
 11
1335.03
 21
461.391
 31
0.0
  0
LINE
  5
268
330
17
100
AcDbEntity
  8
0
100
AcDbLine
 10
1335.03
 20
461.391
 30
0.0
 11
1337.4
 21
462.657
 31
0.0
  0
LINE
  5
269
330
17
100
AcDbEntity
  8
0
100
AcDbLine
 10
1337.4
 20
462.657
 30
0.0
 11
1339.97
 21
463.437
 31
0.0
  0
LINE
  5
26A
330
17
100
AcDbEntity
  8
0
100
AcDbLine
 10
1339.97
 20
463.437
 30
0.0
 11
1342.64
 21
463.7
 31
0.0
  0
LINE
  5
26B
330
17
100
AcDbEntity
  8
0
100
AcDbLine
 10
1342.64
 20
463.7
 30
0.0
 11
1345.31
 21
463.437
 31
0.0
  0
LINE
  5
26C
330
17
100
AcDbEntity
  8
0
100
AcDbLine
 10
1345.31
 20
463.437
 30
0.0
 11
1347.88
 21
462.657
 31
0.0
  0
LINE
  5
26D
330
17
100
AcDbEntity
  8
0
100
AcDbLine
 10
1347.88
 20
462.657
 30
0.0
 11
1350.25
 21
461.391
 31
0.0
  0
LINE
  5
26E
330
17
100
AcDbEntity
  8
0
100
AcDbLine
 10
1350.25
 20
461.391
 30
0.0
 11
1352.33
 21
459.687
 31
0.0
  0
LINE
  5
26F
330
17
100
AcDbEntity
  8
0
100
AcDbLine
 10
1352.33
 20
459.687
 30
0.0
 11
1354.03
 21
457.611
 31
0.0
  0
LINE
  5
270
330
17
100
AcDbEntity
  8
0
100
AcDbLine
 10
1354.03
 20
457.611
 30
0.0
 11
1355.3
 21
455.243
 31
0.0
  0
LINE
  5
271
330
17
100
AcDbEntity
  8
0
100
AcDbLine
 10
1355.3
 20
455.243
 30
0.0
 11
1356.08
 21
452.673
 31
0.0
  0
LINE
  5
272
330
17
100
AcDbEntity
  8
0
100
AcDbLine
 10
1356.08
 20
452.673
 30
0.0
 11
1356.34
 21
450.0
 31
0.0
  0
LINE
  5
273
330
17
100
AcDbEntity
  8
0
100
AcDbLine
 10
1356.34
 20
450.0
 30
0.0
 11
1356.08
 21
447.327
 31
0.0
  0
LINE
  5
274
330
17
100
AcDbEntity
  8
0
100
AcDbLine
 10
1356.08
 20
447.327
 30
0.0
 11
1355.3
 21
444.757
 31
0.0
  0
LINE
  5
275
330
17
100
AcDbEntity
  8
0
100
AcDbLine
 10
1355.3
 20
444.757
 30
0.0
 11
1354.03
 21
442.389
 31
0.0
  0
LINE
  5
276
330
17
100
AcDbEntity
  8
0
100
AcDbLine
 10
1354.03
 20
442.389
 30
0.0
 11
1352.33
 21
440.313
 31
0.0
  0
LINE
  5
277
330
17
100
AcDbEntity
  8
0
100
AcDbLine
 10
1352.33
 20
440.313
 30
0.0
 11
1350.25
 21
438.609
 31
0.0
  0
LINE
  5
278
330
17
100
AcDbEntity
  8
0
100
AcDbLine
 10
1350.25
 20
438.609
 30
0.0
 11
1347.88
 21
437.343
 31
0.0
  0
LINE
  5
279
330
17
100
AcDbEntity
  8
0
100
AcDbLine
 10
1347.88
 20
437.343
 30
0.0
 11
1345.31
 21
436.563
 31
0.0
  0
LINE
  5
27A
330
17
100
AcDbEntity
  8
0
100
AcDbLine
 10
1345.31
 20
436.563
 30
0.0
 11
1342.64
 21
436.3
 31
0.0
  0
LINE
  5
27B
330
17
100
AcDbEntity
  8
0
100
AcDbLine
 10
1342.64
 20
436.3
 30
0.0
 11
1339.97
 21
436.563
 31
0.0
  0
LINE
  5
27C
330
17
100
AcDbEntity
  8
0
100
AcDbLine
 10
1339.97
 20
436.563
 30
0.0
 11
1337.4
 21
437.343
 31
0.0
  0
LINE
  5
27D
330
17
100
AcDbEntity
  8
0
100
AcDbLine
 10
1337.4
 20
437.343
 30
0.0
 11
1335.03
 21
438.609
 31
0.0
  0
LINE
  5
27E
330
17
100
AcDbEntity
  8
0
100
AcDbLine
 10
1335.03
 20
438.609
 30
0.0
 11
1332.95
 21
440.313
 31
0.0
  0
LINE
  5
27F
330
17
100
AcDbEntity
  8
0
100
AcDbLine
 10
1332.95
 20
440.313
 30
0.0
 11
1331.25
 21
442.389
 31
0.0
  0
LINE
  5
280
330
17
100
AcDbEntity
  8
0
100
AcDbLine
 10
1331.25
 20
442.389
 30
0.0
 11
1329.98
 21
444.757
 31
0.0
  0
LINE
  5
281
330
17
100
AcDbEntity
  8
0
100
AcDbLine
 10
1329.98
 20
444.757
 30
0.0
 11
1329.2
 21
447.327
 31
0.0
  0
LINE
  5
282
330
17
100
AcDbEntity
  8
0
100
AcDbLine
 10
1329.2
 20
447.327
 30
0.0
 11
1328.94
 21
450.0
 31
0.0
  0
ENDSEC
  0
SECTION
  2
OBJECTS
  0
DICTIONARY
  5
A
330
0
100
AcDbDictionary
281
1
  3
ACAD_COLOR
350
B
  3
ACAD_GROUP
350
C
  3
ACAD_LAYOUT
350
D
  3
ACAD_MATERIAL
350
E
  3
ACAD_MLEADERSTYLE
350
F
  3
ACAD_MLINESTYLE
350
10
  3
ACAD_PLOTSETTINGS
350
11
  3
ACAD_PLOTSTYLENAME
350
12
  3
ACAD_SCALELIST
350
14
  3
ACAD_TABLESTYLE
350
15
  3
ACAD_VISUALSTYLE
350
16
  3
EZDXF_META
350
2D
  0
DICTIONARY
  5
B
330
A
100
AcDbDictionary
281
1
  0
DICTIONARY
  5
C
330
A
100
AcDbDictionary
281
1
  0
DICTIONARY
  5
D
330
A
100
AcDbDictionary
281
1
  3
Model
350
1A
  3
Layout1
350
1E
  0
DICTIONARY
  5
E
330
A
100
AcDbDictionary
281
1
  3
ByBlock
350
1F
  3
ByLayer
350
20
  3
Global
350
21
  0
DICTIONARY
  5
F
330
A
100
AcDbDictionary
281
1
  3
Standard
350
2C
  0
DICTIONARY
  5
10
330
A
100
AcDbDictionary
281
1
  3
Standard
350
22
  0
DICTIONARY
  5
11
330
A
100
AcDbDictionary
281
1
  0
ACDBDICTIONARYWDFLT
  5
12
330
A
100
AcDbDictionary
281
1
  3
Normal
350
13
100
AcDbDictionaryWithDefault
340
13
  0
ACDBPLACEHOLDER
  5
13
330
12
  0
DICTIONARY
  5
14
330
A
100
AcDbDictionary
281
1
  0
DICTIONARY
  5
15
330
A
100
AcDbDictionary
281
1
  0
DICTIONARY
  5
16
330
A
100
AcDbDictionary
281
1
  0
LAYOUT
  5
1A
330
D
100
AcDbPlotSettings
  1

  4
A3
  6

 40
7.5
 41
20.0
 42
7.5
 43
20.0
 44
420.0
 45
297.0
 46
0.0
 47
0.0
 48
0.0
 49
0.0
140
0.0
141
0.0
142
1.0
143
1.0
 70
1024
 72
1
 73
0
 74
5
  7

 75
16
 76
0
 77
2
 78
300
147
1.0
148
0.0
149
0.0
100
AcDbLayout
  1
Model
 70
1
 71
0
 10
0.0
 20
0.0
 11
420.0
 21
297.0
 12
0.0
 22
0.0
 32
0.0
 14
1e+20
 24
1e+20
 34
1e+20
 15
-1e+20
 25
-1e+20
 35
-1e+20
146
0.0
 13
0.0
 23
0.0
 33
0.0
 16
1.0
 26
0.0
 36
0.0
 17
0.0
 27
1.0
 37
0.0
 76
1
330
17
  0
LAYOUT
  5
1E
330
D
100
AcDbPlotSettings
  1

  4
A3
  6

 40
7.5
 41
20.0
 42
7.5
 43
20.0
 44
420.0
 45
297.0
 46
0.0
 47
0.0
 48
0.0
 49
0.0
140
0.0
141
0.0
142
1.0
143
1.0
 70
0
 72
1
 73
0
 74
5
  7

 75
16
 76
0
 77
2
 78
300
147
1.0
148
0.0
149
0.0
100
AcDbLayout
  1
Layout1
 70
1
 71
1
 10
0.0
 20
0.0
 11
420.0
 21
297.0
 12
0.0
 22
0.0
 32
0.0
 14
1e+20
 24
1e+20
 34
1e+20
 15
-1e+20
 25
-1e+20
 35
-1e+20
146
0.0
 13
0.0
 23
0.0
 33
0.0
 16
1.0
 26
0.0
 36
0.0
 17
0.0
 27
1.0
 37
0.0
 76
1
330
1B
  0
MATERIAL
  5
1F
102
{ACAD_REACTORS
330
E
102
}
330
E
100
AcDbMaterial
  1
ByBlock
  2

 70
0
 40
1.0
 71
1
 41
1.0
 91
-1023410177
 42
1.0
 72
1
  3

 73
1
 74
1
 75
1
 44
0.5
 73
0
 45
1.0
 46
1.0
 77
1
  4

 78
1
 79
1
170
1
 48
1.0
171
1
  6

172
1
173
1
174
1
140
1.0
141
1.0
175
1
  7

176
1
177
1
178
1
143
1.0
179
1
  8

270
1
271
1
272
1
145
1.0
146
1.0
273
1
  9

274
1
275
1
276
1
 42
1.0
 72
1
  3

 73
1
 74
1
 75
1
 94
63
  0
MATERIAL
  5
20
102
{ACAD_REACTORS
330
E
102
}
330
E
100
AcDbMaterial
  1
ByLayer
  2

 70
0
 40
1.0
 71
1
 41
1.0
 91
-1023410177
 42
1.0
 72
1
  3

 73
1
 74
1
 75
1
 44
0.5
 73
0
 45
1.0
 46
1.0
 77
1
  4

 78
1
 79
1
170
1
 48
1.0
171
1
  6

172
1
173
1
174
1
140
1.0
141
1.0
175
1
  7

176
1
177
1
178
1
143
1.0
179
1
  8

270
1
271
1
272
1
145
1.0
146
1.0
273
1
  9

274
1
275
1
276
1
 42
1.0
 72
1
  3

 73
1
 74
1
 75
1
 94
63
  0
MATERIAL
  5
21
102
{ACAD_REACTORS
330
E
102
}
330
E
100
AcDbMaterial
  1
Global
  2

 70
0
 40
1.0
 71
1
 41
1.0
 91
-1023410177
 42
1.0
 72
1
  3

 73
1
 74
1
 75
1
 44
0.5
 73
0
 45
1.0
 46
1.0
 77
1
  4

 78
1
 79
1
170
1
 48
1.0
171
1
  6

172
1
173
1
174
1
140
1.0
141
1.0
175
1
  7

176
1
177
1
178
1
143
1.0
179
1
  8

270
1
271
1
272
1
145
1.0
146
1.0
273
1
  9

274
1
275
1
276
1
 42
1.0
 72
1
  3

 73
1
 74
1
 75
1
 94
63
  0
MLINESTYLE
  5
22
102
{ACAD_REACTORS
330
10
102
}
330
10
100
AcDbMlineStyle
  2
Standard
 70
0
  3

 62
256
 51
90.0
 52
90.0
 71
2
 49
0.5
 62
256
  6
BYLAYER
 49
-0.5
 62
256
  6
BYLAYER
  0
MLEADERSTYLE
  5
2C
102
{ACAD_REACTORS
330
F
102
}
330
F
100
AcDbMLeaderStyle
179
2
170
2
171
1
172
0
 90
2
 40
0.0
 41
0.0
173
1
 91
-1056964608
 92
-2
290
1
 42
2.0
291
1
 43
8.0
  3
Standard
 44
4.0
300

342
29
174
1
175
1
176
0
178
1
 93
-1056964608
 45
4.0
292
0
297
0
 46
4.0
 94
-1056964608
 47
1.0
 49
1.0
140
1.0
294
1
141
0.0
177
0
142
1.0
295
0
296
0
143
3.75
271
0
272
9
273
9
  0
DICTIONARY
  5
2D
330
A
100
AcDbDictionary
280
1
281
1
  3
CREATED_BY_EZDXF
350
2E
  3
WRITTEN_BY_EZDXF
350
285
  0
DICTIONARYVAR
  5
2E
330
2D
100
DictionaryVariables
280
0
  1
0.0 @ 2000-01-01T00:00:00.000000+00:00
  0
DICTIONARYVAR
  5
285
330
2D
100
DictionaryVariables
280
0
  1
0.0 @ 2000-01-01T00:00:00.000000+00:00
  0
ENDSEC
  0
EOF
