  0
SECTION
  2
HEADER
  9
$ACADVER
  1
AC1009
  9
$INSUNITS
 70
4
  9
$MEASUREMENT
 70
1
  0
ENDSEC
  0
SECTION
  2
BLOCKS
  0
ENDSEC
  0
SECTION
  2
ENTITIES
  0
LINE
  8
0
 10
0.00140442
 20
10
 11
0.193558
 21
8.0491
  0
LINE
  8
0
 10
0.193558
 20
8.0491
 11
0.762604
 21
6.17317
  0
LINE
  8
0
 10
0.762604
 20
6.17317
 11
1.68671
 21
4.44429
  0
LINE
  8
0
 10
1.68671
 20
4.44429
 11
2.93033
 21
2.92892
  0
LINE
  8
0
 10
2.93033
 20
2.92892
 11
4.44569
 21
1.6853
  0
LINE
  8
0
 10
4.44569
 20
1.6853
 11
6.17458
 21
0.7612
  0
LINE
  8
0
 10
6.17458
 20
0.7612
 11
8.05051
 21
0.192154
  0
LINE
  8
0
 10
8.05051
 20
0.192154
 11
10.0014
 21
0
  0
LINE
  8
0
 10
10.0014
 20
0
 11
1382.64
 21
0
  0
LINE
  8
0
 10
1382.64
 20
0
 11
1384.59
 21
0.192154
  0
LINE
  8
0
 10
1384.59
 20
0.192154
 11
1386.47
 21
0.7612
  0
LINE
  8
0
 10
1386.47
 20
0.7612
 11
1388.2
 21
1.6853
  0
LINE
  8
0
 10
1388.2
 20
1.6853
 11
1389.71
 21
2.92892
  0
LINE
  8
0
 10
1389.71
 20
2.92892
 11
1390.95
 21
4.44429
  0
LINE
  8
0
 10
1390.95
 20
4.44429
 11
1391.88
 21
6.17317
  0
LINE
  8
0
 10
1391.88
 20
6.17317
 11
1392.45
 21
8.0491
  0
LINE
  8
0
 10
1392.45
 20
8.0491
 11
1392.64
 21
10
  0
LINE
  8
0
 10
1392.64
 20
10
 11
1392.64
 21
189.475
  0
LINE
  8
0
 10
1392.64
 20
189.475
 11
1390.59
 21
189.677
  0
LINE
  8
0
 10
1390.59
 20
189.677
 11
1388.61
 21
190.276
  0
LINE
  8
0
 10
1388.61
 20
190.276
 11
1386.79
 21
191.249
  0
LINE
  8
0
 10
1386.79
 20
191.249
 11
1385.2
 21
192.558
  0
LINE
  8
0
 10
1385.2
 20
192.558
 11
1383.89
 21
194.153
  0
LINE
  8
0
 10
1383.89
 20
194.153
 11
1382.92
 21
195.972
  0
LINE
  8
0
 10
1382.92
 20
195.972
 11
1382.32
 21
197.947
  0
LINE
  8
0
 10
1382.32
 20
197.947
 11
1382.12
 21
200
  0
LINE
  8
0
 10
1382.12
 20
200
 11
1382.32
 21
202.053
  0
LINE
  8
0
 10
1382.32
 20
202.053
 11
1382.92
 21
204.028
  0
LINE
  8
0
 10
1382.92
 20
204.028
 11
1383.89
 21
205.847
  0
LINE
  8
0
 10
1383.89
 20
205.847
 11
1385.2
 21
207.442
  0
LINE
  8
0
 10
1385.2
 20
207.442
 11
1386.79
 21
208.751
  0
LINE
  8
0
 10
1386.79
 20
208.751
 11
1388.61
 21
209.724
  0
LINE
  8
0
 10
1388.61
 20
209.724
 11
1390.59
 21
210.323
  0
LINE
  8
0
 10
1390.59
 20
210.323
 11
1392.64
 21
210.525
  0
LINE
  8
0
 10
1392.64
 20
210.525
 11
1392.64
 21
990
  0
LINE
  8
0
 10
1392.64
 20
990
 11
1392.45
 21
991.951
  0
LINE
  8
0
 10
1392.45
 20
991.951
 11
1391.88
 21
993.827
  0
LINE
  8
0
 10
1391.88
 20
993.827
 11
1390.95
 21
995.556
  0
LINE
  8
0
 10
1390.95
 20
995.556
 11
1389.71
 21
997.071
  0
LINE
  8
0
 10
1389.71
 20
997.071
 11
1388.2
 21
998.315
  0
LINE
  8
0
 10
1388.2
 20
998.315
 11
1386.47
 21
999.239
  0
LINE
  8
0
 10
1386.47
 20
999.239
 11
1384.59
 21
999.808
  0
LINE
  8
0
 10
1384.59
 20
999.808
 11
1382.64
 21
1000
  0
LINE
  8
0
 10
1382.64
 20
1000
 11
1198.56
 21
1000
  0
LINE
  8
0
 10
1198.56
 20
1000
 11
1195.76
 21
999.599
  0
LINE
  8
0
 10
1195.76
 20
999.599
 11
1193.94
 21
998.867
  0
LINE
  8
0
 10
1193.94
 20
998.867
 11
1192.3
 21
997.795
  0
LINE
  8
0
 10
1192.3
 20
997.795
 11
1190.9
 21
996.424
  0
LINE
  8
0
 10
1190.9
 20
996.424
 11
1189.79
 21
994.805
  0
LINE
  8
0
 10
1189.79
 20
994.805
 11
1092.87
 21
817.902
  0
LINE
  8
0
 10
1092.87
 20
817.902
 11
1092.61
 21
817.515
  0
LINE
  8
0
 10
1092.61
 20
817.515
 11
1092.21
 21
817.25
  0
LINE
  8
0
 10
1092.21
 20
817.25
 11
195.193
 21
346.124
  0
LINE
  8
0
 10
195.193
 20
346.124
 11
193.772
 21
345.217
  0
LINE
  8
0
 10
193.772
 20
345.217
 11
192.338
 21
343.879
  0
LINE
  8
0
 10
192.338
 20
343.879
 11
191.193
 21
342.288
  0
LINE
  8
0
 10
191.193
 20
342.288
 11
1.35138
 21
15.0177
  0
LINE
  8
0
 10
1.35138
 20
15.0177
 11
0.762604
 21
13.8268
  0
LINE
  8
0
 10
0.762604
 20
13.8268
 11
0.193558
 21
11.9509
  0
LINE
  8
0
 10
0.193558
 20
11.9509
 11
0.00140442
 21
10
  0
LINE
  8
0
 10
63.0775
 20
62.23
 11
63.44
 21
64.0525
  0
LINE
  8
0
 10
63.44
 20
64.0525
 11
64.4724
 21
65.5976
  0
LINE
  8
0
 10
64.4724
 20
65.5976
 11
66.0175
 21
66.63
  0
LINE
  8
0
 10
66.0175
 20
66.63
 11
67.84
 21
66.9925
  0
LINE
  8
0
 10
67.84
 20
66.9925
 11
69.6625
 21
66.63
  0
LINE
  8
0
 10
69.6625
 20
66.63
 11
71.2076
 21
65.5976
  0
LINE
  8
0
 10
71.2076
 20
65.5976
 11
72.24
 21
64.0525
  0
LINE
  8
0
 10
72.24
 20
64.0525
 11
72.6025
 21
62.23
  0
LINE
  8
0
 10
72.6025
 20
62.23
 11
72.24
 21
60.4075
  0
LINE
  8
0
 10
72.24
 20
60.4075
 11
71.2076
 21
58.8624
  0
LINE
  8
0
 10
71.2076
 20
58.8624
 11
69.6625
 21
57.83
  0
LINE
  8
0
 10
69.6625
 20
57.83
 11
67.84
 21
57.4675
  0
LINE
  8
0
 10
67.84
 20
57.4675
 11
66.0175
 21
57.83
  0
LINE
  8
0
 10
66.0175
 20
57.83
 11
64.4724
 21
58.8624
  0
LINE
  8
0
 10
64.4724
 20
58.8624
 11
63.44
 21
60.4075
  0
LINE
  8
0
 10
63.44
 20
60.4075
 11
63.0775
 21
62.23
  0
LINE
  8
0
 10
111.878
 20
62.23
 11
112.24
 21
64.0525
  0
LINE
  8
0
 10
112.24
 20
64.0525
 11
113.272
 21
65.5976
  0
LINE
  8
0
 10
113.272
 20
65.5976
 11
114.817
 21
66.63
  0
LINE
  8
0
 10
114.817
 20
66.63
 11
116.64
 21
66.9925
  0
LINE
  8
0
 10
116.64
 20
66.9925
 11
118.463
 21
66.63
  0
LINE
  8
0
 10
118.463
 20
66.63
 11
120.008
 21
65.5976
  0
LINE
  8
0
 10
120.008
 20
65.5976
 11
121.04
 21
64.0525
  0
LINE
  8
0
 10
121.04
 20
64.0525
 11
121.403
 21
62.23
  0
LINE
  8
0
 10
121.403
 20
62.23
 11
121.04
 21
60.4075
  0
LINE
  8
0
 10
121.04
 20
60.4075
 11
120.008
 21
58.8624
  0
LINE
  8
0
 10
120.008
 20
58.8624
 11
118.463
 21
57.83
  0
LINE
  8
0
 10
118.463
 20
57.83
 11
116.64
 21
57.4675
  0
LINE
  8
0
 10
116.64
 20
57.4675
 11
114.817
 21
57.83
  0
LINE
  8
0
 10
114.817
 20
57.83
 11
113.272
 21
58.8624
  0
LINE
  8
0
 10
113.272
 20
58.8624
 11
112.24
 21
60.4075
  0
LINE
  8
0
 10
112.24
 20
60.4075
 11
111.878
 21
62.23
  0
LINE
  8
0
 10
180.701
 20
103.161
 11
181.184
 21
105.591
  0
LINE
  8
0
 10
181.184
 20
105.591
 11
182.561
 21
107.651
  0
LINE
  8
0
 10
182.561
 20
107.651
 11
184.621
 21
109.027
  0
LINE
  8
0
 10
184.621
 20
109.027
 11
187.051
 21
109.511
  0
LINE
  8
0
 10
187.051
 20
109.511
 11
189.481
 21
109.027
  0
LINE
  8
0
 10
189.481
 20
109.027
 11
191.541
 21
107.651
  0
LINE
  8
0
 10
191.541
 20
107.651
 11
192.917
 21
105.591
  0
LINE
  8
0
 10
192.917
 20
105.591
 11
193.401
 21
103.161
  0
LINE
  8
0
 10
193.401
 20
103.161
 11
192.917
 21
100.731
  0
LINE
  8
0
 10
192.917
 20
100.731
 11
191.541
 21
98.6707
  0
LINE
  8
0
 10
191.541
 20
98.6707
 11
189.481
 21
97.2942
  0
LINE
  8
0
 10
189.481
 20
97.2942
 11
187.051
 21
96.8108
  0
LINE
  8
0
 10
187.051
 20
96.8108
 11
184.621
 21
97.2942
  0
LINE
  8
0
 10
184.621
 20
97.2942
 11
182.561
 21
98.6707
  0
LINE
  8
0
 10
182.561
 20
98.6707
 11
181.184
 21
100.731
  0
LINE
  8
0
 10
181.184
 20
100.731
 11
180.701
 21
103.161
  0
LINE
  8
0
 10
180.701
 20
214.339
 11
181.184
 21
216.769
  0
LINE
  8
0
 10
181.184
 20
216.769
 11
182.561
 21
218.829
  0
LINE
  8
0
 10
182.561
 20
218.829
 11
184.621
 21
220.206
  0
LINE
  8
0
 10
184.621
 20
220.206
 11
187.051
 21
220.689
  0
LINE
  8
0
 10
187.051
 20
220.689
 11
189.481
 21
220.206
  0
LINE
  8
0
 10
189.481
 20
220.206
 11
191.541
 21
218.829
  0
LINE
  8
0
 10
191.541
 20
218.829
 11
192.917
 21
216.769
  0
LINE
  8
0
 10
192.917
 20
216.769
 11
193.401
 21
214.339
  0
LINE
  8
0
 10
193.401
 20
214.339
 11
192.917
 21
211.909
  0
LINE
  8
0
 10
192.917
 20
211.909
 11
191.541
 21
209.849
  0
LINE
  8
0
 10
191.541
 20
209.849
 11
189.481
 21
208.473
  0
LINE
  8
0
 10
189.481
 20
208.473
 11
187.051
 21
207.989
  0
LINE
  8
0
 10
187.051
 20
207.989
 11
184.621
 21
208.473
  0
LINE
  8
0
 10
184.621
 20
208.473
 11
182.561
 21
209.849
  0
LINE
  8
0
 10
182.561
 20
209.849
 11
181.184
 21
211.909
  0
LINE
  8
0
 10
181.184
 20
211.909
 11
180.701
 21
214.339
  0
LINE
  8
0
 10
217.24
 20
158.75
 11
217.728
 21
163.705
  0
LINE
  8
0
 10
217.728
 20
163.705
 11
219.173
 21
168.47
  0
LINE
  8
0
 10
219.173
 20
168.47
 11
221.521
 21
172.861
  0
LINE
  8
0
 10
221.521
 20
172.861
 11
224.679
 21
176.711
  0
LINE
  8
0
 10
224.679
 20
176.711
 11
228.529
 21
179.869
  0
LINE
  8
0
 10
228.529
 20
179.869
 11
232.92
 21
182.217
  0
LINE
  8
0
 10
232.92
 20
182.217
 11
237.685
 21
183.662
  0
LINE
  8
0
 10
237.685
 20
183.662
 11
242.64
 21
184.15
  0
LINE
  8
0
 10
242.64
 20
184.15
 11
247.595
 21
183.662
  0
LINE
  8
0
 10
247.595
 20
183.662
 11
252.36
 21
182.217
  0
LINE
  8
0
 10
252.36
 20
182.217
 11
256.751
 21
179.869
  0
LINE
  8
0
 10
256.751
 20
179.869
 11
260.601
 21
176.711
  0
LINE
  8
0
 10
260.601
 20
176.711
 11
263.759
 21
172.861
  0
LINE
  8
0
 10
263.759
 20
172.861
 11
266.107
 21
168.47
  0
LINE
  8
0
 10
266.107
 20
168.47
 11
267.552
 21
163.705
  0
LINE
  8
0
 10
267.552
 20
163.705
 11
268.04
 21
158.75
  0
LINE
  8
0
 10
268.04
 20
158.75
 11
267.552
 21
153.795
  0
LINE
  8
0
 10
267.552
 20
153.795
 11
266.107
 21
149.03
  0
LINE
  8
0
 10
266.107
 20
149.03
 11
263.759
 21
144.639
  0
LINE
  8
0
 10
263.759
 20
144.639
 11
260.601
 21
140.789
  0
LINE
  8
0
 10
260.601
 20
140.789
 11
256.751
 21
137.631
  0
LINE
  8
0
 10
256.751
 20
137.631
 11
252.36
 21
135.283
  0
LINE
  8
0
 10
252.36
 20
135.283
 11
247.595
 21
133.838
  0
LINE
  8
0
 10
247.595
 20
133.838
 11
242.64
 21
133.35
  0
LINE
  8
0
 10
242.64
 20
133.35
 11
237.685
 21
133.838
  0
LINE
  8
0
 10
237.685
 20
133.838
 11
232.92
 21
135.283
  0
LINE
  8
0
 10
232.92
 20
135.283
 11
228.529
 21
137.631
  0
LINE
  8
0
 10
228.529
 20
137.631
 11
224.679
 21
140.789
  0
LINE
  8
0
 10
224.679
 20
140.789
 11
221.521
 21
144.639
  0
LINE
  8
0
 10
221.521
 20
144.639
 11
219.173
 21
149.03
  0
LINE
  8
0
 10
219.173
 20
149.03
 11
217.728
 21
153.795
  0
LINE
  8
0
 10
217.728
 20
153.795
 11
217.24
 21
158.75
  0
LINE
  8
0
 10
291.879
 20
103.161
 11
292.363
 21
105.591
  0
LINE
  8
0
 10
292.363
 20
105.591
 11
293.739
 21
107.651
  0
LINE
  8
0
 10
293.739
 20
107.651
 11
295.799
 21
109.027
  0
LINE
  8
0
 10
295.799
 20
109.027
 11
298.229
 21
109.511
  0
LINE
  8
0
 10
298.229
 20
109.511
 11
300.659
 21
109.027
  0
LINE
  8
0
 10
300.659
 20
109.027
 11
302.719
 21
107.651
  0
LINE
  8
0
 10
302.719
 20
107.651
 11
304.096
 21
105.591
  0
LINE
  8
0
 10
304.096
 20
105.591
 11
304.579
 21
103.161
  0
LINE
  8
0
 10
304.579
 20
103.161
 11
304.096
 21
100.731
  0
LINE
  8
0
 10
304.096
 20
100.731
 11
302.719
 21
98.6707
  0
LINE
  8
0
 10
302.719
 20
98.6707
 11
300.659
 21
97.2942
  0
LINE
  8
0
 10
300.659
 20
97.2942
 11
298.229
 21
96.8108
  0
LINE
  8
0
 10
298.229
 20
96.8108
 11
295.799
 21
97.2942
  0
LINE
  8
0
 10
295.799
 20
97.2942
 11
293.739
 21
98.6707
  0
LINE
  8
0
 10
293.739
 20
98.6707
 11
292.363
 21
100.731
  0
LINE
  8
0
 10
292.363
 20
100.731
 11
291.879
 21
103.161
  0
LINE
  8
0
 10
291.879
 20
214.339
 11
292.363
 21
216.769
  0
LINE
  8
0
 10
292.363
 20
216.769
 11
293.739
 21
218.829
  0
LINE
  8
0
 10
293.739
 20
218.829
 11
295.799
 21
220.206
  0
LINE
  8
0
 10
295.799
 20
220.206
 11
298.229
 21
220.689
  0
LINE
  8
0
 10
298.229
 20
220.689
 11
300.659
 21
220.206
  0
LINE
  8
0
 10
300.659
 20
220.206
 11
302.719
 21
218.829
  0
LINE
  8
0
 10
302.719
 20
218.829
 11
304.096
 21
216.769
  0
LINE
  8
0
 10
304.096
 20
216.769
 11
304.579
 21
214.339
  0
LINE
  8
0
 10
304.579
 20
214.339
 11
304.096
 21
211.909
  0
LINE
  8
0
 10
304.096
 20
211.909
 11
302.719
 21
209.849
  0
LINE
  8
0
 10
302.719
 20
209.849
 11
300.659
 21
208.473
  0
LINE
  8
0
 10
300.659
 20
208.473
 11
298.229
 21
207.989
  0
LINE
  8
0
 10
298.229
 20
207.989
 11
295.799
 21
208.473
  0
LINE
  8
0
 10
295.799
 20
208.473
 11
293.739
 21
209.849
  0
LINE
  8
0
 10
293.739
 20
209.849
 11
292.363
 21
211.909
  0
LINE
  8
0
 10
292.363
 20
211.909
 11
291.879
 21
214.339
  0
LINE
  8
0
 10
395.04
 20
85.725
 11
395.04
 21
231.775
  0
LINE
  8
0
 10
395.04
 20
231.775
 11
395.101
 21
232.394
  0
LINE
  8
0
 10
395.101
 20
232.394
 11
395.282
 21
232.99
  0
LINE
  8
0
 10
395.282
 20
232.99
 11
395.575
 21
233.539
  0
LINE
  8
0
 10
395.575
 20
233.539
 11
395.97
 21
234.02
  0
LINE
  8
0
 10
395.97
 20
234.02
 11
396.451
 21
234.415
  0
LINE
  8
0
 10
396.451
 20
234.415
 11
397
 21
234.708
  0
LINE
  8
0
 10
397
 20
234.708
 11
397.596
 21
234.889
  0
LINE
  8
0
 10
397.596
 20
234.889
 11
398.215
 21
234.95
  0
LINE
  8
0
 10
398.215
 20
234.95
 11
442.665
 21
234.95
  0
LINE
  8
0
 10
442.665
 20
234.95
 11
443.284
 21
234.889
  0
LINE
  8
0
 10
443.284
 20
234.889
 11
443.88
 21
234.708
  0
LINE
  8
0
 10
443.88
 20
234.708
 11
444.429
 21
234.415
  0
LINE
  8
0
 10
444.429
 20
234.415
 11
444.91
 21
234.02
  0
LINE
  8
0
 10
444.91
 20
234.02
 11
445.305
 21
233.539
  0
LINE
  8
0
 10
445.305
 20
233.539
 11
445.598
 21
232.99
  0
LINE
  8
0
 10
445.598
 20
232.99
 11
445.779
 21
232.394
  0
LINE
  8
0
 10
445.779
 20
232.394
 11
445.84
 21
231.775
  0
LINE
  8
0
 10
445.84
 20
231.775
 11
445.84
 21
85.725
  0
LINE
  8
0
 10
445.84
 20
85.725
 11
445.779
 21
85.1056
  0
LINE
  8
0
 10
445.779
 20
85.1056
 11
445.598
 21
84.51
  0
LINE
  8
0
 10
445.598
 20
84.51
 11
445.305
 21
83.9611
  0
LINE
  8
0
 10
445.305
 20
83.9611
 11
444.91
 21
83.4799
  0
LINE
  8
0
 10
444.91
 20
83.4799
 11
444.429
 21
83.0851
  0
LINE
  8
0
 10
444.429
 20
83.0851
 11
443.88
 21
82.7917
  0
LINE
  8
0
 10
443.88
 20
82.7917
 11
443.284
 21
82.611
  0
LINE
  8
0
 10
443.284
 20
82.611
 11
442.665
 21
82.55
  0
LINE
  8
0
 10
442.665
 20
82.55
 11
398.215
 21
82.55
  0
LINE
  8
0
 10
398.215
 20
82.55
 11
397.596
 21
82.611
  0
LINE
  8
0
 10
397.596
 20
82.611
 11
397
 21
82.7917
  0
LINE
  8
0
 10
397
 20
82.7917
 11
396.451
 21
83.0851
  0
LINE
  8
0
 10
396.451
 20
83.0851
 11
395.97
 21
83.4799
  0
LINE
  8
0
 10
395.97
 20
83.4799
 11
395.575
 21
83.9611
  0
LINE
  8
0
 10
395.575
 20
83.9611
 11
395.282
 21
84.51
  0
LINE
  8
0
 10
395.282
 20
84.51
 11
395.101
 21
85.1056
  0
LINE
  8
0
 10
395.101
 20
85.1056
 11
395.04
 21
85.725
  0
LINE
  8
0
 10
503.518
 20
62.23
 11
503.88
 21
64.0525
  0
LINE
  8
0
 10
503.88
 20
64.0525
 11
504.912
 21
65.5976
  0
LINE
  8
0
 10
504.912
 20
65.5976
 11
506.457
 21
66.63
  0
LINE
  8
0
 10
506.457
 20
66.63
 11
508.28
 21
66.9925
  0
LINE
  8
0
 10
508.28
 20
66.9925
 11
510.103
 21
66.63
  0
LINE
  8
0
 10
510.103
 20
66.63
 11
511.648
 21
65.5976
  0
LINE
  8
0
 10
511.648
 20
65.5976
 11
512.68
 21
64.0525
  0
LINE
  8
0
 10
512.68
 20
64.0525
 11
513.043
 21
62.23
  0
LINE
  8
0
 10
513.043
 20
62.23
 11
512.68
 21
60.4075
  0
LINE
  8
0
 10
512.68
 20
60.4075
 11
511.648
 21
58.8624
  0
LINE
  8
0
 10
511.648
 20
58.8624
 11
510.103
 21
57.83
  0
LINE
  8
0
 10
510.103
 20
57.83
 11
508.28
 21
57.4675
  0
LINE
  8
0
 10
508.28
 20
57.4675
 11
506.457
 21
57.83
  0
LINE
  8
0
 10
506.457
 20
57.83
 11
504.912
 21
58.8624
  0
LINE
  8
0
 10
504.912
 20
58.8624
 11
503.88
 21
60.4075
  0
LINE
  8
0
 10
503.88
 20
60.4075
 11
503.518
 21
62.23
  0
LINE
  8
0
 10
612.878
 20
62.23
 11
613.24
 21
64.0525
  0
LINE
  8
0
 10
613.24
 20
64.0525
 11
614.272
 21
65.5976
  0
LINE
  8
0
 10
614.272
 20
65.5976
 11
615.817
 21
66.63
  0
LINE
  8
0
 10
615.817
 20
66.63
 11
617.64
 21
66.9925
  0
LINE
  8
0
 10
617.64
 20
66.9925
 11
619.463
 21
66.63
  0
LINE
  8
0
 10
619.463
 20
66.63
 11
621.008
 21
65.5976
  0
LINE
  8
0
 10
621.008
 20
65.5976
 11
622.04
 21
64.0525
  0
LINE
  8
0
 10
622.04
 20
64.0525
 11
622.403
 21
62.23
  0
LINE
  8
0
 10
622.403
 20
62.23
 11
622.04
 21
60.4075
  0
LINE
  8
0
 10
622.04
 20
60.4075
 11
621.008
 21
58.8624
  0
LINE
  8
0
 10
621.008
 20
58.8624
 11
619.463
 21
57.83
  0
LINE
  8
0
 10
619.463
 20
57.83
 11
617.64
 21
57.4675
  0
LINE
  8
0
 10
617.64
 20
57.4675
 11
615.817
 21
57.83
  0
LINE
  8
0
 10
615.817
 20
57.83
 11
614.272
 21
58.8624
  0
LINE
  8
0
 10
614.272
 20
58.8624
 11
613.24
 21
60.4075
  0
LINE
  8
0
 10
613.24
 20
60.4075
 11
612.878
 21
62.23
  0
LINE
  8
0
 10
722.238
 20
62.23
 11
722.6
 21
64.0525
  0
LINE
  8
0
 10
722.6
 20
64.0525
 11
723.632
 21
65.5976
  0
LINE
  8
0
 10
723.632
 20
65.5976
 11
725.177
 21
66.63
  0
LINE
  8
0
 10
725.177
 20
66.63
 11
727
 21
66.9925
  0
LINE
  8
0
 10
727
 20
66.9925
 11
728.823
 21
66.63
  0
LINE
  8
0
 10
728.823
 20
66.63
 11
730.368
 21
65.5976
  0
LINE
  8
0
 10
730.368
 20
65.5976
 11
731.4
 21
64.0525
  0
LINE
  8
0
 10
731.4
 20
64.0525
 11
731.763
 21
62.23
  0
LINE
  8
0
 10
731.763
 20
62.23
 11
731.4
 21
60.4075
  0
LINE
  8
0
 10
731.4
 20
60.4075
 11
730.368
 21
58.8624
  0
LINE
  8
0
 10
730.368
 20
58.8624
 11
728.823
 21
57.83
  0
LINE
  8
0
 10
728.823
 20
57.83
 11
727
 21
57.4675
  0
LINE
  8
0
 10
727
 20
57.4675
 11
725.177
 21
57.83
  0
LINE
  8
0
 10
725.177
 20
57.83
 11
723.632
 21
58.8624
  0
LINE
  8
0
 10
723.632
 20
58.8624
 11
722.6
 21
60.4075
  0
LINE
  8
0
 10
722.6
 20
60.4075
 11
722.238
 21
62.23
  0
LINE
  8
0
 10
789.44
 20
85.725
 11
789.44
 21
231.775
  0
LINE
  8
0
 10
789.44
 20
231.775
 11
789.501
 21
232.394
  0
LINE
  8
0
 10
789.501
 20
232.394
 11
789.682
 21
232.99
  0
LINE
  8
0
 10
789.682
 20
232.99
 11
789.975
 21
233.539
  0
LINE
  8
0
 10
789.975
 20
233.539
 11
790.37
 21
234.02
  0
LINE
  8
0
 10
790.37
 20
234.02
 11
790.851
 21
234.415
  0
LINE
  8
0
 10
790.851
 20
234.415
 11
791.4
 21
234.708
  0
LINE
  8
0
 10
791.4
 20
234.708
 11
791.996
 21
234.889
  0
LINE
  8
0
 10
791.996
 20
234.889
 11
792.615
 21
234.95
  0
LINE
  8
0
 10
792.615
 20
234.95
 11
837.065
 21
234.95
  0
LINE
  8
0
 10
837.065
 20
234.95
 11
837.684
 21
234.889
  0
LINE
  8
0
 10
837.684
 20
234.889
 11
838.28
 21
234.708
  0
LINE
  8
0
 10
838.28
 20
234.708
 11
838.829
 21
234.415
  0
LINE
  8
0
 10
838.829
 20
234.415
 11
839.31
 21
234.02
  0
LINE
  8
0
 10
839.31
 20
234.02
 11
839.705
 21
233.539
  0
LINE
  8
0
 10
839.705
 20
233.539
 11
839.998
 21
232.99
  0
LINE
  8
0
 10
839.998
 20
232.99
 11
840.179
 21
232.394
  0
LINE
  8
0
 10
840.179
 20
232.394
 11
840.24
 21
231.775
  0
LINE
  8
0
 10
840.24
 20
231.775
 11
840.24
 21
85.725
  0
LINE
  8
0
 10
840.24
 20
85.725
 11
840.179
 21
85.1056
  0
LINE
  8
0
 10
840.179
 20
85.1056
 11
839.998
 21
84.51
  0
LINE
  8
0
 10
839.998
 20
84.51
 11
839.705
 21
83.9611
  0
LINE
  8
0
 10
839.705
 20
83.9611
 11
839.31
 21
83.4799
  0
LINE
  8
0
 10
839.31
 20
83.4799
 11
838.829
 21
83.0851
  0
LINE
  8
0
 10
838.829
 20
83.0851
 11
838.28
 21
82.7917
  0
LINE
  8
0
 10
838.28
 20
82.7917
 11
837.684
 21
82.611
  0
LINE
  8
0
 10
837.684
 20
82.611
 11
837.065
 21
82.55
  0
LINE
  8
0
 10
837.065
 20
82.55
 11
792.615
 21
82.55
  0
LINE
  8
0
 10
792.615
 20
82.55
 11
791.996
 21
82.611
  0
LINE
  8
0
 10
791.996
 20
82.611
 11
791.4
 21
82.7917
  0
LINE
  8
0
 10
791.4
 20
82.7917
 11
790.851
 21
83.0851
  0
LINE
  8
0
 10
790.851
 20
83.0851
 11
790.37
 21
83.4799
  0
LINE
  8
0
 10
790.37
 20
83.4799
 11
789.975
 21
83.9611
  0
LINE
  8
0
 10
789.975
 20
83.9611
 11
789.682
 21
84.51
  0
LINE
  8
0
 10
789.682
 20
84.51
 11
789.501
 21
85.1056
  0
LINE
  8
0
 10
789.501
 20
85.1056
 11
789.44
 21
85.725
  0
LINE
  8
0
 10
831.598
 20
62.23
 11
831.96
 21
64.0525
  0
LINE
  8
0
 10
831.96
 20
64.0525
 11
832.992
 21
65.5976
  0
LINE
  8
0
 10
832.992
 20
65.5976
 11
834.537
 21
66.63
  0
LINE
  8
0
 10
834.537
 20
66.63
 11
836.36
 21
66.9925
  0
LINE
  8
0
 10
836.36
 20
66.9925
 11
838.183
 21
66.63
  0
LINE
  8
0
 10
838.183
 20
66.63
 11
839.728
 21
65.5976
  0
LINE
  8
0
 10
839.728
 20
65.5976
 11
840.76
 21
64.0525
  0
LINE
  8
0
 10
840.76
 20
64.0525
 11
841.123
 21
62.23
  0
LINE
  8
0
 10
841.123
 20
62.23
 11
840.76
 21
60.4075
  0
LINE
  8
0
 10
840.76
 20
60.4075
 11
839.728
 21
58.8624
  0
LINE
  8
0
 10
839.728
 20
58.8624
 11
838.183
 21
57.83
  0
LINE
  8
0
 10
838.183
 20
57.83
 11
836.36
 21
57.4675
  0
LINE
  8
0
 10
836.36
 20
57.4675
 11
834.537
 21
57.83
  0
LINE
  8
0
 10
834.537
 20
57.83
 11
832.992
 21
58.8624
  0
LINE
  8
0
 10
832.992
 20
58.8624
 11
831.96
 21
60.4075
  0
LINE
  8
0
 10
831.96
 20
60.4075
 11
831.598
 21
62.23
  0
LINE
  8
0
 10
930.701
 20
103.161
 11
931.184
 21
105.591
  0
LINE
  8
0
 10
931.184
 20
105.591
 11
932.561
 21
107.651
  0
LINE
  8
0
 10
932.561
 20
107.651
 11
934.621
 21
109.027
  0
LINE
  8
0
 10
934.621
 20
109.027
 11
937.051
 21
109.511
  0
LINE
  8
0
 10
937.051
 20
109.511
 11
939.481
 21
109.027
  0
LINE
  8
0
 10
939.481
 20
109.027
 11
941.541
 21
107.651
  0
LINE
  8
0
 10
941.541
 20
107.651
 11
942.917
 21
105.591
  0
LINE
  8
0
 10
942.917
 20
105.591
 11
943.401
 21
103.161
  0
LINE
  8
0
 10
943.401
 20
103.161
 11
942.917
 21
100.731
  0
LINE
  8
0
 10
942.917
 20
100.731
 11
941.541
 21
98.6707
  0
LINE
  8
0
 10
941.541
 20
98.6707
 11
939.481
 21
97.2942
  0
LINE
  8
0
 10
939.481
 20
97.2942
 11
937.051
 21
96.8108
  0
LINE
  8
0
 10
937.051
 20
96.8108
 11
934.621
 21
97.2942
  0
LINE
  8
0
 10
934.621
 20
97.2942
 11
932.561
 21
98.6707
  0
LINE
  8
0
 10
932.561
 20
98.6707
 11
931.184
 21
100.731
  0
LINE
  8
0
 10
931.184
 20
100.731
 11
930.701
 21
103.161
  0
LINE
  8
0
 10
930.701
 20
214.339
 11
931.184
 21
216.769
  0
LINE
  8
0
 10
931.184
 20
216.769
 11
932.561
 21
218.829
  0
LINE
  8
0
 10
932.561
 20
218.829
 11
934.621
 21
220.206
  0
LINE
  8
0
 10
934.621
 20
220.206
 11
937.051
 21
220.689
  0
LINE
  8
0
 10
937.051
 20
220.689
 11
939.481
 21
220.206
  0
LINE
  8
0
 10
939.481
 20
220.206
 11
941.541
 21
218.829
  0
LINE
  8
0
 10
941.541
 20
218.829
 11
942.917
 21
216.769
  0
LINE
  8
0
 10
942.917
 20
216.769
 11
943.401
 21
214.339
  0
LINE
  8
0
 10
943.401
 20
214.339
 11
942.917
 21
211.909
  0
LINE
  8
0
 10
942.917
 20
211.909
 11
941.541
 21
209.849
  0
LINE
  8
0
 10
941.541
 20
209.849
 11
939.481
 21
208.473
  0
LINE
  8
0
 10
939.481
 20
208.473
 11
937.051
 21
207.989
  0
LINE
  8
0
 10
937.051
 20
207.989
 11
934.621
 21
208.473
  0
LINE
  8
0
 10
934.621
 20
208.473
 11
932.561
 21
209.849
  0
LINE
  8
0
 10
932.561
 20
209.849
 11
931.184
 21
211.909
  0
LINE
  8
0
 10
931.184
 20
211.909
 11
930.701
 21
214.339
  0
LINE
  8
0
 10
967.24
 20
158.75
 11
967.728
 21
163.705
  0
LINE
  8
0
 10
967.728
 20
163.705
 11
969.173
 21
168.47
  0
LINE
  8
0
 10
969.173
 20
168.47
 11
971.521
 21
172.861
  0
LINE
  8
0
 10
971.521
 20
172.861
 11
974.679
 21
176.711
  0
LINE
  8
0
 10
974.679
 20
176.711
 11
978.529
 21
179.869
  0
LINE
  8
0
 10
978.529
 20
179.869
 11
982.92
 21
182.217
  0
LINE
  8
0
 10
982.92
 20
182.217
 11
987.685
 21
183.662
  0
LINE
  8
0
 10
987.685
 20
183.662
 11
992.64
 21
184.15
  0
LINE
  8
0
 10
992.64
 20
184.15
 11
997.595
 21
183.662
  0
LINE
  8
0
 10
997.595
 20
183.662
 11
1002.36
 21
182.217
  0
LINE
  8
0
 10
1002.36
 20
182.217
 11
1006.75
 21
179.869
  0
LINE
  8
0
 10
1006.75
 20
179.869
 11
1010.6
 21
176.711
  0
LINE
  8
0
 10
1010.6
 20
176.711
 11
1013.76
 21
172.861
  0
LINE
  8
0
 10
1013.76
 20
172.861
 11
1016.11
 21
168.47
  0
LINE
  8
0
 10
1016.11
 20
168.47
 11
1017.55
 21
163.705
  0
LINE
  8
0
 10
1017.55
 20
163.705
 11
1018.04
 21
158.75
  0
LINE
  8
0
 10
1018.04
 20
158.75
 11
1017.55
 21
153.795
  0
LINE
  8
0
 10
1017.55
 20
153.795
 11
1016.11
 21
149.03
  0
LINE
  8
0
 10
1016.11
 20
149.03
 11
1013.76
 21
144.639
  0
LINE
  8
0
 10
1013.76
 20
144.639
 11
1010.6
 21
140.789
  0
LINE
  8
0
 10
1010.6
 20
140.789
 11
1006.75
 21
137.631
  0
LINE
  8
0
 10
1006.75
 20
137.631
 11
1002.36
 21
135.283
  0
LINE
  8
0
 10
1002.36
 20
135.283
 11
997.595
 21
133.838
  0
LINE
  8
0
 10
997.595
 20
133.838
 11
992.64
 21
133.35
  0
LINE
  8
0
 10
992.64
 20
133.35
 11
987.685
 21
133.838
  0
LINE
  8
0
 10
987.685
 20
133.838
 11
982.92
 21
135.283
  0
LINE
  8
0
 10
982.92
 20
135.283
 11
978.529
 21
137.631
  0
LINE
  8
0
 10
978.529
 20
137.631
 11
974.679
 21
140.789
  0
LINE
  8
0
 10
974.679
 20
140.789
 11
971.521
 21
144.639
  0
LINE
  8
0
 10
971.521
 20
144.639
 11
969.173
 21
149.03
  0
LINE
  8
0
 10
969.173
 20
149.03
 11
967.728
 21
153.795
  0
LINE
  8
0
 10
967.728
 20
153.795
 11
967.24
 21
158.75
  0
LINE
  8
0
 10
1041.88
 20
103.161
 11
1042.36
 21
105.591
  0
LINE
  8
0
 10
1042.36
 20
105.591
 11
1043.74
 21
107.651
  0
LINE
  8
0
 10
1043.74
 20
107.651
 11
1045.8
 21
109.027
  0
LINE
  8
0
 10
1045.8
 20
109.027
 11
1048.23
 21
109.511
  0
LINE
  8
0
 10
1048.23
 20
109.511
 11
1050.66
 21
109.027
  0
LINE
  8
0
 10
1050.66
 20
109.027
 11
1052.72
 21
107.651
  0
LINE
  8
0
 10
1052.72
 20
107.651
 11
1054.1
 21
105.591
  0
LINE
  8
0
 10
1054.1
 20
105.591
 11
1054.58
 21
103.161
  0
LINE
  8
0
 10
1054.58
 20
103.161
 11
1054.1
 21
100.731
  0
LINE
  8
0
 10
1054.1
 20
100.731
 11
1052.72
 21
98.6707
  0
LINE
  8
0
 10
1052.72
 20
98.6707
 11
1050.66
 21
97.2942
  0
LINE
  8
0
 10
1050.66
 20
97.2942
 11
1048.23
 21
96.8108
  0
LINE
  8
0
 10
1048.23
 20
96.8108
 11
1045.8
 21
97.2942
  0
LINE
  8
0
 10
1045.8
 20
97.2942
 11
1043.74
 21
98.6707
  0
LINE
  8
0
 10
1043.74
 20
98.6707
 11
1042.36
 21
100.731
  0
LINE
  8
0
 10
1042.36
 20
100.731
 11
1041.88
 21
103.161
  0
LINE
  8
0
 10
1041.88
 20
214.339
 11
1042.36
 21
216.769
  0
LINE
  8
0
 10
1042.36
 20
216.769
 11
1043.74
 21
218.829
  0
LINE
  8
0
 10
1043.74
 20
218.829
 11
1045.8
 21
220.206
  0
LINE
  8
0
 10
1045.8
 20
220.206
 11
1048.23
 21
220.689
  0
LINE
  8
0
 10
1048.23
 20
220.689
 11
1050.66
 21
220.206
  0
LINE
  8
0
 10
1050.66
 20
220.206
 11
1052.72
 21
218.829
  0
LINE
  8
0
 10
1052.72
 20
218.829
 11
1054.1
 21
216.769
  0
LINE
  8
0
 10
1054.1
 20
216.769
 11
1054.58
 21
214.339
  0
LINE
  8
0
 10
1054.58
 20
214.339
 11
1054.1
 21
211.909
  0
LINE
  8
0
 10
1054.1
 20
211.909
 11
1052.72
 21
209.849
  0
LINE
  8
0
 10
1052.72
 20
209.849
 11
1050.66
 21
208.473
  0
LINE
  8
0
 10
1050.66
 20
208.473
 11
1048.23
 21
207.989
  0
LINE
  8
0
 10
1048.23
 20
207.989
 11
1045.8
 21
208.473
  0
LINE
  8
0
 10
1045.8
 20
208.473
 11
1043.74
 21
209.849
  0
LINE
  8
0
 10
1043.74
 20
209.849
 11
1042.36
 21
211.909
  0
LINE
  8
0
 10
1042.36
 20
211.909
 11
1041.88
 21
214.339
  0
LINE
  8
0
 10
1125.98
 20
62.23
 11
1126.34
 21
64.0525
  0
LINE
  8
0
 10
1126.34
 20
64.0525
 11
1127.37
 21
65.5976
  0
LINE
  8
0
 10
1127.37
 20
65.5976
 11
1128.92
 21
66.63
  0
LINE
  8
0
 10
1128.92
 20
66.63
 11
1130.74
 21
66.9925
  0
LINE
  8
0
 10
1130.74
 20
66.9925
 11
1132.56
 21
66.63
  0
LINE
  8
0
 10
1132.56
 20
66.63
 11
1134.11
 21
65.5976
  0
LINE
  8
0
 10
1134.11
 20
65.5976
 11
1135.14
 21
64.0525
  0
LINE
  8
0
 10
1135.14
 20
64.0525
 11
1135.5
 21
62.23
  0
LINE
  8
0
 10
1135.5
 20
62.23
 11
1135.14
 21
60.4075
  0
LINE
  8
0
 10
1135.14
 20
60.4075
 11
1134.11
 21
58.8624
  0
LINE
  8
0
 10
1134.11
 20
58.8624
 11
1132.56
 21
57.83
  0
LINE
  8
0
 10
1132.56
 20
57.83
 11
1130.74
 21
57.4675
  0
LINE
  8
0
 10
1130.74
 20
57.4675
 11
1128.92
 21
57.83
  0
LINE
  8
0
 10
1128.92
 20
57.83
 11
1127.37
 21
58.8624
  0
LINE
  8
0
 10
1127.37
 20
58.8624
 11
1126.34
 21
60.4075
  0
LINE
  8
0
 10
1126.34
 20
60.4075
 11
1125.98
 21
62.23
  0
LINE
  8
0
 10
1172.59
 20
950
 11
1172.76
 21
952.617
  0
LINE
  8
0
 10
1172.76
 20
952.617
 11
1173.27
 21
955.189
  0
LINE
  8
0
 10
1173.27
 20
955.189
 11
1174.12
 21
957.673
  0
LINE
  8
0
 10
1174.12
 20
957.673
 11
1175.28
 21
960.025
  0
LINE
  8
0
 10
1175.28
 20
960.025
 11
1176.73
 21
962.206
  0
LINE
  8
0
 10
1176.73
 20
962.206
 11
1178.46
 21
964.177
  0
LINE
  8
0
 10
1178.46
 20
964.177
 11
1180.43
 21
965.907
  0
LINE
  8
0
 10
1180.43
 20
965.907
 11
1182.62
 21
967.364
  0
LINE
  8
0
 10
1182.62
 20
967.364
 11
1184.97
 21
968.524
  0
LINE
  8
0
 10
1184.97
 20
968.524
 11
1187.45
 21
969.367
  0
LINE
  8
0
 10
1187.45
 20
969.367
 11
1190.02
 21
969.878
  0
LINE
  8
0
 10
1190.02
 20
969.878
 11
1192.64
 21
970.05
  0
LINE
  8
0
 10
1192.64
 20
970.05
 11
1195.26
 21
969.878
  0
LINE
  8
0
 10
1195.26
 20
969.878
 11
1197.83
 21
969.367
  0
LINE
  8
0
 10
1197.83
 20
969.367
 11
1200.31
 21
968.524
  0
LINE
  8
0
 10
1200.31
 20
968.524
 11
1202.67
 21
967.364
  0
LINE
  8
0
 10
1202.67
 20
967.364
 11
1204.85
 21
965.907
  0
LINE
  8
0
 10
1204.85
 20
965.907
 11
1206.82
 21
964.177
  0
LINE
  8
0
 10
1206.82
 20
964.177
 11
1208.55
 21
962.206
  0
LINE
  8
0
 10
1208.55
 20
962.206
 11
1210
 21
960.025
  0
LINE
  8
0
 10
1210
 20
960.025
 11
1211.16
 21
957.673
  0
LINE
  8
0
 10
1211.16
 20
957.673
 11
1212.01
 21
955.189
  0
LINE
  8
0
 10
1212.01
 20
955.189
 11
1212.52
 21
952.617
  0
LINE
  8
0
 10
1212.52
 20
952.617
 11
1212.69
 21
950
  0
LINE
  8
0
 10
1212.69
 20
950
 11
1212.52
 21
947.383
  0
LINE
  8
0
 10
1212.52
 20
947.383
 11
1212.01
 21
944.811
  0
LINE
  8
0
 10
1212.01
 20
944.811
 11
1211.16
 21
942.327
  0
LINE
  8
0
 10
1211.16
 20
942.327
 11
1210
 21
939.975
  0
LINE
  8
0
 10
1210
 20
939.975
 11
1208.55
 21
937.794
  0
LINE
  8
0
 10
1208.55
 20
937.794
 11
1206.82
 21
935.823
  0
LINE
  8
0
 10
1206.82
 20
935.823
 11
1204.85
 21
934.093
  0
LINE
  8
0
 10
1204.85
 20
934.093
 11
1202.67
 21
932.636
  0
LINE
  8
0
 10
1202.67
 20
932.636
 11
1200.31
 21
931.476
  0
LINE
  8
0
 10
1200.31
 20
931.476
 11
1197.83
 21
930.633
  0
LINE
  8
0
 10
1197.83
 20
930.633
 11
1195.26
 21
930.122
  0
LINE
  8
0
 10
1195.26
 20
930.122
 11
1192.64
 21
929.95
  0
LINE
  8
0
 10
1192.64
 20
929.95
 11
1190.02
 21
930.122
  0
LINE
  8
0
 10
1190.02
 20
930.122
 11
1187.45
 21
930.633
  0
LINE
  8
0
 10
1187.45
 20
930.633
 11
1184.97
 21
931.476
  0
LINE
  8
0
 10
1184.97
 20
931.476
 11
1182.62
 21
932.636
  0
LINE
  8
0
 10
1182.62
 20
932.636
 11
1180.43
 21
934.093
  0
LINE
  8
0
 10
1180.43
 20
934.093
 11
1178.46
 21
935.823
  0
LINE
  8
0
 10
1178.46
 20
935.823
 11
1176.73
 21
937.794
  0
LINE
  8
0
 10
1176.73
 20
937.794
 11
1175.28
 21
939.975
  0
LINE
  8
0
 10
1175.28
 20
939.975
 11
1174.12
 21
942.327
  0
LINE
  8
0
 10
1174.12
 20
942.327
 11
1173.27
 21
944.811
  0
LINE
  8
0
 10
1173.27
 20
944.811
 11
1172.76
 21
947.383
  0
LINE
  8
0
 10
1172.76
 20
947.383
 11
1172.59
 21
950
  0
LINE
  8
0
 10
1198.98
 20
62.23
 11
1199.34
 21
64.0525
  0
LINE
  8
0
 10
1199.34
 20
64.0525
 11
1200.37
 21
65.5976
  0
LINE
  8
0
 10
1200.37
 20
65.5976
 11
1201.92
 21
66.63
  0
LINE
  8
0
 10
1201.92
 20
66.63
 11
1203.74
 21
66.9925
  0
LINE
  8
0
 10
1203.74
 20
66.9925
 11
1205.56
 21
66.63
  0
LINE
  8
0
 10
1205.56
 20
66.63
 11
1207.11
 21
65.5976
  0
LINE
  8
0
 10
1207.11
 20
65.5976
 11
1208.14
 21
64.0525
  0
LINE
  8
0
 10
1208.14
 20
64.0525
 11
1208.5
 21
62.23
  0
LINE
  8
0
 10
1208.5
 20
62.23
 11
1208.14
 21
60.4075
  0
LINE
  8
0
 10
1208.14
 20
60.4075
 11
1207.11
 21
58.8624
  0
LINE
  8
0
 10
1207.11
 20
58.8624
 11
1205.56
 21
57.83
  0
LINE
  8
0
 10
1205.56
 20
57.83
 11
1203.74
 21
57.4675
  0
LINE
  8
0
 10
1203.74
 20
57.4675
 11
1201.92
 21
57.83
  0
LINE
  8
0
 10
1201.92
 20
57.83
 11
1200.37
 21
58.8624
  0
LINE
  8
0
 10
1200.37
 20
58.8624
 11
1199.34
 21
60.4075
  0
LINE
  8
0
 10
1199.34
 20
60.4075
 11
1198.98
 21
62.23
  0
LINE
  8
0
 10
1325.65
 20
480
 11
1326.01
 21
481.823
  0
LINE
  8
0
 10
1326.01
 20
481.823
 11
1327.04
 21
483.368
  0
LINE
  8
0
 10
1327.04
 20
483.368
 11
1328.59
 21
484.4
  0
LINE
  8
0
 10
1328.59
 20
484.4
 11
1330.41
 21
484.762
  0
LINE
  8
0
 10
1330.41
 20
484.762
 11
1332.23
 21
484.4
  0
LINE
  8
0
 10
1332.23
 20
484.4
 11
1333.78
 21
483.368
  0
LINE
  8
0
 10
1333.78
 20
483.368
 11
1334.81
 21
481.823
  0
LINE
  8
0
 10
1334.81
 20
481.823
 11
1335.17
 21
480
  0
LINE
  8
0
 10
1335.17
 20
480
 11
1334.81
 21
478.177
  0
LINE
  8
0
 10
1334.81
 20
478.177
 11
1333.78
 21
476.632
  0
LINE
  8
0
 10
1333.78
 20
476.632
 11
1332.23
 21
475.6
  0
LINE
  8
0
 10
1332.23
 20
475.6
 11
1330.41
 21
475.237
  0
LINE
  8
0
 10
1330.41
 20
475.237
 11
1328.59
 21
475.6
  0
LINE
  8
0
 10
1328.59
 20
475.6
 11
1327.04
 21
476.632
  0
LINE
  8
0
 10
1327.04
 20
476.632
 11
1326.01
 21
478.177
  0
LINE
  8
0
 10
1326.01
 20
478.177
 11
1325.65
 21
480
  0
LINE
  8
0
 10
1325.65
 20
610
 11
1326.01
 21
611.823
  0
LINE
  8
0
 10
1326.01
 20
611.823
 11
1327.04
 21
613.368
  0
LINE
  8
0
 10
1327.04
 20
613.368
 11
1328.59
 21
614.4
  0
LINE
  8
0
 10
1328.59
 20
614.4
 11
1330.41
 21
614.762
  0
LINE
  8
0
 10
1330.41
 20
614.762
 11
1332.23
 21
614.4
  0
LINE
  8
0
 10
1332.23
 20
614.4
 11
1333.78
 21
613.368
  0
LINE
  8
0
 10
1333.78
 20
613.368
 11
1334.81
 21
611.823
  0
LINE
  8
0
 10
1334.81
 20
611.823
 11
1335.17
 21
610
  0
LINE
  8
0
 10
1335.17
 20
610
 11
1334.81
 21
608.177
  0
LINE
  8
0
 10
1334.81
 20
608.177
 11
1333.78
 21
606.632
  0
LINE
  8
0
 10
1333.78
 20
606.632
 11
1332.23
 21
605.6
  0
LINE
  8
0
 10
1332.23
 20
605.6
 11
1330.41
 21
605.237
  0
LINE
  8
0
 10
1330.41
 20
605.237
 11
1328.59
 21
605.6
  0
LINE
  8
0
 10
1328.59
 20
605.6
 11
1327.04
 21
606.632
  0
LINE
  8
0
 10
1327.04
 20
606.632
 11
1326.01
 21
608.177
  0
LINE
  8
0
 10
1326.01
 20
608.177
 11
1325.65
 21
610
  0
LINE
  8
0
 10
1325.65
 20
740
 11
1326.01
 21
741.823
  0
LINE
  8
0
 10
1326.01
 20
741.823
 11
1327.04
 21
743.368
  0
LINE
  8
0
 10
1327.04
 20
743.368
 11
1328.59
 21
744.4
  0
LINE
  8
0
 10
1328.59
 20
744.4
 11
1330.41
 21
744.762
  0
LINE
  8
0
 10
1330.41
 20
744.762
 11
1332.23
 21
744.4
  0
LINE
  8
0
 10
1332.23
 20
744.4
 11
1333.78
 21
743.368
  0
LINE
  8
0
 10
1333.78
 20
743.368
 11
1334.81
 21
741.823
  0
LINE
  8
0
 10
1334.81
 20
741.823
 11
1335.17
 21
740
  0
LINE
  8
0
 10
1335.17
 20
740
 11
1334.81
 21
738.177
  0
LINE
  8
0
 10
1334.81
 20
738.177
 11
1333.78
 21
736.632
  0
LINE
  8
0
 10
1333.78
 20
736.632
 11
1332.23
 21
735.6
  0
LINE
  8
0
 10
1332.23
 20
735.6
 11
1330.41
 21
735.237
  0
LINE
  8
0
 10
1330.41
 20
735.237
 11
1328.59
 21
735.6
  0
LINE
  8
0
 10
1328.59
 20
735.6
 11
1327.04
 21
736.632
  0
LINE
  8
0
 10
1327.04
 20
736.632
 11
1326.01
 21
738.177
  0
LINE
  8
0
 10
1326.01
 20
738.177
 11
1325.65
 21
740
  0
LINE
  8
0
 10
1325.65
 20
870
 11
1326.01
 21
871.823
  0
LINE
  8
0
 10
1326.01
 20
871.823
 11
1327.04
 21
873.368
  0
LINE
  8
0
 10
1327.04
 20
873.368
 11
1328.59
 21
874.4
  0
LINE
  8
0
 10
1328.59
 20
874.4
 11
1330.41
 21
874.762
  0
LINE
  8
0
 10
1330.41
 20
874.762
 11
1332.23
 21
874.4
  0
LINE
  8
0
 10
1332.23
 20
874.4
 11
1333.78
 21
873.368
  0
LINE
  8
0
 10
1333.78
 20
873.368
 11
1334.81
 21
871.823
  0
LINE
  8
0
 10
1334.81
 20
871.823
 11
1335.17
 21
870
  0
LINE
  8
0
 10
1335.17
 20
870
 11
1334.81
 21
868.177
  0
LINE
  8
0
 10
1334.81
 20
868.177
 11
1333.78
 21
866.632
  0
LINE
  8
0
 10
1333.78
 20
866.632
 11
1332.23
 21
865.6
  0
LINE
  8
0
 10
1332.23
 20
865.6
 11
1330.41
 21
865.237
  0
LINE
  8
0
 10
1330.41
 20
865.237
 11
1328.59
 21
865.6
  0
LINE
  8
0
 10
1328.59
 20
865.6
 11
1327.04
 21
866.632
  0
LINE
  8
0
 10
1327.04
 20
866.632
 11
1326.01
 21
868.177
  0
LINE
  8
0
 10
1326.01
 20
868.177
 11
1325.65
 21
870
  0
LINE
  8
0
 10
1328.94
 20
450
 11
1329.2
 21
452.673
  0
LINE
  8
0
 10
1329.2
 20
452.673
 11
1329.98
 21
455.243
  0
LINE
  8
0
 10
1329.98
 20
455.243
 11
1331.25
 21
457.611
  0
LINE
  8
0
 10
1331.25
 20
457.611
 11
1332.95
 21
459.687
  0
LINE
  8
0
 10
1332.95
 20
459.687
 11
1335.03
 21
461.391
  0
LINE
  8
0
 10
1335.03
 20
461.391
 11
1337.4
 21
462.657
  0
LINE
  8
0
 10
1337.4
 20
462.657
 11
1339.97
 21
463.437
  0
LINE
  8
0
 10
1339.97
 20
463.437
 11
1342.64
 21
463.7
  0
LINE
  8
0
 10
1342.64
 20
463.7
 11
1345.31
 21
463.437
  0
LINE
  8
0
 10
1345.31
 20
463.437
 11
1347.88
 21
462.657
  0
LINE
  8
0
 10
1347.88
 20
462.657
 11
1350.25
 21
461.391
  0
LINE
  8
0
 10
1350.25
 20
461.391
 11
1352.33
 21
459.687
  0
LINE
  8
0
 10
1352.33
 20
459.687
 11
1354.03
 21
457.611
  0
LINE
  8
0
 10
1354.03
 20
457.611
 11
1355.3
 21
455.243
  0
LINE
  8
0
 10
1355.3
 20
455.243
 11
1356.08
 21
452.673
  0
LINE
  8
0
 10
1356.08
 20
452.673
 11
1356.34
 21
450
  0
LINE
  8
0
 10
1356.34
 20
450
 11
1356.08
 21
447.327
  0
LINE
  8
0
 10
1356.08
 20
447.327
 11
1355.3
 21
444.757
  0
LINE
  8
0
 10
1355.3
 20
444.757
 11
1354.03
 21
442.389
  0
LINE
  8
0
 10
1354.03
 20
442.389
 11
1352.33
 21
440.313
  0
LINE
  8
0
 10
1352.33
 20
440.313
 11
1350.25
 21
438.609
  0
LINE
  8
0
 10
1350.25
 20
438.609
 11
1347.88
 21
437.343
  0
LINE
  8
0
 10
1347.88
 20
437.343
 11
1345.31
 21
436.563
  0
LINE
  8
0
 10
1345.31
 20
436.563
 11
1342.64
 21
436.3
  0
LINE
  8
0
 10
1342.64
 20
436.3
 11
1339.97
 21
436.563
  0
LINE
  8
0
 10
1339.97
 20
436.563
 11
1337.4
 21
437.343
  0
LINE
  8
0
 10
1337.4
 20
437.343
 11
1335.03
 21
438.609
  0
LINE
  8
0
 10
1335.03
 20
438.609
 11
1332.95
 21
440.313
  0
LINE
  8
0
 10
1332.95
 20
440.313
 11
1331.25
 21
442.389
  0
LINE
  8
0
 10
1331.25
 20
442.389
 11
1329.98
 21
444.757
  0
LINE
  8
0
 10
1329.98
 20
444.757
 11
1329.2
 21
447.327
  0
LINE
  8
0
 10
1329.2
 20
447.327
 11
1328.94
 21
450
  0
ENDSEC
  0
SECTION
  2
OBJECTS
  0
DICTIONARY
  0
ENDSEC
  0
EOF
