  0
SECTION
  2
HEADER
  9
$ACADVER
  1
AC1015
  9
$ACADMAINTVER
 70
6
  9
$DWGCODEPAGE
  3
ANSI_1252
  9
$INSBASE
 10
0.0
 20
0.0
 30
0.0
  9
$EXTMIN
 10
1e+20
 20
1e+20
 30
1e+20
  9
$EXTMAX
 10
-1e+20
 20
-1e+20
 30
-1e+20
  9
$LIMMIN
 10
0.0
 20
0.0
  9
$LIMMAX
 10
420.0
 20
297.0
  9
$ORTHOMODE
 70
0
  9
$REGENMODE
 70
1
  9
$FILLMODE
 70
1
  9
$QTEXTMODE
 70
0
  9
$MIRRTEXT
 70
1
  9
$LTSCALE
 40
1.0
  9
$ATTMODE
 70
1
  9
$TEXTSIZE
 40
2.5
  9
$TRACEWID
 40
1.0
  9
$TEXTSTYLE
  7
Standard
  9
$CLAYER
  8
0
  9
$CELTYPE
  6
ByLayer
  9
$CECOLOR
 62
256
  9
$CELTSCALE
 40
1.0
  9
$DISPSILH
 70
0
  9
$DIMSCALE
 40
1.0
  9
$DIMASZ
 40
2.5
  9
$DIMEXO
 40
0.625
  9
$DIMDLI
 40
3.75
  9
$DIMRND
 40
0.0
  9
$DIMDLE
 40
0.0
  9
$DIMEXE
 40
1.25
  9
$DIMTP
 40
0.0
  9
$DIMTM
 40
0.0
  9
$DIMTXT
 40
2.5
  9
$DIMCEN
 40
2.5
  9
$DIMTSZ
 40
0.0
  9
$DIMTOL
 70
0
  9
$DIMLIM
 70
0
  9
$DIMTIH
 70
0
  9
$DIMTOH
 70
0
  9
$DIMSE1
 70
0
  9
$DIMSE2
 70
0
  9
$DIMTAD
 70
1
  9
$DIMZIN
 70
8
  9
$DIMBLK
  1

  9
$DIMASO
 70
1
  9
$DIMSHO
 70
1
  9
$DIMPOST
  1

  9
$DIMAPOST
  1

  9
$DIMALT
 70
0
  9
$DIMALTD
 70
3
  9
$DIMALTF
 40
0.03937007874
  9
$DIMLFAC
 40
1.0
  9
$DIMTOFL
 70
1
  9
$DIMTVP
 40
0.0
  9
$DIMTIX
 70
0
  9
$DIMSOXD
 70
0
  9
$DIMSAH
 70
0
  9
$DIMBLK1
  1

  9
$DIMBLK2
  1

  9
$DIMSTYLE
  2
ISO-25
  9
$DIMCLRD
 70
0
  9
$DIMCLRE
 70
0
  9
$DIMCLRT
 70
0
  9
$DIMTFAC
 40
1.0
  9
$DIMGAP
 40
0.625
  9
$DIMJUST
 70
0
  9
$DIMSD1
 70
0
  9
$DIMSD2
 70
0
  9
$DIMTOLJ
 70
0
  9
$DIMTZIN
 70
8
  9
$DIMALTZ
 70
0
  9
$DIMALTTZ
 70
0
  9
$DIMUPT
 70
0
  9
$DIMDEC
 70
2
  9
$DIMTDEC
 70
2
  9
$DIMALTU
 70
2
  9
$DIMALTTD
 70
3
  9
$DIMTXSTY
  7
Standard
  9
$DIMAUNIT
 70
0
  9
$DIMADEC
 70
0
  9
$DIMALTRND
 40
0.0
  9
$DIMAZIN
 70
0
  9
$DIMDSEP
 70
44
  9
$DIMATFIT
 70
3
  9
$DIMFRAC
 70
0
  9
$DIMLDRBLK
  1

  9
$DIMLUNIT
 70
2
  9
$DIMLWD
 70
-2
  9
$DIMLWE
 70
-2
  9
$DIMTMOVE
 70
0
  9
$LUNITS
 70
2
  9
$LUPREC
 70
4
  9
$SKETCHINC
 40
1.0
  9
$FILLETRAD
 40
10.0
  9
$AUNITS
 70
0
  9
$AUPREC
 70
2
  9
$MENU
  1
.
  9
$ELEVATION
 40
0.0
  9
$PELEVATION
 40
0.0
  9
$THICKNESS
 40
0.0
  9
$LIMCHECK
 70
0
  9
$CHAMFERA
 40
0.0
  9
$CHAMFERB
 40
0.0
  9
$CHAMFERC
 40
0.0
  9
$CHAMFERD
 40
0.0
  9
$SKPOLY
 70
0
  9
$TDCREATE
 40
2451545.0
  9
$TDUCREATE
 40
2451545.0
  9
$TDUPDATE
 40
2451545.0
  9
$TDUUPDATE
 40
2451545.0
  9
$TDINDWG
 40
0.0
  9
$TDUSRTIMER
 40
0.0
  9
$USRTIMER
 70
1
  9
$ANGBASE
 50
0.0
  9
$ANGDIR
 70
0
  9
$PDMODE
 70
0
  9
$PDSIZE
 40
0.0
  9
$PLINEWID
 40
0.0
  9
$SPLFRAME
 70
0
  9
$SPLINETYPE
 70
6
  9
$SPLINESEGS
 70
8
  9
$HANDSEED
  5
314
  9
$SURFTAB1
 70
6
  9
$SURFTAB2
 70
6
  9
$SURFTYPE
 70
6
  9
$SURFU
 70
6
  9
$SURFV
 70
6
  9
$UCSBASE
  2

  9
$UCSNAME
  2

  9
$UCSORG
 10
0.0
 20
0.0
 30
0.0
  9
$UCSXDIR
 10
1.0
 20
0.0
 30
0.0
  9
$UCSYDIR
 10
0.0
 20
1.0
 30
0.0
  9
$UCSORTHOREF
  2

  9
$UCSORTHOVIEW
 70
0
  9
$UCSORGTOP
 10
0.0
 20
0.0
 30
0.0
  9
$UCSORGBOTTOM
 10
0.0
 20
0.0
 30
0.0
  9
$UCSORGLEFT
 10
0.0
 20
0.0
 30
0.0
  9
$UCSORGRIGHT
 10
0.0
 20
0.0
 30
0.0
  9
$UCSORGFRONT
 10
0.0
 20
0.0
 30
0.0
  9
$UCSORGBACK
 10
0.0
 20
0.0
 30
0.0
  9
$PUCSBASE
  2

  9
$PUCSNAME
  2

  9
$PUCSORG
 10
0.0
 20
0.0
 30
0.0
  9
$PUCSXDIR
 10
1.0
 20
0.0
 30
0.0
  9
$PUCSYDIR
 10
0.0
 20
1.0
 30
0.0
  9
$PUCSORTHOREF
  2

  9
$PUCSORTHOVIEW
 70
0
  9
$PUCSORGTOP
 10
0.0
 20
0.0
 30
0.0
  9
$PUCSORGBOTTOM
 10
0.0
 20
0.0
 30
0.0
  9
$PUCSORGLEFT
 10
0.0
 20
0.0
 30
0.0
  9
$PUCSORGRIGHT
 10
0.0
 20
0.0
 30
0.0
  9
$PUCSORGFRONT
 10
0.0
 20
0.0
 30
0.0
  9
$PUCSORGBACK
 10
0.0
 20
0.0
 30
0.0
  9
$USERI1
 70
0
  9
$USERI2
 70
0
  9
$USERI3
 70
0
  9
$USERI4
 70
0
  9
$USERI5
 70
0
  9
$USERR1
 40
0.0
  9
$USERR2
 40
0.0
  9
$USERR3
 40
0.0
  9
$USERR4
 40
0.0
  9
$USERR5
 40
0.0
  9
$WORLDVIEW
 70
1
  9
$SHADEDGE
 70
3
  9
$SHADEDIF
 70
70
  9
$TILEMODE
 70
1
  9
$MAXACTVP
 70
64
  9
$PINSBASE
 10
0.0
 20
0.0
 30
0.0
  9
$PLIMCHECK
 70
0
  9
$PEXTMIN
 10
1e+20
 20
1e+20
 30
1e+20
  9
$PEXTMAX
 10
-1e+20
 20
-1e+20
 30
-1e+20
  9
$PLIMMIN
 10
0.0
 20
0.0
  9
$PLIMMAX
 10
420.0
 20
297.0
  9
$UNITMODE
 70
0
  9
$VISRETAIN
 70
1
  9
$PLINEGEN
 70
0
  9
$PSLTSCALE
 70
1
  9
$TREEDEPTH
 70
3020
  9
$CMLSTYLE
  2
Standard
  9
$CMLJUST
 70
0
  9
$CMLSCALE
 40
20.0
  9
$PROXYGRAPHICS
 70
1
  9
$MEASUREMENT
 70
1
  9
$CELWEIGHT
370
-1
  9
$ENDCAPS
280
0
  9
$JOINSTYLE
280
0
  9
$LWDISPLAY
290
0
  9
$INSUNITS
 70
4
  9
$HYPERLINKBASE
  1

  9
$STYLESHEET
  1

  9
$XEDIT
290
1
  9
$CEPSNTYPE
380
0
  9
$PSTYLEMODE
290
1
  9
$FINGERPRINTGUID
  2
{00000000-0000-0000-0000-000000000000}
  9
$VERSIONGUID
  2
{00000000-0000-0000-0000-000000000000}
  9
$EXTNAMES
290
1
  9
$PSVPSCALE
 40
0.0
  9
$OLESTARTUP
290
0
  0
ENDSEC
  0
SECTION
  2
CLASSES
  0
CLASS
  1
ACDBDICTIONARYWDFLT
  2
AcDbDictionaryWithDefault
  3
ObjectDBX Classes
 90
0
280
0
281
0
  0
CLASS
  1
SUN
  2
AcDbSun
  3
SCENEOE
 90
1153
280
0
281
0
  0
CLASS
  1
VISUALSTYLE
  2
AcDbVisualStyle
  3
ObjectDBX Classes
 90
4095
280
0
281
0
  0
CLASS
  1
MATERIAL
  2
AcDbMaterial
  3
ObjectDBX Classes
 90
1153
280
0
281
0
  0
CLASS
  1
SCALE
  2
AcDbScale
  3
ObjectDBX Classes
 90
1153
280
0
281
0
  0
CLASS
  1
TABLESTYLE
  2
AcDbTableStyle
  3
ObjectDBX Classes
 90
4095
280
0
281
0
  0
CLASS
  1
MLEADERSTYLE
  2
AcDbMLeaderStyle
  3
ACDB_MLEADERSTYLE_CLASS
 90
4095
280
0
281
0
  0
CLASS
  1
DICTIONARYVAR
  2
AcDbDictionaryVar
  3
ObjectDBX Classes
 90
0
280
0
281
0
  0
CLASS
  1
CELLSTYLEMAP
  2
AcDbCellStyleMap
  3
ObjectDBX Classes
 90
1152
280
0
281
0
  0
CLASS
  1
MENTALRAYRENDERSETTINGS
  2
AcDbMentalRayRenderSettings
  3
SCENEOE
 90
1024
280
0
281
0
  0
CLASS
  1
ACDBDETAILVIEWSTYLE
  2
AcDbDetailViewStyle
  3
ObjectDBX Classes
 90
1025
280
0
281
0
  0
CLASS
  1
ACDBSECTIONVIEWSTYLE
  2
AcDbSectionViewStyle
  3
ObjectDBX Classes
 90
1025
280
0
281
0
  0
CLASS
  1
RASTERVARIABLES
  2
AcDbRasterVariables
  3
ISM
 90
0
280
0
281
0
  0
CLASS
  1
ACDBPLACEHOLDER
  2
AcDbPlaceHolder
  3
ObjectDBX Classes
 90
0
280
0
281
0
  0
CLASS
  1
LAYOUT
  2
AcDbLayout
  3
ObjectDBX Classes
 90
0
280
0
281
0
  0
ENDSEC
  0
SECTION
  2
TABLES
  0
TABLE
  2
VPORT
  5
8
330
0
100
AcDbSymbolTable
 70
1
  0
VPORT
  5
23
330
8
100
AcDbSymbolTableRecord
100
AcDbViewportTableRecord
  2
*Active
 70
0
 10
0.0
 20
0.0
 11
1.0
 21
1.0
 12
0.0
 22
0.0
 13
0.0
 23
0.0
 14
0.5
 24
0.5
 15
0.5
 25
0.5
 16
0.0
 26
0.0
 36
1.0
 17
0.0
 27
0.0
 37
0.0
 40
1000.0
 41
1.34
 42
50.0
 43
0.0
 44
0.0
 50
0.0
 51
0.0
 71
0
 72
1000
 73
1
 74
3
 75
0
 76
0
 77
0
 78
0
281
0
 65
0
146
0.0
  0
ENDTAB
  0
TABLE
  2
LTYPE
  5
2
330
0
100
AcDbSymbolTable
 70
3
  0
LTYPE
  5
24
330
2
100
AcDbSymbolTableRecord
100
AcDbLinetypeTableRecord
  2
ByBlock
 70
0
  3

 72
65
 73
0
 40
0.0
  0
LTYPE
  5
25
330
2
100
AcDbSymbolTableRecord
100
AcDbLinetypeTableRecord
  2
ByLayer
 70
0
  3

 72
65
 73
0
 40
0.0
  0
LTYPE
  5
26
330
2
100
AcDbSymbolTableRecord
100
AcDbLinetypeTableRecord
  2
Continuous
 70
0
  3

 72
65
 73
0
 40
0.0
  0
ENDTAB
  0
TABLE
  2
LAYER
  5
1
330
0
100
AcDbSymbolTable
 70
2
  0
LAYER
  5
27
330
1
100
AcDbSymbolTableRecord
100
AcDbLayerTableRecord
  2
0
 70
0
 62
7
  6
Continuous
370
-3
390
13
  0
LAYER
  5
28
330
1
100
AcDbSymbolTableRecord
100
AcDbLayerTableRecord
  2
Defpoints
 70
0
 62
7
  6
Continuous
290
0
370
-3
390
13
  0
ENDTAB
  0
TABLE
  2
STYLE
  5
5
330
0
100
AcDbSymbolTable
 70
1
  0
STYLE
  5
29
330
5
100
AcDbSymbolTableRecord
100
AcDbTextStyleTableRecord
  2
Standard
 70
0
 40
0.0
 41
1.0
 50
0.0
 71
0
 42
2.5
  3
txt
  4

  0
ENDTAB
  0
TABLE
  2
VIEW
  5
7
330
0
100
AcDbSymbolTable
 70
0
  0
ENDTAB
  0
TABLE
  2
UCS
  5
6
330
0
100
AcDbSymbolTable
 70
0
  0
ENDTAB
  0
TABLE
  2
APPID
  5
3
330
0
100
AcDbSymbolTable
 70
3
  0
APPID
  5
2A
330
3
100
AcDbSymbolTableRecord
100
AcDbRegAppTableRecord
  2
ACAD
 70
0
  0
APPID
  5
311
330
3
100
AcDbSymbolTableRecord
100
AcDbRegAppTableRecord
  2
HATCHBACKGROUNDCOLOR
 70
0
  0
APPID
  5
312
330
3
100
AcDbSymbolTableRecord
100
AcDbRegAppTableRecord
  2
EZDXF
 70
0
  0
ENDTAB
  0
TABLE
  2
DIMSTYLE
  5
4
330
0
100
AcDbSymbolTable
 70
1
100
AcDbDimStyleTable
  0
DIMSTYLE
105
2B
330
4
100
AcDbSymbolTableRecord
100
AcDbDimStyleTableRecord
  2
Standard
 70
0
  3

  4

 40
1.0
 41
2.5
 42
0.625
 43
3.75
 44
1.25
 45
0.0
 46
0.0
 47
0.0
 48
0.0
140
2.5
141
2.5
142
0.0
143
0.03937007874
144
1.0
145
0.0
146
1.0
147
0.625
148
0.0
 71
0
 72
0
 73
0
 74
0
 75
0
 76
0
 77
1
 78
8
 79
3
170
0
171
3
172
1
173
0
174
0
175
0
176
0
177
0
178
0
179
2
271
2
272
2
273
2
274
3
275
0
276
0
277
2
278
44
279
0
280
0
281
0
282
0
283
0
284
8
285
0
286
0
288
0
289
3
371
-2
372
-2
  0
ENDTAB
  0
TABLE
  2
BLOCK_RECORD
  5
9
330
0
100
AcDbSymbolTable
 70
2
  0
BLOCK_RECORD
  5
17
330
9
100
AcDbSymbolTableRecord
100
AcDbBlockTableRecord
  2
*Model_Space
340
1A
  0
BLOCK_RECORD
  5
1B
330
9
100
AcDbSymbolTableRecord
100
AcDbBlockTableRecord
  2
*Paper_Space
340
1E
  0
ENDTAB
  0
ENDSEC
  0
SECTION
  2
BLOCKS
  0
BLOCK
  5
18
330
17
100
AcDbEntity
  8
0
100
AcDbBlockBegin
  2
*Model_Space
 70
0
 10
0.0
 20
0.0
 30
0.0
  3
*Model_Space
  1

  0
ENDBLK
  5
19
330
17
100
AcDbEntity
  8
0
100
AcDbBlockEnd
  0
BLOCK
  5
1C
330
1B
100
AcDbEntity
  8
0
100
AcDbBlockBegin
  2
*Paper_Space
 70
0
 10
0.0
 20
0.0
 30
0.0
  3
*Paper_Space
  1

  0
ENDBLK
  5
1D
330
1B
100
AcDbEntity
  8
0
100
AcDbBlockEnd
  0
ENDSEC
  0
SECTION
  2
ENTITIES
  0
LINE
  5
2F
330
17
100
AcDbEntity
  8
0
100
AcDbLine
 10
1.90735e-07
 20
0.0
 30
0.0
 11
1349.2
 21
0.0
 31
0.0
  0
LINE
  5
30
330
17
100
AcDbEntity
  8
0
100
AcDbLine
 10
1349.2
 20
0.0
 30
0.0
 11
1349.2
 21
157.725
 31
0.0
  0
LINE
  5
31
330
17
100
AcDbEntity
  8
0
100
AcDbLine
 10
1349.2
 20
157.725
 30
0.0
 11
1347.15
 21
157.927
 31
0.0
  0
LINE
  5
32
330
17
100
AcDbEntity
  8
0
100
AcDbLine
 10
1347.15
 20
157.927
 30
0.0
 11
1345.17
 21
158.526
 31
0.0
  0
LINE
  5
33
330
17
100
AcDbEntity
  8
0
100
AcDbLine
 10
1345.17
 20
158.526
 30
0.0
 11
1343.35
 21
159.499
 31
0.0
  0
LINE
  5
34
330
17
100
AcDbEntity
  8
0
100
AcDbLine
 10
1343.35
 20
159.499
 30
0.0
 11
1341.76
 21
160.808
 31
0.0
  0
LINE
  5
35
330
17
100
AcDbEntity
  8
0
100
AcDbLine
 10
1341.76
 20
160.808
 30
0.0
 11
1340.45
 21
162.403
 31
0.0
  0
LINE
  5
36
330
17
100
AcDbEntity
  8
0
100
AcDbLine
 10
1340.45
 20
162.403
 30
0.0
 11
1339.48
 21
164.222
 31
0.0
  0
LINE
  5
37
330
17
100
AcDbEntity
  8
0
100
AcDbLine
 10
1339.48
 20
164.222
 30
0.0
 11
1338.88
 21
166.197
 31
0.0
  0
LINE
  5
38
330
17
100
AcDbEntity
  8
0
100
AcDbLine
 10
1338.88
 20
166.197
 30
0.0
 11
1338.68
 21
168.25
 31
0.0
  0
LINE
  5
39
330
17
100
AcDbEntity
  8
0
100
AcDbLine
 10
1338.68
 20
168.25
 30
0.0
 11
1338.88
 21
170.303
 31
0.0
  0
LINE
  5
3A
330
17
100
AcDbEntity
  8
0
100
AcDbLine
 10
1338.88
 20
170.303
 30
0.0
 11
1339.48
 21
172.278
 31
0.0
  0
LINE
  5
3B
330
17
100
AcDbEntity
  8
0
100
AcDbLine
 10
1339.48
 20
172.278
 30
0.0
 11
1340.45
 21
174.097
 31
0.0
  0
LINE
  5
3C
330
17
100
AcDbEntity
  8
0
100
AcDbLine
 10
1340.45
 20
174.097
 30
0.0
 11
1341.76
 21
175.692
 31
0.0
  0
LINE
  5
3D
330
17
100
AcDbEntity
  8
0
100
AcDbLine
 10
1341.76
 20
175.692
 30
0.0
 11
1343.35
 21
177.001
 31
0.0
  0
LINE
  5
3E
330
17
100
AcDbEntity
  8
0
100
AcDbLine
 10
1343.35
 20
177.001
 30
0.0
 11
1345.17
 21
177.974
 31
0.0
  0
LINE
  5
3F
330
17
100
AcDbEntity
  8
0
100
AcDbLine
 10
1345.17
 20
177.974
 30
0.0
 11
1347.15
 21
178.573
 31
0.0
  0
LINE
  5
40
330
17
100
AcDbEntity
  8
0
100
AcDbLine
 10
1347.15
 20
178.573
 30
0.0
 11
1349.2
 21
178.775
 31
0.0
  0
LINE
  5
41
330
17
100
AcDbEntity
  8
0
100
AcDbLine
 10
1349.2
 20
178.775
 30
0.0
 11
1349.2
 21
958.25
 31
0.0
  0
LINE
  5
42
330
17
100
AcDbEntity
  8
0
100
AcDbLine
 10
1349.2
 20
958.25
 30
0.0
 11
1349.01
 21
960.201
 31
0.0
  0
LINE
  5
43
330
17
100
AcDbEntity
  8
0
100
AcDbLine
 10
1349.01
 20
960.201
 30
0.0
 11
1348.44
 21
962.077
 31
0.0
  0
LINE
  5
44
330
17
100
AcDbEntity
  8
0
100
AcDbLine
 10
1348.44
 20
962.077
 30
0.0
 11
1347.51
 21
963.806
 31
0.0
  0
LINE
  5
45
330
17
100
AcDbEntity
  8
0
100
AcDbLine
 10
1347.51
 20
963.806
 30
0.0
 11
1346.27
 21
965.321
 31
0.0
  0
LINE
  5
46
330
17
100
AcDbEntity
  8
0
100
AcDbLine
 10
1346.27
 20
965.321
 30
0.0
 11
1344.76
 21
966.565
 31
0.0
  0
LINE
  5
47
330
17
100
AcDbEntity
  8
0
100
AcDbLine
 10
1344.76
 20
966.565
 30
0.0
 11
1343.03
 21
967.489
 31
0.0
  0
LINE
  5
48
330
17
100
AcDbEntity
  8
0
100
AcDbLine
 10
1343.03
 20
967.489
 30
0.0
 11
1341.15
 21
968.058
 31
0.0
  0
LINE
  5
49
330
17
100
AcDbEntity
  8
0
100
AcDbLine
 10
1341.15
 20
968.058
 30
0.0
 11
1339.2
 21
968.25
 31
0.0
  0
LINE
  5
4A
330
17
100
AcDbEntity
  8
0
100
AcDbLine
 10
1339.2
 20
968.25
 30
0.0
 11
1155.12
 21
968.25
 31
0.0
  0
LINE
  5
4B
330
17
100
AcDbEntity
  8
0
100
AcDbLine
 10
1155.12
 20
968.25
 30
0.0
 11
1152.32
 21
967.849
 31
0.0
  0
LINE
  5
4C
330
17
100
AcDbEntity
  8
0
100
AcDbLine
 10
1152.32
 20
967.849
 30
0.0
 11
1150.5
 21
967.117
 31
0.0
  0
LINE
  5
4D
330
17
100
AcDbEntity
  8
0
100
AcDbLine
 10
1150.5
 20
967.117
 30
0.0
 11
1148.86
 21
966.045
 31
0.0
  0
LINE
  5
4E
330
17
100
AcDbEntity
  8
0
100
AcDbLine
 10
1148.86
 20
966.045
 30
0.0
 11
1147.46
 21
964.674
 31
0.0
  0
LINE
  5
4F
330
17
100
AcDbEntity
  8
0
100
AcDbLine
 10
1147.46
 20
964.674
 30
0.0
 11
1146.35
 21
963.055
 31
0.0
  0
LINE
  5
50
330
17
100
AcDbEntity
  8
0
100
AcDbLine
 10
1146.35
 20
963.055
 30
0.0
 11
1049.43
 21
786.152
 31
0.0
  0
LINE
  5
51
330
17
100
AcDbEntity
  8
0
100
AcDbLine
 10
1049.43
 20
786.152
 30
0.0
 11
1049.17
 21
785.765
 31
0.0
  0
LINE
  5
52
330
17
100
AcDbEntity
  8
0
100
AcDbLine
 10
1049.17
 20
785.765
 30
0.0
 11
1048.77
 21
785.5
 31
0.0
  0
LINE
  5
53
330
17
100
AcDbEntity
  8
0
100
AcDbLine
 10
1048.77
 20
785.5
 30
0.0
 11
527.69
 21
511.822
 31
0.0
  0
LINE
  5
54
330
17
100
AcDbEntity
  8
0
100
AcDbLine
 10
527.69
 20
511.822
 30
0.0
 11
534.151
 21
501.763
 31
0.0
  0
LINE
  5
55
330
17
100
AcDbEntity
  8
0
100
AcDbLine
 10
534.151
 20
501.763
 30
0.0
 11
555.151
 21
472.32
 31
0.0
  0
LINE
  5
56
330
17
100
AcDbEntity
  8
0
100
AcDbLine
 10
555.151
 20
472.32
 30
0.0
 11
577.56
 21
443.934
 31
0.0
  0
LINE
  5
57
330
17
100
AcDbEntity
  8
0
100
AcDbLine
 10
577.56
 20
443.934
 30
0.0
 11
578.101
 21
443.093
 31
0.0
  0
LINE
  5
58
330
17
100
AcDbEntity
  8
0
100
AcDbLine
 10
578.101
 20
443.093
 30
0.0
 11
565.728
 21
363.07
 31
0.0
  0
LINE
  5
59
330
17
100
AcDbEntity
  8
0
100
AcDbLine
 10
565.728
 20
363.07
 30
0.0
 11
561.035
 21
350.027
 31
0.0
  0
LINE
  5
5A
330
17
100
AcDbEntity
  8
0
100
AcDbLine
 10
561.035
 20
350.027
 30
0.0
 11
553.126
 21
338.643
 31
0.0
  0
LINE
  5
5B
330
17
100
AcDbEntity
  8
0
100
AcDbLine
 10
553.126
 20
338.643
 30
0.0
 11
542.539
 21
329.694
 31
0.0
  0
LINE
  5
5C
330
17
100
AcDbEntity
  8
0
100
AcDbLine
 10
542.539
 20
329.694
 30
0.0
 11
529.998
 21
323.79
 31
0.0
  0
LINE
  5
5D
330
17
100
AcDbEntity
  8
0
100
AcDbLine
 10
529.998
 20
323.79
 30
0.0
 11
516.355
 21
321.333
 31
0.0
  0
LINE
  5
5E
330
17
100
AcDbEntity
  8
0
100
AcDbLine
 10
516.355
 20
321.333
 30
0.0
 11
502.542
 21
322.491
 31
0.0
  0
LINE
  5
5F
330
17
100
AcDbEntity
  8
0
100
AcDbLine
 10
502.542
 20
322.491
 30
0.0
 11
424.625
 21
344.529
 31
0.0
  0
LINE
  5
60
330
17
100
AcDbEntity
  8
0
100
AcDbLine
 10
424.625
 20
344.529
 30
0.0
 11
397.559
 21
380.476
 31
0.0
  0
LINE
  5
61
330
17
100
AcDbEntity
  8
0
100
AcDbLine
 10
397.559
 20
380.476
 30
0.0
 11
372.275
 21
417.698
 31
0.0
  0
LINE
  5
62
330
17
100
AcDbEntity
  8
0
100
AcDbLine
 10
372.275
 20
417.698
 30
0.0
 11
366.498
 21
427.162
 31
0.0
  0
LINE
  5
63
330
17
100
AcDbEntity
  8
0
100
AcDbLine
 10
366.498
 20
427.162
 30
0.0
 11
151.753
 21
314.374
 31
0.0
  0
LINE
  5
64
330
17
100
AcDbEntity
  8
0
100
AcDbLine
 10
151.753
 20
314.374
 30
0.0
 11
150.332
 21
313.467
 31
0.0
  0
LINE
  5
65
330
17
100
AcDbEntity
  8
0
100
AcDbLine
 10
150.332
 20
313.467
 30
0.0
 11
148.898
 21
312.129
 31
0.0
  0
LINE
  5
66
330
17
100
AcDbEntity
  8
0
100
AcDbLine
 10
148.898
 20
312.129
 30
0.0
 11
147.753
 21
310.538
 31
0.0
  0
LINE
  5
67
330
17
100
AcDbEntity
  8
0
100
AcDbLine
 10
147.753
 20
310.538
 30
0.0
 11
1.90735e-07
 21
55.8248
 31
0.0
  0
LINE
  5
68
330
17
100
AcDbEntity
  8
0
100
AcDbLine
 10
1.90735e-07
 20
55.8248
 30
0.0
 11
1.90735e-07
 21
0.0
 31
0.0
  0
LINE
  5
69
330
17
100
AcDbEntity
  8
0
100
AcDbLine
 10
19.6375
 20
30.48
 30
0.0
 11
20.0
 21
32.3025
 31
0.0
  0
LINE
  5
6A
330
17
100
AcDbEntity
  8
0
100
AcDbLine
 10
20.0
 20
32.3025
 30
0.0
 11
21.0324
 21
33.8476
 31
0.0
  0
LINE
  5
6B
330
17
100
AcDbEntity
  8
0
100
AcDbLine
 10
21.0324
 20
33.8476
 30
0.0
 11
22.5775
 21
34.88
 31
0.0
  0
LINE
  5
6C
330
17
100
AcDbEntity
  8
0
100
AcDbLine
 10
22.5775
 20
34.88
 30
0.0
 11
24.4
 21
35.2425
 31
0.0
  0
LINE
  5
6D
330
17
100
AcDbEntity
  8
0
100
AcDbLine
 10
24.4
 20
35.2425
 30
0.0
 11
26.2225
 21
34.88
 31
0.0
  0
LINE
  5
6E
330
17
100
AcDbEntity
  8
0
100
AcDbLine
 10
26.2225
 20
34.88
 30
0.0
 11
27.7676
 21
33.8476
 31
0.0
  0
LINE
  5
6F
330
17
100
AcDbEntity
  8
0
100
AcDbLine
 10
27.7676
 20
33.8476
 30
0.0
 11
28.8
 21
32.3025
 31
0.0
  0
LINE
  5
70
330
17
100
AcDbEntity
  8
0
100
AcDbLine
 10
28.8
 20
32.3025
 30
0.0
 11
29.1625
 21
30.48
 31
0.0
  0
LINE
  5
71
330
17
100
AcDbEntity
  8
0
100
AcDbLine
 10
29.1625
 20
30.48
 30
0.0
 11
28.8
 21
28.6575
 31
0.0
  0
LINE
  5
72
330
17
100
AcDbEntity
  8
0
100
AcDbLine
 10
28.8
 20
28.6575
 30
0.0
 11
27.7676
 21
27.1124
 31
0.0
  0
LINE
  5
73
330
17
100
AcDbEntity
  8
0
100
AcDbLine
 10
27.7676
 20
27.1124
 30
0.0
 11
26.2225
 21
26.08
 31
0.0
  0
LINE
  5
74
330
17
100
AcDbEntity
  8
0
100
AcDbLine
 10
26.2225
 20
26.08
 30
0.0
 11
24.4
 21
25.7175
 31
0.0
  0
LINE
  5
75
330
17
100
AcDbEntity
  8
0
100
AcDbLine
 10
24.4
 20
25.7175
 30
0.0
 11
22.5775
 21
26.08
 31
0.0
  0
LINE
  5
76
330
17
100
AcDbEntity
  8
0
100
AcDbLine
 10
22.5775
 20
26.08
 30
0.0
 11
21.0324
 21
27.1124
 31
0.0
  0
LINE
  5
77
330
17
100
AcDbEntity
  8
0
100
AcDbLine
 10
21.0324
 20
27.1124
 30
0.0
 11
20.0
 21
28.6575
 31
0.0
  0
LINE
  5
78
330
17
100
AcDbEntity
  8
0
100
AcDbLine
 10
20.0
 20
28.6575
 30
0.0
 11
19.6375
 21
30.48
 31
0.0
  0
LINE
  5
79
330
17
100
AcDbEntity
  8
0
100
AcDbLine
 10
68.4375
 20
30.48
 30
0.0
 11
68.8
 21
32.3025
 31
0.0
  0
LINE
  5
7A
330
17
100
AcDbEntity
  8
0
100
AcDbLine
 10
68.8
 20
32.3025
 30
0.0
 11
69.8324
 21
33.8476
 31
0.0
  0
LINE
  5
7B
330
17
100
AcDbEntity
  8
0
100
AcDbLine
 10
69.8324
 20
33.8476
 30
0.0
 11
71.3775
 21
34.88
 31
0.0
  0
LINE
  5
7C
330
17
100
AcDbEntity
  8
0
100
AcDbLine
 10
71.3775
 20
34.88
 30
0.0
 11
73.2
 21
35.2425
 31
0.0
  0
LINE
  5
7D
330
17
100
AcDbEntity
  8
0
100
AcDbLine
 10
73.2
 20
35.2425
 30
0.0
 11
75.0225
 21
34.88
 31
0.0
  0
LINE
  5
7E
330
17
100
AcDbEntity
  8
0
100
AcDbLine
 10
75.0225
 20
34.88
 30
0.0
 11
76.5676
 21
33.8476
 31
0.0
  0
LINE
  5
7F
330
17
100
AcDbEntity
  8
0
100
AcDbLine
 10
76.5676
 20
33.8476
 30
0.0
 11
77.6
 21
32.3025
 31
0.0
  0
LINE
  5
80
330
17
100
AcDbEntity
  8
0
100
AcDbLine
 10
77.6
 20
32.3025
 30
0.0
 11
77.9625
 21
30.48
 31
0.0
  0
LINE
  5
81
330
17
100
AcDbEntity
  8
0
100
AcDbLine
 10
77.9625
 20
30.48
 30
0.0
 11
77.6
 21
28.6575
 31
0.0
  0
LINE
  5
82
330
17
100
AcDbEntity
  8
0
100
AcDbLine
 10
77.6
 20
28.6575
 30
0.0
 11
76.5676
 21
27.1124
 31
0.0
  0
LINE
  5
83
330
17
100
AcDbEntity
  8
0
100
AcDbLine
 10
76.5676
 20
27.1124
 30
0.0
 11
75.0225
 21
26.08
 31
0.0
  0
LINE
  5
84
330
17
100
AcDbEntity
  8
0
100
AcDbLine
 10
75.0225
 20
26.08
 30
0.0
 11
73.2
 21
25.7175
 31
0.0
  0
LINE
  5
85
330
17
100
AcDbEntity
  8
0
100
AcDbLine
 10
73.2
 20
25.7175
 30
0.0
 11
71.3775
 21
26.08
 31
0.0
  0
LINE
  5
86
330
17
100
AcDbEntity
  8
0
100
AcDbLine
 10
71.3775
 20
26.08
 30
0.0
 11
69.8324
 21
27.1124
 31
0.0
  0
LINE
  5
87
330
17
100
AcDbEntity
  8
0
100
AcDbLine
 10
69.8324
 20
27.1124
 30
0.0
 11
68.8
 21
28.6575
 31
0.0
  0
LINE
  5
88
330
17
100
AcDbEntity
  8
0
100
AcDbLine
 10
68.8
 20
28.6575
 30
0.0
 11
68.4375
 21
30.48
 31
0.0
  0
LINE
  5
89
330
17
100
AcDbEntity
  8
0
100
AcDbLine
 10
137.261
 20
71.4108
 30
0.0
 11
137.744
 21
73.8409
 31
0.0
  0
LINE
  5
8A
330
17
100
AcDbEntity
  8
0
100
AcDbLine
 10
137.744
 20
73.8409
 30
0.0
 11
139.121
 21
75.9009
 31
0.0
  0
LINE
  5
8B
330
17
100
AcDbEntity
  8
0
100
AcDbLine
 10
139.121
 20
75.9009
 30
0.0
 11
141.181
 21
77.2775
 31
0.0
  0
LINE
  5
8C
330
17
100
AcDbEntity
  8
0
100
AcDbLine
 10
141.181
 20
77.2775
 30
0.0
 11
143.611
 21
77.7608
 31
0.0
  0
LINE
  5
8D
330
17
100
AcDbEntity
  8
0
100
AcDbLine
 10
143.611
 20
77.7608
 30
0.0
 11
146.041
 21
77.2775
 31
0.0
  0
LINE
  5
8E
330
17
100
AcDbEntity
  8
0
100
AcDbLine
 10
146.041
 20
77.2775
 30
0.0
 11
148.101
 21
75.9009
 31
0.0
  0
LINE
  5
8F
330
17
100
AcDbEntity
  8
0
100
AcDbLine
 10
148.101
 20
75.9009
 30
0.0
 11
149.477
 21
73.8409
 31
0.0
  0
LINE
  5
90
330
17
100
AcDbEntity
  8
0
100
AcDbLine
 10
149.477
 20
73.8409
 30
0.0
 11
149.961
 21
71.4108
 31
0.0
  0
LINE
  5
91
330
17
100
AcDbEntity
  8
0
100
AcDbLine
 10
149.961
 20
71.4108
 30
0.0
 11
149.477
 21
68.9808
 31
0.0
  0
LINE
  5
92
330
17
100
AcDbEntity
  8
0
100
AcDbLine
 10
149.477
 20
68.9808
 30
0.0
 11
148.101
 21
66.9207
 31
0.0
  0
LINE
  5
93
330
17
100
AcDbEntity
  8
0
100
AcDbLine
 10
148.101
 20
66.9207
 30
0.0
 11
146.041
 21
65.5442
 31
0.0
  0
LINE
  5
94
330
17
100
AcDbEntity
  8
0
100
AcDbLine
 10
146.041
 20
65.5442
 30
0.0
 11
143.611
 21
65.0608
 31
0.0
  0
LINE
  5
95
330
17
100
AcDbEntity
  8
0
100
AcDbLine
 10
143.611
 20
65.0608
 30
0.0
 11
141.181
 21
65.5442
 31
0.0
  0
LINE
  5
96
330
17
100
AcDbEntity
  8
0
100
AcDbLine
 10
141.181
 20
65.5442
 30
0.0
 11
139.121
 21
66.9207
 31
0.0
  0
LINE
  5
97
330
17
100
AcDbEntity
  8
0
100
AcDbLine
 10
139.121
 20
66.9207
 30
0.0
 11
137.744
 21
68.9808
 31
0.0
  0
LINE
  5
98
330
17
100
AcDbEntity
  8
0
100
AcDbLine
 10
137.744
 20
68.9808
 30
0.0
 11
137.261
 21
71.4108
 31
0.0
  0
LINE
  5
99
330
17
100
AcDbEntity
  8
0
100
AcDbLine
 10
137.261
 20
182.589
 30
0.0
 11
137.744
 21
185.019
 31
0.0
  0
LINE
  5
9A
330
17
100
AcDbEntity
  8
0
100
AcDbLine
 10
137.744
 20
185.019
 30
0.0
 11
139.121
 21
187.079
 31
0.0
  0
LINE
  5
9B
330
17
100
AcDbEntity
  8
0
100
AcDbLine
 10
139.121
 20
187.079
 30
0.0
 11
141.181
 21
188.456
 31
0.0
  0
LINE
  5
9C
330
17
100
AcDbEntity
  8
0
100
AcDbLine
 10
141.181
 20
188.456
 30
0.0
 11
143.611
 21
188.939
 31
0.0
  0
LINE
  5
9D
330
17
100
AcDbEntity
  8
0
100
AcDbLine
 10
143.611
 20
188.939
 30
0.0
 11
146.041
 21
188.456
 31
0.0
  0
LINE
  5
9E
330
17
100
AcDbEntity
  8
0
100
AcDbLine
 10
146.041
 20
188.456
 30
0.0
 11
148.101
 21
187.079
 31
0.0
  0
LINE
  5
9F
330
17
100
AcDbEntity
  8
0
100
AcDbLine
 10
148.101
 20
187.079
 30
0.0
 11
149.477
 21
185.019
 31
0.0
  0
LINE
  5
A0
330
17
100
AcDbEntity
  8
0
100
AcDbLine
 10
149.477
 20
185.019
 30
0.0
 11
149.961
 21
182.589
 31
0.0
  0
LINE
  5
A1
330
17
100
AcDbEntity
  8
0
100
AcDbLine
 10
149.961
 20
182.589
 30
0.0
 11
149.477
 21
180.159
 31
0.0
  0
LINE
  5
A2
330
17
100
AcDbEntity
  8
0
100
AcDbLine
 10
149.477
 20
180.159
 30
0.0
 11
148.101
 21
178.099
 31
0.0
  0
LINE
  5
A3
330
17
100
AcDbEntity
  8
0
100
AcDbLine
 10
148.101
 20
178.099
 30
0.0
 11
146.041
 21
176.723
 31
0.0
  0
LINE
  5
A4
330
17
100
AcDbEntity
  8
0
100
AcDbLine
 10
146.041
 20
176.723
 30
0.0
 11
143.611
 21
176.239
 31
0.0
  0
LINE
  5
A5
330
17
100
AcDbEntity
  8
0
100
AcDbLine
 10
143.611
 20
176.239
 30
0.0
 11
141.181
 21
176.723
 31
0.0
  0
LINE
  5
A6
330
17
100
AcDbEntity
  8
0
100
AcDbLine
 10
141.181
 20
176.723
 30
0.0
 11
139.121
 21
178.099
 31
0.0
  0
LINE
  5
A7
330
17
100
AcDbEntity
  8
0
100
AcDbLine
 10
139.121
 20
178.099
 30
0.0
 11
137.744
 21
180.159
 31
0.0
  0
LINE
  5
A8
330
17
100
AcDbEntity
  8
0
100
AcDbLine
 10
137.744
 20
180.159
 30
0.0
 11
137.261
 21
182.589
 31
0.0
  0
LINE
  5
A9
330
17
100
AcDbEntity
  8
0
100
AcDbLine
 10
173.8
 20
127.0
 30
0.0
 11
174.288
 21
131.955
 31
0.0
  0
LINE
  5
AA
330
17
100
AcDbEntity
  8
0
100
AcDbLine
 10
174.288
 20
131.955
 30
0.0
 11
175.733
 21
136.72
 31
0.0
  0
LINE
  5
AB
330
17
100
AcDbEntity
  8
0
100
AcDbLine
 10
175.733
 20
136.72
 30
0.0
 11
178.081
 21
141.111
 31
0.0
  0
LINE
  5
AC
330
17
100
AcDbEntity
  8
0
100
AcDbLine
 10
178.081
 20
141.111
 30
0.0
 11
181.239
 21
144.961
 31
0.0
  0
LINE
  5
AD
330
17
100
AcDbEntity
  8
0
100
AcDbLine
 10
181.239
 20
144.961
 30
0.0
 11
185.089
 21
148.119
 31
0.0
  0
LINE
  5
AE
330
17
100
AcDbEntity
  8
0
100
AcDbLine
 10
185.089
 20
148.119
 30
0.0
 11
189.48
 21
150.467
 31
0.0
  0
LINE
  5
AF
330
17
100
AcDbEntity
  8
0
100
AcDbLine
 10
189.48
 20
150.467
 30
0.0
 11
194.245
 21
151.912
 31
0.0
  0
LINE
  5
B0
330
17
100
AcDbEntity
  8
0
100
AcDbLine
 10
194.245
 20
151.912
 30
0.0
 11
199.2
 21
152.4
 31
0.0
  0
LINE
  5
B1
330
17
100
AcDbEntity
  8
0
100
AcDbLine
 10
199.2
 20
152.4
 30
0.0
 11
204.155
 21
151.912
 31
0.0
  0
LINE
  5
B2
330
17
100
AcDbEntity
  8
0
100
AcDbLine
 10
204.155
 20
151.912
 30
0.0
 11
208.92
 21
150.467
 31
0.0
  0
LINE
  5
B3
330
17
100
AcDbEntity
  8
0
100
AcDbLine
 10
208.92
 20
150.467
 30
0.0
 11
213.311
 21
148.119
 31
0.0
  0
LINE
  5
B4
330
17
100
AcDbEntity
  8
0
100
AcDbLine
 10
213.311
 20
148.119
 30
0.0
 11
217.161
 21
144.961
 31
0.0
  0
LINE
  5
B5
330
17
100
AcDbEntity
  8
0
100
AcDbLine
 10
217.161
 20
144.961
 30
0.0
 11
220.319
 21
141.111
 31
0.0
  0
LINE
  5
B6
330
17
100
AcDbEntity
  8
0
100
AcDbLine
 10
220.319
 20
141.111
 30
0.0
 11
222.667
 21
136.72
 31
0.0
  0
LINE
  5
B7
330
17
100
AcDbEntity
  8
0
100
AcDbLine
 10
222.667
 20
136.72
 30
0.0
 11
224.112
 21
131.955
 31
0.0
  0
LINE
  5
B8
330
17
100
AcDbEntity
  8
0
100
AcDbLine
 10
224.112
 20
131.955
 30
0.0
 11
224.6
 21
127.0
 31
0.0
  0
LINE
  5
B9
330
17
100
AcDbEntity
  8
0
100
AcDbLine
 10
224.6
 20
127.0
 30
0.0
 11
224.112
 21
122.045
 31
0.0
  0
LINE
  5
BA
330
17
100
AcDbEntity
  8
0
100
AcDbLine
 10
224.112
 20
122.045
 30
0.0
 11
222.667
 21
117.28
 31
0.0
  0
LINE
  5
BB
330
17
100
AcDbEntity
  8
0
100
AcDbLine
 10
222.667
 20
117.28
 30
0.0
 11
220.319
 21
112.889
 31
0.0
  0
LINE
  5
BC
330
17
100
AcDbEntity
  8
0
100
AcDbLine
 10
220.319
 20
112.889
 30
0.0
 11
217.161
 21
109.039
 31
0.0
  0
LINE
  5
BD
330
17
100
AcDbEntity
  8
0
100
AcDbLine
 10
217.161
 20
109.039
 30
0.0
 11
213.311
 21
105.881
 31
0.0
  0
LINE
  5
BE
330
17
100
AcDbEntity
  8
0
100
AcDbLine
 10
213.311
 20
105.881
 30
0.0
 11
208.92
 21
103.533
 31
0.0
  0
LINE
  5
BF
330
17
100
AcDbEntity
  8
0
100
AcDbLine
 10
208.92
 20
103.533
 30
0.0
 11
204.155
 21
102.088
 31
0.0
  0
LINE
  5
C0
330
17
100
AcDbEntity
  8
0
100
AcDbLine
 10
204.155
 20
102.088
 30
0.0
 11
199.2
 21
101.6
 31
0.0
  0
LINE
  5
C1
330
17
100
AcDbEntity
  8
0
100
AcDbLine
 10
199.2
 20
101.6
 30
0.0
 11
194.245
 21
102.088
 31
0.0
  0
LINE
  5
C2
330
17
100
AcDbEntity
  8
0
100
AcDbLine
 10
194.245
 20
102.088
 30
0.0
 11
189.48
 21
103.533
 31
0.0
  0
LINE
  5
C3
330
17
100
AcDbEntity
  8
0
100
AcDbLine
 10
189.48
 20
103.533
 30
0.0
 11
185.089
 21
105.881
 31
0.0
  0
LINE
  5
C4
330
17
100
AcDbEntity
  8
0
100
AcDbLine
 10
185.089
 20
105.881
 30
0.0
 11
181.239
 21
109.039
 31
0.0
  0
LINE
  5
C5
330
17
100
AcDbEntity
  8
0
100
AcDbLine
 10
181.239
 20
109.039
 30
0.0
 11
178.081
 21
112.889
 31
0.0
  0
LINE
  5
C6
330
17
100
AcDbEntity
  8
0
100
AcDbLine
 10
178.081
 20
112.889
 30
0.0
 11
175.733
 21
117.28
 31
0.0
  0
LINE
  5
C7
330
17
100
AcDbEntity
  8
0
100
AcDbLine
 10
175.733
 20
117.28
 30
0.0
 11
174.288
 21
122.045
 31
0.0
  0
LINE
  5
C8
330
17
100
AcDbEntity
  8
0
100
AcDbLine
 10
174.288
 20
122.045
 30
0.0
 11
173.8
 21
127.0
 31
0.0
  0
LINE
  5
C9
330
17
100
AcDbEntity
  8
0
100
AcDbLine
 10
248.439
 20
71.4108
 30
0.0
 11
248.923
 21
73.8409
 31
0.0
  0
LINE
  5
CA
330
17
100
AcDbEntity
  8
0
100
AcDbLine
 10
248.923
 20
73.8409
 30
0.0
 11
250.299
 21
75.9009
 31
0.0
  0
LINE
  5
CB
330
17
100
AcDbEntity
  8
0
100
AcDbLine
 10
250.299
 20
75.9009
 30
0.0
 11
252.359
 21
77.2775
 31
0.0
  0
LINE
  5
CC
330
17
100
AcDbEntity
  8
0
100
AcDbLine
 10
252.359
 20
77.2775
 30
0.0
 11
254.789
 21
77.7608
 31
0.0
  0
LINE
  5
CD
330
17
100
AcDbEntity
  8
0
100
AcDbLine
 10
254.789
 20
77.7608
 30
0.0
 11
257.219
 21
77.2775
 31
0.0
  0
LINE
  5
CE
330
17
100
AcDbEntity
  8
0
100
AcDbLine
 10
257.219
 20
77.2775
 30
0.0
 11
259.279
 21
75.9009
 31
0.0
  0
LINE
  5
CF
330
17
100
AcDbEntity
  8
0
100
AcDbLine
 10
259.279
 20
75.9009
 30
0.0
 11
260.656
 21
73.8409
 31
0.0
  0
LINE
  5
D0
330
17
100
AcDbEntity
  8
0
100
AcDbLine
 10
260.656
 20
73.8409
 30
0.0
 11
261.139
 21
71.4108
 31
0.0
  0
LINE
  5
D1
330
17
100
AcDbEntity
  8
0
100
AcDbLine
 10
261.139
 20
71.4108
 30
0.0
 11
260.656
 21
68.9808
 31
0.0
  0
LINE
  5
D2
330
17
100
AcDbEntity
  8
0
100
AcDbLine
 10
260.656
 20
68.9808
 30
0.0
 11
259.279
 21
66.9207
 31
0.0
  0
LINE
  5
D3
330
17
100
AcDbEntity
  8
0
100
AcDbLine
 10
259.279
 20
66.9207
 30
0.0
 11
257.219
 21
65.5442
 31
0.0
  0
LINE
  5
D4
330
17
100
AcDbEntity
  8
0
100
AcDbLine
 10
257.219
 20
65.5442
 30
0.0
 11
254.789
 21
65.0608
 31
0.0
  0
LINE
  5
D5
330
17
100
AcDbEntity
  8
0
100
AcDbLine
 10
254.789
 20
65.0608
 30
0.0
 11
252.359
 21
65.5442
 31
0.0
  0
LINE
  5
D6
330
17
100
AcDbEntity
  8
0
100
AcDbLine
 10
252.359
 20
65.5442
 30
0.0
 11
250.299
 21
66.9207
 31
0.0
  0
LINE
  5
D7
330
17
100
AcDbEntity
  8
0
100
AcDbLine
 10
250.299
 20
66.9207
 30
0.0
 11
248.923
 21
68.9808
 31
0.0
  0
LINE
  5
D8
330
17
100
AcDbEntity
  8
0
100
AcDbLine
 10
248.923
 20
68.9808
 30
0.0
 11
248.439
 21
71.4108
 31
0.0
  0
LINE
  5
D9
330
17
100
AcDbEntity
  8
0
100
AcDbLine
 10
248.439
 20
182.589
 30
0.0
 11
248.923
 21
185.019
 31
0.0
  0
LINE
  5
DA
330
17
100
AcDbEntity
  8
0
100
AcDbLine
 10
248.923
 20
185.019
 30
0.0
 11
250.299
 21
187.079
 31
0.0
  0
LINE
  5
DB
330
17
100
AcDbEntity
  8
0
100
AcDbLine
 10
250.299
 20
187.079
 30
0.0
 11
252.359
 21
188.456
 31
0.0
  0
LINE
  5
DC
330
17
100
AcDbEntity
  8
0
100
AcDbLine
 10
252.359
 20
188.456
 30
0.0
 11
254.789
 21
188.939
 31
0.0
  0
LINE
  5
DD
330
17
100
AcDbEntity
  8
0
100
AcDbLine
 10
254.789
 20
188.939
 30
0.0
 11
257.219
 21
188.456
 31
0.0
  0
LINE
  5
DE
330
17
100
AcDbEntity
  8
0
100
AcDbLine
 10
257.219
 20
188.456
 30
0.0
 11
259.279
 21
187.079
 31
0.0
  0
LINE
  5
DF
330
17
100
AcDbEntity
  8
0
100
AcDbLine
 10
259.279
 20
187.079
 30
0.0
 11
260.656
 21
185.019
 31
0.0
  0
LINE
  5
E0
330
17
100
AcDbEntity
  8
0
100
AcDbLine
 10
260.656
 20
185.019
 30
0.0
 11
261.139
 21
182.589
 31
0.0
  0
LINE
  5
E1
330
17
100
AcDbEntity
  8
0
100
AcDbLine
 10
261.139
 20
182.589
 30
0.0
 11
260.656
 21
180.159
 31
0.0
  0
LINE
  5
E2
330
17
100
AcDbEntity
  8
0
100
AcDbLine
 10
260.656
 20
180.159
 30
0.0
 11
259.279
 21
178.099
 31
0.0
  0
LINE
  5
E3
330
17
100
AcDbEntity
  8
0
100
AcDbLine
 10
259.279
 20
178.099
 30
0.0
 11
257.219
 21
176.723
 31
0.0
  0
LINE
  5
E4
330
17
100
AcDbEntity
  8
0
100
AcDbLine
 10
257.219
 20
176.723
 30
0.0
 11
254.789
 21
176.239
 31
0.0
  0
LINE
  5
E5
330
17
100
AcDbEntity
  8
0
100
AcDbLine
 10
254.789
 20
176.239
 30
0.0
 11
252.359
 21
176.723
 31
0.0
  0
LINE
  5
E6
330
17
100
AcDbEntity
  8
0
100
AcDbLine
 10
252.359
 20
176.723
 30
0.0
 11
250.299
 21
178.099
 31
0.0
  0
LINE
  5
E7
330
17
100
AcDbEntity
  8
0
100
AcDbLine
 10
250.299
 20
178.099
 30
0.0
 11
248.923
 21
180.159
 31
0.0
  0
LINE
  5
E8
330
17
100
AcDbEntity
  8
0
100
AcDbLine
 10
248.923
 20
180.159
 30
0.0
 11
248.439
 21
182.589
 31
0.0
  0
LINE
  5
E9
330
17
100
AcDbEntity
  8
0
100
AcDbLine
 10
351.6
 20
53.975
 30
0.0
 11
351.6
 21
200.025
 31
0.0
  0
LINE
  5
EA
330
17
100
AcDbEntity
  8
0
100
AcDbLine
 10
351.6
 20
200.025
 30
0.0
 11
351.661
 21
200.644
 31
0.0
  0
LINE
  5
EB
330
17
100
AcDbEntity
  8
0
100
AcDbLine
 10
351.661
 20
200.644
 30
0.0
 11
351.842
 21
201.24
 31
0.0
  0
LINE
  5
EC
330
17
100
AcDbEntity
  8
0
100
AcDbLine
 10
351.842
 20
201.24
 30
0.0
 11
352.135
 21
201.789
 31
0.0
  0
LINE
  5
ED
330
17
100
AcDbEntity
  8
0
100
AcDbLine
 10
352.135
 20
201.789
 30
0.0
 11
352.53
 21
202.27
 31
0.0
  0
LINE
  5
EE
330
17
100
AcDbEntity
  8
0
100
AcDbLine
 10
352.53
 20
202.27
 30
0.0
 11
353.011
 21
202.665
 31
0.0
  0
LINE
  5
EF
330
17
100
AcDbEntity
  8
0
100
AcDbLine
 10
353.011
 20
202.665
 30
0.0
 11
353.56
 21
202.958
 31
0.0
  0
LINE
  5
F0
330
17
100
AcDbEntity
  8
0
100
AcDbLine
 10
353.56
 20
202.958
 30
0.0
 11
354.156
 21
203.139
 31
0.0
  0
LINE
  5
F1
330
17
100
AcDbEntity
  8
0
100
AcDbLine
 10
354.156
 20
203.139
 30
0.0
 11
354.775
 21
203.2
 31
0.0
  0
LINE
  5
F2
330
17
100
AcDbEntity
  8
0
100
AcDbLine
 10
354.775
 20
203.2
 30
0.0
 11
399.225
 21
203.2
 31
0.0
  0
LINE
  5
F3
330
17
100
AcDbEntity
  8
0
100
AcDbLine
 10
399.225
 20
203.2
 30
0.0
 11
399.844
 21
203.139
 31
0.0
  0
LINE
  5
F4
330
17
100
AcDbEntity
  8
0
100
AcDbLine
 10
399.844
 20
203.139
 30
0.0
 11
400.44
 21
202.958
 31
0.0
  0
LINE
  5
F5
330
17
100
AcDbEntity
  8
0
100
AcDbLine
 10
400.44
 20
202.958
 30
0.0
 11
400.989
 21
202.665
 31
0.0
  0
LINE
  5
F6
330
17
100
AcDbEntity
  8
0
100
AcDbLine
 10
400.989
 20
202.665
 30
0.0
 11
401.47
 21
202.27
 31
0.0
  0
LINE
  5
F7
330
17
100
AcDbEntity
  8
0
100
AcDbLine
 10
401.47
 20
202.27
 30
0.0
 11
401.865
 21
201.789
 31
0.0
  0
LINE
  5
F8
330
17
100
AcDbEntity
  8
0
100
AcDbLine
 10
401.865
 20
201.789
 30
0.0
 11
402.158
 21
201.24
 31
0.0
  0
LINE
  5
F9
330
17
100
AcDbEntity
  8
0
100
AcDbLine
 10
402.158
 20
201.24
 30
0.0
 11
402.339
 21
200.644
 31
0.0
  0
LINE
  5
FA
330
17
100
AcDbEntity
  8
0
100
AcDbLine
 10
402.339
 20
200.644
 30
0.0
 11
402.4
 21
200.025
 31
0.0
  0
LINE
  5
FB
330
17
100
AcDbEntity
  8
0
100
AcDbLine
 10
402.4
 20
200.025
 30
0.0
 11
402.4
 21
53.975
 31
0.0
  0
LINE
  5
FC
330
17
100
AcDbEntity
  8
0
100
AcDbLine
 10
402.4
 20
53.975
 30
0.0
 11
402.339
 21
53.3556
 31
0.0
  0
LINE
  5
FD
330
17
100
AcDbEntity
  8
0
100
AcDbLine
 10
402.339
 20
53.3556
 30
0.0
 11
402.158
 21
52.76
 31
0.0
  0
LINE
  5
FE
330
17
100
AcDbEntity
  8
0
100
AcDbLine
 10
402.158
 20
52.76
 30
0.0
 11
401.865
 21
52.2111
 31
0.0
  0
LINE
  5
FF
330
17
100
AcDbEntity
  8
0
100
AcDbLine
 10
401.865
 20
52.2111
 30
0.0
 11
401.47
 21
51.7299
 31
0.0
  0
LINE
  5
100
330
17
100
AcDbEntity
  8
0
100
AcDbLine
 10
401.47
 20
51.7299
 30
0.0
 11
400.989
 21
51.3351
 31
0.0
  0
LINE
  5
101
330
17
100
AcDbEntity
  8
0
100
AcDbLine
 10
400.989
 20
51.3351
 30
0.0
 11
400.44
 21
51.0417
 31
0.0
  0
LINE
  5
102
330
17
100
AcDbEntity
  8
0
100
AcDbLine
 10
400.44
 20
51.0417
 30
0.0
 11
399.844
 21
50.861
 31
0.0
  0
LINE
  5
103
330
17
100
AcDbEntity
  8
0
100
AcDbLine
 10
399.844
 20
50.861
 30
0.0
 11
399.225
 21
50.8
 31
0.0
  0
LINE
  5
104
330
17
100
AcDbEntity
  8
0
100
AcDbLine
 10
399.225
 20
50.8
 30
0.0
 11
354.775
 21
50.8
 31
0.0
  0
LINE
  5
105
330
17
100
AcDbEntity
  8
0
100
AcDbLine
 10
354.775
 20
50.8
 30
0.0
 11
354.156
 21
50.861
 31
0.0
  0
LINE
  5
106
330
17
100
AcDbEntity
  8
0
100
AcDbLine
 10
354.156
 20
50.861
 30
0.0
 11
353.56
 21
51.0417
 31
0.0
  0
LINE
  5
107
330
17
100
AcDbEntity
  8
0
100
AcDbLine
 10
353.56
 20
51.0417
 30
0.0
 11
353.011
 21
51.3351
 31
0.0
  0
LINE
  5
108
330
17
100
AcDbEntity
  8
0
100
AcDbLine
 10
353.011
 20
51.3351
 30
0.0
 11
352.53
 21
51.7299
 31
0.0
  0
LINE
  5
109
330
17
100
AcDbEntity
  8
0
100
AcDbLine
 10
352.53
 20
51.7299
 30
0.0
 11
352.135
 21
52.2111
 31
0.0
  0
LINE
  5
10A
330
17
100
AcDbEntity
  8
0
100
AcDbLine
 10
352.135
 20
52.2111
 30
0.0
 11
351.842
 21
52.76
 31
0.0
  0
LINE
  5
10B
330
17
100
AcDbEntity
  8
0
100
AcDbLine
 10
351.842
 20
52.76
 30
0.0
 11
351.661
 21
53.3556
 31
0.0
  0
LINE
  5
10C
330
17
100
AcDbEntity
  8
0
100
AcDbLine
 10
351.661
 20
53.3556
 30
0.0
 11
351.6
 21
53.975
 31
0.0
  0
LINE
  5
10D
330
17
100
AcDbEntity
  8
0
100
AcDbLine
 10
460.078
 20
30.48
 30
0.0
 11
460.44
 21
32.3025
 31
0.0
  0
LINE
  5
10E
330
17
100
AcDbEntity
  8
0
100
AcDbLine
 10
460.44
 20
32.3025
 30
0.0
 11
461.472
 21
33.8476
 31
0.0
  0
LINE
  5
10F
330
17
100
AcDbEntity
  8
0
100
AcDbLine
 10
461.472
 20
33.8476
 30
0.0
 11
463.017
 21
34.88
 31
0.0
  0
LINE
  5
110
330
17
100
AcDbEntity
  8
0
100
AcDbLine
 10
463.017
 20
34.88
 30
0.0
 11
464.84
 21
35.2425
 31
0.0
  0
LINE
  5
111
330
17
100
AcDbEntity
  8
0
100
AcDbLine
 10
464.84
 20
35.2425
 30
0.0
 11
466.663
 21
34.88
 31
0.0
  0
LINE
  5
112
330
17
100
AcDbEntity
  8
0
100
AcDbLine
 10
466.663
 20
34.88
 30
0.0
 11
468.208
 21
33.8476
 31
0.0
  0
LINE
  5
113
330
17
100
AcDbEntity
  8
0
100
AcDbLine
 10
468.208
 20
33.8476
 30
0.0
 11
469.24
 21
32.3025
 31
0.0
  0
LINE
  5
114
330
17
100
AcDbEntity
  8
0
100
AcDbLine
 10
469.24
 20
32.3025
 30
0.0
 11
469.603
 21
30.48
 31
0.0
  0
LINE
  5
115
330
17
100
AcDbEntity
  8
0
100
AcDbLine
 10
469.603
 20
30.48
 30
0.0
 11
469.24
 21
28.6575
 31
0.0
  0
LINE
  5
116
330
17
100
AcDbEntity
  8
0
100
AcDbLine
 10
469.24
 20
28.6575
 30
0.0
 11
468.208
 21
27.1124
 31
0.0
  0
LINE
  5
117
330
17
100
AcDbEntity
  8
0
100
AcDbLine
 10
468.208
 20
27.1124
 30
0.0
 11
466.663
 21
26.08
 31
0.0
  0
LINE
  5
118
330
17
100
AcDbEntity
  8
0
100
AcDbLine
 10
466.663
 20
26.08
 30
0.0
 11
464.84
 21
25.7175
 31
0.0
  0
LINE
  5
119
330
17
100
AcDbEntity
  8
0
100
AcDbLine
 10
464.84
 20
25.7175
 30
0.0
 11
463.017
 21
26.08
 31
0.0
  0
LINE
  5
11A
330
17
100
AcDbEntity
  8
0
100
AcDbLine
 10
463.017
 20
26.08
 30
0.0
 11
461.472
 21
27.1124
 31
0.0
  0
LINE
  5
11B
330
17
100
AcDbEntity
  8
0
100
AcDbLine
 10
461.472
 20
27.1124
 30
0.0
 11
460.44
 21
28.6575
 31
0.0
  0
LINE
  5
11C
330
17
100
AcDbEntity
  8
0
100
AcDbLine
 10
460.44
 20
28.6575
 30
0.0
 11
460.078
 21
30.48
 31
0.0
  0
LINE
  5
11D
330
17
100
AcDbEntity
  8
0
100
AcDbLine
 10
569.438
 20
30.48
 30
0.0
 11
569.8
 21
32.3025
 31
0.0
  0
LINE
  5
11E
330
17
100
AcDbEntity
  8
0
100
AcDbLine
 10
569.8
 20
32.3025
 30
0.0
 11
570.832
 21
33.8476
 31
0.0
  0
LINE
  5
11F
330
17
100
AcDbEntity
  8
0
100
AcDbLine
 10
570.832
 20
33.8476
 30
0.0
 11
572.377
 21
34.88
 31
0.0
  0
LINE
  5
120
330
17
100
AcDbEntity
  8
0
100
AcDbLine
 10
572.377
 20
34.88
 30
0.0
 11
574.2
 21
35.2425
 31
0.0
  0
LINE
  5
121
330
17
100
AcDbEntity
  8
0
100
AcDbLine
 10
574.2
 20
35.2425
 30
0.0
 11
576.023
 21
34.88
 31
0.0
  0
LINE
  5
122
330
17
100
AcDbEntity
  8
0
100
AcDbLine
 10
576.023
 20
34.88
 30
0.0
 11
577.568
 21
33.8476
 31
0.0
  0
LINE
  5
123
330
17
100
AcDbEntity
  8
0
100
AcDbLine
 10
577.568
 20
33.8476
 30
0.0
 11
578.6
 21
32.3025
 31
0.0
  0
LINE
  5
124
330
17
100
AcDbEntity
  8
0
100
AcDbLine
 10
578.6
 20
32.3025
 30
0.0
 11
578.963
 21
30.48
 31
0.0
  0
LINE
  5
125
330
17
100
AcDbEntity
  8
0
100
AcDbLine
 10
578.963
 20
30.48
 30
0.0
 11
578.6
 21
28.6575
 31
0.0
  0
LINE
  5
126
330
17
100
AcDbEntity
  8
0
100
AcDbLine
 10
578.6
 20
28.6575
 30
0.0
 11
577.568
 21
27.1124
 31
0.0
  0
LINE
  5
127
330
17
100
AcDbEntity
  8
0
100
AcDbLine
 10
577.568
 20
27.1124
 30
0.0
 11
576.023
 21
26.08
 31
0.0
  0
LINE
  5
128
330
17
100
AcDbEntity
  8
0
100
AcDbLine
 10
576.023
 20
26.08
 30
0.0
 11
574.2
 21
25.7175
 31
0.0
  0
LINE
  5
129
330
17
100
AcDbEntity
  8
0
100
AcDbLine
 10
574.2
 20
25.7175
 30
0.0
 11
572.377
 21
26.08
 31
0.0
  0
LINE
  5
12A
330
17
100
AcDbEntity
  8
0
100
AcDbLine
 10
572.377
 20
26.08
 30
0.0
 11
570.832
 21
27.1124
 31
0.0
  0
LINE
  5
12B
330
17
100
AcDbEntity
  8
0
100
AcDbLine
 10
570.832
 20
27.1124
 30
0.0
 11
569.8
 21
28.6575
 31
0.0
  0
LINE
  5
12C
330
17
100
AcDbEntity
  8
0
100
AcDbLine
 10
569.8
 20
28.6575
 30
0.0
 11
569.438
 21
30.48
 31
0.0
  0
LINE
  5
12D
330
17
100
AcDbEntity
  8
0
100
AcDbLine
 10
678.798
 20
30.48
 30
0.0
 11
679.16
 21
32.3025
 31
0.0
  0
LINE
  5
12E
330
17
100
AcDbEntity
  8
0
100
AcDbLine
 10
679.16
 20
32.3025
 30
0.0
 11
680.192
 21
33.8476
 31
0.0
  0
LINE
  5
12F
330
17
100
AcDbEntity
  8
0
100
AcDbLine
 10
680.192
 20
33.8476
 30
0.0
 11
681.737
 21
34.88
 31
0.0
  0
LINE
  5
130
330
17
100
AcDbEntity
  8
0
100
AcDbLine
 10
681.737
 20
34.88
 30
0.0
 11
683.56
 21
35.2425
 31
0.0
  0
LINE
  5
131
330
17
100
AcDbEntity
  8
0
100
AcDbLine
 10
683.56
 20
35.2425
 30
0.0
 11
685.383
 21
34.88
 31
0.0
  0
LINE
  5
132
330
17
100
AcDbEntity
  8
0
100
AcDbLine
 10
685.383
 20
34.88
 30
0.0
 11
686.928
 21
33.8476
 31
0.0
  0
LINE
  5
133
330
17
100
AcDbEntity
  8
0
100
AcDbLine
 10
686.928
 20
33.8476
 30
0.0
 11
687.96
 21
32.3025
 31
0.0
  0
LINE
  5
134
330
17
100
AcDbEntity
  8
0
100
AcDbLine
 10
687.96
 20
32.3025
 30
0.0
 11
688.323
 21
30.48
 31
0.0
  0
LINE
  5
135
330
17
100
AcDbEntity
  8
0
100
AcDbLine
 10
688.323
 20
30.48
 30
0.0
 11
687.96
 21
28.6575
 31
0.0
  0
LINE
  5
136
330
17
100
AcDbEntity
  8
0
100
AcDbLine
 10
687.96
 20
28.6575
 30
0.0
 11
686.928
 21
27.1124
 31
0.0
  0
LINE
  5
137
330
17
100
AcDbEntity
  8
0
100
AcDbLine
 10
686.928
 20
27.1124
 30
0.0
 11
685.383
 21
26.08
 31
0.0
  0
LINE
  5
138
330
17
100
AcDbEntity
  8
0
100
AcDbLine
 10
685.383
 20
26.08
 30
0.0
 11
683.56
 21
25.7175
 31
0.0
  0
LINE
  5
139
330
17
100
AcDbEntity
  8
0
100
AcDbLine
 10
683.56
 20
25.7175
 30
0.0
 11
681.737
 21
26.08
 31
0.0
  0
LINE
  5
13A
330
17
100
AcDbEntity
  8
0
100
AcDbLine
 10
681.737
 20
26.08
 30
0.0
 11
680.192
 21
27.1124
 31
0.0
  0
LINE
  5
13B
330
17
100
AcDbEntity
  8
0
100
AcDbLine
 10
680.192
 20
27.1124
 30
0.0
 11
679.16
 21
28.6575
 31
0.0
  0
LINE
  5
13C
330
17
100
AcDbEntity
  8
0
100
AcDbLine
 10
679.16
 20
28.6575
 30
0.0
 11
678.798
 21
30.48
 31
0.0
  0
LINE
  5
13D
330
17
100
AcDbEntity
  8
0
100
AcDbLine
 10
746.0
 20
53.975
 30
0.0
 11
746.0
 21
200.025
 31
0.0
  0
LINE
  5
13E
330
17
100
AcDbEntity
  8
0
100
AcDbLine
 10
746.0
 20
200.025
 30
0.0
 11
746.061
 21
200.644
 31
0.0
  0
LINE
  5
13F
330
17
100
AcDbEntity
  8
0
100
AcDbLine
 10
746.061
 20
200.644
 30
0.0
 11
746.242
 21
201.24
 31
0.0
  0
LINE
  5
140
330
17
100
AcDbEntity
  8
0
100
AcDbLine
 10
746.242
 20
201.24
 30
0.0
 11
746.535
 21
201.789
 31
0.0
  0
LINE
  5
141
330
17
100
AcDbEntity
  8
0
100
AcDbLine
 10
746.535
 20
201.789
 30
0.0
 11
746.93
 21
202.27
 31
0.0
  0
LINE
  5
142
330
17
100
AcDbEntity
  8
0
100
AcDbLine
 10
746.93
 20
202.27
 30
0.0
 11
747.411
 21
202.665
 31
0.0
  0
LINE
  5
143
330
17
100
AcDbEntity
  8
0
100
AcDbLine
 10
747.411
 20
202.665
 30
0.0
 11
747.96
 21
202.958
 31
0.0
  0
LINE
  5
144
330
17
100
AcDbEntity
  8
0
100
AcDbLine
 10
747.96
 20
202.958
 30
0.0
 11
748.556
 21
203.139
 31
0.0
  0
LINE
  5
145
330
17
100
AcDbEntity
  8
0
100
AcDbLine
 10
748.556
 20
203.139
 30
0.0
 11
749.175
 21
203.2
 31
0.0
  0
LINE
  5
146
330
17
100
AcDbEntity
  8
0
100
AcDbLine
 10
749.175
 20
203.2
 30
0.0
 11
793.625
 21
203.2
 31
0.0
  0
LINE
  5
147
330
17
100
AcDbEntity
  8
0
100
AcDbLine
 10
793.625
 20
203.2
 30
0.0
 11
794.244
 21
203.139
 31
0.0
  0
LINE
  5
148
330
17
100
AcDbEntity
  8
0
100
AcDbLine
 10
794.244
 20
203.139
 30
0.0
 11
794.84
 21
202.958
 31
0.0
  0
LINE
  5
149
330
17
100
AcDbEntity
  8
0
100
AcDbLine
 10
794.84
 20
202.958
 30
0.0
 11
795.389
 21
202.665
 31
0.0
  0
LINE
  5
14A
330
17
100
AcDbEntity
  8
0
100
AcDbLine
 10
795.389
 20
202.665
 30
0.0
 11
795.87
 21
202.27
 31
0.0
  0
LINE
  5
14B
330
17
100
AcDbEntity
  8
0
100
AcDbLine
 10
795.87
 20
202.27
 30
0.0
 11
796.265
 21
201.789
 31
0.0
  0
LINE
  5
14C
330
17
100
AcDbEntity
  8
0
100
AcDbLine
 10
796.265
 20
201.789
 30
0.0
 11
796.558
 21
201.24
 31
0.0
  0
LINE
  5
14D
330
17
100
AcDbEntity
  8
0
100
AcDbLine
 10
796.558
 20
201.24
 30
0.0
 11
796.739
 21
200.644
 31
0.0
  0
LINE
  5
14E
330
17
100
AcDbEntity
  8
0
100
AcDbLine
 10
796.739
 20
200.644
 30
0.0
 11
796.8
 21
200.025
 31
0.0
  0
LINE
  5
14F
330
17
100
AcDbEntity
  8
0
100
AcDbLine
 10
796.8
 20
200.025
 30
0.0
 11
796.8
 21
53.975
 31
0.0
  0
LINE
  5
150
330
17
100
AcDbEntity
  8
0
100
AcDbLine
 10
796.8
 20
53.975
 30
0.0
 11
796.739
 21
53.3556
 31
0.0
  0
LINE
  5
151
330
17
100
AcDbEntity
  8
0
100
AcDbLine
 10
796.739
 20
53.3556
 30
0.0
 11
796.558
 21
52.76
 31
0.0
  0
LINE
  5
152
330
17
100
AcDbEntity
  8
0
100
AcDbLine
 10
796.558
 20
52.76
 30
0.0
 11
796.265
 21
52.2111
 31
0.0
  0
LINE
  5
153
330
17
100
AcDbEntity
  8
0
100
AcDbLine
 10
796.265
 20
52.2111
 30
0.0
 11
795.87
 21
51.7299
 31
0.0
  0
LINE
  5
154
330
17
100
AcDbEntity
  8
0
100
AcDbLine
 10
795.87
 20
51.7299
 30
0.0
 11
795.389
 21
51.3351
 31
0.0
  0
LINE
  5
155
330
17
100
AcDbEntity
  8
0
100
AcDbLine
 10
795.389
 20
51.3351
 30
0.0
 11
794.84
 21
51.0417
 31
0.0
  0
LINE
  5
156
330
17
100
AcDbEntity
  8
0
100
AcDbLine
 10
794.84
 20
51.0417
 30
0.0
 11
794.244
 21
50.861
 31
0.0
  0
LINE
  5
157
330
17
100
AcDbEntity
  8
0
100
AcDbLine
 10
794.244
 20
50.861
 30
0.0
 11
793.625
 21
50.8
 31
0.0
  0
LINE
  5
158
330
17
100
AcDbEntity
  8
0
100
AcDbLine
 10
793.625
 20
50.8
 30
0.0
 11
749.175
 21
50.8
 31
0.0
  0
LINE
  5
159
330
17
100
AcDbEntity
  8
0
100
AcDbLine
 10
749.175
 20
50.8
 30
0.0
 11
748.556
 21
50.861
 31
0.0
  0
LINE
  5
15A
330
17
100
AcDbEntity
  8
0
100
AcDbLine
 10
748.556
 20
50.861
 30
0.0
 11
747.96
 21
51.0417
 31
0.0
  0
LINE
  5
15B
330
17
100
AcDbEntity
  8
0
100
AcDbLine
 10
747.96
 20
51.0417
 30
0.0
 11
747.411
 21
51.3351
 31
0.0
  0
LINE
  5
15C
330
17
100
AcDbEntity
  8
0
100
AcDbLine
 10
747.411
 20
51.3351
 30
0.0
 11
746.93
 21
51.7299
 31
0.0
  0
LINE
  5
15D
330
17
100
AcDbEntity
  8
0
100
AcDbLine
 10
746.93
 20
51.7299
 30
0.0
 11
746.535
 21
52.2111
 31
0.0
  0
LINE
  5
15E
330
17
100
AcDbEntity
  8
0
100
AcDbLine
 10
746.535
 20
52.2111
 30
0.0
 11
746.242
 21
52.76
 31
0.0
  0
LINE
  5
15F
330
17
100
AcDbEntity
  8
0
100
AcDbLine
 10
746.242
 20
52.76
 30
0.0
 11
746.061
 21
53.3556
 31
0.0
  0
LINE
  5
160
330
17
100
AcDbEntity
  8
0
100
AcDbLine
 10
746.061
 20
53.3556
 30
0.0
 11
746.0
 21
53.975
 31
0.0
  0
LINE
  5
161
330
17
100
AcDbEntity
  8
0
100
AcDbLine
 10
788.158
 20
30.48
 30
0.0
 11
788.52
 21
32.3025
 31
0.0
  0
LINE
  5
162
330
17
100
AcDbEntity
  8
0
100
AcDbLine
 10
788.52
 20
32.3025
 30
0.0
 11
789.552
 21
33.8476
 31
0.0
  0
LINE
  5
163
330
17
100
AcDbEntity
  8
0
100
AcDbLine
 10
789.552
 20
33.8476
 30
0.0
 11
791.097
 21
34.88
 31
0.0
  0
LINE
  5
164
330
17
100
AcDbEntity
  8
0
100
AcDbLine
 10
791.097
 20
34.88
 30
0.0
 11
792.92
 21
35.2425
 31
0.0
  0
LINE
  5
165
330
17
100
AcDbEntity
  8
0
100
AcDbLine
 10
792.92
 20
35.2425
 30
0.0
 11
794.743
 21
34.88
 31
0.0
  0
LINE
  5
166
330
17
100
AcDbEntity
  8
0
100
AcDbLine
 10
794.743
 20
34.88
 30
0.0
 11
796.288
 21
33.8476
 31
0.0
  0
LINE
  5
167
330
17
100
AcDbEntity
  8
0
100
AcDbLine
 10
796.288
 20
33.8476
 30
0.0
 11
797.32
 21
32.3025
 31
0.0
  0
LINE
  5
168
330
17
100
AcDbEntity
  8
0
100
AcDbLine
 10
797.32
 20
32.3025
 30
0.0
 11
797.683
 21
30.48
 31
0.0
  0
LINE
  5
169
330
17
100
AcDbEntity
  8
0
100
AcDbLine
 10
797.683
 20
30.48
 30
0.0
 11
797.32
 21
28.6575
 31
0.0
  0
LINE
  5
16A
330
17
100
AcDbEntity
  8
0
100
AcDbLine
 10
797.32
 20
28.6575
 30
0.0
 11
796.288
 21
27.1124
 31
0.0
  0
LINE
  5
16B
330
17
100
AcDbEntity
  8
0
100
AcDbLine
 10
796.288
 20
27.1124
 30
0.0
 11
794.743
 21
26.08
 31
0.0
  0
LINE
  5
16C
330
17
100
AcDbEntity
  8
0
100
AcDbLine
 10
794.743
 20
26.08
 30
0.0
 11
792.92
 21
25.7175
 31
0.0
  0
LINE
  5
16D
330
17
100
AcDbEntity
  8
0
100
AcDbLine
 10
792.92
 20
25.7175
 30
0.0
 11
791.097
 21
26.08
 31
0.0
  0
LINE
  5
16E
330
17
100
AcDbEntity
  8
0
100
AcDbLine
 10
791.097
 20
26.08
 30
0.0
 11
789.552
 21
27.1124
 31
0.0
  0
LINE
  5
16F
330
17
100
AcDbEntity
  8
0
100
AcDbLine
 10
789.552
 20
27.1124
 30
0.0
 11
788.52
 21
28.6575
 31
0.0
  0
LINE
  5
170
330
17
100
AcDbEntity
  8
0
100
AcDbLine
 10
788.52
 20
28.6575
 30
0.0
 11
788.158
 21
30.48
 31
0.0
  0
LINE
  5
171
330
17
100
AcDbEntity
  8
0
100
AcDbLine
 10
887.261
 20
71.4108
 30
0.0
 11
887.744
 21
73.8409
 31
0.0
  0
LINE
  5
172
330
17
100
AcDbEntity
  8
0
100
AcDbLine
 10
887.744
 20
73.8409
 30
0.0
 11
889.121
 21
75.9009
 31
0.0
  0
LINE
  5
173
330
17
100
AcDbEntity
  8
0
100
AcDbLine
 10
889.121
 20
75.9009
 30
0.0
 11
891.181
 21
77.2775
 31
0.0
  0
LINE
  5
174
330
17
100
AcDbEntity
  8
0
100
AcDbLine
 10
891.181
 20
77.2775
 30
0.0
 11
893.611
 21
77.7608
 31
0.0
  0
LINE
  5
175
330
17
100
AcDbEntity
  8
0
100
AcDbLine
 10
893.611
 20
77.7608
 30
0.0
 11
896.041
 21
77.2775
 31
0.0
  0
LINE
  5
176
330
17
100
AcDbEntity
  8
0
100
AcDbLine
 10
896.041
 20
77.2775
 30
0.0
 11
898.101
 21
75.9009
 31
0.0
  0
LINE
  5
177
330
17
100
AcDbEntity
  8
0
100
AcDbLine
 10
898.101
 20
75.9009
 30
0.0
 11
899.477
 21
73.8409
 31
0.0
  0
LINE
  5
178
330
17
100
AcDbEntity
  8
0
100
AcDbLine
 10
899.477
 20
73.8409
 30
0.0
 11
899.961
 21
71.4108
 31
0.0
  0
LINE
  5
179
330
17
100
AcDbEntity
  8
0
100
AcDbLine
 10
899.961
 20
71.4108
 30
0.0
 11
899.477
 21
68.9808
 31
0.0
  0
LINE
  5
17A
330
17
100
AcDbEntity
  8
0
100
AcDbLine
 10
899.477
 20
68.9808
 30
0.0
 11
898.101
 21
66.9207
 31
0.0
  0
LINE
  5
17B
330
17
100
AcDbEntity
  8
0
100
AcDbLine
 10
898.101
 20
66.9207
 30
0.0
 11
896.041
 21
65.5442
 31
0.0
  0
LINE
  5
17C
330
17
100
AcDbEntity
  8
0
100
AcDbLine
 10
896.041
 20
65.5442
 30
0.0
 11
893.611
 21
65.0608
 31
0.0
  0
LINE
  5
17D
330
17
100
AcDbEntity
  8
0
100
AcDbLine
 10
893.611
 20
65.0608
 30
0.0
 11
891.181
 21
65.5442
 31
0.0
  0
LINE
  5
17E
330
17
100
AcDbEntity
  8
0
100
AcDbLine
 10
891.181
 20
65.5442
 30
0.0
 11
889.121
 21
66.9207
 31
0.0
  0
LINE
  5
17F
330
17
100
AcDbEntity
  8
0
100
AcDbLine
 10
889.121
 20
66.9207
 30
0.0
 11
887.744
 21
68.9808
 31
0.0
  0
LINE
  5
180
330
17
100
AcDbEntity
  8
0
100
AcDbLine
 10
887.744
 20
68.9808
 30
0.0
 11
887.261
 21
71.4108
 31
0.0
  0
LINE
  5
181
330
17
100
AcDbEntity
  8
0
100
AcDbLine
 10
887.261
 20
182.589
 30
0.0
 11
887.744
 21
185.019
 31
0.0
  0
LINE
  5
182
330
17
100
AcDbEntity
  8
0
100
AcDbLine
 10
887.744
 20
185.019
 30
0.0
 11
889.121
 21
187.079
 31
0.0
  0
LINE
  5
183
330
17
100
AcDbEntity
  8
0
100
AcDbLine
 10
889.121
 20
187.079
 30
0.0
 11
891.181
 21
188.456
 31
0.0
  0
LINE
  5
184
330
17
100
AcDbEntity
  8
0
100
AcDbLine
 10
891.181
 20
188.456
 30
0.0
 11
893.611
 21
188.939
 31
0.0
  0
LINE
  5
185
330
17
100
AcDbEntity
  8
0
100
AcDbLine
 10
893.611
 20
188.939
 30
0.0
 11
896.041
 21
188.456
 31
0.0
  0
LINE
  5
186
330
17
100
AcDbEntity
  8
0
100
AcDbLine
 10
896.041
 20
188.456
 30
0.0
 11
898.101
 21
187.079
 31
0.0
  0
LINE
  5
187
330
17
100
AcDbEntity
  8
0
100
AcDbLine
 10
898.101
 20
187.079
 30
0.0
 11
899.477
 21
185.019
 31
0.0
  0
LINE
  5
188
330
17
100
AcDbEntity
  8
0
100
AcDbLine
 10
899.477
 20
185.019
 30
0.0
 11
899.961
 21
182.589
 31
0.0
  0
LINE
  5
189
330
17
100
AcDbEntity
  8
0
100
AcDbLine
 10
899.961
 20
182.589
 30
0.0
 11
899.477
 21
180.159
 31
0.0
  0
LINE
  5
18A
330
17
100
AcDbEntity
  8
0
100
AcDbLine
 10
899.477
 20
180.159
 30
0.0
 11
898.101
 21
178.099
 31
0.0
  0
LINE
  5
18B
330
17
100
AcDbEntity
  8
0
100
AcDbLine
 10
898.101
 20
178.099
 30
0.0
 11
896.041
 21
176.723
 31
0.0
  0
LINE
  5
18C
330
17
100
AcDbEntity
  8
0
100
AcDbLine
 10
896.041
 20
176.723
 30
0.0
 11
893.611
 21
176.239
 31
0.0
  0
LINE
  5
18D
330
17
100
AcDbEntity
  8
0
100
AcDbLine
 10
893.611
 20
176.239
 30
0.0
 11
891.181
 21
176.723
 31
0.0
  0
LINE
  5
18E
330
17
100
AcDbEntity
  8
0
100
AcDbLine
 10
891.181
 20
176.723
 30
0.0
 11
889.121
 21
178.099
 31
0.0
  0
LINE
  5
18F
330
17
100
AcDbEntity
  8
0
100
AcDbLine
 10
889.121
 20
178.099
 30
0.0
 11
887.744
 21
180.159
 31
0.0
  0
LINE
  5
190
330
17
100
AcDbEntity
  8
0
100
AcDbLine
 10
887.744
 20
180.159
 30
0.0
 11
887.261
 21
182.589
 31
0.0
  0
LINE
  5
191
330
17
100
AcDbEntity
  8
0
100
AcDbLine
 10
923.8
 20
127.0
 30
0.0
 11
924.288
 21
131.955
 31
0.0
  0
LINE
  5
192
330
17
100
AcDbEntity
  8
0
100
AcDbLine
 10
924.288
 20
131.955
 30
0.0
 11
925.733
 21
136.72
 31
0.0
  0
LINE
  5
193
330
17
100
AcDbEntity
  8
0
100
AcDbLine
 10
925.733
 20
136.72
 30
0.0
 11
928.081
 21
141.111
 31
0.0
  0
LINE
  5
194
330
17
100
AcDbEntity
  8
0
100
AcDbLine
 10
928.081
 20
141.111
 30
0.0
 11
931.239
 21
144.961
 31
0.0
  0
LINE
  5
195
330
17
100
AcDbEntity
  8
0
100
AcDbLine
 10
931.239
 20
144.961
 30
0.0
 11
935.089
 21
148.119
 31
0.0
  0
LINE
  5
196
330
17
100
AcDbEntity
  8
0
100
AcDbLine
 10
935.089
 20
148.119
 30
0.0
 11
939.48
 21
150.467
 31
0.0
  0
LINE
  5
197
330
17
100
AcDbEntity
  8
0
100
AcDbLine
 10
939.48
 20
150.467
 30
0.0
 11
944.245
 21
151.912
 31
0.0
  0
LINE
  5
198
330
17
100
AcDbEntity
  8
0
100
AcDbLine
 10
944.245
 20
151.912
 30
0.0
 11
949.2
 21
152.4
 31
0.0
  0
LINE
  5
199
330
17
100
AcDbEntity
  8
0
100
AcDbLine
 10
949.2
 20
152.4
 30
0.0
 11
954.155
 21
151.912
 31
0.0
  0
LINE
  5
19A
330
17
100
AcDbEntity
  8
0
100
AcDbLine
 10
954.155
 20
151.912
 30
0.0
 11
958.92
 21
150.467
 31
0.0
  0
LINE
  5
19B
330
17
100
AcDbEntity
  8
0
100
AcDbLine
 10
958.92
 20
150.467
 30
0.0
 11
963.311
 21
148.119
 31
0.0
  0
LINE
  5
19C
330
17
100
AcDbEntity
  8
0
100
AcDbLine
 10
963.311
 20
148.119
 30
0.0
 11
967.161
 21
144.961
 31
0.0
  0
LINE
  5
19D
330
17
100
AcDbEntity
  8
0
100
AcDbLine
 10
967.161
 20
144.961
 30
0.0
 11
970.319
 21
141.111
 31
0.0
  0
LINE
  5
19E
330
17
100
AcDbEntity
  8
0
100
AcDbLine
 10
970.319
 20
141.111
 30
0.0
 11
972.667
 21
136.72
 31
0.0
  0
LINE
  5
19F
330
17
100
AcDbEntity
  8
0
100
AcDbLine
 10
972.667
 20
136.72
 30
0.0
 11
974.112
 21
131.955
 31
0.0
  0
LINE
  5
1A0
330
17
100
AcDbEntity
  8
0
100
AcDbLine
 10
974.112
 20
131.955
 30
0.0
 11
974.6
 21
127.0
 31
0.0
  0
LINE
  5
1A1
330
17
100
AcDbEntity
  8
0
100
AcDbLine
 10
974.6
 20
127.0
 30
0.0
 11
974.112
 21
122.045
 31
0.0
  0
LINE
  5
1A2
330
17
100
AcDbEntity
  8
0
100
AcDbLine
 10
974.112
 20
122.045
 30
0.0
 11
972.667
 21
117.28
 31
0.0
  0
LINE
  5
1A3
330
17
100
AcDbEntity
  8
0
100
AcDbLine
 10
972.667
 20
117.28
 30
0.0
 11
970.319
 21
112.889
 31
0.0
  0
LINE
  5
1A4
330
17
100
AcDbEntity
  8
0
100
AcDbLine
 10
970.319
 20
112.889
 30
0.0
 11
967.161
 21
109.039
 31
0.0
  0
LINE
  5
1A5
330
17
100
AcDbEntity
  8
0
100
AcDbLine
 10
967.161
 20
109.039
 30
0.0
 11
963.311
 21
105.881
 31
0.0
  0
LINE
  5
1A6
330
17
100
AcDbEntity
  8
0
100
AcDbLine
 10
963.311
 20
105.881
 30
0.0
 11
958.92
 21
103.533
 31
0.0
  0
LINE
  5
1A7
330
17
100
AcDbEntity
  8
0
100
AcDbLine
 10
958.92
 20
103.533
 30
0.0
 11
954.155
 21
102.088
 31
0.0
  0
LINE
  5
1A8
330
17
100
AcDbEntity
  8
0
100
AcDbLine
 10
954.155
 20
102.088
 30
0.0
 11
949.2
 21
101.6
 31
0.0
  0
LINE
  5
1A9
330
17
100
AcDbEntity
  8
0
100
AcDbLine
 10
949.2
 20
101.6
 30
0.0
 11
944.245
 21
102.088
 31
0.0
  0
LINE
  5
1AA
330
17
100
AcDbEntity
  8
0
100
AcDbLine
 10
944.245
 20
102.088
 30
0.0
 11
939.48
 21
103.533
 31
0.0
  0
LINE
  5
1AB
330
17
100
AcDbEntity
  8
0
100
AcDbLine
 10
939.48
 20
103.533
 30
0.0
 11
935.089
 21
105.881
 31
0.0
  0
LINE
  5
1AC
330
17
100
AcDbEntity
  8
0
100
AcDbLine
 10
935.089
 20
105.881
 30
0.0
 11
931.239
 21
109.039
 31
0.0
  0
LINE
  5
1AD
330
17
100
AcDbEntity
  8
0
100
AcDbLine
 10
931.239
 20
109.039
 30
0.0
 11
928.081
 21
112.889
 31
0.0
  0
LINE
  5
1AE
330
17
100
AcDbEntity
  8
0
100
AcDbLine
 10
928.081
 20
112.889
 30
0.0
 11
925.733
 21
117.28
 31
0.0
  0
LINE
  5
1AF
330
17
100
AcDbEntity
  8
0
100
AcDbLine
 10
925.733
 20
117.28
 30
0.0
 11
924.288
 21
122.045
 31
0.0
  0
LINE
  5
1B0
330
17
100
AcDbEntity
  8
0
100
AcDbLine
 10
924.288
 20
122.045
 30
0.0
 11
923.8
 21
127.0
 31
0.0
  0
LINE
  5
1B1
330
17
100
AcDbEntity
  8
0
100
AcDbLine
 10
998.439
 20
71.4108
 30
0.0
 11
998.923
 21
73.8409
 31
0.0
  0
LINE
  5
1B2
330
17
100
AcDbEntity
  8
0
100
AcDbLine
 10
998.923
 20
73.8409
 30
0.0
 11
1000.3
 21
75.9009
 31
0.0
  0
LINE
  5
1B3
330
17
100
AcDbEntity
  8
0
100
AcDbLine
 10
1000.3
 20
75.9009
 30
0.0
 11
1002.36
 21
77.2775
 31
0.0
  0
LINE
  5
1B4
330
17
100
AcDbEntity
  8
0
100
AcDbLine
 10
1002.36
 20
77.2775
 30
0.0
 11
1004.79
 21
77.7608
 31
0.0
  0
LINE
  5
1B5
330
17
100
AcDbEntity
  8
0
100
AcDbLine
 10
1004.79
 20
77.7608
 30
0.0
 11
1007.22
 21
77.2775
 31
0.0
  0
LINE
  5
1B6
330
17
100
AcDbEntity
  8
0
100
AcDbLine
 10
1007.22
 20
77.2775
 30
0.0
 11
1009.28
 21
75.9009
 31
0.0
  0
LINE
  5
1B7
330
17
100
AcDbEntity
  8
0
100
AcDbLine
 10
1009.28
 20
75.9009
 30
0.0
 11
1010.66
 21
73.8409
 31
0.0
  0
LINE
  5
1B8
330
17
100
AcDbEntity
  8
0
100
AcDbLine
 10
1010.66
 20
73.8409
 30
0.0
 11
1011.14
 21
71.4108
 31
0.0
  0
LINE
  5
1B9
330
17
100
AcDbEntity
  8
0
100
AcDbLine
 10
1011.14
 20
71.4108
 30
0.0
 11
1010.66
 21
68.9808
 31
0.0
  0
LINE
  5
1BA
330
17
100
AcDbEntity
  8
0
100
AcDbLine
 10
1010.66
 20
68.9808
 30
0.0
 11
1009.28
 21
66.9207
 31
0.0
  0
LINE
  5
1BB
330
17
100
AcDbEntity
  8
0
100
AcDbLine
 10
1009.28
 20
66.9207
 30
0.0
 11
1007.22
 21
65.5442
 31
0.0
  0
LINE
  5
1BC
330
17
100
AcDbEntity
  8
0
100
AcDbLine
 10
1007.22
 20
65.5442
 30
0.0
 11
1004.79
 21
65.0608
 31
0.0
  0
LINE
  5
1BD
330
17
100
AcDbEntity
  8
0
100
AcDbLine
 10
1004.79
 20
65.0608
 30
0.0
 11
1002.36
 21
65.5442
 31
0.0
  0
LINE
  5
1BE
330
17
100
AcDbEntity
  8
0
100
AcDbLine
 10
1002.36
 20
65.5442
 30
0.0
 11
1000.3
 21
66.9207
 31
0.0
  0
LINE
  5
1BF
330
17
100
AcDbEntity
  8
0
100
AcDbLine
 10
1000.3
 20
66.9207
 30
0.0
 11
998.923
 21
68.9808
 31
0.0
  0
LINE
  5
1C0
330
17
100
AcDbEntity
  8
0
100
AcDbLine
 10
998.923
 20
68.9808
 30
0.0
 11
998.439
 21
71.4108
 31
0.0
  0
LINE
  5
1C1
330
17
100
AcDbEntity
  8
0
100
AcDbLine
 10
998.439
 20
182.589
 30
0.0
 11
998.923
 21
185.019
 31
0.0
  0
LINE
  5
1C2
330
17
100
AcDbEntity
  8
0
100
AcDbLine
 10
998.923
 20
185.019
 30
0.0
 11
1000.3
 21
187.079
 31
0.0
  0
LINE
  5
1C3
330
17
100
AcDbEntity
  8
0
100
AcDbLine
 10
1000.3
 20
187.079
 30
0.0
 11
1002.36
 21
188.456
 31
0.0
  0
LINE
  5
1C4
330
17
100
AcDbEntity
  8
0
100
AcDbLine
 10
1002.36
 20
188.456
 30
0.0
 11
1004.79
 21
188.939
 31
0.0
  0
LINE
  5
1C5
330
17
100
AcDbEntity
  8
0
100
AcDbLine
 10
1004.79
 20
188.939
 30
0.0
 11
1007.22
 21
188.456
 31
0.0
  0
LINE
  5
1C6
330
17
100
AcDbEntity
  8
0
100
AcDbLine
 10
1007.22
 20
188.456
 30
0.0
 11
1009.28
 21
187.079
 31
0.0
  0
LINE
  5
1C7
330
17
100
AcDbEntity
  8
0
100
AcDbLine
 10
1009.28
 20
187.079
 30
0.0
 11
1010.66
 21
185.019
 31
0.0
  0
LINE
  5
1C8
330
17
100
AcDbEntity
  8
0
100
AcDbLine
 10
1010.66
 20
185.019
 30
0.0
 11
1011.14
 21
182.589
 31
0.0
  0
LINE
  5
1C9
330
17
100
AcDbEntity
  8
0
100
AcDbLine
 10
1011.14
 20
182.589
 30
0.0
 11
1010.66
 21
180.159
 31
0.0
  0
LINE
  5
1CA
330
17
100
AcDbEntity
  8
0
100
AcDbLine
 10
1010.66
 20
180.159
 30
0.0
 11
1009.28
 21
178.099
 31
0.0
  0
LINE
  5
1CB
330
17
100
AcDbEntity
  8
0
100
AcDbLine
 10
1009.28
 20
178.099
 30
0.0
 11
1007.22
 21
176.723
 31
0.0
  0
LINE
  5
1CC
330
17
100
AcDbEntity
  8
0
100
AcDbLine
 10
1007.22
 20
176.723
 30
0.0
 11
1004.79
 21
176.239
 31
0.0
  0
LINE
  5
1CD
330
17
100
AcDbEntity
  8
0
100
AcDbLine
 10
1004.79
 20
176.239
 30
0.0
 11
1002.36
 21
176.723
 31
0.0
  0
LINE
  5
1CE
330
17
100
AcDbEntity
  8
0
100
AcDbLine
 10
1002.36
 20
176.723
 30
0.0
 11
1000.3
 21
178.099
 31
0.0
  0
LINE
  5
1CF
330
17
100
AcDbEntity
  8
0
100
AcDbLine
 10
1000.3
 20
178.099
 30
0.0
 11
998.923
 21
180.159
 31
0.0
  0
LINE
  5
1D0
330
17
100
AcDbEntity
  8
0
100
AcDbLine
 10
998.923
 20
180.159
 30
0.0
 11
998.439
 21
182.589
 31
0.0
  0
LINE
  5
1D1
330
17
100
AcDbEntity
  8
0
100
AcDbLine
 10
1082.54
 20
30.48
 30
0.0
 11
1082.9
 21
32.3025
 31
0.0
  0
LINE
  5
1D2
330
17
100
AcDbEntity
  8
0
100
AcDbLine
 10
1082.9
 20
32.3025
 30
0.0
 11
1083.93
 21
33.8476
 31
0.0
  0
LINE
  5
1D3
330
17
100
AcDbEntity
  8
0
100
AcDbLine
 10
1083.93
 20
33.8476
 30
0.0
 11
1085.48
 21
34.88
 31
0.0
  0
LINE
  5
1D4
330
17
100
AcDbEntity
  8
0
100
AcDbLine
 10
1085.48
 20
34.88
 30
0.0
 11
1087.3
 21
35.2425
 31
0.0
  0
LINE
  5
1D5
330
17
100
AcDbEntity
  8
0
100
AcDbLine
 10
1087.3
 20
35.2425
 30
0.0
 11
1089.12
 21
34.88
 31
0.0
  0
LINE
  5
1D6
330
17
100
AcDbEntity
  8
0
100
AcDbLine
 10
1089.12
 20
34.88
 30
0.0
 11
1090.67
 21
33.8476
 31
0.0
  0
LINE
  5
1D7
330
17
100
AcDbEntity
  8
0
100
AcDbLine
 10
1090.67
 20
33.8476
 30
0.0
 11
1091.7
 21
32.3025
 31
0.0
  0
LINE
  5
1D8
330
17
100
AcDbEntity
  8
0
100
AcDbLine
 10
1091.7
 20
32.3025
 30
0.0
 11
1092.06
 21
30.48
 31
0.0
  0
LINE
  5
1D9
330
17
100
AcDbEntity
  8
0
100
AcDbLine
 10
1092.06
 20
30.48
 30
0.0
 11
1091.7
 21
28.6575
 31
0.0
  0
LINE
  5
1DA
330
17
100
AcDbEntity
  8
0
100
AcDbLine
 10
1091.7
 20
28.6575
 30
0.0
 11
1090.67
 21
27.1124
 31
0.0
  0
LINE
  5
1DB
330
17
100
AcDbEntity
  8
0
100
AcDbLine
 10
1090.67
 20
27.1124
 30
0.0
 11
1089.12
 21
26.08
 31
0.0
  0
LINE
  5
1DC
330
17
100
AcDbEntity
  8
0
100
AcDbLine
 10
1089.12
 20
26.08
 30
0.0
 11
1087.3
 21
25.7175
 31
0.0
  0
LINE
  5
1DD
330
17
100
AcDbEntity
  8
0
100
AcDbLine
 10
1087.3
 20
25.7175
 30
0.0
 11
1085.48
 21
26.08
 31
0.0
  0
LINE
  5
1DE
330
17
100
AcDbEntity
  8
0
100
AcDbLine
 10
1085.48
 20
26.08
 30
0.0
 11
1083.93
 21
27.1124
 31
0.0
  0
LINE
  5
1DF
330
17
100
AcDbEntity
  8
0
100
AcDbLine
 10
1083.93
 20
27.1124
 30
0.0
 11
1082.9
 21
28.6575
 31
0.0
  0
LINE
  5
1E0
330
17
100
AcDbEntity
  8
0
100
AcDbLine
 10
1082.9
 20
28.6575
 30
0.0
 11
1082.54
 21
30.48
 31
0.0
  0
LINE
  5
1E1
330
17
100
AcDbEntity
  8
0
100
AcDbLine
 10
1129.15
 20
918.25
 30
0.0
 11
1129.32
 21
920.867
 31
0.0
  0
LINE
  5
1E2
330
17
100
AcDbEntity
  8
0
100
AcDbLine
 10
1129.32
 20
920.867
 30
0.0
 11
1129.83
 21
923.439
 31
0.0
  0
LINE
  5
1E3
330
17
100
AcDbEntity
  8
0
100
AcDbLine
 10
1129.83
 20
923.439
 30
0.0
 11
1130.68
 21
925.923
 31
0.0
  0
LINE
  5
1E4
330
17
100
AcDbEntity
  8
0
100
AcDbLine
 10
1130.68
 20
925.923
 30
0.0
 11
1131.84
 21
928.275
 31
0.0
  0
LINE
  5
1E5
330
17
100
AcDbEntity
  8
0
100
AcDbLine
 10
1131.84
 20
928.275
 30
0.0
 11
1133.29
 21
930.456
 31
0.0
  0
LINE
  5
1E6
330
17
100
AcDbEntity
  8
0
100
AcDbLine
 10
1133.29
 20
930.456
 30
0.0
 11
1135.02
 21
932.427
 31
0.0
  0
LINE
  5
1E7
330
17
100
AcDbEntity
  8
0
100
AcDbLine
 10
1135.02
 20
932.427
 30
0.0
 11
1136.99
 21
934.157
 31
0.0
  0
LINE
  5
1E8
330
17
100
AcDbEntity
  8
0
100
AcDbLine
 10
1136.99
 20
934.157
 30
0.0
 11
1139.18
 21
935.614
 31
0.0
  0
LINE
  5
1E9
330
17
100
AcDbEntity
  8
0
100
AcDbLine
 10
1139.18
 20
935.614
 30
0.0
 11
1141.53
 21
936.774
 31
0.0
  0
LINE
  5
1EA
330
17
100
AcDbEntity
  8
0
100
AcDbLine
 10
1141.53
 20
936.774
 30
0.0
 11
1144.01
 21
937.617
 31
0.0
  0
LINE
  5
1EB
330
17
100
AcDbEntity
  8
0
100
AcDbLine
 10
1144.01
 20
937.617
 30
0.0
 11
1146.58
 21
938.128
 31
0.0
  0
LINE
  5
1EC
330
17
100
AcDbEntity
  8
0
100
AcDbLine
 10
1146.58
 20
938.128
 30
0.0
 11
1149.2
 21
938.3
 31
0.0
  0
LINE
  5
1ED
330
17
100
AcDbEntity
  8
0
100
AcDbLine
 10
1149.2
 20
938.3
 30
0.0
 11
1151.82
 21
938.128
 31
0.0
  0
LINE
  5
1EE
330
17
100
AcDbEntity
  8
0
100
AcDbLine
 10
1151.82
 20
938.128
 30
0.0
 11
1154.39
 21
937.617
 31
0.0
  0
LINE
  5
1EF
330
17
100
AcDbEntity
  8
0
100
AcDbLine
 10
1154.39
 20
937.617
 30
0.0
 11
1156.87
 21
936.774
 31
0.0
  0
LINE
  5
1F0
330
17
100
AcDbEntity
  8
0
100
AcDbLine
 10
1156.87
 20
936.774
 30
0.0
 11
1159.23
 21
935.614
 31
0.0
  0
LINE
  5
1F1
330
17
100
AcDbEntity
  8
0
100
AcDbLine
 10
1159.23
 20
935.614
 30
0.0
 11
1161.41
 21
934.157
 31
0.0
  0
LINE
  5
1F2
330
17
100
AcDbEntity
  8
0
100
AcDbLine
 10
1161.41
 20
934.157
 30
0.0
 11
1163.38
 21
932.427
 31
0.0
  0
LINE
  5
1F3
330
17
100
AcDbEntity
  8
0
100
AcDbLine
 10
1163.38
 20
932.427
 30
0.0
 11
1165.11
 21
930.456
 31
0.0
  0
LINE
  5
1F4
330
17
100
AcDbEntity
  8
0
100
AcDbLine
 10
1165.11
 20
930.456
 30
0.0
 11
1166.56
 21
928.275
 31
0.0
  0
LINE
  5
1F5
330
17
100
AcDbEntity
  8
0
100
AcDbLine
 10
1166.56
 20
928.275
 30
0.0
 11
1167.72
 21
925.923
 31
0.0
  0
LINE
  5
1F6
330
17
100
AcDbEntity
  8
0
100
AcDbLine
 10
1167.72
 20
925.923
 30
0.0
 11
1168.57
 21
923.439
 31
0.0
  0
LINE
  5
1F7
330
17
100
AcDbEntity
  8
0
100
AcDbLine
 10
1168.57
 20
923.439
 30
0.0
 11
1169.08
 21
920.867
 31
0.0
  0
LINE
  5
1F8
330
17
100
AcDbEntity
  8
0
100
AcDbLine
 10
1169.08
 20
920.867
 30
0.0
 11
1169.25
 21
918.25
 31
0.0
  0
LINE
  5
1F9
330
17
100
AcDbEntity
  8
0
100
AcDbLine
 10
1169.25
 20
918.25
 30
0.0
 11
1169.08
 21
915.633
 31
0.0
  0
LINE
  5
1FA
330
17
100
AcDbEntity
  8
0
100
AcDbLine
 10
1169.08
 20
915.633
 30
0.0
 11
1168.57
 21
913.061
 31
0.0
  0
LINE
  5
1FB
330
17
100
AcDbEntity
  8
0
100
AcDbLine
 10
1168.57
 20
913.061
 30
0.0
 11
1167.72
 21
910.577
 31
0.0
  0
LINE
  5
1FC
330
17
100
AcDbEntity
  8
0
100
AcDbLine
 10
1167.72
 20
910.577
 30
0.0
 11
1166.56
 21
908.225
 31
0.0
  0
LINE
  5
1FD
330
17
100
AcDbEntity
  8
0
100
AcDbLine
 10
1166.56
 20
908.225
 30
0.0
 11
1165.11
 21
906.044
 31
0.0
  0
LINE
  5
1FE
330
17
100
AcDbEntity
  8
0
100
AcDbLine
 10
1165.11
 20
906.044
 30
0.0
 11
1163.38
 21
904.073
 31
0.0
  0
LINE
  5
1FF
330
17
100
AcDbEntity
  8
0
100
AcDbLine
 10
1163.38
 20
904.073
 30
0.0
 11
1161.41
 21
902.343
 31
0.0
  0
LINE
  5
200
330
17
100
AcDbEntity
  8
0
100
AcDbLine
 10
1161.41
 20
902.343
 30
0.0
 11
1159.23
 21
900.886
 31
0.0
  0
LINE
  5
201
330
17
100
AcDbEntity
  8
0
100
AcDbLine
 10
1159.23
 20
900.886
 30
0.0
 11
1156.87
 21
899.726
 31
0.0
  0
LINE
  5
202
330
17
100
AcDbEntity
  8
0
100
AcDbLine
 10
1156.87
 20
899.726
 30
0.0
 11
1154.39
 21
898.883
 31
0.0
  0
LINE
  5
203
330
17
100
AcDbEntity
  8
0
100
AcDbLine
 10
1154.39
 20
898.883
 30
0.0
 11
1151.82
 21
898.372
 31
0.0
  0
LINE
  5
204
330
17
100
AcDbEntity
  8
0
100
AcDbLine
 10
1151.82
 20
898.372
 30
0.0
 11
1149.2
 21
898.2
 31
0.0
  0
LINE
  5
205
330
17
100
AcDbEntity
  8
0
100
AcDbLine
 10
1149.2
 20
898.2
 30
0.0
 11
1146.58
 21
898.372
 31
0.0
  0
LINE
  5
206
330
17
100
AcDbEntity
  8
0
100
AcDbLine
 10
1146.58
 20
898.372
 30
0.0
 11
1144.01
 21
898.883
 31
0.0
  0
LINE
  5
207
330
17
100
AcDbEntity
  8
0
100
AcDbLine
 10
1144.01
 20
898.883
 30
0.0
 11
1141.53
 21
899.726
 31
0.0
  0
LINE
  5
208
330
17
100
AcDbEntity
  8
0
100
AcDbLine
 10
1141.53
 20
899.726
 30
0.0
 11
1139.18
 21
900.886
 31
0.0
  0
LINE
  5
209
330
17
100
AcDbEntity
  8
0
100
AcDbLine
 10
1139.18
 20
900.886
 30
0.0
 11
1136.99
 21
902.343
 31
0.0
  0
LINE
  5
20A
330
17
100
AcDbEntity
  8
0
100
AcDbLine
 10
1136.99
 20
902.343
 30
0.0
 11
1135.02
 21
904.073
 31
0.0
  0
LINE
  5
20B
330
17
100
AcDbEntity
  8
0
100
AcDbLine
 10
1135.02
 20
904.073
 30
0.0
 11
1133.29
 21
906.044
 31
0.0
  0
LINE
  5
20C
330
17
100
AcDbEntity
  8
0
100
AcDbLine
 10
1133.29
 20
906.044
 30
0.0
 11
1131.84
 21
908.225
 31
0.0
  0
LINE
  5
20D
330
17
100
AcDbEntity
  8
0
100
AcDbLine
 10
1131.84
 20
908.225
 30
0.0
 11
1130.68
 21
910.577
 31
0.0
  0
LINE
  5
20E
330
17
100
AcDbEntity
  8
0
100
AcDbLine
 10
1130.68
 20
910.577
 30
0.0
 11
1129.83
 21
913.061
 31
0.0
  0
LINE
  5
20F
330
17
100
AcDbEntity
  8
0
100
AcDbLine
 10
1129.83
 20
913.061
 30
0.0
 11
1129.32
 21
915.633
 31
0.0
  0
LINE
  5
210
330
17
100
AcDbEntity
  8
0
100
AcDbLine
 10
1129.32
 20
915.633
 30
0.0
 11
1129.15
 21
918.25
 31
0.0
  0
LINE
  5
211
330
17
100
AcDbEntity
  8
0
100
AcDbLine
 10
1155.54
 20
30.48
 30
0.0
 11
1155.9
 21
32.3025
 31
0.0
  0
LINE
  5
212
330
17
100
AcDbEntity
  8
0
100
AcDbLine
 10
1155.9
 20
32.3025
 30
0.0
 11
1156.93
 21
33.8476
 31
0.0
  0
LINE
  5
213
330
17
100
AcDbEntity
  8
0
100
AcDbLine
 10
1156.93
 20
33.8476
 30
0.0
 11
1158.48
 21
34.88
 31
0.0
  0
LINE
  5
214
330
17
100
AcDbEntity
  8
0
100
AcDbLine
 10
1158.48
 20
34.88
 30
0.0
 11
1160.3
 21
35.2425
 31
0.0
  0
LINE
  5
215
330
17
100
AcDbEntity
  8
0
100
AcDbLine
 10
1160.3
 20
35.2425
 30
0.0
 11
1162.12
 21
34.88
 31
0.0
  0
LINE
  5
216
330
17
100
AcDbEntity
  8
0
100
AcDbLine
 10
1162.12
 20
34.88
 30
0.0
 11
1163.67
 21
33.8476
 31
0.0
  0
LINE
  5
217
330
17
100
AcDbEntity
  8
0
100
AcDbLine
 10
1163.67
 20
33.8476
 30
0.0
 11
1164.7
 21
32.3025
 31
0.0
  0
LINE
  5
218
330
17
100
AcDbEntity
  8
0
100
AcDbLine
 10
1164.7
 20
32.3025
 30
0.0
 11
1165.06
 21
30.48
 31
0.0
  0
LINE
  5
219
330
17
100
AcDbEntity
  8
0
100
AcDbLine
 10
1165.06
 20
30.48
 30
0.0
 11
1164.7
 21
28.6575
 31
0.0
  0
LINE
  5
21A
330
17
100
AcDbEntity
  8
0
100
AcDbLine
 10
1164.7
 20
28.6575
 30
0.0
 11
1163.67
 21
27.1124
 31
0.0
  0
LINE
  5
21B
330
17
100
AcDbEntity
  8
0
100
AcDbLine
 10
1163.67
 20
27.1124
 30
0.0
 11
1162.12
 21
26.08
 31
0.0
  0
LINE
  5
21C
330
17
100
AcDbEntity
  8
0
100
AcDbLine
 10
1162.12
 20
26.08
 30
0.0
 11
1160.3
 21
25.7175
 31
0.0
  0
LINE
  5
21D
330
17
100
AcDbEntity
  8
0
100
AcDbLine
 10
1160.3
 20
25.7175
 30
0.0
 11
1158.48
 21
26.08
 31
0.0
  0
LINE
  5
21E
330
17
100
AcDbEntity
  8
0
100
AcDbLine
 10
1158.48
 20
26.08
 30
0.0
 11
1156.93
 21
27.1124
 31
0.0
  0
LINE
  5
21F
330
17
100
AcDbEntity
  8
0
100
AcDbLine
 10
1156.93
 20
27.1124
 30
0.0
 11
1155.9
 21
28.6575
 31
0.0
  0
LINE
  5
220
330
17
100
AcDbEntity
  8
0
100
AcDbLine
 10
1155.9
 20
28.6575
 30
0.0
 11
1155.54
 21
30.48
 31
0.0
  0
LINE
  5
221
330
17
100
AcDbEntity
  8
0
100
AcDbLine
 10
1260.1
 20
148.25
 30
0.0
 11
1260.22
 21
150.038
 31
0.0
  0
LINE
  5
222
330
17
100
AcDbEntity
  8
0
100
AcDbLine
 10
1260.22
 20
150.038
 30
0.0
 11
1260.57
 21
151.796
 31
0.0
  0
LINE
  5
223
330
17
100
AcDbEntity
  8
0
100
AcDbLine
 10
1260.57
 20
151.796
 30
0.0
 11
1261.14
 21
153.493
 31
0.0
  0
LINE
  5
224
330
17
100
AcDbEntity
  8
0
100
AcDbLine
 10
1261.14
 20
153.493
 30
0.0
 11
1261.94
 21
155.1
 31
0.0
  0
LINE
  5
225
330
17
100
AcDbEntity
  8
0
100
AcDbLine
 10
1261.94
 20
155.1
 30
0.0
 11
1262.93
 21
156.59
 31
0.0
  0
LINE
  5
226
330
17
100
AcDbEntity
  8
0
100
AcDbLine
 10
1262.93
 20
156.59
 30
0.0
 11
1264.11
 21
157.937
 31
0.0
  0
LINE
  5
227
330
17
100
AcDbEntity
  8
0
100
AcDbLine
 10
1264.11
 20
157.937
 30
0.0
 11
1265.46
 21
159.119
 31
0.0
  0
LINE
  5
228
330
17
100
AcDbEntity
  8
0
100
AcDbLine
 10
1265.46
 20
159.119
 30
0.0
 11
1266.95
 21
160.115
 31
0.0
  0
LINE
  5
229
330
17
100
AcDbEntity
  8
0
100
AcDbLine
 10
1266.95
 20
160.115
 30
0.0
 11
1268.56
 21
160.907
 31
0.0
  0
LINE
  5
22A
330
17
100
AcDbEntity
  8
0
100
AcDbLine
 10
1268.56
 20
160.907
 30
0.0
 11
1270.25
 21
161.483
 31
0.0
  0
LINE
  5
22B
330
17
100
AcDbEntity
  8
0
100
AcDbLine
 10
1270.25
 20
161.483
 30
0.0
 11
1272.01
 21
161.833
 31
0.0
  0
LINE
  5
22C
330
17
100
AcDbEntity
  8
0
100
AcDbLine
 10
1272.01
 20
161.833
 30
0.0
 11
1273.8
 21
161.95
 31
0.0
  0
LINE
  5
22D
330
17
100
AcDbEntity
  8
0
100
AcDbLine
 10
1273.8
 20
161.95
 30
0.0
 11
1275.59
 21
161.833
 31
0.0
  0
LINE
  5
22E
330
17
100
AcDbEntity
  8
0
100
AcDbLine
 10
1275.59
 20
161.833
 30
0.0
 11
1277.35
 21
161.483
 31
0.0
  0
LINE
  5
22F
330
17
100
AcDbEntity
  8
0
100
AcDbLine
 10
1277.35
 20
161.483
 30
0.0
 11
1279.04
 21
160.907
 31
0.0
  0
LINE
  5
230
330
17
100
AcDbEntity
  8
0
100
AcDbLine
 10
1279.04
 20
160.907
 30
0.0
 11
1280.65
 21
160.115
 31
0.0
  0
LINE
  5
231
330
17
100
AcDbEntity
  8
0
100
AcDbLine
 10
1280.65
 20
160.115
 30
0.0
 11
1282.14
 21
159.119
 31
0.0
  0
LINE
  5
232
330
17
100
AcDbEntity
  8
0
100
AcDbLine
 10
1282.14
 20
159.119
 30
0.0
 11
1283.49
 21
157.937
 31
0.0
  0
LINE
  5
233
330
17
100
AcDbEntity
  8
0
100
AcDbLine
 10
1283.49
 20
157.937
 30
0.0
 11
1284.67
 21
156.59
 31
0.0
  0
LINE
  5
234
330
17
100
AcDbEntity
  8
0
100
AcDbLine
 10
1284.67
 20
156.59
 30
0.0
 11
1285.66
 21
155.1
 31
0.0
  0
LINE
  5
235
330
17
100
AcDbEntity
  8
0
100
AcDbLine
 10
1285.66
 20
155.1
 30
0.0
 11
1286.46
 21
153.493
 31
0.0
  0
LINE
  5
236
330
17
100
AcDbEntity
  8
0
100
AcDbLine
 10
1286.46
 20
153.493
 30
0.0
 11
1287.03
 21
151.796
 31
0.0
  0
LINE
  5
237
330
17
100
AcDbEntity
  8
0
100
AcDbLine
 10
1287.03
 20
151.796
 30
0.0
 11
1287.38
 21
150.038
 31
0.0
  0
LINE
  5
238
330
17
100
AcDbEntity
  8
0
100
AcDbLine
 10
1287.38
 20
150.038
 30
0.0
 11
1287.5
 21
148.25
 31
0.0
  0
LINE
  5
239
330
17
100
AcDbEntity
  8
0
100
AcDbLine
 10
1287.5
 20
148.25
 30
0.0
 11
1287.38
 21
146.462
 31
0.0
  0
LINE
  5
23A
330
17
100
AcDbEntity
  8
0
100
AcDbLine
 10
1287.38
 20
146.462
 30
0.0
 11
1287.03
 21
144.704
 31
0.0
  0
LINE
  5
23B
330
17
100
AcDbEntity
  8
0
100
AcDbLine
 10
1287.03
 20
144.704
 30
0.0
 11
1286.46
 21
143.007
 31
0.0
  0
LINE
  5
23C
330
17
100
AcDbEntity
  8
0
100
AcDbLine
 10
1286.46
 20
143.007
 30
0.0
 11
1285.66
 21
141.4
 31
0.0
  0
LINE
  5
23D
330
17
100
AcDbEntity
  8
0
100
AcDbLine
 10
1285.66
 20
141.4
 30
0.0
 11
1284.67
 21
139.91
 31
0.0
  0
LINE
  5
23E
330
17
100
AcDbEntity
  8
0
100
AcDbLine
 10
1284.67
 20
139.91
 30
0.0
 11
1283.49
 21
138.563
 31
0.0
  0
LINE
  5
23F
330
17
100
AcDbEntity
  8
0
100
AcDbLine
 10
1283.49
 20
138.563
 30
0.0
 11
1282.14
 21
137.381
 31
0.0
  0
LINE
  5
240
330
17
100
AcDbEntity
  8
0
100
AcDbLine
 10
1282.14
 20
137.381
 30
0.0
 11
1280.65
 21
136.385
 31
0.0
  0
LINE
  5
241
330
17
100
AcDbEntity
  8
0
100
AcDbLine
 10
1280.65
 20
136.385
 30
0.0
 11
1279.04
 21
135.593
 31
0.0
  0
LINE
  5
242
330
17
100
AcDbEntity
  8
0
100
AcDbLine
 10
1279.04
 20
135.593
 30
0.0
 11
1277.35
 21
135.017
 31
0.0
  0
LINE
  5
243
330
17
100
AcDbEntity
  8
0
100
AcDbLine
 10
1277.35
 20
135.017
 30
0.0
 11
1275.59
 21
134.667
 31
0.0
  0
LINE
  5
244
330
17
100
AcDbEntity
  8
0
100
AcDbLine
 10
1275.59
 20
134.667
 30
0.0
 11
1273.8
 21
134.55
 31
0.0
  0
LINE
  5
245
330
17
100
AcDbEntity
  8
0
100
AcDbLine
 10
1273.8
 20
134.55
 30
0.0
 11
1272.01
 21
134.667
 31
0.0
  0
LINE
  5
246
330
17
100
AcDbEntity
  8
0
100
AcDbLine
 10
1272.01
 20
134.667
 30
0.0
 11
1270.25
 21
135.017
 31
0.0
  0
LINE
  5
247
330
17
100
AcDbEntity
  8
0
100
AcDbLine
 10
1270.25
 20
135.017
 30
0.0
 11
1268.56
 21
135.593
 31
0.0
  0
LINE
  5
248
330
17
100
AcDbEntity
  8
0
100
AcDbLine
 10
1268.56
 20
135.593
 30
0.0
 11
1266.95
 21
136.385
 31
0.0
  0
LINE
  5
249
330
17
100
AcDbEntity
  8
0
100
AcDbLine
 10
1266.95
 20
136.385
 30
0.0
 11
1265.46
 21
137.381
 31
0.0
  0
LINE
  5
24A
330
17
100
AcDbEntity
  8
0
100
AcDbLine
 10
1265.46
 20
137.381
 30
0.0
 11
1264.11
 21
138.563
 31
0.0
  0
LINE
  5
24B
330
17
100
AcDbEntity
  8
0
100
AcDbLine
 10
1264.11
 20
138.563
 30
0.0
 11
1262.93
 21
139.91
 31
0.0
  0
LINE
  5
24C
330
17
100
AcDbEntity
  8
0
100
AcDbLine
 10
1262.93
 20
139.91
 30
0.0
 11
1261.94
 21
141.4
 31
0.0
  0
LINE
  5
24D
330
17
100
AcDbEntity
  8
0
100
AcDbLine
 10
1261.94
 20
141.4
 30
0.0
 11
1261.14
 21
143.007
 31
0.0
  0
LINE
  5
24E
330
17
100
AcDbEntity
  8
0
100
AcDbLine
 10
1261.14
 20
143.007
 30
0.0
 11
1260.57
 21
144.704
 31
0.0
  0
LINE
  5
24F
330
17
100
AcDbEntity
  8
0
100
AcDbLine
 10
1260.57
 20
144.704
 30
0.0
 11
1260.22
 21
146.462
 31
0.0
  0
LINE
  5
250
330
17
100
AcDbEntity
  8
0
100
AcDbLine
 10
1260.22
 20
146.462
 30
0.0
 11
1260.1
 21
148.25
 31
0.0
  0
LINE
  5
251
330
17
100
AcDbEntity
  8
0
100
AcDbLine
 10
1264.86
 20
88.25
 30
0.0
 11
1265.03
 21
89.9936
 31
0.0
  0
LINE
  5
252
330
17
100
AcDbEntity
  8
0
100
AcDbLine
 10
1265.03
 20
89.9936
 30
0.0
 11
1265.54
 21
91.6702
 31
0.0
  0
LINE
  5
253
330
17
100
AcDbEntity
  8
0
100
AcDbLine
 10
1265.54
 20
91.6702
 30
0.0
 11
1266.37
 21
93.2154
 31
0.0
  0
LINE
  5
254
330
17
100
AcDbEntity
  8
0
100
AcDbLine
 10
1266.37
 20
93.2154
 30
0.0
 11
1267.48
 21
94.5698
 31
0.0
  0
LINE
  5
255
330
17
100
AcDbEntity
  8
0
100
AcDbLine
 10
1267.48
 20
94.5698
 30
0.0
 11
1268.83
 21
95.6813
 31
0.0
  0
LINE
  5
256
330
17
100
AcDbEntity
  8
0
100
AcDbLine
 10
1268.83
 20
95.6813
 30
0.0
 11
1270.38
 21
96.5072
 31
0.0
  0
LINE
  5
257
330
17
100
AcDbEntity
  8
0
100
AcDbLine
 10
1270.38
 20
96.5072
 30
0.0
 11
1272.06
 21
97.0158
 31
0.0
  0
LINE
  5
258
330
17
100
AcDbEntity
  8
0
100
AcDbLine
 10
1272.06
 20
97.0158
 30
0.0
 11
1273.8
 21
97.1875
 31
0.0
  0
LINE
  5
259
330
17
100
AcDbEntity
  8
0
100
AcDbLine
 10
1273.8
 20
97.1875
 30
0.0
 11
1275.54
 21
97.0158
 31
0.0
  0
LINE
  5
25A
330
17
100
AcDbEntity
  8
0
100
AcDbLine
 10
1275.54
 20
97.0158
 30
0.0
 11
1277.22
 21
96.5072
 31
0.0
  0
LINE
  5
25B
330
17
100
AcDbEntity
  8
0
100
AcDbLine
 10
1277.22
 20
96.5072
 30
0.0
 11
1278.77
 21
95.6813
 31
0.0
  0
LINE
  5
25C
330
17
100
AcDbEntity
  8
0
100
AcDbLine
 10
1278.77
 20
95.6813
 30
0.0
 11
1280.12
 21
94.5698
 31
0.0
  0
LINE
  5
25D
330
17
100
AcDbEntity
  8
0
100
AcDbLine
 10
1280.12
 20
94.5698
 30
0.0
 11
1281.23
 21
93.2154
 31
0.0
  0
LINE
  5
25E
330
17
100
AcDbEntity
  8
0
100
AcDbLine
 10
1281.23
 20
93.2154
 30
0.0
 11
1282.06
 21
91.6702
 31
0.0
  0
LINE
  5
25F
330
17
100
AcDbEntity
  8
0
100
AcDbLine
 10
1282.06
 20
91.6702
 30
0.0
 11
1282.57
 21
89.9936
 31
0.0
  0
LINE
  5
260
330
17
100
AcDbEntity
  8
0
100
AcDbLine
 10
1282.57
 20
89.9936
 30
0.0
 11
1282.74
 21
88.25
 31
0.0
  0
LINE
  5
261
330
17
100
AcDbEntity
  8
0
100
AcDbLine
 10
1282.74
 20
88.25
 30
0.0
 11
1282.57
 21
86.5064
 31
0.0
  0
LINE
  5
262
330
17
100
AcDbEntity
  8
0
100
AcDbLine
 10
1282.57
 20
86.5064
 30
0.0
 11
1282.06
 21
84.8298
 31
0.0
  0
LINE
  5
263
330
17
100
AcDbEntity
  8
0
100
AcDbLine
 10
1282.06
 20
84.8298
 30
0.0
 11
1281.23
 21
83.2846
 31
0.0
  0
LINE
  5
264
330
17
100
AcDbEntity
  8
0
100
AcDbLine
 10
1281.23
 20
83.2846
 30
0.0
 11
1280.12
 21
81.9302
 31
0.0
  0
LINE
  5
265
330
17
100
AcDbEntity
  8
0
100
AcDbLine
 10
1280.12
 20
81.9302
 30
0.0
 11
1278.77
 21
80.8187
 31
0.0
  0
LINE
  5
266
330
17
100
AcDbEntity
  8
0
100
AcDbLine
 10
1278.77
 20
80.8187
 30
0.0
 11
1277.22
 21
79.9928
 31
0.0
  0
LINE
  5
267
330
17
100
AcDbEntity
  8
0
100
AcDbLine
 10
1277.22
 20
79.9928
 30
0.0
 11
1275.54
 21
79.4842
 31
0.0
  0
LINE
  5
268
330
17
100
AcDbEntity
  8
0
100
AcDbLine
 10
1275.54
 20
79.4842
 30
0.0
 11
1273.8
 21
79.3125
 31
0.0
  0
LINE
  5
269
330
17
100
AcDbEntity
  8
0
100
AcDbLine
 10
1273.8
 20
79.3125
 30
0.0
 11
1272.06
 21
79.4842
 31
0.0
  0
LINE
  5
26A
330
17
100
AcDbEntity
  8
0
100
AcDbLine
 10
1272.06
 20
79.4842
 30
0.0
 11
1270.38
 21
79.9928
 31
0.0
  0
LINE
  5
26B
330
17
100
AcDbEntity
  8
0
100
AcDbLine
 10
1270.38
 20
79.9928
 30
0.0
 11
1268.83
 21
80.8187
 31
0.0
  0
LINE
  5
26C
330
17
100
AcDbEntity
  8
0
100
AcDbLine
 10
1268.83
 20
80.8187
 30
0.0
 11
1267.48
 21
81.9302
 31
0.0
  0
LINE
  5
26D
330
17
100
AcDbEntity
  8
0
100
AcDbLine
 10
1267.48
 20
81.9302
 30
0.0
 11
1266.37
 21
83.2846
 31
0.0
  0
LINE
  5
26E
330
17
100
AcDbEntity
  8
0
100
AcDbLine
 10
1266.37
 20
83.2846
 30
0.0
 11
1265.54
 21
84.8298
 31
0.0
  0
LINE
  5
26F
330
17
100
AcDbEntity
  8
0
100
AcDbLine
 10
1265.54
 20
84.8298
 30
0.0
 11
1265.03
 21
86.5064
 31
0.0
  0
LINE
  5
270
330
17
100
AcDbEntity
  8
0
100
AcDbLine
 10
1265.03
 20
86.5064
 30
0.0
 11
1264.86
 21
88.25
 31
0.0
  0
LINE
  5
271
330
17
100
AcDbEntity
  8
0
100
AcDbLine
 10
1282.21
 20
383.25
 30
0.0
 11
1282.57
 21
385.073
 31
0.0
  0
LINE
  5
272
330
17
100
AcDbEntity
  8
0
100
AcDbLine
 10
1282.57
 20
385.073
 30
0.0
 11
1283.6
 21
386.618
 31
0.0
  0
LINE
  5
273
330
17
100
AcDbEntity
  8
0
100
AcDbLine
 10
1283.6
 20
386.618
 30
0.0
 11
1285.15
 21
387.65
 31
0.0
  0
LINE
  5
274
330
17
100
AcDbEntity
  8
0
100
AcDbLine
 10
1285.15
 20
387.65
 30
0.0
 11
1286.97
 21
388.012
 31
0.0
  0
LINE
  5
275
330
17
100
AcDbEntity
  8
0
100
AcDbLine
 10
1286.97
 20
388.012
 30
0.0
 11
1288.79
 21
387.65
 31
0.0
  0
LINE
  5
276
330
17
100
AcDbEntity
  8
0
100
AcDbLine
 10
1288.79
 20
387.65
 30
0.0
 11
1290.34
 21
386.618
 31
0.0
  0
LINE
  5
277
330
17
100
AcDbEntity
  8
0
100
AcDbLine
 10
1290.34
 20
386.618
 30
0.0
 11
1291.37
 21
385.073
 31
0.0
  0
LINE
  5
278
330
17
100
AcDbEntity
  8
0
100
AcDbLine
 10
1291.37
 20
385.073
 30
0.0
 11
1291.73
 21
383.25
 31
0.0
  0
LINE
  5
279
330
17
100
AcDbEntity
  8
0
100
AcDbLine
 10
1291.73
 20
383.25
 30
0.0
 11
1291.37
 21
381.427
 31
0.0
  0
LINE
  5
27A
330
17
100
AcDbEntity
  8
0
100
AcDbLine
 10
1291.37
 20
381.427
 30
0.0
 11
1290.34
 21
379.882
 31
0.0
  0
LINE
  5
27B
330
17
100
AcDbEntity
  8
0
100
AcDbLine
 10
1290.34
 20
379.882
 30
0.0
 11
1288.79
 21
378.85
 31
0.0
  0
LINE
  5
27C
330
17
100
AcDbEntity
  8
0
100
AcDbLine
 10
1288.79
 20
378.85
 30
0.0
 11
1286.97
 21
378.487
 31
0.0
  0
LINE
  5
27D
330
17
100
AcDbEntity
  8
0
100
AcDbLine
 10
1286.97
 20
378.487
 30
0.0
 11
1285.15
 21
378.85
 31
0.0
  0
LINE
  5
27E
330
17
100
AcDbEntity
  8
0
100
AcDbLine
 10
1285.15
 20
378.85
 30
0.0
 11
1283.6
 21
379.882
 31
0.0
  0
LINE
  5
27F
330
17
100
AcDbEntity
  8
0
100
AcDbLine
 10
1283.6
 20
379.882
 30
0.0
 11
1282.57
 21
381.427
 31
0.0
  0
LINE
  5
280
330
17
100
AcDbEntity
  8
0
100
AcDbLine
 10
1282.57
 20
381.427
 30
0.0
 11
1282.21
 21
383.25
 31
0.0
  0
LINE
  5
281
330
17
100
AcDbEntity
  8
0
100
AcDbLine
 10
1282.21
 20
448.25
 30
0.0
 11
1282.57
 21
450.073
 31
0.0
  0
LINE
  5
282
330
17
100
AcDbEntity
  8
0
100
AcDbLine
 10
1282.57
 20
450.073
 30
0.0
 11
1283.6
 21
451.618
 31
0.0
  0
LINE
  5
283
330
17
100
AcDbEntity
  8
0
100
AcDbLine
 10
1283.6
 20
451.618
 30
0.0
 11
1285.15
 21
452.65
 31
0.0
  0
LINE
  5
284
330
17
100
AcDbEntity
  8
0
100
AcDbLine
 10
1285.15
 20
452.65
 30
0.0
 11
1286.97
 21
453.012
 31
0.0
  0
LINE
  5
285
330
17
100
AcDbEntity
  8
0
100
AcDbLine
 10
1286.97
 20
453.012
 30
0.0
 11
1288.79
 21
452.65
 31
0.0
  0
LINE
  5
286
330
17
100
AcDbEntity
  8
0
100
AcDbLine
 10
1288.79
 20
452.65
 30
0.0
 11
1290.34
 21
451.618
 31
0.0
  0
LINE
  5
287
330
17
100
AcDbEntity
  8
0
100
AcDbLine
 10
1290.34
 20
451.618
 30
0.0
 11
1291.37
 21
450.073
 31
0.0
  0
LINE
  5
288
330
17
100
AcDbEntity
  8
0
100
AcDbLine
 10
1291.37
 20
450.073
 30
0.0
 11
1291.73
 21
448.25
 31
0.0
  0
LINE
  5
289
330
17
100
AcDbEntity
  8
0
100
AcDbLine
 10
1291.73
 20
448.25
 30
0.0
 11
1291.37
 21
446.427
 31
0.0
  0
LINE
  5
28A
330
17
100
AcDbEntity
  8
0
100
AcDbLine
 10
1291.37
 20
446.427
 30
0.0
 11
1290.34
 21
444.882
 31
0.0
  0
LINE
  5
28B
330
17
100
AcDbEntity
  8
0
100
AcDbLine
 10
1290.34
 20
444.882
 30
0.0
 11
1288.79
 21
443.85
 31
0.0
  0
LINE
  5
28C
330
17
100
AcDbEntity
  8
0
100
AcDbLine
 10
1288.79
 20
443.85
 30
0.0
 11
1286.97
 21
443.487
 31
0.0
  0
LINE
  5
28D
330
17
100
AcDbEntity
  8
0
100
AcDbLine
 10
1286.97
 20
443.487
 30
0.0
 11
1285.15
 21
443.85
 31
0.0
  0
LINE
  5
28E
330
17
100
AcDbEntity
  8
0
100
AcDbLine
 10
1285.15
 20
443.85
 30
0.0
 11
1283.6
 21
444.882
 31
0.0
  0
LINE
  5
28F
330
17
100
AcDbEntity
  8
0
100
AcDbLine
 10
1283.6
 20
444.882
 30
0.0
 11
1282.57
 21
446.427
 31
0.0
  0
LINE
  5
290
330
17
100
AcDbEntity
  8
0
100
AcDbLine
 10
1282.57
 20
446.427
 30
0.0
 11
1282.21
 21
448.25
 31
0.0
  0
LINE
  5
291
330
17
100
AcDbEntity
  8
0
100
AcDbLine
 10
1282.21
 20
513.25
 30
0.0
 11
1282.57
 21
515.073
 31
0.0
  0
LINE
  5
292
330
17
100
AcDbEntity
  8
0
100
AcDbLine
 10
1282.57
 20
515.073
 30
0.0
 11
1283.6
 21
516.618
 31
0.0
  0
LINE
  5
293
330
17
100
AcDbEntity
  8
0
100
AcDbLine
 10
1283.6
 20
516.618
 30
0.0
 11
1285.15
 21
517.65
 31
0.0
  0
LINE
  5
294
330
17
100
AcDbEntity
  8
0
100
AcDbLine
 10
1285.15
 20
517.65
 30
0.0
 11
1286.97
 21
518.012
 31
0.0
  0
LINE
  5
295
330
17
100
AcDbEntity
  8
0
100
AcDbLine
 10
1286.97
 20
518.012
 30
0.0
 11
1288.79
 21
517.65
 31
0.0
  0
LINE
  5
296
330
17
100
AcDbEntity
  8
0
100
AcDbLine
 10
1288.79
 20
517.65
 30
0.0
 11
1290.34
 21
516.618
 31
0.0
  0
LINE
  5
297
330
17
100
AcDbEntity
  8
0
100
AcDbLine
 10
1290.34
 20
516.618
 30
0.0
 11
1291.37
 21
515.073
 31
0.0
  0
LINE
  5
298
330
17
100
AcDbEntity
  8
0
100
AcDbLine
 10
1291.37
 20
515.073
 30
0.0
 11
1291.73
 21
513.25
 31
0.0
  0
LINE
  5
299
330
17
100
AcDbEntity
  8
0
100
AcDbLine
 10
1291.73
 20
513.25
 30
0.0
 11
1291.37
 21
511.427
 31
0.0
  0
LINE
  5
29A
330
17
100
AcDbEntity
  8
0
100
AcDbLine
 10
1291.37
 20
511.427
 30
0.0
 11
1290.34
 21
509.882
 31
0.0
  0
LINE
  5
29B
330
17
100
AcDbEntity
  8
0
100
AcDbLine
 10
1290.34
 20
509.882
 30
0.0
 11
1288.79
 21
508.85
 31
0.0
  0
LINE
  5
29C
330
17
100
AcDbEntity
  8
0
100
AcDbLine
 10
1288.79
 20
508.85
 30
0.0
 11
1286.97
 21
508.487
 31
0.0
  0
LINE
  5
29D
330
17
100
AcDbEntity
  8
0
100
AcDbLine
 10
1286.97
 20
508.487
 30
0.0
 11
1285.15
 21
508.85
 31
0.0
  0
LINE
  5
29E
330
17
100
AcDbEntity
  8
0
100
AcDbLine
 10
1285.15
 20
508.85
 30
0.0
 11
1283.6
 21
509.882
 31
0.0
  0
LINE
  5
29F
330
17
100
AcDbEntity
  8
0
100
AcDbLine
 10
1283.6
 20
509.882
 30
0.0
 11
1282.57
 21
511.427
 31
0.0
  0
LINE
  5
2A0
330
17
100
AcDbEntity
  8
0
100
AcDbLine
 10
1282.57
 20
511.427
 30
0.0
 11
1282.21
 21
513.25
 31
0.0
  0
LINE
  5
2A1
330
17
100
AcDbEntity
  8
0
100
AcDbLine
 10
1282.21
 20
578.25
 30
0.0
 11
1282.57
 21
580.073
 31
0.0
  0
LINE
  5
2A2
330
17
100
AcDbEntity
  8
0
100
AcDbLine
 10
1282.57
 20
580.073
 30
0.0
 11
1283.6
 21
581.618
 31
0.0
  0
LINE
  5
2A3
330
17
100
AcDbEntity
  8
0
100
AcDbLine
 10
1283.6
 20
581.618
 30
0.0
 11
1285.15
 21
582.65
 31
0.0
  0
LINE
  5
2A4
330
17
100
AcDbEntity
  8
0
100
AcDbLine
 10
1285.15
 20
582.65
 30
0.0
 11
1286.97
 21
583.012
 31
0.0
  0
LINE
  5
2A5
330
17
100
AcDbEntity
  8
0
100
AcDbLine
 10
1286.97
 20
583.012
 30
0.0
 11
1288.79
 21
582.65
 31
0.0
  0
LINE
  5
2A6
330
17
100
AcDbEntity
  8
0
100
AcDbLine
 10
1288.79
 20
582.65
 30
0.0
 11
1290.34
 21
581.618
 31
0.0
  0
LINE
  5
2A7
330
17
100
AcDbEntity
  8
0
100
AcDbLine
 10
1290.34
 20
581.618
 30
0.0
 11
1291.37
 21
580.073
 31
0.0
  0
LINE
  5
2A8
330
17
100
AcDbEntity
  8
0
100
AcDbLine
 10
1291.37
 20
580.073
 30
0.0
 11
1291.73
 21
578.25
 31
0.0
  0
LINE
  5
2A9
330
17
100
AcDbEntity
  8
0
100
AcDbLine
 10
1291.73
 20
578.25
 30
0.0
 11
1291.37
 21
576.427
 31
0.0
  0
LINE
  5
2AA
330
17
100
AcDbEntity
  8
0
100
AcDbLine
 10
1291.37
 20
576.427
 30
0.0
 11
1290.34
 21
574.882
 31
0.0
  0
LINE
  5
2AB
330
17
100
AcDbEntity
  8
0
100
AcDbLine
 10
1290.34
 20
574.882
 30
0.0
 11
1288.79
 21
573.85
 31
0.0
  0
LINE
  5
2AC
330
17
100
AcDbEntity
  8
0
100
AcDbLine
 10
1288.79
 20
573.85
 30
0.0
 11
1286.97
 21
573.487
 31
0.0
  0
LINE
  5
2AD
330
17
100
AcDbEntity
  8
0
100
AcDbLine
 10
1286.97
 20
573.487
 30
0.0
 11
1285.15
 21
573.85
 31
0.0
  0
LINE
  5
2AE
330
17
100
AcDbEntity
  8
0
100
AcDbLine
 10
1285.15
 20
573.85
 30
0.0
 11
1283.6
 21
574.882
 31
0.0
  0
LINE
  5
2AF
330
17
100
AcDbEntity
  8
0
100
AcDbLine
 10
1283.6
 20
574.882
 30
0.0
 11
1282.57
 21
576.427
 31
0.0
  0
LINE
  5
2B0
330
17
100
AcDbEntity
  8
0
100
AcDbLine
 10
1282.57
 20
576.427
 30
0.0
 11
1282.21
 21
578.25
 31
0.0
  0
LINE
  5
2B1
330
17
100
AcDbEntity
  8
0
100
AcDbLine
 10
1282.21
 20
643.25
 30
0.0
 11
1282.57
 21
645.073
 31
0.0
  0
LINE
  5
2B2
330
17
100
AcDbEntity
  8
0
100
AcDbLine
 10
1282.57
 20
645.073
 30
0.0
 11
1283.6
 21
646.618
 31
0.0
  0
LINE
  5
2B3
330
17
100
AcDbEntity
  8
0
100
AcDbLine
 10
1283.6
 20
646.618
 30
0.0
 11
1285.15
 21
647.65
 31
0.0
  0
LINE
  5
2B4
330
17
100
AcDbEntity
  8
0
100
AcDbLine
 10
1285.15
 20
647.65
 30
0.0
 11
1286.97
 21
648.012
 31
0.0
  0
LINE
  5
2B5
330
17
100
AcDbEntity
  8
0
100
AcDbLine
 10
1286.97
 20
648.012
 30
0.0
 11
1288.79
 21
647.65
 31
0.0
  0
LINE
  5
2B6
330
17
100
AcDbEntity
  8
0
100
AcDbLine
 10
1288.79
 20
647.65
 30
0.0
 11
1290.34
 21
646.618
 31
0.0
  0
LINE
  5
2B7
330
17
100
AcDbEntity
  8
0
100
AcDbLine
 10
1290.34
 20
646.618
 30
0.0
 11
1291.37
 21
645.073
 31
0.0
  0
LINE
  5
2B8
330
17
100
AcDbEntity
  8
0
100
AcDbLine
 10
1291.37
 20
645.073
 30
0.0
 11
1291.73
 21
643.25
 31
0.0
  0
LINE
  5
2B9
330
17
100
AcDbEntity
  8
0
100
AcDbLine
 10
1291.73
 20
643.25
 30
0.0
 11
1291.37
 21
641.427
 31
0.0
  0
LINE
  5
2BA
330
17
100
AcDbEntity
  8
0
100
AcDbLine
 10
1291.37
 20
641.427
 30
0.0
 11
1290.34
 21
639.882
 31
0.0
  0
LINE
  5
2BB
330
17
100
AcDbEntity
  8
0
100
AcDbLine
 10
1290.34
 20
639.882
 30
0.0
 11
1288.79
 21
638.85
 31
0.0
  0
LINE
  5
2BC
330
17
100
AcDbEntity
  8
0
100
AcDbLine
 10
1288.79
 20
638.85
 30
0.0
 11
1286.97
 21
638.487
 31
0.0
  0
LINE
  5
2BD
330
17
100
AcDbEntity
  8
0
100
AcDbLine
 10
1286.97
 20
638.487
 30
0.0
 11
1285.15
 21
638.85
 31
0.0
  0
LINE
  5
2BE
330
17
100
AcDbEntity
  8
0
100
AcDbLine
 10
1285.15
 20
638.85
 30
0.0
 11
1283.6
 21
639.882
 31
0.0
  0
LINE
  5
2BF
330
17
100
AcDbEntity
  8
0
100
AcDbLine
 10
1283.6
 20
639.882
 30
0.0
 11
1282.57
 21
641.427
 31
0.0
  0
LINE
  5
2C0
330
17
100
AcDbEntity
  8
0
100
AcDbLine
 10
1282.57
 20
641.427
 30
0.0
 11
1282.21
 21
643.25
 31
0.0
  0
LINE
  5
2C1
330
17
100
AcDbEntity
  8
0
100
AcDbLine
 10
1282.21
 20
708.25
 30
0.0
 11
1282.57
 21
710.073
 31
0.0
  0
LINE
  5
2C2
330
17
100
AcDbEntity
  8
0
100
AcDbLine
 10
1282.57
 20
710.073
 30
0.0
 11
1283.6
 21
711.618
 31
0.0
  0
LINE
  5
2C3
330
17
100
AcDbEntity
  8
0
100
AcDbLine
 10
1283.6
 20
711.618
 30
0.0
 11
1285.15
 21
712.65
 31
0.0
  0
LINE
  5
2C4
330
17
100
AcDbEntity
  8
0
100
AcDbLine
 10
1285.15
 20
712.65
 30
0.0
 11
1286.97
 21
713.012
 31
0.0
  0
LINE
  5
2C5
330
17
100
AcDbEntity
  8
0
100
AcDbLine
 10
1286.97
 20
713.012
 30
0.0
 11
1288.79
 21
712.65
 31
0.0
  0
LINE
  5
2C6
330
17
100
AcDbEntity
  8
0
100
AcDbLine
 10
1288.79
 20
712.65
 30
0.0
 11
1290.34
 21
711.618
 31
0.0
  0
LINE
  5
2C7
330
17
100
AcDbEntity
  8
0
100
AcDbLine
 10
1290.34
 20
711.618
 30
0.0
 11
1291.37
 21
710.073
 31
0.0
  0
LINE
  5
2C8
330
17
100
AcDbEntity
  8
0
100
AcDbLine
 10
1291.37
 20
710.073
 30
0.0
 11
1291.73
 21
708.25
 31
0.0
  0
LINE
  5
2C9
330
17
100
AcDbEntity
  8
0
100
AcDbLine
 10
1291.73
 20
708.25
 30
0.0
 11
1291.37
 21
706.427
 31
0.0
  0
LINE
  5
2CA
330
17
100
AcDbEntity
  8
0
100
AcDbLine
 10
1291.37
 20
706.427
 30
0.0
 11
1290.34
 21
704.882
 31
0.0
  0
LINE
  5
2CB
330
17
100
AcDbEntity
  8
0
100
AcDbLine
 10
1290.34
 20
704.882
 30
0.0
 11
1288.79
 21
703.85
 31
0.0
  0
LINE
  5
2CC
330
17
100
AcDbEntity
  8
0
100
AcDbLine
 10
1288.79
 20
703.85
 30
0.0
 11
1286.97
 21
703.487
 31
0.0
  0
LINE
  5
2CD
330
17
100
AcDbEntity
  8
0
100
AcDbLine
 10
1286.97
 20
703.487
 30
0.0
 11
1285.15
 21
703.85
 31
0.0
  0
LINE
  5
2CE
330
17
100
AcDbEntity
  8
0
100
AcDbLine
 10
1285.15
 20
703.85
 30
0.0
 11
1283.6
 21
704.882
 31
0.0
  0
LINE
  5
2CF
330
17
100
AcDbEntity
  8
0
100
AcDbLine
 10
1283.6
 20
704.882
 30
0.0
 11
1282.57
 21
706.427
 31
0.0
  0
LINE
  5
2D0
330
17
100
AcDbEntity
  8
0
100
AcDbLine
 10
1282.57
 20
706.427
 30
0.0
 11
1282.21
 21
708.25
 31
0.0
  0
LINE
  5
2D1
330
17
100
AcDbEntity
  8
0
100
AcDbLine
 10
1282.21
 20
773.25
 30
0.0
 11
1282.57
 21
775.073
 31
0.0
  0
LINE
  5
2D2
330
17
100
AcDbEntity
  8
0
100
AcDbLine
 10
1282.57
 20
775.073
 30
0.0
 11
1283.6
 21
776.618
 31
0.0
  0
LINE
  5
2D3
330
17
100
AcDbEntity
  8
0
100
AcDbLine
 10
1283.6
 20
776.618
 30
0.0
 11
1285.15
 21
777.65
 31
0.0
  0
LINE
  5
2D4
330
17
100
AcDbEntity
  8
0
100
AcDbLine
 10
1285.15
 20
777.65
 30
0.0
 11
1286.97
 21
778.012
 31
0.0
  0
LINE
  5
2D5
330
17
100
AcDbEntity
  8
0
100
AcDbLine
 10
1286.97
 20
778.012
 30
0.0
 11
1288.79
 21
777.65
 31
0.0
  0
LINE
  5
2D6
330
17
100
AcDbEntity
  8
0
100
AcDbLine
 10
1288.79
 20
777.65
 30
0.0
 11
1290.34
 21
776.618
 31
0.0
  0
LINE
  5
2D7
330
17
100
AcDbEntity
  8
0
100
AcDbLine
 10
1290.34
 20
776.618
 30
0.0
 11
1291.37
 21
775.073
 31
0.0
  0
LINE
  5
2D8
330
17
100
AcDbEntity
  8
0
100
AcDbLine
 10
1291.37
 20
775.073
 30
0.0
 11
1291.73
 21
773.25
 31
0.0
  0
LINE
  5
2D9
330
17
100
AcDbEntity
  8
0
100
AcDbLine
 10
1291.73
 20
773.25
 30
0.0
 11
1291.37
 21
771.427
 31
0.0
  0
LINE
  5
2DA
330
17
100
AcDbEntity
  8
0
100
AcDbLine
 10
1291.37
 20
771.427
 30
0.0
 11
1290.34
 21
769.882
 31
0.0
  0
LINE
  5
2DB
330
17
100
AcDbEntity
  8
0
100
AcDbLine
 10
1290.34
 20
769.882
 30
0.0
 11
1288.79
 21
768.85
 31
0.0
  0
LINE
  5
2DC
330
17
100
AcDbEntity
  8
0
100
AcDbLine
 10
1288.79
 20
768.85
 30
0.0
 11
1286.97
 21
768.487
 31
0.0
  0
LINE
  5
2DD
330
17
100
AcDbEntity
  8
0
100
AcDbLine
 10
1286.97
 20
768.487
 30
0.0
 11
1285.15
 21
768.85
 31
0.0
  0
LINE
  5
2DE
330
17
100
AcDbEntity
  8
0
100
AcDbLine
 10
1285.15
 20
768.85
 30
0.0
 11
1283.6
 21
769.882
 31
0.0
  0
LINE
  5
2DF
330
17
100
AcDbEntity
  8
0
100
AcDbLine
 10
1283.6
 20
769.882
 30
0.0
 11
1282.57
 21
771.427
 31
0.0
  0
LINE
  5
2E0
330
17
100
AcDbEntity
  8
0
100
AcDbLine
 10
1282.57
 20
771.427
 30
0.0
 11
1282.21
 21
773.25
 31
0.0
  0
LINE
  5
2E1
330
17
100
AcDbEntity
  8
0
100
AcDbLine
 10
1282.21
 20
838.25
 30
0.0
 11
1282.57
 21
840.073
 31
0.0
  0
LINE
  5
2E2
330
17
100
AcDbEntity
  8
0
100
AcDbLine
 10
1282.57
 20
840.073
 30
0.0
 11
1283.6
 21
841.618
 31
0.0
  0
LINE
  5
2E3
330
17
100
AcDbEntity
  8
0
100
AcDbLine
 10
1283.6
 20
841.618
 30
0.0
 11
1285.15
 21
842.65
 31
0.0
  0
LINE
  5
2E4
330
17
100
AcDbEntity
  8
0
100
AcDbLine
 10
1285.15
 20
842.65
 30
0.0
 11
1286.97
 21
843.012
 31
0.0
  0
LINE
  5
2E5
330
17
100
AcDbEntity
  8
0
100
AcDbLine
 10
1286.97
 20
843.012
 30
0.0
 11
1288.79
 21
842.65
 31
0.0
  0
LINE
  5
2E6
330
17
100
AcDbEntity
  8
0
100
AcDbLine
 10
1288.79
 20
842.65
 30
0.0
 11
1290.34
 21
841.618
 31
0.0
  0
LINE
  5
2E7
330
17
100
AcDbEntity
  8
0
100
AcDbLine
 10
1290.34
 20
841.618
 30
0.0
 11
1291.37
 21
840.073
 31
0.0
  0
LINE
  5
2E8
330
17
100
AcDbEntity
  8
0
100
AcDbLine
 10
1291.37
 20
840.073
 30
0.0
 11
1291.73
 21
838.25
 31
0.0
  0
LINE
  5
2E9
330
17
100
AcDbEntity
  8
0
100
AcDbLine
 10
1291.73
 20
838.25
 30
0.0
 11
1291.37
 21
836.427
 31
0.0
  0
LINE
  5
2EA
330
17
100
AcDbEntity
  8
0
100
AcDbLine
 10
1291.37
 20
836.427
 30
0.0
 11
1290.34
 21
834.882
 31
0.0
  0
LINE
  5
2EB
330
17
100
AcDbEntity
  8
0
100
AcDbLine
 10
1290.34
 20
834.882
 30
0.0
 11
1288.79
 21
833.85
 31
0.0
  0
LINE
  5
2EC
330
17
100
AcDbEntity
  8
0
100
AcDbLine
 10
1288.79
 20
833.85
 30
0.0
 11
1286.97
 21
833.487
 31
0.0
  0
LINE
  5
2ED
330
17
100
AcDbEntity
  8
0
100
AcDbLine
 10
1286.97
 20
833.487
 30
0.0
 11
1285.15
 21
833.85
 31
0.0
  0
LINE
  5
2EE
330
17
100
AcDbEntity
  8
0
100
AcDbLine
 10
1285.15
 20
833.85
 30
0.0
 11
1283.6
 21
834.882
 31
0.0
  0
LINE
  5
2EF
330
17
100
AcDbEntity
  8
0
100
AcDbLine
 10
1283.6
 20
834.882
 30
0.0
 11
1282.57
 21
836.427
 31
0.0
  0
LINE
  5
2F0
330
17
100
AcDbEntity
  8
0
100
AcDbLine
 10
1282.57
 20
836.427
 30
0.0
 11
1282.21
 21
838.25
 31
0.0
  0
LINE
  5
2F1
330
17
100
AcDbEntity
  8
0
100
AcDbLine
 10
1285.5
 20
418.25
 30
0.0
 11
1285.76
 21
420.923
 31
0.0
  0
LINE
  5
2F2
330
17
100
AcDbEntity
  8
0
100
AcDbLine
 10
1285.76
 20
420.923
 30
0.0
 11
1286.54
 21
423.493
 31
0.0
  0
LINE
  5
2F3
330
17
100
AcDbEntity
  8
0
100
AcDbLine
 10
1286.54
 20
423.493
 30
0.0
 11
1287.81
 21
425.861
 31
0.0
  0
LINE
  5
2F4
330
17
100
AcDbEntity
  8
0
100
AcDbLine
 10
1287.81
 20
425.861
 30
0.0
 11
1289.51
 21
427.937
 31
0.0
  0
LINE
  5
2F5
330
17
100
AcDbEntity
  8
0
100
AcDbLine
 10
1289.51
 20
427.937
 30
0.0
 11
1291.59
 21
429.641
 31
0.0
  0
LINE
  5
2F6
330
17
100
AcDbEntity
  8
0
100
AcDbLine
 10
1291.59
 20
429.641
 30
0.0
 11
1293.96
 21
430.907
 31
0.0
  0
LINE
  5
2F7
330
17
100
AcDbEntity
  8
0
100
AcDbLine
 10
1293.96
 20
430.907
 30
0.0
 11
1296.53
 21
431.687
 31
0.0
  0
LINE
  5
2F8
330
17
100
AcDbEntity
  8
0
100
AcDbLine
 10
1296.53
 20
431.687
 30
0.0
 11
1299.2
 21
431.95
 31
0.0
  0
LINE
  5
2F9
330
17
100
AcDbEntity
  8
0
100
AcDbLine
 10
1299.2
 20
431.95
 30
0.0
 11
1301.87
 21
431.687
 31
0.0
  0
LINE
  5
2FA
330
17
100
AcDbEntity
  8
0
100
AcDbLine
 10
1301.87
 20
431.687
 30
0.0
 11
1304.44
 21
430.907
 31
0.0
  0
LINE
  5
2FB
330
17
100
AcDbEntity
  8
0
100
AcDbLine
 10
1304.44
 20
430.907
 30
0.0
 11
1306.81
 21
429.641
 31
0.0
  0
LINE
  5
2FC
330
17
100
AcDbEntity
  8
0
100
AcDbLine
 10
1306.81
 20
429.641
 30
0.0
 11
1308.89
 21
427.937
 31
0.0
  0
LINE
  5
2FD
330
17
100
AcDbEntity
  8
0
100
AcDbLine
 10
1308.89
 20
427.937
 30
0.0
 11
1310.59
 21
425.861
 31
0.0
  0
LINE
  5
2FE
330
17
100
AcDbEntity
  8
0
100
AcDbLine
 10
1310.59
 20
425.861
 30
0.0
 11
1311.86
 21
423.493
 31
0.0
  0
LINE
  5
2FF
330
17
100
AcDbEntity
  8
0
100
AcDbLine
 10
1311.86
 20
423.493
 30
0.0
 11
1312.64
 21
420.923
 31
0.0
  0
LINE
  5
300
330
17
100
AcDbEntity
  8
0
100
AcDbLine
 10
1312.64
 20
420.923
 30
0.0
 11
1312.9
 21
418.25
 31
0.0
  0
LINE
  5
301
330
17
100
AcDbEntity
  8
0
100
AcDbLine
 10
1312.9
 20
418.25
 30
0.0
 11
1312.64
 21
415.577
 31
0.0
  0
LINE
  5
302
330
17
100
AcDbEntity
  8
0
100
AcDbLine
 10
1312.64
 20
415.577
 30
0.0
 11
1311.86
 21
413.007
 31
0.0
  0
LINE
  5
303
330
17
100
AcDbEntity
  8
0
100
AcDbLine
 10
1311.86
 20
413.007
 30
0.0
 11
1310.59
 21
410.639
 31
0.0
  0
LINE
  5
304
330
17
100
AcDbEntity
  8
0
100
AcDbLine
 10
1310.59
 20
410.639
 30
0.0
 11
1308.89
 21
408.563
 31
0.0
  0
LINE
  5
305
330
17
100
AcDbEntity
  8
0
100
AcDbLine
 10
1308.89
 20
408.563
 30
0.0
 11
1306.81
 21
406.859
 31
0.0
  0
LINE
  5
306
330
17
100
AcDbEntity
  8
0
100
AcDbLine
 10
1306.81
 20
406.859
 30
0.0
 11
1304.44
 21
405.593
 31
0.0
  0
LINE
  5
307
330
17
100
AcDbEntity
  8
0
100
AcDbLine
 10
1304.44
 20
405.593
 30
0.0
 11
1301.87
 21
404.813
 31
0.0
  0
LINE
  5
308
330
17
100
AcDbEntity
  8
0
100
AcDbLine
 10
1301.87
 20
404.813
 30
0.0
 11
1299.2
 21
404.55
 31
0.0
  0
LINE
  5
309
330
17
100
AcDbEntity
  8
0
100
AcDbLine
 10
1299.2
 20
404.55
 30
0.0
 11
1296.53
 21
404.813
 31
0.0
  0
LINE
  5
30A
330
17
100
AcDbEntity
  8
0
100
AcDbLine
 10
1296.53
 20
404.813
 30
0.0
 11
1293.96
 21
405.593
 31
0.0
  0
LINE
  5
30B
330
17
100
AcDbEntity
  8
0
100
AcDbLine
 10
1293.96
 20
405.593
 30
0.0
 11
1291.59
 21
406.859
 31
0.0
  0
LINE
  5
30C
330
17
100
AcDbEntity
  8
0
100
AcDbLine
 10
1291.59
 20
406.859
 30
0.0
 11
1289.51
 21
408.563
 31
0.0
  0
LINE
  5
30D
330
17
100
AcDbEntity
  8
0
100
AcDbLine
 10
1289.51
 20
408.563
 30
0.0
 11
1287.81
 21
410.639
 31
0.0
  0
LINE
  5
30E
330
17
100
AcDbEntity
  8
0
100
AcDbLine
 10
1287.81
 20
410.639
 30
0.0
 11
1286.54
 21
413.007
 31
0.0
  0
LINE
  5
30F
330
17
100
AcDbEntity
  8
0
100
AcDbLine
 10
1286.54
 20
413.007
 30
0.0
 11
1285.76
 21
415.577
 31
0.0
  0
LINE
  5
310
330
17
100
AcDbEntity
  8
0
100
AcDbLine
 10
1285.76
 20
415.577
 30
0.0
 11
1285.5
 21
418.25
 31
0.0
  0
ENDSEC
  0
SECTION
  2
OBJECTS
  0
DICTIONARY
  5
A
330
0
100
AcDbDictionary
281
1
  3
ACAD_COLOR
350
B
  3
ACAD_GROUP
350
C
  3
ACAD_LAYOUT
350
D
  3
ACAD_MATERIAL
350
E
  3
ACAD_MLEADERSTYLE
350
F
  3
ACAD_MLINESTYLE
350
10
  3
ACAD_PLOTSETTINGS
350
11
  3
ACAD_PLOTSTYLENAME
350
12
  3
ACAD_SCALELIST
350
14
  3
ACAD_TABLESTYLE
350
15
  3
ACAD_VISUALSTYLE
350
16
  3
EZDXF_META
350
2D
  0
DICTIONARY
  5
B
330
A
100
AcDbDictionary
281
1
  0
DICTIONARY
  5
C
330
A
100
AcDbDictionary
281
1
  0
DICTIONARY
  5
D
330
A
100
AcDbDictionary
281
1
  3
Model
350
1A
  3
Layout1
350
1E
  0
DICTIONARY
  5
E
330
A
100
AcDbDictionary
281
1
  3
ByBlock
350
1F
  3
ByLayer
350
20
  3
Global
350
21
  0
DICTIONARY
  5
F
330
A
100
AcDbDictionary
281
1
  3
Standard
350
2C
  0
DICTIONARY
  5
10
330
A
100
AcDbDictionary
281
1
  3
Standard
350
22
  0
DICTIONARY
  5
11
330
A
100
AcDbDictionary
281
1
  0
ACDBDICTIONARYWDFLT
  5
12
330
A
100
AcDbDictionary
281
1
  3
Normal
350
13
100
AcDbDictionaryWithDefault
340
13
  0
ACDBPLACEHOLDER
  5
13
330
12
  0
DICTIONARY
  5
14
330
A
100
AcDbDictionary
281
1
  0
DICTIONARY
  5
15
330
A
100
AcDbDictionary
281
1
  0
DICTIONARY
  5
16
330
A
100
AcDbDictionary
281
1
  0
LAYOUT
  5
1A
330
D
100
AcDbPlotSettings
  1

  4
A3
  6

 40
7.5
 41
20.0
 42
7.5
 43
20.0
 44
420.0
 45
297.0
 46
0.0
 47
0.0
 48
0.0
 49
0.0
140
0.0
141
0.0
142
1.0
143
1.0
 70
1024
 72
1
 73
0
 74
5
  7

 75
16
 76
0
 77
2
 78
300
147
1.0
148
0.0
149
0.0
100
AcDbLayout
  1
Model
 70
1
 71
0
 10
0.0
 20
0.0
 11
420.0
 21
297.0
 12
0.0
 22
0.0
 32
0.0
 14
1e+20
 24
1e+20
 34
1e+20
 15
-1e+20
 25
-1e+20
 35
-1e+20
146
0.0
 13
0.0
 23
0.0
 33
0.0
 16
1.0
 26
0.0
 36
0.0
 17
0.0
 27
1.0
 37
0.0
 76
1
330
17
  0
LAYOUT
  5
1E
330
D
100
AcDbPlotSettings
  1

  4
A3
  6

 40
7.5
 41
20.0
 42
7.5
 43
20.0
 44
420.0
 45
297.0
 46
0.0
 47
0.0
 48
0.0
 49
0.0
140
0.0
141
0.0
142
1.0
143
1.0
 70
0
 72
1
 73
0
 74
5
  7

 75
16
 76
0
 77
2
 78
300
147
1.0
148
0.0
149
0.0
100
AcDbLayout
  1
Layout1
 70
1
 71
1
 10
0.0
 20
0.0
 11
420.0
 21
297.0
 12
0.0
 22
0.0
 32
0.0
 14
1e+20
 24
1e+20
 34
1e+20
 15
-1e+20
 25
-1e+20
 35
-1e+20
146
0.0
 13
0.0
 23
0.0
 33
0.0
 16
1.0
 26
0.0
 36
0.0
 17
0.0
 27
1.0
 37
0.0
 76
1
330
1B
  0
MATERIAL
  5
1F
102
{ACAD_REACTORS
330
E
102
}
330
E
100
AcDbMaterial
  1
ByBlock
  2

 70
0
 40
1.0
 71
1
 41
1.0
 91
-1023410177
 42
1.0
 72
1
  3

 73
1
 74
1
 75
1
 44
0.5
 73
0
 45
1.0
 46
1.0
 77
1
  4

 78
1
 79
1
170
1
 48
1.0
171
1
  6

172
1
173
1
174
1
140
1.0
141
1.0
175
1
  7

176
1
177
1
178
1
143
1.0
179
1
  8

270
1
271
1
272
1
145
1.0
146
1.0
273
1
  9

274
1
275
1
276
1
 42
1.0
 72
1
  3

 73
1
 74
1
 75
1
 94
63
  0
MATERIAL
  5
20
102
{ACAD_REACTORS
330
E
102
}
330
E
100
AcDbMaterial
  1
ByLayer
  2

 70
0
 40
1.0
 71
1
 41
1.0
 91
-1023410177
 42
1.0
 72
1
  3

 73
1
 74
1
 75
1
 44
0.5
 73
0
 45
1.0
 46
1.0
 77
1
  4

 78
1
 79
1
170
1
 48
1.0
171
1
  6

172
1
173
1
174
1
140
1.0
141
1.0
175
1
  7

176
1
177
1
178
1
143
1.0
179
1
  8

270
1
271
1
272
1
145
1.0
146
1.0
273
1
  9

274
1
275
1
276
1
 42
1.0
 72
1
  3

 73
1
 74
1
 75
1
 94
63
  0
MATERIAL
  5
21
102
{ACAD_REACTORS
330
E
102
}
330
E
100
AcDbMaterial
  1
Global
  2

 70
0
 40
1.0
 71
1
 41
1.0
 91
-1023410177
 42
1.0
 72
1
  3

 73
1
 74
1
 75
1
 44
0.5
 73
0
 45
1.0
 46
1.0
 77
1
  4

 78
1
 79
1
170
1
 48
1.0
171
1
  6

172
1
173
1
174
1
140
1.0
141
1.0
175
1
  7

176
1
177
1
178
1
143
1.0
179
1
  8

270
1
271
1
272
1
145
1.0
146
1.0
273
1
  9

274
1
275
1
276
1
 42
1.0
 72
1
  3

 73
1
 74
1
 75
1
 94
63
  0
MLINESTYLE
  5
22
102
{ACAD_REACTORS
330
10
102
}
330
10
100
AcDbMlineStyle
  2
Standard
 70
0
  3

 62
256
 51
90.0
 52
90.0
 71
2
 49
0.5
 62
256
  6
BYLAYER
 49
-0.5
 62
256
  6
BYLAYER
  0
MLEADERSTYLE
  5
2C
102
{ACAD_REACTORS
330
F
102
}
330
F
100
AcDbMLeaderStyle
179
2
170
2
171
1
172
0
 90
2
 40
0.0
 41
0.0
173
1
 91
-1056964608
 92
-2
290
1
 42
2.0
291
1
 43
8.0
  3
Standard
 44
4.0
300

342
29
174
1
175
1
176
0
178
1
 93
-1056964608
 45
4.0
292
0
297
0
 46
4.0
 94
-1056964608
 47
1.0
 49
1.0
140
1.0
294
1
141
0.0
177
0
142
1.0
295
0
296
0
143
3.75
271
0
272
9
273
9
  0
DICTIONARY
  5
2D
330
A
100
AcDbDictionary
280
1
281
1
  3
CREATED_BY_EZDXF
350
2E
  3
WRITTEN_BY_EZDXF
350
313
  0
DICTIONARYVAR
  5
2E
330
2D
100
DictionaryVariables
280
0
  1
0.0 @ 2000-01-01T00:00:00.000000+00:00
  0
DICTIONARYVAR
  5
313
330
2D
100
DictionaryVariables
280
0
  1
0.0 @ 2000-01-01T00:00:00.000000+00:00
  0
ENDSEC
  0
EOF
