  0
SECTION
  2
HEADER
  9
$ACADVER
  1
AC1009
  9
$INSUNITS
 70
4
  9
$MEASUREMENT
 70
1
  0
ENDSEC
  0
SECTION
  2
BLOCKS
  0
ENDSEC
  0
SECTION
  2
ENTITIES
  0
LINE
  8
0
 10
1.90735e-07
 20
0
 11
1349.2
 21
0
  0
LINE
  8
0
 10
1349.2
 20
0
 11
1349.2
 21
157.725
  0
LINE
  8
0
 10
1349.2
 20
157.725
 11
1347.15
 21
157.927
  0
LINE
  8
0
 10
1347.15
 20
157.927
 11
1345.17
 21
158.526
  0
LINE
  8
0
 10
1345.17
 20
158.526
 11
1343.35
 21
159.499
  0
LINE
  8
0
 10
1343.35
 20
159.499
 11
1341.76
 21
160.808
  0
LINE
  8
0
 10
1341.76
 20
160.808
 11
1340.45
 21
162.403
  0
LINE
  8
0
 10
1340.45
 20
162.403
 11
1339.48
 21
164.222
  0
LINE
  8
0
 10
1339.48
 20
164.222
 11
1338.88
 21
166.197
  0
LINE
  8
0
 10
1338.88
 20
166.197
 11
1338.68
 21
168.25
  0
LINE
  8
0
 10
1338.68
 20
168.25
 11
1338.88
 21
170.303
  0
LINE
  8
0
 10
1338.88
 20
170.303
 11
1339.48
 21
172.278
  0
LINE
  8
0
 10
1339.48
 20
172.278
 11
1340.45
 21
174.097
  0
LINE
  8
0
 10
1340.45
 20
174.097
 11
1341.76
 21
175.692
  0
LINE
  8
0
 10
1341.76
 20
175.692
 11
1343.35
 21
177.001
  0
LINE
  8
0
 10
1343.35
 20
177.001
 11
1345.17
 21
177.974
  0
LINE
  8
0
 10
1345.17
 20
177.974
 11
1347.15
 21
178.573
  0
LINE
  8
0
 10
1347.15
 20
178.573
 11
1349.2
 21
178.775
  0
LINE
  8
0
 10
1349.2
 20
178.775
 11
1349.2
 21
958.25
  0
LINE
  8
0
 10
1349.2
 20
958.25
 11
1349.01
 21
960.201
  0
LINE
  8
0
 10
1349.01
 20
960.201
 11
1348.44
 21
962.077
  0
LINE
  8
0
 10
1348.44
 20
962.077
 11
1347.51
 21
963.806
  0
LINE
  8
0
 10
1347.51
 20
963.806
 11
1346.27
 21
965.321
  0
LINE
  8
0
 10
1346.27
 20
965.321
 11
1344.76
 21
966.565
  0
LINE
  8
0
 10
1344.76
 20
966.565
 11
1343.03
 21
967.489
  0
LINE
  8
0
 10
1343.03
 20
967.489
 11
1341.15
 21
968.058
  0
LINE
  8
0
 10
1341.15
 20
968.058
 11
1339.2
 21
968.25
  0
LINE
  8
0
 10
1339.2
 20
968.25
 11
1155.12
 21
968.25
  0
LINE
  8
0
 10
1155.12
 20
968.25
 11
1152.32
 21
967.849
  0
LINE
  8
0
 10
1152.32
 20
967.849
 11
1150.5
 21
967.117
  0
LINE
  8
0
 10
1150.5
 20
967.117
 11
1148.86
 21
966.045
  0
LINE
  8
0
 10
1148.86
 20
966.045
 11
1147.46
 21
964.674
  0
LINE
  8
0
 10
1147.46
 20
964.674
 11
1146.35
 21
963.055
  0
LINE
  8
0
 10
1146.35
 20
963.055
 11
1049.43
 21
786.152
  0
LINE
  8
0
 10
1049.43
 20
786.152
 11
1049.17
 21
785.765
  0
LINE
  8
0
 10
1049.17
 20
785.765
 11
1048.77
 21
785.5
  0
LINE
  8
0
 10
1048.77
 20
785.5
 11
527.69
 21
511.822
  0
LINE
  8
0
 10
527.69
 20
511.822
 11
534.151
 21
501.763
  0
LINE
  8
0
 10
534.151
 20
501.763
 11
555.151
 21
472.32
  0
LINE
  8
0
 10
555.151
 20
472.32
 11
577.56
 21
443.934
  0
LINE
  8
0
 10
577.56
 20
443.934
 11
578.101
 21
443.093
  0
LINE
  8
0
 10
578.101
 20
443.093
 11
565.728
 21
363.07
  0
LINE
  8
0
 10
565.728
 20
363.07
 11
561.035
 21
350.027
  0
LINE
  8
0
 10
561.035
 20
350.027
 11
553.126
 21
338.643
  0
LINE
  8
0
 10
553.126
 20
338.643
 11
542.539
 21
329.694
  0
LINE
  8
0
 10
542.539
 20
329.694
 11
529.998
 21
323.79
  0
LINE
  8
0
 10
529.998
 20
323.79
 11
516.355
 21
321.333
  0
LINE
  8
0
 10
516.355
 20
321.333
 11
502.542
 21
322.491
  0
LINE
  8
0
 10
502.542
 20
322.491
 11
424.625
 21
344.529
  0
LINE
  8
0
 10
424.625
 20
344.529
 11
397.559
 21
380.476
  0
LINE
  8
0
 10
397.559
 20
380.476
 11
372.275
 21
417.698
  0
LINE
  8
0
 10
372.275
 20
417.698
 11
366.498
 21
427.162
  0
LINE
  8
0
 10
366.498
 20
427.162
 11
151.753
 21
314.374
  0
LINE
  8
0
 10
151.753
 20
314.374
 11
150.332
 21
313.467
  0
LINE
  8
0
 10
150.332
 20
313.467
 11
148.898
 21
312.129
  0
LINE
  8
0
 10
148.898
 20
312.129
 11
147.753
 21
310.538
  0
LINE
  8
0
 10
147.753
 20
310.538
 11
1.90735e-07
 21
55.8248
  0
LINE
  8
0
 10
1.90735e-07
 20
55.8248
 11
1.90735e-07
 21
0
  0
LINE
  8
0
 10
19.6375
 20
30.48
 11
20
 21
32.3025
  0
LINE
  8
0
 10
20
 20
32.3025
 11
21.0324
 21
33.8476
  0
LINE
  8
0
 10
21.0324
 20
33.8476
 11
22.5775
 21
34.88
  0
LINE
  8
0
 10
22.5775
 20
34.88
 11
24.4
 21
35.2425
  0
LINE
  8
0
 10
24.4
 20
35.2425
 11
26.2225
 21
34.88
  0
LINE
  8
0
 10
26.2225
 20
34.88
 11
27.7676
 21
33.8476
  0
LINE
  8
0
 10
27.7676
 20
33.8476
 11
28.8
 21
32.3025
  0
LINE
  8
0
 10
28.8
 20
32.3025
 11
29.1625
 21
30.48
  0
LINE
  8
0
 10
29.1625
 20
30.48
 11
28.8
 21
28.6575
  0
LINE
  8
0
 10
28.8
 20
28.6575
 11
27.7676
 21
27.1124
  0
LINE
  8
0
 10
27.7676
 20
27.1124
 11
26.2225
 21
26.08
  0
LINE
  8
0
 10
26.2225
 20
26.08
 11
24.4
 21
25.7175
  0
LINE
  8
0
 10
24.4
 20
25.7175
 11
22.5775
 21
26.08
  0
LINE
  8
0
 10
22.5775
 20
26.08
 11
21.0324
 21
27.1124
  0
LINE
  8
0
 10
21.0324
 20
27.1124
 11
20
 21
28.6575
  0
LINE
  8
0
 10
20
 20
28.6575
 11
19.6375
 21
30.48
  0
LINE
  8
0
 10
68.4375
 20
30.48
 11
68.8
 21
32.3025
  0
LINE
  8
0
 10
68.8
 20
32.3025
 11
69.8324
 21
33.8476
  0
LINE
  8
0
 10
69.8324
 20
33.8476
 11
71.3775
 21
34.88
  0
LINE
  8
0
 10
71.3775
 20
34.88
 11
73.2
 21
35.2425
  0
LINE
  8
0
 10
73.2
 20
35.2425
 11
75.0225
 21
34.88
  0
LINE
  8
0
 10
75.0225
 20
34.88
 11
76.5676
 21
33.8476
  0
LINE
  8
0
 10
76.5676
 20
33.8476
 11
77.6
 21
32.3025
  0
LINE
  8
0
 10
77.6
 20
32.3025
 11
77.9625
 21
30.48
  0
LINE
  8
0
 10
77.9625
 20
30.48
 11
77.6
 21
28.6575
  0
LINE
  8
0
 10
77.6
 20
28.6575
 11
76.5676
 21
27.1124
  0
LINE
  8
0
 10
76.5676
 20
27.1124
 11
75.0225
 21
26.08
  0
LINE
  8
0
 10
75.0225
 20
26.08
 11
73.2
 21
25.7175
  0
LINE
  8
0
 10
73.2
 20
25.7175
 11
71.3775
 21
26.08
  0
LINE
  8
0
 10
71.3775
 20
26.08
 11
69.8324
 21
27.1124
  0
LINE
  8
0
 10
69.8324
 20
27.1124
 11
68.8
 21
28.6575
  0
LINE
  8
0
 10
68.8
 20
28.6575
 11
68.4375
 21
30.48
  0
LINE
  8
0
 10
137.261
 20
71.4108
 11
137.744
 21
73.8409
  0
LINE
  8
0
 10
137.744
 20
73.8409
 11
139.121
 21
75.9009
  0
LINE
  8
0
 10
139.121
 20
75.9009
 11
141.181
 21
77.2775
  0
LINE
  8
0
 10
141.181
 20
77.2775
 11
143.611
 21
77.7608
  0
LINE
  8
0
 10
143.611
 20
77.7608
 11
146.041
 21
77.2775
  0
LINE
  8
0
 10
146.041
 20
77.2775
 11
148.101
 21
75.9009
  0
LINE
  8
0
 10
148.101
 20
75.9009
 11
149.477
 21
73.8409
  0
LINE
  8
0
 10
149.477
 20
73.8409
 11
149.961
 21
71.4108
  0
LINE
  8
0
 10
149.961
 20
71.4108
 11
149.477
 21
68.9808
  0
LINE
  8
0
 10
149.477
 20
68.9808
 11
148.101
 21
66.9207
  0
LINE
  8
0
 10
148.101
 20
66.9207
 11
146.041
 21
65.5442
  0
LINE
  8
0
 10
146.041
 20
65.5442
 11
143.611
 21
65.0608
  0
LINE
  8
0
 10
143.611
 20
65.0608
 11
141.181
 21
65.5442
  0
LINE
  8
0
 10
141.181
 20
65.5442
 11
139.121
 21
66.9207
  0
LINE
  8
0
 10
139.121
 20
66.9207
 11
137.744
 21
68.9808
  0
LINE
  8
0
 10
137.744
 20
68.9808
 11
137.261
 21
71.4108
  0
LINE
  8
0
 10
137.261
 20
182.589
 11
137.744
 21
185.019
  0
LINE
  8
0
 10
137.744
 20
185.019
 11
139.121
 21
187.079
  0
LINE
  8
0
 10
139.121
 20
187.079
 11
141.181
 21
188.456
  0
LINE
  8
0
 10
141.181
 20
188.456
 11
143.611
 21
188.939
  0
LINE
  8
0
 10
143.611
 20
188.939
 11
146.041
 21
188.456
  0
LINE
  8
0
 10
146.041
 20
188.456
 11
148.101
 21
187.079
  0
LINE
  8
0
 10
148.101
 20
187.079
 11
149.477
 21
185.019
  0
LINE
  8
0
 10
149.477
 20
185.019
 11
149.961
 21
182.589
  0
LINE
  8
0
 10
149.961
 20
182.589
 11
149.477
 21
180.159
  0
LINE
  8
0
 10
149.477
 20
180.159
 11
148.101
 21
178.099
  0
LINE
  8
0
 10
148.101
 20
178.099
 11
146.041
 21
176.723
  0
LINE
  8
0
 10
146.041
 20
176.723
 11
143.611
 21
176.239
  0
LINE
  8
0
 10
143.611
 20
176.239
 11
141.181
 21
176.723
  0
LINE
  8
0
 10
141.181
 20
176.723
 11
139.121
 21
178.099
  0
LINE
  8
0
 10
139.121
 20
178.099
 11
137.744
 21
180.159
  0
LINE
  8
0
 10
137.744
 20
180.159
 11
137.261
 21
182.589
  0
LINE
  8
0
 10
173.8
 20
127
 11
174.288
 21
131.955
  0
LINE
  8
0
 10
174.288
 20
131.955
 11
175.733
 21
136.72
  0
LINE
  8
0
 10
175.733
 20
136.72
 11
178.081
 21
141.111
  0
LINE
  8
0
 10
178.081
 20
141.111
 11
181.239
 21
144.961
  0
LINE
  8
0
 10
181.239
 20
144.961
 11
185.089
 21
148.119
  0
LINE
  8
0
 10
185.089
 20
148.119
 11
189.48
 21
150.467
  0
LINE
  8
0
 10
189.48
 20
150.467
 11
194.245
 21
151.912
  0
LINE
  8
0
 10
194.245
 20
151.912
 11
199.2
 21
152.4
  0
LINE
  8
0
 10
199.2
 20
152.4
 11
204.155
 21
151.912
  0
LINE
  8
0
 10
204.155
 20
151.912
 11
208.92
 21
150.467
  0
LINE
  8
0
 10
208.92
 20
150.467
 11
213.311
 21
148.119
  0
LINE
  8
0
 10
213.311
 20
148.119
 11
217.161
 21
144.961
  0
LINE
  8
0
 10
217.161
 20
144.961
 11
220.319
 21
141.111
  0
LINE
  8
0
 10
220.319
 20
141.111
 11
222.667
 21
136.72
  0
LINE
  8
0
 10
222.667
 20
136.72
 11
224.112
 21
131.955
  0
LINE
  8
0
 10
224.112
 20
131.955
 11
224.6
 21
127
  0
LINE
  8
0
 10
224.6
 20
127
 11
224.112
 21
122.045
  0
LINE
  8
0
 10
224.112
 20
122.045
 11
222.667
 21
117.28
  0
LINE
  8
0
 10
222.667
 20
117.28
 11
220.319
 21
112.889
  0
LINE
  8
0
 10
220.319
 20
112.889
 11
217.161
 21
109.039
  0
LINE
  8
0
 10
217.161
 20
109.039
 11
213.311
 21
105.881
  0
LINE
  8
0
 10
213.311
 20
105.881
 11
208.92
 21
103.533
  0
LINE
  8
0
 10
208.92
 20
103.533
 11
204.155
 21
102.088
  0
LINE
  8
0
 10
204.155
 20
102.088
 11
199.2
 21
101.6
  0
LINE
  8
0
 10
199.2
 20
101.6
 11
194.245
 21
102.088
  0
LINE
  8
0
 10
194.245
 20
102.088
 11
189.48
 21
103.533
  0
LINE
  8
0
 10
189.48
 20
103.533
 11
185.089
 21
105.881
  0
LINE
  8
0
 10
185.089
 20
105.881
 11
181.239
 21
109.039
  0
LINE
  8
0
 10
181.239
 20
109.039
 11
178.081
 21
112.889
  0
LINE
  8
0
 10
178.081
 20
112.889
 11
175.733
 21
117.28
  0
LINE
  8
0
 10
175.733
 20
117.28
 11
174.288
 21
122.045
  0
LINE
  8
0
 10
174.288
 20
122.045
 11
173.8
 21
127
  0
LINE
  8
0
 10
248.439
 20
71.4108
 11
248.923
 21
73.8409
  0
LINE
  8
0
 10
248.923
 20
73.8409
 11
250.299
 21
75.9009
  0
LINE
  8
0
 10
250.299
 20
75.9009
 11
252.359
 21
77.2775
  0
LINE
  8
0
 10
252.359
 20
77.2775
 11
254.789
 21
77.7608
  0
LINE
  8
0
 10
254.789
 20
77.7608
 11
257.219
 21
77.2775
  0
LINE
  8
0
 10
257.219
 20
77.2775
 11
259.279
 21
75.9009
  0
LINE
  8
0
 10
259.279
 20
75.9009
 11
260.656
 21
73.8409
  0
LINE
  8
0
 10
260.656
 20
73.8409
 11
261.139
 21
71.4108
  0
LINE
  8
0
 10
261.139
 20
71.4108
 11
260.656
 21
68.9808
  0
LINE
  8
0
 10
260.656
 20
68.9808
 11
259.279
 21
66.9207
  0
LINE
  8
0
 10
259.279
 20
66.9207
 11
257.219
 21
65.5442
  0
LINE
  8
0
 10
257.219
 20
65.5442
 11
254.789
 21
65.0608
  0
LINE
  8
0
 10
254.789
 20
65.0608
 11
252.359
 21
65.5442
  0
LINE
  8
0
 10
252.359
 20
65.5442
 11
250.299
 21
66.9207
  0
LINE
  8
0
 10
250.299
 20
66.9207
 11
248.923
 21
68.9808
  0
LINE
  8
0
 10
248.923
 20
68.9808
 11
248.439
 21
71.4108
  0
LINE
  8
0
 10
248.439
 20
182.589
 11
248.923
 21
185.019
  0
LINE
  8
0
 10
248.923
 20
185.019
 11
250.299
 21
187.079
  0
LINE
  8
0
 10
250.299
 20
187.079
 11
252.359
 21
188.456
  0
LINE
  8
0
 10
252.359
 20
188.456
 11
254.789
 21
188.939
  0
LINE
  8
0
 10
254.789
 20
188.939
 11
257.219
 21
188.456
  0
LINE
  8
0
 10
257.219
 20
188.456
 11
259.279
 21
187.079
  0
LINE
  8
0
 10
259.279
 20
187.079
 11
260.656
 21
185.019
  0
LINE
  8
0
 10
260.656
 20
185.019
 11
261.139
 21
182.589
  0
LINE
  8
0
 10
261.139
 20
182.589
 11
260.656
 21
180.159
  0
LINE
  8
0
 10
260.656
 20
180.159
 11
259.279
 21
178.099
  0
LINE
  8
0
 10
259.279
 20
178.099
 11
257.219
 21
176.723
  0
LINE
  8
0
 10
257.219
 20
176.723
 11
254.789
 21
176.239
  0
LINE
  8
0
 10
254.789
 20
176.239
 11
252.359
 21
176.723
  0
LINE
  8
0
 10
252.359
 20
176.723
 11
250.299
 21
178.099
  0
LINE
  8
0
 10
250.299
 20
178.099
 11
248.923
 21
180.159
  0
LINE
  8
0
 10
248.923
 20
180.159
 11
248.439
 21
182.589
  0
LINE
  8
0
 10
351.6
 20
53.975
 11
351.6
 21
200.025
  0
LINE
  8
0
 10
351.6
 20
200.025
 11
351.661
 21
200.644
  0
LINE
  8
0
 10
351.661
 20
200.644
 11
351.842
 21
201.24
  0
LINE
  8
0
 10
351.842
 20
201.24
 11
352.135
 21
201.789
  0
LINE
  8
0
 10
352.135
 20
201.789
 11
352.53
 21
202.27
  0
LINE
  8
0
 10
352.53
 20
202.27
 11
353.011
 21
202.665
  0
LINE
  8
0
 10
353.011
 20
202.665
 11
353.56
 21
202.958
  0
LINE
  8
0
 10
353.56
 20
202.958
 11
354.156
 21
203.139
  0
LINE
  8
0
 10
354.156
 20
203.139
 11
354.775
 21
203.2
  0
LINE
  8
0
 10
354.775
 20
203.2
 11
399.225
 21
203.2
  0
LINE
  8
0
 10
399.225
 20
203.2
 11
399.844
 21
203.139
  0
LINE
  8
0
 10
399.844
 20
203.139
 11
400.44
 21
202.958
  0
LINE
  8
0
 10
400.44
 20
202.958
 11
400.989
 21
202.665
  0
LINE
  8
0
 10
400.989
 20
202.665
 11
401.47
 21
202.27
  0
LINE
  8
0
 10
401.47
 20
202.27
 11
401.865
 21
201.789
  0
LINE
  8
0
 10
401.865
 20
201.789
 11
402.158
 21
201.24
  0
LINE
  8
0
 10
402.158
 20
201.24
 11
402.339
 21
200.644
  0
LINE
  8
0
 10
402.339
 20
200.644
 11
402.4
 21
200.025
  0
LINE
  8
0
 10
402.4
 20
200.025
 11
402.4
 21
53.975
  0
LINE
  8
0
 10
402.4
 20
53.975
 11
402.339
 21
53.3556
  0
LINE
  8
0
 10
402.339
 20
53.3556
 11
402.158
 21
52.76
  0
LINE
  8
0
 10
402.158
 20
52.76
 11
401.865
 21
52.2111
  0
LINE
  8
0
 10
401.865
 20
52.2111
 11
401.47
 21
51.7299
  0
LINE
  8
0
 10
401.47
 20
51.7299
 11
400.989
 21
51.3351
  0
LINE
  8
0
 10
400.989
 20
51.3351
 11
400.44
 21
51.0417
  0
LINE
  8
0
 10
400.44
 20
51.0417
 11
399.844
 21
50.861
  0
LINE
  8
0
 10
399.844
 20
50.861
 11
399.225
 21
50.8
  0
LINE
  8
0
 10
399.225
 20
50.8
 11
354.775
 21
50.8
  0
LINE
  8
0
 10
354.775
 20
50.8
 11
354.156
 21
50.861
  0
LINE
  8
0
 10
354.156
 20
50.861
 11
353.56
 21
51.0417
  0
LINE
  8
0
 10
353.56
 20
51.0417
 11
353.011
 21
51.3351
  0
LINE
  8
0
 10
353.011
 20
51.3351
 11
352.53
 21
51.7299
  0
LINE
  8
0
 10
352.53
 20
51.7299
 11
352.135
 21
52.2111
  0
LINE
  8
0
 10
352.135
 20
52.2111
 11
351.842
 21
52.76
  0
LINE
  8
0
 10
351.842
 20
52.76
 11
351.661
 21
53.3556
  0
LINE
  8
0
 10
351.661
 20
53.3556
 11
351.6
 21
53.975
  0
LINE
  8
0
 10
460.078
 20
30.48
 11
460.44
 21
32.3025
  0
LINE
  8
0
 10
460.44
 20
32.3025
 11
461.472
 21
33.8476
  0
LINE
  8
0
 10
461.472
 20
33.8476
 11
463.017
 21
34.88
  0
LINE
  8
0
 10
463.017
 20
34.88
 11
464.84
 21
35.2425
  0
LINE
  8
0
 10
464.84
 20
35.2425
 11
466.663
 21
34.88
  0
LINE
  8
0
 10
466.663
 20
34.88
 11
468.208
 21
33.8476
  0
LINE
  8
0
 10
468.208
 20
33.8476
 11
469.24
 21
32.3025
  0
LINE
  8
0
 10
469.24
 20
32.3025
 11
469.603
 21
30.48
  0
LINE
  8
0
 10
469.603
 20
30.48
 11
469.24
 21
28.6575
  0
LINE
  8
0
 10
469.24
 20
28.6575
 11
468.208
 21
27.1124
  0
LINE
  8
0
 10
468.208
 20
27.1124
 11
466.663
 21
26.08
  0
LINE
  8
0
 10
466.663
 20
26.08
 11
464.84
 21
25.7175
  0
LINE
  8
0
 10
464.84
 20
25.7175
 11
463.017
 21
26.08
  0
LINE
  8
0
 10
463.017
 20
26.08
 11
461.472
 21
27.1124
  0
LINE
  8
0
 10
461.472
 20
27.1124
 11
460.44
 21
28.6575
  0
LINE
  8
0
 10
460.44
 20
28.6575
 11
460.078
 21
30.48
  0
LINE
  8
0
 10
569.438
 20
30.48
 11
569.8
 21
32.3025
  0
LINE
  8
0
 10
569.8
 20
32.3025
 11
570.832
 21
33.8476
  0
LINE
  8
0
 10
570.832
 20
33.8476
 11
572.377
 21
34.88
  0
LINE
  8
0
 10
572.377
 20
34.88
 11
574.2
 21
35.2425
  0
LINE
  8
0
 10
574.2
 20
35.2425
 11
576.023
 21
34.88
  0
LINE
  8
0
 10
576.023
 20
34.88
 11
577.568
 21
33.8476
  0
LINE
  8
0
 10
577.568
 20
33.8476
 11
578.6
 21
32.3025
  0
LINE
  8
0
 10
578.6
 20
32.3025
 11
578.963
 21
30.48
  0
LINE
  8
0
 10
578.963
 20
30.48
 11
578.6
 21
28.6575
  0
LINE
  8
0
 10
578.6
 20
28.6575
 11
577.568
 21
27.1124
  0
LINE
  8
0
 10
577.568
 20
27.1124
 11
576.023
 21
26.08
  0
LINE
  8
0
 10
576.023
 20
26.08
 11
574.2
 21
25.7175
  0
LINE
  8
0
 10
574.2
 20
25.7175
 11
572.377
 21
26.08
  0
LINE
  8
0
 10
572.377
 20
26.08
 11
570.832
 21
27.1124
  0
LINE
  8
0
 10
570.832
 20
27.1124
 11
569.8
 21
28.6575
  0
LINE
  8
0
 10
569.8
 20
28.6575
 11
569.438
 21
30.48
  0
LINE
  8
0
 10
678.798
 20
30.48
 11
679.16
 21
32.3025
  0
LINE
  8
0
 10
679.16
 20
32.3025
 11
680.192
 21
33.8476
  0
LINE
  8
0
 10
680.192
 20
33.8476
 11
681.737
 21
34.88
  0
LINE
  8
0
 10
681.737
 20
34.88
 11
683.56
 21
35.2425
  0
LINE
  8
0
 10
683.56
 20
35.2425
 11
685.383
 21
34.88
  0
LINE
  8
0
 10
685.383
 20
34.88
 11
686.928
 21
33.8476
  0
LINE
  8
0
 10
686.928
 20
33.8476
 11
687.96
 21
32.3025
  0
LINE
  8
0
 10
687.96
 20
32.3025
 11
688.323
 21
30.48
  0
LINE
  8
0
 10
688.323
 20
30.48
 11
687.96
 21
28.6575
  0
LINE
  8
0
 10
687.96
 20
28.6575
 11
686.928
 21
27.1124
  0
LINE
  8
0
 10
686.928
 20
27.1124
 11
685.383
 21
26.08
  0
LINE
  8
0
 10
685.383
 20
26.08
 11
683.56
 21
25.7175
  0
LINE
  8
0
 10
683.56
 20
25.7175
 11
681.737
 21
26.08
  0
LINE
  8
0
 10
681.737
 20
26.08
 11
680.192
 21
27.1124
  0
LINE
  8
0
 10
680.192
 20
27.1124
 11
679.16
 21
28.6575
  0
LINE
  8
0
 10
679.16
 20
28.6575
 11
678.798
 21
30.48
  0
LINE
  8
0
 10
746
 20
53.975
 11
746
 21
200.025
  0
LINE
  8
0
 10
746
 20
200.025
 11
746.061
 21
200.644
  0
LINE
  8
0
 10
746.061
 20
200.644
 11
746.242
 21
201.24
  0
LINE
  8
0
 10
746.242
 20
201.24
 11
746.535
 21
201.789
  0
LINE
  8
0
 10
746.535
 20
201.789
 11
746.93
 21
202.27
  0
LINE
  8
0
 10
746.93
 20
202.27
 11
747.411
 21
202.665
  0
LINE
  8
0
 10
747.411
 20
202.665
 11
747.96
 21
202.958
  0
LINE
  8
0
 10
747.96
 20
202.958
 11
748.556
 21
203.139
  0
LINE
  8
0
 10
748.556
 20
203.139
 11
749.175
 21
203.2
  0
LINE
  8
0
 10
749.175
 20
203.2
 11
793.625
 21
203.2
  0
LINE
  8
0
 10
793.625
 20
203.2
 11
794.244
 21
203.139
  0
LINE
  8
0
 10
794.244
 20
203.139
 11
794.84
 21
202.958
  0
LINE
  8
0
 10
794.84
 20
202.958
 11
795.389
 21
202.665
  0
LINE
  8
0
 10
795.389
 20
202.665
 11
795.87
 21
202.27
  0
LINE
  8
0
 10
795.87
 20
202.27
 11
796.265
 21
201.789
  0
LINE
  8
0
 10
796.265
 20
201.789
 11
796.558
 21
201.24
  0
LINE
  8
0
 10
796.558
 20
201.24
 11
796.739
 21
200.644
  0
LINE
  8
0
 10
796.739
 20
200.644
 11
796.8
 21
200.025
  0
LINE
  8
0
 10
796.8
 20
200.025
 11
796.8
 21
53.975
  0
LINE
  8
0
 10
796.8
 20
53.975
 11
796.739
 21
53.3556
  0
LINE
  8
0
 10
796.739
 20
53.3556
 11
796.558
 21
52.76
  0
LINE
  8
0
 10
796.558
 20
52.76
 11
796.265
 21
52.2111
  0
LINE
  8
0
 10
796.265
 20
52.2111
 11
795.87
 21
51.7299
  0
LINE
  8
0
 10
795.87
 20
51.7299
 11
795.389
 21
51.3351
  0
LINE
  8
0
 10
795.389
 20
51.3351
 11
794.84
 21
51.0417
  0
LINE
  8
0
 10
794.84
 20
51.0417
 11
794.244
 21
50.861
  0
LINE
  8
0
 10
794.244
 20
50.861
 11
793.625
 21
50.8
  0
LINE
  8
0
 10
793.625
 20
50.8
 11
749.175
 21
50.8
  0
LINE
  8
0
 10
749.175
 20
50.8
 11
748.556
 21
50.861
  0
LINE
  8
0
 10
748.556
 20
50.861
 11
747.96
 21
51.0417
  0
LINE
  8
0
 10
747.96
 20
51.0417
 11
747.411
 21
51.3351
  0
LINE
  8
0
 10
747.411
 20
51.3351
 11
746.93
 21
51.7299
  0
LINE
  8
0
 10
746.93
 20
51.7299
 11
746.535
 21
52.2111
  0
LINE
  8
0
 10
746.535
 20
52.2111
 11
746.242
 21
52.76
  0
LINE
  8
0
 10
746.242
 20
52.76
 11
746.061
 21
53.3556
  0
LINE
  8
0
 10
746.061
 20
53.3556
 11
746
 21
53.975
  0
LINE
  8
0
 10
788.158
 20
30.48
 11
788.52
 21
32.3025
  0
LINE
  8
0
 10
788.52
 20
32.3025
 11
789.552
 21
33.8476
  0
LINE
  8
0
 10
789.552
 20
33.8476
 11
791.097
 21
34.88
  0
LINE
  8
0
 10
791.097
 20
34.88
 11
792.92
 21
35.2425
  0
LINE
  8
0
 10
792.92
 20
35.2425
 11
794.743
 21
34.88
  0
LINE
  8
0
 10
794.743
 20
34.88
 11
796.288
 21
33.8476
  0
LINE
  8
0
 10
796.288
 20
33.8476
 11
797.32
 21
32.3025
  0
LINE
  8
0
 10
797.32
 20
32.3025
 11
797.683
 21
30.48
  0
LINE
  8
0
 10
797.683
 20
30.48
 11
797.32
 21
28.6575
  0
LINE
  8
0
 10
797.32
 20
28.6575
 11
796.288
 21
27.1124
  0
LINE
  8
0
 10
796.288
 20
27.1124
 11
794.743
 21
26.08
  0
LINE
  8
0
 10
794.743
 20
26.08
 11
792.92
 21
25.7175
  0
LINE
  8
0
 10
792.92
 20
25.7175
 11
791.097
 21
26.08
  0
LINE
  8
0
 10
791.097
 20
26.08
 11
789.552
 21
27.1124
  0
LINE
  8
0
 10
789.552
 20
27.1124
 11
788.52
 21
28.6575
  0
LINE
  8
0
 10
788.52
 20
28.6575
 11
788.158
 21
30.48
  0
LINE
  8
0
 10
887.261
 20
71.4108
 11
887.744
 21
73.8409
  0
LINE
  8
0
 10
887.744
 20
73.8409
 11
889.121
 21
75.9009
  0
LINE
  8
0
 10
889.121
 20
75.9009
 11
891.181
 21
77.2775
  0
LINE
  8
0
 10
891.181
 20
77.2775
 11
893.611
 21
77.7608
  0
LINE
  8
0
 10
893.611
 20
77.7608
 11
896.041
 21
77.2775
  0
LINE
  8
0
 10
896.041
 20
77.2775
 11
898.101
 21
75.9009
  0
LINE
  8
0
 10
898.101
 20
75.9009
 11
899.477
 21
73.8409
  0
LINE
  8
0
 10
899.477
 20
73.8409
 11
899.961
 21
71.4108
  0
LINE
  8
0
 10
899.961
 20
71.4108
 11
899.477
 21
68.9808
  0
LINE
  8
0
 10
899.477
 20
68.9808
 11
898.101
 21
66.9207
  0
LINE
  8
0
 10
898.101
 20
66.9207
 11
896.041
 21
65.5442
  0
LINE
  8
0
 10
896.041
 20
65.5442
 11
893.611
 21
65.0608
  0
LINE
  8
0
 10
893.611
 20
65.0608
 11
891.181
 21
65.5442
  0
LINE
  8
0
 10
891.181
 20
65.5442
 11
889.121
 21
66.9207
  0
LINE
  8
0
 10
889.121
 20
66.9207
 11
887.744
 21
68.9808
  0
LINE
  8
0
 10
887.744
 20
68.9808
 11
887.261
 21
71.4108
  0
LINE
  8
0
 10
887.261
 20
182.589
 11
887.744
 21
185.019
  0
LINE
  8
0
 10
887.744
 20
185.019
 11
889.121
 21
187.079
  0
LINE
  8
0
 10
889.121
 20
187.079
 11
891.181
 21
188.456
  0
LINE
  8
0
 10
891.181
 20
188.456
 11
893.611
 21
188.939
  0
LINE
  8
0
 10
893.611
 20
188.939
 11
896.041
 21
188.456
  0
LINE
  8
0
 10
896.041
 20
188.456
 11
898.101
 21
187.079
  0
LINE
  8
0
 10
898.101
 20
187.079
 11
899.477
 21
185.019
  0
LINE
  8
0
 10
899.477
 20
185.019
 11
899.961
 21
182.589
  0
LINE
  8
0
 10
899.961
 20
182.589
 11
899.477
 21
180.159
  0
LINE
  8
0
 10
899.477
 20
180.159
 11
898.101
 21
178.099
  0
LINE
  8
0
 10
898.101
 20
178.099
 11
896.041
 21
176.723
  0
LINE
  8
0
 10
896.041
 20
176.723
 11
893.611
 21
176.239
  0
LINE
  8
0
 10
893.611
 20
176.239
 11
891.181
 21
176.723
  0
LINE
  8
0
 10
891.181
 20
176.723
 11
889.121
 21
178.099
  0
LINE
  8
0
 10
889.121
 20
178.099
 11
887.744
 21
180.159
  0
LINE
  8
0
 10
887.744
 20
180.159
 11
887.261
 21
182.589
  0
LINE
  8
0
 10
923.8
 20
127
 11
924.288
 21
131.955
  0
LINE
  8
0
 10
924.288
 20
131.955
 11
925.733
 21
136.72
  0
LINE
  8
0
 10
925.733
 20
136.72
 11
928.081
 21
141.111
  0
LINE
  8
0
 10
928.081
 20
141.111
 11
931.239
 21
144.961
  0
LINE
  8
0
 10
931.239
 20
144.961
 11
935.089
 21
148.119
  0
LINE
  8
0
 10
935.089
 20
148.119
 11
939.48
 21
150.467
  0
LINE
  8
0
 10
939.48
 20
150.467
 11
944.245
 21
151.912
  0
LINE
  8
0
 10
944.245
 20
151.912
 11
949.2
 21
152.4
  0
LINE
  8
0
 10
949.2
 20
152.4
 11
954.155
 21
151.912
  0
LINE
  8
0
 10
954.155
 20
151.912
 11
958.92
 21
150.467
  0
LINE
  8
0
 10
958.92
 20
150.467
 11
963.311
 21
148.119
  0
LINE
  8
0
 10
963.311
 20
148.119
 11
967.161
 21
144.961
  0
LINE
  8
0
 10
967.161
 20
144.961
 11
970.319
 21
141.111
  0
LINE
  8
0
 10
970.319
 20
141.111
 11
972.667
 21
136.72
  0
LINE
  8
0
 10
972.667
 20
136.72
 11
974.112
 21
131.955
  0
LINE
  8
0
 10
974.112
 20
131.955
 11
974.6
 21
127
  0
LINE
  8
0
 10
974.6
 20
127
 11
974.112
 21
122.045
  0
LINE
  8
0
 10
974.112
 20
122.045
 11
972.667
 21
117.28
  0
LINE
  8
0
 10
972.667
 20
117.28
 11
970.319
 21
112.889
  0
LINE
  8
0
 10
970.319
 20
112.889
 11
967.161
 21
109.039
  0
LINE
  8
0
 10
967.161
 20
109.039
 11
963.311
 21
105.881
  0
LINE
  8
0
 10
963.311
 20
105.881
 11
958.92
 21
103.533
  0
LINE
  8
0
 10
958.92
 20
103.533
 11
954.155
 21
102.088
  0
LINE
  8
0
 10
954.155
 20
102.088
 11
949.2
 21
101.6
  0
LINE
  8
0
 10
949.2
 20
101.6
 11
944.245
 21
102.088
  0
LINE
  8
0
 10
944.245
 20
102.088
 11
939.48
 21
103.533
  0
LINE
  8
0
 10
939.48
 20
103.533
 11
935.089
 21
105.881
  0
LINE
  8
0
 10
935.089
 20
105.881
 11
931.239
 21
109.039
  0
LINE
  8
0
 10
931.239
 20
109.039
 11
928.081
 21
112.889
  0
LINE
  8
0
 10
928.081
 20
112.889
 11
925.733
 21
117.28
  0
LINE
  8
0
 10
925.733
 20
117.28
 11
924.288
 21
122.045
  0
LINE
  8
0
 10
924.288
 20
122.045
 11
923.8
 21
127
  0
LINE
  8
0
 10
998.439
 20
71.4108
 11
998.923
 21
73.8409
  0
LINE
  8
0
 10
998.923
 20
73.8409
 11
1000.3
 21
75.9009
  0
LINE
  8
0
 10
1000.3
 20
75.9009
 11
1002.36
 21
77.2775
  0
LINE
  8
0
 10
1002.36
 20
77.2775
 11
1004.79
 21
77.7608
  0
LINE
  8
0
 10
1004.79
 20
77.7608
 11
1007.22
 21
77.2775
  0
LINE
  8
0
 10
1007.22
 20
77.2775
 11
1009.28
 21
75.9009
  0
LINE
  8
0
 10
1009.28
 20
75.9009
 11
1010.66
 21
73.8409
  0
LINE
  8
0
 10
1010.66
 20
73.8409
 11
1011.14
 21
71.4108
  0
LINE
  8
0
 10
1011.14
 20
71.4108
 11
1010.66
 21
68.9808
  0
LINE
  8
0
 10
1010.66
 20
68.9808
 11
1009.28
 21
66.9207
  0
LINE
  8
0
 10
1009.28
 20
66.9207
 11
1007.22
 21
65.5442
  0
LINE
  8
0
 10
1007.22
 20
65.5442
 11
1004.79
 21
65.0608
  0
LINE
  8
0
 10
1004.79
 20
65.0608
 11
1002.36
 21
65.5442
  0
LINE
  8
0
 10
1002.36
 20
65.5442
 11
1000.3
 21
66.9207
  0
LINE
  8
0
 10
1000.3
 20
66.9207
 11
998.923
 21
68.9808
  0
LINE
  8
0
 10
998.923
 20
68.9808
 11
998.439
 21
71.4108
  0
LINE
  8
0
 10
998.439
 20
182.589
 11
998.923
 21
185.019
  0
LINE
  8
0
 10
998.923
 20
185.019
 11
1000.3
 21
187.079
  0
LINE
  8
0
 10
1000.3
 20
187.079
 11
1002.36
 21
188.456
  0
LINE
  8
0
 10
1002.36
 20
188.456
 11
1004.79
 21
188.939
  0
LINE
  8
0
 10
1004.79
 20
188.939
 11
1007.22
 21
188.456
  0
LINE
  8
0
 10
1007.22
 20
188.456
 11
1009.28
 21
187.079
  0
LINE
  8
0
 10
1009.28
 20
187.079
 11
1010.66
 21
185.019
  0
LINE
  8
0
 10
1010.66
 20
185.019
 11
1011.14
 21
182.589
  0
LINE
  8
0
 10
1011.14
 20
182.589
 11
1010.66
 21
180.159
  0
LINE
  8
0
 10
1010.66
 20
180.159
 11
1009.28
 21
178.099
  0
LINE
  8
0
 10
1009.28
 20
178.099
 11
1007.22
 21
176.723
  0
LINE
  8
0
 10
1007.22
 20
176.723
 11
1004.79
 21
176.239
  0
LINE
  8
0
 10
1004.79
 20
176.239
 11
1002.36
 21
176.723
  0
LINE
  8
0
 10
1002.36
 20
176.723
 11
1000.3
 21
178.099
  0
LINE
  8
0
 10
1000.3
 20
178.099
 11
998.923
 21
180.159
  0
LINE
  8
0
 10
998.923
 20
180.159
 11
998.439
 21
182.589
  0
LINE
  8
0
 10
1082.54
 20
30.48
 11
1082.9
 21
32.3025
  0
LINE
  8
0
 10
1082.9
 20
32.3025
 11
1083.93
 21
33.8476
  0
LINE
  8
0
 10
1083.93
 20
33.8476
 11
1085.48
 21
34.88
  0
LINE
  8
0
 10
1085.48
 20
34.88
 11
1087.3
 21
35.2425
  0
LINE
  8
0
 10
1087.3
 20
35.2425
 11
1089.12
 21
34.88
  0
LINE
  8
0
 10
1089.12
 20
34.88
 11
1090.67
 21
33.8476
  0
LINE
  8
0
 10
1090.67
 20
33.8476
 11
1091.7
 21
32.3025
  0
LINE
  8
0
 10
1091.7
 20
32.3025
 11
1092.06
 21
30.48
  0
LINE
  8
0
 10
1092.06
 20
30.48
 11
1091.7
 21
28.6575
  0
LINE
  8
0
 10
1091.7
 20
28.6575
 11
1090.67
 21
27.1124
  0
LINE
  8
0
 10
1090.67
 20
27.1124
 11
1089.12
 21
26.08
  0
LINE
  8
0
 10
1089.12
 20
26.08
 11
1087.3
 21
25.7175
  0
LINE
  8
0
 10
1087.3
 20
25.7175
 11
1085.48
 21
26.08
  0
LINE
  8
0
 10
1085.48
 20
26.08
 11
1083.93
 21
27.1124
  0
LINE
  8
0
 10
1083.93
 20
27.1124
 11
1082.9
 21
28.6575
  0
LINE
  8
0
 10
1082.9
 20
28.6575
 11
1082.54
 21
30.48
  0
LINE
  8
0
 10
1129.15
 20
918.25
 11
1129.32
 21
920.867
  0
LINE
  8
0
 10
1129.32
 20
920.867
 11
1129.83
 21
923.439
  0
LINE
  8
0
 10
1129.83
 20
923.439
 11
1130.68
 21
925.923
  0
LINE
  8
0
 10
1130.68
 20
925.923
 11
1131.84
 21
928.275
  0
LINE
  8
0
 10
1131.84
 20
928.275
 11
1133.29
 21
930.456
  0
LINE
  8
0
 10
1133.29
 20
930.456
 11
1135.02
 21
932.427
  0
LINE
  8
0
 10
1135.02
 20
932.427
 11
1136.99
 21
934.157
  0
LINE
  8
0
 10
1136.99
 20
934.157
 11
1139.18
 21
935.614
  0
LINE
  8
0
 10
1139.18
 20
935.614
 11
1141.53
 21
936.774
  0
LINE
  8
0
 10
1141.53
 20
936.774
 11
1144.01
 21
937.617
  0
LINE
  8
0
 10
1144.01
 20
937.617
 11
1146.58
 21
938.128
  0
LINE
  8
0
 10
1146.58
 20
938.128
 11
1149.2
 21
938.3
  0
LINE
  8
0
 10
1149.2
 20
938.3
 11
1151.82
 21
938.128
  0
LINE
  8
0
 10
1151.82
 20
938.128
 11
1154.39
 21
937.617
  0
LINE
  8
0
 10
1154.39
 20
937.617
 11
1156.87
 21
936.774
  0
LINE
  8
0
 10
1156.87
 20
936.774
 11
1159.23
 21
935.614
  0
LINE
  8
0
 10
1159.23
 20
935.614
 11
1161.41
 21
934.157
  0
LINE
  8
0
 10
1161.41
 20
934.157
 11
1163.38
 21
932.427
  0
LINE
  8
0
 10
1163.38
 20
932.427
 11
1165.11
 21
930.456
  0
LINE
  8
0
 10
1165.11
 20
930.456
 11
1166.56
 21
928.275
  0
LINE
  8
0
 10
1166.56
 20
928.275
 11
1167.72
 21
925.923
  0
LINE
  8
0
 10
1167.72
 20
925.923
 11
1168.57
 21
923.439
  0
LINE
  8
0
 10
1168.57
 20
923.439
 11
1169.08
 21
920.867
  0
LINE
  8
0
 10
1169.08
 20
920.867
 11
1169.25
 21
918.25
  0
LINE
  8
0
 10
1169.25
 20
918.25
 11
1169.08
 21
915.633
  0
LINE
  8
0
 10
1169.08
 20
915.633
 11
1168.57
 21
913.061
  0
LINE
  8
0
 10
1168.57
 20
913.061
 11
1167.72
 21
910.577
  0
LINE
  8
0
 10
1167.72
 20
910.577
 11
1166.56
 21
908.225
  0
LINE
  8
0
 10
1166.56
 20
908.225
 11
1165.11
 21
906.044
  0
LINE
  8
0
 10
1165.11
 20
906.044
 11
1163.38
 21
904.073
  0
LINE
  8
0
 10
1163.38
 20
904.073
 11
1161.41
 21
902.343
  0
LINE
  8
0
 10
1161.41
 20
902.343
 11
1159.23
 21
900.886
  0
LINE
  8
0
 10
1159.23
 20
900.886
 11
1156.87
 21
899.726
  0
LINE
  8
0
 10
1156.87
 20
899.726
 11
1154.39
 21
898.883
  0
LINE
  8
0
 10
1154.39
 20
898.883
 11
1151.82
 21
898.372
  0
LINE
  8
0
 10
1151.82
 20
898.372
 11
1149.2
 21
898.2
  0
LINE
  8
0
 10
1149.2
 20
898.2
 11
1146.58
 21
898.372
  0
LINE
  8
0
 10
1146.58
 20
898.372
 11
1144.01
 21
898.883
  0
LINE
  8
0
 10
1144.01
 20
898.883
 11
1141.53
 21
899.726
  0
LINE
  8
0
 10
1141.53
 20
899.726
 11
1139.18
 21
900.886
  0
LINE
  8
0
 10
1139.18
 20
900.886
 11
1136.99
 21
902.343
  0
LINE
  8
0
 10
1136.99
 20
902.343
 11
1135.02
 21
904.073
  0
LINE
  8
0
 10
1135.02
 20
904.073
 11
1133.29
 21
906.044
  0
LINE
  8
0
 10
1133.29
 20
906.044
 11
1131.84
 21
908.225
  0
LINE
  8
0
 10
1131.84
 20
908.225
 11
1130.68
 21
910.577
  0
LINE
  8
0
 10
1130.68
 20
910.577
 11
1129.83
 21
913.061
  0
LINE
  8
0
 10
1129.83
 20
913.061
 11
1129.32
 21
915.633
  0
LINE
  8
0
 10
1129.32
 20
915.633
 11
1129.15
 21
918.25
  0
LINE
  8
0
 10
1155.54
 20
30.48
 11
1155.9
 21
32.3025
  0
LINE
  8
0
 10
1155.9
 20
32.3025
 11
1156.93
 21
33.8476
  0
LINE
  8
0
 10
1156.93
 20
33.8476
 11
1158.48
 21
34.88
  0
LINE
  8
0
 10
1158.48
 20
34.88
 11
1160.3
 21
35.2425
  0
LINE
  8
0
 10
1160.3
 20
35.2425
 11
1162.12
 21
34.88
  0
LINE
  8
0
 10
1162.12
 20
34.88
 11
1163.67
 21
33.8476
  0
LINE
  8
0
 10
1163.67
 20
33.8476
 11
1164.7
 21
32.3025
  0
LINE
  8
0
 10
1164.7
 20
32.3025
 11
1165.06
 21
30.48
  0
LINE
  8
0
 10
1165.06
 20
30.48
 11
1164.7
 21
28.6575
  0
LINE
  8
0
 10
1164.7
 20
28.6575
 11
1163.67
 21
27.1124
  0
LINE
  8
0
 10
1163.67
 20
27.1124
 11
1162.12
 21
26.08
  0
LINE
  8
0
 10
1162.12
 20
26.08
 11
1160.3
 21
25.7175
  0
LINE
  8
0
 10
1160.3
 20
25.7175
 11
1158.48
 21
26.08
  0
LINE
  8
0
 10
1158.48
 20
26.08
 11
1156.93
 21
27.1124
  0
LINE
  8
0
 10
1156.93
 20
27.1124
 11
1155.9
 21
28.6575
  0
LINE
  8
0
 10
1155.9
 20
28.6575
 11
1155.54
 21
30.48
  0
LINE
  8
0
 10
1260.1
 20
148.25
 11
1260.22
 21
150.038
  0
LINE
  8
0
 10
1260.22
 20
150.038
 11
1260.57
 21
151.796
  0
LINE
  8
0
 10
1260.57
 20
151.796
 11
1261.14
 21
153.493
  0
LINE
  8
0
 10
1261.14
 20
153.493
 11
1261.94
 21
155.1
  0
LINE
  8
0
 10
1261.94
 20
155.1
 11
1262.93
 21
156.59
  0
LINE
  8
0
 10
1262.93
 20
156.59
 11
1264.11
 21
157.937
  0
LINE
  8
0
 10
1264.11
 20
157.937
 11
1265.46
 21
159.119
  0
LINE
  8
0
 10
1265.46
 20
159.119
 11
1266.95
 21
160.115
  0
LINE
  8
0
 10
1266.95
 20
160.115
 11
1268.56
 21
160.907
  0
LINE
  8
0
 10
1268.56
 20
160.907
 11
1270.25
 21
161.483
  0
LINE
  8
0
 10
1270.25
 20
161.483
 11
1272.01
 21
161.833
  0
LINE
  8
0
 10
1272.01
 20
161.833
 11
1273.8
 21
161.95
  0
LINE
  8
0
 10
1273.8
 20
161.95
 11
1275.59
 21
161.833
  0
LINE
  8
0
 10
1275.59
 20
161.833
 11
1277.35
 21
161.483
  0
LINE
  8
0
 10
1277.35
 20
161.483
 11
1279.04
 21
160.907
  0
LINE
  8
0
 10
1279.04
 20
160.907
 11
1280.65
 21
160.115
  0
LINE
  8
0
 10
1280.65
 20
160.115
 11
1282.14
 21
159.119
  0
LINE
  8
0
 10
1282.14
 20
159.119
 11
1283.49
 21
157.937
  0
LINE
  8
0
 10
1283.49
 20
157.937
 11
1284.67
 21
156.59
  0
LINE
  8
0
 10
1284.67
 20
156.59
 11
1285.66
 21
155.1
  0
LINE
  8
0
 10
1285.66
 20
155.1
 11
1286.46
 21
153.493
  0
LINE
  8
0
 10
1286.46
 20
153.493
 11
1287.03
 21
151.796
  0
LINE
  8
0
 10
1287.03
 20
151.796
 11
1287.38
 21
150.038
  0
LINE
  8
0
 10
1287.38
 20
150.038
 11
1287.5
 21
148.25
  0
LINE
  8
0
 10
1287.5
 20
148.25
 11
1287.38
 21
146.462
  0
LINE
  8
0
 10
1287.38
 20
146.462
 11
1287.03
 21
144.704
  0
LINE
  8
0
 10
1287.03
 20
144.704
 11
1286.46
 21
143.007
  0
LINE
  8
0
 10
1286.46
 20
143.007
 11
1285.66
 21
141.4
  0
LINE
  8
0
 10
1285.66
 20
141.4
 11
1284.67
 21
139.91
  0
LINE
  8
0
 10
1284.67
 20
139.91
 11
1283.49
 21
138.563
  0
LINE
  8
0
 10
1283.49
 20
138.563
 11
1282.14
 21
137.381
  0
LINE
  8
0
 10
1282.14
 20
137.381
 11
1280.65
 21
136.385
  0
LINE
  8
0
 10
1280.65
 20
136.385
 11
1279.04
 21
135.593
  0
LINE
  8
0
 10
1279.04
 20
135.593
 11
1277.35
 21
135.017
  0
LINE
  8
0
 10
1277.35
 20
135.017
 11
1275.59
 21
134.667
  0
LINE
  8
0
 10
1275.59
 20
134.667
 11
1273.8
 21
134.55
  0
LINE
  8
0
 10
1273.8
 20
134.55
 11
1272.01
 21
134.667
  0
LINE
  8
0
 10
1272.01
 20
134.667
 11
1270.25
 21
135.017
  0
LINE
  8
0
 10
1270.25
 20
135.017
 11
1268.56
 21
135.593
  0
LINE
  8
0
 10
1268.56
 20
135.593
 11
1266.95
 21
136.385
  0
LINE
  8
0
 10
1266.95
 20
136.385
 11
1265.46
 21
137.381
  0
LINE
  8
0
 10
1265.46
 20
137.381
 11
1264.11
 21
138.563
  0
LINE
  8
0
 10
1264.11
 20
138.563
 11
1262.93
 21
139.91
  0
LINE
  8
0
 10
1262.93
 20
139.91
 11
1261.94
 21
141.4
  0
LINE
  8
0
 10
1261.94
 20
141.4
 11
1261.14
 21
143.007
  0
LINE
  8
0
 10
1261.14
 20
143.007
 11
1260.57
 21
144.704
  0
LINE
  8
0
 10
1260.57
 20
144.704
 11
1260.22
 21
146.462
  0
LINE
  8
0
 10
1260.22
 20
146.462
 11
1260.1
 21
148.25
  0
LINE
  8
0
 10
1264.86
 20
88.25
 11
1265.03
 21
89.9936
  0
LINE
  8
0
 10
1265.03
 20
89.9936
 11
1265.54
 21
91.6702
  0
LINE
  8
0
 10
1265.54
 20
91.6702
 11
1266.37
 21
93.2154
  0
LINE
  8
0
 10
1266.37
 20
93.2154
 11
1267.48
 21
94.5698
  0
LINE
  8
0
 10
1267.48
 20
94.5698
 11
1268.83
 21
95.6813
  0
LINE
  8
0
 10
1268.83
 20
95.6813
 11
1270.38
 21
96.5072
  0
LINE
  8
0
 10
1270.38
 20
96.5072
 11
1272.06
 21
97.0158
  0
LINE
  8
0
 10
1272.06
 20
97.0158
 11
1273.8
 21
97.1875
  0
LINE
  8
0
 10
1273.8
 20
97.1875
 11
1275.54
 21
97.0158
  0
LINE
  8
0
 10
1275.54
 20
97.0158
 11
1277.22
 21
96.5072
  0
LINE
  8
0
 10
1277.22
 20
96.5072
 11
1278.77
 21
95.6813
  0
LINE
  8
0
 10
1278.77
 20
95.6813
 11
1280.12
 21
94.5698
  0
LINE
  8
0
 10
1280.12
 20
94.5698
 11
1281.23
 21
93.2154
  0
LINE
  8
0
 10
1281.23
 20
93.2154
 11
1282.06
 21
91.6702
  0
LINE
  8
0
 10
1282.06
 20
91.6702
 11
1282.57
 21
89.9936
  0
LINE
  8
0
 10
1282.57
 20
89.9936
 11
1282.74
 21
88.25
  0
LINE
  8
0
 10
1282.74
 20
88.25
 11
1282.57
 21
86.5064
  0
LINE
  8
0
 10
1282.57
 20
86.5064
 11
1282.06
 21
84.8298
  0
LINE
  8
0
 10
1282.06
 20
84.8298
 11
1281.23
 21
83.2846
  0
LINE
  8
0
 10
1281.23
 20
83.2846
 11
1280.12
 21
81.9302
  0
LINE
  8
0
 10
1280.12
 20
81.9302
 11
1278.77
 21
80.8187
  0
LINE
  8
0
 10
1278.77
 20
80.8187
 11
1277.22
 21
79.9928
  0
LINE
  8
0
 10
1277.22
 20
79.9928
 11
1275.54
 21
79.4842
  0
LINE
  8
0
 10
1275.54
 20
79.4842
 11
1273.8
 21
79.3125
  0
LINE
  8
0
 10
1273.8
 20
79.3125
 11
1272.06
 21
79.4842
  0
LINE
  8
0
 10
1272.06
 20
79.4842
 11
1270.38
 21
79.9928
  0
LINE
  8
0
 10
1270.38
 20
79.9928
 11
1268.83
 21
80.8187
  0
LINE
  8
0
 10
1268.83
 20
80.8187
 11
1267.48
 21
81.9302
  0
LINE
  8
0
 10
1267.48
 20
81.9302
 11
1266.37
 21
83.2846
  0
LINE
  8
0
 10
1266.37
 20
83.2846
 11
1265.54
 21
84.8298
  0
LINE
  8
0
 10
1265.54
 20
84.8298
 11
1265.03
 21
86.5064
  0
LINE
  8
0
 10
1265.03
 20
86.5064
 11
1264.86
 21
88.25
  0
LINE
  8
0
 10
1282.21
 20
383.25
 11
1282.57
 21
385.073
  0
LINE
  8
0
 10
1282.57
 20
385.073
 11
1283.6
 21
386.618
  0
LINE
  8
0
 10
1283.6
 20
386.618
 11
1285.15
 21
387.65
  0
LINE
  8
0
 10
1285.15
 20
387.65
 11
1286.97
 21
388.012
  0
LINE
  8
0
 10
1286.97
 20
388.012
 11
1288.79
 21
387.65
  0
LINE
  8
0
 10
1288.79
 20
387.65
 11
1290.34
 21
386.618
  0
LINE
  8
0
 10
1290.34
 20
386.618
 11
1291.37
 21
385.073
  0
LINE
  8
0
 10
1291.37
 20
385.073
 11
1291.73
 21
383.25
  0
LINE
  8
0
 10
1291.73
 20
383.25
 11
1291.37
 21
381.427
  0
LINE
  8
0
 10
1291.37
 20
381.427
 11
1290.34
 21
379.882
  0
LINE
  8
0
 10
1290.34
 20
379.882
 11
1288.79
 21
378.85
  0
LINE
  8
0
 10
1288.79
 20
378.85
 11
1286.97
 21
378.487
  0
LINE
  8
0
 10
1286.97
 20
378.487
 11
1285.15
 21
378.85
  0
LINE
  8
0
 10
1285.15
 20
378.85
 11
1283.6
 21
379.882
  0
LINE
  8
0
 10
1283.6
 20
379.882
 11
1282.57
 21
381.427
  0
LINE
  8
0
 10
1282.57
 20
381.427
 11
1282.21
 21
383.25
  0
LINE
  8
0
 10
1282.21
 20
448.25
 11
1282.57
 21
450.073
  0
LINE
  8
0
 10
1282.57
 20
450.073
 11
1283.6
 21
451.618
  0
LINE
  8
0
 10
1283.6
 20
451.618
 11
1285.15
 21
452.65
  0
LINE
  8
0
 10
1285.15
 20
452.65
 11
1286.97
 21
453.012
  0
LINE
  8
0
 10
1286.97
 20
453.012
 11
1288.79
 21
452.65
  0
LINE
  8
0
 10
1288.79
 20
452.65
 11
1290.34
 21
451.618
  0
LINE
  8
0
 10
1290.34
 20
451.618
 11
1291.37
 21
450.073
  0
LINE
  8
0
 10
1291.37
 20
450.073
 11
1291.73
 21
448.25
  0
LINE
  8
0
 10
1291.73
 20
448.25
 11
1291.37
 21
446.427
  0
LINE
  8
0
 10
1291.37
 20
446.427
 11
1290.34
 21
444.882
  0
LINE
  8
0
 10
1290.34
 20
444.882
 11
1288.79
 21
443.85
  0
LINE
  8
0
 10
1288.79
 20
443.85
 11
1286.97
 21
443.487
  0
LINE
  8
0
 10
1286.97
 20
443.487
 11
1285.15
 21
443.85
  0
LINE
  8
0
 10
1285.15
 20
443.85
 11
1283.6
 21
444.882
  0
LINE
  8
0
 10
1283.6
 20
444.882
 11
1282.57
 21
446.427
  0
LINE
  8
0
 10
1282.57
 20
446.427
 11
1282.21
 21
448.25
  0
LINE
  8
0
 10
1282.21
 20
513.25
 11
1282.57
 21
515.073
  0
LINE
  8
0
 10
1282.57
 20
515.073
 11
1283.6
 21
516.618
  0
LINE
  8
0
 10
1283.6
 20
516.618
 11
1285.15
 21
517.65
  0
LINE
  8
0
 10
1285.15
 20
517.65
 11
1286.97
 21
518.012
  0
LINE
  8
0
 10
1286.97
 20
518.012
 11
1288.79
 21
517.65
  0
LINE
  8
0
 10
1288.79
 20
517.65
 11
1290.34
 21
516.618
  0
LINE
  8
0
 10
1290.34
 20
516.618
 11
1291.37
 21
515.073
  0
LINE
  8
0
 10
1291.37
 20
515.073
 11
1291.73
 21
513.25
  0
LINE
  8
0
 10
1291.73
 20
513.25
 11
1291.37
 21
511.427
  0
LINE
  8
0
 10
1291.37
 20
511.427
 11
1290.34
 21
509.882
  0
LINE
  8
0
 10
1290.34
 20
509.882
 11
1288.79
 21
508.85
  0
LINE
  8
0
 10
1288.79
 20
508.85
 11
1286.97
 21
508.487
  0
LINE
  8
0
 10
1286.97
 20
508.487
 11
1285.15
 21
508.85
  0
LINE
  8
0
 10
1285.15
 20
508.85
 11
1283.6
 21
509.882
  0
LINE
  8
0
 10
1283.6
 20
509.882
 11
1282.57
 21
511.427
  0
LINE
  8
0
 10
1282.57
 20
511.427
 11
1282.21
 21
513.25
  0
LINE
  8
0
 10
1282.21
 20
578.25
 11
1282.57
 21
580.073
  0
LINE
  8
0
 10
1282.57
 20
580.073
 11
1283.6
 21
581.618
  0
LINE
  8
0
 10
1283.6
 20
581.618
 11
1285.15
 21
582.65
  0
LINE
  8
0
 10
1285.15
 20
582.65
 11
1286.97
 21
583.012
  0
LINE
  8
0
 10
1286.97
 20
583.012
 11
1288.79
 21
582.65
  0
LINE
  8
0
 10
1288.79
 20
582.65
 11
1290.34
 21
581.618
  0
LINE
  8
0
 10
1290.34
 20
581.618
 11
1291.37
 21
580.073
  0
LINE
  8
0
 10
1291.37
 20
580.073
 11
1291.73
 21
578.25
  0
LINE
  8
0
 10
1291.73
 20
578.25
 11
1291.37
 21
576.427
  0
LINE
  8
0
 10
1291.37
 20
576.427
 11
1290.34
 21
574.882
  0
LINE
  8
0
 10
1290.34
 20
574.882
 11
1288.79
 21
573.85
  0
LINE
  8
0
 10
1288.79
 20
573.85
 11
1286.97
 21
573.487
  0
LINE
  8
0
 10
1286.97
 20
573.487
 11
1285.15
 21
573.85
  0
LINE
  8
0
 10
1285.15
 20
573.85
 11
1283.6
 21
574.882
  0
LINE
  8
0
 10
1283.6
 20
574.882
 11
1282.57
 21
576.427
  0
LINE
  8
0
 10
1282.57
 20
576.427
 11
1282.21
 21
578.25
  0
LINE
  8
0
 10
1282.21
 20
643.25
 11
1282.57
 21
645.073
  0
LINE
  8
0
 10
1282.57
 20
645.073
 11
1283.6
 21
646.618
  0
LINE
  8
0
 10
1283.6
 20
646.618
 11
1285.15
 21
647.65
  0
LINE
  8
0
 10
1285.15
 20
647.65
 11
1286.97
 21
648.012
  0
LINE
  8
0
 10
1286.97
 20
648.012
 11
1288.79
 21
647.65
  0
LINE
  8
0
 10
1288.79
 20
647.65
 11
1290.34
 21
646.618
  0
LINE
  8
0
 10
1290.34
 20
646.618
 11
1291.37
 21
645.073
  0
LINE
  8
0
 10
1291.37
 20
645.073
 11
1291.73
 21
643.25
  0
LINE
  8
0
 10
1291.73
 20
643.25
 11
1291.37
 21
641.427
  0
LINE
  8
0
 10
1291.37
 20
641.427
 11
1290.34
 21
639.882
  0
LINE
  8
0
 10
1290.34
 20
639.882
 11
1288.79
 21
638.85
  0
LINE
  8
0
 10
1288.79
 20
638.85
 11
1286.97
 21
638.487
  0
LINE
  8
0
 10
1286.97
 20
638.487
 11
1285.15
 21
638.85
  0
LINE
  8
0
 10
1285.15
 20
638.85
 11
1283.6
 21
639.882
  0
LINE
  8
0
 10
1283.6
 20
639.882
 11
1282.57
 21
641.427
  0
LINE
  8
0
 10
1282.57
 20
641.427
 11
1282.21
 21
643.25
  0
LINE
  8
0
 10
1282.21
 20
708.25
 11
1282.57
 21
710.073
  0
LINE
  8
0
 10
1282.57
 20
710.073
 11
1283.6
 21
711.618
  0
LINE
  8
0
 10
1283.6
 20
711.618
 11
1285.15
 21
712.65
  0
LINE
  8
0
 10
1285.15
 20
712.65
 11
1286.97
 21
713.012
  0
LINE
  8
0
 10
1286.97
 20
713.012
 11
1288.79
 21
712.65
  0
LINE
  8
0
 10
1288.79
 20
712.65
 11
1290.34
 21
711.618
  0
LINE
  8
0
 10
1290.34
 20
711.618
 11
1291.37
 21
710.073
  0
LINE
  8
0
 10
1291.37
 20
710.073
 11
1291.73
 21
708.25
  0
LINE
  8
0
 10
1291.73
 20
708.25
 11
1291.37
 21
706.427
  0
LINE
  8
0
 10
1291.37
 20
706.427
 11
1290.34
 21
704.882
  0
LINE
  8
0
 10
1290.34
 20
704.882
 11
1288.79
 21
703.85
  0
LINE
  8
0
 10
1288.79
 20
703.85
 11
1286.97
 21
703.487
  0
LINE
  8
0
 10
1286.97
 20
703.487
 11
1285.15
 21
703.85
  0
LINE
  8
0
 10
1285.15
 20
703.85
 11
1283.6
 21
704.882
  0
LINE
  8
0
 10
1283.6
 20
704.882
 11
1282.57
 21
706.427
  0
LINE
  8
0
 10
1282.57
 20
706.427
 11
1282.21
 21
708.25
  0
LINE
  8
0
 10
1282.21
 20
773.25
 11
1282.57
 21
775.073
  0
LINE
  8
0
 10
1282.57
 20
775.073
 11
1283.6
 21
776.618
  0
LINE
  8
0
 10
1283.6
 20
776.618
 11
1285.15
 21
777.65
  0
LINE
  8
0
 10
1285.15
 20
777.65
 11
1286.97
 21
778.012
  0
LINE
  8
0
 10
1286.97
 20
778.012
 11
1288.79
 21
777.65
  0
LINE
  8
0
 10
1288.79
 20
777.65
 11
1290.34
 21
776.618
  0
LINE
  8
0
 10
1290.34
 20
776.618
 11
1291.37
 21
775.073
  0
LINE
  8
0
 10
1291.37
 20
775.073
 11
1291.73
 21
773.25
  0
LINE
  8
0
 10
1291.73
 20
773.25
 11
1291.37
 21
771.427
  0
LINE
  8
0
 10
1291.37
 20
771.427
 11
1290.34
 21
769.882
  0
LINE
  8
0
 10
1290.34
 20
769.882
 11
1288.79
 21
768.85
  0
LINE
  8
0
 10
1288.79
 20
768.85
 11
1286.97
 21
768.487
  0
LINE
  8
0
 10
1286.97
 20
768.487
 11
1285.15
 21
768.85
  0
LINE
  8
0
 10
1285.15
 20
768.85
 11
1283.6
 21
769.882
  0
LINE
  8
0
 10
1283.6
 20
769.882
 11
1282.57
 21
771.427
  0
LINE
  8
0
 10
1282.57
 20
771.427
 11
1282.21
 21
773.25
  0
LINE
  8
0
 10
1282.21
 20
838.25
 11
1282.57
 21
840.073
  0
LINE
  8
0
 10
1282.57
 20
840.073
 11
1283.6
 21
841.618
  0
LINE
  8
0
 10
1283.6
 20
841.618
 11
1285.15
 21
842.65
  0
LINE
  8
0
 10
1285.15
 20
842.65
 11
1286.97
 21
843.012
  0
LINE
  8
0
 10
1286.97
 20
843.012
 11
1288.79
 21
842.65
  0
LINE
  8
0
 10
1288.79
 20
842.65
 11
1290.34
 21
841.618
  0
LINE
  8
0
 10
1290.34
 20
841.618
 11
1291.37
 21
840.073
  0
LINE
  8
0
 10
1291.37
 20
840.073
 11
1291.73
 21
838.25
  0
LINE
  8
0
 10
1291.73
 20
838.25
 11
1291.37
 21
836.427
  0
LINE
  8
0
 10
1291.37
 20
836.427
 11
1290.34
 21
834.882
  0
LINE
  8
0
 10
1290.34
 20
834.882
 11
1288.79
 21
833.85
  0
LINE
  8
0
 10
1288.79
 20
833.85
 11
1286.97
 21
833.487
  0
LINE
  8
0
 10
1286.97
 20
833.487
 11
1285.15
 21
833.85
  0
LINE
  8
0
 10
1285.15
 20
833.85
 11
1283.6
 21
834.882
  0
LINE
  8
0
 10
1283.6
 20
834.882
 11
1282.57
 21
836.427
  0
LINE
  8
0
 10
1282.57
 20
836.427
 11
1282.21
 21
838.25
  0
LINE
  8
0
 10
1285.5
 20
418.25
 11
1285.76
 21
420.923
  0
LINE
  8
0
 10
1285.76
 20
420.923
 11
1286.54
 21
423.493
  0
LINE
  8
0
 10
1286.54
 20
423.493
 11
1287.81
 21
425.861
  0
LINE
  8
0
 10
1287.81
 20
425.861
 11
1289.51
 21
427.937
  0
LINE
  8
0
 10
1289.51
 20
427.937
 11
1291.59
 21
429.641
  0
LINE
  8
0
 10
1291.59
 20
429.641
 11
1293.96
 21
430.907
  0
LINE
  8
0
 10
1293.96
 20
430.907
 11
1296.53
 21
431.687
  0
LINE
  8
0
 10
1296.53
 20
431.687
 11
1299.2
 21
431.95
  0
LINE
  8
0
 10
1299.2
 20
431.95
 11
1301.87
 21
431.687
  0
LINE
  8
0
 10
1301.87
 20
431.687
 11
1304.44
 21
430.907
  0
LINE
  8
0
 10
1304.44
 20
430.907
 11
1306.81
 21
429.641
  0
LINE
  8
0
 10
1306.81
 20
429.641
 11
1308.89
 21
427.937
  0
LINE
  8
0
 10
1308.89
 20
427.937
 11
1310.59
 21
425.861
  0
LINE
  8
0
 10
1310.59
 20
425.861
 11
1311.86
 21
423.493
  0
LINE
  8
0
 10
1311.86
 20
423.493
 11
1312.64
 21
420.923
  0
LINE
  8
0
 10
1312.64
 20
420.923
 11
1312.9
 21
418.25
  0
LINE
  8
0
 10
1312.9
 20
418.25
 11
1312.64
 21
415.577
  0
LINE
  8
0
 10
1312.64
 20
415.577
 11
1311.86
 21
413.007
  0
LINE
  8
0
 10
1311.86
 20
413.007
 11
1310.59
 21
410.639
  0
LINE
  8
0
 10
1310.59
 20
410.639
 11
1308.89
 21
408.563
  0
LINE
  8
0
 10
1308.89
 20
408.563
 11
1306.81
 21
406.859
  0
LINE
  8
0
 10
1306.81
 20
406.859
 11
1304.44
 21
405.593
  0
LINE
  8
0
 10
1304.44
 20
405.593
 11
1301.87
 21
404.813
  0
LINE
  8
0
 10
1301.87
 20
404.813
 11
1299.2
 21
404.55
  0
LINE
  8
0
 10
1299.2
 20
404.55
 11
1296.53
 21
404.813
  0
LINE
  8
0
 10
1296.53
 20
404.813
 11
1293.96
 21
405.593
  0
LINE
  8
0
 10
1293.96
 20
405.593
 11
1291.59
 21
406.859
  0
LINE
  8
0
 10
1291.59
 20
406.859
 11
1289.51
 21
408.563
  0
LINE
  8
0
 10
1289.51
 20
408.563
 11
1287.81
 21
410.639
  0
LINE
  8
0
 10
1287.81
 20
410.639
 11
1286.54
 21
413.007
  0
LINE
  8
0
 10
1286.54
 20
413.007
 11
1285.76
 21
415.577
  0
LINE
  8
0
 10
1285.76
 20
415.577
 11
1285.5
 21
418.25
  0
ENDSEC
  0
SECTION
  2
OBJECTS
  0
DICTIONARY
  0
ENDSEC
  0
EOF
