  0
SECTION
  2
HEADER
  9
$ACADVER
  1
AC1009
  9
$INSUNITS
 70
4
  9
$MEASUREMENT
 70
1
  0
ENDSEC
  0
SECTION
  2
BLOCKS
  0
ENDSEC
  0
SECTION
  2
ENTITIES
  0
LINE
  8
0
 10
0
 20
0
 11
1020
 21
0
  0
LINE
  8
0
 10
1020
 20
0
 11
1020
 21
650
  0
LINE
  8
0
 10
1020
 20
650
 11
0
 21
650
  0
LINE
  8
0
 10
0
 20
650
 11
0
 21
0
  0
LINE
  8
0
 10
25.7175
 20
130
 11
26.08
 21
131.823
  0
LINE
  8
0
 10
26.08
 20
131.823
 11
27.1124
 21
133.368
  0
LINE
  8
0
 10
27.1124
 20
133.368
 11
28.6575
 21
134.4
  0
LINE
  8
0
 10
28.6575
 20
134.4
 11
30.48
 21
134.762
  0
LINE
  8
0
 10
30.48
 20
134.762
 11
32.3025
 21
134.4
  0
LINE
  8
0
 10
32.3025
 20
134.4
 11
33.8476
 21
133.368
  0
LINE
  8
0
 10
33.8476
 20
133.368
 11
34.88
 21
131.823
  0
LINE
  8
0
 10
34.88
 20
131.823
 11
35.2425
 21
130
  0
LINE
  8
0
 10
35.2425
 20
130
 11
34.88
 21
128.177
  0
LINE
  8
0
 10
34.88
 20
128.177
 11
33.8476
 21
126.632
  0
LINE
  8
0
 10
33.8476
 20
126.632
 11
32.3025
 21
125.6
  0
LINE
  8
0
 10
32.3025
 20
125.6
 11
30.48
 21
125.237
  0
LINE
  8
0
 10
30.48
 20
125.237
 11
28.6575
 21
125.6
  0
LINE
  8
0
 10
28.6575
 20
125.6
 11
27.1124
 21
126.632
  0
LINE
  8
0
 10
27.1124
 20
126.632
 11
26.08
 21
128.177
  0
LINE
  8
0
 10
26.08
 20
128.177
 11
25.7175
 21
130
  0
LINE
  8
0
 10
25.7175
 20
260
 11
26.08
 21
261.823
  0
LINE
  8
0
 10
26.08
 20
261.823
 11
27.1124
 21
263.368
  0
LINE
  8
0
 10
27.1124
 20
263.368
 11
28.6575
 21
264.4
  0
LINE
  8
0
 10
28.6575
 20
264.4
 11
30.48
 21
264.762
  0
LINE
  8
0
 10
30.48
 20
264.762
 11
32.3025
 21
264.4
  0
LINE
  8
0
 10
32.3025
 20
264.4
 11
33.8476
 21
263.368
  0
LINE
  8
0
 10
33.8476
 20
263.368
 11
34.88
 21
261.823
  0
LINE
  8
0
 10
34.88
 20
261.823
 11
35.2425
 21
260
  0
LINE
  8
0
 10
35.2425
 20
260
 11
34.88
 21
258.177
  0
LINE
  8
0
 10
34.88
 20
258.177
 11
33.8476
 21
256.632
  0
LINE
  8
0
 10
33.8476
 20
256.632
 11
32.3025
 21
255.6
  0
LINE
  8
0
 10
32.3025
 20
255.6
 11
30.48
 21
255.237
  0
LINE
  8
0
 10
30.48
 20
255.237
 11
28.6575
 21
255.6
  0
LINE
  8
0
 10
28.6575
 20
255.6
 11
27.1124
 21
256.632
  0
LINE
  8
0
 10
27.1124
 20
256.632
 11
26.08
 21
258.177
  0
LINE
  8
0
 10
26.08
 20
258.177
 11
25.7175
 21
260
  0
LINE
  8
0
 10
25.7175
 20
390
 11
26.08
 21
391.823
  0
LINE
  8
0
 10
26.08
 20
391.823
 11
27.1124
 21
393.368
  0
LINE
  8
0
 10
27.1124
 20
393.368
 11
28.6575
 21
394.4
  0
LINE
  8
0
 10
28.6575
 20
394.4
 11
30.48
 21
394.762
  0
LINE
  8
0
 10
30.48
 20
394.762
 11
32.3025
 21
394.4
  0
LINE
  8
0
 10
32.3025
 20
394.4
 11
33.8476
 21
393.368
  0
LINE
  8
0
 10
33.8476
 20
393.368
 11
34.88
 21
391.823
  0
LINE
  8
0
 10
34.88
 20
391.823
 11
35.2425
 21
390
  0
LINE
  8
0
 10
35.2425
 20
390
 11
34.88
 21
388.177
  0
LINE
  8
0
 10
34.88
 20
388.177
 11
33.8476
 21
386.632
  0
LINE
  8
0
 10
33.8476
 20
386.632
 11
32.3025
 21
385.6
  0
LINE
  8
0
 10
32.3025
 20
385.6
 11
30.48
 21
385.237
  0
LINE
  8
0
 10
30.48
 20
385.237
 11
28.6575
 21
385.6
  0
LINE
  8
0
 10
28.6575
 20
385.6
 11
27.1124
 21
386.632
  0
LINE
  8
0
 10
27.1124
 20
386.632
 11
26.08
 21
388.177
  0
LINE
  8
0
 10
26.08
 20
388.177
 11
25.7175
 21
390
  0
LINE
  8
0
 10
25.7175
 20
520
 11
26.08
 21
521.823
  0
LINE
  8
0
 10
26.08
 20
521.823
 11
27.1124
 21
523.368
  0
LINE
  8
0
 10
27.1124
 20
523.368
 11
28.6575
 21
524.4
  0
LINE
  8
0
 10
28.6575
 20
524.4
 11
30.48
 21
524.762
  0
LINE
  8
0
 10
30.48
 20
524.762
 11
32.3025
 21
524.4
  0
LINE
  8
0
 10
32.3025
 20
524.4
 11
33.8476
 21
523.368
  0
LINE
  8
0
 10
33.8476
 20
523.368
 11
34.88
 21
521.823
  0
LINE
  8
0
 10
34.88
 20
521.823
 11
35.2425
 21
520
  0
LINE
  8
0
 10
35.2425
 20
520
 11
34.88
 21
518.177
  0
LINE
  8
0
 10
34.88
 20
518.177
 11
33.8476
 21
516.632
  0
LINE
  8
0
 10
33.8476
 20
516.632
 11
32.3025
 21
515.6
  0
LINE
  8
0
 10
32.3025
 20
515.6
 11
30.48
 21
515.237
  0
LINE
  8
0
 10
30.48
 20
515.237
 11
28.6575
 21
515.6
  0
LINE
  8
0
 10
28.6575
 20
515.6
 11
27.1124
 21
516.632
  0
LINE
  8
0
 10
27.1124
 20
516.632
 11
26.08
 21
518.177
  0
LINE
  8
0
 10
26.08
 20
518.177
 11
25.7175
 21
520
  0
LINE
  8
0
 10
84.7575
 20
65
 11
85.12
 21
66.8225
  0
LINE
  8
0
 10
85.12
 20
66.8225
 11
86.1524
 21
68.3676
  0
LINE
  8
0
 10
86.1524
 20
68.3676
 11
87.6975
 21
69.4
  0
LINE
  8
0
 10
87.6975
 20
69.4
 11
89.52
 21
69.7625
  0
LINE
  8
0
 10
89.52
 20
69.7625
 11
91.3425
 21
69.4
  0
LINE
  8
0
 10
91.3425
 20
69.4
 11
92.8876
 21
68.3676
  0
LINE
  8
0
 10
92.8876
 20
68.3676
 11
93.92
 21
66.8225
  0
LINE
  8
0
 10
93.92
 20
66.8225
 11
94.2825
 21
65
  0
LINE
  8
0
 10
94.2825
 20
65
 11
93.92
 21
63.1775
  0
LINE
  8
0
 10
93.92
 20
63.1775
 11
92.8876
 21
61.6324
  0
LINE
  8
0
 10
92.8876
 20
61.6324
 11
91.3425
 21
60.6
  0
LINE
  8
0
 10
91.3425
 20
60.6
 11
89.52
 21
60.2375
  0
LINE
  8
0
 10
89.52
 20
60.2375
 11
87.6975
 21
60.6
  0
LINE
  8
0
 10
87.6975
 20
60.6
 11
86.1524
 21
61.6324
  0
LINE
  8
0
 10
86.1524
 20
61.6324
 11
85.12
 21
63.1775
  0
LINE
  8
0
 10
85.12
 20
63.1775
 11
84.7575
 21
65
  0
LINE
  8
0
 10
84.7575
 20
195
 11
85.12
 21
196.823
  0
LINE
  8
0
 10
85.12
 20
196.823
 11
86.1524
 21
198.368
  0
LINE
  8
0
 10
86.1524
 20
198.368
 11
87.6975
 21
199.4
  0
LINE
  8
0
 10
87.6975
 20
199.4
 11
89.52
 21
199.762
  0
LINE
  8
0
 10
89.52
 20
199.762
 11
91.3425
 21
199.4
  0
LINE
  8
0
 10
91.3425
 20
199.4
 11
92.8876
 21
198.368
  0
LINE
  8
0
 10
92.8876
 20
198.368
 11
93.92
 21
196.823
  0
LINE
  8
0
 10
93.92
 20
196.823
 11
94.2825
 21
195
  0
LINE
  8
0
 10
94.2825
 20
195
 11
93.92
 21
193.177
  0
LINE
  8
0
 10
93.92
 20
193.177
 11
92.8876
 21
191.632
  0
LINE
  8
0
 10
92.8876
 20
191.632
 11
91.3425
 21
190.6
  0
LINE
  8
0
 10
91.3425
 20
190.6
 11
89.52
 21
190.237
  0
LINE
  8
0
 10
89.52
 20
190.237
 11
87.6975
 21
190.6
  0
LINE
  8
0
 10
87.6975
 20
190.6
 11
86.1524
 21
191.632
  0
LINE
  8
0
 10
86.1524
 20
191.632
 11
85.12
 21
193.177
  0
LINE
  8
0
 10
85.12
 20
193.177
 11
84.7575
 21
195
  0
LINE
  8
0
 10
84.7575
 20
325
 11
85.12
 21
326.823
  0
LINE
  8
0
 10
85.12
 20
326.823
 11
86.1524
 21
328.368
  0
LINE
  8
0
 10
86.1524
 20
328.368
 11
87.6975
 21
329.4
  0
LINE
  8
0
 10
87.6975
 20
329.4
 11
89.52
 21
329.762
  0
LINE
  8
0
 10
89.52
 20
329.762
 11
91.3425
 21
329.4
  0
LINE
  8
0
 10
91.3425
 20
329.4
 11
92.8876
 21
328.368
  0
LINE
  8
0
 10
92.8876
 20
328.368
 11
93.92
 21
326.823
  0
LINE
  8
0
 10
93.92
 20
326.823
 11
94.2825
 21
325
  0
LINE
  8
0
 10
94.2825
 20
325
 11
93.92
 21
323.177
  0
LINE
  8
0
 10
93.92
 20
323.177
 11
92.8876
 21
321.632
  0
LINE
  8
0
 10
92.8876
 20
321.632
 11
91.3425
 21
320.6
  0
LINE
  8
0
 10
91.3425
 20
320.6
 11
89.52
 21
320.237
  0
LINE
  8
0
 10
89.52
 20
320.237
 11
87.6975
 21
320.6
  0
LINE
  8
0
 10
87.6975
 20
320.6
 11
86.1524
 21
321.632
  0
LINE
  8
0
 10
86.1524
 20
321.632
 11
85.12
 21
323.177
  0
LINE
  8
0
 10
85.12
 20
323.177
 11
84.7575
 21
325
  0
LINE
  8
0
 10
84.7575
 20
455
 11
85.12
 21
456.823
  0
LINE
  8
0
 10
85.12
 20
456.823
 11
86.1524
 21
458.368
  0
LINE
  8
0
 10
86.1524
 20
458.368
 11
87.6975
 21
459.4
  0
LINE
  8
0
 10
87.6975
 20
459.4
 11
89.52
 21
459.762
  0
LINE
  8
0
 10
89.52
 20
459.762
 11
91.3425
 21
459.4
  0
LINE
  8
0
 10
91.3425
 20
459.4
 11
92.8876
 21
458.368
  0
LINE
  8
0
 10
92.8876
 20
458.368
 11
93.92
 21
456.823
  0
LINE
  8
0
 10
93.92
 20
456.823
 11
94.2825
 21
455
  0
LINE
  8
0
 10
94.2825
 20
455
 11
93.92
 21
453.177
  0
LINE
  8
0
 10
93.92
 20
453.177
 11
92.8876
 21
451.632
  0
LINE
  8
0
 10
92.8876
 20
451.632
 11
91.3425
 21
450.6
  0
LINE
  8
0
 10
91.3425
 20
450.6
 11
89.52
 21
450.237
  0
LINE
  8
0
 10
89.52
 20
450.237
 11
87.6975
 21
450.6
  0
LINE
  8
0
 10
87.6975
 20
450.6
 11
86.1524
 21
451.632
  0
LINE
  8
0
 10
86.1524
 20
451.632
 11
85.12
 21
453.177
  0
LINE
  8
0
 10
85.12
 20
453.177
 11
84.7575
 21
455
  0
LINE
  8
0
 10
158.418
 20
130
 11
158.78
 21
131.823
  0
LINE
  8
0
 10
158.78
 20
131.823
 11
159.812
 21
133.368
  0
LINE
  8
0
 10
159.812
 20
133.368
 11
161.357
 21
134.4
  0
LINE
  8
0
 10
161.357
 20
134.4
 11
163.18
 21
134.762
  0
LINE
  8
0
 10
163.18
 20
134.762
 11
165.003
 21
134.4
  0
LINE
  8
0
 10
165.003
 20
134.4
 11
166.548
 21
133.368
  0
LINE
  8
0
 10
166.548
 20
133.368
 11
167.58
 21
131.823
  0
LINE
  8
0
 10
167.58
 20
131.823
 11
167.943
 21
130
  0
LINE
  8
0
 10
167.943
 20
130
 11
167.58
 21
128.177
  0
LINE
  8
0
 10
167.58
 20
128.177
 11
166.548
 21
126.632
  0
LINE
  8
0
 10
166.548
 20
126.632
 11
165.003
 21
125.6
  0
LINE
  8
0
 10
165.003
 20
125.6
 11
163.18
 21
125.237
  0
LINE
  8
0
 10
163.18
 20
125.237
 11
161.357
 21
125.6
  0
LINE
  8
0
 10
161.357
 20
125.6
 11
159.812
 21
126.632
  0
LINE
  8
0
 10
159.812
 20
126.632
 11
158.78
 21
128.177
  0
LINE
  8
0
 10
158.78
 20
128.177
 11
158.418
 21
130
  0
LINE
  8
0
 10
158.418
 20
260
 11
158.78
 21
261.823
  0
LINE
  8
0
 10
158.78
 20
261.823
 11
159.812
 21
263.368
  0
LINE
  8
0
 10
159.812
 20
263.368
 11
161.357
 21
264.4
  0
LINE
  8
0
 10
161.357
 20
264.4
 11
163.18
 21
264.762
  0
LINE
  8
0
 10
163.18
 20
264.762
 11
165.003
 21
264.4
  0
LINE
  8
0
 10
165.003
 20
264.4
 11
166.548
 21
263.368
  0
LINE
  8
0
 10
166.548
 20
263.368
 11
167.58
 21
261.823
  0
LINE
  8
0
 10
167.58
 20
261.823
 11
167.943
 21
260
  0
LINE
  8
0
 10
167.943
 20
260
 11
167.58
 21
258.177
  0
LINE
  8
0
 10
167.58
 20
258.177
 11
166.548
 21
256.632
  0
LINE
  8
0
 10
166.548
 20
256.632
 11
165.003
 21
255.6
  0
LINE
  8
0
 10
165.003
 20
255.6
 11
163.18
 21
255.237
  0
LINE
  8
0
 10
163.18
 20
255.237
 11
161.357
 21
255.6
  0
LINE
  8
0
 10
161.357
 20
255.6
 11
159.812
 21
256.632
  0
LINE
  8
0
 10
159.812
 20
256.632
 11
158.78
 21
258.177
  0
LINE
  8
0
 10
158.78
 20
258.177
 11
158.418
 21
260
  0
LINE
  8
0
 10
158.418
 20
390
 11
158.78
 21
391.823
  0
LINE
  8
0
 10
158.78
 20
391.823
 11
159.812
 21
393.368
  0
LINE
  8
0
 10
159.812
 20
393.368
 11
161.357
 21
394.4
  0
LINE
  8
0
 10
161.357
 20
394.4
 11
163.18
 21
394.762
  0
LINE
  8
0
 10
163.18
 20
394.762
 11
165.003
 21
394.4
  0
LINE
  8
0
 10
165.003
 20
394.4
 11
166.548
 21
393.368
  0
LINE
  8
0
 10
166.548
 20
393.368
 11
167.58
 21
391.823
  0
LINE
  8
0
 10
167.58
 20
391.823
 11
167.943
 21
390
  0
LINE
  8
0
 10
167.943
 20
390
 11
167.58
 21
388.177
  0
LINE
  8
0
 10
167.58
 20
388.177
 11
166.548
 21
386.632
  0
LINE
  8
0
 10
166.548
 20
386.632
 11
165.003
 21
385.6
  0
LINE
  8
0
 10
165.003
 20
385.6
 11
163.18
 21
385.237
  0
LINE
  8
0
 10
163.18
 20
385.237
 11
161.357
 21
385.6
  0
LINE
  8
0
 10
161.357
 20
385.6
 11
159.812
 21
386.632
  0
LINE
  8
0
 10
159.812
 20
386.632
 11
158.78
 21
388.177
  0
LINE
  8
0
 10
158.78
 20
388.177
 11
158.418
 21
390
  0
LINE
  8
0
 10
158.418
 20
520
 11
158.78
 21
521.823
  0
LINE
  8
0
 10
158.78
 20
521.823
 11
159.812
 21
523.368
  0
LINE
  8
0
 10
159.812
 20
523.368
 11
161.357
 21
524.4
  0
LINE
  8
0
 10
161.357
 20
524.4
 11
163.18
 21
524.762
  0
LINE
  8
0
 10
163.18
 20
524.762
 11
165.003
 21
524.4
  0
LINE
  8
0
 10
165.003
 20
524.4
 11
166.548
 21
523.368
  0
LINE
  8
0
 10
166.548
 20
523.368
 11
167.58
 21
521.823
  0
LINE
  8
0
 10
167.58
 20
521.823
 11
167.943
 21
520
  0
LINE
  8
0
 10
167.943
 20
520
 11
167.58
 21
518.177
  0
LINE
  8
0
 10
167.58
 20
518.177
 11
166.548
 21
516.632
  0
LINE
  8
0
 10
166.548
 20
516.632
 11
165.003
 21
515.6
  0
LINE
  8
0
 10
165.003
 20
515.6
 11
163.18
 21
515.237
  0
LINE
  8
0
 10
163.18
 20
515.237
 11
161.357
 21
515.6
  0
LINE
  8
0
 10
161.357
 20
515.6
 11
159.812
 21
516.632
  0
LINE
  8
0
 10
159.812
 20
516.632
 11
158.78
 21
518.177
  0
LINE
  8
0
 10
158.78
 20
518.177
 11
158.418
 21
520
  0
LINE
  8
0
 10
852.057
 20
65
 11
852.42
 21
66.8225
  0
LINE
  8
0
 10
852.42
 20
66.8225
 11
853.452
 21
68.3676
  0
LINE
  8
0
 10
853.452
 20
68.3676
 11
854.997
 21
69.4
  0
LINE
  8
0
 10
854.997
 20
69.4
 11
856.82
 21
69.7625
  0
LINE
  8
0
 10
856.82
 20
69.7625
 11
858.643
 21
69.4
  0
LINE
  8
0
 10
858.643
 20
69.4
 11
860.188
 21
68.3676
  0
LINE
  8
0
 10
860.188
 20
68.3676
 11
861.22
 21
66.8225
  0
LINE
  8
0
 10
861.22
 20
66.8225
 11
861.582
 21
65
  0
LINE
  8
0
 10
861.582
 20
65
 11
861.22
 21
63.1775
  0
LINE
  8
0
 10
861.22
 20
63.1775
 11
860.188
 21
61.6324
  0
LINE
  8
0
 10
860.188
 20
61.6324
 11
858.643
 21
60.6
  0
LINE
  8
0
 10
858.643
 20
60.6
 11
856.82
 21
60.2375
  0
LINE
  8
0
 10
856.82
 20
60.2375
 11
854.997
 21
60.6
  0
LINE
  8
0
 10
854.997
 20
60.6
 11
853.452
 21
61.6324
  0
LINE
  8
0
 10
853.452
 20
61.6324
 11
852.42
 21
63.1775
  0
LINE
  8
0
 10
852.42
 20
63.1775
 11
852.057
 21
65
  0
LINE
  8
0
 10
852.057
 20
195
 11
852.42
 21
196.823
  0
LINE
  8
0
 10
852.42
 20
196.823
 11
853.452
 21
198.368
  0
LINE
  8
0
 10
853.452
 20
198.368
 11
854.997
 21
199.4
  0
LINE
  8
0
 10
854.997
 20
199.4
 11
856.82
 21
199.762
  0
LINE
  8
0
 10
856.82
 20
199.762
 11
858.643
 21
199.4
  0
LINE
  8
0
 10
858.643
 20
199.4
 11
860.188
 21
198.368
  0
LINE
  8
0
 10
860.188
 20
198.368
 11
861.22
 21
196.823
  0
LINE
  8
0
 10
861.22
 20
196.823
 11
861.582
 21
195
  0
LINE
  8
0
 10
861.582
 20
195
 11
861.22
 21
193.177
  0
LINE
  8
0
 10
861.22
 20
193.177
 11
860.188
 21
191.632
  0
LINE
  8
0
 10
860.188
 20
191.632
 11
858.643
 21
190.6
  0
LINE
  8
0
 10
858.643
 20
190.6
 11
856.82
 21
190.237
  0
LINE
  8
0
 10
856.82
 20
190.237
 11
854.997
 21
190.6
  0
LINE
  8
0
 10
854.997
 20
190.6
 11
853.452
 21
191.632
  0
LINE
  8
0
 10
853.452
 20
191.632
 11
852.42
 21
193.177
  0
LINE
  8
0
 10
852.42
 20
193.177
 11
852.057
 21
195
  0
LINE
  8
0
 10
852.057
 20
325
 11
852.42
 21
326.823
  0
LINE
  8
0
 10
852.42
 20
326.823
 11
853.452
 21
328.368
  0
LINE
  8
0
 10
853.452
 20
328.368
 11
854.997
 21
329.4
  0
LINE
  8
0
 10
854.997
 20
329.4
 11
856.82
 21
329.762
  0
LINE
  8
0
 10
856.82
 20
329.762
 11
858.643
 21
329.4
  0
LINE
  8
0
 10
858.643
 20
329.4
 11
860.188
 21
328.368
  0
LINE
  8
0
 10
860.188
 20
328.368
 11
861.22
 21
326.823
  0
LINE
  8
0
 10
861.22
 20
326.823
 11
861.582
 21
325
  0
LINE
  8
0
 10
861.582
 20
325
 11
861.22
 21
323.177
  0
LINE
  8
0
 10
861.22
 20
323.177
 11
860.188
 21
321.632
  0
LINE
  8
0
 10
860.188
 20
321.632
 11
858.643
 21
320.6
  0
LINE
  8
0
 10
858.643
 20
320.6
 11
856.82
 21
320.237
  0
LINE
  8
0
 10
856.82
 20
320.237
 11
854.997
 21
320.6
  0
LINE
  8
0
 10
854.997
 20
320.6
 11
853.452
 21
321.632
  0
LINE
  8
0
 10
853.452
 20
321.632
 11
852.42
 21
323.177
  0
LINE
  8
0
 10
852.42
 20
323.177
 11
852.057
 21
325
  0
LINE
  8
0
 10
852.057
 20
455
 11
852.42
 21
456.823
  0
LINE
  8
0
 10
852.42
 20
456.823
 11
853.452
 21
458.368
  0
LINE
  8
0
 10
853.452
 20
458.368
 11
854.997
 21
459.4
  0
LINE
  8
0
 10
854.997
 20
459.4
 11
856.82
 21
459.762
  0
LINE
  8
0
 10
856.82
 20
459.762
 11
858.643
 21
459.4
  0
LINE
  8
0
 10
858.643
 20
459.4
 11
860.188
 21
458.368
  0
LINE
  8
0
 10
860.188
 20
458.368
 11
861.22
 21
456.823
  0
LINE
  8
0
 10
861.22
 20
456.823
 11
861.582
 21
455
  0
LINE
  8
0
 10
861.582
 20
455
 11
861.22
 21
453.177
  0
LINE
  8
0
 10
861.22
 20
453.177
 11
860.188
 21
451.632
  0
LINE
  8
0
 10
860.188
 20
451.632
 11
858.643
 21
450.6
  0
LINE
  8
0
 10
858.643
 20
450.6
 11
856.82
 21
450.237
  0
LINE
  8
0
 10
856.82
 20
450.237
 11
854.997
 21
450.6
  0
LINE
  8
0
 10
854.997
 20
450.6
 11
853.452
 21
451.632
  0
LINE
  8
0
 10
853.452
 20
451.632
 11
852.42
 21
453.177
  0
LINE
  8
0
 10
852.42
 20
453.177
 11
852.057
 21
455
  0
LINE
  8
0
 10
925.717
 20
130
 11
926.08
 21
131.823
  0
LINE
  8
0
 10
926.08
 20
131.823
 11
927.112
 21
133.368
  0
LINE
  8
0
 10
927.112
 20
133.368
 11
928.657
 21
134.4
  0
LINE
  8
0
 10
928.657
 20
134.4
 11
930.48
 21
134.762
  0
LINE
  8
0
 10
930.48
 20
134.762
 11
932.303
 21
134.4
  0
LINE
  8
0
 10
932.303
 20
134.4
 11
933.848
 21
133.368
  0
LINE
  8
0
 10
933.848
 20
133.368
 11
934.88
 21
131.823
  0
LINE
  8
0
 10
934.88
 20
131.823
 11
935.242
 21
130
  0
LINE
  8
0
 10
935.242
 20
130
 11
934.88
 21
128.177
  0
LINE
  8
0
 10
934.88
 20
128.177
 11
933.848
 21
126.632
  0
LINE
  8
0
 10
933.848
 20
126.632
 11
932.303
 21
125.6
  0
LINE
  8
0
 10
932.303
 20
125.6
 11
930.48
 21
125.237
  0
LINE
  8
0
 10
930.48
 20
125.237
 11
928.657
 21
125.6
  0
LINE
  8
0
 10
928.657
 20
125.6
 11
927.112
 21
126.632
  0
LINE
  8
0
 10
927.112
 20
126.632
 11
926.08
 21
128.177
  0
LINE
  8
0
 10
926.08
 20
128.177
 11
925.717
 21
130
  0
LINE
  8
0
 10
925.717
 20
260
 11
926.08
 21
261.823
  0
LINE
  8
0
 10
926.08
 20
261.823
 11
927.112
 21
263.368
  0
LINE
  8
0
 10
927.112
 20
263.368
 11
928.657
 21
264.4
  0
LINE
  8
0
 10
928.657
 20
264.4
 11
930.48
 21
264.762
  0
LINE
  8
0
 10
930.48
 20
264.762
 11
932.303
 21
264.4
  0
LINE
  8
0
 10
932.303
 20
264.4
 11
933.848
 21
263.368
  0
LINE
  8
0
 10
933.848
 20
263.368
 11
934.88
 21
261.823
  0
LINE
  8
0
 10
934.88
 20
261.823
 11
935.242
 21
260
  0
LINE
  8
0
 10
935.242
 20
260
 11
934.88
 21
258.177
  0
LINE
  8
0
 10
934.88
 20
258.177
 11
933.848
 21
256.632
  0
LINE
  8
0
 10
933.848
 20
256.632
 11
932.303
 21
255.6
  0
LINE
  8
0
 10
932.303
 20
255.6
 11
930.48
 21
255.237
  0
LINE
  8
0
 10
930.48
 20
255.237
 11
928.657
 21
255.6
  0
LINE
  8
0
 10
928.657
 20
255.6
 11
927.112
 21
256.632
  0
LINE
  8
0
 10
927.112
 20
256.632
 11
926.08
 21
258.177
  0
LINE
  8
0
 10
926.08
 20
258.177
 11
925.717
 21
260
  0
LINE
  8
0
 10
925.717
 20
390
 11
926.08
 21
391.823
  0
LINE
  8
0
 10
926.08
 20
391.823
 11
927.112
 21
393.368
  0
LINE
  8
0
 10
927.112
 20
393.368
 11
928.657
 21
394.4
  0
LINE
  8
0
 10
928.657
 20
394.4
 11
930.48
 21
394.762
  0
LINE
  8
0
 10
930.48
 20
394.762
 11
932.303
 21
394.4
  0
LINE
  8
0
 10
932.303
 20
394.4
 11
933.848
 21
393.368
  0
LINE
  8
0
 10
933.848
 20
393.368
 11
934.88
 21
391.823
  0
LINE
  8
0
 10
934.88
 20
391.823
 11
935.242
 21
390
  0
LINE
  8
0
 10
935.242
 20
390
 11
934.88
 21
388.177
  0
LINE
  8
0
 10
934.88
 20
388.177
 11
933.848
 21
386.632
  0
LINE
  8
0
 10
933.848
 20
386.632
 11
932.303
 21
385.6
  0
LINE
  8
0
 10
932.303
 20
385.6
 11
930.48
 21
385.237
  0
LINE
  8
0
 10
930.48
 20
385.237
 11
928.657
 21
385.6
  0
LINE
  8
0
 10
928.657
 20
385.6
 11
927.112
 21
386.632
  0
LINE
  8
0
 10
927.112
 20
386.632
 11
926.08
 21
388.177
  0
LINE
  8
0
 10
926.08
 20
388.177
 11
925.717
 21
390
  0
LINE
  8
0
 10
925.717
 20
520
 11
926.08
 21
521.823
  0
LINE
  8
0
 10
926.08
 20
521.823
 11
927.112
 21
523.368
  0
LINE
  8
0
 10
927.112
 20
523.368
 11
928.657
 21
524.4
  0
LINE
  8
0
 10
928.657
 20
524.4
 11
930.48
 21
524.762
  0
LINE
  8
0
 10
930.48
 20
524.762
 11
932.303
 21
524.4
  0
LINE
  8
0
 10
932.303
 20
524.4
 11
933.848
 21
523.368
  0
LINE
  8
0
 10
933.848
 20
523.368
 11
934.88
 21
521.823
  0
LINE
  8
0
 10
934.88
 20
521.823
 11
935.242
 21
520
  0
LINE
  8
0
 10
935.242
 20
520
 11
934.88
 21
518.177
  0
LINE
  8
0
 10
934.88
 20
518.177
 11
933.848
 21
516.632
  0
LINE
  8
0
 10
933.848
 20
516.632
 11
932.303
 21
515.6
  0
LINE
  8
0
 10
932.303
 20
515.6
 11
930.48
 21
515.237
  0
LINE
  8
0
 10
930.48
 20
515.237
 11
928.657
 21
515.6
  0
LINE
  8
0
 10
928.657
 20
515.6
 11
927.112
 21
516.632
  0
LINE
  8
0
 10
927.112
 20
516.632
 11
926.08
 21
518.177
  0
LINE
  8
0
 10
926.08
 20
518.177
 11
925.717
 21
520
  0
LINE
  8
0
 10
984.757
 20
65
 11
985.12
 21
66.8225
  0
LINE
  8
0
 10
985.12
 20
66.8225
 11
986.152
 21
68.3676
  0
LINE
  8
0
 10
986.152
 20
68.3676
 11
987.697
 21
69.4
  0
LINE
  8
0
 10
987.697
 20
69.4
 11
989.52
 21
69.7625
  0
LINE
  8
0
 10
989.52
 20
69.7625
 11
991.343
 21
69.4
  0
LINE
  8
0
 10
991.343
 20
69.4
 11
992.888
 21
68.3676
  0
LINE
  8
0
 10
992.888
 20
68.3676
 11
993.92
 21
66.8225
  0
LINE
  8
0
 10
993.92
 20
66.8225
 11
994.282
 21
65
  0
LINE
  8
0
 10
994.282
 20
65
 11
993.92
 21
63.1775
  0
LINE
  8
0
 10
993.92
 20
63.1775
 11
992.888
 21
61.6324
  0
LINE
  8
0
 10
992.888
 20
61.6324
 11
991.343
 21
60.6
  0
LINE
  8
0
 10
991.343
 20
60.6
 11
989.52
 21
60.2375
  0
LINE
  8
0
 10
989.52
 20
60.2375
 11
987.697
 21
60.6
  0
LINE
  8
0
 10
987.697
 20
60.6
 11
986.152
 21
61.6324
  0
LINE
  8
0
 10
986.152
 20
61.6324
 11
985.12
 21
63.1775
  0
LINE
  8
0
 10
985.12
 20
63.1775
 11
984.757
 21
65
  0
LINE
  8
0
 10
984.757
 20
195
 11
985.12
 21
196.823
  0
LINE
  8
0
 10
985.12
 20
196.823
 11
986.152
 21
198.368
  0
LINE
  8
0
 10
986.152
 20
198.368
 11
987.697
 21
199.4
  0
LINE
  8
0
 10
987.697
 20
199.4
 11
989.52
 21
199.762
  0
LINE
  8
0
 10
989.52
 20
199.762
 11
991.343
 21
199.4
  0
LINE
  8
0
 10
991.343
 20
199.4
 11
992.888
 21
198.368
  0
LINE
  8
0
 10
992.888
 20
198.368
 11
993.92
 21
196.823
  0
LINE
  8
0
 10
993.92
 20
196.823
 11
994.282
 21
195
  0
LINE
  8
0
 10
994.282
 20
195
 11
993.92
 21
193.177
  0
LINE
  8
0
 10
993.92
 20
193.177
 11
992.888
 21
191.632
  0
LINE
  8
0
 10
992.888
 20
191.632
 11
991.343
 21
190.6
  0
LINE
  8
0
 10
991.343
 20
190.6
 11
989.52
 21
190.237
  0
LINE
  8
0
 10
989.52
 20
190.237
 11
987.697
 21
190.6
  0
LINE
  8
0
 10
987.697
 20
190.6
 11
986.152
 21
191.632
  0
LINE
  8
0
 10
986.152
 20
191.632
 11
985.12
 21
193.177
  0
LINE
  8
0
 10
985.12
 20
193.177
 11
984.757
 21
195
  0
LINE
  8
0
 10
984.757
 20
325
 11
985.12
 21
326.823
  0
LINE
  8
0
 10
985.12
 20
326.823
 11
986.152
 21
328.368
  0
LINE
  8
0
 10
986.152
 20
328.368
 11
987.697
 21
329.4
  0
LINE
  8
0
 10
987.697
 20
329.4
 11
989.52
 21
329.762
  0
LINE
  8
0
 10
989.52
 20
329.762
 11
991.343
 21
329.4
  0
LINE
  8
0
 10
991.343
 20
329.4
 11
992.888
 21
328.368
  0
LINE
  8
0
 10
992.888
 20
328.368
 11
993.92
 21
326.823
  0
LINE
  8
0
 10
993.92
 20
326.823
 11
994.282
 21
325
  0
LINE
  8
0
 10
994.282
 20
325
 11
993.92
 21
323.177
  0
LINE
  8
0
 10
993.92
 20
323.177
 11
992.888
 21
321.632
  0
LINE
  8
0
 10
992.888
 20
321.632
 11
991.343
 21
320.6
  0
LINE
  8
0
 10
991.343
 20
320.6
 11
989.52
 21
320.237
  0
LINE
  8
0
 10
989.52
 20
320.237
 11
987.697
 21
320.6
  0
LINE
  8
0
 10
987.697
 20
320.6
 11
986.152
 21
321.632
  0
LINE
  8
0
 10
986.152
 20
321.632
 11
985.12
 21
323.177
  0
LINE
  8
0
 10
985.12
 20
323.177
 11
984.757
 21
325
  0
LINE
  8
0
 10
984.757
 20
455
 11
985.12
 21
456.823
  0
LINE
  8
0
 10
985.12
 20
456.823
 11
986.152
 21
458.368
  0
LINE
  8
0
 10
986.152
 20
458.368
 11
987.697
 21
459.4
  0
LINE
  8
0
 10
987.697
 20
459.4
 11
989.52
 21
459.762
  0
LINE
  8
0
 10
989.52
 20
459.762
 11
991.343
 21
459.4
  0
LINE
  8
0
 10
991.343
 20
459.4
 11
992.888
 21
458.368
  0
LINE
  8
0
 10
992.888
 20
458.368
 11
993.92
 21
456.823
  0
LINE
  8
0
 10
993.92
 20
456.823
 11
994.282
 21
455
  0
LINE
  8
0
 10
994.282
 20
455
 11
993.92
 21
453.177
  0
LINE
  8
0
 10
993.92
 20
453.177
 11
992.888
 21
451.632
  0
LINE
  8
0
 10
992.888
 20
451.632
 11
991.343
 21
450.6
  0
LINE
  8
0
 10
991.343
 20
450.6
 11
989.52
 21
450.237
  0
LINE
  8
0
 10
989.52
 20
450.237
 11
987.697
 21
450.6
  0
LINE
  8
0
 10
987.697
 20
450.6
 11
986.152
 21
451.632
  0
LINE
  8
0
 10
986.152
 20
451.632
 11
985.12
 21
453.177
  0
LINE
  8
0
 10
985.12
 20
453.177
 11
984.757
 21
455
  0
ENDSEC
  0
SECTION
  2
OBJECTS
  0
DICTIONARY
  0
ENDSEC
  0
EOF
