  0
SECTION
  2
BLOCKS
  0
ENDSEC
  0
SECTION
  2
ENTITIES
  0
LINE
  8
0
 10
3.8147e-07
 20
-3.8147e-07
 11
481.55
 21
-3.8147e-07
  0
LINE
  8
0
 10
481.55
 20
-3.8147e-07
 11
481.55
 21
260.35
  0
LINE
  8
0
 10
481.55
 20
260.35
 11
3.8147e-07
 21
260.35
  0
LINE
  8
0
 10
3.8147e-07
 20
260.35
 11
3.8147e-07
 21
-3.8147e-07
  0
LINE
  8
0
 10
25.4
 20
79.375
 11
25.8834
 21
81.805
  0
LINE
  8
0
 10
25.8834
 20
81.805
 11
27.2599
 21
83.8651
  0
LINE
  8
0
 10
27.2599
 20
83.8651
 11
29.32
 21
85.2416
  0
LINE
  8
0
 10
29.32
 20
85.2416
 11
31.75
 21
85.725
  0
LINE
  8
0
 10
31.75
 20
85.725
 11
34.18
 21
85.2416
  0
LINE
  8
0
 10
34.18
 20
85.2416
 11
36.2401
 21
83.8651
  0
LINE
  8
0
 10
36.2401
 20
83.8651
 11
37.6166
 21
81.805
  0
LINE
  8
0
 10
37.6166
 20
81.805
 11
38.1
 21
79.375
  0
LINE
  8
0
 10
38.1
 20
79.375
 11
37.6166
 21
76.945
  0
LINE
  8
0
 10
37.6166
 20
76.945
 11
36.2401
 21
74.8849
  0
LINE
  8
0
 10
36.2401
 20
74.8849
 11
34.18
 21
73.5084
  0
LINE
  8
0
 10
34.18
 20
73.5084
 11
31.75
 21
73.025
  0
LINE
  8
0
 10
31.75
 20
73.025
 11
29.32
 21
73.5084
  0
LINE
  8
0
 10
29.32
 20
73.5084
 11
27.2599
 21
74.8849
  0
LINE
  8
0
 10
27.2599
 20
74.8849
 11
25.8834
 21
76.945
  0
LINE
  8
0
 10
25.8834
 20
76.945
 11
25.4
 21
79.375
  0
LINE
  8
0
 10
25.4
 20
180.975
 11
25.8834
 21
183.405
  0
LINE
  8
0
 10
25.8834
 20
183.405
 11
27.2599
 21
185.465
  0
LINE
  8
0
 10
27.2599
 20
185.465
 11
29.32
 21
186.842
  0
LINE
  8
0
 10
29.32
 20
186.842
 11
31.75
 21
187.325
  0
LINE
  8
0
 10
31.75
 20
187.325
 11
34.18
 21
186.842
  0
LINE
  8
0
 10
34.18
 20
186.842
 11
36.2401
 21
185.465
  0
LINE
  8
0
 10
36.2401
 20
185.465
 11
37.6166
 21
183.405
  0
LINE
  8
0
 10
37.6166
 20
183.405
 11
38.1
 21
180.975
  0
LINE
  8
0
 10
38.1
 20
180.975
 11
37.6166
 21
178.545
  0
LINE
  8
0
 10
37.6166
 20
178.545
 11
36.2401
 21
176.485
  0
LINE
  8
0
 10
36.2401
 20
176.485
 11
34.18
 21
175.108
  0
LINE
  8
0
 10
34.18
 20
175.108
 11
31.75
 21
174.625
  0
LINE
  8
0
 10
31.75
 20
174.625
 11
29.32
 21
175.108
  0
LINE
  8
0
 10
29.32
 20
175.108
 11
27.2599
 21
176.485
  0
LINE
  8
0
 10
27.2599
 20
176.485
 11
25.8834
 21
178.545
  0
LINE
  8
0
 10
25.8834
 20
178.545
 11
25.4
 21
180.975
  0
LINE
  8
0
 10
443.45
 20
79.375
 11
443.933
 21
81.805
  0
LINE
  8
0
 10
443.933
 20
81.805
 11
445.31
 21
83.8651
  0
LINE
  8
0
 10
445.31
 20
83.8651
 11
447.37
 21
85.2416
  0
LINE
  8
0
 10
447.37
 20
85.2416
 11
449.8
 21
85.725
  0
LINE
  8
0
 10
449.8
 20
85.725
 11
452.23
 21
85.2416
  0
LINE
  8
0
 10
452.23
 20
85.2416
 11
454.29
 21
83.8651
  0
LINE
  8
0
 10
454.29
 20
83.8651
 11
455.667
 21
81.805
  0
LINE
  8
0
 10
455.667
 20
81.805
 11
456.15
 21
79.375
  0
LINE
  8
0
 10
456.15
 20
79.375
 11
455.667
 21
76.945
  0
LINE
  8
0
 10
455.667
 20
76.945
 11
454.29
 21
74.8849
  0
LINE
  8
0
 10
454.29
 20
74.8849
 11
452.23
 21
73.5084
  0
LINE
  8
0
 10
452.23
 20
73.5084
 11
449.8
 21
73.025
  0
LINE
  8
0
 10
449.8
 20
73.025
 11
447.37
 21
73.5084
  0
LINE
  8
0
 10
447.37
 20
73.5084
 11
445.31
 21
74.8849
  0
LINE
  8
0
 10
445.31
 20
74.8849
 11
443.933
 21
76.945
  0
LINE
  8
0
 10
443.933
 20
76.945
 11
443.45
 21
79.375
  0
LINE
  8
0
 10
443.45
 20
180.975
 11
443.933
 21
183.405
  0
LINE
  8
0
 10
443.933
 20
183.405
 11
445.31
 21
185.465
  0
LINE
  8
0
 10
445.31
 20
185.465
 11
447.37
 21
186.842
  0
LINE
  8
0
 10
447.37
 20
186.842
 11
449.8
 21
187.325
  0
LINE
  8
0
 10
449.8
 20
187.325
 11
452.23
 21
186.842
  0
LINE
  8
0
 10
452.23
 20
186.842
 11
454.29
 21
185.465
  0
LINE
  8
0
 10
454.29
 20
185.465
 11
455.667
 21
183.405
  0
LINE
  8
0
 10
455.667
 20
183.405
 11
456.15
 21
180.975
  0
LINE
  8
0
 10
456.15
 20
180.975
 11
455.667
 21
178.545
  0
LINE
  8
0
 10
455.667
 20
178.545
 11
454.29
 21
176.485
  0
LINE
  8
0
 10
454.29
 20
176.485
 11
452.23
 21
175.108
  0
LINE
  8
0
 10
452.23
 20
175.108
 11
449.8
 21
174.625
  0
LINE
  8
0
 10
449.8
 20
174.625
 11
447.37
 21
175.108
  0
LINE
  8
0
 10
447.37
 20
175.108
 11
445.31
 21
176.485
  0
LINE
  8
0
 10
445.31
 20
176.485
 11
443.933
 21
178.545
  0
LINE
  8
0
 10
443.933
 20
178.545
 11
443.45
 21
180.975
  0
ENDSEC
  0
SECTION
  2
OBJECTS
  0
DICTIONARY
  0
ENDSEC
  0
EOF
