  0
SECTION
  2
BLOCKS
  0
ENDSEC
  0
SECTION
  2
ENTITIES
  0
LINE
  8
0
 10
0
 20
-3.8147e-07
 11
269.225
 21
-3.8147e-07
  0
LINE
  8
0
 10
269.225
 20
-3.8147e-07
 11
269.225
 21
127
  0
LINE
  8
0
 10
269.225
 20
127
 11
0
 21
127
  0
LINE
  8
0
 10
0
 20
127
 11
0
 21
-3.8147e-07
  0
LINE
  8
0
 10
20.6375
 20
25.4
 11
21
 21
27.2225
  0
LINE
  8
0
 10
21
 20
27.2225
 11
22.0324
 21
28.7676
  0
LINE
  8
0
 10
22.0324
 20
28.7676
 11
23.5775
 21
29.8
  0
LINE
  8
0
 10
23.5775
 20
29.8
 11
25.4
 21
30.1625
  0
LINE
  8
0
 10
25.4
 20
30.1625
 11
27.2225
 21
29.8
  0
LINE
  8
0
 10
27.2225
 20
29.8
 11
28.7676
 21
28.7676
  0
LINE
  8
0
 10
28.7676
 20
28.7676
 11
29.8
 21
27.2225
  0
LINE
  8
0
 10
29.8
 20
27.2225
 11
30.1625
 21
25.4
  0
LINE
  8
0
 10
30.1625
 20
25.4
 11
29.8
 21
23.5775
  0
LINE
  8
0
 10
29.8
 20
23.5775
 11
28.7676
 21
22.0324
  0
LINE
  8
0
 10
28.7676
 20
22.0324
 11
27.2225
 21
21
  0
LINE
  8
0
 10
27.2225
 20
21
 11
25.4
 21
20.6375
  0
LINE
  8
0
 10
25.4
 20
20.6375
 11
23.5775
 21
21
  0
LINE
  8
0
 10
23.5775
 20
21
 11
22.0324
 21
22.0324
  0
LINE
  8
0
 10
22.0324
 20
22.0324
 11
21
 21
23.5775
  0
LINE
  8
0
 10
21
 20
23.5775
 11
20.6375
 21
25.4
  0
LINE
  8
0
 10
20.6375
 20
101.6
 11
21
 21
103.423
  0
LINE
  8
0
 10
21
 20
103.423
 11
22.0324
 21
104.968
  0
LINE
  8
0
 10
22.0324
 20
104.968
 11
23.5775
 21
106
  0
LINE
  8
0
 10
23.5775
 20
106
 11
25.4
 21
106.362
  0
LINE
  8
0
 10
25.4
 20
106.362
 11
27.2225
 21
106
  0
LINE
  8
0
 10
27.2225
 20
106
 11
28.7676
 21
104.968
  0
LINE
  8
0
 10
28.7676
 20
104.968
 11
29.8
 21
103.423
  0
LINE
  8
0
 10
29.8
 20
103.423
 11
30.1625
 21
101.6
  0
LINE
  8
0
 10
30.1625
 20
101.6
 11
29.8
 21
99.7775
  0
LINE
  8
0
 10
29.8
 20
99.7775
 11
28.7676
 21
98.2324
  0
LINE
  8
0
 10
28.7676
 20
98.2324
 11
27.2225
 21
97.2
  0
LINE
  8
0
 10
27.2225
 20
97.2
 11
25.4
 21
96.8375
  0
LINE
  8
0
 10
25.4
 20
96.8375
 11
23.5775
 21
97.2
  0
LINE
  8
0
 10
23.5775
 20
97.2
 11
22.0324
 21
98.2324
  0
LINE
  8
0
 10
22.0324
 20
98.2324
 11
21
 21
99.7775
  0
LINE
  8
0
 10
21
 20
99.7775
 11
20.6375
 21
101.6
  0
LINE
  8
0
 10
89.8375
 20
25.4
 11
90.2
 21
27.2225
  0
LINE
  8
0
 10
90.2
 20
27.2225
 11
91.2324
 21
28.7676
  0
LINE
  8
0
 10
91.2324
 20
28.7676
 11
92.7775
 21
29.8
  0
LINE
  8
0
 10
92.7775
 20
29.8
 11
94.6
 21
30.1625
  0
LINE
  8
0
 10
94.6
 20
30.1625
 11
96.4225
 21
29.8
  0
LINE
  8
0
 10
96.4225
 20
29.8
 11
97.9676
 21
28.7676
  0
LINE
  8
0
 10
97.9676
 20
28.7676
 11
99
 21
27.2225
  0
LINE
  8
0
 10
99
 20
27.2225
 11
99.3625
 21
25.4
  0
LINE
  8
0
 10
99.3625
 20
25.4
 11
99
 21
23.5775
  0
LINE
  8
0
 10
99
 20
23.5775
 11
97.9676
 21
22.0324
  0
LINE
  8
0
 10
97.9676
 20
22.0324
 11
96.4225
 21
21
  0
LINE
  8
0
 10
96.4225
 20
21
 11
94.6
 21
20.6375
  0
LINE
  8
0
 10
94.6
 20
20.6375
 11
92.7775
 21
21
  0
LINE
  8
0
 10
92.7775
 20
21
 11
91.2324
 21
22.0324
  0
LINE
  8
0
 10
91.2324
 20
22.0324
 11
90.2
 21
23.5775
  0
LINE
  8
0
 10
90.2
 20
23.5775
 11
89.8375
 21
25.4
  0
LINE
  8
0
 10
89.8375
 20
101.6
 11
90.2
 21
103.423
  0
LINE
  8
0
 10
90.2
 20
103.423
 11
91.2324
 21
104.968
  0
LINE
  8
0
 10
91.2324
 20
104.968
 11
92.7775
 21
106
  0
LINE
  8
0
 10
92.7775
 20
106
 11
94.6
 21
106.362
  0
LINE
  8
0
 10
94.6
 20
106.362
 11
96.4225
 21
106
  0
LINE
  8
0
 10
96.4225
 20
106
 11
97.9676
 21
104.968
  0
LINE
  8
0
 10
97.9676
 20
104.968
 11
99
 21
103.423
  0
LINE
  8
0
 10
99
 20
103.423
 11
99.3625
 21
101.6
  0
LINE
  8
0
 10
99.3625
 20
101.6
 11
99
 21
99.7775
  0
LINE
  8
0
 10
99
 20
99.7775
 11
97.9676
 21
98.2324
  0
LINE
  8
0
 10
97.9676
 20
98.2324
 11
96.4225
 21
97.2
  0
LINE
  8
0
 10
96.4225
 20
97.2
 11
94.6
 21
96.8375
  0
LINE
  8
0
 10
94.6
 20
96.8375
 11
92.7775
 21
97.2
  0
LINE
  8
0
 10
92.7775
 20
97.2
 11
91.2324
 21
98.2324
  0
LINE
  8
0
 10
91.2324
 20
98.2324
 11
90.2
 21
99.7775
  0
LINE
  8
0
 10
90.2
 20
99.7775
 11
89.8375
 21
101.6
  0
LINE
  8
0
 10
153.338
 20
25.4
 11
153.7
 21
27.2225
  0
LINE
  8
0
 10
153.7
 20
27.2225
 11
154.732
 21
28.7676
  0
LINE
  8
0
 10
154.732
 20
28.7676
 11
156.277
 21
29.8
  0
LINE
  8
0
 10
156.277
 20
29.8
 11
158.1
 21
30.1625
  0
LINE
  8
0
 10
158.1
 20
30.1625
 11
159.923
 21
29.8
  0
LINE
  8
0
 10
159.923
 20
29.8
 11
161.468
 21
28.7676
  0
LINE
  8
0
 10
161.468
 20
28.7676
 11
162.5
 21
27.2225
  0
LINE
  8
0
 10
162.5
 20
27.2225
 11
162.863
 21
25.4
  0
LINE
  8
0
 10
162.863
 20
25.4
 11
162.5
 21
23.5775
  0
LINE
  8
0
 10
162.5
 20
23.5775
 11
161.468
 21
22.0324
  0
LINE
  8
0
 10
161.468
 20
22.0324
 11
159.923
 21
21
  0
LINE
  8
0
 10
159.923
 20
21
 11
158.1
 21
20.6375
  0
LINE
  8
0
 10
158.1
 20
20.6375
 11
156.277
 21
21
  0
LINE
  8
0
 10
156.277
 20
21
 11
154.732
 21
22.0324
  0
LINE
  8
0
 10
154.732
 20
22.0324
 11
153.7
 21
23.5775
  0
LINE
  8
0
 10
153.7
 20
23.5775
 11
153.338
 21
25.4
  0
LINE
  8
0
 10
153.338
 20
101.6
 11
153.7
 21
103.423
  0
LINE
  8
0
 10
153.7
 20
103.423
 11
154.732
 21
104.968
  0
LINE
  8
0
 10
154.732
 20
104.968
 11
156.277
 21
106
  0
LINE
  8
0
 10
156.277
 20
106
 11
158.1
 21
106.362
  0
LINE
  8
0
 10
158.1
 20
106.362
 11
159.923
 21
106
  0
LINE
  8
0
 10
159.923
 20
106
 11
161.468
 21
104.968
  0
LINE
  8
0
 10
161.468
 20
104.968
 11
162.5
 21
103.423
  0
LINE
  8
0
 10
162.5
 20
103.423
 11
162.863
 21
101.6
  0
LINE
  8
0
 10
162.863
 20
101.6
 11
162.5
 21
99.7775
  0
LINE
  8
0
 10
162.5
 20
99.7775
 11
161.468
 21
98.2324
  0
LINE
  8
0
 10
161.468
 20
98.2324
 11
159.923
 21
97.2
  0
LINE
  8
0
 10
159.923
 20
97.2
 11
158.1
 21
96.8375
  0
LINE
  8
0
 10
158.1
 20
96.8375
 11
156.277
 21
97.2
  0
LINE
  8
0
 10
156.277
 20
97.2
 11
154.732
 21
98.2324
  0
LINE
  8
0
 10
154.732
 20
98.2324
 11
153.7
 21
99.7775
  0
LINE
  8
0
 10
153.7
 20
99.7775
 11
153.338
 21
101.6
  0
LINE
  8
0
 10
239.062
 20
25.4
 11
239.425
 21
27.2225
  0
LINE
  8
0
 10
239.425
 20
27.2225
 11
240.457
 21
28.7676
  0
LINE
  8
0
 10
240.457
 20
28.7676
 11
242.002
 21
29.8
  0
LINE
  8
0
 10
242.002
 20
29.8
 11
243.825
 21
30.1625
  0
LINE
  8
0
 10
243.825
 20
30.1625
 11
245.648
 21
29.8
  0
LINE
  8
0
 10
245.648
 20
29.8
 11
247.193
 21
28.7676
  0
LINE
  8
0
 10
247.193
 20
28.7676
 11
248.225
 21
27.2225
  0
LINE
  8
0
 10
248.225
 20
27.2225
 11
248.588
 21
25.4
  0
LINE
  8
0
 10
248.588
 20
25.4
 11
248.225
 21
23.5775
  0
LINE
  8
0
 10
248.225
 20
23.5775
 11
247.193
 21
22.0324
  0
LINE
  8
0
 10
247.193
 20
22.0324
 11
245.648
 21
21
  0
LINE
  8
0
 10
245.648
 20
21
 11
243.825
 21
20.6375
  0
LINE
  8
0
 10
243.825
 20
20.6375
 11
242.002
 21
21
  0
LINE
  8
0
 10
242.002
 20
21
 11
240.457
 21
22.0324
  0
LINE
  8
0
 10
240.457
 20
22.0324
 11
239.425
 21
23.5775
  0
LINE
  8
0
 10
239.425
 20
23.5775
 11
239.062
 21
25.4
  0
LINE
  8
0
 10
239.062
 20
101.6
 11
239.425
 21
103.423
  0
LINE
  8
0
 10
239.425
 20
103.423
 11
240.457
 21
104.968
  0
LINE
  8
0
 10
240.457
 20
104.968
 11
242.002
 21
106
  0
LINE
  8
0
 10
242.002
 20
106
 11
243.825
 21
106.362
  0
LINE
  8
0
 10
243.825
 20
106.362
 11
245.648
 21
106
  0
LINE
  8
0
 10
245.648
 20
106
 11
247.193
 21
104.968
  0
LINE
  8
0
 10
247.193
 20
104.968
 11
248.225
 21
103.423
  0
LINE
  8
0
 10
248.225
 20
103.423
 11
248.588
 21
101.6
  0
LINE
  8
0
 10
248.588
 20
101.6
 11
248.225
 21
99.7775
  0
LINE
  8
0
 10
248.225
 20
99.7775
 11
247.193
 21
98.2324
  0
LINE
  8
0
 10
247.193
 20
98.2324
 11
245.648
 21
97.2
  0
LINE
  8
0
 10
245.648
 20
97.2
 11
243.825
 21
96.8375
  0
LINE
  8
0
 10
243.825
 20
96.8375
 11
242.002
 21
97.2
  0
LINE
  8
0
 10
242.002
 20
97.2
 11
240.457
 21
98.2324
  0
LINE
  8
0
 10
240.457
 20
98.2324
 11
239.425
 21
99.7775
  0
LINE
  8
0
 10
239.425
 20
99.7775
 11
239.062
 21
101.6
  0
ENDSEC
  0
SECTION
  2
OBJECTS
  0
DICTIONARY
  0
ENDSEC
  0
EOF
