  0
SECTION
  2
HEADER
  9
$ACADVER
  1
AC1009
  9
$INSUNITS
 70
4
  9
$MEASUREMENT
 70
1
  0
ENDSEC
  0
SECTION
  2
BLOCKS
  0
ENDSEC
  0
SECTION
  2
ENTITIES
  0
LINE
  8
0
 10
-3.8147e-07
 20
0
 11
1196.8
 21
0
  0
LINE
  8
0
 10
1196.8
 20
0
 11
1196.8
 21
1020
  0
LINE
  8
0
 10
1196.8
 20
1020
 11
-3.8147e-07
 21
1020
  0
LINE
  8
0
 10
-3.8147e-07
 20
1020
 11
-3.8147e-07
 21
0
  0
LINE
  8
0
 10
31.7375
 20
30.48
 11
32.1
 21
32.3025
  0
LINE
  8
0
 10
32.1
 20
32.3025
 11
33.1324
 21
33.8476
  0
LINE
  8
0
 10
33.1324
 20
33.8476
 11
34.6775
 21
34.88
  0
LINE
  8
0
 10
34.6775
 20
34.88
 11
36.5
 21
35.2425
  0
LINE
  8
0
 10
36.5
 20
35.2425
 11
38.3225
 21
34.88
  0
LINE
  8
0
 10
38.3225
 20
34.88
 11
39.8676
 21
33.8476
  0
LINE
  8
0
 10
39.8676
 20
33.8476
 11
40.9
 21
32.3025
  0
LINE
  8
0
 10
40.9
 20
32.3025
 11
41.2625
 21
30.48
  0
LINE
  8
0
 10
41.2625
 20
30.48
 11
40.9
 21
28.6575
  0
LINE
  8
0
 10
40.9
 20
28.6575
 11
39.8676
 21
27.1124
  0
LINE
  8
0
 10
39.8676
 20
27.1124
 11
38.3225
 21
26.08
  0
LINE
  8
0
 10
38.3225
 20
26.08
 11
36.5
 21
25.7175
  0
LINE
  8
0
 10
36.5
 20
25.7175
 11
34.6775
 21
26.08
  0
LINE
  8
0
 10
34.6775
 20
26.08
 11
33.1324
 21
27.1124
  0
LINE
  8
0
 10
33.1324
 20
27.1124
 11
32.1
 21
28.6575
  0
LINE
  8
0
 10
32.1
 20
28.6575
 11
31.7375
 21
30.48
  0
LINE
  8
0
 10
31.7375
 20
89.52
 11
32.1
 21
91.3425
  0
LINE
  8
0
 10
32.1
 20
91.3425
 11
33.1324
 21
92.8876
  0
LINE
  8
0
 10
33.1324
 20
92.8876
 11
34.6775
 21
93.92
  0
LINE
  8
0
 10
34.6775
 20
93.92
 11
36.5
 21
94.2825
  0
LINE
  8
0
 10
36.5
 20
94.2825
 11
38.3225
 21
93.92
  0
LINE
  8
0
 10
38.3225
 20
93.92
 11
39.8676
 21
92.8876
  0
LINE
  8
0
 10
39.8676
 20
92.8876
 11
40.9
 21
91.3425
  0
LINE
  8
0
 10
40.9
 20
91.3425
 11
41.2625
 21
89.52
  0
LINE
  8
0
 10
41.2625
 20
89.52
 11
40.9
 21
87.6975
  0
LINE
  8
0
 10
40.9
 20
87.6975
 11
39.8676
 21
86.1524
  0
LINE
  8
0
 10
39.8676
 20
86.1524
 11
38.3225
 21
85.12
  0
LINE
  8
0
 10
38.3225
 20
85.12
 11
36.5
 21
84.7575
  0
LINE
  8
0
 10
36.5
 20
84.7575
 11
34.6775
 21
85.12
  0
LINE
  8
0
 10
34.6775
 20
85.12
 11
33.1324
 21
86.1524
  0
LINE
  8
0
 10
33.1324
 20
86.1524
 11
32.1
 21
87.6975
  0
LINE
  8
0
 10
32.1
 20
87.6975
 11
31.7375
 21
89.52
  0
LINE
  8
0
 10
31.7375
 20
163.18
 11
32.1
 21
165.003
  0
LINE
  8
0
 10
32.1
 20
165.003
 11
33.1324
 21
166.548
  0
LINE
  8
0
 10
33.1324
 20
166.548
 11
34.6775
 21
167.58
  0
LINE
  8
0
 10
34.6775
 20
167.58
 11
36.5
 21
167.943
  0
LINE
  8
0
 10
36.5
 20
167.943
 11
38.3225
 21
167.58
  0
LINE
  8
0
 10
38.3225
 20
167.58
 11
39.8676
 21
166.548
  0
LINE
  8
0
 10
39.8676
 20
166.548
 11
40.9
 21
165.003
  0
LINE
  8
0
 10
40.9
 20
165.003
 11
41.2625
 21
163.18
  0
LINE
  8
0
 10
41.2625
 20
163.18
 11
40.9
 21
161.357
  0
LINE
  8
0
 10
40.9
 20
161.357
 11
39.8676
 21
159.812
  0
LINE
  8
0
 10
39.8676
 20
159.812
 11
38.3225
 21
158.78
  0
LINE
  8
0
 10
38.3225
 20
158.78
 11
36.5
 21
158.418
  0
LINE
  8
0
 10
36.5
 20
158.418
 11
34.6775
 21
158.78
  0
LINE
  8
0
 10
34.6775
 20
158.78
 11
33.1324
 21
159.812
  0
LINE
  8
0
 10
33.1324
 20
159.812
 11
32.1
 21
161.357
  0
LINE
  8
0
 10
32.1
 20
161.357
 11
31.7375
 21
163.18
  0
LINE
  8
0
 10
31.7375
 20
238.745
 11
32.1
 21
240.568
  0
LINE
  8
0
 10
32.1
 20
240.568
 11
33.1324
 21
242.113
  0
LINE
  8
0
 10
33.1324
 20
242.113
 11
34.6775
 21
243.145
  0
LINE
  8
0
 10
34.6775
 20
243.145
 11
36.5
 21
243.508
  0
LINE
  8
0
 10
36.5
 20
243.508
 11
38.3225
 21
243.145
  0
LINE
  8
0
 10
38.3225
 20
243.145
 11
39.8676
 21
242.113
  0
LINE
  8
0
 10
39.8676
 20
242.113
 11
40.9
 21
240.568
  0
LINE
  8
0
 10
40.9
 20
240.568
 11
41.2625
 21
238.745
  0
LINE
  8
0
 10
41.2625
 20
238.745
 11
40.9
 21
236.922
  0
LINE
  8
0
 10
40.9
 20
236.922
 11
39.8676
 21
235.377
  0
LINE
  8
0
 10
39.8676
 20
235.377
 11
38.3225
 21
234.345
  0
LINE
  8
0
 10
38.3225
 20
234.345
 11
36.5
 21
233.983
  0
LINE
  8
0
 10
36.5
 20
233.983
 11
34.6775
 21
234.345
  0
LINE
  8
0
 10
34.6775
 20
234.345
 11
33.1324
 21
235.377
  0
LINE
  8
0
 10
33.1324
 20
235.377
 11
32.1
 21
236.922
  0
LINE
  8
0
 10
32.1
 20
236.922
 11
31.7375
 21
238.745
  0
LINE
  8
0
 10
31.7375
 20
306.055
 11
32.1
 21
307.878
  0
LINE
  8
0
 10
32.1
 20
307.878
 11
33.1324
 21
309.423
  0
LINE
  8
0
 10
33.1324
 20
309.423
 11
34.6775
 21
310.455
  0
LINE
  8
0
 10
34.6775
 20
310.455
 11
36.5
 21
310.818
  0
LINE
  8
0
 10
36.5
 20
310.818
 11
38.3225
 21
310.455
  0
LINE
  8
0
 10
38.3225
 20
310.455
 11
39.8676
 21
309.423
  0
LINE
  8
0
 10
39.8676
 20
309.423
 11
40.9
 21
307.878
  0
LINE
  8
0
 10
40.9
 20
307.878
 11
41.2625
 21
306.055
  0
LINE
  8
0
 10
41.2625
 20
306.055
 11
40.9
 21
304.232
  0
LINE
  8
0
 10
40.9
 20
304.232
 11
39.8676
 21
302.687
  0
LINE
  8
0
 10
39.8676
 20
302.687
 11
38.3225
 21
301.655
  0
LINE
  8
0
 10
38.3225
 20
301.655
 11
36.5
 21
301.293
  0
LINE
  8
0
 10
36.5
 20
301.293
 11
34.6775
 21
301.655
  0
LINE
  8
0
 10
34.6775
 20
301.655
 11
33.1324
 21
302.687
  0
LINE
  8
0
 10
33.1324
 20
302.687
 11
32.1
 21
304.232
  0
LINE
  8
0
 10
32.1
 20
304.232
 11
31.7375
 21
306.055
  0
LINE
  8
0
 10
31.7375
 20
713.945
 11
32.1
 21
715.768
  0
LINE
  8
0
 10
32.1
 20
715.768
 11
33.1324
 21
717.313
  0
LINE
  8
0
 10
33.1324
 20
717.313
 11
34.6775
 21
718.345
  0
LINE
  8
0
 10
34.6775
 20
718.345
 11
36.5
 21
718.707
  0
LINE
  8
0
 10
36.5
 20
718.707
 11
38.3225
 21
718.345
  0
LINE
  8
0
 10
38.3225
 20
718.345
 11
39.8676
 21
717.313
  0
LINE
  8
0
 10
39.8676
 20
717.313
 11
40.9
 21
715.768
  0
LINE
  8
0
 10
40.9
 20
715.768
 11
41.2625
 21
713.945
  0
LINE
  8
0
 10
41.2625
 20
713.945
 11
40.9
 21
712.122
  0
LINE
  8
0
 10
40.9
 20
712.122
 11
39.8676
 21
710.577
  0
LINE
  8
0
 10
39.8676
 20
710.577
 11
38.3225
 21
709.545
  0
LINE
  8
0
 10
38.3225
 20
709.545
 11
36.5
 21
709.182
  0
LINE
  8
0
 10
36.5
 20
709.182
 11
34.6775
 21
709.545
  0
LINE
  8
0
 10
34.6775
 20
709.545
 11
33.1324
 21
710.577
  0
LINE
  8
0
 10
33.1324
 20
710.577
 11
32.1
 21
712.122
  0
LINE
  8
0
 10
32.1
 20
712.122
 11
31.7375
 21
713.945
  0
LINE
  8
0
 10
31.7375
 20
781.255
 11
32.1
 21
783.078
  0
LINE
  8
0
 10
32.1
 20
783.078
 11
33.1324
 21
784.623
  0
LINE
  8
0
 10
33.1324
 20
784.623
 11
34.6775
 21
785.655
  0
LINE
  8
0
 10
34.6775
 20
785.655
 11
36.5
 21
786.017
  0
LINE
  8
0
 10
36.5
 20
786.017
 11
38.3225
 21
785.655
  0
LINE
  8
0
 10
38.3225
 20
785.655
 11
39.8676
 21
784.623
  0
LINE
  8
0
 10
39.8676
 20
784.623
 11
40.9
 21
783.078
  0
LINE
  8
0
 10
40.9
 20
783.078
 11
41.2625
 21
781.255
  0
LINE
  8
0
 10
41.2625
 20
781.255
 11
40.9
 21
779.432
  0
LINE
  8
0
 10
40.9
 20
779.432
 11
39.8676
 21
777.887
  0
LINE
  8
0
 10
39.8676
 20
777.887
 11
38.3225
 21
776.855
  0
LINE
  8
0
 10
38.3225
 20
776.855
 11
36.5
 21
776.492
  0
LINE
  8
0
 10
36.5
 20
776.492
 11
34.6775
 21
776.855
  0
LINE
  8
0
 10
34.6775
 20
776.855
 11
33.1324
 21
777.887
  0
LINE
  8
0
 10
33.1324
 20
777.887
 11
32.1
 21
779.432
  0
LINE
  8
0
 10
32.1
 20
779.432
 11
31.7375
 21
781.255
  0
LINE
  8
0
 10
31.7375
 20
856.82
 11
32.1
 21
858.643
  0
LINE
  8
0
 10
32.1
 20
858.643
 11
33.1324
 21
860.188
  0
LINE
  8
0
 10
33.1324
 20
860.188
 11
34.6775
 21
861.22
  0
LINE
  8
0
 10
34.6775
 20
861.22
 11
36.5
 21
861.582
  0
LINE
  8
0
 10
36.5
 20
861.582
 11
38.3225
 21
861.22
  0
LINE
  8
0
 10
38.3225
 20
861.22
 11
39.8676
 21
860.188
  0
LINE
  8
0
 10
39.8676
 20
860.188
 11
40.9
 21
858.643
  0
LINE
  8
0
 10
40.9
 20
858.643
 11
41.2625
 21
856.82
  0
LINE
  8
0
 10
41.2625
 20
856.82
 11
40.9
 21
854.997
  0
LINE
  8
0
 10
40.9
 20
854.997
 11
39.8676
 21
853.452
  0
LINE
  8
0
 10
39.8676
 20
853.452
 11
38.3225
 21
852.42
  0
LINE
  8
0
 10
38.3225
 20
852.42
 11
36.5
 21
852.057
  0
LINE
  8
0
 10
36.5
 20
852.057
 11
34.6775
 21
852.42
  0
LINE
  8
0
 10
34.6775
 20
852.42
 11
33.1324
 21
853.452
  0
LINE
  8
0
 10
33.1324
 20
853.452
 11
32.1
 21
854.997
  0
LINE
  8
0
 10
32.1
 20
854.997
 11
31.7375
 21
856.82
  0
LINE
  8
0
 10
31.7375
 20
930.48
 11
32.1
 21
932.303
  0
LINE
  8
0
 10
32.1
 20
932.303
 11
33.1324
 21
933.848
  0
LINE
  8
0
 10
33.1324
 20
933.848
 11
34.6775
 21
934.88
  0
LINE
  8
0
 10
34.6775
 20
934.88
 11
36.5
 21
935.242
  0
LINE
  8
0
 10
36.5
 20
935.242
 11
38.3225
 21
934.88
  0
LINE
  8
0
 10
38.3225
 20
934.88
 11
39.8676
 21
933.848
  0
LINE
  8
0
 10
39.8676
 20
933.848
 11
40.9
 21
932.303
  0
LINE
  8
0
 10
40.9
 20
932.303
 11
41.2625
 21
930.48
  0
LINE
  8
0
 10
41.2625
 20
930.48
 11
40.9
 21
928.657
  0
LINE
  8
0
 10
40.9
 20
928.657
 11
39.8676
 21
927.112
  0
LINE
  8
0
 10
39.8676
 20
927.112
 11
38.3225
 21
926.08
  0
LINE
  8
0
 10
38.3225
 20
926.08
 11
36.5
 21
925.717
  0
LINE
  8
0
 10
36.5
 20
925.717
 11
34.6775
 21
926.08
  0
LINE
  8
0
 10
34.6775
 20
926.08
 11
33.1324
 21
927.112
  0
LINE
  8
0
 10
33.1324
 20
927.112
 11
32.1
 21
928.657
  0
LINE
  8
0
 10
32.1
 20
928.657
 11
31.7375
 21
930.48
  0
LINE
  8
0
 10
31.7375
 20
989.52
 11
32.1
 21
991.343
  0
LINE
  8
0
 10
32.1
 20
991.343
 11
33.1324
 21
992.888
  0
LINE
  8
0
 10
33.1324
 20
992.888
 11
34.6775
 21
993.92
  0
LINE
  8
0
 10
34.6775
 20
993.92
 11
36.5
 21
994.282
  0
LINE
  8
0
 10
36.5
 20
994.282
 11
38.3225
 21
993.92
  0
LINE
  8
0
 10
38.3225
 20
993.92
 11
39.8676
 21
992.888
  0
LINE
  8
0
 10
39.8676
 20
992.888
 11
40.9
 21
991.343
  0
LINE
  8
0
 10
40.9
 20
991.343
 11
41.2625
 21
989.52
  0
LINE
  8
0
 10
41.2625
 20
989.52
 11
40.9
 21
987.697
  0
LINE
  8
0
 10
40.9
 20
987.697
 11
39.8676
 21
986.152
  0
LINE
  8
0
 10
39.8676
 20
986.152
 11
38.3225
 21
985.12
  0
LINE
  8
0
 10
38.3225
 20
985.12
 11
36.5
 21
984.757
  0
LINE
  8
0
 10
36.5
 20
984.757
 11
34.6775
 21
985.12
  0
LINE
  8
0
 10
34.6775
 20
985.12
 11
33.1324
 21
986.152
  0
LINE
  8
0
 10
33.1324
 20
986.152
 11
32.1
 21
987.697
  0
LINE
  8
0
 10
32.1
 20
987.697
 11
31.7375
 21
989.52
  0
LINE
  8
0
 10
104.737
 20
30.48
 11
105.1
 21
32.3025
  0
LINE
  8
0
 10
105.1
 20
32.3025
 11
106.132
 21
33.8476
  0
LINE
  8
0
 10
106.132
 20
33.8476
 11
107.677
 21
34.88
  0
LINE
  8
0
 10
107.677
 20
34.88
 11
109.5
 21
35.2425
  0
LINE
  8
0
 10
109.5
 20
35.2425
 11
111.323
 21
34.88
  0
LINE
  8
0
 10
111.323
 20
34.88
 11
112.868
 21
33.8476
  0
LINE
  8
0
 10
112.868
 20
33.8476
 11
113.9
 21
32.3025
  0
LINE
  8
0
 10
113.9
 20
32.3025
 11
114.262
 21
30.48
  0
LINE
  8
0
 10
114.262
 20
30.48
 11
113.9
 21
28.6575
  0
LINE
  8
0
 10
113.9
 20
28.6575
 11
112.868
 21
27.1124
  0
LINE
  8
0
 10
112.868
 20
27.1124
 11
111.323
 21
26.08
  0
LINE
  8
0
 10
111.323
 20
26.08
 11
109.5
 21
25.7175
  0
LINE
  8
0
 10
109.5
 20
25.7175
 11
107.677
 21
26.08
  0
LINE
  8
0
 10
107.677
 20
26.08
 11
106.132
 21
27.1124
  0
LINE
  8
0
 10
106.132
 20
27.1124
 11
105.1
 21
28.6575
  0
LINE
  8
0
 10
105.1
 20
28.6575
 11
104.737
 21
30.48
  0
LINE
  8
0
 10
104.737
 20
89.52
 11
105.1
 21
91.3425
  0
LINE
  8
0
 10
105.1
 20
91.3425
 11
106.132
 21
92.8876
  0
LINE
  8
0
 10
106.132
 20
92.8876
 11
107.677
 21
93.92
  0
LINE
  8
0
 10
107.677
 20
93.92
 11
109.5
 21
94.2825
  0
LINE
  8
0
 10
109.5
 20
94.2825
 11
111.323
 21
93.92
  0
LINE
  8
0
 10
111.323
 20
93.92
 11
112.868
 21
92.8876
  0
LINE
  8
0
 10
112.868
 20
92.8876
 11
113.9
 21
91.3425
  0
LINE
  8
0
 10
113.9
 20
91.3425
 11
114.262
 21
89.52
  0
LINE
  8
0
 10
114.262
 20
89.52
 11
113.9
 21
87.6975
  0
LINE
  8
0
 10
113.9
 20
87.6975
 11
112.868
 21
86.1524
  0
LINE
  8
0
 10
112.868
 20
86.1524
 11
111.323
 21
85.12
  0
LINE
  8
0
 10
111.323
 20
85.12
 11
109.5
 21
84.7575
  0
LINE
  8
0
 10
109.5
 20
84.7575
 11
107.677
 21
85.12
  0
LINE
  8
0
 10
107.677
 20
85.12
 11
106.132
 21
86.1524
  0
LINE
  8
0
 10
106.132
 20
86.1524
 11
105.1
 21
87.6975
  0
LINE
  8
0
 10
105.1
 20
87.6975
 11
104.737
 21
89.52
  0
LINE
  8
0
 10
104.737
 20
163.18
 11
105.1
 21
165.003
  0
LINE
  8
0
 10
105.1
 20
165.003
 11
106.132
 21
166.548
  0
LINE
  8
0
 10
106.132
 20
166.548
 11
107.677
 21
167.58
  0
LINE
  8
0
 10
107.677
 20
167.58
 11
109.5
 21
167.943
  0
LINE
  8
0
 10
109.5
 20
167.943
 11
111.323
 21
167.58
  0
LINE
  8
0
 10
111.323
 20
167.58
 11
112.868
 21
166.548
  0
LINE
  8
0
 10
112.868
 20
166.548
 11
113.9
 21
165.003
  0
LINE
  8
0
 10
113.9
 20
165.003
 11
114.262
 21
163.18
  0
LINE
  8
0
 10
114.262
 20
163.18
 11
113.9
 21
161.357
  0
LINE
  8
0
 10
113.9
 20
161.357
 11
112.868
 21
159.812
  0
LINE
  8
0
 10
112.868
 20
159.812
 11
111.323
 21
158.78
  0
LINE
  8
0
 10
111.323
 20
158.78
 11
109.5
 21
158.418
  0
LINE
  8
0
 10
109.5
 20
158.418
 11
107.677
 21
158.78
  0
LINE
  8
0
 10
107.677
 20
158.78
 11
106.132
 21
159.812
  0
LINE
  8
0
 10
106.132
 20
159.812
 11
105.1
 21
161.357
  0
LINE
  8
0
 10
105.1
 20
161.357
 11
104.737
 21
163.18
  0
LINE
  8
0
 10
104.737
 20
238.745
 11
105.1
 21
240.568
  0
LINE
  8
0
 10
105.1
 20
240.568
 11
106.132
 21
242.113
  0
LINE
  8
0
 10
106.132
 20
242.113
 11
107.677
 21
243.145
  0
LINE
  8
0
 10
107.677
 20
243.145
 11
109.5
 21
243.508
  0
LINE
  8
0
 10
109.5
 20
243.508
 11
111.323
 21
243.145
  0
LINE
  8
0
 10
111.323
 20
243.145
 11
112.868
 21
242.113
  0
LINE
  8
0
 10
112.868
 20
242.113
 11
113.9
 21
240.568
  0
LINE
  8
0
 10
113.9
 20
240.568
 11
114.262
 21
238.745
  0
LINE
  8
0
 10
114.262
 20
238.745
 11
113.9
 21
236.922
  0
LINE
  8
0
 10
113.9
 20
236.922
 11
112.868
 21
235.377
  0
LINE
  8
0
 10
112.868
 20
235.377
 11
111.323
 21
234.345
  0
LINE
  8
0
 10
111.323
 20
234.345
 11
109.5
 21
233.983
  0
LINE
  8
0
 10
109.5
 20
233.983
 11
107.677
 21
234.345
  0
LINE
  8
0
 10
107.677
 20
234.345
 11
106.132
 21
235.377
  0
LINE
  8
0
 10
106.132
 20
235.377
 11
105.1
 21
236.922
  0
LINE
  8
0
 10
105.1
 20
236.922
 11
104.737
 21
238.745
  0
LINE
  8
0
 10
104.737
 20
306.055
 11
105.1
 21
307.878
  0
LINE
  8
0
 10
105.1
 20
307.878
 11
106.132
 21
309.423
  0
LINE
  8
0
 10
106.132
 20
309.423
 11
107.677
 21
310.455
  0
LINE
  8
0
 10
107.677
 20
310.455
 11
109.5
 21
310.818
  0
LINE
  8
0
 10
109.5
 20
310.818
 11
111.323
 21
310.455
  0
LINE
  8
0
 10
111.323
 20
310.455
 11
112.868
 21
309.423
  0
LINE
  8
0
 10
112.868
 20
309.423
 11
113.9
 21
307.878
  0
LINE
  8
0
 10
113.9
 20
307.878
 11
114.262
 21
306.055
  0
LINE
  8
0
 10
114.262
 20
306.055
 11
113.9
 21
304.232
  0
LINE
  8
0
 10
113.9
 20
304.232
 11
112.868
 21
302.687
  0
LINE
  8
0
 10
112.868
 20
302.687
 11
111.323
 21
301.655
  0
LINE
  8
0
 10
111.323
 20
301.655
 11
109.5
 21
301.293
  0
LINE
  8
0
 10
109.5
 20
301.293
 11
107.677
 21
301.655
  0
LINE
  8
0
 10
107.677
 20
301.655
 11
106.132
 21
302.687
  0
LINE
  8
0
 10
106.132
 20
302.687
 11
105.1
 21
304.232
  0
LINE
  8
0
 10
105.1
 20
304.232
 11
104.737
 21
306.055
  0
LINE
  8
0
 10
104.737
 20
713.945
 11
105.1
 21
715.768
  0
LINE
  8
0
 10
105.1
 20
715.768
 11
106.132
 21
717.313
  0
LINE
  8
0
 10
106.132
 20
717.313
 11
107.677
 21
718.345
  0
LINE
  8
0
 10
107.677
 20
718.345
 11
109.5
 21
718.707
  0
LINE
  8
0
 10
109.5
 20
718.707
 11
111.323
 21
718.345
  0
LINE
  8
0
 10
111.323
 20
718.345
 11
112.868
 21
717.313
  0
LINE
  8
0
 10
112.868
 20
717.313
 11
113.9
 21
715.768
  0
LINE
  8
0
 10
113.9
 20
715.768
 11
114.262
 21
713.945
  0
LINE
  8
0
 10
114.262
 20
713.945
 11
113.9
 21
712.122
  0
LINE
  8
0
 10
113.9
 20
712.122
 11
112.868
 21
710.577
  0
LINE
  8
0
 10
112.868
 20
710.577
 11
111.323
 21
709.545
  0
LINE
  8
0
 10
111.323
 20
709.545
 11
109.5
 21
709.182
  0
LINE
  8
0
 10
109.5
 20
709.182
 11
107.677
 21
709.545
  0
LINE
  8
0
 10
107.677
 20
709.545
 11
106.132
 21
710.577
  0
LINE
  8
0
 10
106.132
 20
710.577
 11
105.1
 21
712.122
  0
LINE
  8
0
 10
105.1
 20
712.122
 11
104.737
 21
713.945
  0
LINE
  8
0
 10
104.737
 20
781.255
 11
105.1
 21
783.078
  0
LINE
  8
0
 10
105.1
 20
783.078
 11
106.132
 21
784.623
  0
LINE
  8
0
 10
106.132
 20
784.623
 11
107.677
 21
785.655
  0
LINE
  8
0
 10
107.677
 20
785.655
 11
109.5
 21
786.017
  0
LINE
  8
0
 10
109.5
 20
786.017
 11
111.323
 21
785.655
  0
LINE
  8
0
 10
111.323
 20
785.655
 11
112.868
 21
784.623
  0
LINE
  8
0
 10
112.868
 20
784.623
 11
113.9
 21
783.078
  0
LINE
  8
0
 10
113.9
 20
783.078
 11
114.262
 21
781.255
  0
LINE
  8
0
 10
114.262
 20
781.255
 11
113.9
 21
779.432
  0
LINE
  8
0
 10
113.9
 20
779.432
 11
112.868
 21
777.887
  0
LINE
  8
0
 10
112.868
 20
777.887
 11
111.323
 21
776.855
  0
LINE
  8
0
 10
111.323
 20
776.855
 11
109.5
 21
776.492
  0
LINE
  8
0
 10
109.5
 20
776.492
 11
107.677
 21
776.855
  0
LINE
  8
0
 10
107.677
 20
776.855
 11
106.132
 21
777.887
  0
LINE
  8
0
 10
106.132
 20
777.887
 11
105.1
 21
779.432
  0
LINE
  8
0
 10
105.1
 20
779.432
 11
104.737
 21
781.255
  0
LINE
  8
0
 10
104.737
 20
856.82
 11
105.1
 21
858.643
  0
LINE
  8
0
 10
105.1
 20
858.643
 11
106.132
 21
860.188
  0
LINE
  8
0
 10
106.132
 20
860.188
 11
107.677
 21
861.22
  0
LINE
  8
0
 10
107.677
 20
861.22
 11
109.5
 21
861.582
  0
LINE
  8
0
 10
109.5
 20
861.582
 11
111.323
 21
861.22
  0
LINE
  8
0
 10
111.323
 20
861.22
 11
112.868
 21
860.188
  0
LINE
  8
0
 10
112.868
 20
860.188
 11
113.9
 21
858.643
  0
LINE
  8
0
 10
113.9
 20
858.643
 11
114.262
 21
856.82
  0
LINE
  8
0
 10
114.262
 20
856.82
 11
113.9
 21
854.997
  0
LINE
  8
0
 10
113.9
 20
854.997
 11
112.868
 21
853.452
  0
LINE
  8
0
 10
112.868
 20
853.452
 11
111.323
 21
852.42
  0
LINE
  8
0
 10
111.323
 20
852.42
 11
109.5
 21
852.057
  0
LINE
  8
0
 10
109.5
 20
852.057
 11
107.677
 21
852.42
  0
LINE
  8
0
 10
107.677
 20
852.42
 11
106.132
 21
853.452
  0
LINE
  8
0
 10
106.132
 20
853.452
 11
105.1
 21
854.997
  0
LINE
  8
0
 10
105.1
 20
854.997
 11
104.737
 21
856.82
  0
LINE
  8
0
 10
104.737
 20
930.48
 11
105.1
 21
932.303
  0
LINE
  8
0
 10
105.1
 20
932.303
 11
106.132
 21
933.848
  0
LINE
  8
0
 10
106.132
 20
933.848
 11
107.677
 21
934.88
  0
LINE
  8
0
 10
107.677
 20
934.88
 11
109.5
 21
935.242
  0
LINE
  8
0
 10
109.5
 20
935.242
 11
111.323
 21
934.88
  0
LINE
  8
0
 10
111.323
 20
934.88
 11
112.868
 21
933.848
  0
LINE
  8
0
 10
112.868
 20
933.848
 11
113.9
 21
932.303
  0
LINE
  8
0
 10
113.9
 20
932.303
 11
114.262
 21
930.48
  0
LINE
  8
0
 10
114.262
 20
930.48
 11
113.9
 21
928.657
  0
LINE
  8
0
 10
113.9
 20
928.657
 11
112.868
 21
927.112
  0
LINE
  8
0
 10
112.868
 20
927.112
 11
111.323
 21
926.08
  0
LINE
  8
0
 10
111.323
 20
926.08
 11
109.5
 21
925.717
  0
LINE
  8
0
 10
109.5
 20
925.717
 11
107.677
 21
926.08
  0
LINE
  8
0
 10
107.677
 20
926.08
 11
106.132
 21
927.112
  0
LINE
  8
0
 10
106.132
 20
927.112
 11
105.1
 21
928.657
  0
LINE
  8
0
 10
105.1
 20
928.657
 11
104.737
 21
930.48
  0
LINE
  8
0
 10
104.737
 20
989.52
 11
105.1
 21
991.343
  0
LINE
  8
0
 10
105.1
 20
991.343
 11
106.132
 21
992.888
  0
LINE
  8
0
 10
106.132
 20
992.888
 11
107.677
 21
993.92
  0
LINE
  8
0
 10
107.677
 20
993.92
 11
109.5
 21
994.282
  0
LINE
  8
0
 10
109.5
 20
994.282
 11
111.323
 21
993.92
  0
LINE
  8
0
 10
111.323
 20
993.92
 11
112.868
 21
992.888
  0
LINE
  8
0
 10
112.868
 20
992.888
 11
113.9
 21
991.343
  0
LINE
  8
0
 10
113.9
 20
991.343
 11
114.262
 21
989.52
  0
LINE
  8
0
 10
114.262
 20
989.52
 11
113.9
 21
987.697
  0
LINE
  8
0
 10
113.9
 20
987.697
 11
112.868
 21
986.152
  0
LINE
  8
0
 10
112.868
 20
986.152
 11
111.323
 21
985.12
  0
LINE
  8
0
 10
111.323
 20
985.12
 11
109.5
 21
984.757
  0
LINE
  8
0
 10
109.5
 20
984.757
 11
107.677
 21
985.12
  0
LINE
  8
0
 10
107.677
 20
985.12
 11
106.132
 21
986.152
  0
LINE
  8
0
 10
106.132
 20
986.152
 11
105.1
 21
987.697
  0
LINE
  8
0
 10
105.1
 20
987.697
 11
104.737
 21
989.52
  0
LINE
  8
0
 10
453.797
 20
30.48
 11
454.16
 21
32.3025
  0
LINE
  8
0
 10
454.16
 20
32.3025
 11
455.192
 21
33.8476
  0
LINE
  8
0
 10
455.192
 20
33.8476
 11
456.737
 21
34.88
  0
LINE
  8
0
 10
456.737
 20
34.88
 11
458.56
 21
35.2425
  0
LINE
  8
0
 10
458.56
 20
35.2425
 11
460.383
 21
34.88
  0
LINE
  8
0
 10
460.383
 20
34.88
 11
461.928
 21
33.8476
  0
LINE
  8
0
 10
461.928
 20
33.8476
 11
462.96
 21
32.3025
  0
LINE
  8
0
 10
462.96
 20
32.3025
 11
463.322
 21
30.48
  0
LINE
  8
0
 10
463.322
 20
30.48
 11
462.96
 21
28.6575
  0
LINE
  8
0
 10
462.96
 20
28.6575
 11
461.928
 21
27.1124
  0
LINE
  8
0
 10
461.928
 20
27.1124
 11
460.383
 21
26.08
  0
LINE
  8
0
 10
460.383
 20
26.08
 11
458.56
 21
25.7175
  0
LINE
  8
0
 10
458.56
 20
25.7175
 11
456.737
 21
26.08
  0
LINE
  8
0
 10
456.737
 20
26.08
 11
455.192
 21
27.1124
  0
LINE
  8
0
 10
455.192
 20
27.1124
 11
454.16
 21
28.6575
  0
LINE
  8
0
 10
454.16
 20
28.6575
 11
453.797
 21
30.48
  0
LINE
  8
0
 10
453.797
 20
89.52
 11
454.16
 21
91.3425
  0
LINE
  8
0
 10
454.16
 20
91.3425
 11
455.192
 21
92.8876
  0
LINE
  8
0
 10
455.192
 20
92.8876
 11
456.737
 21
93.92
  0
LINE
  8
0
 10
456.737
 20
93.92
 11
458.56
 21
94.2825
  0
LINE
  8
0
 10
458.56
 20
94.2825
 11
460.383
 21
93.92
  0
LINE
  8
0
 10
460.383
 20
93.92
 11
461.928
 21
92.8876
  0
LINE
  8
0
 10
461.928
 20
92.8876
 11
462.96
 21
91.3425
  0
LINE
  8
0
 10
462.96
 20
91.3425
 11
463.322
 21
89.52
  0
LINE
  8
0
 10
463.322
 20
89.52
 11
462.96
 21
87.6975
  0
LINE
  8
0
 10
462.96
 20
87.6975
 11
461.928
 21
86.1524
  0
LINE
  8
0
 10
461.928
 20
86.1524
 11
460.383
 21
85.12
  0
LINE
  8
0
 10
460.383
 20
85.12
 11
458.56
 21
84.7575
  0
LINE
  8
0
 10
458.56
 20
84.7575
 11
456.737
 21
85.12
  0
LINE
  8
0
 10
456.737
 20
85.12
 11
455.192
 21
86.1524
  0
LINE
  8
0
 10
455.192
 20
86.1524
 11
454.16
 21
87.6975
  0
LINE
  8
0
 10
454.16
 20
87.6975
 11
453.797
 21
89.52
  0
LINE
  8
0
 10
453.797
 20
163.18
 11
454.16
 21
165.003
  0
LINE
  8
0
 10
454.16
 20
165.003
 11
455.192
 21
166.548
  0
LINE
  8
0
 10
455.192
 20
166.548
 11
456.737
 21
167.58
  0
LINE
  8
0
 10
456.737
 20
167.58
 11
458.56
 21
167.943
  0
LINE
  8
0
 10
458.56
 20
167.943
 11
460.383
 21
167.58
  0
LINE
  8
0
 10
460.383
 20
167.58
 11
461.928
 21
166.548
  0
LINE
  8
0
 10
461.928
 20
166.548
 11
462.96
 21
165.003
  0
LINE
  8
0
 10
462.96
 20
165.003
 11
463.322
 21
163.18
  0
LINE
  8
0
 10
463.322
 20
163.18
 11
462.96
 21
161.357
  0
LINE
  8
0
 10
462.96
 20
161.357
 11
461.928
 21
159.812
  0
LINE
  8
0
 10
461.928
 20
159.812
 11
460.383
 21
158.78
  0
LINE
  8
0
 10
460.383
 20
158.78
 11
458.56
 21
158.418
  0
LINE
  8
0
 10
458.56
 20
158.418
 11
456.737
 21
158.78
  0
LINE
  8
0
 10
456.737
 20
158.78
 11
455.192
 21
159.812
  0
LINE
  8
0
 10
455.192
 20
159.812
 11
454.16
 21
161.357
  0
LINE
  8
0
 10
454.16
 20
161.357
 11
453.797
 21
163.18
  0
LINE
  8
0
 10
453.797
 20
238.745
 11
454.16
 21
240.568
  0
LINE
  8
0
 10
454.16
 20
240.568
 11
455.192
 21
242.113
  0
LINE
  8
0
 10
455.192
 20
242.113
 11
456.737
 21
243.145
  0
LINE
  8
0
 10
456.737
 20
243.145
 11
458.56
 21
243.508
  0
LINE
  8
0
 10
458.56
 20
243.508
 11
460.383
 21
243.145
  0
LINE
  8
0
 10
460.383
 20
243.145
 11
461.928
 21
242.113
  0
LINE
  8
0
 10
461.928
 20
242.113
 11
462.96
 21
240.568
  0
LINE
  8
0
 10
462.96
 20
240.568
 11
463.322
 21
238.745
  0
LINE
  8
0
 10
463.322
 20
238.745
 11
462.96
 21
236.922
  0
LINE
  8
0
 10
462.96
 20
236.922
 11
461.928
 21
235.377
  0
LINE
  8
0
 10
461.928
 20
235.377
 11
460.383
 21
234.345
  0
LINE
  8
0
 10
460.383
 20
234.345
 11
458.56
 21
233.983
  0
LINE
  8
0
 10
458.56
 20
233.983
 11
456.737
 21
234.345
  0
LINE
  8
0
 10
456.737
 20
234.345
 11
455.192
 21
235.377
  0
LINE
  8
0
 10
455.192
 20
235.377
 11
454.16
 21
236.922
  0
LINE
  8
0
 10
454.16
 20
236.922
 11
453.797
 21
238.745
  0
LINE
  8
0
 10
453.797
 20
306.055
 11
454.16
 21
307.878
  0
LINE
  8
0
 10
454.16
 20
307.878
 11
455.192
 21
309.423
  0
LINE
  8
0
 10
455.192
 20
309.423
 11
456.737
 21
310.455
  0
LINE
  8
0
 10
456.737
 20
310.455
 11
458.56
 21
310.818
  0
LINE
  8
0
 10
458.56
 20
310.818
 11
460.383
 21
310.455
  0
LINE
  8
0
 10
460.383
 20
310.455
 11
461.928
 21
309.423
  0
LINE
  8
0
 10
461.928
 20
309.423
 11
462.96
 21
307.878
  0
LINE
  8
0
 10
462.96
 20
307.878
 11
463.322
 21
306.055
  0
LINE
  8
0
 10
463.322
 20
306.055
 11
462.96
 21
304.232
  0
LINE
  8
0
 10
462.96
 20
304.232
 11
461.928
 21
302.687
  0
LINE
  8
0
 10
461.928
 20
302.687
 11
460.383
 21
301.655
  0
LINE
  8
0
 10
460.383
 20
301.655
 11
458.56
 21
301.293
  0
LINE
  8
0
 10
458.56
 20
301.293
 11
456.737
 21
301.655
  0
LINE
  8
0
 10
456.737
 20
301.655
 11
455.192
 21
302.687
  0
LINE
  8
0
 10
455.192
 20
302.687
 11
454.16
 21
304.232
  0
LINE
  8
0
 10
454.16
 20
304.232
 11
453.797
 21
306.055
  0
LINE
  8
0
 10
453.797
 20
713.945
 11
454.16
 21
715.768
  0
LINE
  8
0
 10
454.16
 20
715.768
 11
455.192
 21
717.313
  0
LINE
  8
0
 10
455.192
 20
717.313
 11
456.737
 21
718.345
  0
LINE
  8
0
 10
456.737
 20
718.345
 11
458.56
 21
718.707
  0
LINE
  8
0
 10
458.56
 20
718.707
 11
460.383
 21
718.345
  0
LINE
  8
0
 10
460.383
 20
718.345
 11
461.928
 21
717.313
  0
LINE
  8
0
 10
461.928
 20
717.313
 11
462.96
 21
715.768
  0
LINE
  8
0
 10
462.96
 20
715.768
 11
463.322
 21
713.945
  0
LINE
  8
0
 10
463.322
 20
713.945
 11
462.96
 21
712.122
  0
LINE
  8
0
 10
462.96
 20
712.122
 11
461.928
 21
710.577
  0
LINE
  8
0
 10
461.928
 20
710.577
 11
460.383
 21
709.545
  0
LINE
  8
0
 10
460.383
 20
709.545
 11
458.56
 21
709.182
  0
LINE
  8
0
 10
458.56
 20
709.182
 11
456.737
 21
709.545
  0
LINE
  8
0
 10
456.737
 20
709.545
 11
455.192
 21
710.577
  0
LINE
  8
0
 10
455.192
 20
710.577
 11
454.16
 21
712.122
  0
LINE
  8
0
 10
454.16
 20
712.122
 11
453.797
 21
713.945
  0
LINE
  8
0
 10
453.797
 20
781.255
 11
454.16
 21
783.078
  0
LINE
  8
0
 10
454.16
 20
783.078
 11
455.192
 21
784.623
  0
LINE
  8
0
 10
455.192
 20
784.623
 11
456.737
 21
785.655
  0
LINE
  8
0
 10
456.737
 20
785.655
 11
458.56
 21
786.017
  0
LINE
  8
0
 10
458.56
 20
786.017
 11
460.383
 21
785.655
  0
LINE
  8
0
 10
460.383
 20
785.655
 11
461.928
 21
784.623
  0
LINE
  8
0
 10
461.928
 20
784.623
 11
462.96
 21
783.078
  0
LINE
  8
0
 10
462.96
 20
783.078
 11
463.322
 21
781.255
  0
LINE
  8
0
 10
463.322
 20
781.255
 11
462.96
 21
779.432
  0
LINE
  8
0
 10
462.96
 20
779.432
 11
461.928
 21
777.887
  0
LINE
  8
0
 10
461.928
 20
777.887
 11
460.383
 21
776.855
  0
LINE
  8
0
 10
460.383
 20
776.855
 11
458.56
 21
776.492
  0
LINE
  8
0
 10
458.56
 20
776.492
 11
456.737
 21
776.855
  0
LINE
  8
0
 10
456.737
 20
776.855
 11
455.192
 21
777.887
  0
LINE
  8
0
 10
455.192
 20
777.887
 11
454.16
 21
779.432
  0
LINE
  8
0
 10
454.16
 20
779.432
 11
453.797
 21
781.255
  0
LINE
  8
0
 10
453.797
 20
856.82
 11
454.16
 21
858.643
  0
LINE
  8
0
 10
454.16
 20
858.643
 11
455.192
 21
860.188
  0
LINE
  8
0
 10
455.192
 20
860.188
 11
456.737
 21
861.22
  0
LINE
  8
0
 10
456.737
 20
861.22
 11
458.56
 21
861.582
  0
LINE
  8
0
 10
458.56
 20
861.582
 11
460.383
 21
861.22
  0
LINE
  8
0
 10
460.383
 20
861.22
 11
461.928
 21
860.188
  0
LINE
  8
0
 10
461.928
 20
860.188
 11
462.96
 21
858.643
  0
LINE
  8
0
 10
462.96
 20
858.643
 11
463.322
 21
856.82
  0
LINE
  8
0
 10
463.322
 20
856.82
 11
462.96
 21
854.997
  0
LINE
  8
0
 10
462.96
 20
854.997
 11
461.928
 21
853.452
  0
LINE
  8
0
 10
461.928
 20
853.452
 11
460.383
 21
852.42
  0
LINE
  8
0
 10
460.383
 20
852.42
 11
458.56
 21
852.057
  0
LINE
  8
0
 10
458.56
 20
852.057
 11
456.737
 21
852.42
  0
LINE
  8
0
 10
456.737
 20
852.42
 11
455.192
 21
853.452
  0
LINE
  8
0
 10
455.192
 20
853.452
 11
454.16
 21
854.997
  0
LINE
  8
0
 10
454.16
 20
854.997
 11
453.797
 21
856.82
  0
LINE
  8
0
 10
453.797
 20
930.48
 11
454.16
 21
932.303
  0
LINE
  8
0
 10
454.16
 20
932.303
 11
455.192
 21
933.848
  0
LINE
  8
0
 10
455.192
 20
933.848
 11
456.737
 21
934.88
  0
LINE
  8
0
 10
456.737
 20
934.88
 11
458.56
 21
935.242
  0
LINE
  8
0
 10
458.56
 20
935.242
 11
460.383
 21
934.88
  0
LINE
  8
0
 10
460.383
 20
934.88
 11
461.928
 21
933.848
  0
LINE
  8
0
 10
461.928
 20
933.848
 11
462.96
 21
932.303
  0
LINE
  8
0
 10
462.96
 20
932.303
 11
463.322
 21
930.48
  0
LINE
  8
0
 10
463.322
 20
930.48
 11
462.96
 21
928.657
  0
LINE
  8
0
 10
462.96
 20
928.657
 11
461.928
 21
927.112
  0
LINE
  8
0
 10
461.928
 20
927.112
 11
460.383
 21
926.08
  0
LINE
  8
0
 10
460.383
 20
926.08
 11
458.56
 21
925.717
  0
LINE
  8
0
 10
458.56
 20
925.717
 11
456.737
 21
926.08
  0
LINE
  8
0
 10
456.737
 20
926.08
 11
455.192
 21
927.112
  0
LINE
  8
0
 10
455.192
 20
927.112
 11
454.16
 21
928.657
  0
LINE
  8
0
 10
454.16
 20
928.657
 11
453.797
 21
930.48
  0
LINE
  8
0
 10
453.797
 20
989.52
 11
454.16
 21
991.343
  0
LINE
  8
0
 10
454.16
 20
991.343
 11
455.192
 21
992.888
  0
LINE
  8
0
 10
455.192
 20
992.888
 11
456.737
 21
993.92
  0
LINE
  8
0
 10
456.737
 20
993.92
 11
458.56
 21
994.282
  0
LINE
  8
0
 10
458.56
 20
994.282
 11
460.383
 21
993.92
  0
LINE
  8
0
 10
460.383
 20
993.92
 11
461.928
 21
992.888
  0
LINE
  8
0
 10
461.928
 20
992.888
 11
462.96
 21
991.343
  0
LINE
  8
0
 10
462.96
 20
991.343
 11
463.322
 21
989.52
  0
LINE
  8
0
 10
463.322
 20
989.52
 11
462.96
 21
987.697
  0
LINE
  8
0
 10
462.96
 20
987.697
 11
461.928
 21
986.152
  0
LINE
  8
0
 10
461.928
 20
986.152
 11
460.383
 21
985.12
  0
LINE
  8
0
 10
460.383
 20
985.12
 11
458.56
 21
984.757
  0
LINE
  8
0
 10
458.56
 20
984.757
 11
456.737
 21
985.12
  0
LINE
  8
0
 10
456.737
 20
985.12
 11
455.192
 21
986.152
  0
LINE
  8
0
 10
455.192
 20
986.152
 11
454.16
 21
987.697
  0
LINE
  8
0
 10
454.16
 20
987.697
 11
453.797
 21
989.52
  0
LINE
  8
0
 10
563.157
 20
30.48
 11
563.52
 21
32.3025
  0
LINE
  8
0
 10
563.52
 20
32.3025
 11
564.552
 21
33.8476
  0
LINE
  8
0
 10
564.552
 20
33.8476
 11
566.097
 21
34.88
  0
LINE
  8
0
 10
566.097
 20
34.88
 11
567.92
 21
35.2425
  0
LINE
  8
0
 10
567.92
 20
35.2425
 11
569.743
 21
34.88
  0
LINE
  8
0
 10
569.743
 20
34.88
 11
571.288
 21
33.8476
  0
LINE
  8
0
 10
571.288
 20
33.8476
 11
572.32
 21
32.3025
  0
LINE
  8
0
 10
572.32
 20
32.3025
 11
572.682
 21
30.48
  0
LINE
  8
0
 10
572.682
 20
30.48
 11
572.32
 21
28.6575
  0
LINE
  8
0
 10
572.32
 20
28.6575
 11
571.288
 21
27.1124
  0
LINE
  8
0
 10
571.288
 20
27.1124
 11
569.743
 21
26.08
  0
LINE
  8
0
 10
569.743
 20
26.08
 11
567.92
 21
25.7175
  0
LINE
  8
0
 10
567.92
 20
25.7175
 11
566.097
 21
26.08
  0
LINE
  8
0
 10
566.097
 20
26.08
 11
564.552
 21
27.1124
  0
LINE
  8
0
 10
564.552
 20
27.1124
 11
563.52
 21
28.6575
  0
LINE
  8
0
 10
563.52
 20
28.6575
 11
563.157
 21
30.48
  0
LINE
  8
0
 10
563.157
 20
89.52
 11
563.52
 21
91.3425
  0
LINE
  8
0
 10
563.52
 20
91.3425
 11
564.552
 21
92.8876
  0
LINE
  8
0
 10
564.552
 20
92.8876
 11
566.097
 21
93.92
  0
LINE
  8
0
 10
566.097
 20
93.92
 11
567.92
 21
94.2825
  0
LINE
  8
0
 10
567.92
 20
94.2825
 11
569.743
 21
93.92
  0
LINE
  8
0
 10
569.743
 20
93.92
 11
571.288
 21
92.8876
  0
LINE
  8
0
 10
571.288
 20
92.8876
 11
572.32
 21
91.3425
  0
LINE
  8
0
 10
572.32
 20
91.3425
 11
572.682
 21
89.52
  0
LINE
  8
0
 10
572.682
 20
89.52
 11
572.32
 21
87.6975
  0
LINE
  8
0
 10
572.32
 20
87.6975
 11
571.288
 21
86.1524
  0
LINE
  8
0
 10
571.288
 20
86.1524
 11
569.743
 21
85.12
  0
LINE
  8
0
 10
569.743
 20
85.12
 11
567.92
 21
84.7575
  0
LINE
  8
0
 10
567.92
 20
84.7575
 11
566.097
 21
85.12
  0
LINE
  8
0
 10
566.097
 20
85.12
 11
564.552
 21
86.1524
  0
LINE
  8
0
 10
564.552
 20
86.1524
 11
563.52
 21
87.6975
  0
LINE
  8
0
 10
563.52
 20
87.6975
 11
563.157
 21
89.52
  0
LINE
  8
0
 10
563.157
 20
163.18
 11
563.52
 21
165.003
  0
LINE
  8
0
 10
563.52
 20
165.003
 11
564.552
 21
166.548
  0
LINE
  8
0
 10
564.552
 20
166.548
 11
566.097
 21
167.58
  0
LINE
  8
0
 10
566.097
 20
167.58
 11
567.92
 21
167.943
  0
LINE
  8
0
 10
567.92
 20
167.943
 11
569.743
 21
167.58
  0
LINE
  8
0
 10
569.743
 20
167.58
 11
571.288
 21
166.548
  0
LINE
  8
0
 10
571.288
 20
166.548
 11
572.32
 21
165.003
  0
LINE
  8
0
 10
572.32
 20
165.003
 11
572.682
 21
163.18
  0
LINE
  8
0
 10
572.682
 20
163.18
 11
572.32
 21
161.357
  0
LINE
  8
0
 10
572.32
 20
161.357
 11
571.288
 21
159.812
  0
LINE
  8
0
 10
571.288
 20
159.812
 11
569.743
 21
158.78
  0
LINE
  8
0
 10
569.743
 20
158.78
 11
567.92
 21
158.418
  0
LINE
  8
0
 10
567.92
 20
158.418
 11
566.097
 21
158.78
  0
LINE
  8
0
 10
566.097
 20
158.78
 11
564.552
 21
159.812
  0
LINE
  8
0
 10
564.552
 20
159.812
 11
563.52
 21
161.357
  0
LINE
  8
0
 10
563.52
 20
161.357
 11
563.157
 21
163.18
  0
LINE
  8
0
 10
563.157
 20
238.745
 11
563.52
 21
240.568
  0
LINE
  8
0
 10
563.52
 20
240.568
 11
564.552
 21
242.113
  0
LINE
  8
0
 10
564.552
 20
242.113
 11
566.097
 21
243.145
  0
LINE
  8
0
 10
566.097
 20
243.145
 11
567.92
 21
243.508
  0
LINE
  8
0
 10
567.92
 20
243.508
 11
569.743
 21
243.145
  0
LINE
  8
0
 10
569.743
 20
243.145
 11
571.288
 21
242.113
  0
LINE
  8
0
 10
571.288
 20
242.113
 11
572.32
 21
240.568
  0
LINE
  8
0
 10
572.32
 20
240.568
 11
572.682
 21
238.745
  0
LINE
  8
0
 10
572.682
 20
238.745
 11
572.32
 21
236.922
  0
LINE
  8
0
 10
572.32
 20
236.922
 11
571.288
 21
235.377
  0
LINE
  8
0
 10
571.288
 20
235.377
 11
569.743
 21
234.345
  0
LINE
  8
0
 10
569.743
 20
234.345
 11
567.92
 21
233.983
  0
LINE
  8
0
 10
567.92
 20
233.983
 11
566.097
 21
234.345
  0
LINE
  8
0
 10
566.097
 20
234.345
 11
564.552
 21
235.377
  0
LINE
  8
0
 10
564.552
 20
235.377
 11
563.52
 21
236.922
  0
LINE
  8
0
 10
563.52
 20
236.922
 11
563.157
 21
238.745
  0
LINE
  8
0
 10
563.157
 20
306.055
 11
563.52
 21
307.878
  0
LINE
  8
0
 10
563.52
 20
307.878
 11
564.552
 21
309.423
  0
LINE
  8
0
 10
564.552
 20
309.423
 11
566.097
 21
310.455
  0
LINE
  8
0
 10
566.097
 20
310.455
 11
567.92
 21
310.818
  0
LINE
  8
0
 10
567.92
 20
310.818
 11
569.743
 21
310.455
  0
LINE
  8
0
 10
569.743
 20
310.455
 11
571.288
 21
309.423
  0
LINE
  8
0
 10
571.288
 20
309.423
 11
572.32
 21
307.878
  0
LINE
  8
0
 10
572.32
 20
307.878
 11
572.682
 21
306.055
  0
LINE
  8
0
 10
572.682
 20
306.055
 11
572.32
 21
304.232
  0
LINE
  8
0
 10
572.32
 20
304.232
 11
571.288
 21
302.687
  0
LINE
  8
0
 10
571.288
 20
302.687
 11
569.743
 21
301.655
  0
LINE
  8
0
 10
569.743
 20
301.655
 11
567.92
 21
301.293
  0
LINE
  8
0
 10
567.92
 20
301.293
 11
566.097
 21
301.655
  0
LINE
  8
0
 10
566.097
 20
301.655
 11
564.552
 21
302.687
  0
LINE
  8
0
 10
564.552
 20
302.687
 11
563.52
 21
304.232
  0
LINE
  8
0
 10
563.52
 20
304.232
 11
563.157
 21
306.055
  0
LINE
  8
0
 10
563.157
 20
713.945
 11
563.52
 21
715.768
  0
LINE
  8
0
 10
563.52
 20
715.768
 11
564.552
 21
717.313
  0
LINE
  8
0
 10
564.552
 20
717.313
 11
566.097
 21
718.345
  0
LINE
  8
0
 10
566.097
 20
718.345
 11
567.92
 21
718.707
  0
LINE
  8
0
 10
567.92
 20
718.707
 11
569.743
 21
718.345
  0
LINE
  8
0
 10
569.743
 20
718.345
 11
571.288
 21
717.313
  0
LINE
  8
0
 10
571.288
 20
717.313
 11
572.32
 21
715.768
  0
LINE
  8
0
 10
572.32
 20
715.768
 11
572.682
 21
713.945
  0
LINE
  8
0
 10
572.682
 20
713.945
 11
572.32
 21
712.122
  0
LINE
  8
0
 10
572.32
 20
712.122
 11
571.288
 21
710.577
  0
LINE
  8
0
 10
571.288
 20
710.577
 11
569.743
 21
709.545
  0
LINE
  8
0
 10
569.743
 20
709.545
 11
567.92
 21
709.182
  0
LINE
  8
0
 10
567.92
 20
709.182
 11
566.097
 21
709.545
  0
LINE
  8
0
 10
566.097
 20
709.545
 11
564.552
 21
710.577
  0
LINE
  8
0
 10
564.552
 20
710.577
 11
563.52
 21
712.122
  0
LINE
  8
0
 10
563.52
 20
712.122
 11
563.157
 21
713.945
  0
LINE
  8
0
 10
563.157
 20
781.255
 11
563.52
 21
783.078
  0
LINE
  8
0
 10
563.52
 20
783.078
 11
564.552
 21
784.623
  0
LINE
  8
0
 10
564.552
 20
784.623
 11
566.097
 21
785.655
  0
LINE
  8
0
 10
566.097
 20
785.655
 11
567.92
 21
786.017
  0
LINE
  8
0
 10
567.92
 20
786.017
 11
569.743
 21
785.655
  0
LINE
  8
0
 10
569.743
 20
785.655
 11
571.288
 21
784.623
  0
LINE
  8
0
 10
571.288
 20
784.623
 11
572.32
 21
783.078
  0
LINE
  8
0
 10
572.32
 20
783.078
 11
572.682
 21
781.255
  0
LINE
  8
0
 10
572.682
 20
781.255
 11
572.32
 21
779.432
  0
LINE
  8
0
 10
572.32
 20
779.432
 11
571.288
 21
777.887
  0
LINE
  8
0
 10
571.288
 20
777.887
 11
569.743
 21
776.855
  0
LINE
  8
0
 10
569.743
 20
776.855
 11
567.92
 21
776.492
  0
LINE
  8
0
 10
567.92
 20
776.492
 11
566.097
 21
776.855
  0
LINE
  8
0
 10
566.097
 20
776.855
 11
564.552
 21
777.887
  0
LINE
  8
0
 10
564.552
 20
777.887
 11
563.52
 21
779.432
  0
LINE
  8
0
 10
563.52
 20
779.432
 11
563.157
 21
781.255
  0
LINE
  8
0
 10
563.157
 20
856.82
 11
563.52
 21
858.643
  0
LINE
  8
0
 10
563.52
 20
858.643
 11
564.552
 21
860.188
  0
LINE
  8
0
 10
564.552
 20
860.188
 11
566.097
 21
861.22
  0
LINE
  8
0
 10
566.097
 20
861.22
 11
567.92
 21
861.582
  0
LINE
  8
0
 10
567.92
 20
861.582
 11
569.743
 21
861.22
  0
LINE
  8
0
 10
569.743
 20
861.22
 11
571.288
 21
860.188
  0
LINE
  8
0
 10
571.288
 20
860.188
 11
572.32
 21
858.643
  0
LINE
  8
0
 10
572.32
 20
858.643
 11
572.682
 21
856.82
  0
LINE
  8
0
 10
572.682
 20
856.82
 11
572.32
 21
854.997
  0
LINE
  8
0
 10
572.32
 20
854.997
 11
571.288
 21
853.452
  0
LINE
  8
0
 10
571.288
 20
853.452
 11
569.743
 21
852.42
  0
LINE
  8
0
 10
569.743
 20
852.42
 11
567.92
 21
852.057
  0
LINE
  8
0
 10
567.92
 20
852.057
 11
566.097
 21
852.42
  0
LINE
  8
0
 10
566.097
 20
852.42
 11
564.552
 21
853.452
  0
LINE
  8
0
 10
564.552
 20
853.452
 11
563.52
 21
854.997
  0
LINE
  8
0
 10
563.52
 20
854.997
 11
563.157
 21
856.82
  0
LINE
  8
0
 10
563.157
 20
930.48
 11
563.52
 21
932.303
  0
LINE
  8
0
 10
563.52
 20
932.303
 11
564.552
 21
933.848
  0
LINE
  8
0
 10
564.552
 20
933.848
 11
566.097
 21
934.88
  0
LINE
  8
0
 10
566.097
 20
934.88
 11
567.92
 21
935.242
  0
LINE
  8
0
 10
567.92
 20
935.242
 11
569.743
 21
934.88
  0
LINE
  8
0
 10
569.743
 20
934.88
 11
571.288
 21
933.848
  0
LINE
  8
0
 10
571.288
 20
933.848
 11
572.32
 21
932.303
  0
LINE
  8
0
 10
572.32
 20
932.303
 11
572.682
 21
930.48
  0
LINE
  8
0
 10
572.682
 20
930.48
 11
572.32
 21
928.657
  0
LINE
  8
0
 10
572.32
 20
928.657
 11
571.288
 21
927.112
  0
LINE
  8
0
 10
571.288
 20
927.112
 11
569.743
 21
926.08
  0
LINE
  8
0
 10
569.743
 20
926.08
 11
567.92
 21
925.717
  0
LINE
  8
0
 10
567.92
 20
925.717
 11
566.097
 21
926.08
  0
LINE
  8
0
 10
566.097
 20
926.08
 11
564.552
 21
927.112
  0
LINE
  8
0
 10
564.552
 20
927.112
 11
563.52
 21
928.657
  0
LINE
  8
0
 10
563.52
 20
928.657
 11
563.157
 21
930.48
  0
LINE
  8
0
 10
563.157
 20
989.52
 11
563.52
 21
991.343
  0
LINE
  8
0
 10
563.52
 20
991.343
 11
564.552
 21
992.888
  0
LINE
  8
0
 10
564.552
 20
992.888
 11
566.097
 21
993.92
  0
LINE
  8
0
 10
566.097
 20
993.92
 11
567.92
 21
994.282
  0
LINE
  8
0
 10
567.92
 20
994.282
 11
569.743
 21
993.92
  0
LINE
  8
0
 10
569.743
 20
993.92
 11
571.288
 21
992.888
  0
LINE
  8
0
 10
571.288
 20
992.888
 11
572.32
 21
991.343
  0
LINE
  8
0
 10
572.32
 20
991.343
 11
572.682
 21
989.52
  0
LINE
  8
0
 10
572.682
 20
989.52
 11
572.32
 21
987.697
  0
LINE
  8
0
 10
572.32
 20
987.697
 11
571.288
 21
986.152
  0
LINE
  8
0
 10
571.288
 20
986.152
 11
569.743
 21
985.12
  0
LINE
  8
0
 10
569.743
 20
985.12
 11
567.92
 21
984.757
  0
LINE
  8
0
 10
567.92
 20
984.757
 11
566.097
 21
985.12
  0
LINE
  8
0
 10
566.097
 20
985.12
 11
564.552
 21
986.152
  0
LINE
  8
0
 10
564.552
 20
986.152
 11
563.52
 21
987.697
  0
LINE
  8
0
 10
563.52
 20
987.697
 11
563.157
 21
989.52
  0
LINE
  8
0
 10
672.517
 20
30.48
 11
672.88
 21
32.3025
  0
LINE
  8
0
 10
672.88
 20
32.3025
 11
673.912
 21
33.8476
  0
LINE
  8
0
 10
673.912
 20
33.8476
 11
675.457
 21
34.88
  0
LINE
  8
0
 10
675.457
 20
34.88
 11
677.28
 21
35.2425
  0
LINE
  8
0
 10
677.28
 20
35.2425
 11
679.103
 21
34.88
  0
LINE
  8
0
 10
679.103
 20
34.88
 11
680.648
 21
33.8476
  0
LINE
  8
0
 10
680.648
 20
33.8476
 11
681.68
 21
32.3025
  0
LINE
  8
0
 10
681.68
 20
32.3025
 11
682.042
 21
30.48
  0
LINE
  8
0
 10
682.042
 20
30.48
 11
681.68
 21
28.6575
  0
LINE
  8
0
 10
681.68
 20
28.6575
 11
680.648
 21
27.1124
  0
LINE
  8
0
 10
680.648
 20
27.1124
 11
679.103
 21
26.08
  0
LINE
  8
0
 10
679.103
 20
26.08
 11
677.28
 21
25.7175
  0
LINE
  8
0
 10
677.28
 20
25.7175
 11
675.457
 21
26.08
  0
LINE
  8
0
 10
675.457
 20
26.08
 11
673.912
 21
27.1124
  0
LINE
  8
0
 10
673.912
 20
27.1124
 11
672.88
 21
28.6575
  0
LINE
  8
0
 10
672.88
 20
28.6575
 11
672.517
 21
30.48
  0
LINE
  8
0
 10
672.517
 20
89.52
 11
672.88
 21
91.3425
  0
LINE
  8
0
 10
672.88
 20
91.3425
 11
673.912
 21
92.8876
  0
LINE
  8
0
 10
673.912
 20
92.8876
 11
675.457
 21
93.92
  0
LINE
  8
0
 10
675.457
 20
93.92
 11
677.28
 21
94.2825
  0
LINE
  8
0
 10
677.28
 20
94.2825
 11
679.103
 21
93.92
  0
LINE
  8
0
 10
679.103
 20
93.92
 11
680.648
 21
92.8876
  0
LINE
  8
0
 10
680.648
 20
92.8876
 11
681.68
 21
91.3425
  0
LINE
  8
0
 10
681.68
 20
91.3425
 11
682.042
 21
89.52
  0
LINE
  8
0
 10
682.042
 20
89.52
 11
681.68
 21
87.6975
  0
LINE
  8
0
 10
681.68
 20
87.6975
 11
680.648
 21
86.1524
  0
LINE
  8
0
 10
680.648
 20
86.1524
 11
679.103
 21
85.12
  0
LINE
  8
0
 10
679.103
 20
85.12
 11
677.28
 21
84.7575
  0
LINE
  8
0
 10
677.28
 20
84.7575
 11
675.457
 21
85.12
  0
LINE
  8
0
 10
675.457
 20
85.12
 11
673.912
 21
86.1524
  0
LINE
  8
0
 10
673.912
 20
86.1524
 11
672.88
 21
87.6975
  0
LINE
  8
0
 10
672.88
 20
87.6975
 11
672.517
 21
89.52
  0
LINE
  8
0
 10
672.517
 20
163.18
 11
672.88
 21
165.003
  0
LINE
  8
0
 10
672.88
 20
165.003
 11
673.912
 21
166.548
  0
LINE
  8
0
 10
673.912
 20
166.548
 11
675.457
 21
167.58
  0
LINE
  8
0
 10
675.457
 20
167.58
 11
677.28
 21
167.943
  0
LINE
  8
0
 10
677.28
 20
167.943
 11
679.103
 21
167.58
  0
LINE
  8
0
 10
679.103
 20
167.58
 11
680.648
 21
166.548
  0
LINE
  8
0
 10
680.648
 20
166.548
 11
681.68
 21
165.003
  0
LINE
  8
0
 10
681.68
 20
165.003
 11
682.042
 21
163.18
  0
LINE
  8
0
 10
682.042
 20
163.18
 11
681.68
 21
161.357
  0
LINE
  8
0
 10
681.68
 20
161.357
 11
680.648
 21
159.812
  0
LINE
  8
0
 10
680.648
 20
159.812
 11
679.103
 21
158.78
  0
LINE
  8
0
 10
679.103
 20
158.78
 11
677.28
 21
158.418
  0
LINE
  8
0
 10
677.28
 20
158.418
 11
675.457
 21
158.78
  0
LINE
  8
0
 10
675.457
 20
158.78
 11
673.912
 21
159.812
  0
LINE
  8
0
 10
673.912
 20
159.812
 11
672.88
 21
161.357
  0
LINE
  8
0
 10
672.88
 20
161.357
 11
672.517
 21
163.18
  0
LINE
  8
0
 10
672.517
 20
238.745
 11
672.88
 21
240.568
  0
LINE
  8
0
 10
672.88
 20
240.568
 11
673.912
 21
242.113
  0
LINE
  8
0
 10
673.912
 20
242.113
 11
675.457
 21
243.145
  0
LINE
  8
0
 10
675.457
 20
243.145
 11
677.28
 21
243.508
  0
LINE
  8
0
 10
677.28
 20
243.508
 11
679.103
 21
243.145
  0
LINE
  8
0
 10
679.103
 20
243.145
 11
680.648
 21
242.113
  0
LINE
  8
0
 10
680.648
 20
242.113
 11
681.68
 21
240.568
  0
LINE
  8
0
 10
681.68
 20
240.568
 11
682.042
 21
238.745
  0
LINE
  8
0
 10
682.042
 20
238.745
 11
681.68
 21
236.922
  0
LINE
  8
0
 10
681.68
 20
236.922
 11
680.648
 21
235.377
  0
LINE
  8
0
 10
680.648
 20
235.377
 11
679.103
 21
234.345
  0
LINE
  8
0
 10
679.103
 20
234.345
 11
677.28
 21
233.983
  0
LINE
  8
0
 10
677.28
 20
233.983
 11
675.457
 21
234.345
  0
LINE
  8
0
 10
675.457
 20
234.345
 11
673.912
 21
235.377
  0
LINE
  8
0
 10
673.912
 20
235.377
 11
672.88
 21
236.922
  0
LINE
  8
0
 10
672.88
 20
236.922
 11
672.517
 21
238.745
  0
LINE
  8
0
 10
672.517
 20
306.055
 11
672.88
 21
307.878
  0
LINE
  8
0
 10
672.88
 20
307.878
 11
673.912
 21
309.423
  0
LINE
  8
0
 10
673.912
 20
309.423
 11
675.457
 21
310.455
  0
LINE
  8
0
 10
675.457
 20
310.455
 11
677.28
 21
310.818
  0
LINE
  8
0
 10
677.28
 20
310.818
 11
679.103
 21
310.455
  0
LINE
  8
0
 10
679.103
 20
310.455
 11
680.648
 21
309.423
  0
LINE
  8
0
 10
680.648
 20
309.423
 11
681.68
 21
307.878
  0
LINE
  8
0
 10
681.68
 20
307.878
 11
682.042
 21
306.055
  0
LINE
  8
0
 10
682.042
 20
306.055
 11
681.68
 21
304.232
  0
LINE
  8
0
 10
681.68
 20
304.232
 11
680.648
 21
302.687
  0
LINE
  8
0
 10
680.648
 20
302.687
 11
679.103
 21
301.655
  0
LINE
  8
0
 10
679.103
 20
301.655
 11
677.28
 21
301.293
  0
LINE
  8
0
 10
677.28
 20
301.293
 11
675.457
 21
301.655
  0
LINE
  8
0
 10
675.457
 20
301.655
 11
673.912
 21
302.687
  0
LINE
  8
0
 10
673.912
 20
302.687
 11
672.88
 21
304.232
  0
LINE
  8
0
 10
672.88
 20
304.232
 11
672.517
 21
306.055
  0
LINE
  8
0
 10
672.517
 20
713.945
 11
672.88
 21
715.768
  0
LINE
  8
0
 10
672.88
 20
715.768
 11
673.912
 21
717.313
  0
LINE
  8
0
 10
673.912
 20
717.313
 11
675.457
 21
718.345
  0
LINE
  8
0
 10
675.457
 20
718.345
 11
677.28
 21
718.707
  0
LINE
  8
0
 10
677.28
 20
718.707
 11
679.103
 21
718.345
  0
LINE
  8
0
 10
679.103
 20
718.345
 11
680.648
 21
717.313
  0
LINE
  8
0
 10
680.648
 20
717.313
 11
681.68
 21
715.768
  0
LINE
  8
0
 10
681.68
 20
715.768
 11
682.042
 21
713.945
  0
LINE
  8
0
 10
682.042
 20
713.945
 11
681.68
 21
712.122
  0
LINE
  8
0
 10
681.68
 20
712.122
 11
680.648
 21
710.577
  0
LINE
  8
0
 10
680.648
 20
710.577
 11
679.103
 21
709.545
  0
LINE
  8
0
 10
679.103
 20
709.545
 11
677.28
 21
709.182
  0
LINE
  8
0
 10
677.28
 20
709.182
 11
675.457
 21
709.545
  0
LINE
  8
0
 10
675.457
 20
709.545
 11
673.912
 21
710.577
  0
LINE
  8
0
 10
673.912
 20
710.577
 11
672.88
 21
712.122
  0
LINE
  8
0
 10
672.88
 20
712.122
 11
672.517
 21
713.945
  0
LINE
  8
0
 10
672.517
 20
781.255
 11
672.88
 21
783.078
  0
LINE
  8
0
 10
672.88
 20
783.078
 11
673.912
 21
784.623
  0
LINE
  8
0
 10
673.912
 20
784.623
 11
675.457
 21
785.655
  0
LINE
  8
0
 10
675.457
 20
785.655
 11
677.28
 21
786.017
  0
LINE
  8
0
 10
677.28
 20
786.017
 11
679.103
 21
785.655
  0
LINE
  8
0
 10
679.103
 20
785.655
 11
680.648
 21
784.623
  0
LINE
  8
0
 10
680.648
 20
784.623
 11
681.68
 21
783.078
  0
LINE
  8
0
 10
681.68
 20
783.078
 11
682.042
 21
781.255
  0
LINE
  8
0
 10
682.042
 20
781.255
 11
681.68
 21
779.432
  0
LINE
  8
0
 10
681.68
 20
779.432
 11
680.648
 21
777.887
  0
LINE
  8
0
 10
680.648
 20
777.887
 11
679.103
 21
776.855
  0
LINE
  8
0
 10
679.103
 20
776.855
 11
677.28
 21
776.492
  0
LINE
  8
0
 10
677.28
 20
776.492
 11
675.457
 21
776.855
  0
LINE
  8
0
 10
675.457
 20
776.855
 11
673.912
 21
777.887
  0
LINE
  8
0
 10
673.912
 20
777.887
 11
672.88
 21
779.432
  0
LINE
  8
0
 10
672.88
 20
779.432
 11
672.517
 21
781.255
  0
LINE
  8
0
 10
672.517
 20
856.82
 11
672.88
 21
858.643
  0
LINE
  8
0
 10
672.88
 20
858.643
 11
673.912
 21
860.188
  0
LINE
  8
0
 10
673.912
 20
860.188
 11
675.457
 21
861.22
  0
LINE
  8
0
 10
675.457
 20
861.22
 11
677.28
 21
861.582
  0
LINE
  8
0
 10
677.28
 20
861.582
 11
679.103
 21
861.22
  0
LINE
  8
0
 10
679.103
 20
861.22
 11
680.648
 21
860.188
  0
LINE
  8
0
 10
680.648
 20
860.188
 11
681.68
 21
858.643
  0
LINE
  8
0
 10
681.68
 20
858.643
 11
682.042
 21
856.82
  0
LINE
  8
0
 10
682.042
 20
856.82
 11
681.68
 21
854.997
  0
LINE
  8
0
 10
681.68
 20
854.997
 11
680.648
 21
853.452
  0
LINE
  8
0
 10
680.648
 20
853.452
 11
679.103
 21
852.42
  0
LINE
  8
0
 10
679.103
 20
852.42
 11
677.28
 21
852.057
  0
LINE
  8
0
 10
677.28
 20
852.057
 11
675.457
 21
852.42
  0
LINE
  8
0
 10
675.457
 20
852.42
 11
673.912
 21
853.452
  0
LINE
  8
0
 10
673.912
 20
853.452
 11
672.88
 21
854.997
  0
LINE
  8
0
 10
672.88
 20
854.997
 11
672.517
 21
856.82
  0
LINE
  8
0
 10
672.517
 20
930.48
 11
672.88
 21
932.303
  0
LINE
  8
0
 10
672.88
 20
932.303
 11
673.912
 21
933.848
  0
LINE
  8
0
 10
673.912
 20
933.848
 11
675.457
 21
934.88
  0
LINE
  8
0
 10
675.457
 20
934.88
 11
677.28
 21
935.242
  0
LINE
  8
0
 10
677.28
 20
935.242
 11
679.103
 21
934.88
  0
LINE
  8
0
 10
679.103
 20
934.88
 11
680.648
 21
933.848
  0
LINE
  8
0
 10
680.648
 20
933.848
 11
681.68
 21
932.303
  0
LINE
  8
0
 10
681.68
 20
932.303
 11
682.042
 21
930.48
  0
LINE
  8
0
 10
682.042
 20
930.48
 11
681.68
 21
928.657
  0
LINE
  8
0
 10
681.68
 20
928.657
 11
680.648
 21
927.112
  0
LINE
  8
0
 10
680.648
 20
927.112
 11
679.103
 21
926.08
  0
LINE
  8
0
 10
679.103
 20
926.08
 11
677.28
 21
925.717
  0
LINE
  8
0
 10
677.28
 20
925.717
 11
675.457
 21
926.08
  0
LINE
  8
0
 10
675.457
 20
926.08
 11
673.912
 21
927.112
  0
LINE
  8
0
 10
673.912
 20
927.112
 11
672.88
 21
928.657
  0
LINE
  8
0
 10
672.88
 20
928.657
 11
672.517
 21
930.48
  0
LINE
  8
0
 10
672.517
 20
989.52
 11
672.88
 21
991.343
  0
LINE
  8
0
 10
672.88
 20
991.343
 11
673.912
 21
992.888
  0
LINE
  8
0
 10
673.912
 20
992.888
 11
675.457
 21
993.92
  0
LINE
  8
0
 10
675.457
 20
993.92
 11
677.28
 21
994.282
  0
LINE
  8
0
 10
677.28
 20
994.282
 11
679.103
 21
993.92
  0
LINE
  8
0
 10
679.103
 20
993.92
 11
680.648
 21
992.888
  0
LINE
  8
0
 10
680.648
 20
992.888
 11
681.68
 21
991.343
  0
LINE
  8
0
 10
681.68
 20
991.343
 11
682.042
 21
989.52
  0
LINE
  8
0
 10
682.042
 20
989.52
 11
681.68
 21
987.697
  0
LINE
  8
0
 10
681.68
 20
987.697
 11
680.648
 21
986.152
  0
LINE
  8
0
 10
680.648
 20
986.152
 11
679.103
 21
985.12
  0
LINE
  8
0
 10
679.103
 20
985.12
 11
677.28
 21
984.757
  0
LINE
  8
0
 10
677.28
 20
984.757
 11
675.457
 21
985.12
  0
LINE
  8
0
 10
675.457
 20
985.12
 11
673.912
 21
986.152
  0
LINE
  8
0
 10
673.912
 20
986.152
 11
672.88
 21
987.697
  0
LINE
  8
0
 10
672.88
 20
987.697
 11
672.517
 21
989.52
  0
LINE
  8
0
 10
781.877
 20
30.48
 11
782.24
 21
32.3025
  0
LINE
  8
0
 10
782.24
 20
32.3025
 11
783.272
 21
33.8476
  0
LINE
  8
0
 10
783.272
 20
33.8476
 11
784.817
 21
34.88
  0
LINE
  8
0
 10
784.817
 20
34.88
 11
786.64
 21
35.2425
  0
LINE
  8
0
 10
786.64
 20
35.2425
 11
788.463
 21
34.88
  0
LINE
  8
0
 10
788.463
 20
34.88
 11
790.008
 21
33.8476
  0
LINE
  8
0
 10
790.008
 20
33.8476
 11
791.04
 21
32.3025
  0
LINE
  8
0
 10
791.04
 20
32.3025
 11
791.402
 21
30.48
  0
LINE
  8
0
 10
791.402
 20
30.48
 11
791.04
 21
28.6575
  0
LINE
  8
0
 10
791.04
 20
28.6575
 11
790.008
 21
27.1124
  0
LINE
  8
0
 10
790.008
 20
27.1124
 11
788.463
 21
26.08
  0
LINE
  8
0
 10
788.463
 20
26.08
 11
786.64
 21
25.7175
  0
LINE
  8
0
 10
786.64
 20
25.7175
 11
784.817
 21
26.08
  0
LINE
  8
0
 10
784.817
 20
26.08
 11
783.272
 21
27.1124
  0
LINE
  8
0
 10
783.272
 20
27.1124
 11
782.24
 21
28.6575
  0
LINE
  8
0
 10
782.24
 20
28.6575
 11
781.877
 21
30.48
  0
LINE
  8
0
 10
781.877
 20
89.52
 11
782.24
 21
91.3425
  0
LINE
  8
0
 10
782.24
 20
91.3425
 11
783.272
 21
92.8876
  0
LINE
  8
0
 10
783.272
 20
92.8876
 11
784.817
 21
93.92
  0
LINE
  8
0
 10
784.817
 20
93.92
 11
786.64
 21
94.2825
  0
LINE
  8
0
 10
786.64
 20
94.2825
 11
788.463
 21
93.92
  0
LINE
  8
0
 10
788.463
 20
93.92
 11
790.008
 21
92.8876
  0
LINE
  8
0
 10
790.008
 20
92.8876
 11
791.04
 21
91.3425
  0
LINE
  8
0
 10
791.04
 20
91.3425
 11
791.402
 21
89.52
  0
LINE
  8
0
 10
791.402
 20
89.52
 11
791.04
 21
87.6975
  0
LINE
  8
0
 10
791.04
 20
87.6975
 11
790.008
 21
86.1524
  0
LINE
  8
0
 10
790.008
 20
86.1524
 11
788.463
 21
85.12
  0
LINE
  8
0
 10
788.463
 20
85.12
 11
786.64
 21
84.7575
  0
LINE
  8
0
 10
786.64
 20
84.7575
 11
784.817
 21
85.12
  0
LINE
  8
0
 10
784.817
 20
85.12
 11
783.272
 21
86.1524
  0
LINE
  8
0
 10
783.272
 20
86.1524
 11
782.24
 21
87.6975
  0
LINE
  8
0
 10
782.24
 20
87.6975
 11
781.877
 21
89.52
  0
LINE
  8
0
 10
781.877
 20
163.18
 11
782.24
 21
165.003
  0
LINE
  8
0
 10
782.24
 20
165.003
 11
783.272
 21
166.548
  0
LINE
  8
0
 10
783.272
 20
166.548
 11
784.817
 21
167.58
  0
LINE
  8
0
 10
784.817
 20
167.58
 11
786.64
 21
167.943
  0
LINE
  8
0
 10
786.64
 20
167.943
 11
788.463
 21
167.58
  0
LINE
  8
0
 10
788.463
 20
167.58
 11
790.008
 21
166.548
  0
LINE
  8
0
 10
790.008
 20
166.548
 11
791.04
 21
165.003
  0
LINE
  8
0
 10
791.04
 20
165.003
 11
791.402
 21
163.18
  0
LINE
  8
0
 10
791.402
 20
163.18
 11
791.04
 21
161.357
  0
LINE
  8
0
 10
791.04
 20
161.357
 11
790.008
 21
159.812
  0
LINE
  8
0
 10
790.008
 20
159.812
 11
788.463
 21
158.78
  0
LINE
  8
0
 10
788.463
 20
158.78
 11
786.64
 21
158.418
  0
LINE
  8
0
 10
786.64
 20
158.418
 11
784.817
 21
158.78
  0
LINE
  8
0
 10
784.817
 20
158.78
 11
783.272
 21
159.812
  0
LINE
  8
0
 10
783.272
 20
159.812
 11
782.24
 21
161.357
  0
LINE
  8
0
 10
782.24
 20
161.357
 11
781.877
 21
163.18
  0
LINE
  8
0
 10
781.877
 20
238.745
 11
782.24
 21
240.568
  0
LINE
  8
0
 10
782.24
 20
240.568
 11
783.272
 21
242.113
  0
LINE
  8
0
 10
783.272
 20
242.113
 11
784.817
 21
243.145
  0
LINE
  8
0
 10
784.817
 20
243.145
 11
786.64
 21
243.508
  0
LINE
  8
0
 10
786.64
 20
243.508
 11
788.463
 21
243.145
  0
LINE
  8
0
 10
788.463
 20
243.145
 11
790.008
 21
242.113
  0
LINE
  8
0
 10
790.008
 20
242.113
 11
791.04
 21
240.568
  0
LINE
  8
0
 10
791.04
 20
240.568
 11
791.402
 21
238.745
  0
LINE
  8
0
 10
791.402
 20
238.745
 11
791.04
 21
236.922
  0
LINE
  8
0
 10
791.04
 20
236.922
 11
790.008
 21
235.377
  0
LINE
  8
0
 10
790.008
 20
235.377
 11
788.463
 21
234.345
  0
LINE
  8
0
 10
788.463
 20
234.345
 11
786.64
 21
233.983
  0
LINE
  8
0
 10
786.64
 20
233.983
 11
784.817
 21
234.345
  0
LINE
  8
0
 10
784.817
 20
234.345
 11
783.272
 21
235.377
  0
LINE
  8
0
 10
783.272
 20
235.377
 11
782.24
 21
236.922
  0
LINE
  8
0
 10
782.24
 20
236.922
 11
781.877
 21
238.745
  0
LINE
  8
0
 10
781.877
 20
306.055
 11
782.24
 21
307.878
  0
LINE
  8
0
 10
782.24
 20
307.878
 11
783.272
 21
309.423
  0
LINE
  8
0
 10
783.272
 20
309.423
 11
784.817
 21
310.455
  0
LINE
  8
0
 10
784.817
 20
310.455
 11
786.64
 21
310.818
  0
LINE
  8
0
 10
786.64
 20
310.818
 11
788.463
 21
310.455
  0
LINE
  8
0
 10
788.463
 20
310.455
 11
790.008
 21
309.423
  0
LINE
  8
0
 10
790.008
 20
309.423
 11
791.04
 21
307.878
  0
LINE
  8
0
 10
791.04
 20
307.878
 11
791.402
 21
306.055
  0
LINE
  8
0
 10
791.402
 20
306.055
 11
791.04
 21
304.232
  0
LINE
  8
0
 10
791.04
 20
304.232
 11
790.008
 21
302.687
  0
LINE
  8
0
 10
790.008
 20
302.687
 11
788.463
 21
301.655
  0
LINE
  8
0
 10
788.463
 20
301.655
 11
786.64
 21
301.293
  0
LINE
  8
0
 10
786.64
 20
301.293
 11
784.817
 21
301.655
  0
LINE
  8
0
 10
784.817
 20
301.655
 11
783.272
 21
302.687
  0
LINE
  8
0
 10
783.272
 20
302.687
 11
782.24
 21
304.232
  0
LINE
  8
0
 10
782.24
 20
304.232
 11
781.877
 21
306.055
  0
LINE
  8
0
 10
781.877
 20
713.945
 11
782.24
 21
715.768
  0
LINE
  8
0
 10
782.24
 20
715.768
 11
783.272
 21
717.313
  0
LINE
  8
0
 10
783.272
 20
717.313
 11
784.817
 21
718.345
  0
LINE
  8
0
 10
784.817
 20
718.345
 11
786.64
 21
718.707
  0
LINE
  8
0
 10
786.64
 20
718.707
 11
788.463
 21
718.345
  0
LINE
  8
0
 10
788.463
 20
718.345
 11
790.008
 21
717.313
  0
LINE
  8
0
 10
790.008
 20
717.313
 11
791.04
 21
715.768
  0
LINE
  8
0
 10
791.04
 20
715.768
 11
791.402
 21
713.945
  0
LINE
  8
0
 10
791.402
 20
713.945
 11
791.04
 21
712.122
  0
LINE
  8
0
 10
791.04
 20
712.122
 11
790.008
 21
710.577
  0
LINE
  8
0
 10
790.008
 20
710.577
 11
788.463
 21
709.545
  0
LINE
  8
0
 10
788.463
 20
709.545
 11
786.64
 21
709.182
  0
LINE
  8
0
 10
786.64
 20
709.182
 11
784.817
 21
709.545
  0
LINE
  8
0
 10
784.817
 20
709.545
 11
783.272
 21
710.577
  0
LINE
  8
0
 10
783.272
 20
710.577
 11
782.24
 21
712.122
  0
LINE
  8
0
 10
782.24
 20
712.122
 11
781.877
 21
713.945
  0
LINE
  8
0
 10
781.877
 20
781.255
 11
782.24
 21
783.078
  0
LINE
  8
0
 10
782.24
 20
783.078
 11
783.272
 21
784.623
  0
LINE
  8
0
 10
783.272
 20
784.623
 11
784.817
 21
785.655
  0
LINE
  8
0
 10
784.817
 20
785.655
 11
786.64
 21
786.017
  0
LINE
  8
0
 10
786.64
 20
786.017
 11
788.463
 21
785.655
  0
LINE
  8
0
 10
788.463
 20
785.655
 11
790.008
 21
784.623
  0
LINE
  8
0
 10
790.008
 20
784.623
 11
791.04
 21
783.078
  0
LINE
  8
0
 10
791.04
 20
783.078
 11
791.402
 21
781.255
  0
LINE
  8
0
 10
791.402
 20
781.255
 11
791.04
 21
779.432
  0
LINE
  8
0
 10
791.04
 20
779.432
 11
790.008
 21
777.887
  0
LINE
  8
0
 10
790.008
 20
777.887
 11
788.463
 21
776.855
  0
LINE
  8
0
 10
788.463
 20
776.855
 11
786.64
 21
776.492
  0
LINE
  8
0
 10
786.64
 20
776.492
 11
784.817
 21
776.855
  0
LINE
  8
0
 10
784.817
 20
776.855
 11
783.272
 21
777.887
  0
LINE
  8
0
 10
783.272
 20
777.887
 11
782.24
 21
779.432
  0
LINE
  8
0
 10
782.24
 20
779.432
 11
781.877
 21
781.255
  0
LINE
  8
0
 10
781.877
 20
856.82
 11
782.24
 21
858.643
  0
LINE
  8
0
 10
782.24
 20
858.643
 11
783.272
 21
860.188
  0
LINE
  8
0
 10
783.272
 20
860.188
 11
784.817
 21
861.22
  0
LINE
  8
0
 10
784.817
 20
861.22
 11
786.64
 21
861.582
  0
LINE
  8
0
 10
786.64
 20
861.582
 11
788.463
 21
861.22
  0
LINE
  8
0
 10
788.463
 20
861.22
 11
790.008
 21
860.188
  0
LINE
  8
0
 10
790.008
 20
860.188
 11
791.04
 21
858.643
  0
LINE
  8
0
 10
791.04
 20
858.643
 11
791.402
 21
856.82
  0
LINE
  8
0
 10
791.402
 20
856.82
 11
791.04
 21
854.997
  0
LINE
  8
0
 10
791.04
 20
854.997
 11
790.008
 21
853.452
  0
LINE
  8
0
 10
790.008
 20
853.452
 11
788.463
 21
852.42
  0
LINE
  8
0
 10
788.463
 20
852.42
 11
786.64
 21
852.057
  0
LINE
  8
0
 10
786.64
 20
852.057
 11
784.817
 21
852.42
  0
LINE
  8
0
 10
784.817
 20
852.42
 11
783.272
 21
853.452
  0
LINE
  8
0
 10
783.272
 20
853.452
 11
782.24
 21
854.997
  0
LINE
  8
0
 10
782.24
 20
854.997
 11
781.877
 21
856.82
  0
LINE
  8
0
 10
781.877
 20
930.48
 11
782.24
 21
932.303
  0
LINE
  8
0
 10
782.24
 20
932.303
 11
783.272
 21
933.848
  0
LINE
  8
0
 10
783.272
 20
933.848
 11
784.817
 21
934.88
  0
LINE
  8
0
 10
784.817
 20
934.88
 11
786.64
 21
935.242
  0
LINE
  8
0
 10
786.64
 20
935.242
 11
788.463
 21
934.88
  0
LINE
  8
0
 10
788.463
 20
934.88
 11
790.008
 21
933.848
  0
LINE
  8
0
 10
790.008
 20
933.848
 11
791.04
 21
932.303
  0
LINE
  8
0
 10
791.04
 20
932.303
 11
791.402
 21
930.48
  0
LINE
  8
0
 10
791.402
 20
930.48
 11
791.04
 21
928.657
  0
LINE
  8
0
 10
791.04
 20
928.657
 11
790.008
 21
927.112
  0
LINE
  8
0
 10
790.008
 20
927.112
 11
788.463
 21
926.08
  0
LINE
  8
0
 10
788.463
 20
926.08
 11
786.64
 21
925.717
  0
LINE
  8
0
 10
786.64
 20
925.717
 11
784.817
 21
926.08
  0
LINE
  8
0
 10
784.817
 20
926.08
 11
783.272
 21
927.112
  0
LINE
  8
0
 10
783.272
 20
927.112
 11
782.24
 21
928.657
  0
LINE
  8
0
 10
782.24
 20
928.657
 11
781.877
 21
930.48
  0
LINE
  8
0
 10
781.877
 20
989.52
 11
782.24
 21
991.343
  0
LINE
  8
0
 10
782.24
 20
991.343
 11
783.272
 21
992.888
  0
LINE
  8
0
 10
783.272
 20
992.888
 11
784.817
 21
993.92
  0
LINE
  8
0
 10
784.817
 20
993.92
 11
786.64
 21
994.282
  0
LINE
  8
0
 10
786.64
 20
994.282
 11
788.463
 21
993.92
  0
LINE
  8
0
 10
788.463
 20
993.92
 11
790.008
 21
992.888
  0
LINE
  8
0
 10
790.008
 20
992.888
 11
791.04
 21
991.343
  0
LINE
  8
0
 10
791.04
 20
991.343
 11
791.402
 21
989.52
  0
LINE
  8
0
 10
791.402
 20
989.52
 11
791.04
 21
987.697
  0
LINE
  8
0
 10
791.04
 20
987.697
 11
790.008
 21
986.152
  0
LINE
  8
0
 10
790.008
 20
986.152
 11
788.463
 21
985.12
  0
LINE
  8
0
 10
788.463
 20
985.12
 11
786.64
 21
984.757
  0
LINE
  8
0
 10
786.64
 20
984.757
 11
784.817
 21
985.12
  0
LINE
  8
0
 10
784.817
 20
985.12
 11
783.272
 21
986.152
  0
LINE
  8
0
 10
783.272
 20
986.152
 11
782.24
 21
987.697
  0
LINE
  8
0
 10
782.24
 20
987.697
 11
781.877
 21
989.52
  0
LINE
  8
0
 10
1118.84
 20
30.48
 11
1119.2
 21
32.3025
  0
LINE
  8
0
 10
1119.2
 20
32.3025
 11
1120.23
 21
33.8476
  0
LINE
  8
0
 10
1120.23
 20
33.8476
 11
1121.78
 21
34.88
  0
LINE
  8
0
 10
1121.78
 20
34.88
 11
1123.6
 21
35.2425
  0
LINE
  8
0
 10
1123.6
 20
35.2425
 11
1125.42
 21
34.88
  0
LINE
  8
0
 10
1125.42
 20
34.88
 11
1126.97
 21
33.8476
  0
LINE
  8
0
 10
1126.97
 20
33.8476
 11
1128
 21
32.3025
  0
LINE
  8
0
 10
1128
 20
32.3025
 11
1128.36
 21
30.48
  0
LINE
  8
0
 10
1128.36
 20
30.48
 11
1128
 21
28.6575
  0
LINE
  8
0
 10
1128
 20
28.6575
 11
1126.97
 21
27.1124
  0
LINE
  8
0
 10
1126.97
 20
27.1124
 11
1125.42
 21
26.08
  0
LINE
  8
0
 10
1125.42
 20
26.08
 11
1123.6
 21
25.7175
  0
LINE
  8
0
 10
1123.6
 20
25.7175
 11
1121.78
 21
26.08
  0
LINE
  8
0
 10
1121.78
 20
26.08
 11
1120.23
 21
27.1124
  0
LINE
  8
0
 10
1120.23
 20
27.1124
 11
1119.2
 21
28.6575
  0
LINE
  8
0
 10
1119.2
 20
28.6575
 11
1118.84
 21
30.48
  0
LINE
  8
0
 10
1118.84
 20
89.52
 11
1119.2
 21
91.3425
  0
LINE
  8
0
 10
1119.2
 20
91.3425
 11
1120.23
 21
92.8876
  0
LINE
  8
0
 10
1120.23
 20
92.8876
 11
1121.78
 21
93.92
  0
LINE
  8
0
 10
1121.78
 20
93.92
 11
1123.6
 21
94.2825
  0
LINE
  8
0
 10
1123.6
 20
94.2825
 11
1125.42
 21
93.92
  0
LINE
  8
0
 10
1125.42
 20
93.92
 11
1126.97
 21
92.8876
  0
LINE
  8
0
 10
1126.97
 20
92.8876
 11
1128
 21
91.3425
  0
LINE
  8
0
 10
1128
 20
91.3425
 11
1128.36
 21
89.52
  0
LINE
  8
0
 10
1128.36
 20
89.52
 11
1128
 21
87.6975
  0
LINE
  8
0
 10
1128
 20
87.6975
 11
1126.97
 21
86.1524
  0
LINE
  8
0
 10
1126.97
 20
86.1524
 11
1125.42
 21
85.12
  0
LINE
  8
0
 10
1125.42
 20
85.12
 11
1123.6
 21
84.7575
  0
LINE
  8
0
 10
1123.6
 20
84.7575
 11
1121.78
 21
85.12
  0
LINE
  8
0
 10
1121.78
 20
85.12
 11
1120.23
 21
86.1524
  0
LINE
  8
0
 10
1120.23
 20
86.1524
 11
1119.2
 21
87.6975
  0
LINE
  8
0
 10
1119.2
 20
87.6975
 11
1118.84
 21
89.52
  0
LINE
  8
0
 10
1118.84
 20
163.18
 11
1119.2
 21
165.003
  0
LINE
  8
0
 10
1119.2
 20
165.003
 11
1120.23
 21
166.548
  0
LINE
  8
0
 10
1120.23
 20
166.548
 11
1121.78
 21
167.58
  0
LINE
  8
0
 10
1121.78
 20
167.58
 11
1123.6
 21
167.943
  0
LINE
  8
0
 10
1123.6
 20
167.943
 11
1125.42
 21
167.58
  0
LINE
  8
0
 10
1125.42
 20
167.58
 11
1126.97
 21
166.548
  0
LINE
  8
0
 10
1126.97
 20
166.548
 11
1128
 21
165.003
  0
LINE
  8
0
 10
1128
 20
165.003
 11
1128.36
 21
163.18
  0
LINE
  8
0
 10
1128.36
 20
163.18
 11
1128
 21
161.357
  0
LINE
  8
0
 10
1128
 20
161.357
 11
1126.97
 21
159.812
  0
LINE
  8
0
 10
1126.97
 20
159.812
 11
1125.42
 21
158.78
  0
LINE
  8
0
 10
1125.42
 20
158.78
 11
1123.6
 21
158.418
  0
LINE
  8
0
 10
1123.6
 20
158.418
 11
1121.78
 21
158.78
  0
LINE
  8
0
 10
1121.78
 20
158.78
 11
1120.23
 21
159.812
  0
LINE
  8
0
 10
1120.23
 20
159.812
 11
1119.2
 21
161.357
  0
LINE
  8
0
 10
1119.2
 20
161.357
 11
1118.84
 21
163.18
  0
LINE
  8
0
 10
1118.84
 20
238.745
 11
1119.2
 21
240.568
  0
LINE
  8
0
 10
1119.2
 20
240.568
 11
1120.23
 21
242.113
  0
LINE
  8
0
 10
1120.23
 20
242.113
 11
1121.78
 21
243.145
  0
LINE
  8
0
 10
1121.78
 20
243.145
 11
1123.6
 21
243.508
  0
LINE
  8
0
 10
1123.6
 20
243.508
 11
1125.42
 21
243.145
  0
LINE
  8
0
 10
1125.42
 20
243.145
 11
1126.97
 21
242.113
  0
LINE
  8
0
 10
1126.97
 20
242.113
 11
1128
 21
240.568
  0
LINE
  8
0
 10
1128
 20
240.568
 11
1128.36
 21
238.745
  0
LINE
  8
0
 10
1128.36
 20
238.745
 11
1128
 21
236.922
  0
LINE
  8
0
 10
1128
 20
236.922
 11
1126.97
 21
235.377
  0
LINE
  8
0
 10
1126.97
 20
235.377
 11
1125.42
 21
234.345
  0
LINE
  8
0
 10
1125.42
 20
234.345
 11
1123.6
 21
233.983
  0
LINE
  8
0
 10
1123.6
 20
233.983
 11
1121.78
 21
234.345
  0
LINE
  8
0
 10
1121.78
 20
234.345
 11
1120.23
 21
235.377
  0
LINE
  8
0
 10
1120.23
 20
235.377
 11
1119.2
 21
236.922
  0
LINE
  8
0
 10
1119.2
 20
236.922
 11
1118.84
 21
238.745
  0
LINE
  8
0
 10
1118.84
 20
306.055
 11
1119.2
 21
307.878
  0
LINE
  8
0
 10
1119.2
 20
307.878
 11
1120.23
 21
309.423
  0
LINE
  8
0
 10
1120.23
 20
309.423
 11
1121.78
 21
310.455
  0
LINE
  8
0
 10
1121.78
 20
310.455
 11
1123.6
 21
310.818
  0
LINE
  8
0
 10
1123.6
 20
310.818
 11
1125.42
 21
310.455
  0
LINE
  8
0
 10
1125.42
 20
310.455
 11
1126.97
 21
309.423
  0
LINE
  8
0
 10
1126.97
 20
309.423
 11
1128
 21
307.878
  0
LINE
  8
0
 10
1128
 20
307.878
 11
1128.36
 21
306.055
  0
LINE
  8
0
 10
1128.36
 20
306.055
 11
1128
 21
304.232
  0
LINE
  8
0
 10
1128
 20
304.232
 11
1126.97
 21
302.687
  0
LINE
  8
0
 10
1126.97
 20
302.687
 11
1125.42
 21
301.655
  0
LINE
  8
0
 10
1125.42
 20
301.655
 11
1123.6
 21
301.293
  0
LINE
  8
0
 10
1123.6
 20
301.293
 11
1121.78
 21
301.655
  0
LINE
  8
0
 10
1121.78
 20
301.655
 11
1120.23
 21
302.687
  0
LINE
  8
0
 10
1120.23
 20
302.687
 11
1119.2
 21
304.232
  0
LINE
  8
0
 10
1119.2
 20
304.232
 11
1118.84
 21
306.055
  0
LINE
  8
0
 10
1118.84
 20
713.945
 11
1119.2
 21
715.768
  0
LINE
  8
0
 10
1119.2
 20
715.768
 11
1120.23
 21
717.313
  0
LINE
  8
0
 10
1120.23
 20
717.313
 11
1121.78
 21
718.345
  0
LINE
  8
0
 10
1121.78
 20
718.345
 11
1123.6
 21
718.707
  0
LINE
  8
0
 10
1123.6
 20
718.707
 11
1125.42
 21
718.345
  0
LINE
  8
0
 10
1125.42
 20
718.345
 11
1126.97
 21
717.313
  0
LINE
  8
0
 10
1126.97
 20
717.313
 11
1128
 21
715.768
  0
LINE
  8
0
 10
1128
 20
715.768
 11
1128.36
 21
713.945
  0
LINE
  8
0
 10
1128.36
 20
713.945
 11
1128
 21
712.122
  0
LINE
  8
0
 10
1128
 20
712.122
 11
1126.97
 21
710.577
  0
LINE
  8
0
 10
1126.97
 20
710.577
 11
1125.42
 21
709.545
  0
LINE
  8
0
 10
1125.42
 20
709.545
 11
1123.6
 21
709.182
  0
LINE
  8
0
 10
1123.6
 20
709.182
 11
1121.78
 21
709.545
  0
LINE
  8
0
 10
1121.78
 20
709.545
 11
1120.23
 21
710.577
  0
LINE
  8
0
 10
1120.23
 20
710.577
 11
1119.2
 21
712.122
  0
LINE
  8
0
 10
1119.2
 20
712.122
 11
1118.84
 21
713.945
  0
LINE
  8
0
 10
1118.84
 20
781.255
 11
1119.2
 21
783.078
  0
LINE
  8
0
 10
1119.2
 20
783.078
 11
1120.23
 21
784.623
  0
LINE
  8
0
 10
1120.23
 20
784.623
 11
1121.78
 21
785.655
  0
LINE
  8
0
 10
1121.78
 20
785.655
 11
1123.6
 21
786.017
  0
LINE
  8
0
 10
1123.6
 20
786.017
 11
1125.42
 21
785.655
  0
LINE
  8
0
 10
1125.42
 20
785.655
 11
1126.97
 21
784.623
  0
LINE
  8
0
 10
1126.97
 20
784.623
 11
1128
 21
783.078
  0
LINE
  8
0
 10
1128
 20
783.078
 11
1128.36
 21
781.255
  0
LINE
  8
0
 10
1128.36
 20
781.255
 11
1128
 21
779.432
  0
LINE
  8
0
 10
1128
 20
779.432
 11
1126.97
 21
777.887
  0
LINE
  8
0
 10
1126.97
 20
777.887
 11
1125.42
 21
776.855
  0
LINE
  8
0
 10
1125.42
 20
776.855
 11
1123.6
 21
776.492
  0
LINE
  8
0
 10
1123.6
 20
776.492
 11
1121.78
 21
776.855
  0
LINE
  8
0
 10
1121.78
 20
776.855
 11
1120.23
 21
777.887
  0
LINE
  8
0
 10
1120.23
 20
777.887
 11
1119.2
 21
779.432
  0
LINE
  8
0
 10
1119.2
 20
779.432
 11
1118.84
 21
781.255
  0
LINE
  8
0
 10
1118.84
 20
856.82
 11
1119.2
 21
858.643
  0
LINE
  8
0
 10
1119.2
 20
858.643
 11
1120.23
 21
860.188
  0
LINE
  8
0
 10
1120.23
 20
860.188
 11
1121.78
 21
861.22
  0
LINE
  8
0
 10
1121.78
 20
861.22
 11
1123.6
 21
861.582
  0
LINE
  8
0
 10
1123.6
 20
861.582
 11
1125.42
 21
861.22
  0
LINE
  8
0
 10
1125.42
 20
861.22
 11
1126.97
 21
860.188
  0
LINE
  8
0
 10
1126.97
 20
860.188
 11
1128
 21
858.643
  0
LINE
  8
0
 10
1128
 20
858.643
 11
1128.36
 21
856.82
  0
LINE
  8
0
 10
1128.36
 20
856.82
 11
1128
 21
854.997
  0
LINE
  8
0
 10
1128
 20
854.997
 11
1126.97
 21
853.452
  0
LINE
  8
0
 10
1126.97
 20
853.452
 11
1125.42
 21
852.42
  0
LINE
  8
0
 10
1125.42
 20
852.42
 11
1123.6
 21
852.057
  0
LINE
  8
0
 10
1123.6
 20
852.057
 11
1121.78
 21
852.42
  0
LINE
  8
0
 10
1121.78
 20
852.42
 11
1120.23
 21
853.452
  0
LINE
  8
0
 10
1120.23
 20
853.452
 11
1119.2
 21
854.997
  0
LINE
  8
0
 10
1119.2
 20
854.997
 11
1118.84
 21
856.82
  0
LINE
  8
0
 10
1118.84
 20
930.48
 11
1119.2
 21
932.303
  0
LINE
  8
0
 10
1119.2
 20
932.303
 11
1120.23
 21
933.848
  0
LINE
  8
0
 10
1120.23
 20
933.848
 11
1121.78
 21
934.88
  0
LINE
  8
0
 10
1121.78
 20
934.88
 11
1123.6
 21
935.242
  0
LINE
  8
0
 10
1123.6
 20
935.242
 11
1125.42
 21
934.88
  0
LINE
  8
0
 10
1125.42
 20
934.88
 11
1126.97
 21
933.848
  0
LINE
  8
0
 10
1126.97
 20
933.848
 11
1128
 21
932.303
  0
LINE
  8
0
 10
1128
 20
932.303
 11
1128.36
 21
930.48
  0
LINE
  8
0
 10
1128.36
 20
930.48
 11
1128
 21
928.657
  0
LINE
  8
0
 10
1128
 20
928.657
 11
1126.97
 21
927.112
  0
LINE
  8
0
 10
1126.97
 20
927.112
 11
1125.42
 21
926.08
  0
LINE
  8
0
 10
1125.42
 20
926.08
 11
1123.6
 21
925.717
  0
LINE
  8
0
 10
1123.6
 20
925.717
 11
1121.78
 21
926.08
  0
LINE
  8
0
 10
1121.78
 20
926.08
 11
1120.23
 21
927.112
  0
LINE
  8
0
 10
1120.23
 20
927.112
 11
1119.2
 21
928.657
  0
LINE
  8
0
 10
1119.2
 20
928.657
 11
1118.84
 21
930.48
  0
LINE
  8
0
 10
1118.84
 20
989.52
 11
1119.2
 21
991.343
  0
LINE
  8
0
 10
1119.2
 20
991.343
 11
1120.23
 21
992.888
  0
LINE
  8
0
 10
1120.23
 20
992.888
 11
1121.78
 21
993.92
  0
LINE
  8
0
 10
1121.78
 20
993.92
 11
1123.6
 21
994.282
  0
LINE
  8
0
 10
1123.6
 20
994.282
 11
1125.42
 21
993.92
  0
LINE
  8
0
 10
1125.42
 20
993.92
 11
1126.97
 21
992.888
  0
LINE
  8
0
 10
1126.97
 20
992.888
 11
1128
 21
991.343
  0
LINE
  8
0
 10
1128
 20
991.343
 11
1128.36
 21
989.52
  0
LINE
  8
0
 10
1128.36
 20
989.52
 11
1128
 21
987.697
  0
LINE
  8
0
 10
1128
 20
987.697
 11
1126.97
 21
986.152
  0
LINE
  8
0
 10
1126.97
 20
986.152
 11
1125.42
 21
985.12
  0
LINE
  8
0
 10
1125.42
 20
985.12
 11
1123.6
 21
984.757
  0
LINE
  8
0
 10
1123.6
 20
984.757
 11
1121.78
 21
985.12
  0
LINE
  8
0
 10
1121.78
 20
985.12
 11
1120.23
 21
986.152
  0
LINE
  8
0
 10
1120.23
 20
986.152
 11
1119.2
 21
987.697
  0
LINE
  8
0
 10
1119.2
 20
987.697
 11
1118.84
 21
989.52
  0
LINE
  8
0
 10
1167.64
 20
30.48
 11
1168
 21
32.3025
  0
LINE
  8
0
 10
1168
 20
32.3025
 11
1169.03
 21
33.8476
  0
LINE
  8
0
 10
1169.03
 20
33.8476
 11
1170.58
 21
34.88
  0
LINE
  8
0
 10
1170.58
 20
34.88
 11
1172.4
 21
35.2425
  0
LINE
  8
0
 10
1172.4
 20
35.2425
 11
1174.22
 21
34.88
  0
LINE
  8
0
 10
1174.22
 20
34.88
 11
1175.77
 21
33.8476
  0
LINE
  8
0
 10
1175.77
 20
33.8476
 11
1176.8
 21
32.3025
  0
LINE
  8
0
 10
1176.8
 20
32.3025
 11
1177.16
 21
30.48
  0
LINE
  8
0
 10
1177.16
 20
30.48
 11
1176.8
 21
28.6575
  0
LINE
  8
0
 10
1176.8
 20
28.6575
 11
1175.77
 21
27.1124
  0
LINE
  8
0
 10
1175.77
 20
27.1124
 11
1174.22
 21
26.08
  0
LINE
  8
0
 10
1174.22
 20
26.08
 11
1172.4
 21
25.7175
  0
LINE
  8
0
 10
1172.4
 20
25.7175
 11
1170.58
 21
26.08
  0
LINE
  8
0
 10
1170.58
 20
26.08
 11
1169.03
 21
27.1124
  0
LINE
  8
0
 10
1169.03
 20
27.1124
 11
1168
 21
28.6575
  0
LINE
  8
0
 10
1168
 20
28.6575
 11
1167.64
 21
30.48
  0
LINE
  8
0
 10
1167.64
 20
89.52
 11
1168
 21
91.3425
  0
LINE
  8
0
 10
1168
 20
91.3425
 11
1169.03
 21
92.8876
  0
LINE
  8
0
 10
1169.03
 20
92.8876
 11
1170.58
 21
93.92
  0
LINE
  8
0
 10
1170.58
 20
93.92
 11
1172.4
 21
94.2825
  0
LINE
  8
0
 10
1172.4
 20
94.2825
 11
1174.22
 21
93.92
  0
LINE
  8
0
 10
1174.22
 20
93.92
 11
1175.77
 21
92.8876
  0
LINE
  8
0
 10
1175.77
 20
92.8876
 11
1176.8
 21
91.3425
  0
LINE
  8
0
 10
1176.8
 20
91.3425
 11
1177.16
 21
89.52
  0
LINE
  8
0
 10
1177.16
 20
89.52
 11
1176.8
 21
87.6975
  0
LINE
  8
0
 10
1176.8
 20
87.6975
 11
1175.77
 21
86.1524
  0
LINE
  8
0
 10
1175.77
 20
86.1524
 11
1174.22
 21
85.12
  0
LINE
  8
0
 10
1174.22
 20
85.12
 11
1172.4
 21
84.7575
  0
LINE
  8
0
 10
1172.4
 20
84.7575
 11
1170.58
 21
85.12
  0
LINE
  8
0
 10
1170.58
 20
85.12
 11
1169.03
 21
86.1524
  0
LINE
  8
0
 10
1169.03
 20
86.1524
 11
1168
 21
87.6975
  0
LINE
  8
0
 10
1168
 20
87.6975
 11
1167.64
 21
89.52
  0
LINE
  8
0
 10
1167.64
 20
163.18
 11
1168
 21
165.003
  0
LINE
  8
0
 10
1168
 20
165.003
 11
1169.03
 21
166.548
  0
LINE
  8
0
 10
1169.03
 20
166.548
 11
1170.58
 21
167.58
  0
LINE
  8
0
 10
1170.58
 20
167.58
 11
1172.4
 21
167.943
  0
LINE
  8
0
 10
1172.4
 20
167.943
 11
1174.22
 21
167.58
  0
LINE
  8
0
 10
1174.22
 20
167.58
 11
1175.77
 21
166.548
  0
LINE
  8
0
 10
1175.77
 20
166.548
 11
1176.8
 21
165.003
  0
LINE
  8
0
 10
1176.8
 20
165.003
 11
1177.16
 21
163.18
  0
LINE
  8
0
 10
1177.16
 20
163.18
 11
1176.8
 21
161.357
  0
LINE
  8
0
 10
1176.8
 20
161.357
 11
1175.77
 21
159.812
  0
LINE
  8
0
 10
1175.77
 20
159.812
 11
1174.22
 21
158.78
  0
LINE
  8
0
 10
1174.22
 20
158.78
 11
1172.4
 21
158.418
  0
LINE
  8
0
 10
1172.4
 20
158.418
 11
1170.58
 21
158.78
  0
LINE
  8
0
 10
1170.58
 20
158.78
 11
1169.03
 21
159.812
  0
LINE
  8
0
 10
1169.03
 20
159.812
 11
1168
 21
161.357
  0
LINE
  8
0
 10
1168
 20
161.357
 11
1167.64
 21
163.18
  0
LINE
  8
0
 10
1167.64
 20
238.745
 11
1168
 21
240.568
  0
LINE
  8
0
 10
1168
 20
240.568
 11
1169.03
 21
242.113
  0
LINE
  8
0
 10
1169.03
 20
242.113
 11
1170.58
 21
243.145
  0
LINE
  8
0
 10
1170.58
 20
243.145
 11
1172.4
 21
243.508
  0
LINE
  8
0
 10
1172.4
 20
243.508
 11
1174.22
 21
243.145
  0
LINE
  8
0
 10
1174.22
 20
243.145
 11
1175.77
 21
242.113
  0
LINE
  8
0
 10
1175.77
 20
242.113
 11
1176.8
 21
240.568
  0
LINE
  8
0
 10
1176.8
 20
240.568
 11
1177.16
 21
238.745
  0
LINE
  8
0
 10
1177.16
 20
238.745
 11
1176.8
 21
236.922
  0
LINE
  8
0
 10
1176.8
 20
236.922
 11
1175.77
 21
235.377
  0
LINE
  8
0
 10
1175.77
 20
235.377
 11
1174.22
 21
234.345
  0
LINE
  8
0
 10
1174.22
 20
234.345
 11
1172.4
 21
233.983
  0
LINE
  8
0
 10
1172.4
 20
233.983
 11
1170.58
 21
234.345
  0
LINE
  8
0
 10
1170.58
 20
234.345
 11
1169.03
 21
235.377
  0
LINE
  8
0
 10
1169.03
 20
235.377
 11
1168
 21
236.922
  0
LINE
  8
0
 10
1168
 20
236.922
 11
1167.64
 21
238.745
  0
LINE
  8
0
 10
1167.64
 20
306.055
 11
1168
 21
307.878
  0
LINE
  8
0
 10
1168
 20
307.878
 11
1169.03
 21
309.423
  0
LINE
  8
0
 10
1169.03
 20
309.423
 11
1170.58
 21
310.455
  0
LINE
  8
0
 10
1170.58
 20
310.455
 11
1172.4
 21
310.818
  0
LINE
  8
0
 10
1172.4
 20
310.818
 11
1174.22
 21
310.455
  0
LINE
  8
0
 10
1174.22
 20
310.455
 11
1175.77
 21
309.423
  0
LINE
  8
0
 10
1175.77
 20
309.423
 11
1176.8
 21
307.878
  0
LINE
  8
0
 10
1176.8
 20
307.878
 11
1177.16
 21
306.055
  0
LINE
  8
0
 10
1177.16
 20
306.055
 11
1176.8
 21
304.232
  0
LINE
  8
0
 10
1176.8
 20
304.232
 11
1175.77
 21
302.687
  0
LINE
  8
0
 10
1175.77
 20
302.687
 11
1174.22
 21
301.655
  0
LINE
  8
0
 10
1174.22
 20
301.655
 11
1172.4
 21
301.293
  0
LINE
  8
0
 10
1172.4
 20
301.293
 11
1170.58
 21
301.655
  0
LINE
  8
0
 10
1170.58
 20
301.655
 11
1169.03
 21
302.687
  0
LINE
  8
0
 10
1169.03
 20
302.687
 11
1168
 21
304.232
  0
LINE
  8
0
 10
1168
 20
304.232
 11
1167.64
 21
306.055
  0
LINE
  8
0
 10
1167.64
 20
713.945
 11
1168
 21
715.768
  0
LINE
  8
0
 10
1168
 20
715.768
 11
1169.03
 21
717.313
  0
LINE
  8
0
 10
1169.03
 20
717.313
 11
1170.58
 21
718.345
  0
LINE
  8
0
 10
1170.58
 20
718.345
 11
1172.4
 21
718.707
  0
LINE
  8
0
 10
1172.4
 20
718.707
 11
1174.22
 21
718.345
  0
LINE
  8
0
 10
1174.22
 20
718.345
 11
1175.77
 21
717.313
  0
LINE
  8
0
 10
1175.77
 20
717.313
 11
1176.8
 21
715.768
  0
LINE
  8
0
 10
1176.8
 20
715.768
 11
1177.16
 21
713.945
  0
LINE
  8
0
 10
1177.16
 20
713.945
 11
1176.8
 21
712.122
  0
LINE
  8
0
 10
1176.8
 20
712.122
 11
1175.77
 21
710.577
  0
LINE
  8
0
 10
1175.77
 20
710.577
 11
1174.22
 21
709.545
  0
LINE
  8
0
 10
1174.22
 20
709.545
 11
1172.4
 21
709.182
  0
LINE
  8
0
 10
1172.4
 20
709.182
 11
1170.58
 21
709.545
  0
LINE
  8
0
 10
1170.58
 20
709.545
 11
1169.03
 21
710.577
  0
LINE
  8
0
 10
1169.03
 20
710.577
 11
1168
 21
712.122
  0
LINE
  8
0
 10
1168
 20
712.122
 11
1167.64
 21
713.945
  0
LINE
  8
0
 10
1167.64
 20
781.255
 11
1168
 21
783.078
  0
LINE
  8
0
 10
1168
 20
783.078
 11
1169.03
 21
784.623
  0
LINE
  8
0
 10
1169.03
 20
784.623
 11
1170.58
 21
785.655
  0
LINE
  8
0
 10
1170.58
 20
785.655
 11
1172.4
 21
786.017
  0
LINE
  8
0
 10
1172.4
 20
786.017
 11
1174.22
 21
785.655
  0
LINE
  8
0
 10
1174.22
 20
785.655
 11
1175.77
 21
784.623
  0
LINE
  8
0
 10
1175.77
 20
784.623
 11
1176.8
 21
783.078
  0
LINE
  8
0
 10
1176.8
 20
783.078
 11
1177.16
 21
781.255
  0
LINE
  8
0
 10
1177.16
 20
781.255
 11
1176.8
 21
779.432
  0
LINE
  8
0
 10
1176.8
 20
779.432
 11
1175.77
 21
777.887
  0
LINE
  8
0
 10
1175.77
 20
777.887
 11
1174.22
 21
776.855
  0
LINE
  8
0
 10
1174.22
 20
776.855
 11
1172.4
 21
776.492
  0
LINE
  8
0
 10
1172.4
 20
776.492
 11
1170.58
 21
776.855
  0
LINE
  8
0
 10
1170.58
 20
776.855
 11
1169.03
 21
777.887
  0
LINE
  8
0
 10
1169.03
 20
777.887
 11
1168
 21
779.432
  0
LINE
  8
0
 10
1168
 20
779.432
 11
1167.64
 21
781.255
  0
LINE
  8
0
 10
1167.64
 20
856.82
 11
1168
 21
858.643
  0
LINE
  8
0
 10
1168
 20
858.643
 11
1169.03
 21
860.188
  0
LINE
  8
0
 10
1169.03
 20
860.188
 11
1170.58
 21
861.22
  0
LINE
  8
0
 10
1170.58
 20
861.22
 11
1172.4
 21
861.582
  0
LINE
  8
0
 10
1172.4
 20
861.582
 11
1174.22
 21
861.22
  0
LINE
  8
0
 10
1174.22
 20
861.22
 11
1175.77
 21
860.188
  0
LINE
  8
0
 10
1175.77
 20
860.188
 11
1176.8
 21
858.643
  0
LINE
  8
0
 10
1176.8
 20
858.643
 11
1177.16
 21
856.82
  0
LINE
  8
0
 10
1177.16
 20
856.82
 11
1176.8
 21
854.997
  0
LINE
  8
0
 10
1176.8
 20
854.997
 11
1175.77
 21
853.452
  0
LINE
  8
0
 10
1175.77
 20
853.452
 11
1174.22
 21
852.42
  0
LINE
  8
0
 10
1174.22
 20
852.42
 11
1172.4
 21
852.057
  0
LINE
  8
0
 10
1172.4
 20
852.057
 11
1170.58
 21
852.42
  0
LINE
  8
0
 10
1170.58
 20
852.42
 11
1169.03
 21
853.452
  0
LINE
  8
0
 10
1169.03
 20
853.452
 11
1168
 21
854.997
  0
LINE
  8
0
 10
1168
 20
854.997
 11
1167.64
 21
856.82
  0
LINE
  8
0
 10
1167.64
 20
930.48
 11
1168
 21
932.303
  0
LINE
  8
0
 10
1168
 20
932.303
 11
1169.03
 21
933.848
  0
LINE
  8
0
 10
1169.03
 20
933.848
 11
1170.58
 21
934.88
  0
LINE
  8
0
 10
1170.58
 20
934.88
 11
1172.4
 21
935.242
  0
LINE
  8
0
 10
1172.4
 20
935.242
 11
1174.22
 21
934.88
  0
LINE
  8
0
 10
1174.22
 20
934.88
 11
1175.77
 21
933.848
  0
LINE
  8
0
 10
1175.77
 20
933.848
 11
1176.8
 21
932.303
  0
LINE
  8
0
 10
1176.8
 20
932.303
 11
1177.16
 21
930.48
  0
LINE
  8
0
 10
1177.16
 20
930.48
 11
1176.8
 21
928.657
  0
LINE
  8
0
 10
1176.8
 20
928.657
 11
1175.77
 21
927.112
  0
LINE
  8
0
 10
1175.77
 20
927.112
 11
1174.22
 21
926.08
  0
LINE
  8
0
 10
1174.22
 20
926.08
 11
1172.4
 21
925.717
  0
LINE
  8
0
 10
1172.4
 20
925.717
 11
1170.58
 21
926.08
  0
LINE
  8
0
 10
1170.58
 20
926.08
 11
1169.03
 21
927.112
  0
LINE
  8
0
 10
1169.03
 20
927.112
 11
1168
 21
928.657
  0
LINE
  8
0
 10
1168
 20
928.657
 11
1167.64
 21
930.48
  0
LINE
  8
0
 10
1167.64
 20
989.52
 11
1168
 21
991.343
  0
LINE
  8
0
 10
1168
 20
991.343
 11
1169.03
 21
992.888
  0
LINE
  8
0
 10
1169.03
 20
992.888
 11
1170.58
 21
993.92
  0
LINE
  8
0
 10
1170.58
 20
993.92
 11
1172.4
 21
994.282
  0
LINE
  8
0
 10
1172.4
 20
994.282
 11
1174.22
 21
993.92
  0
LINE
  8
0
 10
1174.22
 20
993.92
 11
1175.77
 21
992.888
  0
LINE
  8
0
 10
1175.77
 20
992.888
 11
1176.8
 21
991.343
  0
LINE
  8
0
 10
1176.8
 20
991.343
 11
1177.16
 21
989.52
  0
LINE
  8
0
 10
1177.16
 20
989.52
 11
1176.8
 21
987.697
  0
LINE
  8
0
 10
1176.8
 20
987.697
 11
1175.77
 21
986.152
  0
LINE
  8
0
 10
1175.77
 20
986.152
 11
1174.22
 21
985.12
  0
LINE
  8
0
 10
1174.22
 20
985.12
 11
1172.4
 21
984.757
  0
LINE
  8
0
 10
1172.4
 20
984.757
 11
1170.58
 21
985.12
  0
LINE
  8
0
 10
1170.58
 20
985.12
 11
1169.03
 21
986.152
  0
LINE
  8
0
 10
1169.03
 20
986.152
 11
1168
 21
987.697
  0
LINE
  8
0
 10
1168
 20
987.697
 11
1167.64
 21
989.52
  0
ENDSEC
  0
SECTION
  2
OBJECTS
  0
DICTIONARY
  0
ENDSEC
  0
EOF
