  0
SECTION
  2
HEADER
  9
$ACADVER
  1
AC1015
  9
$ACADMAINTVER
 70
6
  9
$DWGCODEPAGE
  3
ANSI_1252
  9
$INSBASE
 10
0.0
 20
0.0
 30
0.0
  9
$EXTMIN
 10
1e+20
 20
1e+20
 30
1e+20
  9
$EXTMAX
 10
-1e+20
 20
-1e+20
 30
-1e+20
  9
$LIMMIN
 10
0.0
 20
0.0
  9
$LIMMAX
 10
420.0
 20
297.0
  9
$ORTHOMODE
 70
0
  9
$REGENMODE
 70
1
  9
$FILLMODE
 70
1
  9
$QTEXTMODE
 70
0
  9
$MIRRTEXT
 70
1
  9
$LTSCALE
 40
1.0
  9
$ATTMODE
 70
1
  9
$TEXTSIZE
 40
2.5
  9
$TRACEWID
 40
1.0
  9
$TEXTSTYLE
  7
Standard
  9
$CLAYER
  8
0
  9
$CELTYPE
  6
ByLayer
  9
$CECOLOR
 62
256
  9
$CELTSCALE
 40
1.0
  9
$DISPSILH
 70
0
  9
$DIMSCALE
 40
1.0
  9
$DIMASZ
 40
2.5
  9
$DIMEXO
 40
0.625
  9
$DIMDLI
 40
3.75
  9
$DIMRND
 40
0.0
  9
$DIMDLE
 40
0.0
  9
$DIMEXE
 40
1.25
  9
$DIMTP
 40
0.0
  9
$DIMTM
 40
0.0
  9
$DIMTXT
 40
2.5
  9
$DIMCEN
 40
2.5
  9
$DIMTSZ
 40
0.0
  9
$DIMTOL
 70
0
  9
$DIMLIM
 70
0
  9
$DIMTIH
 70
0
  9
$DIMTOH
 70
0
  9
$DIMSE1
 70
0
  9
$DIMSE2
 70
0
  9
$DIMTAD
 70
1
  9
$DIMZIN
 70
8
  9
$DIMBLK
  1

  9
$DIMASO
 70
1
  9
$DIMSHO
 70
1
  9
$DIMPOST
  1

  9
$DIMAPOST
  1

  9
$DIMALT
 70
0
  9
$DIMALTD
 70
3
  9
$DIMALTF
 40
0.03937007874
  9
$DIMLFAC
 40
1.0
  9
$DIMTOFL
 70
1
  9
$DIMTVP
 40
0.0
  9
$DIMTIX
 70
0
  9
$DIMSOXD
 70
0
  9
$DIMSAH
 70
0
  9
$DIMBLK1
  1

  9
$DIMBLK2
  1

  9
$DIMSTYLE
  2
ISO-25
  9
$DIMCLRD
 70
0
  9
$DIMCLRE
 70
0
  9
$DIMCLRT
 70
0
  9
$DIMTFAC
 40
1.0
  9
$DIMGAP
 40
0.625
  9
$DIMJUST
 70
0
  9
$DIMSD1
 70
0
  9
$DIMSD2
 70
0
  9
$DIMTOLJ
 70
0
  9
$DIMTZIN
 70
8
  9
$DIMALTZ
 70
0
  9
$DIMALTTZ
 70
0
  9
$DIMUPT
 70
0
  9
$DIMDEC
 70
2
  9
$DIMTDEC
 70
2
  9
$DIMALTU
 70
2
  9
$DIMALTTD
 70
3
  9
$DIMTXSTY
  7
Standard
  9
$DIMAUNIT
 70
0
  9
$DIMADEC
 70
0
  9
$DIMALTRND
 40
0.0
  9
$DIMAZIN
 70
0
  9
$DIMDSEP
 70
44
  9
$DIMATFIT
 70
3
  9
$DIMFRAC
 70
0
  9
$DIMLDRBLK
  1

  9
$DIMLUNIT
 70
2
  9
$DIMLWD
 70
-2
  9
$DIMLWE
 70
-2
  9
$DIMTMOVE
 70
0
  9
$LUNITS
 70
2
  9
$LUPREC
 70
4
  9
$SKETCHINC
 40
1.0
  9
$FILLETRAD
 40
10.0
  9
$AUNITS
 70
0
  9
$AUPREC
 70
2
  9
$MENU
  1
.
  9
$ELEVATION
 40
0.0
  9
$PELEVATION
 40
0.0
  9
$THICKNESS
 40
0.0
  9
$LIMCHECK
 70
0
  9
$CHAMFERA
 40
0.0
  9
$CHAMFERB
 40
0.0
  9
$CHAMFERC
 40
0.0
  9
$CHAMFERD
 40
0.0
  9
$SKPOLY
 70
0
  9
$TDCREATE
 40
2451545.0
  9
$TDUCREATE
 40
2451545.0
  9
$TDUPDATE
 40
2451545.0
  9
$TDUUPDATE
 40
2451545.0
  9
$TDINDWG
 40
0.0
  9
$TDUSRTIMER
 40
0.0
  9
$USRTIMER
 70
1
  9
$ANGBASE
 50
0.0
  9
$ANGDIR
 70
0
  9
$PDMODE
 70
0
  9
$PDSIZE
 40
0.0
  9
$PLINEWID
 40
0.0
  9
$SPLFRAME
 70
0
  9
$SPLINETYPE
 70
6
  9
$SPLINESEGS
 70
8
  9
$HANDSEED
  5
536
  9
$SURFTAB1
 70
6
  9
$SURFTAB2
 70
6
  9
$SURFTYPE
 70
6
  9
$SURFU
 70
6
  9
$SURFV
 70
6
  9
$UCSBASE
  2

  9
$UCSNAME
  2

  9
$UCSORG
 10
0.0
 20
0.0
 30
0.0
  9
$UCSXDIR
 10
1.0
 20
0.0
 30
0.0
  9
$UCSYDIR
 10
0.0
 20
1.0
 30
0.0
  9
$UCSORTHOREF
  2

  9
$UCSORTHOVIEW
 70
0
  9
$UCSORGTOP
 10
0.0
 20
0.0
 30
0.0
  9
$UCSORGBOTTOM
 10
0.0
 20
0.0
 30
0.0
  9
$UCSORGLEFT
 10
0.0
 20
0.0
 30
0.0
  9
$UCSORGRIGHT
 10
0.0
 20
0.0
 30
0.0
  9
$UCSORGFRONT
 10
0.0
 20
0.0
 30
0.0
  9
$UCSORGBACK
 10
0.0
 20
0.0
 30
0.0
  9
$PUCSBASE
  2

  9
$PUCSNAME
  2

  9
$PUCSORG
 10
0.0
 20
0.0
 30
0.0
  9
$PUCSXDIR
 10
1.0
 20
0.0
 30
0.0
  9
$PUCSYDIR
 10
0.0
 20
1.0
 30
0.0
  9
$PUCSORTHOREF
  2

  9
$PUCSORTHOVIEW
 70
0
  9
$PUCSORGTOP
 10
0.0
 20
0.0
 30
0.0
  9
$PUCSORGBOTTOM
 10
0.0
 20
0.0
 30
0.0
  9
$PUCSORGLEFT
 10
0.0
 20
0.0
 30
0.0
  9
$PUCSORGRIGHT
 10
0.0
 20
0.0
 30
0.0
  9
$PUCSORGFRONT
 10
0.0
 20
0.0
 30
0.0
  9
$PUCSORGBACK
 10
0.0
 20
0.0
 30
0.0
  9
$USERI1
 70
0
  9
$USERI2
 70
0
  9
$USERI3
 70
0
  9
$USERI4
 70
0
  9
$USERI5
 70
0
  9
$USERR1
 40
0.0
  9
$USERR2
 40
0.0
  9
$USERR3
 40
0.0
  9
$USERR4
 40
0.0
  9
$USERR5
 40
0.0
  9
$WORLDVIEW
 70
1
  9
$SHADEDGE
 70
3
  9
$SHADEDIF
 70
70
  9
$TILEMODE
 70
1
  9
$MAXACTVP
 70
64
  9
$PINSBASE
 10
0.0
 20
0.0
 30
0.0
  9
$PLIMCHECK
 70
0
  9
$PEXTMIN
 10
1e+20
 20
1e+20
 30
1e+20
  9
$PEXTMAX
 10
-1e+20
 20
-1e+20
 30
-1e+20
  9
$PLIMMIN
 10
0.0
 20
0.0
  9
$PLIMMAX
 10
420.0
 20
297.0
  9
$UNITMODE
 70
0
  9
$VISRETAIN
 70
1
  9
$PLINEGEN
 70
0
  9
$PSLTSCALE
 70
1
  9
$TREEDEPTH
 70
3020
  9
$CMLSTYLE
  2
Standard
  9
$CMLJUST
 70
0
  9
$CMLSCALE
 40
20.0
  9
$PROXYGRAPHICS
 70
1
  9
$MEASUREMENT
 70
1
  9
$CELWEIGHT
370
-1
  9
$ENDCAPS
280
0
  9
$JOINSTYLE
280
0
  9
$LWDISPLAY
290
0
  9
$INSUNITS
 70
4
  9
$HYPERLINKBASE
  1

  9
$STYLESHEET
  1

  9
$XEDIT
290
1
  9
$CEPSNTYPE
380
0
  9
$PSTYLEMODE
290
1
  9
$FINGERPRINTGUID
  2
{00000000-0000-0000-0000-000000000000}
  9
$VERSIONGUID
  2
{00000000-0000-0000-0000-000000000000}
  9
$EXTNAMES
290
1
  9
$PSVPSCALE
 40
0.0
  9
$OLESTARTUP
290
0
  0
ENDSEC
  0
SECTION
  2
CLASSES
  0
CLASS
  1
ACDBDICTIONARYWDFLT
  2
AcDbDictionaryWithDefault
  3
ObjectDBX Classes
 90
0
280
0
281
0
  0
CLASS
  1
SUN
  2
AcDbSun
  3
SCENEOE
 90
1153
280
0
281
0
  0
CLASS
  1
VISUALSTYLE
  2
AcDbVisualStyle
  3
ObjectDBX Classes
 90
4095
280
0
281
0
  0
CLASS
  1
MATERIAL
  2
AcDbMaterial
  3
ObjectDBX Classes
 90
1153
280
0
281
0
  0
CLASS
  1
SCALE
  2
AcDbScale
  3
ObjectDBX Classes
 90
1153
280
0
281
0
  0
CLASS
  1
TABLESTYLE
  2
AcDbTableStyle
  3
ObjectDBX Classes
 90
4095
280
0
281
0
  0
CLASS
  1
MLEADERSTYLE
  2
AcDbMLeaderStyle
  3
ACDB_MLEADERSTYLE_CLASS
 90
4095
280
0
281
0
  0
CLASS
  1
DICTIONARYVAR
  2
AcDbDictionaryVar
  3
ObjectDBX Classes
 90
0
280
0
281
0
  0
CLASS
  1
CELLSTYLEMAP
  2
AcDbCellStyleMap
  3
ObjectDBX Classes
 90
1152
280
0
281
0
  0
CLASS
  1
MENTALRAYRENDERSETTINGS
  2
AcDbMentalRayRenderSettings
  3
SCENEOE
 90
1024
280
0
281
0
  0
CLASS
  1
ACDBDETAILVIEWSTYLE
  2
AcDbDetailViewStyle
  3
ObjectDBX Classes
 90
1025
280
0
281
0
  0
CLASS
  1
ACDBSECTIONVIEWSTYLE
  2
AcDbSectionViewStyle
  3
ObjectDBX Classes
 90
1025
280
0
281
0
  0
CLASS
  1
RASTERVARIABLES
  2
AcDbRasterVariables
  3
ISM
 90
0
280
0
281
0
  0
CLASS
  1
ACDBPLACEHOLDER
  2
AcDbPlaceHolder
  3
ObjectDBX Classes
 90
0
280
0
281
0
  0
CLASS
  1
LAYOUT
  2
AcDbLayout
  3
ObjectDBX Classes
 90
0
280
0
281
0
  0
ENDSEC
  0
SECTION
  2
TABLES
  0
TABLE
  2
VPORT
  5
8
330
0
100
AcDbSymbolTable
 70
1
  0
VPORT
  5
23
330
8
100
AcDbSymbolTableRecord
100
AcDbViewportTableRecord
  2
*Active
 70
0
 10
0.0
 20
0.0
 11
1.0
 21
1.0
 12
0.0
 22
0.0
 13
0.0
 23
0.0
 14
0.5
 24
0.5
 15
0.5
 25
0.5
 16
0.0
 26
0.0
 36
1.0
 17
0.0
 27
0.0
 37
0.0
 40
1000.0
 41
1.34
 42
50.0
 43
0.0
 44
0.0
 50
0.0
 51
0.0
 71
0
 72
1000
 73
1
 74
3
 75
0
 76
0
 77
0
 78
0
281
0
 65
0
146
0.0
  0
ENDTAB
  0
TABLE
  2
LTYPE
  5
2
330
0
100
AcDbSymbolTable
 70
3
  0
LTYPE
  5
24
330
2
100
AcDbSymbolTableRecord
100
AcDbLinetypeTableRecord
  2
ByBlock
 70
0
  3

 72
65
 73
0
 40
0.0
  0
LTYPE
  5
25
330
2
100
AcDbSymbolTableRecord
100
AcDbLinetypeTableRecord
  2
ByLayer
 70
0
  3

 72
65
 73
0
 40
0.0
  0
LTYPE
  5
26
330
2
100
AcDbSymbolTableRecord
100
AcDbLinetypeTableRecord
  2
Continuous
 70
0
  3

 72
65
 73
0
 40
0.0
  0
ENDTAB
  0
TABLE
  2
LAYER
  5
1
330
0
100
AcDbSymbolTable
 70
2
  0
LAYER
  5
27
330
1
100
AcDbSymbolTableRecord
100
AcDbLayerTableRecord
  2
0
 70
0
 62
7
  6
Continuous
370
-3
390
13
  0
LAYER
  5
28
330
1
100
AcDbSymbolTableRecord
100
AcDbLayerTableRecord
  2
Defpoints
 70
0
 62
7
  6
Continuous
290
0
370
-3
390
13
  0
ENDTAB
  0
TABLE
  2
STYLE
  5
5
330
0
100
AcDbSymbolTable
 70
1
  0
STYLE
  5
29
330
5
100
AcDbSymbolTableRecord
100
AcDbTextStyleTableRecord
  2
Standard
 70
0
 40
0.0
 41
1.0
 50
0.0
 71
0
 42
2.5
  3
txt
  4

  0
ENDTAB
  0
TABLE
  2
VIEW
  5
7
330
0
100
AcDbSymbolTable
 70
0
  0
ENDTAB
  0
TABLE
  2
UCS
  5
6
330
0
100
AcDbSymbolTable
 70
0
  0
ENDTAB
  0
TABLE
  2
APPID
  5
3
330
0
100
AcDbSymbolTable
 70
3
  0
APPID
  5
2A
330
3
100
AcDbSymbolTableRecord
100
AcDbRegAppTableRecord
  2
ACAD
 70
0
  0
APPID
  5
533
330
3
100
AcDbSymbolTableRecord
100
AcDbRegAppTableRecord
  2
HATCHBACKGROUNDCOLOR
 70
0
  0
APPID
  5
534
330
3
100
AcDbSymbolTableRecord
100
AcDbRegAppTableRecord
  2
EZDXF
 70
0
  0
ENDTAB
  0
TABLE
  2
DIMSTYLE
  5
4
330
0
100
AcDbSymbolTable
 70
1
100
AcDbDimStyleTable
  0
DIMSTYLE
105
2B
330
4
100
AcDbSymbolTableRecord
100
AcDbDimStyleTableRecord
  2
Standard
 70
0
  3

  4

 40
1.0
 41
2.5
 42
0.625
 43
3.75
 44
1.25
 45
0.0
 46
0.0
 47
0.0
 48
0.0
140
2.5
141
2.5
142
0.0
143
0.03937007874
144
1.0
145
0.0
146
1.0
147
0.625
148
0.0
 71
0
 72
0
 73
0
 74
0
 75
0
 76
0
 77
1
 78
8
 79
3
170
0
171
3
172
1
173
0
174
0
175
0
176
0
177
0
178
0
179
2
271
2
272
2
273
2
274
3
275
0
276
0
277
2
278
44
279
0
280
0
281
0
282
0
283
0
284
8
285
0
286
0
288
0
289
3
371
-2
372
-2
  0
ENDTAB
  0
TABLE
  2
BLOCK_RECORD
  5
9
330
0
100
AcDbSymbolTable
 70
2
  0
BLOCK_RECORD
  5
17
330
9
100
AcDbSymbolTableRecord
100
AcDbBlockTableRecord
  2
*Model_Space
340
1A
  0
BLOCK_RECORD
  5
1B
330
9
100
AcDbSymbolTableRecord
100
AcDbBlockTableRecord
  2
*Paper_Space
340
1E
  0
ENDTAB
  0
ENDSEC
  0
SECTION
  2
BLOCKS
  0
BLOCK
  5
18
330
17
100
AcDbEntity
  8
0
100
AcDbBlockBegin
  2
*Model_Space
 70
0
 10
0.0
 20
0.0
 30
0.0
  3
*Model_Space
  1

  0
ENDBLK
  5
19
330
17
100
AcDbEntity
  8
0
100
AcDbBlockEnd
  0
BLOCK
  5
1C
330
1B
100
AcDbEntity
  8
0
100
AcDbBlockBegin
  2
*Paper_Space
 70
0
 10
0.0
 20
0.0
 30
0.0
  3
*Paper_Space
  1

  0
ENDBLK
  5
1D
330
1B
100
AcDbEntity
  8
0
100
AcDbBlockEnd
  0
ENDSEC
  0
SECTION
  2
ENTITIES
  0
LINE
  5
2F
330
17
100
AcDbEntity
  8
0
100
AcDbLine
 10
-3.8147e-07
 20
0.0
 30
0.0
 11
1196.8
 21
0.0
 31
0.0
  0
LINE
  5
30
330
17
100
AcDbEntity
  8
0
100
AcDbLine
 10
1196.8
 20
0.0
 30
0.0
 11
1196.8
 21
1020.0
 31
0.0
  0
LINE
  5
31
330
17
100
AcDbEntity
  8
0
100
AcDbLine
 10
1196.8
 20
1020.0
 30
0.0
 11
-3.8147e-07
 21
1020.0
 31
0.0
  0
LINE
  5
32
330
17
100
AcDbEntity
  8
0
100
AcDbLine
 10
-3.8147e-07
 20
1020.0
 30
0.0
 11
-3.8147e-07
 21
0.0
 31
0.0
  0
LINE
  5
33
330
17
100
AcDbEntity
  8
0
100
AcDbLine
 10
31.7375
 20
30.48
 30
0.0
 11
32.1
 21
32.3025
 31
0.0
  0
LINE
  5
34
330
17
100
AcDbEntity
  8
0
100
AcDbLine
 10
32.1
 20
32.3025
 30
0.0
 11
33.1324
 21
33.8476
 31
0.0
  0
LINE
  5
35
330
17
100
AcDbEntity
  8
0
100
AcDbLine
 10
33.1324
 20
33.8476
 30
0.0
 11
34.6775
 21
34.88
 31
0.0
  0
LINE
  5
36
330
17
100
AcDbEntity
  8
0
100
AcDbLine
 10
34.6775
 20
34.88
 30
0.0
 11
36.5
 21
35.2425
 31
0.0
  0
LINE
  5
37
330
17
100
AcDbEntity
  8
0
100
AcDbLine
 10
36.5
 20
35.2425
 30
0.0
 11
38.3225
 21
34.88
 31
0.0
  0
LINE
  5
38
330
17
100
AcDbEntity
  8
0
100
AcDbLine
 10
38.3225
 20
34.88
 30
0.0
 11
39.8676
 21
33.8476
 31
0.0
  0
LINE
  5
39
330
17
100
AcDbEntity
  8
0
100
AcDbLine
 10
39.8676
 20
33.8476
 30
0.0
 11
40.9
 21
32.3025
 31
0.0
  0
LINE
  5
3A
330
17
100
AcDbEntity
  8
0
100
AcDbLine
 10
40.9
 20
32.3025
 30
0.0
 11
41.2625
 21
30.48
 31
0.0
  0
LINE
  5
3B
330
17
100
AcDbEntity
  8
0
100
AcDbLine
 10
41.2625
 20
30.48
 30
0.0
 11
40.9
 21
28.6575
 31
0.0
  0
LINE
  5
3C
330
17
100
AcDbEntity
  8
0
100
AcDbLine
 10
40.9
 20
28.6575
 30
0.0
 11
39.8676
 21
27.1124
 31
0.0
  0
LINE
  5
3D
330
17
100
AcDbEntity
  8
0
100
AcDbLine
 10
39.8676
 20
27.1124
 30
0.0
 11
38.3225
 21
26.08
 31
0.0
  0
LINE
  5
3E
330
17
100
AcDbEntity
  8
0
100
AcDbLine
 10
38.3225
 20
26.08
 30
0.0
 11
36.5
 21
25.7175
 31
0.0
  0
LINE
  5
3F
330
17
100
AcDbEntity
  8
0
100
AcDbLine
 10
36.5
 20
25.7175
 30
0.0
 11
34.6775
 21
26.08
 31
0.0
  0
LINE
  5
40
330
17
100
AcDbEntity
  8
0
100
AcDbLine
 10
34.6775
 20
26.08
 30
0.0
 11
33.1324
 21
27.1124
 31
0.0
  0
LINE
  5
41
330
17
100
AcDbEntity
  8
0
100
AcDbLine
 10
33.1324
 20
27.1124
 30
0.0
 11
32.1
 21
28.6575
 31
0.0
  0
LINE
  5
42
330
17
100
AcDbEntity
  8
0
100
AcDbLine
 10
32.1
 20
28.6575
 30
0.0
 11
31.7375
 21
30.48
 31
0.0
  0
LINE
  5
43
330
17
100
AcDbEntity
  8
0
100
AcDbLine
 10
31.7375
 20
89.52
 30
0.0
 11
32.1
 21
91.3425
 31
0.0
  0
LINE
  5
44
330
17
100
AcDbEntity
  8
0
100
AcDbLine
 10
32.1
 20
91.3425
 30
0.0
 11
33.1324
 21
92.8876
 31
0.0
  0
LINE
  5
45
330
17
100
AcDbEntity
  8
0
100
AcDbLine
 10
33.1324
 20
92.8876
 30
0.0
 11
34.6775
 21
93.92
 31
0.0
  0
LINE
  5
46
330
17
100
AcDbEntity
  8
0
100
AcDbLine
 10
34.6775
 20
93.92
 30
0.0
 11
36.5
 21
94.2825
 31
0.0
  0
LINE
  5
47
330
17
100
AcDbEntity
  8
0
100
AcDbLine
 10
36.5
 20
94.2825
 30
0.0
 11
38.3225
 21
93.92
 31
0.0
  0
LINE
  5
48
330
17
100
AcDbEntity
  8
0
100
AcDbLine
 10
38.3225
 20
93.92
 30
0.0
 11
39.8676
 21
92.8876
 31
0.0
  0
LINE
  5
49
330
17
100
AcDbEntity
  8
0
100
AcDbLine
 10
39.8676
 20
92.8876
 30
0.0
 11
40.9
 21
91.3425
 31
0.0
  0
LINE
  5
4A
330
17
100
AcDbEntity
  8
0
100
AcDbLine
 10
40.9
 20
91.3425
 30
0.0
 11
41.2625
 21
89.52
 31
0.0
  0
LINE
  5
4B
330
17
100
AcDbEntity
  8
0
100
AcDbLine
 10
41.2625
 20
89.52
 30
0.0
 11
40.9
 21
87.6975
 31
0.0
  0
LINE
  5
4C
330
17
100
AcDbEntity
  8
0
100
AcDbLine
 10
40.9
 20
87.6975
 30
0.0
 11
39.8676
 21
86.1524
 31
0.0
  0
LINE
  5
4D
330
17
100
AcDbEntity
  8
0
100
AcDbLine
 10
39.8676
 20
86.1524
 30
0.0
 11
38.3225
 21
85.12
 31
0.0
  0
LINE
  5
4E
330
17
100
AcDbEntity
  8
0
100
AcDbLine
 10
38.3225
 20
85.12
 30
0.0
 11
36.5
 21
84.7575
 31
0.0
  0
LINE
  5
4F
330
17
100
AcDbEntity
  8
0
100
AcDbLine
 10
36.5
 20
84.7575
 30
0.0
 11
34.6775
 21
85.12
 31
0.0
  0
LINE
  5
50
330
17
100
AcDbEntity
  8
0
100
AcDbLine
 10
34.6775
 20
85.12
 30
0.0
 11
33.1324
 21
86.1524
 31
0.0
  0
LINE
  5
51
330
17
100
AcDbEntity
  8
0
100
AcDbLine
 10
33.1324
 20
86.1524
 30
0.0
 11
32.1
 21
87.6975
 31
0.0
  0
LINE
  5
52
330
17
100
AcDbEntity
  8
0
100
AcDbLine
 10
32.1
 20
87.6975
 30
0.0
 11
31.7375
 21
89.52
 31
0.0
  0
LINE
  5
53
330
17
100
AcDbEntity
  8
0
100
AcDbLine
 10
31.7375
 20
163.18
 30
0.0
 11
32.1
 21
165.003
 31
0.0
  0
LINE
  5
54
330
17
100
AcDbEntity
  8
0
100
AcDbLine
 10
32.1
 20
165.003
 30
0.0
 11
33.1324
 21
166.548
 31
0.0
  0
LINE
  5
55
330
17
100
AcDbEntity
  8
0
100
AcDbLine
 10
33.1324
 20
166.548
 30
0.0
 11
34.6775
 21
167.58
 31
0.0
  0
LINE
  5
56
330
17
100
AcDbEntity
  8
0
100
AcDbLine
 10
34.6775
 20
167.58
 30
0.0
 11
36.5
 21
167.943
 31
0.0
  0
LINE
  5
57
330
17
100
AcDbEntity
  8
0
100
AcDbLine
 10
36.5
 20
167.943
 30
0.0
 11
38.3225
 21
167.58
 31
0.0
  0
LINE
  5
58
330
17
100
AcDbEntity
  8
0
100
AcDbLine
 10
38.3225
 20
167.58
 30
0.0
 11
39.8676
 21
166.548
 31
0.0
  0
LINE
  5
59
330
17
100
AcDbEntity
  8
0
100
AcDbLine
 10
39.8676
 20
166.548
 30
0.0
 11
40.9
 21
165.003
 31
0.0
  0
LINE
  5
5A
330
17
100
AcDbEntity
  8
0
100
AcDbLine
 10
40.9
 20
165.003
 30
0.0
 11
41.2625
 21
163.18
 31
0.0
  0
LINE
  5
5B
330
17
100
AcDbEntity
  8
0
100
AcDbLine
 10
41.2625
 20
163.18
 30
0.0
 11
40.9
 21
161.357
 31
0.0
  0
LINE
  5
5C
330
17
100
AcDbEntity
  8
0
100
AcDbLine
 10
40.9
 20
161.357
 30
0.0
 11
39.8676
 21
159.812
 31
0.0
  0
LINE
  5
5D
330
17
100
AcDbEntity
  8
0
100
AcDbLine
 10
39.8676
 20
159.812
 30
0.0
 11
38.3225
 21
158.78
 31
0.0
  0
LINE
  5
5E
330
17
100
AcDbEntity
  8
0
100
AcDbLine
 10
38.3225
 20
158.78
 30
0.0
 11
36.5
 21
158.418
 31
0.0
  0
LINE
  5
5F
330
17
100
AcDbEntity
  8
0
100
AcDbLine
 10
36.5
 20
158.418
 30
0.0
 11
34.6775
 21
158.78
 31
0.0
  0
LINE
  5
60
330
17
100
AcDbEntity
  8
0
100
AcDbLine
 10
34.6775
 20
158.78
 30
0.0
 11
33.1324
 21
159.812
 31
0.0
  0
LINE
  5
61
330
17
100
AcDbEntity
  8
0
100
AcDbLine
 10
33.1324
 20
159.812
 30
0.0
 11
32.1
 21
161.357
 31
0.0
  0
LINE
  5
62
330
17
100
AcDbEntity
  8
0
100
AcDbLine
 10
32.1
 20
161.357
 30
0.0
 11
31.7375
 21
163.18
 31
0.0
  0
LINE
  5
63
330
17
100
AcDbEntity
  8
0
100
AcDbLine
 10
31.7375
 20
238.745
 30
0.0
 11
32.1
 21
240.568
 31
0.0
  0
LINE
  5
64
330
17
100
AcDbEntity
  8
0
100
AcDbLine
 10
32.1
 20
240.568
 30
0.0
 11
33.1324
 21
242.113
 31
0.0
  0
LINE
  5
65
330
17
100
AcDbEntity
  8
0
100
AcDbLine
 10
33.1324
 20
242.113
 30
0.0
 11
34.6775
 21
243.145
 31
0.0
  0
LINE
  5
66
330
17
100
AcDbEntity
  8
0
100
AcDbLine
 10
34.6775
 20
243.145
 30
0.0
 11
36.5
 21
243.508
 31
0.0
  0
LINE
  5
67
330
17
100
AcDbEntity
  8
0
100
AcDbLine
 10
36.5
 20
243.508
 30
0.0
 11
38.3225
 21
243.145
 31
0.0
  0
LINE
  5
68
330
17
100
AcDbEntity
  8
0
100
AcDbLine
 10
38.3225
 20
243.145
 30
0.0
 11
39.8676
 21
242.113
 31
0.0
  0
LINE
  5
69
330
17
100
AcDbEntity
  8
0
100
AcDbLine
 10
39.8676
 20
242.113
 30
0.0
 11
40.9
 21
240.568
 31
0.0
  0
LINE
  5
6A
330
17
100
AcDbEntity
  8
0
100
AcDbLine
 10
40.9
 20
240.568
 30
0.0
 11
41.2625
 21
238.745
 31
0.0
  0
LINE
  5
6B
330
17
100
AcDbEntity
  8
0
100
AcDbLine
 10
41.2625
 20
238.745
 30
0.0
 11
40.9
 21
236.922
 31
0.0
  0
LINE
  5
6C
330
17
100
AcDbEntity
  8
0
100
AcDbLine
 10
40.9
 20
236.922
 30
0.0
 11
39.8676
 21
235.377
 31
0.0
  0
LINE
  5
6D
330
17
100
AcDbEntity
  8
0
100
AcDbLine
 10
39.8676
 20
235.377
 30
0.0
 11
38.3225
 21
234.345
 31
0.0
  0
LINE
  5
6E
330
17
100
AcDbEntity
  8
0
100
AcDbLine
 10
38.3225
 20
234.345
 30
0.0
 11
36.5
 21
233.983
 31
0.0
  0
LINE
  5
6F
330
17
100
AcDbEntity
  8
0
100
AcDbLine
 10
36.5
 20
233.983
 30
0.0
 11
34.6775
 21
234.345
 31
0.0
  0
LINE
  5
70
330
17
100
AcDbEntity
  8
0
100
AcDbLine
 10
34.6775
 20
234.345
 30
0.0
 11
33.1324
 21
235.377
 31
0.0
  0
LINE
  5
71
330
17
100
AcDbEntity
  8
0
100
AcDbLine
 10
33.1324
 20
235.377
 30
0.0
 11
32.1
 21
236.922
 31
0.0
  0
LINE
  5
72
330
17
100
AcDbEntity
  8
0
100
AcDbLine
 10
32.1
 20
236.922
 30
0.0
 11
31.7375
 21
238.745
 31
0.0
  0
LINE
  5
73
330
17
100
AcDbEntity
  8
0
100
AcDbLine
 10
31.7375
 20
306.055
 30
0.0
 11
32.1
 21
307.878
 31
0.0
  0
LINE
  5
74
330
17
100
AcDbEntity
  8
0
100
AcDbLine
 10
32.1
 20
307.878
 30
0.0
 11
33.1324
 21
309.423
 31
0.0
  0
LINE
  5
75
330
17
100
AcDbEntity
  8
0
100
AcDbLine
 10
33.1324
 20
309.423
 30
0.0
 11
34.6775
 21
310.455
 31
0.0
  0
LINE
  5
76
330
17
100
AcDbEntity
  8
0
100
AcDbLine
 10
34.6775
 20
310.455
 30
0.0
 11
36.5
 21
310.818
 31
0.0
  0
LINE
  5
77
330
17
100
AcDbEntity
  8
0
100
AcDbLine
 10
36.5
 20
310.818
 30
0.0
 11
38.3225
 21
310.455
 31
0.0
  0
LINE
  5
78
330
17
100
AcDbEntity
  8
0
100
AcDbLine
 10
38.3225
 20
310.455
 30
0.0
 11
39.8676
 21
309.423
 31
0.0
  0
LINE
  5
79
330
17
100
AcDbEntity
  8
0
100
AcDbLine
 10
39.8676
 20
309.423
 30
0.0
 11
40.9
 21
307.878
 31
0.0
  0
LINE
  5
7A
330
17
100
AcDbEntity
  8
0
100
AcDbLine
 10
40.9
 20
307.878
 30
0.0
 11
41.2625
 21
306.055
 31
0.0
  0
LINE
  5
7B
330
17
100
AcDbEntity
  8
0
100
AcDbLine
 10
41.2625
 20
306.055
 30
0.0
 11
40.9
 21
304.232
 31
0.0
  0
LINE
  5
7C
330
17
100
AcDbEntity
  8
0
100
AcDbLine
 10
40.9
 20
304.232
 30
0.0
 11
39.8676
 21
302.687
 31
0.0
  0
LINE
  5
7D
330
17
100
AcDbEntity
  8
0
100
AcDbLine
 10
39.8676
 20
302.687
 30
0.0
 11
38.3225
 21
301.655
 31
0.0
  0
LINE
  5
7E
330
17
100
AcDbEntity
  8
0
100
AcDbLine
 10
38.3225
 20
301.655
 30
0.0
 11
36.5
 21
301.293
 31
0.0
  0
LINE
  5
7F
330
17
100
AcDbEntity
  8
0
100
AcDbLine
 10
36.5
 20
301.293
 30
0.0
 11
34.6775
 21
301.655
 31
0.0
  0
LINE
  5
80
330
17
100
AcDbEntity
  8
0
100
AcDbLine
 10
34.6775
 20
301.655
 30
0.0
 11
33.1324
 21
302.687
 31
0.0
  0
LINE
  5
81
330
17
100
AcDbEntity
  8
0
100
AcDbLine
 10
33.1324
 20
302.687
 30
0.0
 11
32.1
 21
304.232
 31
0.0
  0
LINE
  5
82
330
17
100
AcDbEntity
  8
0
100
AcDbLine
 10
32.1
 20
304.232
 30
0.0
 11
31.7375
 21
306.055
 31
0.0
  0
LINE
  5
83
330
17
100
AcDbEntity
  8
0
100
AcDbLine
 10
31.7375
 20
713.945
 30
0.0
 11
32.1
 21
715.768
 31
0.0
  0
LINE
  5
84
330
17
100
AcDbEntity
  8
0
100
AcDbLine
 10
32.1
 20
715.768
 30
0.0
 11
33.1324
 21
717.313
 31
0.0
  0
LINE
  5
85
330
17
100
AcDbEntity
  8
0
100
AcDbLine
 10
33.1324
 20
717.313
 30
0.0
 11
34.6775
 21
718.345
 31
0.0
  0
LINE
  5
86
330
17
100
AcDbEntity
  8
0
100
AcDbLine
 10
34.6775
 20
718.345
 30
0.0
 11
36.5
 21
718.707
 31
0.0
  0
LINE
  5
87
330
17
100
AcDbEntity
  8
0
100
AcDbLine
 10
36.5
 20
718.707
 30
0.0
 11
38.3225
 21
718.345
 31
0.0
  0
LINE
  5
88
330
17
100
AcDbEntity
  8
0
100
AcDbLine
 10
38.3225
 20
718.345
 30
0.0
 11
39.8676
 21
717.313
 31
0.0
  0
LINE
  5
89
330
17
100
AcDbEntity
  8
0
100
AcDbLine
 10
39.8676
 20
717.313
 30
0.0
 11
40.9
 21
715.768
 31
0.0
  0
LINE
  5
8A
330
17
100
AcDbEntity
  8
0
100
AcDbLine
 10
40.9
 20
715.768
 30
0.0
 11
41.2625
 21
713.945
 31
0.0
  0
LINE
  5
8B
330
17
100
AcDbEntity
  8
0
100
AcDbLine
 10
41.2625
 20
713.945
 30
0.0
 11
40.9
 21
712.122
 31
0.0
  0
LINE
  5
8C
330
17
100
AcDbEntity
  8
0
100
AcDbLine
 10
40.9
 20
712.122
 30
0.0
 11
39.8676
 21
710.577
 31
0.0
  0
LINE
  5
8D
330
17
100
AcDbEntity
  8
0
100
AcDbLine
 10
39.8676
 20
710.577
 30
0.0
 11
38.3225
 21
709.545
 31
0.0
  0
LINE
  5
8E
330
17
100
AcDbEntity
  8
0
100
AcDbLine
 10
38.3225
 20
709.545
 30
0.0
 11
36.5
 21
709.182
 31
0.0
  0
LINE
  5
8F
330
17
100
AcDbEntity
  8
0
100
AcDbLine
 10
36.5
 20
709.182
 30
0.0
 11
34.6775
 21
709.545
 31
0.0
  0
LINE
  5
90
330
17
100
AcDbEntity
  8
0
100
AcDbLine
 10
34.6775
 20
709.545
 30
0.0
 11
33.1324
 21
710.577
 31
0.0
  0
LINE
  5
91
330
17
100
AcDbEntity
  8
0
100
AcDbLine
 10
33.1324
 20
710.577
 30
0.0
 11
32.1
 21
712.122
 31
0.0
  0
LINE
  5
92
330
17
100
AcDbEntity
  8
0
100
AcDbLine
 10
32.1
 20
712.122
 30
0.0
 11
31.7375
 21
713.945
 31
0.0
  0
LINE
  5
93
330
17
100
AcDbEntity
  8
0
100
AcDbLine
 10
31.7375
 20
781.255
 30
0.0
 11
32.1
 21
783.078
 31
0.0
  0
LINE
  5
94
330
17
100
AcDbEntity
  8
0
100
AcDbLine
 10
32.1
 20
783.078
 30
0.0
 11
33.1324
 21
784.623
 31
0.0
  0
LINE
  5
95
330
17
100
AcDbEntity
  8
0
100
AcDbLine
 10
33.1324
 20
784.623
 30
0.0
 11
34.6775
 21
785.655
 31
0.0
  0
LINE
  5
96
330
17
100
AcDbEntity
  8
0
100
AcDbLine
 10
34.6775
 20
785.655
 30
0.0
 11
36.5
 21
786.017
 31
0.0
  0
LINE
  5
97
330
17
100
AcDbEntity
  8
0
100
AcDbLine
 10
36.5
 20
786.017
 30
0.0
 11
38.3225
 21
785.655
 31
0.0
  0
LINE
  5
98
330
17
100
AcDbEntity
  8
0
100
AcDbLine
 10
38.3225
 20
785.655
 30
0.0
 11
39.8676
 21
784.623
 31
0.0
  0
LINE
  5
99
330
17
100
AcDbEntity
  8
0
100
AcDbLine
 10
39.8676
 20
784.623
 30
0.0
 11
40.9
 21
783.078
 31
0.0
  0
LINE
  5
9A
330
17
100
AcDbEntity
  8
0
100
AcDbLine
 10
40.9
 20
783.078
 30
0.0
 11
41.2625
 21
781.255
 31
0.0
  0
LINE
  5
9B
330
17
100
AcDbEntity
  8
0
100
AcDbLine
 10
41.2625
 20
781.255
 30
0.0
 11
40.9
 21
779.432
 31
0.0
  0
LINE
  5
9C
330
17
100
AcDbEntity
  8
0
100
AcDbLine
 10
40.9
 20
779.432
 30
0.0
 11
39.8676
 21
777.887
 31
0.0
  0
LINE
  5
9D
330
17
100
AcDbEntity
  8
0
100
AcDbLine
 10
39.8676
 20
777.887
 30
0.0
 11
38.3225
 21
776.855
 31
0.0
  0
LINE
  5
9E
330
17
100
AcDbEntity
  8
0
100
AcDbLine
 10
38.3225
 20
776.855
 30
0.0
 11
36.5
 21
776.492
 31
0.0
  0
LINE
  5
9F
330
17
100
AcDbEntity
  8
0
100
AcDbLine
 10
36.5
 20
776.492
 30
0.0
 11
34.6775
 21
776.855
 31
0.0
  0
LINE
  5
A0
330
17
100
AcDbEntity
  8
0
100
AcDbLine
 10
34.6775
 20
776.855
 30
0.0
 11
33.1324
 21
777.887
 31
0.0
  0
LINE
  5
A1
330
17
100
AcDbEntity
  8
0
100
AcDbLine
 10
33.1324
 20
777.887
 30
0.0
 11
32.1
 21
779.432
 31
0.0
  0
LINE
  5
A2
330
17
100
AcDbEntity
  8
0
100
AcDbLine
 10
32.1
 20
779.432
 30
0.0
 11
31.7375
 21
781.255
 31
0.0
  0
LINE
  5
A3
330
17
100
AcDbEntity
  8
0
100
AcDbLine
 10
31.7375
 20
856.82
 30
0.0
 11
32.1
 21
858.643
 31
0.0
  0
LINE
  5
A4
330
17
100
AcDbEntity
  8
0
100
AcDbLine
 10
32.1
 20
858.643
 30
0.0
 11
33.1324
 21
860.188
 31
0.0
  0
LINE
  5
A5
330
17
100
AcDbEntity
  8
0
100
AcDbLine
 10
33.1324
 20
860.188
 30
0.0
 11
34.6775
 21
861.22
 31
0.0
  0
LINE
  5
A6
330
17
100
AcDbEntity
  8
0
100
AcDbLine
 10
34.6775
 20
861.22
 30
0.0
 11
36.5
 21
861.582
 31
0.0
  0
LINE
  5
A7
330
17
100
AcDbEntity
  8
0
100
AcDbLine
 10
36.5
 20
861.582
 30
0.0
 11
38.3225
 21
861.22
 31
0.0
  0
LINE
  5
A8
330
17
100
AcDbEntity
  8
0
100
AcDbLine
 10
38.3225
 20
861.22
 30
0.0
 11
39.8676
 21
860.188
 31
0.0
  0
LINE
  5
A9
330
17
100
AcDbEntity
  8
0
100
AcDbLine
 10
39.8676
 20
860.188
 30
0.0
 11
40.9
 21
858.643
 31
0.0
  0
LINE
  5
AA
330
17
100
AcDbEntity
  8
0
100
AcDbLine
 10
40.9
 20
858.643
 30
0.0
 11
41.2625
 21
856.82
 31
0.0
  0
LINE
  5
AB
330
17
100
AcDbEntity
  8
0
100
AcDbLine
 10
41.2625
 20
856.82
 30
0.0
 11
40.9
 21
854.997
 31
0.0
  0
LINE
  5
AC
330
17
100
AcDbEntity
  8
0
100
AcDbLine
 10
40.9
 20
854.997
 30
0.0
 11
39.8676
 21
853.452
 31
0.0
  0
LINE
  5
AD
330
17
100
AcDbEntity
  8
0
100
AcDbLine
 10
39.8676
 20
853.452
 30
0.0
 11
38.3225
 21
852.42
 31
0.0
  0
LINE
  5
AE
330
17
100
AcDbEntity
  8
0
100
AcDbLine
 10
38.3225
 20
852.42
 30
0.0
 11
36.5
 21
852.057
 31
0.0
  0
LINE
  5
AF
330
17
100
AcDbEntity
  8
0
100
AcDbLine
 10
36.5
 20
852.057
 30
0.0
 11
34.6775
 21
852.42
 31
0.0
  0
LINE
  5
B0
330
17
100
AcDbEntity
  8
0
100
AcDbLine
 10
34.6775
 20
852.42
 30
0.0
 11
33.1324
 21
853.452
 31
0.0
  0
LINE
  5
B1
330
17
100
AcDbEntity
  8
0
100
AcDbLine
 10
33.1324
 20
853.452
 30
0.0
 11
32.1
 21
854.997
 31
0.0
  0
LINE
  5
B2
330
17
100
AcDbEntity
  8
0
100
AcDbLine
 10
32.1
 20
854.997
 30
0.0
 11
31.7375
 21
856.82
 31
0.0
  0
LINE
  5
B3
330
17
100
AcDbEntity
  8
0
100
AcDbLine
 10
31.7375
 20
930.48
 30
0.0
 11
32.1
 21
932.303
 31
0.0
  0
LINE
  5
B4
330
17
100
AcDbEntity
  8
0
100
AcDbLine
 10
32.1
 20
932.303
 30
0.0
 11
33.1324
 21
933.848
 31
0.0
  0
LINE
  5
B5
330
17
100
AcDbEntity
  8
0
100
AcDbLine
 10
33.1324
 20
933.848
 30
0.0
 11
34.6775
 21
934.88
 31
0.0
  0
LINE
  5
B6
330
17
100
AcDbEntity
  8
0
100
AcDbLine
 10
34.6775
 20
934.88
 30
0.0
 11
36.5
 21
935.242
 31
0.0
  0
LINE
  5
B7
330
17
100
AcDbEntity
  8
0
100
AcDbLine
 10
36.5
 20
935.242
 30
0.0
 11
38.3225
 21
934.88
 31
0.0
  0
LINE
  5
B8
330
17
100
AcDbEntity
  8
0
100
AcDbLine
 10
38.3225
 20
934.88
 30
0.0
 11
39.8676
 21
933.848
 31
0.0
  0
LINE
  5
B9
330
17
100
AcDbEntity
  8
0
100
AcDbLine
 10
39.8676
 20
933.848
 30
0.0
 11
40.9
 21
932.303
 31
0.0
  0
LINE
  5
BA
330
17
100
AcDbEntity
  8
0
100
AcDbLine
 10
40.9
 20
932.303
 30
0.0
 11
41.2625
 21
930.48
 31
0.0
  0
LINE
  5
BB
330
17
100
AcDbEntity
  8
0
100
AcDbLine
 10
41.2625
 20
930.48
 30
0.0
 11
40.9
 21
928.657
 31
0.0
  0
LINE
  5
BC
330
17
100
AcDbEntity
  8
0
100
AcDbLine
 10
40.9
 20
928.657
 30
0.0
 11
39.8676
 21
927.112
 31
0.0
  0
LINE
  5
BD
330
17
100
AcDbEntity
  8
0
100
AcDbLine
 10
39.8676
 20
927.112
 30
0.0
 11
38.3225
 21
926.08
 31
0.0
  0
LINE
  5
BE
330
17
100
AcDbEntity
  8
0
100
AcDbLine
 10
38.3225
 20
926.08
 30
0.0
 11
36.5
 21
925.717
 31
0.0
  0
LINE
  5
BF
330
17
100
AcDbEntity
  8
0
100
AcDbLine
 10
36.5
 20
925.717
 30
0.0
 11
34.6775
 21
926.08
 31
0.0
  0
LINE
  5
C0
330
17
100
AcDbEntity
  8
0
100
AcDbLine
 10
34.6775
 20
926.08
 30
0.0
 11
33.1324
 21
927.112
 31
0.0
  0
LINE
  5
C1
330
17
100
AcDbEntity
  8
0
100
AcDbLine
 10
33.1324
 20
927.112
 30
0.0
 11
32.1
 21
928.657
 31
0.0
  0
LINE
  5
C2
330
17
100
AcDbEntity
  8
0
100
AcDbLine
 10
32.1
 20
928.657
 30
0.0
 11
31.7375
 21
930.48
 31
0.0
  0
LINE
  5
C3
330
17
100
AcDbEntity
  8
0
100
AcDbLine
 10
31.7375
 20
989.52
 30
0.0
 11
32.1
 21
991.343
 31
0.0
  0
LINE
  5
C4
330
17
100
AcDbEntity
  8
0
100
AcDbLine
 10
32.1
 20
991.343
 30
0.0
 11
33.1324
 21
992.888
 31
0.0
  0
LINE
  5
C5
330
17
100
AcDbEntity
  8
0
100
AcDbLine
 10
33.1324
 20
992.888
 30
0.0
 11
34.6775
 21
993.92
 31
0.0
  0
LINE
  5
C6
330
17
100
AcDbEntity
  8
0
100
AcDbLine
 10
34.6775
 20
993.92
 30
0.0
 11
36.5
 21
994.282
 31
0.0
  0
LINE
  5
C7
330
17
100
AcDbEntity
  8
0
100
AcDbLine
 10
36.5
 20
994.282
 30
0.0
 11
38.3225
 21
993.92
 31
0.0
  0
LINE
  5
C8
330
17
100
AcDbEntity
  8
0
100
AcDbLine
 10
38.3225
 20
993.92
 30
0.0
 11
39.8676
 21
992.888
 31
0.0
  0
LINE
  5
C9
330
17
100
AcDbEntity
  8
0
100
AcDbLine
 10
39.8676
 20
992.888
 30
0.0
 11
40.9
 21
991.343
 31
0.0
  0
LINE
  5
CA
330
17
100
AcDbEntity
  8
0
100
AcDbLine
 10
40.9
 20
991.343
 30
0.0
 11
41.2625
 21
989.52
 31
0.0
  0
LINE
  5
CB
330
17
100
AcDbEntity
  8
0
100
AcDbLine
 10
41.2625
 20
989.52
 30
0.0
 11
40.9
 21
987.697
 31
0.0
  0
LINE
  5
CC
330
17
100
AcDbEntity
  8
0
100
AcDbLine
 10
40.9
 20
987.697
 30
0.0
 11
39.8676
 21
986.152
 31
0.0
  0
LINE
  5
CD
330
17
100
AcDbEntity
  8
0
100
AcDbLine
 10
39.8676
 20
986.152
 30
0.0
 11
38.3225
 21
985.12
 31
0.0
  0
LINE
  5
CE
330
17
100
AcDbEntity
  8
0
100
AcDbLine
 10
38.3225
 20
985.12
 30
0.0
 11
36.5
 21
984.757
 31
0.0
  0
LINE
  5
CF
330
17
100
AcDbEntity
  8
0
100
AcDbLine
 10
36.5
 20
984.757
 30
0.0
 11
34.6775
 21
985.12
 31
0.0
  0
LINE
  5
D0
330
17
100
AcDbEntity
  8
0
100
AcDbLine
 10
34.6775
 20
985.12
 30
0.0
 11
33.1324
 21
986.152
 31
0.0
  0
LINE
  5
D1
330
17
100
AcDbEntity
  8
0
100
AcDbLine
 10
33.1324
 20
986.152
 30
0.0
 11
32.1
 21
987.697
 31
0.0
  0
LINE
  5
D2
330
17
100
AcDbEntity
  8
0
100
AcDbLine
 10
32.1
 20
987.697
 30
0.0
 11
31.7375
 21
989.52
 31
0.0
  0
LINE
  5
D3
330
17
100
AcDbEntity
  8
0
100
AcDbLine
 10
104.737
 20
30.48
 30
0.0
 11
105.1
 21
32.3025
 31
0.0
  0
LINE
  5
D4
330
17
100
AcDbEntity
  8
0
100
AcDbLine
 10
105.1
 20
32.3025
 30
0.0
 11
106.132
 21
33.8476
 31
0.0
  0
LINE
  5
D5
330
17
100
AcDbEntity
  8
0
100
AcDbLine
 10
106.132
 20
33.8476
 30
0.0
 11
107.677
 21
34.88
 31
0.0
  0
LINE
  5
D6
330
17
100
AcDbEntity
  8
0
100
AcDbLine
 10
107.677
 20
34.88
 30
0.0
 11
109.5
 21
35.2425
 31
0.0
  0
LINE
  5
D7
330
17
100
AcDbEntity
  8
0
100
AcDbLine
 10
109.5
 20
35.2425
 30
0.0
 11
111.323
 21
34.88
 31
0.0
  0
LINE
  5
D8
330
17
100
AcDbEntity
  8
0
100
AcDbLine
 10
111.323
 20
34.88
 30
0.0
 11
112.868
 21
33.8476
 31
0.0
  0
LINE
  5
D9
330
17
100
AcDbEntity
  8
0
100
AcDbLine
 10
112.868
 20
33.8476
 30
0.0
 11
113.9
 21
32.3025
 31
0.0
  0
LINE
  5
DA
330
17
100
AcDbEntity
  8
0
100
AcDbLine
 10
113.9
 20
32.3025
 30
0.0
 11
114.262
 21
30.48
 31
0.0
  0
LINE
  5
DB
330
17
100
AcDbEntity
  8
0
100
AcDbLine
 10
114.262
 20
30.48
 30
0.0
 11
113.9
 21
28.6575
 31
0.0
  0
LINE
  5
DC
330
17
100
AcDbEntity
  8
0
100
AcDbLine
 10
113.9
 20
28.6575
 30
0.0
 11
112.868
 21
27.1124
 31
0.0
  0
LINE
  5
DD
330
17
100
AcDbEntity
  8
0
100
AcDbLine
 10
112.868
 20
27.1124
 30
0.0
 11
111.323
 21
26.08
 31
0.0
  0
LINE
  5
DE
330
17
100
AcDbEntity
  8
0
100
AcDbLine
 10
111.323
 20
26.08
 30
0.0
 11
109.5
 21
25.7175
 31
0.0
  0
LINE
  5
DF
330
17
100
AcDbEntity
  8
0
100
AcDbLine
 10
109.5
 20
25.7175
 30
0.0
 11
107.677
 21
26.08
 31
0.0
  0
LINE
  5
E0
330
17
100
AcDbEntity
  8
0
100
AcDbLine
 10
107.677
 20
26.08
 30
0.0
 11
106.132
 21
27.1124
 31
0.0
  0
LINE
  5
E1
330
17
100
AcDbEntity
  8
0
100
AcDbLine
 10
106.132
 20
27.1124
 30
0.0
 11
105.1
 21
28.6575
 31
0.0
  0
LINE
  5
E2
330
17
100
AcDbEntity
  8
0
100
AcDbLine
 10
105.1
 20
28.6575
 30
0.0
 11
104.737
 21
30.48
 31
0.0
  0
LINE
  5
E3
330
17
100
AcDbEntity
  8
0
100
AcDbLine
 10
104.737
 20
89.52
 30
0.0
 11
105.1
 21
91.3425
 31
0.0
  0
LINE
  5
E4
330
17
100
AcDbEntity
  8
0
100
AcDbLine
 10
105.1
 20
91.3425
 30
0.0
 11
106.132
 21
92.8876
 31
0.0
  0
LINE
  5
E5
330
17
100
AcDbEntity
  8
0
100
AcDbLine
 10
106.132
 20
92.8876
 30
0.0
 11
107.677
 21
93.92
 31
0.0
  0
LINE
  5
E6
330
17
100
AcDbEntity
  8
0
100
AcDbLine
 10
107.677
 20
93.92
 30
0.0
 11
109.5
 21
94.2825
 31
0.0
  0
LINE
  5
E7
330
17
100
AcDbEntity
  8
0
100
AcDbLine
 10
109.5
 20
94.2825
 30
0.0
 11
111.323
 21
93.92
 31
0.0
  0
LINE
  5
E8
330
17
100
AcDbEntity
  8
0
100
AcDbLine
 10
111.323
 20
93.92
 30
0.0
 11
112.868
 21
92.8876
 31
0.0
  0
LINE
  5
E9
330
17
100
AcDbEntity
  8
0
100
AcDbLine
 10
112.868
 20
92.8876
 30
0.0
 11
113.9
 21
91.3425
 31
0.0
  0
LINE
  5
EA
330
17
100
AcDbEntity
  8
0
100
AcDbLine
 10
113.9
 20
91.3425
 30
0.0
 11
114.262
 21
89.52
 31
0.0
  0
LINE
  5
EB
330
17
100
AcDbEntity
  8
0
100
AcDbLine
 10
114.262
 20
89.52
 30
0.0
 11
113.9
 21
87.6975
 31
0.0
  0
LINE
  5
EC
330
17
100
AcDbEntity
  8
0
100
AcDbLine
 10
113.9
 20
87.6975
 30
0.0
 11
112.868
 21
86.1524
 31
0.0
  0
LINE
  5
ED
330
17
100
AcDbEntity
  8
0
100
AcDbLine
 10
112.868
 20
86.1524
 30
0.0
 11
111.323
 21
85.12
 31
0.0
  0
LINE
  5
EE
330
17
100
AcDbEntity
  8
0
100
AcDbLine
 10
111.323
 20
85.12
 30
0.0
 11
109.5
 21
84.7575
 31
0.0
  0
LINE
  5
EF
330
17
100
AcDbEntity
  8
0
100
AcDbLine
 10
109.5
 20
84.7575
 30
0.0
 11
107.677
 21
85.12
 31
0.0
  0
LINE
  5
F0
330
17
100
AcDbEntity
  8
0
100
AcDbLine
 10
107.677
 20
85.12
 30
0.0
 11
106.132
 21
86.1524
 31
0.0
  0
LINE
  5
F1
330
17
100
AcDbEntity
  8
0
100
AcDbLine
 10
106.132
 20
86.1524
 30
0.0
 11
105.1
 21
87.6975
 31
0.0
  0
LINE
  5
F2
330
17
100
AcDbEntity
  8
0
100
AcDbLine
 10
105.1
 20
87.6975
 30
0.0
 11
104.737
 21
89.52
 31
0.0
  0
LINE
  5
F3
330
17
100
AcDbEntity
  8
0
100
AcDbLine
 10
104.737
 20
163.18
 30
0.0
 11
105.1
 21
165.003
 31
0.0
  0
LINE
  5
F4
330
17
100
AcDbEntity
  8
0
100
AcDbLine
 10
105.1
 20
165.003
 30
0.0
 11
106.132
 21
166.548
 31
0.0
  0
LINE
  5
F5
330
17
100
AcDbEntity
  8
0
100
AcDbLine
 10
106.132
 20
166.548
 30
0.0
 11
107.677
 21
167.58
 31
0.0
  0
LINE
  5
F6
330
17
100
AcDbEntity
  8
0
100
AcDbLine
 10
107.677
 20
167.58
 30
0.0
 11
109.5
 21
167.943
 31
0.0
  0
LINE
  5
F7
330
17
100
AcDbEntity
  8
0
100
AcDbLine
 10
109.5
 20
167.943
 30
0.0
 11
111.323
 21
167.58
 31
0.0
  0
LINE
  5
F8
330
17
100
AcDbEntity
  8
0
100
AcDbLine
 10
111.323
 20
167.58
 30
0.0
 11
112.868
 21
166.548
 31
0.0
  0
LINE
  5
F9
330
17
100
AcDbEntity
  8
0
100
AcDbLine
 10
112.868
 20
166.548
 30
0.0
 11
113.9
 21
165.003
 31
0.0
  0
LINE
  5
FA
330
17
100
AcDbEntity
  8
0
100
AcDbLine
 10
113.9
 20
165.003
 30
0.0
 11
114.262
 21
163.18
 31
0.0
  0
LINE
  5
FB
330
17
100
AcDbEntity
  8
0
100
AcDbLine
 10
114.262
 20
163.18
 30
0.0
 11
113.9
 21
161.357
 31
0.0
  0
LINE
  5
FC
330
17
100
AcDbEntity
  8
0
100
AcDbLine
 10
113.9
 20
161.357
 30
0.0
 11
112.868
 21
159.812
 31
0.0
  0
LINE
  5
FD
330
17
100
AcDbEntity
  8
0
100
AcDbLine
 10
112.868
 20
159.812
 30
0.0
 11
111.323
 21
158.78
 31
0.0
  0
LINE
  5
FE
330
17
100
AcDbEntity
  8
0
100
AcDbLine
 10
111.323
 20
158.78
 30
0.0
 11
109.5
 21
158.418
 31
0.0
  0
LINE
  5
FF
330
17
100
AcDbEntity
  8
0
100
AcDbLine
 10
109.5
 20
158.418
 30
0.0
 11
107.677
 21
158.78
 31
0.0
  0
LINE
  5
100
330
17
100
AcDbEntity
  8
0
100
AcDbLine
 10
107.677
 20
158.78
 30
0.0
 11
106.132
 21
159.812
 31
0.0
  0
LINE
  5
101
330
17
100
AcDbEntity
  8
0
100
AcDbLine
 10
106.132
 20
159.812
 30
0.0
 11
105.1
 21
161.357
 31
0.0
  0
LINE
  5
102
330
17
100
AcDbEntity
  8
0
100
AcDbLine
 10
105.1
 20
161.357
 30
0.0
 11
104.737
 21
163.18
 31
0.0
  0
LINE
  5
103
330
17
100
AcDbEntity
  8
0
100
AcDbLine
 10
104.737
 20
238.745
 30
0.0
 11
105.1
 21
240.568
 31
0.0
  0
LINE
  5
104
330
17
100
AcDbEntity
  8
0
100
AcDbLine
 10
105.1
 20
240.568
 30
0.0
 11
106.132
 21
242.113
 31
0.0
  0
LINE
  5
105
330
17
100
AcDbEntity
  8
0
100
AcDbLine
 10
106.132
 20
242.113
 30
0.0
 11
107.677
 21
243.145
 31
0.0
  0
LINE
  5
106
330
17
100
AcDbEntity
  8
0
100
AcDbLine
 10
107.677
 20
243.145
 30
0.0
 11
109.5
 21
243.508
 31
0.0
  0
LINE
  5
107
330
17
100
AcDbEntity
  8
0
100
AcDbLine
 10
109.5
 20
243.508
 30
0.0
 11
111.323
 21
243.145
 31
0.0
  0
LINE
  5
108
330
17
100
AcDbEntity
  8
0
100
AcDbLine
 10
111.323
 20
243.145
 30
0.0
 11
112.868
 21
242.113
 31
0.0
  0
LINE
  5
109
330
17
100
AcDbEntity
  8
0
100
AcDbLine
 10
112.868
 20
242.113
 30
0.0
 11
113.9
 21
240.568
 31
0.0
  0
LINE
  5
10A
330
17
100
AcDbEntity
  8
0
100
AcDbLine
 10
113.9
 20
240.568
 30
0.0
 11
114.262
 21
238.745
 31
0.0
  0
LINE
  5
10B
330
17
100
AcDbEntity
  8
0
100
AcDbLine
 10
114.262
 20
238.745
 30
0.0
 11
113.9
 21
236.922
 31
0.0
  0
LINE
  5
10C
330
17
100
AcDbEntity
  8
0
100
AcDbLine
 10
113.9
 20
236.922
 30
0.0
 11
112.868
 21
235.377
 31
0.0
  0
LINE
  5
10D
330
17
100
AcDbEntity
  8
0
100
AcDbLine
 10
112.868
 20
235.377
 30
0.0
 11
111.323
 21
234.345
 31
0.0
  0
LINE
  5
10E
330
17
100
AcDbEntity
  8
0
100
AcDbLine
 10
111.323
 20
234.345
 30
0.0
 11
109.5
 21
233.983
 31
0.0
  0
LINE
  5
10F
330
17
100
AcDbEntity
  8
0
100
AcDbLine
 10
109.5
 20
233.983
 30
0.0
 11
107.677
 21
234.345
 31
0.0
  0
LINE
  5
110
330
17
100
AcDbEntity
  8
0
100
AcDbLine
 10
107.677
 20
234.345
 30
0.0
 11
106.132
 21
235.377
 31
0.0
  0
LINE
  5
111
330
17
100
AcDbEntity
  8
0
100
AcDbLine
 10
106.132
 20
235.377
 30
0.0
 11
105.1
 21
236.922
 31
0.0
  0
LINE
  5
112
330
17
100
AcDbEntity
  8
0
100
AcDbLine
 10
105.1
 20
236.922
 30
0.0
 11
104.737
 21
238.745
 31
0.0
  0
LINE
  5
113
330
17
100
AcDbEntity
  8
0
100
AcDbLine
 10
104.737
 20
306.055
 30
0.0
 11
105.1
 21
307.878
 31
0.0
  0
LINE
  5
114
330
17
100
AcDbEntity
  8
0
100
AcDbLine
 10
105.1
 20
307.878
 30
0.0
 11
106.132
 21
309.423
 31
0.0
  0
LINE
  5
115
330
17
100
AcDbEntity
  8
0
100
AcDbLine
 10
106.132
 20
309.423
 30
0.0
 11
107.677
 21
310.455
 31
0.0
  0
LINE
  5
116
330
17
100
AcDbEntity
  8
0
100
AcDbLine
 10
107.677
 20
310.455
 30
0.0
 11
109.5
 21
310.818
 31
0.0
  0
LINE
  5
117
330
17
100
AcDbEntity
  8
0
100
AcDbLine
 10
109.5
 20
310.818
 30
0.0
 11
111.323
 21
310.455
 31
0.0
  0
LINE
  5
118
330
17
100
AcDbEntity
  8
0
100
AcDbLine
 10
111.323
 20
310.455
 30
0.0
 11
112.868
 21
309.423
 31
0.0
  0
LINE
  5
119
330
17
100
AcDbEntity
  8
0
100
AcDbLine
 10
112.868
 20
309.423
 30
0.0
 11
113.9
 21
307.878
 31
0.0
  0
LINE
  5
11A
330
17
100
AcDbEntity
  8
0
100
AcDbLine
 10
113.9
 20
307.878
 30
0.0
 11
114.262
 21
306.055
 31
0.0
  0
LINE
  5
11B
330
17
100
AcDbEntity
  8
0
100
AcDbLine
 10
114.262
 20
306.055
 30
0.0
 11
113.9
 21
304.232
 31
0.0
  0
LINE
  5
11C
330
17
100
AcDbEntity
  8
0
100
AcDbLine
 10
113.9
 20
304.232
 30
0.0
 11
112.868
 21
302.687
 31
0.0
  0
LINE
  5
11D
330
17
100
AcDbEntity
  8
0
100
AcDbLine
 10
112.868
 20
302.687
 30
0.0
 11
111.323
 21
301.655
 31
0.0
  0
LINE
  5
11E
330
17
100
AcDbEntity
  8
0
100
AcDbLine
 10
111.323
 20
301.655
 30
0.0
 11
109.5
 21
301.293
 31
0.0
  0
LINE
  5
11F
330
17
100
AcDbEntity
  8
0
100
AcDbLine
 10
109.5
 20
301.293
 30
0.0
 11
107.677
 21
301.655
 31
0.0
  0
LINE
  5
120
330
17
100
AcDbEntity
  8
0
100
AcDbLine
 10
107.677
 20
301.655
 30
0.0
 11
106.132
 21
302.687
 31
0.0
  0
LINE
  5
121
330
17
100
AcDbEntity
  8
0
100
AcDbLine
 10
106.132
 20
302.687
 30
0.0
 11
105.1
 21
304.232
 31
0.0
  0
LINE
  5
122
330
17
100
AcDbEntity
  8
0
100
AcDbLine
 10
105.1
 20
304.232
 30
0.0
 11
104.737
 21
306.055
 31
0.0
  0
LINE
  5
123
330
17
100
AcDbEntity
  8
0
100
AcDbLine
 10
104.737
 20
713.945
 30
0.0
 11
105.1
 21
715.768
 31
0.0
  0
LINE
  5
124
330
17
100
AcDbEntity
  8
0
100
AcDbLine
 10
105.1
 20
715.768
 30
0.0
 11
106.132
 21
717.313
 31
0.0
  0
LINE
  5
125
330
17
100
AcDbEntity
  8
0
100
AcDbLine
 10
106.132
 20
717.313
 30
0.0
 11
107.677
 21
718.345
 31
0.0
  0
LINE
  5
126
330
17
100
AcDbEntity
  8
0
100
AcDbLine
 10
107.677
 20
718.345
 30
0.0
 11
109.5
 21
718.707
 31
0.0
  0
LINE
  5
127
330
17
100
AcDbEntity
  8
0
100
AcDbLine
 10
109.5
 20
718.707
 30
0.0
 11
111.323
 21
718.345
 31
0.0
  0
LINE
  5
128
330
17
100
AcDbEntity
  8
0
100
AcDbLine
 10
111.323
 20
718.345
 30
0.0
 11
112.868
 21
717.313
 31
0.0
  0
LINE
  5
129
330
17
100
AcDbEntity
  8
0
100
AcDbLine
 10
112.868
 20
717.313
 30
0.0
 11
113.9
 21
715.768
 31
0.0
  0
LINE
  5
12A
330
17
100
AcDbEntity
  8
0
100
AcDbLine
 10
113.9
 20
715.768
 30
0.0
 11
114.262
 21
713.945
 31
0.0
  0
LINE
  5
12B
330
17
100
AcDbEntity
  8
0
100
AcDbLine
 10
114.262
 20
713.945
 30
0.0
 11
113.9
 21
712.122
 31
0.0
  0
LINE
  5
12C
330
17
100
AcDbEntity
  8
0
100
AcDbLine
 10
113.9
 20
712.122
 30
0.0
 11
112.868
 21
710.577
 31
0.0
  0
LINE
  5
12D
330
17
100
AcDbEntity
  8
0
100
AcDbLine
 10
112.868
 20
710.577
 30
0.0
 11
111.323
 21
709.545
 31
0.0
  0
LINE
  5
12E
330
17
100
AcDbEntity
  8
0
100
AcDbLine
 10
111.323
 20
709.545
 30
0.0
 11
109.5
 21
709.182
 31
0.0
  0
LINE
  5
12F
330
17
100
AcDbEntity
  8
0
100
AcDbLine
 10
109.5
 20
709.182
 30
0.0
 11
107.677
 21
709.545
 31
0.0
  0
LINE
  5
130
330
17
100
AcDbEntity
  8
0
100
AcDbLine
 10
107.677
 20
709.545
 30
0.0
 11
106.132
 21
710.577
 31
0.0
  0
LINE
  5
131
330
17
100
AcDbEntity
  8
0
100
AcDbLine
 10
106.132
 20
710.577
 30
0.0
 11
105.1
 21
712.122
 31
0.0
  0
LINE
  5
132
330
17
100
AcDbEntity
  8
0
100
AcDbLine
 10
105.1
 20
712.122
 30
0.0
 11
104.737
 21
713.945
 31
0.0
  0
LINE
  5
133
330
17
100
AcDbEntity
  8
0
100
AcDbLine
 10
104.737
 20
781.255
 30
0.0
 11
105.1
 21
783.078
 31
0.0
  0
LINE
  5
134
330
17
100
AcDbEntity
  8
0
100
AcDbLine
 10
105.1
 20
783.078
 30
0.0
 11
106.132
 21
784.623
 31
0.0
  0
LINE
  5
135
330
17
100
AcDbEntity
  8
0
100
AcDbLine
 10
106.132
 20
784.623
 30
0.0
 11
107.677
 21
785.655
 31
0.0
  0
LINE
  5
136
330
17
100
AcDbEntity
  8
0
100
AcDbLine
 10
107.677
 20
785.655
 30
0.0
 11
109.5
 21
786.017
 31
0.0
  0
LINE
  5
137
330
17
100
AcDbEntity
  8
0
100
AcDbLine
 10
109.5
 20
786.017
 30
0.0
 11
111.323
 21
785.655
 31
0.0
  0
LINE
  5
138
330
17
100
AcDbEntity
  8
0
100
AcDbLine
 10
111.323
 20
785.655
 30
0.0
 11
112.868
 21
784.623
 31
0.0
  0
LINE
  5
139
330
17
100
AcDbEntity
  8
0
100
AcDbLine
 10
112.868
 20
784.623
 30
0.0
 11
113.9
 21
783.078
 31
0.0
  0
LINE
  5
13A
330
17
100
AcDbEntity
  8
0
100
AcDbLine
 10
113.9
 20
783.078
 30
0.0
 11
114.262
 21
781.255
 31
0.0
  0
LINE
  5
13B
330
17
100
AcDbEntity
  8
0
100
AcDbLine
 10
114.262
 20
781.255
 30
0.0
 11
113.9
 21
779.432
 31
0.0
  0
LINE
  5
13C
330
17
100
AcDbEntity
  8
0
100
AcDbLine
 10
113.9
 20
779.432
 30
0.0
 11
112.868
 21
777.887
 31
0.0
  0
LINE
  5
13D
330
17
100
AcDbEntity
  8
0
100
AcDbLine
 10
112.868
 20
777.887
 30
0.0
 11
111.323
 21
776.855
 31
0.0
  0
LINE
  5
13E
330
17
100
AcDbEntity
  8
0
100
AcDbLine
 10
111.323
 20
776.855
 30
0.0
 11
109.5
 21
776.492
 31
0.0
  0
LINE
  5
13F
330
17
100
AcDbEntity
  8
0
100
AcDbLine
 10
109.5
 20
776.492
 30
0.0
 11
107.677
 21
776.855
 31
0.0
  0
LINE
  5
140
330
17
100
AcDbEntity
  8
0
100
AcDbLine
 10
107.677
 20
776.855
 30
0.0
 11
106.132
 21
777.887
 31
0.0
  0
LINE
  5
141
330
17
100
AcDbEntity
  8
0
100
AcDbLine
 10
106.132
 20
777.887
 30
0.0
 11
105.1
 21
779.432
 31
0.0
  0
LINE
  5
142
330
17
100
AcDbEntity
  8
0
100
AcDbLine
 10
105.1
 20
779.432
 30
0.0
 11
104.737
 21
781.255
 31
0.0
  0
LINE
  5
143
330
17
100
AcDbEntity
  8
0
100
AcDbLine
 10
104.737
 20
856.82
 30
0.0
 11
105.1
 21
858.643
 31
0.0
  0
LINE
  5
144
330
17
100
AcDbEntity
  8
0
100
AcDbLine
 10
105.1
 20
858.643
 30
0.0
 11
106.132
 21
860.188
 31
0.0
  0
LINE
  5
145
330
17
100
AcDbEntity
  8
0
100
AcDbLine
 10
106.132
 20
860.188
 30
0.0
 11
107.677
 21
861.22
 31
0.0
  0
LINE
  5
146
330
17
100
AcDbEntity
  8
0
100
AcDbLine
 10
107.677
 20
861.22
 30
0.0
 11
109.5
 21
861.582
 31
0.0
  0
LINE
  5
147
330
17
100
AcDbEntity
  8
0
100
AcDbLine
 10
109.5
 20
861.582
 30
0.0
 11
111.323
 21
861.22
 31
0.0
  0
LINE
  5
148
330
17
100
AcDbEntity
  8
0
100
AcDbLine
 10
111.323
 20
861.22
 30
0.0
 11
112.868
 21
860.188
 31
0.0
  0
LINE
  5
149
330
17
100
AcDbEntity
  8
0
100
AcDbLine
 10
112.868
 20
860.188
 30
0.0
 11
113.9
 21
858.643
 31
0.0
  0
LINE
  5
14A
330
17
100
AcDbEntity
  8
0
100
AcDbLine
 10
113.9
 20
858.643
 30
0.0
 11
114.262
 21
856.82
 31
0.0
  0
LINE
  5
14B
330
17
100
AcDbEntity
  8
0
100
AcDbLine
 10
114.262
 20
856.82
 30
0.0
 11
113.9
 21
854.997
 31
0.0
  0
LINE
  5
14C
330
17
100
AcDbEntity
  8
0
100
AcDbLine
 10
113.9
 20
854.997
 30
0.0
 11
112.868
 21
853.452
 31
0.0
  0
LINE
  5
14D
330
17
100
AcDbEntity
  8
0
100
AcDbLine
 10
112.868
 20
853.452
 30
0.0
 11
111.323
 21
852.42
 31
0.0
  0
LINE
  5
14E
330
17
100
AcDbEntity
  8
0
100
AcDbLine
 10
111.323
 20
852.42
 30
0.0
 11
109.5
 21
852.057
 31
0.0
  0
LINE
  5
14F
330
17
100
AcDbEntity
  8
0
100
AcDbLine
 10
109.5
 20
852.057
 30
0.0
 11
107.677
 21
852.42
 31
0.0
  0
LINE
  5
150
330
17
100
AcDbEntity
  8
0
100
AcDbLine
 10
107.677
 20
852.42
 30
0.0
 11
106.132
 21
853.452
 31
0.0
  0
LINE
  5
151
330
17
100
AcDbEntity
  8
0
100
AcDbLine
 10
106.132
 20
853.452
 30
0.0
 11
105.1
 21
854.997
 31
0.0
  0
LINE
  5
152
330
17
100
AcDbEntity
  8
0
100
AcDbLine
 10
105.1
 20
854.997
 30
0.0
 11
104.737
 21
856.82
 31
0.0
  0
LINE
  5
153
330
17
100
AcDbEntity
  8
0
100
AcDbLine
 10
104.737
 20
930.48
 30
0.0
 11
105.1
 21
932.303
 31
0.0
  0
LINE
  5
154
330
17
100
AcDbEntity
  8
0
100
AcDbLine
 10
105.1
 20
932.303
 30
0.0
 11
106.132
 21
933.848
 31
0.0
  0
LINE
  5
155
330
17
100
AcDbEntity
  8
0
100
AcDbLine
 10
106.132
 20
933.848
 30
0.0
 11
107.677
 21
934.88
 31
0.0
  0
LINE
  5
156
330
17
100
AcDbEntity
  8
0
100
AcDbLine
 10
107.677
 20
934.88
 30
0.0
 11
109.5
 21
935.242
 31
0.0
  0
LINE
  5
157
330
17
100
AcDbEntity
  8
0
100
AcDbLine
 10
109.5
 20
935.242
 30
0.0
 11
111.323
 21
934.88
 31
0.0
  0
LINE
  5
158
330
17
100
AcDbEntity
  8
0
100
AcDbLine
 10
111.323
 20
934.88
 30
0.0
 11
112.868
 21
933.848
 31
0.0
  0
LINE
  5
159
330
17
100
AcDbEntity
  8
0
100
AcDbLine
 10
112.868
 20
933.848
 30
0.0
 11
113.9
 21
932.303
 31
0.0
  0
LINE
  5
15A
330
17
100
AcDbEntity
  8
0
100
AcDbLine
 10
113.9
 20
932.303
 30
0.0
 11
114.262
 21
930.48
 31
0.0
  0
LINE
  5
15B
330
17
100
AcDbEntity
  8
0
100
AcDbLine
 10
114.262
 20
930.48
 30
0.0
 11
113.9
 21
928.657
 31
0.0
  0
LINE
  5
15C
330
17
100
AcDbEntity
  8
0
100
AcDbLine
 10
113.9
 20
928.657
 30
0.0
 11
112.868
 21
927.112
 31
0.0
  0
LINE
  5
15D
330
17
100
AcDbEntity
  8
0
100
AcDbLine
 10
112.868
 20
927.112
 30
0.0
 11
111.323
 21
926.08
 31
0.0
  0
LINE
  5
15E
330
17
100
AcDbEntity
  8
0
100
AcDbLine
 10
111.323
 20
926.08
 30
0.0
 11
109.5
 21
925.717
 31
0.0
  0
LINE
  5
15F
330
17
100
AcDbEntity
  8
0
100
AcDbLine
 10
109.5
 20
925.717
 30
0.0
 11
107.677
 21
926.08
 31
0.0
  0
LINE
  5
160
330
17
100
AcDbEntity
  8
0
100
AcDbLine
 10
107.677
 20
926.08
 30
0.0
 11
106.132
 21
927.112
 31
0.0
  0
LINE
  5
161
330
17
100
AcDbEntity
  8
0
100
AcDbLine
 10
106.132
 20
927.112
 30
0.0
 11
105.1
 21
928.657
 31
0.0
  0
LINE
  5
162
330
17
100
AcDbEntity
  8
0
100
AcDbLine
 10
105.1
 20
928.657
 30
0.0
 11
104.737
 21
930.48
 31
0.0
  0
LINE
  5
163
330
17
100
AcDbEntity
  8
0
100
AcDbLine
 10
104.737
 20
989.52
 30
0.0
 11
105.1
 21
991.343
 31
0.0
  0
LINE
  5
164
330
17
100
AcDbEntity
  8
0
100
AcDbLine
 10
105.1
 20
991.343
 30
0.0
 11
106.132
 21
992.888
 31
0.0
  0
LINE
  5
165
330
17
100
AcDbEntity
  8
0
100
AcDbLine
 10
106.132
 20
992.888
 30
0.0
 11
107.677
 21
993.92
 31
0.0
  0
LINE
  5
166
330
17
100
AcDbEntity
  8
0
100
AcDbLine
 10
107.677
 20
993.92
 30
0.0
 11
109.5
 21
994.282
 31
0.0
  0
LINE
  5
167
330
17
100
AcDbEntity
  8
0
100
AcDbLine
 10
109.5
 20
994.282
 30
0.0
 11
111.323
 21
993.92
 31
0.0
  0
LINE
  5
168
330
17
100
AcDbEntity
  8
0
100
AcDbLine
 10
111.323
 20
993.92
 30
0.0
 11
112.868
 21
992.888
 31
0.0
  0
LINE
  5
169
330
17
100
AcDbEntity
  8
0
100
AcDbLine
 10
112.868
 20
992.888
 30
0.0
 11
113.9
 21
991.343
 31
0.0
  0
LINE
  5
16A
330
17
100
AcDbEntity
  8
0
100
AcDbLine
 10
113.9
 20
991.343
 30
0.0
 11
114.262
 21
989.52
 31
0.0
  0
LINE
  5
16B
330
17
100
AcDbEntity
  8
0
100
AcDbLine
 10
114.262
 20
989.52
 30
0.0
 11
113.9
 21
987.697
 31
0.0
  0
LINE
  5
16C
330
17
100
AcDbEntity
  8
0
100
AcDbLine
 10
113.9
 20
987.697
 30
0.0
 11
112.868
 21
986.152
 31
0.0
  0
LINE
  5
16D
330
17
100
AcDbEntity
  8
0
100
AcDbLine
 10
112.868
 20
986.152
 30
0.0
 11
111.323
 21
985.12
 31
0.0
  0
LINE
  5
16E
330
17
100
AcDbEntity
  8
0
100
AcDbLine
 10
111.323
 20
985.12
 30
0.0
 11
109.5
 21
984.757
 31
0.0
  0
LINE
  5
16F
330
17
100
AcDbEntity
  8
0
100
AcDbLine
 10
109.5
 20
984.757
 30
0.0
 11
107.677
 21
985.12
 31
0.0
  0
LINE
  5
170
330
17
100
AcDbEntity
  8
0
100
AcDbLine
 10
107.677
 20
985.12
 30
0.0
 11
106.132
 21
986.152
 31
0.0
  0
LINE
  5
171
330
17
100
AcDbEntity
  8
0
100
AcDbLine
 10
106.132
 20
986.152
 30
0.0
 11
105.1
 21
987.697
 31
0.0
  0
LINE
  5
172
330
17
100
AcDbEntity
  8
0
100
AcDbLine
 10
105.1
 20
987.697
 30
0.0
 11
104.737
 21
989.52
 31
0.0
  0
LINE
  5
173
330
17
100
AcDbEntity
  8
0
100
AcDbLine
 10
453.797
 20
30.48
 30
0.0
 11
454.16
 21
32.3025
 31
0.0
  0
LINE
  5
174
330
17
100
AcDbEntity
  8
0
100
AcDbLine
 10
454.16
 20
32.3025
 30
0.0
 11
455.192
 21
33.8476
 31
0.0
  0
LINE
  5
175
330
17
100
AcDbEntity
  8
0
100
AcDbLine
 10
455.192
 20
33.8476
 30
0.0
 11
456.737
 21
34.88
 31
0.0
  0
LINE
  5
176
330
17
100
AcDbEntity
  8
0
100
AcDbLine
 10
456.737
 20
34.88
 30
0.0
 11
458.56
 21
35.2425
 31
0.0
  0
LINE
  5
177
330
17
100
AcDbEntity
  8
0
100
AcDbLine
 10
458.56
 20
35.2425
 30
0.0
 11
460.383
 21
34.88
 31
0.0
  0
LINE
  5
178
330
17
100
AcDbEntity
  8
0
100
AcDbLine
 10
460.383
 20
34.88
 30
0.0
 11
461.928
 21
33.8476
 31
0.0
  0
LINE
  5
179
330
17
100
AcDbEntity
  8
0
100
AcDbLine
 10
461.928
 20
33.8476
 30
0.0
 11
462.96
 21
32.3025
 31
0.0
  0
LINE
  5
17A
330
17
100
AcDbEntity
  8
0
100
AcDbLine
 10
462.96
 20
32.3025
 30
0.0
 11
463.322
 21
30.48
 31
0.0
  0
LINE
  5
17B
330
17
100
AcDbEntity
  8
0
100
AcDbLine
 10
463.322
 20
30.48
 30
0.0
 11
462.96
 21
28.6575
 31
0.0
  0
LINE
  5
17C
330
17
100
AcDbEntity
  8
0
100
AcDbLine
 10
462.96
 20
28.6575
 30
0.0
 11
461.928
 21
27.1124
 31
0.0
  0
LINE
  5
17D
330
17
100
AcDbEntity
  8
0
100
AcDbLine
 10
461.928
 20
27.1124
 30
0.0
 11
460.383
 21
26.08
 31
0.0
  0
LINE
  5
17E
330
17
100
AcDbEntity
  8
0
100
AcDbLine
 10
460.383
 20
26.08
 30
0.0
 11
458.56
 21
25.7175
 31
0.0
  0
LINE
  5
17F
330
17
100
AcDbEntity
  8
0
100
AcDbLine
 10
458.56
 20
25.7175
 30
0.0
 11
456.737
 21
26.08
 31
0.0
  0
LINE
  5
180
330
17
100
AcDbEntity
  8
0
100
AcDbLine
 10
456.737
 20
26.08
 30
0.0
 11
455.192
 21
27.1124
 31
0.0
  0
LINE
  5
181
330
17
100
AcDbEntity
  8
0
100
AcDbLine
 10
455.192
 20
27.1124
 30
0.0
 11
454.16
 21
28.6575
 31
0.0
  0
LINE
  5
182
330
17
100
AcDbEntity
  8
0
100
AcDbLine
 10
454.16
 20
28.6575
 30
0.0
 11
453.797
 21
30.48
 31
0.0
  0
LINE
  5
183
330
17
100
AcDbEntity
  8
0
100
AcDbLine
 10
453.797
 20
89.52
 30
0.0
 11
454.16
 21
91.3425
 31
0.0
  0
LINE
  5
184
330
17
100
AcDbEntity
  8
0
100
AcDbLine
 10
454.16
 20
91.3425
 30
0.0
 11
455.192
 21
92.8876
 31
0.0
  0
LINE
  5
185
330
17
100
AcDbEntity
  8
0
100
AcDbLine
 10
455.192
 20
92.8876
 30
0.0
 11
456.737
 21
93.92
 31
0.0
  0
LINE
  5
186
330
17
100
AcDbEntity
  8
0
100
AcDbLine
 10
456.737
 20
93.92
 30
0.0
 11
458.56
 21
94.2825
 31
0.0
  0
LINE
  5
187
330
17
100
AcDbEntity
  8
0
100
AcDbLine
 10
458.56
 20
94.2825
 30
0.0
 11
460.383
 21
93.92
 31
0.0
  0
LINE
  5
188
330
17
100
AcDbEntity
  8
0
100
AcDbLine
 10
460.383
 20
93.92
 30
0.0
 11
461.928
 21
92.8876
 31
0.0
  0
LINE
  5
189
330
17
100
AcDbEntity
  8
0
100
AcDbLine
 10
461.928
 20
92.8876
 30
0.0
 11
462.96
 21
91.3425
 31
0.0
  0
LINE
  5
18A
330
17
100
AcDbEntity
  8
0
100
AcDbLine
 10
462.96
 20
91.3425
 30
0.0
 11
463.322
 21
89.52
 31
0.0
  0
LINE
  5
18B
330
17
100
AcDbEntity
  8
0
100
AcDbLine
 10
463.322
 20
89.52
 30
0.0
 11
462.96
 21
87.6975
 31
0.0
  0
LINE
  5
18C
330
17
100
AcDbEntity
  8
0
100
AcDbLine
 10
462.96
 20
87.6975
 30
0.0
 11
461.928
 21
86.1524
 31
0.0
  0
LINE
  5
18D
330
17
100
AcDbEntity
  8
0
100
AcDbLine
 10
461.928
 20
86.1524
 30
0.0
 11
460.383
 21
85.12
 31
0.0
  0
LINE
  5
18E
330
17
100
AcDbEntity
  8
0
100
AcDbLine
 10
460.383
 20
85.12
 30
0.0
 11
458.56
 21
84.7575
 31
0.0
  0
LINE
  5
18F
330
17
100
AcDbEntity
  8
0
100
AcDbLine
 10
458.56
 20
84.7575
 30
0.0
 11
456.737
 21
85.12
 31
0.0
  0
LINE
  5
190
330
17
100
AcDbEntity
  8
0
100
AcDbLine
 10
456.737
 20
85.12
 30
0.0
 11
455.192
 21
86.1524
 31
0.0
  0
LINE
  5
191
330
17
100
AcDbEntity
  8
0
100
AcDbLine
 10
455.192
 20
86.1524
 30
0.0
 11
454.16
 21
87.6975
 31
0.0
  0
LINE
  5
192
330
17
100
AcDbEntity
  8
0
100
AcDbLine
 10
454.16
 20
87.6975
 30
0.0
 11
453.797
 21
89.52
 31
0.0
  0
LINE
  5
193
330
17
100
AcDbEntity
  8
0
100
AcDbLine
 10
453.797
 20
163.18
 30
0.0
 11
454.16
 21
165.003
 31
0.0
  0
LINE
  5
194
330
17
100
AcDbEntity
  8
0
100
AcDbLine
 10
454.16
 20
165.003
 30
0.0
 11
455.192
 21
166.548
 31
0.0
  0
LINE
  5
195
330
17
100
AcDbEntity
  8
0
100
AcDbLine
 10
455.192
 20
166.548
 30
0.0
 11
456.737
 21
167.58
 31
0.0
  0
LINE
  5
196
330
17
100
AcDbEntity
  8
0
100
AcDbLine
 10
456.737
 20
167.58
 30
0.0
 11
458.56
 21
167.943
 31
0.0
  0
LINE
  5
197
330
17
100
AcDbEntity
  8
0
100
AcDbLine
 10
458.56
 20
167.943
 30
0.0
 11
460.383
 21
167.58
 31
0.0
  0
LINE
  5
198
330
17
100
AcDbEntity
  8
0
100
AcDbLine
 10
460.383
 20
167.58
 30
0.0
 11
461.928
 21
166.548
 31
0.0
  0
LINE
  5
199
330
17
100
AcDbEntity
  8
0
100
AcDbLine
 10
461.928
 20
166.548
 30
0.0
 11
462.96
 21
165.003
 31
0.0
  0
LINE
  5
19A
330
17
100
AcDbEntity
  8
0
100
AcDbLine
 10
462.96
 20
165.003
 30
0.0
 11
463.322
 21
163.18
 31
0.0
  0
LINE
  5
19B
330
17
100
AcDbEntity
  8
0
100
AcDbLine
 10
463.322
 20
163.18
 30
0.0
 11
462.96
 21
161.357
 31
0.0
  0
LINE
  5
19C
330
17
100
AcDbEntity
  8
0
100
AcDbLine
 10
462.96
 20
161.357
 30
0.0
 11
461.928
 21
159.812
 31
0.0
  0
LINE
  5
19D
330
17
100
AcDbEntity
  8
0
100
AcDbLine
 10
461.928
 20
159.812
 30
0.0
 11
460.383
 21
158.78
 31
0.0
  0
LINE
  5
19E
330
17
100
AcDbEntity
  8
0
100
AcDbLine
 10
460.383
 20
158.78
 30
0.0
 11
458.56
 21
158.418
 31
0.0
  0
LINE
  5
19F
330
17
100
AcDbEntity
  8
0
100
AcDbLine
 10
458.56
 20
158.418
 30
0.0
 11
456.737
 21
158.78
 31
0.0
  0
LINE
  5
1A0
330
17
100
AcDbEntity
  8
0
100
AcDbLine
 10
456.737
 20
158.78
 30
0.0
 11
455.192
 21
159.812
 31
0.0
  0
LINE
  5
1A1
330
17
100
AcDbEntity
  8
0
100
AcDbLine
 10
455.192
 20
159.812
 30
0.0
 11
454.16
 21
161.357
 31
0.0
  0
LINE
  5
1A2
330
17
100
AcDbEntity
  8
0
100
AcDbLine
 10
454.16
 20
161.357
 30
0.0
 11
453.797
 21
163.18
 31
0.0
  0
LINE
  5
1A3
330
17
100
AcDbEntity
  8
0
100
AcDbLine
 10
453.797
 20
238.745
 30
0.0
 11
454.16
 21
240.568
 31
0.0
  0
LINE
  5
1A4
330
17
100
AcDbEntity
  8
0
100
AcDbLine
 10
454.16
 20
240.568
 30
0.0
 11
455.192
 21
242.113
 31
0.0
  0
LINE
  5
1A5
330
17
100
AcDbEntity
  8
0
100
AcDbLine
 10
455.192
 20
242.113
 30
0.0
 11
456.737
 21
243.145
 31
0.0
  0
LINE
  5
1A6
330
17
100
AcDbEntity
  8
0
100
AcDbLine
 10
456.737
 20
243.145
 30
0.0
 11
458.56
 21
243.508
 31
0.0
  0
LINE
  5
1A7
330
17
100
AcDbEntity
  8
0
100
AcDbLine
 10
458.56
 20
243.508
 30
0.0
 11
460.383
 21
243.145
 31
0.0
  0
LINE
  5
1A8
330
17
100
AcDbEntity
  8
0
100
AcDbLine
 10
460.383
 20
243.145
 30
0.0
 11
461.928
 21
242.113
 31
0.0
  0
LINE
  5
1A9
330
17
100
AcDbEntity
  8
0
100
AcDbLine
 10
461.928
 20
242.113
 30
0.0
 11
462.96
 21
240.568
 31
0.0
  0
LINE
  5
1AA
330
17
100
AcDbEntity
  8
0
100
AcDbLine
 10
462.96
 20
240.568
 30
0.0
 11
463.322
 21
238.745
 31
0.0
  0
LINE
  5
1AB
330
17
100
AcDbEntity
  8
0
100
AcDbLine
 10
463.322
 20
238.745
 30
0.0
 11
462.96
 21
236.922
 31
0.0
  0
LINE
  5
1AC
330
17
100
AcDbEntity
  8
0
100
AcDbLine
 10
462.96
 20
236.922
 30
0.0
 11
461.928
 21
235.377
 31
0.0
  0
LINE
  5
1AD
330
17
100
AcDbEntity
  8
0
100
AcDbLine
 10
461.928
 20
235.377
 30
0.0
 11
460.383
 21
234.345
 31
0.0
  0
LINE
  5
1AE
330
17
100
AcDbEntity
  8
0
100
AcDbLine
 10
460.383
 20
234.345
 30
0.0
 11
458.56
 21
233.983
 31
0.0
  0
LINE
  5
1AF
330
17
100
AcDbEntity
  8
0
100
AcDbLine
 10
458.56
 20
233.983
 30
0.0
 11
456.737
 21
234.345
 31
0.0
  0
LINE
  5
1B0
330
17
100
AcDbEntity
  8
0
100
AcDbLine
 10
456.737
 20
234.345
 30
0.0
 11
455.192
 21
235.377
 31
0.0
  0
LINE
  5
1B1
330
17
100
AcDbEntity
  8
0
100
AcDbLine
 10
455.192
 20
235.377
 30
0.0
 11
454.16
 21
236.922
 31
0.0
  0
LINE
  5
1B2
330
17
100
AcDbEntity
  8
0
100
AcDbLine
 10
454.16
 20
236.922
 30
0.0
 11
453.797
 21
238.745
 31
0.0
  0
LINE
  5
1B3
330
17
100
AcDbEntity
  8
0
100
AcDbLine
 10
453.797
 20
306.055
 30
0.0
 11
454.16
 21
307.878
 31
0.0
  0
LINE
  5
1B4
330
17
100
AcDbEntity
  8
0
100
AcDbLine
 10
454.16
 20
307.878
 30
0.0
 11
455.192
 21
309.423
 31
0.0
  0
LINE
  5
1B5
330
17
100
AcDbEntity
  8
0
100
AcDbLine
 10
455.192
 20
309.423
 30
0.0
 11
456.737
 21
310.455
 31
0.0
  0
LINE
  5
1B6
330
17
100
AcDbEntity
  8
0
100
AcDbLine
 10
456.737
 20
310.455
 30
0.0
 11
458.56
 21
310.818
 31
0.0
  0
LINE
  5
1B7
330
17
100
AcDbEntity
  8
0
100
AcDbLine
 10
458.56
 20
310.818
 30
0.0
 11
460.383
 21
310.455
 31
0.0
  0
LINE
  5
1B8
330
17
100
AcDbEntity
  8
0
100
AcDbLine
 10
460.383
 20
310.455
 30
0.0
 11
461.928
 21
309.423
 31
0.0
  0
LINE
  5
1B9
330
17
100
AcDbEntity
  8
0
100
AcDbLine
 10
461.928
 20
309.423
 30
0.0
 11
462.96
 21
307.878
 31
0.0
  0
LINE
  5
1BA
330
17
100
AcDbEntity
  8
0
100
AcDbLine
 10
462.96
 20
307.878
 30
0.0
 11
463.322
 21
306.055
 31
0.0
  0
LINE
  5
1BB
330
17
100
AcDbEntity
  8
0
100
AcDbLine
 10
463.322
 20
306.055
 30
0.0
 11
462.96
 21
304.232
 31
0.0
  0
LINE
  5
1BC
330
17
100
AcDbEntity
  8
0
100
AcDbLine
 10
462.96
 20
304.232
 30
0.0
 11
461.928
 21
302.687
 31
0.0
  0
LINE
  5
1BD
330
17
100
AcDbEntity
  8
0
100
AcDbLine
 10
461.928
 20
302.687
 30
0.0
 11
460.383
 21
301.655
 31
0.0
  0
LINE
  5
1BE
330
17
100
AcDbEntity
  8
0
100
AcDbLine
 10
460.383
 20
301.655
 30
0.0
 11
458.56
 21
301.293
 31
0.0
  0
LINE
  5
1BF
330
17
100
AcDbEntity
  8
0
100
AcDbLine
 10
458.56
 20
301.293
 30
0.0
 11
456.737
 21
301.655
 31
0.0
  0
LINE
  5
1C0
330
17
100
AcDbEntity
  8
0
100
AcDbLine
 10
456.737
 20
301.655
 30
0.0
 11
455.192
 21
302.687
 31
0.0
  0
LINE
  5
1C1
330
17
100
AcDbEntity
  8
0
100
AcDbLine
 10
455.192
 20
302.687
 30
0.0
 11
454.16
 21
304.232
 31
0.0
  0
LINE
  5
1C2
330
17
100
AcDbEntity
  8
0
100
AcDbLine
 10
454.16
 20
304.232
 30
0.0
 11
453.797
 21
306.055
 31
0.0
  0
LINE
  5
1C3
330
17
100
AcDbEntity
  8
0
100
AcDbLine
 10
453.797
 20
713.945
 30
0.0
 11
454.16
 21
715.768
 31
0.0
  0
LINE
  5
1C4
330
17
100
AcDbEntity
  8
0
100
AcDbLine
 10
454.16
 20
715.768
 30
0.0
 11
455.192
 21
717.313
 31
0.0
  0
LINE
  5
1C5
330
17
100
AcDbEntity
  8
0
100
AcDbLine
 10
455.192
 20
717.313
 30
0.0
 11
456.737
 21
718.345
 31
0.0
  0
LINE
  5
1C6
330
17
100
AcDbEntity
  8
0
100
AcDbLine
 10
456.737
 20
718.345
 30
0.0
 11
458.56
 21
718.707
 31
0.0
  0
LINE
  5
1C7
330
17
100
AcDbEntity
  8
0
100
AcDbLine
 10
458.56
 20
718.707
 30
0.0
 11
460.383
 21
718.345
 31
0.0
  0
LINE
  5
1C8
330
17
100
AcDbEntity
  8
0
100
AcDbLine
 10
460.383
 20
718.345
 30
0.0
 11
461.928
 21
717.313
 31
0.0
  0
LINE
  5
1C9
330
17
100
AcDbEntity
  8
0
100
AcDbLine
 10
461.928
 20
717.313
 30
0.0
 11
462.96
 21
715.768
 31
0.0
  0
LINE
  5
1CA
330
17
100
AcDbEntity
  8
0
100
AcDbLine
 10
462.96
 20
715.768
 30
0.0
 11
463.322
 21
713.945
 31
0.0
  0
LINE
  5
1CB
330
17
100
AcDbEntity
  8
0
100
AcDbLine
 10
463.322
 20
713.945
 30
0.0
 11
462.96
 21
712.122
 31
0.0
  0
LINE
  5
1CC
330
17
100
AcDbEntity
  8
0
100
AcDbLine
 10
462.96
 20
712.122
 30
0.0
 11
461.928
 21
710.577
 31
0.0
  0
LINE
  5
1CD
330
17
100
AcDbEntity
  8
0
100
AcDbLine
 10
461.928
 20
710.577
 30
0.0
 11
460.383
 21
709.545
 31
0.0
  0
LINE
  5
1CE
330
17
100
AcDbEntity
  8
0
100
AcDbLine
 10
460.383
 20
709.545
 30
0.0
 11
458.56
 21
709.182
 31
0.0
  0
LINE
  5
1CF
330
17
100
AcDbEntity
  8
0
100
AcDbLine
 10
458.56
 20
709.182
 30
0.0
 11
456.737
 21
709.545
 31
0.0
  0
LINE
  5
1D0
330
17
100
AcDbEntity
  8
0
100
AcDbLine
 10
456.737
 20
709.545
 30
0.0
 11
455.192
 21
710.577
 31
0.0
  0
LINE
  5
1D1
330
17
100
AcDbEntity
  8
0
100
AcDbLine
 10
455.192
 20
710.577
 30
0.0
 11
454.16
 21
712.122
 31
0.0
  0
LINE
  5
1D2
330
17
100
AcDbEntity
  8
0
100
AcDbLine
 10
454.16
 20
712.122
 30
0.0
 11
453.797
 21
713.945
 31
0.0
  0
LINE
  5
1D3
330
17
100
AcDbEntity
  8
0
100
AcDbLine
 10
453.797
 20
781.255
 30
0.0
 11
454.16
 21
783.078
 31
0.0
  0
LINE
  5
1D4
330
17
100
AcDbEntity
  8
0
100
AcDbLine
 10
454.16
 20
783.078
 30
0.0
 11
455.192
 21
784.623
 31
0.0
  0
LINE
  5
1D5
330
17
100
AcDbEntity
  8
0
100
AcDbLine
 10
455.192
 20
784.623
 30
0.0
 11
456.737
 21
785.655
 31
0.0
  0
LINE
  5
1D6
330
17
100
AcDbEntity
  8
0
100
AcDbLine
 10
456.737
 20
785.655
 30
0.0
 11
458.56
 21
786.017
 31
0.0
  0
LINE
  5
1D7
330
17
100
AcDbEntity
  8
0
100
AcDbLine
 10
458.56
 20
786.017
 30
0.0
 11
460.383
 21
785.655
 31
0.0
  0
LINE
  5
1D8
330
17
100
AcDbEntity
  8
0
100
AcDbLine
 10
460.383
 20
785.655
 30
0.0
 11
461.928
 21
784.623
 31
0.0
  0
LINE
  5
1D9
330
17
100
AcDbEntity
  8
0
100
AcDbLine
 10
461.928
 20
784.623
 30
0.0
 11
462.96
 21
783.078
 31
0.0
  0
LINE
  5
1DA
330
17
100
AcDbEntity
  8
0
100
AcDbLine
 10
462.96
 20
783.078
 30
0.0
 11
463.322
 21
781.255
 31
0.0
  0
LINE
  5
1DB
330
17
100
AcDbEntity
  8
0
100
AcDbLine
 10
463.322
 20
781.255
 30
0.0
 11
462.96
 21
779.432
 31
0.0
  0
LINE
  5
1DC
330
17
100
AcDbEntity
  8
0
100
AcDbLine
 10
462.96
 20
779.432
 30
0.0
 11
461.928
 21
777.887
 31
0.0
  0
LINE
  5
1DD
330
17
100
AcDbEntity
  8
0
100
AcDbLine
 10
461.928
 20
777.887
 30
0.0
 11
460.383
 21
776.855
 31
0.0
  0
LINE
  5
1DE
330
17
100
AcDbEntity
  8
0
100
AcDbLine
 10
460.383
 20
776.855
 30
0.0
 11
458.56
 21
776.492
 31
0.0
  0
LINE
  5
1DF
330
17
100
AcDbEntity
  8
0
100
AcDbLine
 10
458.56
 20
776.492
 30
0.0
 11
456.737
 21
776.855
 31
0.0
  0
LINE
  5
1E0
330
17
100
AcDbEntity
  8
0
100
AcDbLine
 10
456.737
 20
776.855
 30
0.0
 11
455.192
 21
777.887
 31
0.0
  0
LINE
  5
1E1
330
17
100
AcDbEntity
  8
0
100
AcDbLine
 10
455.192
 20
777.887
 30
0.0
 11
454.16
 21
779.432
 31
0.0
  0
LINE
  5
1E2
330
17
100
AcDbEntity
  8
0
100
AcDbLine
 10
454.16
 20
779.432
 30
0.0
 11
453.797
 21
781.255
 31
0.0
  0
LINE
  5
1E3
330
17
100
AcDbEntity
  8
0
100
AcDbLine
 10
453.797
 20
856.82
 30
0.0
 11
454.16
 21
858.643
 31
0.0
  0
LINE
  5
1E4
330
17
100
AcDbEntity
  8
0
100
AcDbLine
 10
454.16
 20
858.643
 30
0.0
 11
455.192
 21
860.188
 31
0.0
  0
LINE
  5
1E5
330
17
100
AcDbEntity
  8
0
100
AcDbLine
 10
455.192
 20
860.188
 30
0.0
 11
456.737
 21
861.22
 31
0.0
  0
LINE
  5
1E6
330
17
100
AcDbEntity
  8
0
100
AcDbLine
 10
456.737
 20
861.22
 30
0.0
 11
458.56
 21
861.582
 31
0.0
  0
LINE
  5
1E7
330
17
100
AcDbEntity
  8
0
100
AcDbLine
 10
458.56
 20
861.582
 30
0.0
 11
460.383
 21
861.22
 31
0.0
  0
LINE
  5
1E8
330
17
100
AcDbEntity
  8
0
100
AcDbLine
 10
460.383
 20
861.22
 30
0.0
 11
461.928
 21
860.188
 31
0.0
  0
LINE
  5
1E9
330
17
100
AcDbEntity
  8
0
100
AcDbLine
 10
461.928
 20
860.188
 30
0.0
 11
462.96
 21
858.643
 31
0.0
  0
LINE
  5
1EA
330
17
100
AcDbEntity
  8
0
100
AcDbLine
 10
462.96
 20
858.643
 30
0.0
 11
463.322
 21
856.82
 31
0.0
  0
LINE
  5
1EB
330
17
100
AcDbEntity
  8
0
100
AcDbLine
 10
463.322
 20
856.82
 30
0.0
 11
462.96
 21
854.997
 31
0.0
  0
LINE
  5
1EC
330
17
100
AcDbEntity
  8
0
100
AcDbLine
 10
462.96
 20
854.997
 30
0.0
 11
461.928
 21
853.452
 31
0.0
  0
LINE
  5
1ED
330
17
100
AcDbEntity
  8
0
100
AcDbLine
 10
461.928
 20
853.452
 30
0.0
 11
460.383
 21
852.42
 31
0.0
  0
LINE
  5
1EE
330
17
100
AcDbEntity
  8
0
100
AcDbLine
 10
460.383
 20
852.42
 30
0.0
 11
458.56
 21
852.057
 31
0.0
  0
LINE
  5
1EF
330
17
100
AcDbEntity
  8
0
100
AcDbLine
 10
458.56
 20
852.057
 30
0.0
 11
456.737
 21
852.42
 31
0.0
  0
LINE
  5
1F0
330
17
100
AcDbEntity
  8
0
100
AcDbLine
 10
456.737
 20
852.42
 30
0.0
 11
455.192
 21
853.452
 31
0.0
  0
LINE
  5
1F1
330
17
100
AcDbEntity
  8
0
100
AcDbLine
 10
455.192
 20
853.452
 30
0.0
 11
454.16
 21
854.997
 31
0.0
  0
LINE
  5
1F2
330
17
100
AcDbEntity
  8
0
100
AcDbLine
 10
454.16
 20
854.997
 30
0.0
 11
453.797
 21
856.82
 31
0.0
  0
LINE
  5
1F3
330
17
100
AcDbEntity
  8
0
100
AcDbLine
 10
453.797
 20
930.48
 30
0.0
 11
454.16
 21
932.303
 31
0.0
  0
LINE
  5
1F4
330
17
100
AcDbEntity
  8
0
100
AcDbLine
 10
454.16
 20
932.303
 30
0.0
 11
455.192
 21
933.848
 31
0.0
  0
LINE
  5
1F5
330
17
100
AcDbEntity
  8
0
100
AcDbLine
 10
455.192
 20
933.848
 30
0.0
 11
456.737
 21
934.88
 31
0.0
  0
LINE
  5
1F6
330
17
100
AcDbEntity
  8
0
100
AcDbLine
 10
456.737
 20
934.88
 30
0.0
 11
458.56
 21
935.242
 31
0.0
  0
LINE
  5
1F7
330
17
100
AcDbEntity
  8
0
100
AcDbLine
 10
458.56
 20
935.242
 30
0.0
 11
460.383
 21
934.88
 31
0.0
  0
LINE
  5
1F8
330
17
100
AcDbEntity
  8
0
100
AcDbLine
 10
460.383
 20
934.88
 30
0.0
 11
461.928
 21
933.848
 31
0.0
  0
LINE
  5
1F9
330
17
100
AcDbEntity
  8
0
100
AcDbLine
 10
461.928
 20
933.848
 30
0.0
 11
462.96
 21
932.303
 31
0.0
  0
LINE
  5
1FA
330
17
100
AcDbEntity
  8
0
100
AcDbLine
 10
462.96
 20
932.303
 30
0.0
 11
463.322
 21
930.48
 31
0.0
  0
LINE
  5
1FB
330
17
100
AcDbEntity
  8
0
100
AcDbLine
 10
463.322
 20
930.48
 30
0.0
 11
462.96
 21
928.657
 31
0.0
  0
LINE
  5
1FC
330
17
100
AcDbEntity
  8
0
100
AcDbLine
 10
462.96
 20
928.657
 30
0.0
 11
461.928
 21
927.112
 31
0.0
  0
LINE
  5
1FD
330
17
100
AcDbEntity
  8
0
100
AcDbLine
 10
461.928
 20
927.112
 30
0.0
 11
460.383
 21
926.08
 31
0.0
  0
LINE
  5
1FE
330
17
100
AcDbEntity
  8
0
100
AcDbLine
 10
460.383
 20
926.08
 30
0.0
 11
458.56
 21
925.717
 31
0.0
  0
LINE
  5
1FF
330
17
100
AcDbEntity
  8
0
100
AcDbLine
 10
458.56
 20
925.717
 30
0.0
 11
456.737
 21
926.08
 31
0.0
  0
LINE
  5
200
330
17
100
AcDbEntity
  8
0
100
AcDbLine
 10
456.737
 20
926.08
 30
0.0
 11
455.192
 21
927.112
 31
0.0
  0
LINE
  5
201
330
17
100
AcDbEntity
  8
0
100
AcDbLine
 10
455.192
 20
927.112
 30
0.0
 11
454.16
 21
928.657
 31
0.0
  0
LINE
  5
202
330
17
100
AcDbEntity
  8
0
100
AcDbLine
 10
454.16
 20
928.657
 30
0.0
 11
453.797
 21
930.48
 31
0.0
  0
LINE
  5
203
330
17
100
AcDbEntity
  8
0
100
AcDbLine
 10
453.797
 20
989.52
 30
0.0
 11
454.16
 21
991.343
 31
0.0
  0
LINE
  5
204
330
17
100
AcDbEntity
  8
0
100
AcDbLine
 10
454.16
 20
991.343
 30
0.0
 11
455.192
 21
992.888
 31
0.0
  0
LINE
  5
205
330
17
100
AcDbEntity
  8
0
100
AcDbLine
 10
455.192
 20
992.888
 30
0.0
 11
456.737
 21
993.92
 31
0.0
  0
LINE
  5
206
330
17
100
AcDbEntity
  8
0
100
AcDbLine
 10
456.737
 20
993.92
 30
0.0
 11
458.56
 21
994.282
 31
0.0
  0
LINE
  5
207
330
17
100
AcDbEntity
  8
0
100
AcDbLine
 10
458.56
 20
994.282
 30
0.0
 11
460.383
 21
993.92
 31
0.0
  0
LINE
  5
208
330
17
100
AcDbEntity
  8
0
100
AcDbLine
 10
460.383
 20
993.92
 30
0.0
 11
461.928
 21
992.888
 31
0.0
  0
LINE
  5
209
330
17
100
AcDbEntity
  8
0
100
AcDbLine
 10
461.928
 20
992.888
 30
0.0
 11
462.96
 21
991.343
 31
0.0
  0
LINE
  5
20A
330
17
100
AcDbEntity
  8
0
100
AcDbLine
 10
462.96
 20
991.343
 30
0.0
 11
463.322
 21
989.52
 31
0.0
  0
LINE
  5
20B
330
17
100
AcDbEntity
  8
0
100
AcDbLine
 10
463.322
 20
989.52
 30
0.0
 11
462.96
 21
987.697
 31
0.0
  0
LINE
  5
20C
330
17
100
AcDbEntity
  8
0
100
AcDbLine
 10
462.96
 20
987.697
 30
0.0
 11
461.928
 21
986.152
 31
0.0
  0
LINE
  5
20D
330
17
100
AcDbEntity
  8
0
100
AcDbLine
 10
461.928
 20
986.152
 30
0.0
 11
460.383
 21
985.12
 31
0.0
  0
LINE
  5
20E
330
17
100
AcDbEntity
  8
0
100
AcDbLine
 10
460.383
 20
985.12
 30
0.0
 11
458.56
 21
984.757
 31
0.0
  0
LINE
  5
20F
330
17
100
AcDbEntity
  8
0
100
AcDbLine
 10
458.56
 20
984.757
 30
0.0
 11
456.737
 21
985.12
 31
0.0
  0
LINE
  5
210
330
17
100
AcDbEntity
  8
0
100
AcDbLine
 10
456.737
 20
985.12
 30
0.0
 11
455.192
 21
986.152
 31
0.0
  0
LINE
  5
211
330
17
100
AcDbEntity
  8
0
100
AcDbLine
 10
455.192
 20
986.152
 30
0.0
 11
454.16
 21
987.697
 31
0.0
  0
LINE
  5
212
330
17
100
AcDbEntity
  8
0
100
AcDbLine
 10
454.16
 20
987.697
 30
0.0
 11
453.797
 21
989.52
 31
0.0
  0
LINE
  5
213
330
17
100
AcDbEntity
  8
0
100
AcDbLine
 10
563.157
 20
30.48
 30
0.0
 11
563.52
 21
32.3025
 31
0.0
  0
LINE
  5
214
330
17
100
AcDbEntity
  8
0
100
AcDbLine
 10
563.52
 20
32.3025
 30
0.0
 11
564.552
 21
33.8476
 31
0.0
  0
LINE
  5
215
330
17
100
AcDbEntity
  8
0
100
AcDbLine
 10
564.552
 20
33.8476
 30
0.0
 11
566.097
 21
34.88
 31
0.0
  0
LINE
  5
216
330
17
100
AcDbEntity
  8
0
100
AcDbLine
 10
566.097
 20
34.88
 30
0.0
 11
567.92
 21
35.2425
 31
0.0
  0
LINE
  5
217
330
17
100
AcDbEntity
  8
0
100
AcDbLine
 10
567.92
 20
35.2425
 30
0.0
 11
569.743
 21
34.88
 31
0.0
  0
LINE
  5
218
330
17
100
AcDbEntity
  8
0
100
AcDbLine
 10
569.743
 20
34.88
 30
0.0
 11
571.288
 21
33.8476
 31
0.0
  0
LINE
  5
219
330
17
100
AcDbEntity
  8
0
100
AcDbLine
 10
571.288
 20
33.8476
 30
0.0
 11
572.32
 21
32.3025
 31
0.0
  0
LINE
  5
21A
330
17
100
AcDbEntity
  8
0
100
AcDbLine
 10
572.32
 20
32.3025
 30
0.0
 11
572.682
 21
30.48
 31
0.0
  0
LINE
  5
21B
330
17
100
AcDbEntity
  8
0
100
AcDbLine
 10
572.682
 20
30.48
 30
0.0
 11
572.32
 21
28.6575
 31
0.0
  0
LINE
  5
21C
330
17
100
AcDbEntity
  8
0
100
AcDbLine
 10
572.32
 20
28.6575
 30
0.0
 11
571.288
 21
27.1124
 31
0.0
  0
LINE
  5
21D
330
17
100
AcDbEntity
  8
0
100
AcDbLine
 10
571.288
 20
27.1124
 30
0.0
 11
569.743
 21
26.08
 31
0.0
  0
LINE
  5
21E
330
17
100
AcDbEntity
  8
0
100
AcDbLine
 10
569.743
 20
26.08
 30
0.0
 11
567.92
 21
25.7175
 31
0.0
  0
LINE
  5
21F
330
17
100
AcDbEntity
  8
0
100
AcDbLine
 10
567.92
 20
25.7175
 30
0.0
 11
566.097
 21
26.08
 31
0.0
  0
LINE
  5
220
330
17
100
AcDbEntity
  8
0
100
AcDbLine
 10
566.097
 20
26.08
 30
0.0
 11
564.552
 21
27.1124
 31
0.0
  0
LINE
  5
221
330
17
100
AcDbEntity
  8
0
100
AcDbLine
 10
564.552
 20
27.1124
 30
0.0
 11
563.52
 21
28.6575
 31
0.0
  0
LINE
  5
222
330
17
100
AcDbEntity
  8
0
100
AcDbLine
 10
563.52
 20
28.6575
 30
0.0
 11
563.157
 21
30.48
 31
0.0
  0
LINE
  5
223
330
17
100
AcDbEntity
  8
0
100
AcDbLine
 10
563.157
 20
89.52
 30
0.0
 11
563.52
 21
91.3425
 31
0.0
  0
LINE
  5
224
330
17
100
AcDbEntity
  8
0
100
AcDbLine
 10
563.52
 20
91.3425
 30
0.0
 11
564.552
 21
92.8876
 31
0.0
  0
LINE
  5
225
330
17
100
AcDbEntity
  8
0
100
AcDbLine
 10
564.552
 20
92.8876
 30
0.0
 11
566.097
 21
93.92
 31
0.0
  0
LINE
  5
226
330
17
100
AcDbEntity
  8
0
100
AcDbLine
 10
566.097
 20
93.92
 30
0.0
 11
567.92
 21
94.2825
 31
0.0
  0
LINE
  5
227
330
17
100
AcDbEntity
  8
0
100
AcDbLine
 10
567.92
 20
94.2825
 30
0.0
 11
569.743
 21
93.92
 31
0.0
  0
LINE
  5
228
330
17
100
AcDbEntity
  8
0
100
AcDbLine
 10
569.743
 20
93.92
 30
0.0
 11
571.288
 21
92.8876
 31
0.0
  0
LINE
  5
229
330
17
100
AcDbEntity
  8
0
100
AcDbLine
 10
571.288
 20
92.8876
 30
0.0
 11
572.32
 21
91.3425
 31
0.0
  0
LINE
  5
22A
330
17
100
AcDbEntity
  8
0
100
AcDbLine
 10
572.32
 20
91.3425
 30
0.0
 11
572.682
 21
89.52
 31
0.0
  0
LINE
  5
22B
330
17
100
AcDbEntity
  8
0
100
AcDbLine
 10
572.682
 20
89.52
 30
0.0
 11
572.32
 21
87.6975
 31
0.0
  0
LINE
  5
22C
330
17
100
AcDbEntity
  8
0
100
AcDbLine
 10
572.32
 20
87.6975
 30
0.0
 11
571.288
 21
86.1524
 31
0.0
  0
LINE
  5
22D
330
17
100
AcDbEntity
  8
0
100
AcDbLine
 10
571.288
 20
86.1524
 30
0.0
 11
569.743
 21
85.12
 31
0.0
  0
LINE
  5
22E
330
17
100
AcDbEntity
  8
0
100
AcDbLine
 10
569.743
 20
85.12
 30
0.0
 11
567.92
 21
84.7575
 31
0.0
  0
LINE
  5
22F
330
17
100
AcDbEntity
  8
0
100
AcDbLine
 10
567.92
 20
84.7575
 30
0.0
 11
566.097
 21
85.12
 31
0.0
  0
LINE
  5
230
330
17
100
AcDbEntity
  8
0
100
AcDbLine
 10
566.097
 20
85.12
 30
0.0
 11
564.552
 21
86.1524
 31
0.0
  0
LINE
  5
231
330
17
100
AcDbEntity
  8
0
100
AcDbLine
 10
564.552
 20
86.1524
 30
0.0
 11
563.52
 21
87.6975
 31
0.0
  0
LINE
  5
232
330
17
100
AcDbEntity
  8
0
100
AcDbLine
 10
563.52
 20
87.6975
 30
0.0
 11
563.157
 21
89.52
 31
0.0
  0
LINE
  5
233
330
17
100
AcDbEntity
  8
0
100
AcDbLine
 10
563.157
 20
163.18
 30
0.0
 11
563.52
 21
165.003
 31
0.0
  0
LINE
  5
234
330
17
100
AcDbEntity
  8
0
100
AcDbLine
 10
563.52
 20
165.003
 30
0.0
 11
564.552
 21
166.548
 31
0.0
  0
LINE
  5
235
330
17
100
AcDbEntity
  8
0
100
AcDbLine
 10
564.552
 20
166.548
 30
0.0
 11
566.097
 21
167.58
 31
0.0
  0
LINE
  5
236
330
17
100
AcDbEntity
  8
0
100
AcDbLine
 10
566.097
 20
167.58
 30
0.0
 11
567.92
 21
167.943
 31
0.0
  0
LINE
  5
237
330
17
100
AcDbEntity
  8
0
100
AcDbLine
 10
567.92
 20
167.943
 30
0.0
 11
569.743
 21
167.58
 31
0.0
  0
LINE
  5
238
330
17
100
AcDbEntity
  8
0
100
AcDbLine
 10
569.743
 20
167.58
 30
0.0
 11
571.288
 21
166.548
 31
0.0
  0
LINE
  5
239
330
17
100
AcDbEntity
  8
0
100
AcDbLine
 10
571.288
 20
166.548
 30
0.0
 11
572.32
 21
165.003
 31
0.0
  0
LINE
  5
23A
330
17
100
AcDbEntity
  8
0
100
AcDbLine
 10
572.32
 20
165.003
 30
0.0
 11
572.682
 21
163.18
 31
0.0
  0
LINE
  5
23B
330
17
100
AcDbEntity
  8
0
100
AcDbLine
 10
572.682
 20
163.18
 30
0.0
 11
572.32
 21
161.357
 31
0.0
  0
LINE
  5
23C
330
17
100
AcDbEntity
  8
0
100
AcDbLine
 10
572.32
 20
161.357
 30
0.0
 11
571.288
 21
159.812
 31
0.0
  0
LINE
  5
23D
330
17
100
AcDbEntity
  8
0
100
AcDbLine
 10
571.288
 20
159.812
 30
0.0
 11
569.743
 21
158.78
 31
0.0
  0
LINE
  5
23E
330
17
100
AcDbEntity
  8
0
100
AcDbLine
 10
569.743
 20
158.78
 30
0.0
 11
567.92
 21
158.418
 31
0.0
  0
LINE
  5
23F
330
17
100
AcDbEntity
  8
0
100
AcDbLine
 10
567.92
 20
158.418
 30
0.0
 11
566.097
 21
158.78
 31
0.0
  0
LINE
  5
240
330
17
100
AcDbEntity
  8
0
100
AcDbLine
 10
566.097
 20
158.78
 30
0.0
 11
564.552
 21
159.812
 31
0.0
  0
LINE
  5
241
330
17
100
AcDbEntity
  8
0
100
AcDbLine
 10
564.552
 20
159.812
 30
0.0
 11
563.52
 21
161.357
 31
0.0
  0
LINE
  5
242
330
17
100
AcDbEntity
  8
0
100
AcDbLine
 10
563.52
 20
161.357
 30
0.0
 11
563.157
 21
163.18
 31
0.0
  0
LINE
  5
243
330
17
100
AcDbEntity
  8
0
100
AcDbLine
 10
563.157
 20
238.745
 30
0.0
 11
563.52
 21
240.568
 31
0.0
  0
LINE
  5
244
330
17
100
AcDbEntity
  8
0
100
AcDbLine
 10
563.52
 20
240.568
 30
0.0
 11
564.552
 21
242.113
 31
0.0
  0
LINE
  5
245
330
17
100
AcDbEntity
  8
0
100
AcDbLine
 10
564.552
 20
242.113
 30
0.0
 11
566.097
 21
243.145
 31
0.0
  0
LINE
  5
246
330
17
100
AcDbEntity
  8
0
100
AcDbLine
 10
566.097
 20
243.145
 30
0.0
 11
567.92
 21
243.508
 31
0.0
  0
LINE
  5
247
330
17
100
AcDbEntity
  8
0
100
AcDbLine
 10
567.92
 20
243.508
 30
0.0
 11
569.743
 21
243.145
 31
0.0
  0
LINE
  5
248
330
17
100
AcDbEntity
  8
0
100
AcDbLine
 10
569.743
 20
243.145
 30
0.0
 11
571.288
 21
242.113
 31
0.0
  0
LINE
  5
249
330
17
100
AcDbEntity
  8
0
100
AcDbLine
 10
571.288
 20
242.113
 30
0.0
 11
572.32
 21
240.568
 31
0.0
  0
LINE
  5
24A
330
17
100
AcDbEntity
  8
0
100
AcDbLine
 10
572.32
 20
240.568
 30
0.0
 11
572.682
 21
238.745
 31
0.0
  0
LINE
  5
24B
330
17
100
AcDbEntity
  8
0
100
AcDbLine
 10
572.682
 20
238.745
 30
0.0
 11
572.32
 21
236.922
 31
0.0
  0
LINE
  5
24C
330
17
100
AcDbEntity
  8
0
100
AcDbLine
 10
572.32
 20
236.922
 30
0.0
 11
571.288
 21
235.377
 31
0.0
  0
LINE
  5
24D
330
17
100
AcDbEntity
  8
0
100
AcDbLine
 10
571.288
 20
235.377
 30
0.0
 11
569.743
 21
234.345
 31
0.0
  0
LINE
  5
24E
330
17
100
AcDbEntity
  8
0
100
AcDbLine
 10
569.743
 20
234.345
 30
0.0
 11
567.92
 21
233.983
 31
0.0
  0
LINE
  5
24F
330
17
100
AcDbEntity
  8
0
100
AcDbLine
 10
567.92
 20
233.983
 30
0.0
 11
566.097
 21
234.345
 31
0.0
  0
LINE
  5
250
330
17
100
AcDbEntity
  8
0
100
AcDbLine
 10
566.097
 20
234.345
 30
0.0
 11
564.552
 21
235.377
 31
0.0
  0
LINE
  5
251
330
17
100
AcDbEntity
  8
0
100
AcDbLine
 10
564.552
 20
235.377
 30
0.0
 11
563.52
 21
236.922
 31
0.0
  0
LINE
  5
252
330
17
100
AcDbEntity
  8
0
100
AcDbLine
 10
563.52
 20
236.922
 30
0.0
 11
563.157
 21
238.745
 31
0.0
  0
LINE
  5
253
330
17
100
AcDbEntity
  8
0
100
AcDbLine
 10
563.157
 20
306.055
 30
0.0
 11
563.52
 21
307.878
 31
0.0
  0
LINE
  5
254
330
17
100
AcDbEntity
  8
0
100
AcDbLine
 10
563.52
 20
307.878
 30
0.0
 11
564.552
 21
309.423
 31
0.0
  0
LINE
  5
255
330
17
100
AcDbEntity
  8
0
100
AcDbLine
 10
564.552
 20
309.423
 30
0.0
 11
566.097
 21
310.455
 31
0.0
  0
LINE
  5
256
330
17
100
AcDbEntity
  8
0
100
AcDbLine
 10
566.097
 20
310.455
 30
0.0
 11
567.92
 21
310.818
 31
0.0
  0
LINE
  5
257
330
17
100
AcDbEntity
  8
0
100
AcDbLine
 10
567.92
 20
310.818
 30
0.0
 11
569.743
 21
310.455
 31
0.0
  0
LINE
  5
258
330
17
100
AcDbEntity
  8
0
100
AcDbLine
 10
569.743
 20
310.455
 30
0.0
 11
571.288
 21
309.423
 31
0.0
  0
LINE
  5
259
330
17
100
AcDbEntity
  8
0
100
AcDbLine
 10
571.288
 20
309.423
 30
0.0
 11
572.32
 21
307.878
 31
0.0
  0
LINE
  5
25A
330
17
100
AcDbEntity
  8
0
100
AcDbLine
 10
572.32
 20
307.878
 30
0.0
 11
572.682
 21
306.055
 31
0.0
  0
LINE
  5
25B
330
17
100
AcDbEntity
  8
0
100
AcDbLine
 10
572.682
 20
306.055
 30
0.0
 11
572.32
 21
304.232
 31
0.0
  0
LINE
  5
25C
330
17
100
AcDbEntity
  8
0
100
AcDbLine
 10
572.32
 20
304.232
 30
0.0
 11
571.288
 21
302.687
 31
0.0
  0
LINE
  5
25D
330
17
100
AcDbEntity
  8
0
100
AcDbLine
 10
571.288
 20
302.687
 30
0.0
 11
569.743
 21
301.655
 31
0.0
  0
LINE
  5
25E
330
17
100
AcDbEntity
  8
0
100
AcDbLine
 10
569.743
 20
301.655
 30
0.0
 11
567.92
 21
301.293
 31
0.0
  0
LINE
  5
25F
330
17
100
AcDbEntity
  8
0
100
AcDbLine
 10
567.92
 20
301.293
 30
0.0
 11
566.097
 21
301.655
 31
0.0
  0
LINE
  5
260
330
17
100
AcDbEntity
  8
0
100
AcDbLine
 10
566.097
 20
301.655
 30
0.0
 11
564.552
 21
302.687
 31
0.0
  0
LINE
  5
261
330
17
100
AcDbEntity
  8
0
100
AcDbLine
 10
564.552
 20
302.687
 30
0.0
 11
563.52
 21
304.232
 31
0.0
  0
LINE
  5
262
330
17
100
AcDbEntity
  8
0
100
AcDbLine
 10
563.52
 20
304.232
 30
0.0
 11
563.157
 21
306.055
 31
0.0
  0
LINE
  5
263
330
17
100
AcDbEntity
  8
0
100
AcDbLine
 10
563.157
 20
713.945
 30
0.0
 11
563.52
 21
715.768
 31
0.0
  0
LINE
  5
264
330
17
100
AcDbEntity
  8
0
100
AcDbLine
 10
563.52
 20
715.768
 30
0.0
 11
564.552
 21
717.313
 31
0.0
  0
LINE
  5
265
330
17
100
AcDbEntity
  8
0
100
AcDbLine
 10
564.552
 20
717.313
 30
0.0
 11
566.097
 21
718.345
 31
0.0
  0
LINE
  5
266
330
17
100
AcDbEntity
  8
0
100
AcDbLine
 10
566.097
 20
718.345
 30
0.0
 11
567.92
 21
718.707
 31
0.0
  0
LINE
  5
267
330
17
100
AcDbEntity
  8
0
100
AcDbLine
 10
567.92
 20
718.707
 30
0.0
 11
569.743
 21
718.345
 31
0.0
  0
LINE
  5
268
330
17
100
AcDbEntity
  8
0
100
AcDbLine
 10
569.743
 20
718.345
 30
0.0
 11
571.288
 21
717.313
 31
0.0
  0
LINE
  5
269
330
17
100
AcDbEntity
  8
0
100
AcDbLine
 10
571.288
 20
717.313
 30
0.0
 11
572.32
 21
715.768
 31
0.0
  0
LINE
  5
26A
330
17
100
AcDbEntity
  8
0
100
AcDbLine
 10
572.32
 20
715.768
 30
0.0
 11
572.682
 21
713.945
 31
0.0
  0
LINE
  5
26B
330
17
100
AcDbEntity
  8
0
100
AcDbLine
 10
572.682
 20
713.945
 30
0.0
 11
572.32
 21
712.122
 31
0.0
  0
LINE
  5
26C
330
17
100
AcDbEntity
  8
0
100
AcDbLine
 10
572.32
 20
712.122
 30
0.0
 11
571.288
 21
710.577
 31
0.0
  0
LINE
  5
26D
330
17
100
AcDbEntity
  8
0
100
AcDbLine
 10
571.288
 20
710.577
 30
0.0
 11
569.743
 21
709.545
 31
0.0
  0
LINE
  5
26E
330
17
100
AcDbEntity
  8
0
100
AcDbLine
 10
569.743
 20
709.545
 30
0.0
 11
567.92
 21
709.182
 31
0.0
  0
LINE
  5
26F
330
17
100
AcDbEntity
  8
0
100
AcDbLine
 10
567.92
 20
709.182
 30
0.0
 11
566.097
 21
709.545
 31
0.0
  0
LINE
  5
270
330
17
100
AcDbEntity
  8
0
100
AcDbLine
 10
566.097
 20
709.545
 30
0.0
 11
564.552
 21
710.577
 31
0.0
  0
LINE
  5
271
330
17
100
AcDbEntity
  8
0
100
AcDbLine
 10
564.552
 20
710.577
 30
0.0
 11
563.52
 21
712.122
 31
0.0
  0
LINE
  5
272
330
17
100
AcDbEntity
  8
0
100
AcDbLine
 10
563.52
 20
712.122
 30
0.0
 11
563.157
 21
713.945
 31
0.0
  0
LINE
  5
273
330
17
100
AcDbEntity
  8
0
100
AcDbLine
 10
563.157
 20
781.255
 30
0.0
 11
563.52
 21
783.078
 31
0.0
  0
LINE
  5
274
330
17
100
AcDbEntity
  8
0
100
AcDbLine
 10
563.52
 20
783.078
 30
0.0
 11
564.552
 21
784.623
 31
0.0
  0
LINE
  5
275
330
17
100
AcDbEntity
  8
0
100
AcDbLine
 10
564.552
 20
784.623
 30
0.0
 11
566.097
 21
785.655
 31
0.0
  0
LINE
  5
276
330
17
100
AcDbEntity
  8
0
100
AcDbLine
 10
566.097
 20
785.655
 30
0.0
 11
567.92
 21
786.017
 31
0.0
  0
LINE
  5
277
330
17
100
AcDbEntity
  8
0
100
AcDbLine
 10
567.92
 20
786.017
 30
0.0
 11
569.743
 21
785.655
 31
0.0
  0
LINE
  5
278
330
17
100
AcDbEntity
  8
0
100
AcDbLine
 10
569.743
 20
785.655
 30
0.0
 11
571.288
 21
784.623
 31
0.0
  0
LINE
  5
279
330
17
100
AcDbEntity
  8
0
100
AcDbLine
 10
571.288
 20
784.623
 30
0.0
 11
572.32
 21
783.078
 31
0.0
  0
LINE
  5
27A
330
17
100
AcDbEntity
  8
0
100
AcDbLine
 10
572.32
 20
783.078
 30
0.0
 11
572.682
 21
781.255
 31
0.0
  0
LINE
  5
27B
330
17
100
AcDbEntity
  8
0
100
AcDbLine
 10
572.682
 20
781.255
 30
0.0
 11
572.32
 21
779.432
 31
0.0
  0
LINE
  5
27C
330
17
100
AcDbEntity
  8
0
100
AcDbLine
 10
572.32
 20
779.432
 30
0.0
 11
571.288
 21
777.887
 31
0.0
  0
LINE
  5
27D
330
17
100
AcDbEntity
  8
0
100
AcDbLine
 10
571.288
 20
777.887
 30
0.0
 11
569.743
 21
776.855
 31
0.0
  0
LINE
  5
27E
330
17
100
AcDbEntity
  8
0
100
AcDbLine
 10
569.743
 20
776.855
 30
0.0
 11
567.92
 21
776.492
 31
0.0
  0
LINE
  5
27F
330
17
100
AcDbEntity
  8
0
100
AcDbLine
 10
567.92
 20
776.492
 30
0.0
 11
566.097
 21
776.855
 31
0.0
  0
LINE
  5
280
330
17
100
AcDbEntity
  8
0
100
AcDbLine
 10
566.097
 20
776.855
 30
0.0
 11
564.552
 21
777.887
 31
0.0
  0
LINE
  5
281
330
17
100
AcDbEntity
  8
0
100
AcDbLine
 10
564.552
 20
777.887
 30
0.0
 11
563.52
 21
779.432
 31
0.0
  0
LINE
  5
282
330
17
100
AcDbEntity
  8
0
100
AcDbLine
 10
563.52
 20
779.432
 30
0.0
 11
563.157
 21
781.255
 31
0.0
  0
LINE
  5
283
330
17
100
AcDbEntity
  8
0
100
AcDbLine
 10
563.157
 20
856.82
 30
0.0
 11
563.52
 21
858.643
 31
0.0
  0
LINE
  5
284
330
17
100
AcDbEntity
  8
0
100
AcDbLine
 10
563.52
 20
858.643
 30
0.0
 11
564.552
 21
860.188
 31
0.0
  0
LINE
  5
285
330
17
100
AcDbEntity
  8
0
100
AcDbLine
 10
564.552
 20
860.188
 30
0.0
 11
566.097
 21
861.22
 31
0.0
  0
LINE
  5
286
330
17
100
AcDbEntity
  8
0
100
AcDbLine
 10
566.097
 20
861.22
 30
0.0
 11
567.92
 21
861.582
 31
0.0
  0
LINE
  5
287
330
17
100
AcDbEntity
  8
0
100
AcDbLine
 10
567.92
 20
861.582
 30
0.0
 11
569.743
 21
861.22
 31
0.0
  0
LINE
  5
288
330
17
100
AcDbEntity
  8
0
100
AcDbLine
 10
569.743
 20
861.22
 30
0.0
 11
571.288
 21
860.188
 31
0.0
  0
LINE
  5
289
330
17
100
AcDbEntity
  8
0
100
AcDbLine
 10
571.288
 20
860.188
 30
0.0
 11
572.32
 21
858.643
 31
0.0
  0
LINE
  5
28A
330
17
100
AcDbEntity
  8
0
100
AcDbLine
 10
572.32
 20
858.643
 30
0.0
 11
572.682
 21
856.82
 31
0.0
  0
LINE
  5
28B
330
17
100
AcDbEntity
  8
0
100
AcDbLine
 10
572.682
 20
856.82
 30
0.0
 11
572.32
 21
854.997
 31
0.0
  0
LINE
  5
28C
330
17
100
AcDbEntity
  8
0
100
AcDbLine
 10
572.32
 20
854.997
 30
0.0
 11
571.288
 21
853.452
 31
0.0
  0
LINE
  5
28D
330
17
100
AcDbEntity
  8
0
100
AcDbLine
 10
571.288
 20
853.452
 30
0.0
 11
569.743
 21
852.42
 31
0.0
  0
LINE
  5
28E
330
17
100
AcDbEntity
  8
0
100
AcDbLine
 10
569.743
 20
852.42
 30
0.0
 11
567.92
 21
852.057
 31
0.0
  0
LINE
  5
28F
330
17
100
AcDbEntity
  8
0
100
AcDbLine
 10
567.92
 20
852.057
 30
0.0
 11
566.097
 21
852.42
 31
0.0
  0
LINE
  5
290
330
17
100
AcDbEntity
  8
0
100
AcDbLine
 10
566.097
 20
852.42
 30
0.0
 11
564.552
 21
853.452
 31
0.0
  0
LINE
  5
291
330
17
100
AcDbEntity
  8
0
100
AcDbLine
 10
564.552
 20
853.452
 30
0.0
 11
563.52
 21
854.997
 31
0.0
  0
LINE
  5
292
330
17
100
AcDbEntity
  8
0
100
AcDbLine
 10
563.52
 20
854.997
 30
0.0
 11
563.157
 21
856.82
 31
0.0
  0
LINE
  5
293
330
17
100
AcDbEntity
  8
0
100
AcDbLine
 10
563.157
 20
930.48
 30
0.0
 11
563.52
 21
932.303
 31
0.0
  0
LINE
  5
294
330
17
100
AcDbEntity
  8
0
100
AcDbLine
 10
563.52
 20
932.303
 30
0.0
 11
564.552
 21
933.848
 31
0.0
  0
LINE
  5
295
330
17
100
AcDbEntity
  8
0
100
AcDbLine
 10
564.552
 20
933.848
 30
0.0
 11
566.097
 21
934.88
 31
0.0
  0
LINE
  5
296
330
17
100
AcDbEntity
  8
0
100
AcDbLine
 10
566.097
 20
934.88
 30
0.0
 11
567.92
 21
935.242
 31
0.0
  0
LINE
  5
297
330
17
100
AcDbEntity
  8
0
100
AcDbLine
 10
567.92
 20
935.242
 30
0.0
 11
569.743
 21
934.88
 31
0.0
  0
LINE
  5
298
330
17
100
AcDbEntity
  8
0
100
AcDbLine
 10
569.743
 20
934.88
 30
0.0
 11
571.288
 21
933.848
 31
0.0
  0
LINE
  5
299
330
17
100
AcDbEntity
  8
0
100
AcDbLine
 10
571.288
 20
933.848
 30
0.0
 11
572.32
 21
932.303
 31
0.0
  0
LINE
  5
29A
330
17
100
AcDbEntity
  8
0
100
AcDbLine
 10
572.32
 20
932.303
 30
0.0
 11
572.682
 21
930.48
 31
0.0
  0
LINE
  5
29B
330
17
100
AcDbEntity
  8
0
100
AcDbLine
 10
572.682
 20
930.48
 30
0.0
 11
572.32
 21
928.657
 31
0.0
  0
LINE
  5
29C
330
17
100
AcDbEntity
  8
0
100
AcDbLine
 10
572.32
 20
928.657
 30
0.0
 11
571.288
 21
927.112
 31
0.0
  0
LINE
  5
29D
330
17
100
AcDbEntity
  8
0
100
AcDbLine
 10
571.288
 20
927.112
 30
0.0
 11
569.743
 21
926.08
 31
0.0
  0
LINE
  5
29E
330
17
100
AcDbEntity
  8
0
100
AcDbLine
 10
569.743
 20
926.08
 30
0.0
 11
567.92
 21
925.717
 31
0.0
  0
LINE
  5
29F
330
17
100
AcDbEntity
  8
0
100
AcDbLine
 10
567.92
 20
925.717
 30
0.0
 11
566.097
 21
926.08
 31
0.0
  0
LINE
  5
2A0
330
17
100
AcDbEntity
  8
0
100
AcDbLine
 10
566.097
 20
926.08
 30
0.0
 11
564.552
 21
927.112
 31
0.0
  0
LINE
  5
2A1
330
17
100
AcDbEntity
  8
0
100
AcDbLine
 10
564.552
 20
927.112
 30
0.0
 11
563.52
 21
928.657
 31
0.0
  0
LINE
  5
2A2
330
17
100
AcDbEntity
  8
0
100
AcDbLine
 10
563.52
 20
928.657
 30
0.0
 11
563.157
 21
930.48
 31
0.0
  0
LINE
  5
2A3
330
17
100
AcDbEntity
  8
0
100
AcDbLine
 10
563.157
 20
989.52
 30
0.0
 11
563.52
 21
991.343
 31
0.0
  0
LINE
  5
2A4
330
17
100
AcDbEntity
  8
0
100
AcDbLine
 10
563.52
 20
991.343
 30
0.0
 11
564.552
 21
992.888
 31
0.0
  0
LINE
  5
2A5
330
17
100
AcDbEntity
  8
0
100
AcDbLine
 10
564.552
 20
992.888
 30
0.0
 11
566.097
 21
993.92
 31
0.0
  0
LINE
  5
2A6
330
17
100
AcDbEntity
  8
0
100
AcDbLine
 10
566.097
 20
993.92
 30
0.0
 11
567.92
 21
994.282
 31
0.0
  0
LINE
  5
2A7
330
17
100
AcDbEntity
  8
0
100
AcDbLine
 10
567.92
 20
994.282
 30
0.0
 11
569.743
 21
993.92
 31
0.0
  0
LINE
  5
2A8
330
17
100
AcDbEntity
  8
0
100
AcDbLine
 10
569.743
 20
993.92
 30
0.0
 11
571.288
 21
992.888
 31
0.0
  0
LINE
  5
2A9
330
17
100
AcDbEntity
  8
0
100
AcDbLine
 10
571.288
 20
992.888
 30
0.0
 11
572.32
 21
991.343
 31
0.0
  0
LINE
  5
2AA
330
17
100
AcDbEntity
  8
0
100
AcDbLine
 10
572.32
 20
991.343
 30
0.0
 11
572.682
 21
989.52
 31
0.0
  0
LINE
  5
2AB
330
17
100
AcDbEntity
  8
0
100
AcDbLine
 10
572.682
 20
989.52
 30
0.0
 11
572.32
 21
987.697
 31
0.0
  0
LINE
  5
2AC
330
17
100
AcDbEntity
  8
0
100
AcDbLine
 10
572.32
 20
987.697
 30
0.0
 11
571.288
 21
986.152
 31
0.0
  0
LINE
  5
2AD
330
17
100
AcDbEntity
  8
0
100
AcDbLine
 10
571.288
 20
986.152
 30
0.0
 11
569.743
 21
985.12
 31
0.0
  0
LINE
  5
2AE
330
17
100
AcDbEntity
  8
0
100
AcDbLine
 10
569.743
 20
985.12
 30
0.0
 11
567.92
 21
984.757
 31
0.0
  0
LINE
  5
2AF
330
17
100
AcDbEntity
  8
0
100
AcDbLine
 10
567.92
 20
984.757
 30
0.0
 11
566.097
 21
985.12
 31
0.0
  0
LINE
  5
2B0
330
17
100
AcDbEntity
  8
0
100
AcDbLine
 10
566.097
 20
985.12
 30
0.0
 11
564.552
 21
986.152
 31
0.0
  0
LINE
  5
2B1
330
17
100
AcDbEntity
  8
0
100
AcDbLine
 10
564.552
 20
986.152
 30
0.0
 11
563.52
 21
987.697
 31
0.0
  0
LINE
  5
2B2
330
17
100
AcDbEntity
  8
0
100
AcDbLine
 10
563.52
 20
987.697
 30
0.0
 11
563.157
 21
989.52
 31
0.0
  0
LINE
  5
2B3
330
17
100
AcDbEntity
  8
0
100
AcDbLine
 10
672.517
 20
30.48
 30
0.0
 11
672.88
 21
32.3025
 31
0.0
  0
LINE
  5
2B4
330
17
100
AcDbEntity
  8
0
100
AcDbLine
 10
672.88
 20
32.3025
 30
0.0
 11
673.912
 21
33.8476
 31
0.0
  0
LINE
  5
2B5
330
17
100
AcDbEntity
  8
0
100
AcDbLine
 10
673.912
 20
33.8476
 30
0.0
 11
675.457
 21
34.88
 31
0.0
  0
LINE
  5
2B6
330
17
100
AcDbEntity
  8
0
100
AcDbLine
 10
675.457
 20
34.88
 30
0.0
 11
677.28
 21
35.2425
 31
0.0
  0
LINE
  5
2B7
330
17
100
AcDbEntity
  8
0
100
AcDbLine
 10
677.28
 20
35.2425
 30
0.0
 11
679.103
 21
34.88
 31
0.0
  0
LINE
  5
2B8
330
17
100
AcDbEntity
  8
0
100
AcDbLine
 10
679.103
 20
34.88
 30
0.0
 11
680.648
 21
33.8476
 31
0.0
  0
LINE
  5
2B9
330
17
100
AcDbEntity
  8
0
100
AcDbLine
 10
680.648
 20
33.8476
 30
0.0
 11
681.68
 21
32.3025
 31
0.0
  0
LINE
  5
2BA
330
17
100
AcDbEntity
  8
0
100
AcDbLine
 10
681.68
 20
32.3025
 30
0.0
 11
682.042
 21
30.48
 31
0.0
  0
LINE
  5
2BB
330
17
100
AcDbEntity
  8
0
100
AcDbLine
 10
682.042
 20
30.48
 30
0.0
 11
681.68
 21
28.6575
 31
0.0
  0
LINE
  5
2BC
330
17
100
AcDbEntity
  8
0
100
AcDbLine
 10
681.68
 20
28.6575
 30
0.0
 11
680.648
 21
27.1124
 31
0.0
  0
LINE
  5
2BD
330
17
100
AcDbEntity
  8
0
100
AcDbLine
 10
680.648
 20
27.1124
 30
0.0
 11
679.103
 21
26.08
 31
0.0
  0
LINE
  5
2BE
330
17
100
AcDbEntity
  8
0
100
AcDbLine
 10
679.103
 20
26.08
 30
0.0
 11
677.28
 21
25.7175
 31
0.0
  0
LINE
  5
2BF
330
17
100
AcDbEntity
  8
0
100
AcDbLine
 10
677.28
 20
25.7175
 30
0.0
 11
675.457
 21
26.08
 31
0.0
  0
LINE
  5
2C0
330
17
100
AcDbEntity
  8
0
100
AcDbLine
 10
675.457
 20
26.08
 30
0.0
 11
673.912
 21
27.1124
 31
0.0
  0
LINE
  5
2C1
330
17
100
AcDbEntity
  8
0
100
AcDbLine
 10
673.912
 20
27.1124
 30
0.0
 11
672.88
 21
28.6575
 31
0.0
  0
LINE
  5
2C2
330
17
100
AcDbEntity
  8
0
100
AcDbLine
 10
672.88
 20
28.6575
 30
0.0
 11
672.517
 21
30.48
 31
0.0
  0
LINE
  5
2C3
330
17
100
AcDbEntity
  8
0
100
AcDbLine
 10
672.517
 20
89.52
 30
0.0
 11
672.88
 21
91.3425
 31
0.0
  0
LINE
  5
2C4
330
17
100
AcDbEntity
  8
0
100
AcDbLine
 10
672.88
 20
91.3425
 30
0.0
 11
673.912
 21
92.8876
 31
0.0
  0
LINE
  5
2C5
330
17
100
AcDbEntity
  8
0
100
AcDbLine
 10
673.912
 20
92.8876
 30
0.0
 11
675.457
 21
93.92
 31
0.0
  0
LINE
  5
2C6
330
17
100
AcDbEntity
  8
0
100
AcDbLine
 10
675.457
 20
93.92
 30
0.0
 11
677.28
 21
94.2825
 31
0.0
  0
LINE
  5
2C7
330
17
100
AcDbEntity
  8
0
100
AcDbLine
 10
677.28
 20
94.2825
 30
0.0
 11
679.103
 21
93.92
 31
0.0
  0
LINE
  5
2C8
330
17
100
AcDbEntity
  8
0
100
AcDbLine
 10
679.103
 20
93.92
 30
0.0
 11
680.648
 21
92.8876
 31
0.0
  0
LINE
  5
2C9
330
17
100
AcDbEntity
  8
0
100
AcDbLine
 10
680.648
 20
92.8876
 30
0.0
 11
681.68
 21
91.3425
 31
0.0
  0
LINE
  5
2CA
330
17
100
AcDbEntity
  8
0
100
AcDbLine
 10
681.68
 20
91.3425
 30
0.0
 11
682.042
 21
89.52
 31
0.0
  0
LINE
  5
2CB
330
17
100
AcDbEntity
  8
0
100
AcDbLine
 10
682.042
 20
89.52
 30
0.0
 11
681.68
 21
87.6975
 31
0.0
  0
LINE
  5
2CC
330
17
100
AcDbEntity
  8
0
100
AcDbLine
 10
681.68
 20
87.6975
 30
0.0
 11
680.648
 21
86.1524
 31
0.0
  0
LINE
  5
2CD
330
17
100
AcDbEntity
  8
0
100
AcDbLine
 10
680.648
 20
86.1524
 30
0.0
 11
679.103
 21
85.12
 31
0.0
  0
LINE
  5
2CE
330
17
100
AcDbEntity
  8
0
100
AcDbLine
 10
679.103
 20
85.12
 30
0.0
 11
677.28
 21
84.7575
 31
0.0
  0
LINE
  5
2CF
330
17
100
AcDbEntity
  8
0
100
AcDbLine
 10
677.28
 20
84.7575
 30
0.0
 11
675.457
 21
85.12
 31
0.0
  0
LINE
  5
2D0
330
17
100
AcDbEntity
  8
0
100
AcDbLine
 10
675.457
 20
85.12
 30
0.0
 11
673.912
 21
86.1524
 31
0.0
  0
LINE
  5
2D1
330
17
100
AcDbEntity
  8
0
100
AcDbLine
 10
673.912
 20
86.1524
 30
0.0
 11
672.88
 21
87.6975
 31
0.0
  0
LINE
  5
2D2
330
17
100
AcDbEntity
  8
0
100
AcDbLine
 10
672.88
 20
87.6975
 30
0.0
 11
672.517
 21
89.52
 31
0.0
  0
LINE
  5
2D3
330
17
100
AcDbEntity
  8
0
100
AcDbLine
 10
672.517
 20
163.18
 30
0.0
 11
672.88
 21
165.003
 31
0.0
  0
LINE
  5
2D4
330
17
100
AcDbEntity
  8
0
100
AcDbLine
 10
672.88
 20
165.003
 30
0.0
 11
673.912
 21
166.548
 31
0.0
  0
LINE
  5
2D5
330
17
100
AcDbEntity
  8
0
100
AcDbLine
 10
673.912
 20
166.548
 30
0.0
 11
675.457
 21
167.58
 31
0.0
  0
LINE
  5
2D6
330
17
100
AcDbEntity
  8
0
100
AcDbLine
 10
675.457
 20
167.58
 30
0.0
 11
677.28
 21
167.943
 31
0.0
  0
LINE
  5
2D7
330
17
100
AcDbEntity
  8
0
100
AcDbLine
 10
677.28
 20
167.943
 30
0.0
 11
679.103
 21
167.58
 31
0.0
  0
LINE
  5
2D8
330
17
100
AcDbEntity
  8
0
100
AcDbLine
 10
679.103
 20
167.58
 30
0.0
 11
680.648
 21
166.548
 31
0.0
  0
LINE
  5
2D9
330
17
100
AcDbEntity
  8
0
100
AcDbLine
 10
680.648
 20
166.548
 30
0.0
 11
681.68
 21
165.003
 31
0.0
  0
LINE
  5
2DA
330
17
100
AcDbEntity
  8
0
100
AcDbLine
 10
681.68
 20
165.003
 30
0.0
 11
682.042
 21
163.18
 31
0.0
  0
LINE
  5
2DB
330
17
100
AcDbEntity
  8
0
100
AcDbLine
 10
682.042
 20
163.18
 30
0.0
 11
681.68
 21
161.357
 31
0.0
  0
LINE
  5
2DC
330
17
100
AcDbEntity
  8
0
100
AcDbLine
 10
681.68
 20
161.357
 30
0.0
 11
680.648
 21
159.812
 31
0.0
  0
LINE
  5
2DD
330
17
100
AcDbEntity
  8
0
100
AcDbLine
 10
680.648
 20
159.812
 30
0.0
 11
679.103
 21
158.78
 31
0.0
  0
LINE
  5
2DE
330
17
100
AcDbEntity
  8
0
100
AcDbLine
 10
679.103
 20
158.78
 30
0.0
 11
677.28
 21
158.418
 31
0.0
  0
LINE
  5
2DF
330
17
100
AcDbEntity
  8
0
100
AcDbLine
 10
677.28
 20
158.418
 30
0.0
 11
675.457
 21
158.78
 31
0.0
  0
LINE
  5
2E0
330
17
100
AcDbEntity
  8
0
100
AcDbLine
 10
675.457
 20
158.78
 30
0.0
 11
673.912
 21
159.812
 31
0.0
  0
LINE
  5
2E1
330
17
100
AcDbEntity
  8
0
100
AcDbLine
 10
673.912
 20
159.812
 30
0.0
 11
672.88
 21
161.357
 31
0.0
  0
LINE
  5
2E2
330
17
100
AcDbEntity
  8
0
100
AcDbLine
 10
672.88
 20
161.357
 30
0.0
 11
672.517
 21
163.18
 31
0.0
  0
LINE
  5
2E3
330
17
100
AcDbEntity
  8
0
100
AcDbLine
 10
672.517
 20
238.745
 30
0.0
 11
672.88
 21
240.568
 31
0.0
  0
LINE
  5
2E4
330
17
100
AcDbEntity
  8
0
100
AcDbLine
 10
672.88
 20
240.568
 30
0.0
 11
673.912
 21
242.113
 31
0.0
  0
LINE
  5
2E5
330
17
100
AcDbEntity
  8
0
100
AcDbLine
 10
673.912
 20
242.113
 30
0.0
 11
675.457
 21
243.145
 31
0.0
  0
LINE
  5
2E6
330
17
100
AcDbEntity
  8
0
100
AcDbLine
 10
675.457
 20
243.145
 30
0.0
 11
677.28
 21
243.508
 31
0.0
  0
LINE
  5
2E7
330
17
100
AcDbEntity
  8
0
100
AcDbLine
 10
677.28
 20
243.508
 30
0.0
 11
679.103
 21
243.145
 31
0.0
  0
LINE
  5
2E8
330
17
100
AcDbEntity
  8
0
100
AcDbLine
 10
679.103
 20
243.145
 30
0.0
 11
680.648
 21
242.113
 31
0.0
  0
LINE
  5
2E9
330
17
100
AcDbEntity
  8
0
100
AcDbLine
 10
680.648
 20
242.113
 30
0.0
 11
681.68
 21
240.568
 31
0.0
  0
LINE
  5
2EA
330
17
100
AcDbEntity
  8
0
100
AcDbLine
 10
681.68
 20
240.568
 30
0.0
 11
682.042
 21
238.745
 31
0.0
  0
LINE
  5
2EB
330
17
100
AcDbEntity
  8
0
100
AcDbLine
 10
682.042
 20
238.745
 30
0.0
 11
681.68
 21
236.922
 31
0.0
  0
LINE
  5
2EC
330
17
100
AcDbEntity
  8
0
100
AcDbLine
 10
681.68
 20
236.922
 30
0.0
 11
680.648
 21
235.377
 31
0.0
  0
LINE
  5
2ED
330
17
100
AcDbEntity
  8
0
100
AcDbLine
 10
680.648
 20
235.377
 30
0.0
 11
679.103
 21
234.345
 31
0.0
  0
LINE
  5
2EE
330
17
100
AcDbEntity
  8
0
100
AcDbLine
 10
679.103
 20
234.345
 30
0.0
 11
677.28
 21
233.983
 31
0.0
  0
LINE
  5
2EF
330
17
100
AcDbEntity
  8
0
100
AcDbLine
 10
677.28
 20
233.983
 30
0.0
 11
675.457
 21
234.345
 31
0.0
  0
LINE
  5
2F0
330
17
100
AcDbEntity
  8
0
100
AcDbLine
 10
675.457
 20
234.345
 30
0.0
 11
673.912
 21
235.377
 31
0.0
  0
LINE
  5
2F1
330
17
100
AcDbEntity
  8
0
100
AcDbLine
 10
673.912
 20
235.377
 30
0.0
 11
672.88
 21
236.922
 31
0.0
  0
LINE
  5
2F2
330
17
100
AcDbEntity
  8
0
100
AcDbLine
 10
672.88
 20
236.922
 30
0.0
 11
672.517
 21
238.745
 31
0.0
  0
LINE
  5
2F3
330
17
100
AcDbEntity
  8
0
100
AcDbLine
 10
672.517
 20
306.055
 30
0.0
 11
672.88
 21
307.878
 31
0.0
  0
LINE
  5
2F4
330
17
100
AcDbEntity
  8
0
100
AcDbLine
 10
672.88
 20
307.878
 30
0.0
 11
673.912
 21
309.423
 31
0.0
  0
LINE
  5
2F5
330
17
100
AcDbEntity
  8
0
100
AcDbLine
 10
673.912
 20
309.423
 30
0.0
 11
675.457
 21
310.455
 31
0.0
  0
LINE
  5
2F6
330
17
100
AcDbEntity
  8
0
100
AcDbLine
 10
675.457
 20
310.455
 30
0.0
 11
677.28
 21
310.818
 31
0.0
  0
LINE
  5
2F7
330
17
100
AcDbEntity
  8
0
100
AcDbLine
 10
677.28
 20
310.818
 30
0.0
 11
679.103
 21
310.455
 31
0.0
  0
LINE
  5
2F8
330
17
100
AcDbEntity
  8
0
100
AcDbLine
 10
679.103
 20
310.455
 30
0.0
 11
680.648
 21
309.423
 31
0.0
  0
LINE
  5
2F9
330
17
100
AcDbEntity
  8
0
100
AcDbLine
 10
680.648
 20
309.423
 30
0.0
 11
681.68
 21
307.878
 31
0.0
  0
LINE
  5
2FA
330
17
100
AcDbEntity
  8
0
100
AcDbLine
 10
681.68
 20
307.878
 30
0.0
 11
682.042
 21
306.055
 31
0.0
  0
LINE
  5
2FB
330
17
100
AcDbEntity
  8
0
100
AcDbLine
 10
682.042
 20
306.055
 30
0.0
 11
681.68
 21
304.232
 31
0.0
  0
LINE
  5
2FC
330
17
100
AcDbEntity
  8
0
100
AcDbLine
 10
681.68
 20
304.232
 30
0.0
 11
680.648
 21
302.687
 31
0.0
  0
LINE
  5
2FD
330
17
100
AcDbEntity
  8
0
100
AcDbLine
 10
680.648
 20
302.687
 30
0.0
 11
679.103
 21
301.655
 31
0.0
  0
LINE
  5
2FE
330
17
100
AcDbEntity
  8
0
100
AcDbLine
 10
679.103
 20
301.655
 30
0.0
 11
677.28
 21
301.293
 31
0.0
  0
LINE
  5
2FF
330
17
100
AcDbEntity
  8
0
100
AcDbLine
 10
677.28
 20
301.293
 30
0.0
 11
675.457
 21
301.655
 31
0.0
  0
LINE
  5
300
330
17
100
AcDbEntity
  8
0
100
AcDbLine
 10
675.457
 20
301.655
 30
0.0
 11
673.912
 21
302.687
 31
0.0
  0
LINE
  5
301
330
17
100
AcDbEntity
  8
0
100
AcDbLine
 10
673.912
 20
302.687
 30
0.0
 11
672.88
 21
304.232
 31
0.0
  0
LINE
  5
302
330
17
100
AcDbEntity
  8
0
100
AcDbLine
 10
672.88
 20
304.232
 30
0.0
 11
672.517
 21
306.055
 31
0.0
  0
LINE
  5
303
330
17
100
AcDbEntity
  8
0
100
AcDbLine
 10
672.517
 20
713.945
 30
0.0
 11
672.88
 21
715.768
 31
0.0
  0
LINE
  5
304
330
17
100
AcDbEntity
  8
0
100
AcDbLine
 10
672.88
 20
715.768
 30
0.0
 11
673.912
 21
717.313
 31
0.0
  0
LINE
  5
305
330
17
100
AcDbEntity
  8
0
100
AcDbLine
 10
673.912
 20
717.313
 30
0.0
 11
675.457
 21
718.345
 31
0.0
  0
LINE
  5
306
330
17
100
AcDbEntity
  8
0
100
AcDbLine
 10
675.457
 20
718.345
 30
0.0
 11
677.28
 21
718.707
 31
0.0
  0
LINE
  5
307
330
17
100
AcDbEntity
  8
0
100
AcDbLine
 10
677.28
 20
718.707
 30
0.0
 11
679.103
 21
718.345
 31
0.0
  0
LINE
  5
308
330
17
100
AcDbEntity
  8
0
100
AcDbLine
 10
679.103
 20
718.345
 30
0.0
 11
680.648
 21
717.313
 31
0.0
  0
LINE
  5
309
330
17
100
AcDbEntity
  8
0
100
AcDbLine
 10
680.648
 20
717.313
 30
0.0
 11
681.68
 21
715.768
 31
0.0
  0
LINE
  5
30A
330
17
100
AcDbEntity
  8
0
100
AcDbLine
 10
681.68
 20
715.768
 30
0.0
 11
682.042
 21
713.945
 31
0.0
  0
LINE
  5
30B
330
17
100
AcDbEntity
  8
0
100
AcDbLine
 10
682.042
 20
713.945
 30
0.0
 11
681.68
 21
712.122
 31
0.0
  0
LINE
  5
30C
330
17
100
AcDbEntity
  8
0
100
AcDbLine
 10
681.68
 20
712.122
 30
0.0
 11
680.648
 21
710.577
 31
0.0
  0
LINE
  5
30D
330
17
100
AcDbEntity
  8
0
100
AcDbLine
 10
680.648
 20
710.577
 30
0.0
 11
679.103
 21
709.545
 31
0.0
  0
LINE
  5
30E
330
17
100
AcDbEntity
  8
0
100
AcDbLine
 10
679.103
 20
709.545
 30
0.0
 11
677.28
 21
709.182
 31
0.0
  0
LINE
  5
30F
330
17
100
AcDbEntity
  8
0
100
AcDbLine
 10
677.28
 20
709.182
 30
0.0
 11
675.457
 21
709.545
 31
0.0
  0
LINE
  5
310
330
17
100
AcDbEntity
  8
0
100
AcDbLine
 10
675.457
 20
709.545
 30
0.0
 11
673.912
 21
710.577
 31
0.0
  0
LINE
  5
311
330
17
100
AcDbEntity
  8
0
100
AcDbLine
 10
673.912
 20
710.577
 30
0.0
 11
672.88
 21
712.122
 31
0.0
  0
LINE
  5
312
330
17
100
AcDbEntity
  8
0
100
AcDbLine
 10
672.88
 20
712.122
 30
0.0
 11
672.517
 21
713.945
 31
0.0
  0
LINE
  5
313
330
17
100
AcDbEntity
  8
0
100
AcDbLine
 10
672.517
 20
781.255
 30
0.0
 11
672.88
 21
783.078
 31
0.0
  0
LINE
  5
314
330
17
100
AcDbEntity
  8
0
100
AcDbLine
 10
672.88
 20
783.078
 30
0.0
 11
673.912
 21
784.623
 31
0.0
  0
LINE
  5
315
330
17
100
AcDbEntity
  8
0
100
AcDbLine
 10
673.912
 20
784.623
 30
0.0
 11
675.457
 21
785.655
 31
0.0
  0
LINE
  5
316
330
17
100
AcDbEntity
  8
0
100
AcDbLine
 10
675.457
 20
785.655
 30
0.0
 11
677.28
 21
786.017
 31
0.0
  0
LINE
  5
317
330
17
100
AcDbEntity
  8
0
100
AcDbLine
 10
677.28
 20
786.017
 30
0.0
 11
679.103
 21
785.655
 31
0.0
  0
LINE
  5
318
330
17
100
AcDbEntity
  8
0
100
AcDbLine
 10
679.103
 20
785.655
 30
0.0
 11
680.648
 21
784.623
 31
0.0
  0
LINE
  5
319
330
17
100
AcDbEntity
  8
0
100
AcDbLine
 10
680.648
 20
784.623
 30
0.0
 11
681.68
 21
783.078
 31
0.0
  0
LINE
  5
31A
330
17
100
AcDbEntity
  8
0
100
AcDbLine
 10
681.68
 20
783.078
 30
0.0
 11
682.042
 21
781.255
 31
0.0
  0
LINE
  5
31B
330
17
100
AcDbEntity
  8
0
100
AcDbLine
 10
682.042
 20
781.255
 30
0.0
 11
681.68
 21
779.432
 31
0.0
  0
LINE
  5
31C
330
17
100
AcDbEntity
  8
0
100
AcDbLine
 10
681.68
 20
779.432
 30
0.0
 11
680.648
 21
777.887
 31
0.0
  0
LINE
  5
31D
330
17
100
AcDbEntity
  8
0
100
AcDbLine
 10
680.648
 20
777.887
 30
0.0
 11
679.103
 21
776.855
 31
0.0
  0
LINE
  5
31E
330
17
100
AcDbEntity
  8
0
100
AcDbLine
 10
679.103
 20
776.855
 30
0.0
 11
677.28
 21
776.492
 31
0.0
  0
LINE
  5
31F
330
17
100
AcDbEntity
  8
0
100
AcDbLine
 10
677.28
 20
776.492
 30
0.0
 11
675.457
 21
776.855
 31
0.0
  0
LINE
  5
320
330
17
100
AcDbEntity
  8
0
100
AcDbLine
 10
675.457
 20
776.855
 30
0.0
 11
673.912
 21
777.887
 31
0.0
  0
LINE
  5
321
330
17
100
AcDbEntity
  8
0
100
AcDbLine
 10
673.912
 20
777.887
 30
0.0
 11
672.88
 21
779.432
 31
0.0
  0
LINE
  5
322
330
17
100
AcDbEntity
  8
0
100
AcDbLine
 10
672.88
 20
779.432
 30
0.0
 11
672.517
 21
781.255
 31
0.0
  0
LINE
  5
323
330
17
100
AcDbEntity
  8
0
100
AcDbLine
 10
672.517
 20
856.82
 30
0.0
 11
672.88
 21
858.643
 31
0.0
  0
LINE
  5
324
330
17
100
AcDbEntity
  8
0
100
AcDbLine
 10
672.88
 20
858.643
 30
0.0
 11
673.912
 21
860.188
 31
0.0
  0
LINE
  5
325
330
17
100
AcDbEntity
  8
0
100
AcDbLine
 10
673.912
 20
860.188
 30
0.0
 11
675.457
 21
861.22
 31
0.0
  0
LINE
  5
326
330
17
100
AcDbEntity
  8
0
100
AcDbLine
 10
675.457
 20
861.22
 30
0.0
 11
677.28
 21
861.582
 31
0.0
  0
LINE
  5
327
330
17
100
AcDbEntity
  8
0
100
AcDbLine
 10
677.28
 20
861.582
 30
0.0
 11
679.103
 21
861.22
 31
0.0
  0
LINE
  5
328
330
17
100
AcDbEntity
  8
0
100
AcDbLine
 10
679.103
 20
861.22
 30
0.0
 11
680.648
 21
860.188
 31
0.0
  0
LINE
  5
329
330
17
100
AcDbEntity
  8
0
100
AcDbLine
 10
680.648
 20
860.188
 30
0.0
 11
681.68
 21
858.643
 31
0.0
  0
LINE
  5
32A
330
17
100
AcDbEntity
  8
0
100
AcDbLine
 10
681.68
 20
858.643
 30
0.0
 11
682.042
 21
856.82
 31
0.0
  0
LINE
  5
32B
330
17
100
AcDbEntity
  8
0
100
AcDbLine
 10
682.042
 20
856.82
 30
0.0
 11
681.68
 21
854.997
 31
0.0
  0
LINE
  5
32C
330
17
100
AcDbEntity
  8
0
100
AcDbLine
 10
681.68
 20
854.997
 30
0.0
 11
680.648
 21
853.452
 31
0.0
  0
LINE
  5
32D
330
17
100
AcDbEntity
  8
0
100
AcDbLine
 10
680.648
 20
853.452
 30
0.0
 11
679.103
 21
852.42
 31
0.0
  0
LINE
  5
32E
330
17
100
AcDbEntity
  8
0
100
AcDbLine
 10
679.103
 20
852.42
 30
0.0
 11
677.28
 21
852.057
 31
0.0
  0
LINE
  5
32F
330
17
100
AcDbEntity
  8
0
100
AcDbLine
 10
677.28
 20
852.057
 30
0.0
 11
675.457
 21
852.42
 31
0.0
  0
LINE
  5
330
330
17
100
AcDbEntity
  8
0
100
AcDbLine
 10
675.457
 20
852.42
 30
0.0
 11
673.912
 21
853.452
 31
0.0
  0
LINE
  5
331
330
17
100
AcDbEntity
  8
0
100
AcDbLine
 10
673.912
 20
853.452
 30
0.0
 11
672.88
 21
854.997
 31
0.0
  0
LINE
  5
332
330
17
100
AcDbEntity
  8
0
100
AcDbLine
 10
672.88
 20
854.997
 30
0.0
 11
672.517
 21
856.82
 31
0.0
  0
LINE
  5
333
330
17
100
AcDbEntity
  8
0
100
AcDbLine
 10
672.517
 20
930.48
 30
0.0
 11
672.88
 21
932.303
 31
0.0
  0
LINE
  5
334
330
17
100
AcDbEntity
  8
0
100
AcDbLine
 10
672.88
 20
932.303
 30
0.0
 11
673.912
 21
933.848
 31
0.0
  0
LINE
  5
335
330
17
100
AcDbEntity
  8
0
100
AcDbLine
 10
673.912
 20
933.848
 30
0.0
 11
675.457
 21
934.88
 31
0.0
  0
LINE
  5
336
330
17
100
AcDbEntity
  8
0
100
AcDbLine
 10
675.457
 20
934.88
 30
0.0
 11
677.28
 21
935.242
 31
0.0
  0
LINE
  5
337
330
17
100
AcDbEntity
  8
0
100
AcDbLine
 10
677.28
 20
935.242
 30
0.0
 11
679.103
 21
934.88
 31
0.0
  0
LINE
  5
338
330
17
100
AcDbEntity
  8
0
100
AcDbLine
 10
679.103
 20
934.88
 30
0.0
 11
680.648
 21
933.848
 31
0.0
  0
LINE
  5
339
330
17
100
AcDbEntity
  8
0
100
AcDbLine
 10
680.648
 20
933.848
 30
0.0
 11
681.68
 21
932.303
 31
0.0
  0
LINE
  5
33A
330
17
100
AcDbEntity
  8
0
100
AcDbLine
 10
681.68
 20
932.303
 30
0.0
 11
682.042
 21
930.48
 31
0.0
  0
LINE
  5
33B
330
17
100
AcDbEntity
  8
0
100
AcDbLine
 10
682.042
 20
930.48
 30
0.0
 11
681.68
 21
928.657
 31
0.0
  0
LINE
  5
33C
330
17
100
AcDbEntity
  8
0
100
AcDbLine
 10
681.68
 20
928.657
 30
0.0
 11
680.648
 21
927.112
 31
0.0
  0
LINE
  5
33D
330
17
100
AcDbEntity
  8
0
100
AcDbLine
 10
680.648
 20
927.112
 30
0.0
 11
679.103
 21
926.08
 31
0.0
  0
LINE
  5
33E
330
17
100
AcDbEntity
  8
0
100
AcDbLine
 10
679.103
 20
926.08
 30
0.0
 11
677.28
 21
925.717
 31
0.0
  0
LINE
  5
33F
330
17
100
AcDbEntity
  8
0
100
AcDbLine
 10
677.28
 20
925.717
 30
0.0
 11
675.457
 21
926.08
 31
0.0
  0
LINE
  5
340
330
17
100
AcDbEntity
  8
0
100
AcDbLine
 10
675.457
 20
926.08
 30
0.0
 11
673.912
 21
927.112
 31
0.0
  0
LINE
  5
341
330
17
100
AcDbEntity
  8
0
100
AcDbLine
 10
673.912
 20
927.112
 30
0.0
 11
672.88
 21
928.657
 31
0.0
  0
LINE
  5
342
330
17
100
AcDbEntity
  8
0
100
AcDbLine
 10
672.88
 20
928.657
 30
0.0
 11
672.517
 21
930.48
 31
0.0
  0
LINE
  5
343
330
17
100
AcDbEntity
  8
0
100
AcDbLine
 10
672.517
 20
989.52
 30
0.0
 11
672.88
 21
991.343
 31
0.0
  0
LINE
  5
344
330
17
100
AcDbEntity
  8
0
100
AcDbLine
 10
672.88
 20
991.343
 30
0.0
 11
673.912
 21
992.888
 31
0.0
  0
LINE
  5
345
330
17
100
AcDbEntity
  8
0
100
AcDbLine
 10
673.912
 20
992.888
 30
0.0
 11
675.457
 21
993.92
 31
0.0
  0
LINE
  5
346
330
17
100
AcDbEntity
  8
0
100
AcDbLine
 10
675.457
 20
993.92
 30
0.0
 11
677.28
 21
994.282
 31
0.0
  0
LINE
  5
347
330
17
100
AcDbEntity
  8
0
100
AcDbLine
 10
677.28
 20
994.282
 30
0.0
 11
679.103
 21
993.92
 31
0.0
  0
LINE
  5
348
330
17
100
AcDbEntity
  8
0
100
AcDbLine
 10
679.103
 20
993.92
 30
0.0
 11
680.648
 21
992.888
 31
0.0
  0
LINE
  5
349
330
17
100
AcDbEntity
  8
0
100
AcDbLine
 10
680.648
 20
992.888
 30
0.0
 11
681.68
 21
991.343
 31
0.0
  0
LINE
  5
34A
330
17
100
AcDbEntity
  8
0
100
AcDbLine
 10
681.68
 20
991.343
 30
0.0
 11
682.042
 21
989.52
 31
0.0
  0
LINE
  5
34B
330
17
100
AcDbEntity
  8
0
100
AcDbLine
 10
682.042
 20
989.52
 30
0.0
 11
681.68
 21
987.697
 31
0.0
  0
LINE
  5
34C
330
17
100
AcDbEntity
  8
0
100
AcDbLine
 10
681.68
 20
987.697
 30
0.0
 11
680.648
 21
986.152
 31
0.0
  0
LINE
  5
34D
330
17
100
AcDbEntity
  8
0
100
AcDbLine
 10
680.648
 20
986.152
 30
0.0
 11
679.103
 21
985.12
 31
0.0
  0
LINE
  5
34E
330
17
100
AcDbEntity
  8
0
100
AcDbLine
 10
679.103
 20
985.12
 30
0.0
 11
677.28
 21
984.757
 31
0.0
  0
LINE
  5
34F
330
17
100
AcDbEntity
  8
0
100
AcDbLine
 10
677.28
 20
984.757
 30
0.0
 11
675.457
 21
985.12
 31
0.0
  0
LINE
  5
350
330
17
100
AcDbEntity
  8
0
100
AcDbLine
 10
675.457
 20
985.12
 30
0.0
 11
673.912
 21
986.152
 31
0.0
  0
LINE
  5
351
330
17
100
AcDbEntity
  8
0
100
AcDbLine
 10
673.912
 20
986.152
 30
0.0
 11
672.88
 21
987.697
 31
0.0
  0
LINE
  5
352
330
17
100
AcDbEntity
  8
0
100
AcDbLine
 10
672.88
 20
987.697
 30
0.0
 11
672.517
 21
989.52
 31
0.0
  0
LINE
  5
353
330
17
100
AcDbEntity
  8
0
100
AcDbLine
 10
781.877
 20
30.48
 30
0.0
 11
782.24
 21
32.3025
 31
0.0
  0
LINE
  5
354
330
17
100
AcDbEntity
  8
0
100
AcDbLine
 10
782.24
 20
32.3025
 30
0.0
 11
783.272
 21
33.8476
 31
0.0
  0
LINE
  5
355
330
17
100
AcDbEntity
  8
0
100
AcDbLine
 10
783.272
 20
33.8476
 30
0.0
 11
784.817
 21
34.88
 31
0.0
  0
LINE
  5
356
330
17
100
AcDbEntity
  8
0
100
AcDbLine
 10
784.817
 20
34.88
 30
0.0
 11
786.64
 21
35.2425
 31
0.0
  0
LINE
  5
357
330
17
100
AcDbEntity
  8
0
100
AcDbLine
 10
786.64
 20
35.2425
 30
0.0
 11
788.463
 21
34.88
 31
0.0
  0
LINE
  5
358
330
17
100
AcDbEntity
  8
0
100
AcDbLine
 10
788.463
 20
34.88
 30
0.0
 11
790.008
 21
33.8476
 31
0.0
  0
LINE
  5
359
330
17
100
AcDbEntity
  8
0
100
AcDbLine
 10
790.008
 20
33.8476
 30
0.0
 11
791.04
 21
32.3025
 31
0.0
  0
LINE
  5
35A
330
17
100
AcDbEntity
  8
0
100
AcDbLine
 10
791.04
 20
32.3025
 30
0.0
 11
791.402
 21
30.48
 31
0.0
  0
LINE
  5
35B
330
17
100
AcDbEntity
  8
0
100
AcDbLine
 10
791.402
 20
30.48
 30
0.0
 11
791.04
 21
28.6575
 31
0.0
  0
LINE
  5
35C
330
17
100
AcDbEntity
  8
0
100
AcDbLine
 10
791.04
 20
28.6575
 30
0.0
 11
790.008
 21
27.1124
 31
0.0
  0
LINE
  5
35D
330
17
100
AcDbEntity
  8
0
100
AcDbLine
 10
790.008
 20
27.1124
 30
0.0
 11
788.463
 21
26.08
 31
0.0
  0
LINE
  5
35E
330
17
100
AcDbEntity
  8
0
100
AcDbLine
 10
788.463
 20
26.08
 30
0.0
 11
786.64
 21
25.7175
 31
0.0
  0
LINE
  5
35F
330
17
100
AcDbEntity
  8
0
100
AcDbLine
 10
786.64
 20
25.7175
 30
0.0
 11
784.817
 21
26.08
 31
0.0
  0
LINE
  5
360
330
17
100
AcDbEntity
  8
0
100
AcDbLine
 10
784.817
 20
26.08
 30
0.0
 11
783.272
 21
27.1124
 31
0.0
  0
LINE
  5
361
330
17
100
AcDbEntity
  8
0
100
AcDbLine
 10
783.272
 20
27.1124
 30
0.0
 11
782.24
 21
28.6575
 31
0.0
  0
LINE
  5
362
330
17
100
AcDbEntity
  8
0
100
AcDbLine
 10
782.24
 20
28.6575
 30
0.0
 11
781.877
 21
30.48
 31
0.0
  0
LINE
  5
363
330
17
100
AcDbEntity
  8
0
100
AcDbLine
 10
781.877
 20
89.52
 30
0.0
 11
782.24
 21
91.3425
 31
0.0
  0
LINE
  5
364
330
17
100
AcDbEntity
  8
0
100
AcDbLine
 10
782.24
 20
91.3425
 30
0.0
 11
783.272
 21
92.8876
 31
0.0
  0
LINE
  5
365
330
17
100
AcDbEntity
  8
0
100
AcDbLine
 10
783.272
 20
92.8876
 30
0.0
 11
784.817
 21
93.92
 31
0.0
  0
LINE
  5
366
330
17
100
AcDbEntity
  8
0
100
AcDbLine
 10
784.817
 20
93.92
 30
0.0
 11
786.64
 21
94.2825
 31
0.0
  0
LINE
  5
367
330
17
100
AcDbEntity
  8
0
100
AcDbLine
 10
786.64
 20
94.2825
 30
0.0
 11
788.463
 21
93.92
 31
0.0
  0
LINE
  5
368
330
17
100
AcDbEntity
  8
0
100
AcDbLine
 10
788.463
 20
93.92
 30
0.0
 11
790.008
 21
92.8876
 31
0.0
  0
LINE
  5
369
330
17
100
AcDbEntity
  8
0
100
AcDbLine
 10
790.008
 20
92.8876
 30
0.0
 11
791.04
 21
91.3425
 31
0.0
  0
LINE
  5
36A
330
17
100
AcDbEntity
  8
0
100
AcDbLine
 10
791.04
 20
91.3425
 30
0.0
 11
791.402
 21
89.52
 31
0.0
  0
LINE
  5
36B
330
17
100
AcDbEntity
  8
0
100
AcDbLine
 10
791.402
 20
89.52
 30
0.0
 11
791.04
 21
87.6975
 31
0.0
  0
LINE
  5
36C
330
17
100
AcDbEntity
  8
0
100
AcDbLine
 10
791.04
 20
87.6975
 30
0.0
 11
790.008
 21
86.1524
 31
0.0
  0
LINE
  5
36D
330
17
100
AcDbEntity
  8
0
100
AcDbLine
 10
790.008
 20
86.1524
 30
0.0
 11
788.463
 21
85.12
 31
0.0
  0
LINE
  5
36E
330
17
100
AcDbEntity
  8
0
100
AcDbLine
 10
788.463
 20
85.12
 30
0.0
 11
786.64
 21
84.7575
 31
0.0
  0
LINE
  5
36F
330
17
100
AcDbEntity
  8
0
100
AcDbLine
 10
786.64
 20
84.7575
 30
0.0
 11
784.817
 21
85.12
 31
0.0
  0
LINE
  5
370
330
17
100
AcDbEntity
  8
0
100
AcDbLine
 10
784.817
 20
85.12
 30
0.0
 11
783.272
 21
86.1524
 31
0.0
  0
LINE
  5
371
330
17
100
AcDbEntity
  8
0
100
AcDbLine
 10
783.272
 20
86.1524
 30
0.0
 11
782.24
 21
87.6975
 31
0.0
  0
LINE
  5
372
330
17
100
AcDbEntity
  8
0
100
AcDbLine
 10
782.24
 20
87.6975
 30
0.0
 11
781.877
 21
89.52
 31
0.0
  0
LINE
  5
373
330
17
100
AcDbEntity
  8
0
100
AcDbLine
 10
781.877
 20
163.18
 30
0.0
 11
782.24
 21
165.003
 31
0.0
  0
LINE
  5
374
330
17
100
AcDbEntity
  8
0
100
AcDbLine
 10
782.24
 20
165.003
 30
0.0
 11
783.272
 21
166.548
 31
0.0
  0
LINE
  5
375
330
17
100
AcDbEntity
  8
0
100
AcDbLine
 10
783.272
 20
166.548
 30
0.0
 11
784.817
 21
167.58
 31
0.0
  0
LINE
  5
376
330
17
100
AcDbEntity
  8
0
100
AcDbLine
 10
784.817
 20
167.58
 30
0.0
 11
786.64
 21
167.943
 31
0.0
  0
LINE
  5
377
330
17
100
AcDbEntity
  8
0
100
AcDbLine
 10
786.64
 20
167.943
 30
0.0
 11
788.463
 21
167.58
 31
0.0
  0
LINE
  5
378
330
17
100
AcDbEntity
  8
0
100
AcDbLine
 10
788.463
 20
167.58
 30
0.0
 11
790.008
 21
166.548
 31
0.0
  0
LINE
  5
379
330
17
100
AcDbEntity
  8
0
100
AcDbLine
 10
790.008
 20
166.548
 30
0.0
 11
791.04
 21
165.003
 31
0.0
  0
LINE
  5
37A
330
17
100
AcDbEntity
  8
0
100
AcDbLine
 10
791.04
 20
165.003
 30
0.0
 11
791.402
 21
163.18
 31
0.0
  0
LINE
  5
37B
330
17
100
AcDbEntity
  8
0
100
AcDbLine
 10
791.402
 20
163.18
 30
0.0
 11
791.04
 21
161.357
 31
0.0
  0
LINE
  5
37C
330
17
100
AcDbEntity
  8
0
100
AcDbLine
 10
791.04
 20
161.357
 30
0.0
 11
790.008
 21
159.812
 31
0.0
  0
LINE
  5
37D
330
17
100
AcDbEntity
  8
0
100
AcDbLine
 10
790.008
 20
159.812
 30
0.0
 11
788.463
 21
158.78
 31
0.0
  0
LINE
  5
37E
330
17
100
AcDbEntity
  8
0
100
AcDbLine
 10
788.463
 20
158.78
 30
0.0
 11
786.64
 21
158.418
 31
0.0
  0
LINE
  5
37F
330
17
100
AcDbEntity
  8
0
100
AcDbLine
 10
786.64
 20
158.418
 30
0.0
 11
784.817
 21
158.78
 31
0.0
  0
LINE
  5
380
330
17
100
AcDbEntity
  8
0
100
AcDbLine
 10
784.817
 20
158.78
 30
0.0
 11
783.272
 21
159.812
 31
0.0
  0
LINE
  5
381
330
17
100
AcDbEntity
  8
0
100
AcDbLine
 10
783.272
 20
159.812
 30
0.0
 11
782.24
 21
161.357
 31
0.0
  0
LINE
  5
382
330
17
100
AcDbEntity
  8
0
100
AcDbLine
 10
782.24
 20
161.357
 30
0.0
 11
781.877
 21
163.18
 31
0.0
  0
LINE
  5
383
330
17
100
AcDbEntity
  8
0
100
AcDbLine
 10
781.877
 20
238.745
 30
0.0
 11
782.24
 21
240.568
 31
0.0
  0
LINE
  5
384
330
17
100
AcDbEntity
  8
0
100
AcDbLine
 10
782.24
 20
240.568
 30
0.0
 11
783.272
 21
242.113
 31
0.0
  0
LINE
  5
385
330
17
100
AcDbEntity
  8
0
100
AcDbLine
 10
783.272
 20
242.113
 30
0.0
 11
784.817
 21
243.145
 31
0.0
  0
LINE
  5
386
330
17
100
AcDbEntity
  8
0
100
AcDbLine
 10
784.817
 20
243.145
 30
0.0
 11
786.64
 21
243.508
 31
0.0
  0
LINE
  5
387
330
17
100
AcDbEntity
  8
0
100
AcDbLine
 10
786.64
 20
243.508
 30
0.0
 11
788.463
 21
243.145
 31
0.0
  0
LINE
  5
388
330
17
100
AcDbEntity
  8
0
100
AcDbLine
 10
788.463
 20
243.145
 30
0.0
 11
790.008
 21
242.113
 31
0.0
  0
LINE
  5
389
330
17
100
AcDbEntity
  8
0
100
AcDbLine
 10
790.008
 20
242.113
 30
0.0
 11
791.04
 21
240.568
 31
0.0
  0
LINE
  5
38A
330
17
100
AcDbEntity
  8
0
100
AcDbLine
 10
791.04
 20
240.568
 30
0.0
 11
791.402
 21
238.745
 31
0.0
  0
LINE
  5
38B
330
17
100
AcDbEntity
  8
0
100
AcDbLine
 10
791.402
 20
238.745
 30
0.0
 11
791.04
 21
236.922
 31
0.0
  0
LINE
  5
38C
330
17
100
AcDbEntity
  8
0
100
AcDbLine
 10
791.04
 20
236.922
 30
0.0
 11
790.008
 21
235.377
 31
0.0
  0
LINE
  5
38D
330
17
100
AcDbEntity
  8
0
100
AcDbLine
 10
790.008
 20
235.377
 30
0.0
 11
788.463
 21
234.345
 31
0.0
  0
LINE
  5
38E
330
17
100
AcDbEntity
  8
0
100
AcDbLine
 10
788.463
 20
234.345
 30
0.0
 11
786.64
 21
233.983
 31
0.0
  0
LINE
  5
38F
330
17
100
AcDbEntity
  8
0
100
AcDbLine
 10
786.64
 20
233.983
 30
0.0
 11
784.817
 21
234.345
 31
0.0
  0
LINE
  5
390
330
17
100
AcDbEntity
  8
0
100
AcDbLine
 10
784.817
 20
234.345
 30
0.0
 11
783.272
 21
235.377
 31
0.0
  0
LINE
  5
391
330
17
100
AcDbEntity
  8
0
100
AcDbLine
 10
783.272
 20
235.377
 30
0.0
 11
782.24
 21
236.922
 31
0.0
  0
LINE
  5
392
330
17
100
AcDbEntity
  8
0
100
AcDbLine
 10
782.24
 20
236.922
 30
0.0
 11
781.877
 21
238.745
 31
0.0
  0
LINE
  5
393
330
17
100
AcDbEntity
  8
0
100
AcDbLine
 10
781.877
 20
306.055
 30
0.0
 11
782.24
 21
307.878
 31
0.0
  0
LINE
  5
394
330
17
100
AcDbEntity
  8
0
100
AcDbLine
 10
782.24
 20
307.878
 30
0.0
 11
783.272
 21
309.423
 31
0.0
  0
LINE
  5
395
330
17
100
AcDbEntity
  8
0
100
AcDbLine
 10
783.272
 20
309.423
 30
0.0
 11
784.817
 21
310.455
 31
0.0
  0
LINE
  5
396
330
17
100
AcDbEntity
  8
0
100
AcDbLine
 10
784.817
 20
310.455
 30
0.0
 11
786.64
 21
310.818
 31
0.0
  0
LINE
  5
397
330
17
100
AcDbEntity
  8
0
100
AcDbLine
 10
786.64
 20
310.818
 30
0.0
 11
788.463
 21
310.455
 31
0.0
  0
LINE
  5
398
330
17
100
AcDbEntity
  8
0
100
AcDbLine
 10
788.463
 20
310.455
 30
0.0
 11
790.008
 21
309.423
 31
0.0
  0
LINE
  5
399
330
17
100
AcDbEntity
  8
0
100
AcDbLine
 10
790.008
 20
309.423
 30
0.0
 11
791.04
 21
307.878
 31
0.0
  0
LINE
  5
39A
330
17
100
AcDbEntity
  8
0
100
AcDbLine
 10
791.04
 20
307.878
 30
0.0
 11
791.402
 21
306.055
 31
0.0
  0
LINE
  5
39B
330
17
100
AcDbEntity
  8
0
100
AcDbLine
 10
791.402
 20
306.055
 30
0.0
 11
791.04
 21
304.232
 31
0.0
  0
LINE
  5
39C
330
17
100
AcDbEntity
  8
0
100
AcDbLine
 10
791.04
 20
304.232
 30
0.0
 11
790.008
 21
302.687
 31
0.0
  0
LINE
  5
39D
330
17
100
AcDbEntity
  8
0
100
AcDbLine
 10
790.008
 20
302.687
 30
0.0
 11
788.463
 21
301.655
 31
0.0
  0
LINE
  5
39E
330
17
100
AcDbEntity
  8
0
100
AcDbLine
 10
788.463
 20
301.655
 30
0.0
 11
786.64
 21
301.293
 31
0.0
  0
LINE
  5
39F
330
17
100
AcDbEntity
  8
0
100
AcDbLine
 10
786.64
 20
301.293
 30
0.0
 11
784.817
 21
301.655
 31
0.0
  0
LINE
  5
3A0
330
17
100
AcDbEntity
  8
0
100
AcDbLine
 10
784.817
 20
301.655
 30
0.0
 11
783.272
 21
302.687
 31
0.0
  0
LINE
  5
3A1
330
17
100
AcDbEntity
  8
0
100
AcDbLine
 10
783.272
 20
302.687
 30
0.0
 11
782.24
 21
304.232
 31
0.0
  0
LINE
  5
3A2
330
17
100
AcDbEntity
  8
0
100
AcDbLine
 10
782.24
 20
304.232
 30
0.0
 11
781.877
 21
306.055
 31
0.0
  0
LINE
  5
3A3
330
17
100
AcDbEntity
  8
0
100
AcDbLine
 10
781.877
 20
713.945
 30
0.0
 11
782.24
 21
715.768
 31
0.0
  0
LINE
  5
3A4
330
17
100
AcDbEntity
  8
0
100
AcDbLine
 10
782.24
 20
715.768
 30
0.0
 11
783.272
 21
717.313
 31
0.0
  0
LINE
  5
3A5
330
17
100
AcDbEntity
  8
0
100
AcDbLine
 10
783.272
 20
717.313
 30
0.0
 11
784.817
 21
718.345
 31
0.0
  0
LINE
  5
3A6
330
17
100
AcDbEntity
  8
0
100
AcDbLine
 10
784.817
 20
718.345
 30
0.0
 11
786.64
 21
718.707
 31
0.0
  0
LINE
  5
3A7
330
17
100
AcDbEntity
  8
0
100
AcDbLine
 10
786.64
 20
718.707
 30
0.0
 11
788.463
 21
718.345
 31
0.0
  0
LINE
  5
3A8
330
17
100
AcDbEntity
  8
0
100
AcDbLine
 10
788.463
 20
718.345
 30
0.0
 11
790.008
 21
717.313
 31
0.0
  0
LINE
  5
3A9
330
17
100
AcDbEntity
  8
0
100
AcDbLine
 10
790.008
 20
717.313
 30
0.0
 11
791.04
 21
715.768
 31
0.0
  0
LINE
  5
3AA
330
17
100
AcDbEntity
  8
0
100
AcDbLine
 10
791.04
 20
715.768
 30
0.0
 11
791.402
 21
713.945
 31
0.0
  0
LINE
  5
3AB
330
17
100
AcDbEntity
  8
0
100
AcDbLine
 10
791.402
 20
713.945
 30
0.0
 11
791.04
 21
712.122
 31
0.0
  0
LINE
  5
3AC
330
17
100
AcDbEntity
  8
0
100
AcDbLine
 10
791.04
 20
712.122
 30
0.0
 11
790.008
 21
710.577
 31
0.0
  0
LINE
  5
3AD
330
17
100
AcDbEntity
  8
0
100
AcDbLine
 10
790.008
 20
710.577
 30
0.0
 11
788.463
 21
709.545
 31
0.0
  0
LINE
  5
3AE
330
17
100
AcDbEntity
  8
0
100
AcDbLine
 10
788.463
 20
709.545
 30
0.0
 11
786.64
 21
709.182
 31
0.0
  0
LINE
  5
3AF
330
17
100
AcDbEntity
  8
0
100
AcDbLine
 10
786.64
 20
709.182
 30
0.0
 11
784.817
 21
709.545
 31
0.0
  0
LINE
  5
3B0
330
17
100
AcDbEntity
  8
0
100
AcDbLine
 10
784.817
 20
709.545
 30
0.0
 11
783.272
 21
710.577
 31
0.0
  0
LINE
  5
3B1
330
17
100
AcDbEntity
  8
0
100
AcDbLine
 10
783.272
 20
710.577
 30
0.0
 11
782.24
 21
712.122
 31
0.0
  0
LINE
  5
3B2
330
17
100
AcDbEntity
  8
0
100
AcDbLine
 10
782.24
 20
712.122
 30
0.0
 11
781.877
 21
713.945
 31
0.0
  0
LINE
  5
3B3
330
17
100
AcDbEntity
  8
0
100
AcDbLine
 10
781.877
 20
781.255
 30
0.0
 11
782.24
 21
783.078
 31
0.0
  0
LINE
  5
3B4
330
17
100
AcDbEntity
  8
0
100
AcDbLine
 10
782.24
 20
783.078
 30
0.0
 11
783.272
 21
784.623
 31
0.0
  0
LINE
  5
3B5
330
17
100
AcDbEntity
  8
0
100
AcDbLine
 10
783.272
 20
784.623
 30
0.0
 11
784.817
 21
785.655
 31
0.0
  0
LINE
  5
3B6
330
17
100
AcDbEntity
  8
0
100
AcDbLine
 10
784.817
 20
785.655
 30
0.0
 11
786.64
 21
786.017
 31
0.0
  0
LINE
  5
3B7
330
17
100
AcDbEntity
  8
0
100
AcDbLine
 10
786.64
 20
786.017
 30
0.0
 11
788.463
 21
785.655
 31
0.0
  0
LINE
  5
3B8
330
17
100
AcDbEntity
  8
0
100
AcDbLine
 10
788.463
 20
785.655
 30
0.0
 11
790.008
 21
784.623
 31
0.0
  0
LINE
  5
3B9
330
17
100
AcDbEntity
  8
0
100
AcDbLine
 10
790.008
 20
784.623
 30
0.0
 11
791.04
 21
783.078
 31
0.0
  0
LINE
  5
3BA
330
17
100
AcDbEntity
  8
0
100
AcDbLine
 10
791.04
 20
783.078
 30
0.0
 11
791.402
 21
781.255
 31
0.0
  0
LINE
  5
3BB
330
17
100
AcDbEntity
  8
0
100
AcDbLine
 10
791.402
 20
781.255
 30
0.0
 11
791.04
 21
779.432
 31
0.0
  0
LINE
  5
3BC
330
17
100
AcDbEntity
  8
0
100
AcDbLine
 10
791.04
 20
779.432
 30
0.0
 11
790.008
 21
777.887
 31
0.0
  0
LINE
  5
3BD
330
17
100
AcDbEntity
  8
0
100
AcDbLine
 10
790.008
 20
777.887
 30
0.0
 11
788.463
 21
776.855
 31
0.0
  0
LINE
  5
3BE
330
17
100
AcDbEntity
  8
0
100
AcDbLine
 10
788.463
 20
776.855
 30
0.0
 11
786.64
 21
776.492
 31
0.0
  0
LINE
  5
3BF
330
17
100
AcDbEntity
  8
0
100
AcDbLine
 10
786.64
 20
776.492
 30
0.0
 11
784.817
 21
776.855
 31
0.0
  0
LINE
  5
3C0
330
17
100
AcDbEntity
  8
0
100
AcDbLine
 10
784.817
 20
776.855
 30
0.0
 11
783.272
 21
777.887
 31
0.0
  0
LINE
  5
3C1
330
17
100
AcDbEntity
  8
0
100
AcDbLine
 10
783.272
 20
777.887
 30
0.0
 11
782.24
 21
779.432
 31
0.0
  0
LINE
  5
3C2
330
17
100
AcDbEntity
  8
0
100
AcDbLine
 10
782.24
 20
779.432
 30
0.0
 11
781.877
 21
781.255
 31
0.0
  0
LINE
  5
3C3
330
17
100
AcDbEntity
  8
0
100
AcDbLine
 10
781.877
 20
856.82
 30
0.0
 11
782.24
 21
858.643
 31
0.0
  0
LINE
  5
3C4
330
17
100
AcDbEntity
  8
0
100
AcDbLine
 10
782.24
 20
858.643
 30
0.0
 11
783.272
 21
860.188
 31
0.0
  0
LINE
  5
3C5
330
17
100
AcDbEntity
  8
0
100
AcDbLine
 10
783.272
 20
860.188
 30
0.0
 11
784.817
 21
861.22
 31
0.0
  0
LINE
  5
3C6
330
17
100
AcDbEntity
  8
0
100
AcDbLine
 10
784.817
 20
861.22
 30
0.0
 11
786.64
 21
861.582
 31
0.0
  0
LINE
  5
3C7
330
17
100
AcDbEntity
  8
0
100
AcDbLine
 10
786.64
 20
861.582
 30
0.0
 11
788.463
 21
861.22
 31
0.0
  0
LINE
  5
3C8
330
17
100
AcDbEntity
  8
0
100
AcDbLine
 10
788.463
 20
861.22
 30
0.0
 11
790.008
 21
860.188
 31
0.0
  0
LINE
  5
3C9
330
17
100
AcDbEntity
  8
0
100
AcDbLine
 10
790.008
 20
860.188
 30
0.0
 11
791.04
 21
858.643
 31
0.0
  0
LINE
  5
3CA
330
17
100
AcDbEntity
  8
0
100
AcDbLine
 10
791.04
 20
858.643
 30
0.0
 11
791.402
 21
856.82
 31
0.0
  0
LINE
  5
3CB
330
17
100
AcDbEntity
  8
0
100
AcDbLine
 10
791.402
 20
856.82
 30
0.0
 11
791.04
 21
854.997
 31
0.0
  0
LINE
  5
3CC
330
17
100
AcDbEntity
  8
0
100
AcDbLine
 10
791.04
 20
854.997
 30
0.0
 11
790.008
 21
853.452
 31
0.0
  0
LINE
  5
3CD
330
17
100
AcDbEntity
  8
0
100
AcDbLine
 10
790.008
 20
853.452
 30
0.0
 11
788.463
 21
852.42
 31
0.0
  0
LINE
  5
3CE
330
17
100
AcDbEntity
  8
0
100
AcDbLine
 10
788.463
 20
852.42
 30
0.0
 11
786.64
 21
852.057
 31
0.0
  0
LINE
  5
3CF
330
17
100
AcDbEntity
  8
0
100
AcDbLine
 10
786.64
 20
852.057
 30
0.0
 11
784.817
 21
852.42
 31
0.0
  0
LINE
  5
3D0
330
17
100
AcDbEntity
  8
0
100
AcDbLine
 10
784.817
 20
852.42
 30
0.0
 11
783.272
 21
853.452
 31
0.0
  0
LINE
  5
3D1
330
17
100
AcDbEntity
  8
0
100
AcDbLine
 10
783.272
 20
853.452
 30
0.0
 11
782.24
 21
854.997
 31
0.0
  0
LINE
  5
3D2
330
17
100
AcDbEntity
  8
0
100
AcDbLine
 10
782.24
 20
854.997
 30
0.0
 11
781.877
 21
856.82
 31
0.0
  0
LINE
  5
3D3
330
17
100
AcDbEntity
  8
0
100
AcDbLine
 10
781.877
 20
930.48
 30
0.0
 11
782.24
 21
932.303
 31
0.0
  0
LINE
  5
3D4
330
17
100
AcDbEntity
  8
0
100
AcDbLine
 10
782.24
 20
932.303
 30
0.0
 11
783.272
 21
933.848
 31
0.0
  0
LINE
  5
3D5
330
17
100
AcDbEntity
  8
0
100
AcDbLine
 10
783.272
 20
933.848
 30
0.0
 11
784.817
 21
934.88
 31
0.0
  0
LINE
  5
3D6
330
17
100
AcDbEntity
  8
0
100
AcDbLine
 10
784.817
 20
934.88
 30
0.0
 11
786.64
 21
935.242
 31
0.0
  0
LINE
  5
3D7
330
17
100
AcDbEntity
  8
0
100
AcDbLine
 10
786.64
 20
935.242
 30
0.0
 11
788.463
 21
934.88
 31
0.0
  0
LINE
  5
3D8
330
17
100
AcDbEntity
  8
0
100
AcDbLine
 10
788.463
 20
934.88
 30
0.0
 11
790.008
 21
933.848
 31
0.0
  0
LINE
  5
3D9
330
17
100
AcDbEntity
  8
0
100
AcDbLine
 10
790.008
 20
933.848
 30
0.0
 11
791.04
 21
932.303
 31
0.0
  0
LINE
  5
3DA
330
17
100
AcDbEntity
  8
0
100
AcDbLine
 10
791.04
 20
932.303
 30
0.0
 11
791.402
 21
930.48
 31
0.0
  0
LINE
  5
3DB
330
17
100
AcDbEntity
  8
0
100
AcDbLine
 10
791.402
 20
930.48
 30
0.0
 11
791.04
 21
928.657
 31
0.0
  0
LINE
  5
3DC
330
17
100
AcDbEntity
  8
0
100
AcDbLine
 10
791.04
 20
928.657
 30
0.0
 11
790.008
 21
927.112
 31
0.0
  0
LINE
  5
3DD
330
17
100
AcDbEntity
  8
0
100
AcDbLine
 10
790.008
 20
927.112
 30
0.0
 11
788.463
 21
926.08
 31
0.0
  0
LINE
  5
3DE
330
17
100
AcDbEntity
  8
0
100
AcDbLine
 10
788.463
 20
926.08
 30
0.0
 11
786.64
 21
925.717
 31
0.0
  0
LINE
  5
3DF
330
17
100
AcDbEntity
  8
0
100
AcDbLine
 10
786.64
 20
925.717
 30
0.0
 11
784.817
 21
926.08
 31
0.0
  0
LINE
  5
3E0
330
17
100
AcDbEntity
  8
0
100
AcDbLine
 10
784.817
 20
926.08
 30
0.0
 11
783.272
 21
927.112
 31
0.0
  0
LINE
  5
3E1
330
17
100
AcDbEntity
  8
0
100
AcDbLine
 10
783.272
 20
927.112
 30
0.0
 11
782.24
 21
928.657
 31
0.0
  0
LINE
  5
3E2
330
17
100
AcDbEntity
  8
0
100
AcDbLine
 10
782.24
 20
928.657
 30
0.0
 11
781.877
 21
930.48
 31
0.0
  0
LINE
  5
3E3
330
17
100
AcDbEntity
  8
0
100
AcDbLine
 10
781.877
 20
989.52
 30
0.0
 11
782.24
 21
991.343
 31
0.0
  0
LINE
  5
3E4
330
17
100
AcDbEntity
  8
0
100
AcDbLine
 10
782.24
 20
991.343
 30
0.0
 11
783.272
 21
992.888
 31
0.0
  0
LINE
  5
3E5
330
17
100
AcDbEntity
  8
0
100
AcDbLine
 10
783.272
 20
992.888
 30
0.0
 11
784.817
 21
993.92
 31
0.0
  0
LINE
  5
3E6
330
17
100
AcDbEntity
  8
0
100
AcDbLine
 10
784.817
 20
993.92
 30
0.0
 11
786.64
 21
994.282
 31
0.0
  0
LINE
  5
3E7
330
17
100
AcDbEntity
  8
0
100
AcDbLine
 10
786.64
 20
994.282
 30
0.0
 11
788.463
 21
993.92
 31
0.0
  0
LINE
  5
3E8
330
17
100
AcDbEntity
  8
0
100
AcDbLine
 10
788.463
 20
993.92
 30
0.0
 11
790.008
 21
992.888
 31
0.0
  0
LINE
  5
3E9
330
17
100
AcDbEntity
  8
0
100
AcDbLine
 10
790.008
 20
992.888
 30
0.0
 11
791.04
 21
991.343
 31
0.0
  0
LINE
  5
3EA
330
17
100
AcDbEntity
  8
0
100
AcDbLine
 10
791.04
 20
991.343
 30
0.0
 11
791.402
 21
989.52
 31
0.0
  0
LINE
  5
3EB
330
17
100
AcDbEntity
  8
0
100
AcDbLine
 10
791.402
 20
989.52
 30
0.0
 11
791.04
 21
987.697
 31
0.0
  0
LINE
  5
3EC
330
17
100
AcDbEntity
  8
0
100
AcDbLine
 10
791.04
 20
987.697
 30
0.0
 11
790.008
 21
986.152
 31
0.0
  0
LINE
  5
3ED
330
17
100
AcDbEntity
  8
0
100
AcDbLine
 10
790.008
 20
986.152
 30
0.0
 11
788.463
 21
985.12
 31
0.0
  0
LINE
  5
3EE
330
17
100
AcDbEntity
  8
0
100
AcDbLine
 10
788.463
 20
985.12
 30
0.0
 11
786.64
 21
984.757
 31
0.0
  0
LINE
  5
3EF
330
17
100
AcDbEntity
  8
0
100
AcDbLine
 10
786.64
 20
984.757
 30
0.0
 11
784.817
 21
985.12
 31
0.0
  0
LINE
  5
3F0
330
17
100
AcDbEntity
  8
0
100
AcDbLine
 10
784.817
 20
985.12
 30
0.0
 11
783.272
 21
986.152
 31
0.0
  0
LINE
  5
3F1
330
17
100
AcDbEntity
  8
0
100
AcDbLine
 10
783.272
 20
986.152
 30
0.0
 11
782.24
 21
987.697
 31
0.0
  0
LINE
  5
3F2
330
17
100
AcDbEntity
  8
0
100
AcDbLine
 10
782.24
 20
987.697
 30
0.0
 11
781.877
 21
989.52
 31
0.0
  0
LINE
  5
3F3
330
17
100
AcDbEntity
  8
0
100
AcDbLine
 10
1118.84
 20
30.48
 30
0.0
 11
1119.2
 21
32.3025
 31
0.0
  0
LINE
  5
3F4
330
17
100
AcDbEntity
  8
0
100
AcDbLine
 10
1119.2
 20
32.3025
 30
0.0
 11
1120.23
 21
33.8476
 31
0.0
  0
LINE
  5
3F5
330
17
100
AcDbEntity
  8
0
100
AcDbLine
 10
1120.23
 20
33.8476
 30
0.0
 11
1121.78
 21
34.88
 31
0.0
  0
LINE
  5
3F6
330
17
100
AcDbEntity
  8
0
100
AcDbLine
 10
1121.78
 20
34.88
 30
0.0
 11
1123.6
 21
35.2425
 31
0.0
  0
LINE
  5
3F7
330
17
100
AcDbEntity
  8
0
100
AcDbLine
 10
1123.6
 20
35.2425
 30
0.0
 11
1125.42
 21
34.88
 31
0.0
  0
LINE
  5
3F8
330
17
100
AcDbEntity
  8
0
100
AcDbLine
 10
1125.42
 20
34.88
 30
0.0
 11
1126.97
 21
33.8476
 31
0.0
  0
LINE
  5
3F9
330
17
100
AcDbEntity
  8
0
100
AcDbLine
 10
1126.97
 20
33.8476
 30
0.0
 11
1128.0
 21
32.3025
 31
0.0
  0
LINE
  5
3FA
330
17
100
AcDbEntity
  8
0
100
AcDbLine
 10
1128.0
 20
32.3025
 30
0.0
 11
1128.36
 21
30.48
 31
0.0
  0
LINE
  5
3FB
330
17
100
AcDbEntity
  8
0
100
AcDbLine
 10
1128.36
 20
30.48
 30
0.0
 11
1128.0
 21
28.6575
 31
0.0
  0
LINE
  5
3FC
330
17
100
AcDbEntity
  8
0
100
AcDbLine
 10
1128.0
 20
28.6575
 30
0.0
 11
1126.97
 21
27.1124
 31
0.0
  0
LINE
  5
3FD
330
17
100
AcDbEntity
  8
0
100
AcDbLine
 10
1126.97
 20
27.1124
 30
0.0
 11
1125.42
 21
26.08
 31
0.0
  0
LINE
  5
3FE
330
17
100
AcDbEntity
  8
0
100
AcDbLine
 10
1125.42
 20
26.08
 30
0.0
 11
1123.6
 21
25.7175
 31
0.0
  0
LINE
  5
3FF
330
17
100
AcDbEntity
  8
0
100
AcDbLine
 10
1123.6
 20
25.7175
 30
0.0
 11
1121.78
 21
26.08
 31
0.0
  0
LINE
  5
400
330
17
100
AcDbEntity
  8
0
100
AcDbLine
 10
1121.78
 20
26.08
 30
0.0
 11
1120.23
 21
27.1124
 31
0.0
  0
LINE
  5
401
330
17
100
AcDbEntity
  8
0
100
AcDbLine
 10
1120.23
 20
27.1124
 30
0.0
 11
1119.2
 21
28.6575
 31
0.0
  0
LINE
  5
402
330
17
100
AcDbEntity
  8
0
100
AcDbLine
 10
1119.2
 20
28.6575
 30
0.0
 11
1118.84
 21
30.48
 31
0.0
  0
LINE
  5
403
330
17
100
AcDbEntity
  8
0
100
AcDbLine
 10
1118.84
 20
89.52
 30
0.0
 11
1119.2
 21
91.3425
 31
0.0
  0
LINE
  5
404
330
17
100
AcDbEntity
  8
0
100
AcDbLine
 10
1119.2
 20
91.3425
 30
0.0
 11
1120.23
 21
92.8876
 31
0.0
  0
LINE
  5
405
330
17
100
AcDbEntity
  8
0
100
AcDbLine
 10
1120.23
 20
92.8876
 30
0.0
 11
1121.78
 21
93.92
 31
0.0
  0
LINE
  5
406
330
17
100
AcDbEntity
  8
0
100
AcDbLine
 10
1121.78
 20
93.92
 30
0.0
 11
1123.6
 21
94.2825
 31
0.0
  0
LINE
  5
407
330
17
100
AcDbEntity
  8
0
100
AcDbLine
 10
1123.6
 20
94.2825
 30
0.0
 11
1125.42
 21
93.92
 31
0.0
  0
LINE
  5
408
330
17
100
AcDbEntity
  8
0
100
AcDbLine
 10
1125.42
 20
93.92
 30
0.0
 11
1126.97
 21
92.8876
 31
0.0
  0
LINE
  5
409
330
17
100
AcDbEntity
  8
0
100
AcDbLine
 10
1126.97
 20
92.8876
 30
0.0
 11
1128.0
 21
91.3425
 31
0.0
  0
LINE
  5
40A
330
17
100
AcDbEntity
  8
0
100
AcDbLine
 10
1128.0
 20
91.3425
 30
0.0
 11
1128.36
 21
89.52
 31
0.0
  0
LINE
  5
40B
330
17
100
AcDbEntity
  8
0
100
AcDbLine
 10
1128.36
 20
89.52
 30
0.0
 11
1128.0
 21
87.6975
 31
0.0
  0
LINE
  5
40C
330
17
100
AcDbEntity
  8
0
100
AcDbLine
 10
1128.0
 20
87.6975
 30
0.0
 11
1126.97
 21
86.1524
 31
0.0
  0
LINE
  5
40D
330
17
100
AcDbEntity
  8
0
100
AcDbLine
 10
1126.97
 20
86.1524
 30
0.0
 11
1125.42
 21
85.12
 31
0.0
  0
LINE
  5
40E
330
17
100
AcDbEntity
  8
0
100
AcDbLine
 10
1125.42
 20
85.12
 30
0.0
 11
1123.6
 21
84.7575
 31
0.0
  0
LINE
  5
40F
330
17
100
AcDbEntity
  8
0
100
AcDbLine
 10
1123.6
 20
84.7575
 30
0.0
 11
1121.78
 21
85.12
 31
0.0
  0
LINE
  5
410
330
17
100
AcDbEntity
  8
0
100
AcDbLine
 10
1121.78
 20
85.12
 30
0.0
 11
1120.23
 21
86.1524
 31
0.0
  0
LINE
  5
411
330
17
100
AcDbEntity
  8
0
100
AcDbLine
 10
1120.23
 20
86.1524
 30
0.0
 11
1119.2
 21
87.6975
 31
0.0
  0
LINE
  5
412
330
17
100
AcDbEntity
  8
0
100
AcDbLine
 10
1119.2
 20
87.6975
 30
0.0
 11
1118.84
 21
89.52
 31
0.0
  0
LINE
  5
413
330
17
100
AcDbEntity
  8
0
100
AcDbLine
 10
1118.84
 20
163.18
 30
0.0
 11
1119.2
 21
165.003
 31
0.0
  0
LINE
  5
414
330
17
100
AcDbEntity
  8
0
100
AcDbLine
 10
1119.2
 20
165.003
 30
0.0
 11
1120.23
 21
166.548
 31
0.0
  0
LINE
  5
415
330
17
100
AcDbEntity
  8
0
100
AcDbLine
 10
1120.23
 20
166.548
 30
0.0
 11
1121.78
 21
167.58
 31
0.0
  0
LINE
  5
416
330
17
100
AcDbEntity
  8
0
100
AcDbLine
 10
1121.78
 20
167.58
 30
0.0
 11
1123.6
 21
167.943
 31
0.0
  0
LINE
  5
417
330
17
100
AcDbEntity
  8
0
100
AcDbLine
 10
1123.6
 20
167.943
 30
0.0
 11
1125.42
 21
167.58
 31
0.0
  0
LINE
  5
418
330
17
100
AcDbEntity
  8
0
100
AcDbLine
 10
1125.42
 20
167.58
 30
0.0
 11
1126.97
 21
166.548
 31
0.0
  0
LINE
  5
419
330
17
100
AcDbEntity
  8
0
100
AcDbLine
 10
1126.97
 20
166.548
 30
0.0
 11
1128.0
 21
165.003
 31
0.0
  0
LINE
  5
41A
330
17
100
AcDbEntity
  8
0
100
AcDbLine
 10
1128.0
 20
165.003
 30
0.0
 11
1128.36
 21
163.18
 31
0.0
  0
LINE
  5
41B
330
17
100
AcDbEntity
  8
0
100
AcDbLine
 10
1128.36
 20
163.18
 30
0.0
 11
1128.0
 21
161.357
 31
0.0
  0
LINE
  5
41C
330
17
100
AcDbEntity
  8
0
100
AcDbLine
 10
1128.0
 20
161.357
 30
0.0
 11
1126.97
 21
159.812
 31
0.0
  0
LINE
  5
41D
330
17
100
AcDbEntity
  8
0
100
AcDbLine
 10
1126.97
 20
159.812
 30
0.0
 11
1125.42
 21
158.78
 31
0.0
  0
LINE
  5
41E
330
17
100
AcDbEntity
  8
0
100
AcDbLine
 10
1125.42
 20
158.78
 30
0.0
 11
1123.6
 21
158.418
 31
0.0
  0
LINE
  5
41F
330
17
100
AcDbEntity
  8
0
100
AcDbLine
 10
1123.6
 20
158.418
 30
0.0
 11
1121.78
 21
158.78
 31
0.0
  0
LINE
  5
420
330
17
100
AcDbEntity
  8
0
100
AcDbLine
 10
1121.78
 20
158.78
 30
0.0
 11
1120.23
 21
159.812
 31
0.0
  0
LINE
  5
421
330
17
100
AcDbEntity
  8
0
100
AcDbLine
 10
1120.23
 20
159.812
 30
0.0
 11
1119.2
 21
161.357
 31
0.0
  0
LINE
  5
422
330
17
100
AcDbEntity
  8
0
100
AcDbLine
 10
1119.2
 20
161.357
 30
0.0
 11
1118.84
 21
163.18
 31
0.0
  0
LINE
  5
423
330
17
100
AcDbEntity
  8
0
100
AcDbLine
 10
1118.84
 20
238.745
 30
0.0
 11
1119.2
 21
240.568
 31
0.0
  0
LINE
  5
424
330
17
100
AcDbEntity
  8
0
100
AcDbLine
 10
1119.2
 20
240.568
 30
0.0
 11
1120.23
 21
242.113
 31
0.0
  0
LINE
  5
425
330
17
100
AcDbEntity
  8
0
100
AcDbLine
 10
1120.23
 20
242.113
 30
0.0
 11
1121.78
 21
243.145
 31
0.0
  0
LINE
  5
426
330
17
100
AcDbEntity
  8
0
100
AcDbLine
 10
1121.78
 20
243.145
 30
0.0
 11
1123.6
 21
243.508
 31
0.0
  0
LINE
  5
427
330
17
100
AcDbEntity
  8
0
100
AcDbLine
 10
1123.6
 20
243.508
 30
0.0
 11
1125.42
 21
243.145
 31
0.0
  0
LINE
  5
428
330
17
100
AcDbEntity
  8
0
100
AcDbLine
 10
1125.42
 20
243.145
 30
0.0
 11
1126.97
 21
242.113
 31
0.0
  0
LINE
  5
429
330
17
100
AcDbEntity
  8
0
100
AcDbLine
 10
1126.97
 20
242.113
 30
0.0
 11
1128.0
 21
240.568
 31
0.0
  0
LINE
  5
42A
330
17
100
AcDbEntity
  8
0
100
AcDbLine
 10
1128.0
 20
240.568
 30
0.0
 11
1128.36
 21
238.745
 31
0.0
  0
LINE
  5
42B
330
17
100
AcDbEntity
  8
0
100
AcDbLine
 10
1128.36
 20
238.745
 30
0.0
 11
1128.0
 21
236.922
 31
0.0
  0
LINE
  5
42C
330
17
100
AcDbEntity
  8
0
100
AcDbLine
 10
1128.0
 20
236.922
 30
0.0
 11
1126.97
 21
235.377
 31
0.0
  0
LINE
  5
42D
330
17
100
AcDbEntity
  8
0
100
AcDbLine
 10
1126.97
 20
235.377
 30
0.0
 11
1125.42
 21
234.345
 31
0.0
  0
LINE
  5
42E
330
17
100
AcDbEntity
  8
0
100
AcDbLine
 10
1125.42
 20
234.345
 30
0.0
 11
1123.6
 21
233.983
 31
0.0
  0
LINE
  5
42F
330
17
100
AcDbEntity
  8
0
100
AcDbLine
 10
1123.6
 20
233.983
 30
0.0
 11
1121.78
 21
234.345
 31
0.0
  0
LINE
  5
430
330
17
100
AcDbEntity
  8
0
100
AcDbLine
 10
1121.78
 20
234.345
 30
0.0
 11
1120.23
 21
235.377
 31
0.0
  0
LINE
  5
431
330
17
100
AcDbEntity
  8
0
100
AcDbLine
 10
1120.23
 20
235.377
 30
0.0
 11
1119.2
 21
236.922
 31
0.0
  0
LINE
  5
432
330
17
100
AcDbEntity
  8
0
100
AcDbLine
 10
1119.2
 20
236.922
 30
0.0
 11
1118.84
 21
238.745
 31
0.0
  0
LINE
  5
433
330
17
100
AcDbEntity
  8
0
100
AcDbLine
 10
1118.84
 20
306.055
 30
0.0
 11
1119.2
 21
307.878
 31
0.0
  0
LINE
  5
434
330
17
100
AcDbEntity
  8
0
100
AcDbLine
 10
1119.2
 20
307.878
 30
0.0
 11
1120.23
 21
309.423
 31
0.0
  0
LINE
  5
435
330
17
100
AcDbEntity
  8
0
100
AcDbLine
 10
1120.23
 20
309.423
 30
0.0
 11
1121.78
 21
310.455
 31
0.0
  0
LINE
  5
436
330
17
100
AcDbEntity
  8
0
100
AcDbLine
 10
1121.78
 20
310.455
 30
0.0
 11
1123.6
 21
310.818
 31
0.0
  0
LINE
  5
437
330
17
100
AcDbEntity
  8
0
100
AcDbLine
 10
1123.6
 20
310.818
 30
0.0
 11
1125.42
 21
310.455
 31
0.0
  0
LINE
  5
438
330
17
100
AcDbEntity
  8
0
100
AcDbLine
 10
1125.42
 20
310.455
 30
0.0
 11
1126.97
 21
309.423
 31
0.0
  0
LINE
  5
439
330
17
100
AcDbEntity
  8
0
100
AcDbLine
 10
1126.97
 20
309.423
 30
0.0
 11
1128.0
 21
307.878
 31
0.0
  0
LINE
  5
43A
330
17
100
AcDbEntity
  8
0
100
AcDbLine
 10
1128.0
 20
307.878
 30
0.0
 11
1128.36
 21
306.055
 31
0.0
  0
LINE
  5
43B
330
17
100
AcDbEntity
  8
0
100
AcDbLine
 10
1128.36
 20
306.055
 30
0.0
 11
1128.0
 21
304.232
 31
0.0
  0
LINE
  5
43C
330
17
100
AcDbEntity
  8
0
100
AcDbLine
 10
1128.0
 20
304.232
 30
0.0
 11
1126.97
 21
302.687
 31
0.0
  0
LINE
  5
43D
330
17
100
AcDbEntity
  8
0
100
AcDbLine
 10
1126.97
 20
302.687
 30
0.0
 11
1125.42
 21
301.655
 31
0.0
  0
LINE
  5
43E
330
17
100
AcDbEntity
  8
0
100
AcDbLine
 10
1125.42
 20
301.655
 30
0.0
 11
1123.6
 21
301.293
 31
0.0
  0
LINE
  5
43F
330
17
100
AcDbEntity
  8
0
100
AcDbLine
 10
1123.6
 20
301.293
 30
0.0
 11
1121.78
 21
301.655
 31
0.0
  0
LINE
  5
440
330
17
100
AcDbEntity
  8
0
100
AcDbLine
 10
1121.78
 20
301.655
 30
0.0
 11
1120.23
 21
302.687
 31
0.0
  0
LINE
  5
441
330
17
100
AcDbEntity
  8
0
100
AcDbLine
 10
1120.23
 20
302.687
 30
0.0
 11
1119.2
 21
304.232
 31
0.0
  0
LINE
  5
442
330
17
100
AcDbEntity
  8
0
100
AcDbLine
 10
1119.2
 20
304.232
 30
0.0
 11
1118.84
 21
306.055
 31
0.0
  0
LINE
  5
443
330
17
100
AcDbEntity
  8
0
100
AcDbLine
 10
1118.84
 20
713.945
 30
0.0
 11
1119.2
 21
715.768
 31
0.0
  0
LINE
  5
444
330
17
100
AcDbEntity
  8
0
100
AcDbLine
 10
1119.2
 20
715.768
 30
0.0
 11
1120.23
 21
717.313
 31
0.0
  0
LINE
  5
445
330
17
100
AcDbEntity
  8
0
100
AcDbLine
 10
1120.23
 20
717.313
 30
0.0
 11
1121.78
 21
718.345
 31
0.0
  0
LINE
  5
446
330
17
100
AcDbEntity
  8
0
100
AcDbLine
 10
1121.78
 20
718.345
 30
0.0
 11
1123.6
 21
718.707
 31
0.0
  0
LINE
  5
447
330
17
100
AcDbEntity
  8
0
100
AcDbLine
 10
1123.6
 20
718.707
 30
0.0
 11
1125.42
 21
718.345
 31
0.0
  0
LINE
  5
448
330
17
100
AcDbEntity
  8
0
100
AcDbLine
 10
1125.42
 20
718.345
 30
0.0
 11
1126.97
 21
717.313
 31
0.0
  0
LINE
  5
449
330
17
100
AcDbEntity
  8
0
100
AcDbLine
 10
1126.97
 20
717.313
 30
0.0
 11
1128.0
 21
715.768
 31
0.0
  0
LINE
  5
44A
330
17
100
AcDbEntity
  8
0
100
AcDbLine
 10
1128.0
 20
715.768
 30
0.0
 11
1128.36
 21
713.945
 31
0.0
  0
LINE
  5
44B
330
17
100
AcDbEntity
  8
0
100
AcDbLine
 10
1128.36
 20
713.945
 30
0.0
 11
1128.0
 21
712.122
 31
0.0
  0
LINE
  5
44C
330
17
100
AcDbEntity
  8
0
100
AcDbLine
 10
1128.0
 20
712.122
 30
0.0
 11
1126.97
 21
710.577
 31
0.0
  0
LINE
  5
44D
330
17
100
AcDbEntity
  8
0
100
AcDbLine
 10
1126.97
 20
710.577
 30
0.0
 11
1125.42
 21
709.545
 31
0.0
  0
LINE
  5
44E
330
17
100
AcDbEntity
  8
0
100
AcDbLine
 10
1125.42
 20
709.545
 30
0.0
 11
1123.6
 21
709.182
 31
0.0
  0
LINE
  5
44F
330
17
100
AcDbEntity
  8
0
100
AcDbLine
 10
1123.6
 20
709.182
 30
0.0
 11
1121.78
 21
709.545
 31
0.0
  0
LINE
  5
450
330
17
100
AcDbEntity
  8
0
100
AcDbLine
 10
1121.78
 20
709.545
 30
0.0
 11
1120.23
 21
710.577
 31
0.0
  0
LINE
  5
451
330
17
100
AcDbEntity
  8
0
100
AcDbLine
 10
1120.23
 20
710.577
 30
0.0
 11
1119.2
 21
712.122
 31
0.0
  0
LINE
  5
452
330
17
100
AcDbEntity
  8
0
100
AcDbLine
 10
1119.2
 20
712.122
 30
0.0
 11
1118.84
 21
713.945
 31
0.0
  0
LINE
  5
453
330
17
100
AcDbEntity
  8
0
100
AcDbLine
 10
1118.84
 20
781.255
 30
0.0
 11
1119.2
 21
783.078
 31
0.0
  0
LINE
  5
454
330
17
100
AcDbEntity
  8
0
100
AcDbLine
 10
1119.2
 20
783.078
 30
0.0
 11
1120.23
 21
784.623
 31
0.0
  0
LINE
  5
455
330
17
100
AcDbEntity
  8
0
100
AcDbLine
 10
1120.23
 20
784.623
 30
0.0
 11
1121.78
 21
785.655
 31
0.0
  0
LINE
  5
456
330
17
100
AcDbEntity
  8
0
100
AcDbLine
 10
1121.78
 20
785.655
 30
0.0
 11
1123.6
 21
786.017
 31
0.0
  0
LINE
  5
457
330
17
100
AcDbEntity
  8
0
100
AcDbLine
 10
1123.6
 20
786.017
 30
0.0
 11
1125.42
 21
785.655
 31
0.0
  0
LINE
  5
458
330
17
100
AcDbEntity
  8
0
100
AcDbLine
 10
1125.42
 20
785.655
 30
0.0
 11
1126.97
 21
784.623
 31
0.0
  0
LINE
  5
459
330
17
100
AcDbEntity
  8
0
100
AcDbLine
 10
1126.97
 20
784.623
 30
0.0
 11
1128.0
 21
783.078
 31
0.0
  0
LINE
  5
45A
330
17
100
AcDbEntity
  8
0
100
AcDbLine
 10
1128.0
 20
783.078
 30
0.0
 11
1128.36
 21
781.255
 31
0.0
  0
LINE
  5
45B
330
17
100
AcDbEntity
  8
0
100
AcDbLine
 10
1128.36
 20
781.255
 30
0.0
 11
1128.0
 21
779.432
 31
0.0
  0
LINE
  5
45C
330
17
100
AcDbEntity
  8
0
100
AcDbLine
 10
1128.0
 20
779.432
 30
0.0
 11
1126.97
 21
777.887
 31
0.0
  0
LINE
  5
45D
330
17
100
AcDbEntity
  8
0
100
AcDbLine
 10
1126.97
 20
777.887
 30
0.0
 11
1125.42
 21
776.855
 31
0.0
  0
LINE
  5
45E
330
17
100
AcDbEntity
  8
0
100
AcDbLine
 10
1125.42
 20
776.855
 30
0.0
 11
1123.6
 21
776.492
 31
0.0
  0
LINE
  5
45F
330
17
100
AcDbEntity
  8
0
100
AcDbLine
 10
1123.6
 20
776.492
 30
0.0
 11
1121.78
 21
776.855
 31
0.0
  0
LINE
  5
460
330
17
100
AcDbEntity
  8
0
100
AcDbLine
 10
1121.78
 20
776.855
 30
0.0
 11
1120.23
 21
777.887
 31
0.0
  0
LINE
  5
461
330
17
100
AcDbEntity
  8
0
100
AcDbLine
 10
1120.23
 20
777.887
 30
0.0
 11
1119.2
 21
779.432
 31
0.0
  0
LINE
  5
462
330
17
100
AcDbEntity
  8
0
100
AcDbLine
 10
1119.2
 20
779.432
 30
0.0
 11
1118.84
 21
781.255
 31
0.0
  0
LINE
  5
463
330
17
100
AcDbEntity
  8
0
100
AcDbLine
 10
1118.84
 20
856.82
 30
0.0
 11
1119.2
 21
858.643
 31
0.0
  0
LINE
  5
464
330
17
100
AcDbEntity
  8
0
100
AcDbLine
 10
1119.2
 20
858.643
 30
0.0
 11
1120.23
 21
860.188
 31
0.0
  0
LINE
  5
465
330
17
100
AcDbEntity
  8
0
100
AcDbLine
 10
1120.23
 20
860.188
 30
0.0
 11
1121.78
 21
861.22
 31
0.0
  0
LINE
  5
466
330
17
100
AcDbEntity
  8
0
100
AcDbLine
 10
1121.78
 20
861.22
 30
0.0
 11
1123.6
 21
861.582
 31
0.0
  0
LINE
  5
467
330
17
100
AcDbEntity
  8
0
100
AcDbLine
 10
1123.6
 20
861.582
 30
0.0
 11
1125.42
 21
861.22
 31
0.0
  0
LINE
  5
468
330
17
100
AcDbEntity
  8
0
100
AcDbLine
 10
1125.42
 20
861.22
 30
0.0
 11
1126.97
 21
860.188
 31
0.0
  0
LINE
  5
469
330
17
100
AcDbEntity
  8
0
100
AcDbLine
 10
1126.97
 20
860.188
 30
0.0
 11
1128.0
 21
858.643
 31
0.0
  0
LINE
  5
46A
330
17
100
AcDbEntity
  8
0
100
AcDbLine
 10
1128.0
 20
858.643
 30
0.0
 11
1128.36
 21
856.82
 31
0.0
  0
LINE
  5
46B
330
17
100
AcDbEntity
  8
0
100
AcDbLine
 10
1128.36
 20
856.82
 30
0.0
 11
1128.0
 21
854.997
 31
0.0
  0
LINE
  5
46C
330
17
100
AcDbEntity
  8
0
100
AcDbLine
 10
1128.0
 20
854.997
 30
0.0
 11
1126.97
 21
853.452
 31
0.0
  0
LINE
  5
46D
330
17
100
AcDbEntity
  8
0
100
AcDbLine
 10
1126.97
 20
853.452
 30
0.0
 11
1125.42
 21
852.42
 31
0.0
  0
LINE
  5
46E
330
17
100
AcDbEntity
  8
0
100
AcDbLine
 10
1125.42
 20
852.42
 30
0.0
 11
1123.6
 21
852.057
 31
0.0
  0
LINE
  5
46F
330
17
100
AcDbEntity
  8
0
100
AcDbLine
 10
1123.6
 20
852.057
 30
0.0
 11
1121.78
 21
852.42
 31
0.0
  0
LINE
  5
470
330
17
100
AcDbEntity
  8
0
100
AcDbLine
 10
1121.78
 20
852.42
 30
0.0
 11
1120.23
 21
853.452
 31
0.0
  0
LINE
  5
471
330
17
100
AcDbEntity
  8
0
100
AcDbLine
 10
1120.23
 20
853.452
 30
0.0
 11
1119.2
 21
854.997
 31
0.0
  0
LINE
  5
472
330
17
100
AcDbEntity
  8
0
100
AcDbLine
 10
1119.2
 20
854.997
 30
0.0
 11
1118.84
 21
856.82
 31
0.0
  0
LINE
  5
473
330
17
100
AcDbEntity
  8
0
100
AcDbLine
 10
1118.84
 20
930.48
 30
0.0
 11
1119.2
 21
932.303
 31
0.0
  0
LINE
  5
474
330
17
100
AcDbEntity
  8
0
100
AcDbLine
 10
1119.2
 20
932.303
 30
0.0
 11
1120.23
 21
933.848
 31
0.0
  0
LINE
  5
475
330
17
100
AcDbEntity
  8
0
100
AcDbLine
 10
1120.23
 20
933.848
 30
0.0
 11
1121.78
 21
934.88
 31
0.0
  0
LINE
  5
476
330
17
100
AcDbEntity
  8
0
100
AcDbLine
 10
1121.78
 20
934.88
 30
0.0
 11
1123.6
 21
935.242
 31
0.0
  0
LINE
  5
477
330
17
100
AcDbEntity
  8
0
100
AcDbLine
 10
1123.6
 20
935.242
 30
0.0
 11
1125.42
 21
934.88
 31
0.0
  0
LINE
  5
478
330
17
100
AcDbEntity
  8
0
100
AcDbLine
 10
1125.42
 20
934.88
 30
0.0
 11
1126.97
 21
933.848
 31
0.0
  0
LINE
  5
479
330
17
100
AcDbEntity
  8
0
100
AcDbLine
 10
1126.97
 20
933.848
 30
0.0
 11
1128.0
 21
932.303
 31
0.0
  0
LINE
  5
47A
330
17
100
AcDbEntity
  8
0
100
AcDbLine
 10
1128.0
 20
932.303
 30
0.0
 11
1128.36
 21
930.48
 31
0.0
  0
LINE
  5
47B
330
17
100
AcDbEntity
  8
0
100
AcDbLine
 10
1128.36
 20
930.48
 30
0.0
 11
1128.0
 21
928.657
 31
0.0
  0
LINE
  5
47C
330
17
100
AcDbEntity
  8
0
100
AcDbLine
 10
1128.0
 20
928.657
 30
0.0
 11
1126.97
 21
927.112
 31
0.0
  0
LINE
  5
47D
330
17
100
AcDbEntity
  8
0
100
AcDbLine
 10
1126.97
 20
927.112
 30
0.0
 11
1125.42
 21
926.08
 31
0.0
  0
LINE
  5
47E
330
17
100
AcDbEntity
  8
0
100
AcDbLine
 10
1125.42
 20
926.08
 30
0.0
 11
1123.6
 21
925.717
 31
0.0
  0
LINE
  5
47F
330
17
100
AcDbEntity
  8
0
100
AcDbLine
 10
1123.6
 20
925.717
 30
0.0
 11
1121.78
 21
926.08
 31
0.0
  0
LINE
  5
480
330
17
100
AcDbEntity
  8
0
100
AcDbLine
 10
1121.78
 20
926.08
 30
0.0
 11
1120.23
 21
927.112
 31
0.0
  0
LINE
  5
481
330
17
100
AcDbEntity
  8
0
100
AcDbLine
 10
1120.23
 20
927.112
 30
0.0
 11
1119.2
 21
928.657
 31
0.0
  0
LINE
  5
482
330
17
100
AcDbEntity
  8
0
100
AcDbLine
 10
1119.2
 20
928.657
 30
0.0
 11
1118.84
 21
930.48
 31
0.0
  0
LINE
  5
483
330
17
100
AcDbEntity
  8
0
100
AcDbLine
 10
1118.84
 20
989.52
 30
0.0
 11
1119.2
 21
991.343
 31
0.0
  0
LINE
  5
484
330
17
100
AcDbEntity
  8
0
100
AcDbLine
 10
1119.2
 20
991.343
 30
0.0
 11
1120.23
 21
992.888
 31
0.0
  0
LINE
  5
485
330
17
100
AcDbEntity
  8
0
100
AcDbLine
 10
1120.23
 20
992.888
 30
0.0
 11
1121.78
 21
993.92
 31
0.0
  0
LINE
  5
486
330
17
100
AcDbEntity
  8
0
100
AcDbLine
 10
1121.78
 20
993.92
 30
0.0
 11
1123.6
 21
994.282
 31
0.0
  0
LINE
  5
487
330
17
100
AcDbEntity
  8
0
100
AcDbLine
 10
1123.6
 20
994.282
 30
0.0
 11
1125.42
 21
993.92
 31
0.0
  0
LINE
  5
488
330
17
100
AcDbEntity
  8
0
100
AcDbLine
 10
1125.42
 20
993.92
 30
0.0
 11
1126.97
 21
992.888
 31
0.0
  0
LINE
  5
489
330
17
100
AcDbEntity
  8
0
100
AcDbLine
 10
1126.97
 20
992.888
 30
0.0
 11
1128.0
 21
991.343
 31
0.0
  0
LINE
  5
48A
330
17
100
AcDbEntity
  8
0
100
AcDbLine
 10
1128.0
 20
991.343
 30
0.0
 11
1128.36
 21
989.52
 31
0.0
  0
LINE
  5
48B
330
17
100
AcDbEntity
  8
0
100
AcDbLine
 10
1128.36
 20
989.52
 30
0.0
 11
1128.0
 21
987.697
 31
0.0
  0
LINE
  5
48C
330
17
100
AcDbEntity
  8
0
100
AcDbLine
 10
1128.0
 20
987.697
 30
0.0
 11
1126.97
 21
986.152
 31
0.0
  0
LINE
  5
48D
330
17
100
AcDbEntity
  8
0
100
AcDbLine
 10
1126.97
 20
986.152
 30
0.0
 11
1125.42
 21
985.12
 31
0.0
  0
LINE
  5
48E
330
17
100
AcDbEntity
  8
0
100
AcDbLine
 10
1125.42
 20
985.12
 30
0.0
 11
1123.6
 21
984.757
 31
0.0
  0
LINE
  5
48F
330
17
100
AcDbEntity
  8
0
100
AcDbLine
 10
1123.6
 20
984.757
 30
0.0
 11
1121.78
 21
985.12
 31
0.0
  0
LINE
  5
490
330
17
100
AcDbEntity
  8
0
100
AcDbLine
 10
1121.78
 20
985.12
 30
0.0
 11
1120.23
 21
986.152
 31
0.0
  0
LINE
  5
491
330
17
100
AcDbEntity
  8
0
100
AcDbLine
 10
1120.23
 20
986.152
 30
0.0
 11
1119.2
 21
987.697
 31
0.0
  0
LINE
  5
492
330
17
100
AcDbEntity
  8
0
100
AcDbLine
 10
1119.2
 20
987.697
 30
0.0
 11
1118.84
 21
989.52
 31
0.0
  0
LINE
  5
493
330
17
100
AcDbEntity
  8
0
100
AcDbLine
 10
1167.64
 20
30.48
 30
0.0
 11
1168.0
 21
32.3025
 31
0.0
  0
LINE
  5
494
330
17
100
AcDbEntity
  8
0
100
AcDbLine
 10
1168.0
 20
32.3025
 30
0.0
 11
1169.03
 21
33.8476
 31
0.0
  0
LINE
  5
495
330
17
100
AcDbEntity
  8
0
100
AcDbLine
 10
1169.03
 20
33.8476
 30
0.0
 11
1170.58
 21
34.88
 31
0.0
  0
LINE
  5
496
330
17
100
AcDbEntity
  8
0
100
AcDbLine
 10
1170.58
 20
34.88
 30
0.0
 11
1172.4
 21
35.2425
 31
0.0
  0
LINE
  5
497
330
17
100
AcDbEntity
  8
0
100
AcDbLine
 10
1172.4
 20
35.2425
 30
0.0
 11
1174.22
 21
34.88
 31
0.0
  0
LINE
  5
498
330
17
100
AcDbEntity
  8
0
100
AcDbLine
 10
1174.22
 20
34.88
 30
0.0
 11
1175.77
 21
33.8476
 31
0.0
  0
LINE
  5
499
330
17
100
AcDbEntity
  8
0
100
AcDbLine
 10
1175.77
 20
33.8476
 30
0.0
 11
1176.8
 21
32.3025
 31
0.0
  0
LINE
  5
49A
330
17
100
AcDbEntity
  8
0
100
AcDbLine
 10
1176.8
 20
32.3025
 30
0.0
 11
1177.16
 21
30.48
 31
0.0
  0
LINE
  5
49B
330
17
100
AcDbEntity
  8
0
100
AcDbLine
 10
1177.16
 20
30.48
 30
0.0
 11
1176.8
 21
28.6575
 31
0.0
  0
LINE
  5
49C
330
17
100
AcDbEntity
  8
0
100
AcDbLine
 10
1176.8
 20
28.6575
 30
0.0
 11
1175.77
 21
27.1124
 31
0.0
  0
LINE
  5
49D
330
17
100
AcDbEntity
  8
0
100
AcDbLine
 10
1175.77
 20
27.1124
 30
0.0
 11
1174.22
 21
26.08
 31
0.0
  0
LINE
  5
49E
330
17
100
AcDbEntity
  8
0
100
AcDbLine
 10
1174.22
 20
26.08
 30
0.0
 11
1172.4
 21
25.7175
 31
0.0
  0
LINE
  5
49F
330
17
100
AcDbEntity
  8
0
100
AcDbLine
 10
1172.4
 20
25.7175
 30
0.0
 11
1170.58
 21
26.08
 31
0.0
  0
LINE
  5
4A0
330
17
100
AcDbEntity
  8
0
100
AcDbLine
 10
1170.58
 20
26.08
 30
0.0
 11
1169.03
 21
27.1124
 31
0.0
  0
LINE
  5
4A1
330
17
100
AcDbEntity
  8
0
100
AcDbLine
 10
1169.03
 20
27.1124
 30
0.0
 11
1168.0
 21
28.6575
 31
0.0
  0
LINE
  5
4A2
330
17
100
AcDbEntity
  8
0
100
AcDbLine
 10
1168.0
 20
28.6575
 30
0.0
 11
1167.64
 21
30.48
 31
0.0
  0
LINE
  5
4A3
330
17
100
AcDbEntity
  8
0
100
AcDbLine
 10
1167.64
 20
89.52
 30
0.0
 11
1168.0
 21
91.3425
 31
0.0
  0
LINE
  5
4A4
330
17
100
AcDbEntity
  8
0
100
AcDbLine
 10
1168.0
 20
91.3425
 30
0.0
 11
1169.03
 21
92.8876
 31
0.0
  0
LINE
  5
4A5
330
17
100
AcDbEntity
  8
0
100
AcDbLine
 10
1169.03
 20
92.8876
 30
0.0
 11
1170.58
 21
93.92
 31
0.0
  0
LINE
  5
4A6
330
17
100
AcDbEntity
  8
0
100
AcDbLine
 10
1170.58
 20
93.92
 30
0.0
 11
1172.4
 21
94.2825
 31
0.0
  0
LINE
  5
4A7
330
17
100
AcDbEntity
  8
0
100
AcDbLine
 10
1172.4
 20
94.2825
 30
0.0
 11
1174.22
 21
93.92
 31
0.0
  0
LINE
  5
4A8
330
17
100
AcDbEntity
  8
0
100
AcDbLine
 10
1174.22
 20
93.92
 30
0.0
 11
1175.77
 21
92.8876
 31
0.0
  0
LINE
  5
4A9
330
17
100
AcDbEntity
  8
0
100
AcDbLine
 10
1175.77
 20
92.8876
 30
0.0
 11
1176.8
 21
91.3425
 31
0.0
  0
LINE
  5
4AA
330
17
100
AcDbEntity
  8
0
100
AcDbLine
 10
1176.8
 20
91.3425
 30
0.0
 11
1177.16
 21
89.52
 31
0.0
  0
LINE
  5
4AB
330
17
100
AcDbEntity
  8
0
100
AcDbLine
 10
1177.16
 20
89.52
 30
0.0
 11
1176.8
 21
87.6975
 31
0.0
  0
LINE
  5
4AC
330
17
100
AcDbEntity
  8
0
100
AcDbLine
 10
1176.8
 20
87.6975
 30
0.0
 11
1175.77
 21
86.1524
 31
0.0
  0
LINE
  5
4AD
330
17
100
AcDbEntity
  8
0
100
AcDbLine
 10
1175.77
 20
86.1524
 30
0.0
 11
1174.22
 21
85.12
 31
0.0
  0
LINE
  5
4AE
330
17
100
AcDbEntity
  8
0
100
AcDbLine
 10
1174.22
 20
85.12
 30
0.0
 11
1172.4
 21
84.7575
 31
0.0
  0
LINE
  5
4AF
330
17
100
AcDbEntity
  8
0
100
AcDbLine
 10
1172.4
 20
84.7575
 30
0.0
 11
1170.58
 21
85.12
 31
0.0
  0
LINE
  5
4B0
330
17
100
AcDbEntity
  8
0
100
AcDbLine
 10
1170.58
 20
85.12
 30
0.0
 11
1169.03
 21
86.1524
 31
0.0
  0
LINE
  5
4B1
330
17
100
AcDbEntity
  8
0
100
AcDbLine
 10
1169.03
 20
86.1524
 30
0.0
 11
1168.0
 21
87.6975
 31
0.0
  0
LINE
  5
4B2
330
17
100
AcDbEntity
  8
0
100
AcDbLine
 10
1168.0
 20
87.6975
 30
0.0
 11
1167.64
 21
89.52
 31
0.0
  0
LINE
  5
4B3
330
17
100
AcDbEntity
  8
0
100
AcDbLine
 10
1167.64
 20
163.18
 30
0.0
 11
1168.0
 21
165.003
 31
0.0
  0
LINE
  5
4B4
330
17
100
AcDbEntity
  8
0
100
AcDbLine
 10
1168.0
 20
165.003
 30
0.0
 11
1169.03
 21
166.548
 31
0.0
  0
LINE
  5
4B5
330
17
100
AcDbEntity
  8
0
100
AcDbLine
 10
1169.03
 20
166.548
 30
0.0
 11
1170.58
 21
167.58
 31
0.0
  0
LINE
  5
4B6
330
17
100
AcDbEntity
  8
0
100
AcDbLine
 10
1170.58
 20
167.58
 30
0.0
 11
1172.4
 21
167.943
 31
0.0
  0
LINE
  5
4B7
330
17
100
AcDbEntity
  8
0
100
AcDbLine
 10
1172.4
 20
167.943
 30
0.0
 11
1174.22
 21
167.58
 31
0.0
  0
LINE
  5
4B8
330
17
100
AcDbEntity
  8
0
100
AcDbLine
 10
1174.22
 20
167.58
 30
0.0
 11
1175.77
 21
166.548
 31
0.0
  0
LINE
  5
4B9
330
17
100
AcDbEntity
  8
0
100
AcDbLine
 10
1175.77
 20
166.548
 30
0.0
 11
1176.8
 21
165.003
 31
0.0
  0
LINE
  5
4BA
330
17
100
AcDbEntity
  8
0
100
AcDbLine
 10
1176.8
 20
165.003
 30
0.0
 11
1177.16
 21
163.18
 31
0.0
  0
LINE
  5
4BB
330
17
100
AcDbEntity
  8
0
100
AcDbLine
 10
1177.16
 20
163.18
 30
0.0
 11
1176.8
 21
161.357
 31
0.0
  0
LINE
  5
4BC
330
17
100
AcDbEntity
  8
0
100
AcDbLine
 10
1176.8
 20
161.357
 30
0.0
 11
1175.77
 21
159.812
 31
0.0
  0
LINE
  5
4BD
330
17
100
AcDbEntity
  8
0
100
AcDbLine
 10
1175.77
 20
159.812
 30
0.0
 11
1174.22
 21
158.78
 31
0.0
  0
LINE
  5
4BE
330
17
100
AcDbEntity
  8
0
100
AcDbLine
 10
1174.22
 20
158.78
 30
0.0
 11
1172.4
 21
158.418
 31
0.0
  0
LINE
  5
4BF
330
17
100
AcDbEntity
  8
0
100
AcDbLine
 10
1172.4
 20
158.418
 30
0.0
 11
1170.58
 21
158.78
 31
0.0
  0
LINE
  5
4C0
330
17
100
AcDbEntity
  8
0
100
AcDbLine
 10
1170.58
 20
158.78
 30
0.0
 11
1169.03
 21
159.812
 31
0.0
  0
LINE
  5
4C1
330
17
100
AcDbEntity
  8
0
100
AcDbLine
 10
1169.03
 20
159.812
 30
0.0
 11
1168.0
 21
161.357
 31
0.0
  0
LINE
  5
4C2
330
17
100
AcDbEntity
  8
0
100
AcDbLine
 10
1168.0
 20
161.357
 30
0.0
 11
1167.64
 21
163.18
 31
0.0
  0
LINE
  5
4C3
330
17
100
AcDbEntity
  8
0
100
AcDbLine
 10
1167.64
 20
238.745
 30
0.0
 11
1168.0
 21
240.568
 31
0.0
  0
LINE
  5
4C4
330
17
100
AcDbEntity
  8
0
100
AcDbLine
 10
1168.0
 20
240.568
 30
0.0
 11
1169.03
 21
242.113
 31
0.0
  0
LINE
  5
4C5
330
17
100
AcDbEntity
  8
0
100
AcDbLine
 10
1169.03
 20
242.113
 30
0.0
 11
1170.58
 21
243.145
 31
0.0
  0
LINE
  5
4C6
330
17
100
AcDbEntity
  8
0
100
AcDbLine
 10
1170.58
 20
243.145
 30
0.0
 11
1172.4
 21
243.508
 31
0.0
  0
LINE
  5
4C7
330
17
100
AcDbEntity
  8
0
100
AcDbLine
 10
1172.4
 20
243.508
 30
0.0
 11
1174.22
 21
243.145
 31
0.0
  0
LINE
  5
4C8
330
17
100
AcDbEntity
  8
0
100
AcDbLine
 10
1174.22
 20
243.145
 30
0.0
 11
1175.77
 21
242.113
 31
0.0
  0
LINE
  5
4C9
330
17
100
AcDbEntity
  8
0
100
AcDbLine
 10
1175.77
 20
242.113
 30
0.0
 11
1176.8
 21
240.568
 31
0.0
  0
LINE
  5
4CA
330
17
100
AcDbEntity
  8
0
100
AcDbLine
 10
1176.8
 20
240.568
 30
0.0
 11
1177.16
 21
238.745
 31
0.0
  0
LINE
  5
4CB
330
17
100
AcDbEntity
  8
0
100
AcDbLine
 10
1177.16
 20
238.745
 30
0.0
 11
1176.8
 21
236.922
 31
0.0
  0
LINE
  5
4CC
330
17
100
AcDbEntity
  8
0
100
AcDbLine
 10
1176.8
 20
236.922
 30
0.0
 11
1175.77
 21
235.377
 31
0.0
  0
LINE
  5
4CD
330
17
100
AcDbEntity
  8
0
100
AcDbLine
 10
1175.77
 20
235.377
 30
0.0
 11
1174.22
 21
234.345
 31
0.0
  0
LINE
  5
4CE
330
17
100
AcDbEntity
  8
0
100
AcDbLine
 10
1174.22
 20
234.345
 30
0.0
 11
1172.4
 21
233.983
 31
0.0
  0
LINE
  5
4CF
330
17
100
AcDbEntity
  8
0
100
AcDbLine
 10
1172.4
 20
233.983
 30
0.0
 11
1170.58
 21
234.345
 31
0.0
  0
LINE
  5
4D0
330
17
100
AcDbEntity
  8
0
100
AcDbLine
 10
1170.58
 20
234.345
 30
0.0
 11
1169.03
 21
235.377
 31
0.0
  0
LINE
  5
4D1
330
17
100
AcDbEntity
  8
0
100
AcDbLine
 10
1169.03
 20
235.377
 30
0.0
 11
1168.0
 21
236.922
 31
0.0
  0
LINE
  5
4D2
330
17
100
AcDbEntity
  8
0
100
AcDbLine
 10
1168.0
 20
236.922
 30
0.0
 11
1167.64
 21
238.745
 31
0.0
  0
LINE
  5
4D3
330
17
100
AcDbEntity
  8
0
100
AcDbLine
 10
1167.64
 20
306.055
 30
0.0
 11
1168.0
 21
307.878
 31
0.0
  0
LINE
  5
4D4
330
17
100
AcDbEntity
  8
0
100
AcDbLine
 10
1168.0
 20
307.878
 30
0.0
 11
1169.03
 21
309.423
 31
0.0
  0
LINE
  5
4D5
330
17
100
AcDbEntity
  8
0
100
AcDbLine
 10
1169.03
 20
309.423
 30
0.0
 11
1170.58
 21
310.455
 31
0.0
  0
LINE
  5
4D6
330
17
100
AcDbEntity
  8
0
100
AcDbLine
 10
1170.58
 20
310.455
 30
0.0
 11
1172.4
 21
310.818
 31
0.0
  0
LINE
  5
4D7
330
17
100
AcDbEntity
  8
0
100
AcDbLine
 10
1172.4
 20
310.818
 30
0.0
 11
1174.22
 21
310.455
 31
0.0
  0
LINE
  5
4D8
330
17
100
AcDbEntity
  8
0
100
AcDbLine
 10
1174.22
 20
310.455
 30
0.0
 11
1175.77
 21
309.423
 31
0.0
  0
LINE
  5
4D9
330
17
100
AcDbEntity
  8
0
100
AcDbLine
 10
1175.77
 20
309.423
 30
0.0
 11
1176.8
 21
307.878
 31
0.0
  0
LINE
  5
4DA
330
17
100
AcDbEntity
  8
0
100
AcDbLine
 10
1176.8
 20
307.878
 30
0.0
 11
1177.16
 21
306.055
 31
0.0
  0
LINE
  5
4DB
330
17
100
AcDbEntity
  8
0
100
AcDbLine
 10
1177.16
 20
306.055
 30
0.0
 11
1176.8
 21
304.232
 31
0.0
  0
LINE
  5
4DC
330
17
100
AcDbEntity
  8
0
100
AcDbLine
 10
1176.8
 20
304.232
 30
0.0
 11
1175.77
 21
302.687
 31
0.0
  0
LINE
  5
4DD
330
17
100
AcDbEntity
  8
0
100
AcDbLine
 10
1175.77
 20
302.687
 30
0.0
 11
1174.22
 21
301.655
 31
0.0
  0
LINE
  5
4DE
330
17
100
AcDbEntity
  8
0
100
AcDbLine
 10
1174.22
 20
301.655
 30
0.0
 11
1172.4
 21
301.293
 31
0.0
  0
LINE
  5
4DF
330
17
100
AcDbEntity
  8
0
100
AcDbLine
 10
1172.4
 20
301.293
 30
0.0
 11
1170.58
 21
301.655
 31
0.0
  0
LINE
  5
4E0
330
17
100
AcDbEntity
  8
0
100
AcDbLine
 10
1170.58
 20
301.655
 30
0.0
 11
1169.03
 21
302.687
 31
0.0
  0
LINE
  5
4E1
330
17
100
AcDbEntity
  8
0
100
AcDbLine
 10
1169.03
 20
302.687
 30
0.0
 11
1168.0
 21
304.232
 31
0.0
  0
LINE
  5
4E2
330
17
100
AcDbEntity
  8
0
100
AcDbLine
 10
1168.0
 20
304.232
 30
0.0
 11
1167.64
 21
306.055
 31
0.0
  0
LINE
  5
4E3
330
17
100
AcDbEntity
  8
0
100
AcDbLine
 10
1167.64
 20
713.945
 30
0.0
 11
1168.0
 21
715.768
 31
0.0
  0
LINE
  5
4E4
330
17
100
AcDbEntity
  8
0
100
AcDbLine
 10
1168.0
 20
715.768
 30
0.0
 11
1169.03
 21
717.313
 31
0.0
  0
LINE
  5
4E5
330
17
100
AcDbEntity
  8
0
100
AcDbLine
 10
1169.03
 20
717.313
 30
0.0
 11
1170.58
 21
718.345
 31
0.0
  0
LINE
  5
4E6
330
17
100
AcDbEntity
  8
0
100
AcDbLine
 10
1170.58
 20
718.345
 30
0.0
 11
1172.4
 21
718.707
 31
0.0
  0
LINE
  5
4E7
330
17
100
AcDbEntity
  8
0
100
AcDbLine
 10
1172.4
 20
718.707
 30
0.0
 11
1174.22
 21
718.345
 31
0.0
  0
LINE
  5
4E8
330
17
100
AcDbEntity
  8
0
100
AcDbLine
 10
1174.22
 20
718.345
 30
0.0
 11
1175.77
 21
717.313
 31
0.0
  0
LINE
  5
4E9
330
17
100
AcDbEntity
  8
0
100
AcDbLine
 10
1175.77
 20
717.313
 30
0.0
 11
1176.8
 21
715.768
 31
0.0
  0
LINE
  5
4EA
330
17
100
AcDbEntity
  8
0
100
AcDbLine
 10
1176.8
 20
715.768
 30
0.0
 11
1177.16
 21
713.945
 31
0.0
  0
LINE
  5
4EB
330
17
100
AcDbEntity
  8
0
100
AcDbLine
 10
1177.16
 20
713.945
 30
0.0
 11
1176.8
 21
712.122
 31
0.0
  0
LINE
  5
4EC
330
17
100
AcDbEntity
  8
0
100
AcDbLine
 10
1176.8
 20
712.122
 30
0.0
 11
1175.77
 21
710.577
 31
0.0
  0
LINE
  5
4ED
330
17
100
AcDbEntity
  8
0
100
AcDbLine
 10
1175.77
 20
710.577
 30
0.0
 11
1174.22
 21
709.545
 31
0.0
  0
LINE
  5
4EE
330
17
100
AcDbEntity
  8
0
100
AcDbLine
 10
1174.22
 20
709.545
 30
0.0
 11
1172.4
 21
709.182
 31
0.0
  0
LINE
  5
4EF
330
17
100
AcDbEntity
  8
0
100
AcDbLine
 10
1172.4
 20
709.182
 30
0.0
 11
1170.58
 21
709.545
 31
0.0
  0
LINE
  5
4F0
330
17
100
AcDbEntity
  8
0
100
AcDbLine
 10
1170.58
 20
709.545
 30
0.0
 11
1169.03
 21
710.577
 31
0.0
  0
LINE
  5
4F1
330
17
100
AcDbEntity
  8
0
100
AcDbLine
 10
1169.03
 20
710.577
 30
0.0
 11
1168.0
 21
712.122
 31
0.0
  0
LINE
  5
4F2
330
17
100
AcDbEntity
  8
0
100
AcDbLine
 10
1168.0
 20
712.122
 30
0.0
 11
1167.64
 21
713.945
 31
0.0
  0
LINE
  5
4F3
330
17
100
AcDbEntity
  8
0
100
AcDbLine
 10
1167.64
 20
781.255
 30
0.0
 11
1168.0
 21
783.078
 31
0.0
  0
LINE
  5
4F4
330
17
100
AcDbEntity
  8
0
100
AcDbLine
 10
1168.0
 20
783.078
 30
0.0
 11
1169.03
 21
784.623
 31
0.0
  0
LINE
  5
4F5
330
17
100
AcDbEntity
  8
0
100
AcDbLine
 10
1169.03
 20
784.623
 30
0.0
 11
1170.58
 21
785.655
 31
0.0
  0
LINE
  5
4F6
330
17
100
AcDbEntity
  8
0
100
AcDbLine
 10
1170.58
 20
785.655
 30
0.0
 11
1172.4
 21
786.017
 31
0.0
  0
LINE
  5
4F7
330
17
100
AcDbEntity
  8
0
100
AcDbLine
 10
1172.4
 20
786.017
 30
0.0
 11
1174.22
 21
785.655
 31
0.0
  0
LINE
  5
4F8
330
17
100
AcDbEntity
  8
0
100
AcDbLine
 10
1174.22
 20
785.655
 30
0.0
 11
1175.77
 21
784.623
 31
0.0
  0
LINE
  5
4F9
330
17
100
AcDbEntity
  8
0
100
AcDbLine
 10
1175.77
 20
784.623
 30
0.0
 11
1176.8
 21
783.078
 31
0.0
  0
LINE
  5
4FA
330
17
100
AcDbEntity
  8
0
100
AcDbLine
 10
1176.8
 20
783.078
 30
0.0
 11
1177.16
 21
781.255
 31
0.0
  0
LINE
  5
4FB
330
17
100
AcDbEntity
  8
0
100
AcDbLine
 10
1177.16
 20
781.255
 30
0.0
 11
1176.8
 21
779.432
 31
0.0
  0
LINE
  5
4FC
330
17
100
AcDbEntity
  8
0
100
AcDbLine
 10
1176.8
 20
779.432
 30
0.0
 11
1175.77
 21
777.887
 31
0.0
  0
LINE
  5
4FD
330
17
100
AcDbEntity
  8
0
100
AcDbLine
 10
1175.77
 20
777.887
 30
0.0
 11
1174.22
 21
776.855
 31
0.0
  0
LINE
  5
4FE
330
17
100
AcDbEntity
  8
0
100
AcDbLine
 10
1174.22
 20
776.855
 30
0.0
 11
1172.4
 21
776.492
 31
0.0
  0
LINE
  5
4FF
330
17
100
AcDbEntity
  8
0
100
AcDbLine
 10
1172.4
 20
776.492
 30
0.0
 11
1170.58
 21
776.855
 31
0.0
  0
LINE
  5
500
330
17
100
AcDbEntity
  8
0
100
AcDbLine
 10
1170.58
 20
776.855
 30
0.0
 11
1169.03
 21
777.887
 31
0.0
  0
LINE
  5
501
330
17
100
AcDbEntity
  8
0
100
AcDbLine
 10
1169.03
 20
777.887
 30
0.0
 11
1168.0
 21
779.432
 31
0.0
  0
LINE
  5
502
330
17
100
AcDbEntity
  8
0
100
AcDbLine
 10
1168.0
 20
779.432
 30
0.0
 11
1167.64
 21
781.255
 31
0.0
  0
LINE
  5
503
330
17
100
AcDbEntity
  8
0
100
AcDbLine
 10
1167.64
 20
856.82
 30
0.0
 11
1168.0
 21
858.643
 31
0.0
  0
LINE
  5
504
330
17
100
AcDbEntity
  8
0
100
AcDbLine
 10
1168.0
 20
858.643
 30
0.0
 11
1169.03
 21
860.188
 31
0.0
  0
LINE
  5
505
330
17
100
AcDbEntity
  8
0
100
AcDbLine
 10
1169.03
 20
860.188
 30
0.0
 11
1170.58
 21
861.22
 31
0.0
  0
LINE
  5
506
330
17
100
AcDbEntity
  8
0
100
AcDbLine
 10
1170.58
 20
861.22
 30
0.0
 11
1172.4
 21
861.582
 31
0.0
  0
LINE
  5
507
330
17
100
AcDbEntity
  8
0
100
AcDbLine
 10
1172.4
 20
861.582
 30
0.0
 11
1174.22
 21
861.22
 31
0.0
  0
LINE
  5
508
330
17
100
AcDbEntity
  8
0
100
AcDbLine
 10
1174.22
 20
861.22
 30
0.0
 11
1175.77
 21
860.188
 31
0.0
  0
LINE
  5
509
330
17
100
AcDbEntity
  8
0
100
AcDbLine
 10
1175.77
 20
860.188
 30
0.0
 11
1176.8
 21
858.643
 31
0.0
  0
LINE
  5
50A
330
17
100
AcDbEntity
  8
0
100
AcDbLine
 10
1176.8
 20
858.643
 30
0.0
 11
1177.16
 21
856.82
 31
0.0
  0
LINE
  5
50B
330
17
100
AcDbEntity
  8
0
100
AcDbLine
 10
1177.16
 20
856.82
 30
0.0
 11
1176.8
 21
854.997
 31
0.0
  0
LINE
  5
50C
330
17
100
AcDbEntity
  8
0
100
AcDbLine
 10
1176.8
 20
854.997
 30
0.0
 11
1175.77
 21
853.452
 31
0.0
  0
LINE
  5
50D
330
17
100
AcDbEntity
  8
0
100
AcDbLine
 10
1175.77
 20
853.452
 30
0.0
 11
1174.22
 21
852.42
 31
0.0
  0
LINE
  5
50E
330
17
100
AcDbEntity
  8
0
100
AcDbLine
 10
1174.22
 20
852.42
 30
0.0
 11
1172.4
 21
852.057
 31
0.0
  0
LINE
  5
50F
330
17
100
AcDbEntity
  8
0
100
AcDbLine
 10
1172.4
 20
852.057
 30
0.0
 11
1170.58
 21
852.42
 31
0.0
  0
LINE
  5
510
330
17
100
AcDbEntity
  8
0
100
AcDbLine
 10
1170.58
 20
852.42
 30
0.0
 11
1169.03
 21
853.452
 31
0.0
  0
LINE
  5
511
330
17
100
AcDbEntity
  8
0
100
AcDbLine
 10
1169.03
 20
853.452
 30
0.0
 11
1168.0
 21
854.997
 31
0.0
  0
LINE
  5
512
330
17
100
AcDbEntity
  8
0
100
AcDbLine
 10
1168.0
 20
854.997
 30
0.0
 11
1167.64
 21
856.82
 31
0.0
  0
LINE
  5
513
330
17
100
AcDbEntity
  8
0
100
AcDbLine
 10
1167.64
 20
930.48
 30
0.0
 11
1168.0
 21
932.303
 31
0.0
  0
LINE
  5
514
330
17
100
AcDbEntity
  8
0
100
AcDbLine
 10
1168.0
 20
932.303
 30
0.0
 11
1169.03
 21
933.848
 31
0.0
  0
LINE
  5
515
330
17
100
AcDbEntity
  8
0
100
AcDbLine
 10
1169.03
 20
933.848
 30
0.0
 11
1170.58
 21
934.88
 31
0.0
  0
LINE
  5
516
330
17
100
AcDbEntity
  8
0
100
AcDbLine
 10
1170.58
 20
934.88
 30
0.0
 11
1172.4
 21
935.242
 31
0.0
  0
LINE
  5
517
330
17
100
AcDbEntity
  8
0
100
AcDbLine
 10
1172.4
 20
935.242
 30
0.0
 11
1174.22
 21
934.88
 31
0.0
  0
LINE
  5
518
330
17
100
AcDbEntity
  8
0
100
AcDbLine
 10
1174.22
 20
934.88
 30
0.0
 11
1175.77
 21
933.848
 31
0.0
  0
LINE
  5
519
330
17
100
AcDbEntity
  8
0
100
AcDbLine
 10
1175.77
 20
933.848
 30
0.0
 11
1176.8
 21
932.303
 31
0.0
  0
LINE
  5
51A
330
17
100
AcDbEntity
  8
0
100
AcDbLine
 10
1176.8
 20
932.303
 30
0.0
 11
1177.16
 21
930.48
 31
0.0
  0
LINE
  5
51B
330
17
100
AcDbEntity
  8
0
100
AcDbLine
 10
1177.16
 20
930.48
 30
0.0
 11
1176.8
 21
928.657
 31
0.0
  0
LINE
  5
51C
330
17
100
AcDbEntity
  8
0
100
AcDbLine
 10
1176.8
 20
928.657
 30
0.0
 11
1175.77
 21
927.112
 31
0.0
  0
LINE
  5
51D
330
17
100
AcDbEntity
  8
0
100
AcDbLine
 10
1175.77
 20
927.112
 30
0.0
 11
1174.22
 21
926.08
 31
0.0
  0
LINE
  5
51E
330
17
100
AcDbEntity
  8
0
100
AcDbLine
 10
1174.22
 20
926.08
 30
0.0
 11
1172.4
 21
925.717
 31
0.0
  0
LINE
  5
51F
330
17
100
AcDbEntity
  8
0
100
AcDbLine
 10
1172.4
 20
925.717
 30
0.0
 11
1170.58
 21
926.08
 31
0.0
  0
LINE
  5
520
330
17
100
AcDbEntity
  8
0
100
AcDbLine
 10
1170.58
 20
926.08
 30
0.0
 11
1169.03
 21
927.112
 31
0.0
  0
LINE
  5
521
330
17
100
AcDbEntity
  8
0
100
AcDbLine
 10
1169.03
 20
927.112
 30
0.0
 11
1168.0
 21
928.657
 31
0.0
  0
LINE
  5
522
330
17
100
AcDbEntity
  8
0
100
AcDbLine
 10
1168.0
 20
928.657
 30
0.0
 11
1167.64
 21
930.48
 31
0.0
  0
LINE
  5
523
330
17
100
AcDbEntity
  8
0
100
AcDbLine
 10
1167.64
 20
989.52
 30
0.0
 11
1168.0
 21
991.343
 31
0.0
  0
LINE
  5
524
330
17
100
AcDbEntity
  8
0
100
AcDbLine
 10
1168.0
 20
991.343
 30
0.0
 11
1169.03
 21
992.888
 31
0.0
  0
LINE
  5
525
330
17
100
AcDbEntity
  8
0
100
AcDbLine
 10
1169.03
 20
992.888
 30
0.0
 11
1170.58
 21
993.92
 31
0.0
  0
LINE
  5
526
330
17
100
AcDbEntity
  8
0
100
AcDbLine
 10
1170.58
 20
993.92
 30
0.0
 11
1172.4
 21
994.282
 31
0.0
  0
LINE
  5
527
330
17
100
AcDbEntity
  8
0
100
AcDbLine
 10
1172.4
 20
994.282
 30
0.0
 11
1174.22
 21
993.92
 31
0.0
  0
LINE
  5
528
330
17
100
AcDbEntity
  8
0
100
AcDbLine
 10
1174.22
 20
993.92
 30
0.0
 11
1175.77
 21
992.888
 31
0.0
  0
LINE
  5
529
330
17
100
AcDbEntity
  8
0
100
AcDbLine
 10
1175.77
 20
992.888
 30
0.0
 11
1176.8
 21
991.343
 31
0.0
  0
LINE
  5
52A
330
17
100
AcDbEntity
  8
0
100
AcDbLine
 10
1176.8
 20
991.343
 30
0.0
 11
1177.16
 21
989.52
 31
0.0
  0
LINE
  5
52B
330
17
100
AcDbEntity
  8
0
100
AcDbLine
 10
1177.16
 20
989.52
 30
0.0
 11
1176.8
 21
987.697
 31
0.0
  0
LINE
  5
52C
330
17
100
AcDbEntity
  8
0
100
AcDbLine
 10
1176.8
 20
987.697
 30
0.0
 11
1175.77
 21
986.152
 31
0.0
  0
LINE
  5
52D
330
17
100
AcDbEntity
  8
0
100
AcDbLine
 10
1175.77
 20
986.152
 30
0.0
 11
1174.22
 21
985.12
 31
0.0
  0
LINE
  5
52E
330
17
100
AcDbEntity
  8
0
100
AcDbLine
 10
1174.22
 20
985.12
 30
0.0
 11
1172.4
 21
984.757
 31
0.0
  0
LINE
  5
52F
330
17
100
AcDbEntity
  8
0
100
AcDbLine
 10
1172.4
 20
984.757
 30
0.0
 11
1170.58
 21
985.12
 31
0.0
  0
LINE
  5
530
330
17
100
AcDbEntity
  8
0
100
AcDbLine
 10
1170.58
 20
985.12
 30
0.0
 11
1169.03
 21
986.152
 31
0.0
  0
LINE
  5
531
330
17
100
AcDbEntity
  8
0
100
AcDbLine
 10
1169.03
 20
986.152
 30
0.0
 11
1168.0
 21
987.697
 31
0.0
  0
LINE
  5
532
330
17
100
AcDbEntity
  8
0
100
AcDbLine
 10
1168.0
 20
987.697
 30
0.0
 11
1167.64
 21
989.52
 31
0.0
  0
ENDSEC
  0
SECTION
  2
OBJECTS
  0
DICTIONARY
  5
A
330
0
100
AcDbDictionary
281
1
  3
ACAD_COLOR
350
B
  3
ACAD_GROUP
350
C
  3
ACAD_LAYOUT
350
D
  3
ACAD_MATERIAL
350
E
  3
ACAD_MLEADERSTYLE
350
F
  3
ACAD_MLINESTYLE
350
10
  3
ACAD_PLOTSETTINGS
350
11
  3
ACAD_PLOTSTYLENAME
350
12
  3
ACAD_SCALELIST
350
14
  3
ACAD_TABLESTYLE
350
15
  3
ACAD_VISUALSTYLE
350
16
  3
EZDXF_META
350
2D
  0
DICTIONARY
  5
B
330
A
100
AcDbDictionary
281
1
  0
DICTIONARY
  5
C
330
A
100
AcDbDictionary
281
1
  0
DICTIONARY
  5
D
330
A
100
AcDbDictionary
281
1
  3
Model
350
1A
  3
Layout1
350
1E
  0
DICTIONARY
  5
E
330
A
100
AcDbDictionary
281
1
  3
ByBlock
350
1F
  3
ByLayer
350
20
  3
Global
350
21
  0
DICTIONARY
  5
F
330
A
100
AcDbDictionary
281
1
  3
Standard
350
2C
  0
DICTIONARY
  5
10
330
A
100
AcDbDictionary
281
1
  3
Standard
350
22
  0
DICTIONARY
  5
11
330
A
100
AcDbDictionary
281
1
  0
ACDBDICTIONARYWDFLT
  5
12
330
A
100
AcDbDictionary
281
1
  3
Normal
350
13
100
AcDbDictionaryWithDefault
340
13
  0
ACDBPLACEHOLDER
  5
13
330
12
  0
DICTIONARY
  5
14
330
A
100
AcDbDictionary
281
1
  0
DICTIONARY
  5
15
330
A
100
AcDbDictionary
281
1
  0
DICTIONARY
  5
16
330
A
100
AcDbDictionary
281
1
  0
LAYOUT
  5
1A
330
D
100
AcDbPlotSettings
  1

  4
A3
  6

 40
7.5
 41
20.0
 42
7.5
 43
20.0
 44
420.0
 45
297.0
 46
0.0
 47
0.0
 48
0.0
 49
0.0
140
0.0
141
0.0
142
1.0
143
1.0
 70
1024
 72
1
 73
0
 74
5
  7

 75
16
 76
0
 77
2
 78
300
147
1.0
148
0.0
149
0.0
100
AcDbLayout
  1
Model
 70
1
 71
0
 10
0.0
 20
0.0
 11
420.0
 21
297.0
 12
0.0
 22
0.0
 32
0.0
 14
1e+20
 24
1e+20
 34
1e+20
 15
-1e+20
 25
-1e+20
 35
-1e+20
146
0.0
 13
0.0
 23
0.0
 33
0.0
 16
1.0
 26
0.0
 36
0.0
 17
0.0
 27
1.0
 37
0.0
 76
1
330
17
  0
LAYOUT
  5
1E
330
D
100
AcDbPlotSettings
  1

  4
A3
  6

 40
7.5
 41
20.0
 42
7.5
 43
20.0
 44
420.0
 45
297.0
 46
0.0
 47
0.0
 48
0.0
 49
0.0
140
0.0
141
0.0
142
1.0
143
1.0
 70
0
 72
1
 73
0
 74
5
  7

 75
16
 76
0
 77
2
 78
300
147
1.0
148
0.0
149
0.0
100
AcDbLayout
  1
Layout1
 70
1
 71
1
 10
0.0
 20
0.0
 11
420.0
 21
297.0
 12
0.0
 22
0.0
 32
0.0
 14
1e+20
 24
1e+20
 34
1e+20
 15
-1e+20
 25
-1e+20
 35
-1e+20
146
0.0
 13
0.0
 23
0.0
 33
0.0
 16
1.0
 26
0.0
 36
0.0
 17
0.0
 27
1.0
 37
0.0
 76
1
330
1B
  0
MATERIAL
  5
1F
102
{ACAD_REACTORS
330
E
102
}
330
E
100
AcDbMaterial
  1
ByBlock
  2

 70
0
 40
1.0
 71
1
 41
1.0
 91
-1023410177
 42
1.0
 72
1
  3

 73
1
 74
1
 75
1
 44
0.5
 73
0
 45
1.0
 46
1.0
 77
1
  4

 78
1
 79
1
170
1
 48
1.0
171
1
  6

172
1
173
1
174
1
140
1.0
141
1.0
175
1
  7

176
1
177
1
178
1
143
1.0
179
1
  8

270
1
271
1
272
1
145
1.0
146
1.0
273
1
  9

274
1
275
1
276
1
 42
1.0
 72
1
  3

 73
1
 74
1
 75
1
 94
63
  0
MATERIAL
  5
20
102
{ACAD_REACTORS
330
E
102
}
330
E
100
AcDbMaterial
  1
ByLayer
  2

 70
0
 40
1.0
 71
1
 41
1.0
 91
-1023410177
 42
1.0
 72
1
  3

 73
1
 74
1
 75
1
 44
0.5
 73
0
 45
1.0
 46
1.0
 77
1
  4

 78
1
 79
1
170
1
 48
1.0
171
1
  6

172
1
173
1
174
1
140
1.0
141
1.0
175
1
  7

176
1
177
1
178
1
143
1.0
179
1
  8

270
1
271
1
272
1
145
1.0
146
1.0
273
1
  9

274
1
275
1
276
1
 42
1.0
 72
1
  3

 73
1
 74
1
 75
1
 94
63
  0
MATERIAL
  5
21
102
{ACAD_REACTORS
330
E
102
}
330
E
100
AcDbMaterial
  1
Global
  2

 70
0
 40
1.0
 71
1
 41
1.0
 91
-1023410177
 42
1.0
 72
1
  3

 73
1
 74
1
 75
1
 44
0.5
 73
0
 45
1.0
 46
1.0
 77
1
  4

 78
1
 79
1
170
1
 48
1.0
171
1
  6

172
1
173
1
174
1
140
1.0
141
1.0
175
1
  7

176
1
177
1
178
1
143
1.0
179
1
  8

270
1
271
1
272
1
145
1.0
146
1.0
273
1
  9

274
1
275
1
276
1
 42
1.0
 72
1
  3

 73
1
 74
1
 75
1
 94
63
  0
MLINESTYLE
  5
22
102
{ACAD_REACTORS
330
10
102
}
330
10
100
AcDbMlineStyle
  2
Standard
 70
0
  3

 62
256
 51
90.0
 52
90.0
 71
2
 49
0.5
 62
256
  6
BYLAYER
 49
-0.5
 62
256
  6
BYLAYER
  0
MLEADERSTYLE
  5
2C
102
{ACAD_REACTORS
330
F
102
}
330
F
100
AcDbMLeaderStyle
179
2
170
2
171
1
172
0
 90
2
 40
0.0
 41
0.0
173
1
 91
-1056964608
 92
-2
290
1
 42
2.0
291
1
 43
8.0
  3
Standard
 44
4.0
300

342
29
174
1
175
1
176
0
178
1
 93
-1056964608
 45
4.0
292
0
297
0
 46
4.0
 94
-1056964608
 47
1.0
 49
1.0
140
1.0
294
1
141
0.0
177
0
142
1.0
295
0
296
0
143
3.75
271
0
272
9
273
9
  0
DICTIONARY
  5
2D
330
A
100
AcDbDictionary
280
1
281
1
  3
CREATED_BY_EZDXF
350
2E
  3
WRITTEN_BY_EZDXF
350
535
  0
DICTIONARYVAR
  5
2E
330
2D
100
DictionaryVariables
280
0
  1
0.0 @ 2000-01-01T00:00:00.000000+00:00
  0
DICTIONARYVAR
  5
535
330
2D
100
DictionaryVariables
280
0
  1
0.0 @ 2000-01-01T00:00:00.000000+00:00
  0
ENDSEC
  0
EOF
