  0
SECTION
  2
BLOCKS
  0
ENDSEC
  0
SECTION
  2
ENTITIES
  0
LINE
  8
0
 10
7.62939e-07
 20
0
 11
1196.8
 21
0
  0
LINE
  8
0
 10
1196.8
 20
0
 11
1196.8
 21
254
  0
LINE
  8
0
 10
1196.8
 20
254
 11
7.62939e-07
 21
254
  0
LINE
  8
0
 10
7.62939e-07
 20
254
 11
7.62939e-07
 21
0
  0
LINE
  8
0
 10
173.8
 20
127
 11
174.288
 21
131.955
  0
LINE
  8
0
 10
174.288
 20
131.955
 11
175.733
 21
136.72
  0
LINE
  8
0
 10
175.733
 20
136.72
 11
178.081
 21
141.111
  0
LINE
  8
0
 10
178.081
 20
141.111
 11
181.239
 21
144.961
  0
LINE
  8
0
 10
181.239
 20
144.961
 11
185.089
 21
148.119
  0
LINE
  8
0
 10
185.089
 20
148.119
 11
189.48
 21
150.467
  0
LINE
  8
0
 10
189.48
 20
150.467
 11
194.245
 21
151.912
  0
LINE
  8
0
 10
194.245
 20
151.912
 11
199.2
 21
152.4
  0
LINE
  8
0
 10
199.2
 20
152.4
 11
204.155
 21
151.912
  0
LINE
  8
0
 10
204.155
 20
151.912
 11
208.92
 21
150.467
  0
LINE
  8
0
 10
208.92
 20
150.467
 11
213.311
 21
148.119
  0
LINE
  8
0
 10
213.311
 20
148.119
 11
217.161
 21
144.961
  0
LINE
  8
0
 10
217.161
 20
144.961
 11
220.319
 21
141.111
  0
LINE
  8
0
 10
220.319
 20
141.111
 11
222.667
 21
136.72
  0
LINE
  8
0
 10
222.667
 20
136.72
 11
224.112
 21
131.955
  0
LINE
  8
0
 10
224.112
 20
131.955
 11
224.6
 21
127
  0
LINE
  8
0
 10
224.6
 20
127
 11
224.112
 21
122.045
  0
LINE
  8
0
 10
224.112
 20
122.045
 11
222.667
 21
117.28
  0
LINE
  8
0
 10
222.667
 20
117.28
 11
220.319
 21
112.889
  0
LINE
  8
0
 10
220.319
 20
112.889
 11
217.161
 21
109.039
  0
LINE
  8
0
 10
217.161
 20
109.039
 11
213.311
 21
105.881
  0
LINE
  8
0
 10
213.311
 20
105.881
 11
208.92
 21
103.533
  0
LINE
  8
0
 10
208.92
 20
103.533
 11
204.155
 21
102.088
  0
LINE
  8
0
 10
204.155
 20
102.088
 11
199.2
 21
101.6
  0
LINE
  8
0
 10
199.2
 20
101.6
 11
194.245
 21
102.088
  0
LINE
  8
0
 10
194.245
 20
102.088
 11
189.48
 21
103.533
  0
LINE
  8
0
 10
189.48
 20
103.533
 11
185.089
 21
105.881
  0
LINE
  8
0
 10
185.089
 20
105.881
 11
181.239
 21
109.039
  0
LINE
  8
0
 10
181.239
 20
109.039
 11
178.081
 21
112.889
  0
LINE
  8
0
 10
178.081
 20
112.889
 11
175.733
 21
117.28
  0
LINE
  8
0
 10
175.733
 20
117.28
 11
174.288
 21
122.045
  0
LINE
  8
0
 10
174.288
 20
122.045
 11
173.8
 21
127
  0
LINE
  8
0
 10
319.85
 20
76.2
 11
320.333
 21
78.63
  0
LINE
  8
0
 10
320.333
 20
78.63
 11
321.71
 21
80.6901
  0
LINE
  8
0
 10
321.71
 20
80.6901
 11
323.77
 21
82.0666
  0
LINE
  8
0
 10
323.77
 20
82.0666
 11
326.2
 21
82.55
  0
LINE
  8
0
 10
326.2
 20
82.55
 11
328.63
 21
82.0666
  0
LINE
  8
0
 10
328.63
 20
82.0666
 11
330.69
 21
80.6901
  0
LINE
  8
0
 10
330.69
 20
80.6901
 11
332.067
 21
78.63
  0
LINE
  8
0
 10
332.067
 20
78.63
 11
332.55
 21
76.2
  0
LINE
  8
0
 10
332.55
 20
76.2
 11
332.067
 21
73.77
  0
LINE
  8
0
 10
332.067
 20
73.77
 11
330.69
 21
71.7099
  0
LINE
  8
0
 10
330.69
 20
71.7099
 11
328.63
 21
70.3334
  0
LINE
  8
0
 10
328.63
 20
70.3334
 11
326.2
 21
69.85
  0
LINE
  8
0
 10
326.2
 20
69.85
 11
323.77
 21
70.3334
  0
LINE
  8
0
 10
323.77
 20
70.3334
 11
321.71
 21
71.7099
  0
LINE
  8
0
 10
321.71
 20
71.7099
 11
320.333
 21
73.77
  0
LINE
  8
0
 10
320.333
 20
73.77
 11
319.85
 21
76.2
  0
LINE
  8
0
 10
319.85
 20
177.8
 11
320.333
 21
180.23
  0
LINE
  8
0
 10
320.333
 20
180.23
 11
321.71
 21
182.29
  0
LINE
  8
0
 10
321.71
 20
182.29
 11
323.77
 21
183.667
  0
LINE
  8
0
 10
323.77
 20
183.667
 11
326.2
 21
184.15
  0
LINE
  8
0
 10
326.2
 20
184.15
 11
328.63
 21
183.667
  0
LINE
  8
0
 10
328.63
 20
183.667
 11
330.69
 21
182.29
  0
LINE
  8
0
 10
330.69
 20
182.29
 11
332.067
 21
180.23
  0
LINE
  8
0
 10
332.067
 20
180.23
 11
332.55
 21
177.8
  0
LINE
  8
0
 10
332.55
 20
177.8
 11
332.067
 21
175.37
  0
LINE
  8
0
 10
332.067
 20
175.37
 11
330.69
 21
173.31
  0
LINE
  8
0
 10
330.69
 20
173.31
 11
328.63
 21
171.933
  0
LINE
  8
0
 10
328.63
 20
171.933
 11
326.2
 21
171.45
  0
LINE
  8
0
 10
326.2
 20
171.45
 11
323.77
 21
171.933
  0
LINE
  8
0
 10
323.77
 20
171.933
 11
321.71
 21
173.31
  0
LINE
  8
0
 10
321.71
 20
173.31
 11
320.333
 21
175.37
  0
LINE
  8
0
 10
320.333
 20
175.37
 11
319.85
 21
177.8
  0
LINE
  8
0
 10
351.6
 20
53.975
 11
351.6
 21
200.025
  0
LINE
  8
0
 10
351.6
 20
200.025
 11
351.661
 21
200.644
  0
LINE
  8
0
 10
351.661
 20
200.644
 11
351.842
 21
201.24
  0
LINE
  8
0
 10
351.842
 20
201.24
 11
352.135
 21
201.789
  0
LINE
  8
0
 10
352.135
 20
201.789
 11
352.53
 21
202.27
  0
LINE
  8
0
 10
352.53
 20
202.27
 11
353.011
 21
202.665
  0
LINE
  8
0
 10
353.011
 20
202.665
 11
353.56
 21
202.958
  0
LINE
  8
0
 10
353.56
 20
202.958
 11
354.156
 21
203.139
  0
LINE
  8
0
 10
354.156
 20
203.139
 11
354.775
 21
203.2
  0
LINE
  8
0
 10
354.775
 20
203.2
 11
399.225
 21
203.2
  0
LINE
  8
0
 10
399.225
 20
203.2
 11
399.844
 21
203.139
  0
LINE
  8
0
 10
399.844
 20
203.139
 11
400.44
 21
202.958
  0
LINE
  8
0
 10
400.44
 20
202.958
 11
400.989
 21
202.665
  0
LINE
  8
0
 10
400.989
 20
202.665
 11
401.47
 21
202.27
  0
LINE
  8
0
 10
401.47
 20
202.27
 11
401.865
 21
201.789
  0
LINE
  8
0
 10
401.865
 20
201.789
 11
402.158
 21
201.24
  0
LINE
  8
0
 10
402.158
 20
201.24
 11
402.339
 21
200.644
  0
LINE
  8
0
 10
402.339
 20
200.644
 11
402.4
 21
200.025
  0
LINE
  8
0
 10
402.4
 20
200.025
 11
402.4
 21
53.975
  0
LINE
  8
0
 10
402.4
 20
53.975
 11
402.339
 21
53.3556
  0
LINE
  8
0
 10
402.339
 20
53.3556
 11
402.158
 21
52.76
  0
LINE
  8
0
 10
402.158
 20
52.76
 11
401.865
 21
52.2111
  0
LINE
  8
0
 10
401.865
 20
52.2111
 11
401.47
 21
51.7299
  0
LINE
  8
0
 10
401.47
 20
51.7299
 11
400.989
 21
51.3351
  0
LINE
  8
0
 10
400.989
 20
51.3351
 11
400.44
 21
51.0417
  0
LINE
  8
0
 10
400.44
 20
51.0417
 11
399.844
 21
50.861
  0
LINE
  8
0
 10
399.844
 20
50.861
 11
399.225
 21
50.8
  0
LINE
  8
0
 10
399.225
 20
50.8
 11
354.775
 21
50.8
  0
LINE
  8
0
 10
354.775
 20
50.8
 11
354.156
 21
50.861
  0
LINE
  8
0
 10
354.156
 20
50.861
 11
353.56
 21
51.0417
  0
LINE
  8
0
 10
353.56
 20
51.0417
 11
353.011
 21
51.3351
  0
LINE
  8
0
 10
353.011
 20
51.3351
 11
352.53
 21
51.7299
  0
LINE
  8
0
 10
352.53
 20
51.7299
 11
352.135
 21
52.2111
  0
LINE
  8
0
 10
352.135
 20
52.2111
 11
351.842
 21
52.76
  0
LINE
  8
0
 10
351.842
 20
52.76
 11
351.661
 21
53.3556
  0
LINE
  8
0
 10
351.661
 20
53.3556
 11
351.6
 21
53.975
  0
LINE
  8
0
 10
421.45
 20
76.2
 11
421.933
 21
78.63
  0
LINE
  8
0
 10
421.933
 20
78.63
 11
423.31
 21
80.6901
  0
LINE
  8
0
 10
423.31
 20
80.6901
 11
425.37
 21
82.0666
  0
LINE
  8
0
 10
425.37
 20
82.0666
 11
427.8
 21
82.55
  0
LINE
  8
0
 10
427.8
 20
82.55
 11
430.23
 21
82.0666
  0
LINE
  8
0
 10
430.23
 20
82.0666
 11
432.29
 21
80.6901
  0
LINE
  8
0
 10
432.29
 20
80.6901
 11
433.667
 21
78.63
  0
LINE
  8
0
 10
433.667
 20
78.63
 11
434.15
 21
76.2
  0
LINE
  8
0
 10
434.15
 20
76.2
 11
433.667
 21
73.77
  0
LINE
  8
0
 10
433.667
 20
73.77
 11
432.29
 21
71.7099
  0
LINE
  8
0
 10
432.29
 20
71.7099
 11
430.23
 21
70.3334
  0
LINE
  8
0
 10
430.23
 20
70.3334
 11
427.8
 21
69.85
  0
LINE
  8
0
 10
427.8
 20
69.85
 11
425.37
 21
70.3334
  0
LINE
  8
0
 10
425.37
 20
70.3334
 11
423.31
 21
71.7099
  0
LINE
  8
0
 10
423.31
 20
71.7099
 11
421.933
 21
73.77
  0
LINE
  8
0
 10
421.933
 20
73.77
 11
421.45
 21
76.2
  0
LINE
  8
0
 10
421.45
 20
177.8
 11
421.933
 21
180.23
  0
LINE
  8
0
 10
421.933
 20
180.23
 11
423.31
 21
182.29
  0
LINE
  8
0
 10
423.31
 20
182.29
 11
425.37
 21
183.667
  0
LINE
  8
0
 10
425.37
 20
183.667
 11
427.8
 21
184.15
  0
LINE
  8
0
 10
427.8
 20
184.15
 11
430.23
 21
183.667
  0
LINE
  8
0
 10
430.23
 20
183.667
 11
432.29
 21
182.29
  0
LINE
  8
0
 10
432.29
 20
182.29
 11
433.667
 21
180.23
  0
LINE
  8
0
 10
433.667
 20
180.23
 11
434.15
 21
177.8
  0
LINE
  8
0
 10
434.15
 20
177.8
 11
433.667
 21
175.37
  0
LINE
  8
0
 10
433.667
 20
175.37
 11
432.29
 21
173.31
  0
LINE
  8
0
 10
432.29
 20
173.31
 11
430.23
 21
171.933
  0
LINE
  8
0
 10
430.23
 20
171.933
 11
427.8
 21
171.45
  0
LINE
  8
0
 10
427.8
 20
171.45
 11
425.37
 21
171.933
  0
LINE
  8
0
 10
425.37
 20
171.933
 11
423.31
 21
173.31
  0
LINE
  8
0
 10
423.31
 20
173.31
 11
421.933
 21
175.37
  0
LINE
  8
0
 10
421.933
 20
175.37
 11
421.45
 21
177.8
  0
LINE
  8
0
 10
714.25
 20
76.2
 11
714.733
 21
78.63
  0
LINE
  8
0
 10
714.733
 20
78.63
 11
716.11
 21
80.6901
  0
LINE
  8
0
 10
716.11
 20
80.6901
 11
718.17
 21
82.0666
  0
LINE
  8
0
 10
718.17
 20
82.0666
 11
720.6
 21
82.55
  0
LINE
  8
0
 10
720.6
 20
82.55
 11
723.03
 21
82.0666
  0
LINE
  8
0
 10
723.03
 20
82.0666
 11
725.09
 21
80.6901
  0
LINE
  8
0
 10
725.09
 20
80.6901
 11
726.467
 21
78.63
  0
LINE
  8
0
 10
726.467
 20
78.63
 11
726.95
 21
76.2
  0
LINE
  8
0
 10
726.95
 20
76.2
 11
726.467
 21
73.77
  0
LINE
  8
0
 10
726.467
 20
73.77
 11
725.09
 21
71.7099
  0
LINE
  8
0
 10
725.09
 20
71.7099
 11
723.03
 21
70.3334
  0
LINE
  8
0
 10
723.03
 20
70.3334
 11
720.6
 21
69.85
  0
LINE
  8
0
 10
720.6
 20
69.85
 11
718.17
 21
70.3334
  0
LINE
  8
0
 10
718.17
 20
70.3334
 11
716.11
 21
71.7099
  0
LINE
  8
0
 10
716.11
 20
71.7099
 11
714.733
 21
73.77
  0
LINE
  8
0
 10
714.733
 20
73.77
 11
714.25
 21
76.2
  0
LINE
  8
0
 10
714.25
 20
177.8
 11
714.733
 21
180.23
  0
LINE
  8
0
 10
714.733
 20
180.23
 11
716.11
 21
182.29
  0
LINE
  8
0
 10
716.11
 20
182.29
 11
718.17
 21
183.667
  0
LINE
  8
0
 10
718.17
 20
183.667
 11
720.6
 21
184.15
  0
LINE
  8
0
 10
720.6
 20
184.15
 11
723.03
 21
183.667
  0
LINE
  8
0
 10
723.03
 20
183.667
 11
725.09
 21
182.29
  0
LINE
  8
0
 10
725.09
 20
182.29
 11
726.467
 21
180.23
  0
LINE
  8
0
 10
726.467
 20
180.23
 11
726.95
 21
177.8
  0
LINE
  8
0
 10
726.95
 20
177.8
 11
726.467
 21
175.37
  0
LINE
  8
0
 10
726.467
 20
175.37
 11
725.09
 21
173.31
  0
LINE
  8
0
 10
725.09
 20
173.31
 11
723.03
 21
171.933
  0
LINE
  8
0
 10
723.03
 20
171.933
 11
720.6
 21
171.45
  0
LINE
  8
0
 10
720.6
 20
171.45
 11
718.17
 21
171.933
  0
LINE
  8
0
 10
718.17
 20
171.933
 11
716.11
 21
173.31
  0
LINE
  8
0
 10
716.11
 20
173.31
 11
714.733
 21
175.37
  0
LINE
  8
0
 10
714.733
 20
175.37
 11
714.25
 21
177.8
  0
LINE
  8
0
 10
746
 20
53.975
 11
746
 21
200.025
  0
LINE
  8
0
 10
746
 20
200.025
 11
746.061
 21
200.644
  0
LINE
  8
0
 10
746.061
 20
200.644
 11
746.242
 21
201.24
  0
LINE
  8
0
 10
746.242
 20
201.24
 11
746.535
 21
201.789
  0
LINE
  8
0
 10
746.535
 20
201.789
 11
746.93
 21
202.27
  0
LINE
  8
0
 10
746.93
 20
202.27
 11
747.411
 21
202.665
  0
LINE
  8
0
 10
747.411
 20
202.665
 11
747.96
 21
202.958
  0
LINE
  8
0
 10
747.96
 20
202.958
 11
748.556
 21
203.139
  0
LINE
  8
0
 10
748.556
 20
203.139
 11
749.175
 21
203.2
  0
LINE
  8
0
 10
749.175
 20
203.2
 11
793.625
 21
203.2
  0
LINE
  8
0
 10
793.625
 20
203.2
 11
794.244
 21
203.139
  0
LINE
  8
0
 10
794.244
 20
203.139
 11
794.84
 21
202.958
  0
LINE
  8
0
 10
794.84
 20
202.958
 11
795.389
 21
202.665
  0
LINE
  8
0
 10
795.389
 20
202.665
 11
795.87
 21
202.27
  0
LINE
  8
0
 10
795.87
 20
202.27
 11
796.265
 21
201.789
  0
LINE
  8
0
 10
796.265
 20
201.789
 11
796.558
 21
201.24
  0
LINE
  8
0
 10
796.558
 20
201.24
 11
796.739
 21
200.644
  0
LINE
  8
0
 10
796.739
 20
200.644
 11
796.8
 21
200.025
  0
LINE
  8
0
 10
796.8
 20
200.025
 11
796.8
 21
53.975
  0
LINE
  8
0
 10
796.8
 20
53.975
 11
796.739
 21
53.3556
  0
LINE
  8
0
 10
796.739
 20
53.3556
 11
796.558
 21
52.76
  0
LINE
  8
0
 10
796.558
 20
52.76
 11
796.265
 21
52.2111
  0
LINE
  8
0
 10
796.265
 20
52.2111
 11
795.87
 21
51.7299
  0
LINE
  8
0
 10
795.87
 20
51.7299
 11
795.389
 21
51.3351
  0
LINE
  8
0
 10
795.389
 20
51.3351
 11
794.84
 21
51.0417
  0
LINE
  8
0
 10
794.84
 20
51.0417
 11
794.244
 21
50.861
  0
LINE
  8
0
 10
794.244
 20
50.861
 11
793.625
 21
50.8
  0
LINE
  8
0
 10
793.625
 20
50.8
 11
749.175
 21
50.8
  0
LINE
  8
0
 10
749.175
 20
50.8
 11
748.556
 21
50.861
  0
LINE
  8
0
 10
748.556
 20
50.861
 11
747.96
 21
51.0417
  0
LINE
  8
0
 10
747.96
 20
51.0417
 11
747.411
 21
51.3351
  0
LINE
  8
0
 10
747.411
 20
51.3351
 11
746.93
 21
51.7299
  0
LINE
  8
0
 10
746.93
 20
51.7299
 11
746.535
 21
52.2111
  0
LINE
  8
0
 10
746.535
 20
52.2111
 11
746.242
 21
52.76
  0
LINE
  8
0
 10
746.242
 20
52.76
 11
746.061
 21
53.3556
  0
LINE
  8
0
 10
746.061
 20
53.3556
 11
746
 21
53.975
  0
LINE
  8
0
 10
815.85
 20
76.2
 11
816.333
 21
78.63
  0
LINE
  8
0
 10
816.333
 20
78.63
 11
817.71
 21
80.6901
  0
LINE
  8
0
 10
817.71
 20
80.6901
 11
819.77
 21
82.0666
  0
LINE
  8
0
 10
819.77
 20
82.0666
 11
822.2
 21
82.55
  0
LINE
  8
0
 10
822.2
 20
82.55
 11
824.63
 21
82.0666
  0
LINE
  8
0
 10
824.63
 20
82.0666
 11
826.69
 21
80.6901
  0
LINE
  8
0
 10
826.69
 20
80.6901
 11
828.067
 21
78.63
  0
LINE
  8
0
 10
828.067
 20
78.63
 11
828.55
 21
76.2
  0
LINE
  8
0
 10
828.55
 20
76.2
 11
828.067
 21
73.77
  0
LINE
  8
0
 10
828.067
 20
73.77
 11
826.69
 21
71.7099
  0
LINE
  8
0
 10
826.69
 20
71.7099
 11
824.63
 21
70.3334
  0
LINE
  8
0
 10
824.63
 20
70.3334
 11
822.2
 21
69.85
  0
LINE
  8
0
 10
822.2
 20
69.85
 11
819.77
 21
70.3334
  0
LINE
  8
0
 10
819.77
 20
70.3334
 11
817.71
 21
71.7099
  0
LINE
  8
0
 10
817.71
 20
71.7099
 11
816.333
 21
73.77
  0
LINE
  8
0
 10
816.333
 20
73.77
 11
815.85
 21
76.2
  0
LINE
  8
0
 10
815.85
 20
177.8
 11
816.333
 21
180.23
  0
LINE
  8
0
 10
816.333
 20
180.23
 11
817.71
 21
182.29
  0
LINE
  8
0
 10
817.71
 20
182.29
 11
819.77
 21
183.667
  0
LINE
  8
0
 10
819.77
 20
183.667
 11
822.2
 21
184.15
  0
LINE
  8
0
 10
822.2
 20
184.15
 11
824.63
 21
183.667
  0
LINE
  8
0
 10
824.63
 20
183.667
 11
826.69
 21
182.29
  0
LINE
  8
0
 10
826.69
 20
182.29
 11
828.067
 21
180.23
  0
LINE
  8
0
 10
828.067
 20
180.23
 11
828.55
 21
177.8
  0
LINE
  8
0
 10
828.55
 20
177.8
 11
828.067
 21
175.37
  0
LINE
  8
0
 10
828.067
 20
175.37
 11
826.69
 21
173.31
  0
LINE
  8
0
 10
826.69
 20
173.31
 11
824.63
 21
171.933
  0
LINE
  8
0
 10
824.63
 20
171.933
 11
822.2
 21
171.45
  0
LINE
  8
0
 10
822.2
 20
171.45
 11
819.77
 21
171.933
  0
LINE
  8
0
 10
819.77
 20
171.933
 11
817.71
 21
173.31
  0
LINE
  8
0
 10
817.71
 20
173.31
 11
816.333
 21
175.37
  0
LINE
  8
0
 10
816.333
 20
175.37
 11
815.85
 21
177.8
  0
LINE
  8
0
 10
923.8
 20
127
 11
924.288
 21
131.955
  0
LINE
  8
0
 10
924.288
 20
131.955
 11
925.733
 21
136.72
  0
LINE
  8
0
 10
925.733
 20
136.72
 11
928.081
 21
141.111
  0
LINE
  8
0
 10
928.081
 20
141.111
 11
931.239
 21
144.961
  0
LINE
  8
0
 10
931.239
 20
144.961
 11
935.089
 21
148.119
  0
LINE
  8
0
 10
935.089
 20
148.119
 11
939.48
 21
150.467
  0
LINE
  8
0
 10
939.48
 20
150.467
 11
944.245
 21
151.912
  0
LINE
  8
0
 10
944.245
 20
151.912
 11
949.2
 21
152.4
  0
LINE
  8
0
 10
949.2
 20
152.4
 11
954.155
 21
151.912
  0
LINE
  8
0
 10
954.155
 20
151.912
 11
958.92
 21
150.467
  0
LINE
  8
0
 10
958.92
 20
150.467
 11
963.311
 21
148.119
  0
LINE
  8
0
 10
963.311
 20
148.119
 11
967.161
 21
144.961
  0
LINE
  8
0
 10
967.161
 20
144.961
 11
970.319
 21
141.111
  0
LINE
  8
0
 10
970.319
 20
141.111
 11
972.667
 21
136.72
  0
LINE
  8
0
 10
972.667
 20
136.72
 11
974.112
 21
131.955
  0
LINE
  8
0
 10
974.112
 20
131.955
 11
974.6
 21
127
  0
LINE
  8
0
 10
974.6
 20
127
 11
974.112
 21
122.045
  0
LINE
  8
0
 10
974.112
 20
122.045
 11
972.667
 21
117.28
  0
LINE
  8
0
 10
972.667
 20
117.28
 11
970.319
 21
112.889
  0
LINE
  8
0
 10
970.319
 20
112.889
 11
967.161
 21
109.039
  0
LINE
  8
0
 10
967.161
 20
109.039
 11
963.311
 21
105.881
  0
LINE
  8
0
 10
963.311
 20
105.881
 11
958.92
 21
103.533
  0
LINE
  8
0
 10
958.92
 20
103.533
 11
954.155
 21
102.088
  0
LINE
  8
0
 10
954.155
 20
102.088
 11
949.2
 21
101.6
  0
LINE
  8
0
 10
949.2
 20
101.6
 11
944.245
 21
102.088
  0
LINE
  8
0
 10
944.245
 20
102.088
 11
939.48
 21
103.533
  0
LINE
  8
0
 10
939.48
 20
103.533
 11
935.089
 21
105.881
  0
LINE
  8
0
 10
935.089
 20
105.881
 11
931.239
 21
109.039
  0
LINE
  8
0
 10
931.239
 20
109.039
 11
928.081
 21
112.889
  0
LINE
  8
0
 10
928.081
 20
112.889
 11
925.733
 21
117.28
  0
LINE
  8
0
 10
925.733
 20
117.28
 11
924.288
 21
122.045
  0
LINE
  8
0
 10
924.288
 20
122.045
 11
923.8
 21
127
  0
ENDSEC
  0
SECTION
  2
OBJECTS
  0
DICTIONARY
  0
ENDSEC
  0
EOF
