  0
SECTION
  2
HEADER
  9
$ACADVER
  1
AC1009
  9
$INSUNITS
 70
4
  9
$MEASUREMENT
 70
1
  0
ENDSEC
  0
SECTION
  2
BLOCKS
  0
ENDSEC
  0
SECTION
  2
ENTITIES
  0
LINE
  8
0
 10
3.25778e-05
 20
242.14
 11
1.97243
 21
237.969
  0
LINE
  8
0
 10
1.97243
 20
237.969
 11
5.81673
 21
231.555
  0
LINE
  8
0
 10
5.81673
 20
231.555
 11
10.2712
 21
225.549
  0
LINE
  8
0
 10
10.2712
 20
225.549
 11
15.293
 21
220.008
  0
LINE
  8
0
 10
15.293
 20
220.008
 11
20.8337
 21
214.986
  0
LINE
  8
0
 10
20.8337
 20
214.986
 11
26.8399
 21
210.532
  0
LINE
  8
0
 10
26.8399
 20
210.532
 11
33.2538
 21
206.687
  0
LINE
  8
0
 10
33.2538
 20
206.687
 11
40.0137
 21
203.49
  0
LINE
  8
0
 10
40.0137
 20
203.49
 11
47.0545
 21
200.97
  0
LINE
  8
0
 10
47.0545
 20
200.97
 11
54.3083
 21
199.153
  0
LINE
  8
0
 10
54.3083
 20
199.153
 11
61.7052
 21
198.056
  0
LINE
  8
0
 10
61.7052
 20
198.056
 11
69.1741
 21
197.689
  0
LINE
  8
0
 10
69.1741
 20
197.689
 11
821.474
 21
197.676
  0
LINE
  8
0
 10
821.474
 20
197.676
 11
867.446
 21
136.381
  0
LINE
  8
0
 10
867.446
 20
136.381
 11
870.732
 21
132.634
  0
LINE
  8
0
 10
870.732
 20
132.634
 11
874.479
 21
129.348
  0
LINE
  8
0
 10
874.479
 20
129.348
 11
878.623
 21
126.579
  0
LINE
  8
0
 10
878.623
 20
126.579
 11
883.093
 21
124.375
  0
LINE
  8
0
 10
883.093
 20
124.375
 11
887.812
 21
122.773
  0
LINE
  8
0
 10
887.812
 20
122.773
 11
892.7
 21
121.8
  0
LINE
  8
0
 10
892.7
 20
121.8
 11
897.673
 21
121.474
  0
LINE
  8
0
 10
897.673
 20
121.474
 11
902.646
 21
121.8
  0
LINE
  8
0
 10
902.646
 20
121.8
 11
907.534
 21
122.772
  0
LINE
  8
0
 10
907.534
 20
122.772
 11
912.253
 21
124.374
  0
LINE
  8
0
 10
912.253
 20
124.374
 11
916.723
 21
126.578
  0
LINE
  8
0
 10
916.723
 20
126.578
 11
920.867
 21
129.347
  0
LINE
  8
0
 10
920.867
 20
129.347
 11
924.614
 21
132.633
  0
LINE
  8
0
 10
924.614
 20
132.633
 11
927.9
 21
136.38
  0
LINE
  8
0
 10
927.9
 20
136.38
 11
973.874
 21
197.673
  0
LINE
  8
0
 10
973.874
 20
197.673
 11
1456.23
 21
197.664
  0
LINE
  8
0
 10
1456.23
 20
197.664
 11
1569.95
 21
62.1378
  0
LINE
  8
0
 10
1569.95
 20
62.1378
 11
1757.92
 21
1.46991
  0
LINE
  8
0
 10
1757.92
 20
1.46991
 11
1763.07
 21
0.1852
  0
LINE
  8
0
 10
1763.07
 20
0.1852
 11
1768.38
 21
-0.00021024
  0
LINE
  8
0
 10
1768.38
 20
-0.00021024
 11
1773.61
 21
0.921778
  0
LINE
  8
0
 10
1773.61
 20
0.921778
 11
1778.53
 21
2.91087
  0
LINE
  8
0
 10
1778.53
 20
2.91087
 11
1782.94
 21
5.88013
  0
LINE
  8
0
 10
1782.94
 20
5.88013
 11
1786.62
 21
9.6998
  0
LINE
  8
0
 10
1786.62
 20
9.6998
 11
1789.44
 21
14.2029
  0
LINE
  8
0
 10
1789.44
 20
14.2029
 11
1791.25
 21
19.1927
  0
LINE
  8
0
 10
1791.25
 20
19.1927
 11
1791.99
 21
24.4511
  0
LINE
  8
0
 10
1791.99
 20
24.4511
 11
1791.62
 21
29.7482
  0
LINE
  8
0
 10
1791.62
 20
29.7482
 11
1790.16
 21
34.8525
  0
LINE
  8
0
 10
1790.16
 20
34.8525
 11
1787.67
 21
39.5411
  0
LINE
  8
0
 10
1787.67
 20
39.5411
 11
1686.69
 21
160.097
  0
LINE
  8
0
 10
1686.69
 20
160.097
 11
1527.3
 21
350.063
  0
LINE
  8
0
 10
1527.3
 20
350.063
 11
1527.3
 21
350.063
  0
LINE
  8
0
 10
1527.3
 20
350.063
 11
69.1768
 21
350.089
  0
LINE
  8
0
 10
69.1768
 20
350.089
 11
61.7079
 21
349.722
  0
LINE
  8
0
 10
61.7079
 20
349.722
 11
54.3109
 21
348.625
  0
LINE
  8
0
 10
54.3109
 20
348.625
 11
47.057
 21
346.808
  0
LINE
  8
0
 10
47.057
 20
346.808
 11
40.0162
 21
344.289
  0
LINE
  8
0
 10
40.0162
 20
344.289
 11
33.2562
 21
341.092
  0
LINE
  8
0
 10
33.2562
 20
341.092
 11
26.8421
 21
337.247
  0
LINE
  8
0
 10
26.8421
 20
337.247
 11
20.8357
 21
332.793
  0
LINE
  8
0
 10
20.8357
 20
332.793
 11
15.2949
 21
327.771
  0
LINE
  8
0
 10
15.2949
 20
327.771
 11
10.2729
 21
322.231
  0
LINE
  8
0
 10
10.2729
 20
322.231
 11
5.81821
 21
316.224
  0
LINE
  8
0
 10
5.81821
 20
316.224
 11
1.97368
 21
309.81
  0
LINE
  8
0
 10
1.97368
 20
309.81
 11
0.00114469
 21
305.64
  0
LINE
  8
0
 10
0.00114469
 20
305.64
 11
69.176
 21
305.639
  0
LINE
  8
0
 10
69.176
 20
305.639
 11
72.288
 21
305.486
  0
LINE
  8
0
 10
72.288
 20
305.486
 11
75.3701
 21
305.029
  0
LINE
  8
0
 10
75.3701
 20
305.029
 11
78.3925
 21
304.271
  0
LINE
  8
0
 10
78.3925
 20
304.271
 11
81.3262
 21
303.222
  0
LINE
  8
0
 10
81.3262
 20
303.222
 11
84.1428
 21
301.889
  0
LINE
  8
0
 10
84.1428
 20
301.889
 11
86.8153
 21
300.288
  0
LINE
  8
0
 10
86.8153
 20
300.288
 11
89.3179
 21
298.431
  0
LINE
  8
0
 10
89.3179
 20
298.431
 11
91.6265
 21
296.339
  0
LINE
  8
0
 10
91.6265
 20
296.339
 11
93.7189
 21
294.03
  0
LINE
  8
0
 10
93.7189
 20
294.03
 11
95.5749
 21
291.528
  0
LINE
  8
0
 10
95.5749
 20
291.528
 11
97.1767
 21
288.855
  0
LINE
  8
0
 10
97.1767
 20
288.855
 11
98.5088
 21
286.038
  0
LINE
  8
0
 10
98.5088
 20
286.038
 11
99.5585
 21
283.105
  0
LINE
  8
0
 10
99.5585
 20
283.105
 11
100.315
 21
280.082
  0
LINE
  8
0
 10
100.315
 20
280.082
 11
100.773
 21
277
  0
LINE
  8
0
 10
100.773
 20
277
 11
100.925
 21
273.888
  0
LINE
  8
0
 10
100.925
 20
273.888
 11
100.773
 21
270.776
  0
LINE
  8
0
 10
100.773
 20
270.776
 11
100.315
 21
267.694
  0
LINE
  8
0
 10
100.315
 20
267.694
 11
99.5581
 21
264.672
  0
LINE
  8
0
 10
99.5581
 20
264.672
 11
98.5084
 21
261.738
  0
LINE
  8
0
 10
98.5084
 20
261.738
 11
97.1762
 21
258.921
  0
LINE
  8
0
 10
97.1762
 20
258.921
 11
95.5743
 21
256.249
  0
LINE
  8
0
 10
95.5743
 20
256.249
 11
93.7182
 21
253.746
  0
LINE
  8
0
 10
93.7182
 20
253.746
 11
91.6257
 21
251.438
  0
LINE
  8
0
 10
91.6257
 20
251.438
 11
89.317
 21
249.345
  0
LINE
  8
0
 10
89.317
 20
249.345
 11
86.8143
 21
247.489
  0
LINE
  8
0
 10
86.8143
 20
247.489
 11
84.1418
 21
245.888
  0
LINE
  8
0
 10
84.1418
 20
245.888
 11
81.3251
 21
244.555
  0
LINE
  8
0
 10
81.3251
 20
244.555
 11
78.3915
 21
243.506
  0
LINE
  8
0
 10
78.3915
 20
243.506
 11
75.369
 21
242.749
  0
LINE
  8
0
 10
75.369
 20
242.749
 11
72.2869
 21
242.292
  0
LINE
  8
0
 10
72.2869
 20
242.292
 11
69.1749
 21
242.139
  0
LINE
  8
0
 10
69.1749
 20
242.139
 11
3.25778e-05
 21
242.14
  0
LINE
  8
0
 10
37.469
 20
222.672
 11
37.6854
 21
224.315
  0
LINE
  8
0
 10
37.6854
 20
224.315
 11
38.3198
 21
225.847
  0
LINE
  8
0
 10
38.3198
 20
225.847
 11
39.329
 21
227.162
  0
LINE
  8
0
 10
39.329
 20
227.162
 11
40.6441
 21
228.171
  0
LINE
  8
0
 10
40.6441
 20
228.171
 11
42.1757
 21
228.805
  0
LINE
  8
0
 10
42.1757
 20
228.805
 11
43.8192
 21
229.022
  0
LINE
  8
0
 10
43.8192
 20
229.022
 11
45.4627
 21
228.805
  0
LINE
  8
0
 10
45.4627
 20
228.805
 11
46.9941
 21
228.171
  0
LINE
  8
0
 10
46.9941
 20
228.171
 11
48.3093
 21
227.162
  0
LINE
  8
0
 10
48.3093
 20
227.162
 11
49.3184
 21
225.847
  0
LINE
  8
0
 10
49.3184
 20
225.847
 11
49.9527
 21
224.315
  0
LINE
  8
0
 10
49.9527
 20
224.315
 11
50.169
 21
222.672
  0
LINE
  8
0
 10
50.169
 20
222.672
 11
49.9526
 21
221.028
  0
LINE
  8
0
 10
49.9526
 20
221.028
 11
49.3183
 21
219.497
  0
LINE
  8
0
 10
49.3183
 20
219.497
 11
48.3091
 21
218.182
  0
LINE
  8
0
 10
48.3091
 20
218.182
 11
46.994
 21
217.172
  0
LINE
  8
0
 10
46.994
 20
217.172
 11
45.4624
 21
216.538
  0
LINE
  8
0
 10
45.4624
 20
216.538
 11
43.8189
 21
216.322
  0
LINE
  8
0
 10
43.8189
 20
216.322
 11
42.1754
 21
216.538
  0
LINE
  8
0
 10
42.1754
 20
216.538
 11
40.6439
 21
217.173
  0
LINE
  8
0
 10
40.6439
 20
217.173
 11
39.3288
 21
218.182
  0
LINE
  8
0
 10
39.3288
 20
218.182
 11
38.3197
 21
219.497
  0
LINE
  8
0
 10
38.3197
 20
219.497
 11
37.6854
 21
221.028
  0
LINE
  8
0
 10
37.6854
 20
221.028
 11
37.469
 21
222.672
  0
LINE
  8
0
 10
37.4708
 20
325.107
 11
37.6872
 21
326.75
  0
LINE
  8
0
 10
37.6872
 20
326.75
 11
38.3216
 21
328.282
  0
LINE
  8
0
 10
38.3216
 20
328.282
 11
39.3308
 21
329.597
  0
LINE
  8
0
 10
39.3308
 20
329.597
 11
40.6459
 21
330.606
  0
LINE
  8
0
 10
40.6459
 20
330.606
 11
42.1774
 21
331.24
  0
LINE
  8
0
 10
42.1774
 20
331.24
 11
43.821
 21
331.457
  0
LINE
  8
0
 10
43.821
 20
331.457
 11
45.4644
 21
331.24
  0
LINE
  8
0
 10
45.4644
 20
331.24
 11
46.9959
 21
330.606
  0
LINE
  8
0
 10
46.9959
 20
330.606
 11
48.311
 21
329.597
  0
LINE
  8
0
 10
48.311
 20
329.597
 11
49.3202
 21
328.281
  0
LINE
  8
0
 10
49.3202
 20
328.281
 11
49.9545
 21
326.75
  0
LINE
  8
0
 10
49.9545
 20
326.75
 11
50.1708
 21
325.106
  0
LINE
  8
0
 10
50.1708
 20
325.106
 11
49.9544
 21
323.463
  0
LINE
  8
0
 10
49.9544
 20
323.463
 11
49.32
 21
321.931
  0
LINE
  8
0
 10
49.32
 20
321.931
 11
48.3109
 21
320.616
  0
LINE
  8
0
 10
48.3109
 20
320.616
 11
46.9957
 21
319.607
  0
LINE
  8
0
 10
46.9957
 20
319.607
 11
45.4642
 21
318.973
  0
LINE
  8
0
 10
45.4642
 20
318.973
 11
43.8207
 21
318.757
  0
LINE
  8
0
 10
43.8207
 20
318.757
 11
42.1772
 21
318.973
  0
LINE
  8
0
 10
42.1772
 20
318.973
 11
40.6457
 21
319.607
  0
LINE
  8
0
 10
40.6457
 20
319.607
 11
39.3306
 21
320.617
  0
LINE
  8
0
 10
39.3306
 20
320.617
 11
38.3215
 21
321.932
  0
LINE
  8
0
 10
38.3215
 20
321.932
 11
37.6872
 21
323.463
  0
LINE
  8
0
 10
37.6872
 20
323.463
 11
37.4708
 21
325.107
  0
LINE
  8
0
 10
92.9664
 20
225.333
 11
93.1828
 21
226.977
  0
LINE
  8
0
 10
93.1828
 20
226.977
 11
93.8172
 21
228.508
  0
LINE
  8
0
 10
93.8172
 20
228.508
 11
94.8263
 21
229.823
  0
LINE
  8
0
 10
94.8263
 20
229.823
 11
96.1415
 21
230.832
  0
LINE
  8
0
 10
96.1415
 20
230.832
 11
97.673
 21
231.467
  0
LINE
  8
0
 10
97.673
 20
231.467
 11
99.3165
 21
231.683
  0
LINE
  8
0
 10
99.3165
 20
231.683
 11
100.96
 21
231.467
  0
LINE
  8
0
 10
100.96
 20
231.467
 11
102.491
 21
230.832
  0
LINE
  8
0
 10
102.491
 20
230.832
 11
103.807
 21
229.823
  0
LINE
  8
0
 10
103.807
 20
229.823
 11
104.816
 21
228.508
  0
LINE
  8
0
 10
104.816
 20
228.508
 11
105.45
 21
226.977
  0
LINE
  8
0
 10
105.45
 20
226.977
 11
105.666
 21
225.333
  0
LINE
  8
0
 10
105.666
 20
225.333
 11
105.45
 21
223.69
  0
LINE
  8
0
 10
105.45
 20
223.69
 11
104.816
 21
222.158
  0
LINE
  8
0
 10
104.816
 20
222.158
 11
103.806
 21
220.843
  0
LINE
  8
0
 10
103.806
 20
220.843
 11
102.491
 21
219.834
  0
LINE
  8
0
 10
102.491
 20
219.834
 11
100.96
 21
219.199
  0
LINE
  8
0
 10
100.96
 20
219.199
 11
99.3163
 21
218.983
  0
LINE
  8
0
 10
99.3163
 20
218.983
 11
97.6728
 21
219.2
  0
LINE
  8
0
 10
97.6728
 20
219.2
 11
96.1413
 21
219.834
  0
LINE
  8
0
 10
96.1413
 20
219.834
 11
94.8262
 21
220.843
  0
LINE
  8
0
 10
94.8262
 20
220.843
 11
93.8171
 21
222.158
  0
LINE
  8
0
 10
93.8171
 20
222.158
 11
93.1827
 21
223.69
  0
LINE
  8
0
 10
93.1827
 20
223.69
 11
92.9664
 21
225.333
  0
LINE
  8
0
 10
92.9681
 20
322.443
 11
93.1845
 21
324.087
  0
LINE
  8
0
 10
93.1845
 20
324.087
 11
93.8189
 21
325.618
  0
LINE
  8
0
 10
93.8189
 20
325.618
 11
94.828
 21
326.934
  0
LINE
  8
0
 10
94.828
 20
326.934
 11
96.1432
 21
327.943
  0
LINE
  8
0
 10
96.1432
 20
327.943
 11
97.6747
 21
328.577
  0
LINE
  8
0
 10
97.6747
 20
328.577
 11
99.3182
 21
328.793
  0
LINE
  8
0
 10
99.3182
 20
328.793
 11
100.962
 21
328.577
  0
LINE
  8
0
 10
100.962
 20
328.577
 11
102.493
 21
327.943
  0
LINE
  8
0
 10
102.493
 20
327.943
 11
103.808
 21
326.933
  0
LINE
  8
0
 10
103.808
 20
326.933
 11
104.817
 21
325.618
  0
LINE
  8
0
 10
104.817
 20
325.618
 11
105.452
 21
324.087
  0
LINE
  8
0
 10
105.452
 20
324.087
 11
105.668
 21
322.443
  0
LINE
  8
0
 10
105.668
 20
322.443
 11
105.452
 21
320.8
  0
LINE
  8
0
 10
105.452
 20
320.8
 11
104.817
 21
319.268
  0
LINE
  8
0
 10
104.817
 20
319.268
 11
103.808
 21
317.953
  0
LINE
  8
0
 10
103.808
 20
317.953
 11
102.493
 21
316.944
  0
LINE
  8
0
 10
102.493
 20
316.944
 11
100.961
 21
316.31
  0
LINE
  8
0
 10
100.961
 20
316.31
 11
99.318
 21
316.093
  0
LINE
  8
0
 10
99.318
 20
316.093
 11
97.6745
 21
316.31
  0
LINE
  8
0
 10
97.6745
 20
316.31
 11
96.143
 21
316.944
  0
LINE
  8
0
 10
96.143
 20
316.944
 11
94.8279
 21
317.953
  0
LINE
  8
0
 10
94.8279
 20
317.953
 11
93.8188
 21
319.268
  0
LINE
  8
0
 10
93.8188
 20
319.268
 11
93.1844
 21
320.8
  0
LINE
  8
0
 10
93.1844
 20
320.8
 11
92.9681
 21
322.443
  0
LINE
  8
0
 10
119.975
 20
273.888
 11
120.192
 21
275.531
  0
LINE
  8
0
 10
120.192
 20
275.531
 11
120.826
 21
277.063
  0
LINE
  8
0
 10
120.826
 20
277.063
 11
121.835
 21
278.378
  0
LINE
  8
0
 10
121.835
 20
278.378
 11
123.151
 21
279.387
  0
LINE
  8
0
 10
123.151
 20
279.387
 11
124.682
 21
280.021
  0
LINE
  8
0
 10
124.682
 20
280.021
 11
126.326
 21
280.238
  0
LINE
  8
0
 10
126.326
 20
280.238
 11
127.969
 21
280.021
  0
LINE
  8
0
 10
127.969
 20
280.021
 11
129.501
 21
279.387
  0
LINE
  8
0
 10
129.501
 20
279.387
 11
130.816
 21
278.378
  0
LINE
  8
0
 10
130.816
 20
278.378
 11
131.825
 21
277.063
  0
LINE
  8
0
 10
131.825
 20
277.063
 11
132.459
 21
275.531
  0
LINE
  8
0
 10
132.459
 20
275.531
 11
132.675
 21
273.888
  0
LINE
  8
0
 10
132.675
 20
273.888
 11
132.459
 21
272.244
  0
LINE
  8
0
 10
132.459
 20
272.244
 11
131.825
 21
270.713
  0
LINE
  8
0
 10
131.825
 20
270.713
 11
130.816
 21
269.398
  0
LINE
  8
0
 10
130.816
 20
269.398
 11
129.5
 21
268.388
  0
LINE
  8
0
 10
129.5
 20
268.388
 11
127.969
 21
267.754
  0
LINE
  8
0
 10
127.969
 20
267.754
 11
126.325
 21
267.538
  0
LINE
  8
0
 10
126.325
 20
267.538
 11
124.682
 21
267.754
  0
LINE
  8
0
 10
124.682
 20
267.754
 11
123.15
 21
268.389
  0
LINE
  8
0
 10
123.15
 20
268.389
 11
121.835
 21
269.398
  0
LINE
  8
0
 10
121.835
 20
269.398
 11
120.826
 21
270.713
  0
LINE
  8
0
 10
120.826
 20
270.713
 11
120.192
 21
272.244
  0
LINE
  8
0
 10
120.192
 20
272.244
 11
119.975
 21
273.888
  0
LINE
  8
0
 10
215.225
 20
233.886
 11
215.347
 21
235.125
  0
LINE
  8
0
 10
215.347
 20
235.125
 11
215.708
 21
236.316
  0
LINE
  8
0
 10
215.708
 20
236.316
 11
216.295
 21
237.414
  0
LINE
  8
0
 10
216.295
 20
237.414
 11
217.085
 21
238.376
  0
LINE
  8
0
 10
217.085
 20
238.376
 11
218.047
 21
239.166
  0
LINE
  8
0
 10
218.047
 20
239.166
 11
219.145
 21
239.753
  0
LINE
  8
0
 10
219.145
 20
239.753
 11
220.336
 21
240.114
  0
LINE
  8
0
 10
220.336
 20
240.114
 11
221.575
 21
240.236
  0
LINE
  8
0
 10
221.575
 20
240.236
 11
222.814
 21
240.114
  0
LINE
  8
0
 10
222.814
 20
240.114
 11
224.005
 21
239.753
  0
LINE
  8
0
 10
224.005
 20
239.753
 11
225.103
 21
239.166
  0
LINE
  8
0
 10
225.103
 20
239.166
 11
226.065
 21
238.376
  0
LINE
  8
0
 10
226.065
 20
238.376
 11
226.855
 21
237.414
  0
LINE
  8
0
 10
226.855
 20
237.414
 11
227.441
 21
236.316
  0
LINE
  8
0
 10
227.441
 20
236.316
 11
227.803
 21
235.125
  0
LINE
  8
0
 10
227.803
 20
235.125
 11
227.925
 21
233.886
  0
LINE
  8
0
 10
227.925
 20
233.886
 11
227.803
 21
232.647
  0
LINE
  8
0
 10
227.803
 20
232.647
 11
227.441
 21
231.456
  0
LINE
  8
0
 10
227.441
 20
231.456
 11
226.855
 21
230.358
  0
LINE
  8
0
 10
226.855
 20
230.358
 11
226.065
 21
229.396
  0
LINE
  8
0
 10
226.065
 20
229.396
 11
225.103
 21
228.606
  0
LINE
  8
0
 10
225.103
 20
228.606
 11
224.005
 21
228.019
  0
LINE
  8
0
 10
224.005
 20
228.019
 11
222.813
 21
227.658
  0
LINE
  8
0
 10
222.813
 20
227.658
 11
221.575
 21
227.536
  0
LINE
  8
0
 10
221.575
 20
227.536
 11
220.336
 21
227.658
  0
LINE
  8
0
 10
220.336
 20
227.658
 11
219.145
 21
228.019
  0
LINE
  8
0
 10
219.145
 20
228.019
 11
218.047
 21
228.606
  0
LINE
  8
0
 10
218.047
 20
228.606
 11
217.085
 21
229.396
  0
LINE
  8
0
 10
217.085
 20
229.396
 11
216.295
 21
230.358
  0
LINE
  8
0
 10
216.295
 20
230.358
 11
215.708
 21
231.456
  0
LINE
  8
0
 10
215.708
 20
231.456
 11
215.347
 21
232.647
  0
LINE
  8
0
 10
215.347
 20
232.647
 11
215.225
 21
233.886
  0
LINE
  8
0
 10
215.226
 20
313.886
 11
215.348
 21
315.125
  0
LINE
  8
0
 10
215.348
 20
315.125
 11
215.71
 21
316.316
  0
LINE
  8
0
 10
215.71
 20
316.316
 11
216.296
 21
317.414
  0
LINE
  8
0
 10
216.296
 20
317.414
 11
217.086
 21
318.376
  0
LINE
  8
0
 10
217.086
 20
318.376
 11
218.048
 21
319.166
  0
LINE
  8
0
 10
218.048
 20
319.166
 11
219.146
 21
319.753
  0
LINE
  8
0
 10
219.146
 20
319.753
 11
220.337
 21
320.114
  0
LINE
  8
0
 10
220.337
 20
320.114
 11
221.576
 21
320.236
  0
LINE
  8
0
 10
221.576
 20
320.236
 11
222.815
 21
320.114
  0
LINE
  8
0
 10
222.815
 20
320.114
 11
224.006
 21
319.753
  0
LINE
  8
0
 10
224.006
 20
319.753
 11
225.104
 21
319.166
  0
LINE
  8
0
 10
225.104
 20
319.166
 11
226.066
 21
318.376
  0
LINE
  8
0
 10
226.066
 20
318.376
 11
226.856
 21
317.414
  0
LINE
  8
0
 10
226.856
 20
317.414
 11
227.443
 21
316.316
  0
LINE
  8
0
 10
227.443
 20
316.316
 11
227.804
 21
315.125
  0
LINE
  8
0
 10
227.804
 20
315.125
 11
227.926
 21
313.886
  0
LINE
  8
0
 10
227.926
 20
313.886
 11
227.804
 21
312.647
  0
LINE
  8
0
 10
227.804
 20
312.647
 11
227.443
 21
311.456
  0
LINE
  8
0
 10
227.443
 20
311.456
 11
226.856
 21
310.358
  0
LINE
  8
0
 10
226.856
 20
310.358
 11
226.066
 21
309.396
  0
LINE
  8
0
 10
226.066
 20
309.396
 11
225.104
 21
308.606
  0
LINE
  8
0
 10
225.104
 20
308.606
 11
224.006
 21
308.019
  0
LINE
  8
0
 10
224.006
 20
308.019
 11
222.815
 21
307.658
  0
LINE
  8
0
 10
222.815
 20
307.658
 11
221.576
 21
307.536
  0
LINE
  8
0
 10
221.576
 20
307.536
 11
220.337
 21
307.658
  0
LINE
  8
0
 10
220.337
 20
307.658
 11
219.146
 21
308.019
  0
LINE
  8
0
 10
219.146
 20
308.019
 11
218.048
 21
308.606
  0
LINE
  8
0
 10
218.048
 20
308.606
 11
217.086
 21
309.396
  0
LINE
  8
0
 10
217.086
 20
309.396
 11
216.296
 21
310.358
  0
LINE
  8
0
 10
216.296
 20
310.358
 11
215.709
 21
311.456
  0
LINE
  8
0
 10
215.709
 20
311.456
 11
215.348
 21
312.647
  0
LINE
  8
0
 10
215.348
 20
312.647
 11
215.226
 21
313.886
  0
LINE
  8
0
 10
315.225
 20
233.884
 11
315.347
 21
235.123
  0
LINE
  8
0
 10
315.347
 20
235.123
 11
315.708
 21
236.314
  0
LINE
  8
0
 10
315.708
 20
236.314
 11
316.295
 21
237.412
  0
LINE
  8
0
 10
316.295
 20
237.412
 11
317.085
 21
238.375
  0
LINE
  8
0
 10
317.085
 20
238.375
 11
318.047
 21
239.164
  0
LINE
  8
0
 10
318.047
 20
239.164
 11
319.145
 21
239.751
  0
LINE
  8
0
 10
319.145
 20
239.751
 11
320.336
 21
240.112
  0
LINE
  8
0
 10
320.336
 20
240.112
 11
321.575
 21
240.234
  0
LINE
  8
0
 10
321.575
 20
240.234
 11
322.814
 21
240.112
  0
LINE
  8
0
 10
322.814
 20
240.112
 11
324.005
 21
239.751
  0
LINE
  8
0
 10
324.005
 20
239.751
 11
325.103
 21
239.164
  0
LINE
  8
0
 10
325.103
 20
239.164
 11
326.065
 21
238.374
  0
LINE
  8
0
 10
326.065
 20
238.374
 11
326.855
 21
237.412
  0
LINE
  8
0
 10
326.855
 20
237.412
 11
327.441
 21
236.314
  0
LINE
  8
0
 10
327.441
 20
236.314
 11
327.803
 21
235.123
  0
LINE
  8
0
 10
327.803
 20
235.123
 11
327.925
 21
233.884
  0
LINE
  8
0
 10
327.925
 20
233.884
 11
327.803
 21
232.645
  0
LINE
  8
0
 10
327.803
 20
232.645
 11
327.441
 21
231.454
  0
LINE
  8
0
 10
327.441
 20
231.454
 11
326.855
 21
230.356
  0
LINE
  8
0
 10
326.855
 20
230.356
 11
326.065
 21
229.394
  0
LINE
  8
0
 10
326.065
 20
229.394
 11
325.103
 21
228.604
  0
LINE
  8
0
 10
325.103
 20
228.604
 11
324.005
 21
228.018
  0
LINE
  8
0
 10
324.005
 20
228.018
 11
322.813
 21
227.656
  0
LINE
  8
0
 10
322.813
 20
227.656
 11
321.575
 21
227.534
  0
LINE
  8
0
 10
321.575
 20
227.534
 11
320.336
 21
227.656
  0
LINE
  8
0
 10
320.336
 20
227.656
 11
319.145
 21
228.018
  0
LINE
  8
0
 10
319.145
 20
228.018
 11
318.047
 21
228.605
  0
LINE
  8
0
 10
318.047
 20
228.605
 11
317.085
 21
229.394
  0
LINE
  8
0
 10
317.085
 20
229.394
 11
316.295
 21
230.357
  0
LINE
  8
0
 10
316.295
 20
230.357
 11
315.708
 21
231.454
  0
LINE
  8
0
 10
315.708
 20
231.454
 11
315.347
 21
232.646
  0
LINE
  8
0
 10
315.347
 20
232.646
 11
315.225
 21
233.884
  0
LINE
  8
0
 10
315.226
 20
313.884
 11
315.348
 21
315.123
  0
LINE
  8
0
 10
315.348
 20
315.123
 11
315.71
 21
316.314
  0
LINE
  8
0
 10
315.71
 20
316.314
 11
316.296
 21
317.412
  0
LINE
  8
0
 10
316.296
 20
317.412
 11
317.086
 21
318.375
  0
LINE
  8
0
 10
317.086
 20
318.375
 11
318.048
 21
319.164
  0
LINE
  8
0
 10
318.048
 20
319.164
 11
319.146
 21
319.751
  0
LINE
  8
0
 10
319.146
 20
319.751
 11
320.337
 21
320.112
  0
LINE
  8
0
 10
320.337
 20
320.112
 11
321.576
 21
320.234
  0
LINE
  8
0
 10
321.576
 20
320.234
 11
322.815
 21
320.112
  0
LINE
  8
0
 10
322.815
 20
320.112
 11
324.006
 21
319.751
  0
LINE
  8
0
 10
324.006
 20
319.751
 11
325.104
 21
319.164
  0
LINE
  8
0
 10
325.104
 20
319.164
 11
326.066
 21
318.374
  0
LINE
  8
0
 10
326.066
 20
318.374
 11
326.856
 21
317.412
  0
LINE
  8
0
 10
326.856
 20
317.412
 11
327.443
 21
316.314
  0
LINE
  8
0
 10
327.443
 20
316.314
 11
327.804
 21
315.123
  0
LINE
  8
0
 10
327.804
 20
315.123
 11
327.926
 21
313.884
  0
LINE
  8
0
 10
327.926
 20
313.884
 11
327.804
 21
312.645
  0
LINE
  8
0
 10
327.804
 20
312.645
 11
327.443
 21
311.454
  0
LINE
  8
0
 10
327.443
 20
311.454
 11
326.856
 21
310.356
  0
LINE
  8
0
 10
326.856
 20
310.356
 11
326.066
 21
309.394
  0
LINE
  8
0
 10
326.066
 20
309.394
 11
325.104
 21
308.604
  0
LINE
  8
0
 10
325.104
 20
308.604
 11
324.006
 21
308.018
  0
LINE
  8
0
 10
324.006
 20
308.018
 11
322.815
 21
307.656
  0
LINE
  8
0
 10
322.815
 20
307.656
 11
321.576
 21
307.534
  0
LINE
  8
0
 10
321.576
 20
307.534
 11
320.337
 21
307.656
  0
LINE
  8
0
 10
320.337
 20
307.656
 11
319.146
 21
308.018
  0
LINE
  8
0
 10
319.146
 20
308.018
 11
318.048
 21
308.605
  0
LINE
  8
0
 10
318.048
 20
308.605
 11
317.086
 21
309.394
  0
LINE
  8
0
 10
317.086
 20
309.394
 11
316.296
 21
310.357
  0
LINE
  8
0
 10
316.296
 20
310.357
 11
315.709
 21
311.454
  0
LINE
  8
0
 10
315.709
 20
311.454
 11
315.348
 21
312.646
  0
LINE
  8
0
 10
315.348
 20
312.646
 11
315.226
 21
313.884
  0
LINE
  8
0
 10
729.453
 20
248.477
 11
729.454
 21
299.277
  0
LINE
  8
0
 10
729.454
 20
299.277
 11
881.854
 21
299.275
  0
LINE
  8
0
 10
881.854
 20
299.275
 11
881.853
 21
248.475
  0
LINE
  8
0
 10
881.853
 20
248.475
 11
729.453
 21
248.477
  0
LINE
  8
0
 10
748.502
 20
223.077
 11
748.624
 21
224.316
  0
LINE
  8
0
 10
748.624
 20
224.316
 11
748.986
 21
225.507
  0
LINE
  8
0
 10
748.986
 20
225.507
 11
749.573
 21
226.605
  0
LINE
  8
0
 10
749.573
 20
226.605
 11
750.362
 21
227.567
  0
LINE
  8
0
 10
750.362
 20
227.567
 11
751.325
 21
228.357
  0
LINE
  8
0
 10
751.325
 20
228.357
 11
752.422
 21
228.943
  0
LINE
  8
0
 10
752.422
 20
228.943
 11
753.614
 21
229.305
  0
LINE
  8
0
 10
753.614
 20
229.305
 11
754.852
 21
229.427
  0
LINE
  8
0
 10
754.852
 20
229.427
 11
756.091
 21
229.305
  0
LINE
  8
0
 10
756.091
 20
229.305
 11
757.283
 21
228.943
  0
LINE
  8
0
 10
757.283
 20
228.943
 11
758.38
 21
228.357
  0
LINE
  8
0
 10
758.38
 20
228.357
 11
759.343
 21
227.567
  0
LINE
  8
0
 10
759.343
 20
227.567
 11
760.132
 21
226.605
  0
LINE
  8
0
 10
760.132
 20
226.605
 11
760.719
 21
225.507
  0
LINE
  8
0
 10
760.719
 20
225.507
 11
761.08
 21
224.315
  0
LINE
  8
0
 10
761.08
 20
224.315
 11
761.202
 21
223.077
  0
LINE
  8
0
 10
761.202
 20
223.077
 11
761.08
 21
221.838
  0
LINE
  8
0
 10
761.08
 20
221.838
 11
760.719
 21
220.647
  0
LINE
  8
0
 10
760.719
 20
220.647
 11
760.132
 21
219.549
  0
LINE
  8
0
 10
760.132
 20
219.549
 11
759.342
 21
218.587
  0
LINE
  8
0
 10
759.342
 20
218.587
 11
758.38
 21
217.797
  0
LINE
  8
0
 10
758.38
 20
217.797
 11
757.282
 21
217.21
  0
LINE
  8
0
 10
757.282
 20
217.21
 11
756.091
 21
216.849
  0
LINE
  8
0
 10
756.091
 20
216.849
 11
754.852
 21
216.727
  0
LINE
  8
0
 10
754.852
 20
216.727
 11
753.613
 21
216.849
  0
LINE
  8
0
 10
753.613
 20
216.849
 11
752.422
 21
217.21
  0
LINE
  8
0
 10
752.422
 20
217.21
 11
751.324
 21
217.797
  0
LINE
  8
0
 10
751.324
 20
217.797
 11
750.362
 21
218.587
  0
LINE
  8
0
 10
750.362
 20
218.587
 11
749.572
 21
219.549
  0
LINE
  8
0
 10
749.572
 20
219.549
 11
748.986
 21
220.647
  0
LINE
  8
0
 10
748.986
 20
220.647
 11
748.624
 21
221.838
  0
LINE
  8
0
 10
748.624
 20
221.838
 11
748.502
 21
223.077
  0
LINE
  8
0
 10
748.504
 20
324.677
 11
748.626
 21
325.916
  0
LINE
  8
0
 10
748.626
 20
325.916
 11
748.988
 21
327.107
  0
LINE
  8
0
 10
748.988
 20
327.107
 11
749.574
 21
328.205
  0
LINE
  8
0
 10
749.574
 20
328.205
 11
750.364
 21
329.167
  0
LINE
  8
0
 10
750.364
 20
329.167
 11
751.326
 21
329.957
  0
LINE
  8
0
 10
751.326
 20
329.957
 11
752.424
 21
330.543
  0
LINE
  8
0
 10
752.424
 20
330.543
 11
753.615
 21
330.905
  0
LINE
  8
0
 10
753.615
 20
330.905
 11
754.854
 21
331.027
  0
LINE
  8
0
 10
754.854
 20
331.027
 11
756.093
 21
330.905
  0
LINE
  8
0
 10
756.093
 20
330.905
 11
757.284
 21
330.543
  0
LINE
  8
0
 10
757.284
 20
330.543
 11
758.382
 21
329.957
  0
LINE
  8
0
 10
758.382
 20
329.957
 11
759.344
 21
329.167
  0
LINE
  8
0
 10
759.344
 20
329.167
 11
760.134
 21
328.205
  0
LINE
  8
0
 10
760.134
 20
328.205
 11
760.721
 21
327.107
  0
LINE
  8
0
 10
760.721
 20
327.107
 11
761.082
 21
325.915
  0
LINE
  8
0
 10
761.082
 20
325.915
 11
761.204
 21
324.677
  0
LINE
  8
0
 10
761.204
 20
324.677
 11
761.082
 21
323.438
  0
LINE
  8
0
 10
761.082
 20
323.438
 11
760.721
 21
322.247
  0
LINE
  8
0
 10
760.721
 20
322.247
 11
760.134
 21
321.149
  0
LINE
  8
0
 10
760.134
 20
321.149
 11
759.344
 21
320.187
  0
LINE
  8
0
 10
759.344
 20
320.187
 11
758.382
 21
319.397
  0
LINE
  8
0
 10
758.382
 20
319.397
 11
757.284
 21
318.81
  0
LINE
  8
0
 10
757.284
 20
318.81
 11
756.093
 21
318.449
  0
LINE
  8
0
 10
756.093
 20
318.449
 11
754.854
 21
318.327
  0
LINE
  8
0
 10
754.854
 20
318.327
 11
753.615
 21
318.449
  0
LINE
  8
0
 10
753.615
 20
318.449
 11
752.424
 21
318.81
  0
LINE
  8
0
 10
752.424
 20
318.81
 11
751.326
 21
319.397
  0
LINE
  8
0
 10
751.326
 20
319.397
 11
750.364
 21
320.187
  0
LINE
  8
0
 10
750.364
 20
320.187
 11
749.574
 21
321.149
  0
LINE
  8
0
 10
749.574
 20
321.149
 11
748.987
 21
322.247
  0
LINE
  8
0
 10
748.987
 20
322.247
 11
748.626
 21
323.438
  0
LINE
  8
0
 10
748.626
 20
323.438
 11
748.504
 21
324.677
  0
LINE
  8
0
 10
850.102
 20
223.075
 11
850.224
 21
224.314
  0
LINE
  8
0
 10
850.224
 20
224.314
 11
850.586
 21
225.505
  0
LINE
  8
0
 10
850.586
 20
225.505
 11
851.173
 21
226.603
  0
LINE
  8
0
 10
851.173
 20
226.603
 11
851.962
 21
227.565
  0
LINE
  8
0
 10
851.962
 20
227.565
 11
852.925
 21
228.355
  0
LINE
  8
0
 10
852.925
 20
228.355
 11
854.022
 21
228.942
  0
LINE
  8
0
 10
854.022
 20
228.942
 11
855.214
 21
229.303
  0
LINE
  8
0
 10
855.214
 20
229.303
 11
856.452
 21
229.425
  0
LINE
  8
0
 10
856.452
 20
229.425
 11
857.691
 21
229.303
  0
LINE
  8
0
 10
857.691
 20
229.303
 11
858.883
 21
228.942
  0
LINE
  8
0
 10
858.883
 20
228.942
 11
859.98
 21
228.355
  0
LINE
  8
0
 10
859.98
 20
228.355
 11
860.943
 21
227.565
  0
LINE
  8
0
 10
860.943
 20
227.565
 11
861.732
 21
226.603
  0
LINE
  8
0
 10
861.732
 20
226.603
 11
862.319
 21
225.505
  0
LINE
  8
0
 10
862.319
 20
225.505
 11
862.68
 21
224.314
  0
LINE
  8
0
 10
862.68
 20
224.314
 11
862.802
 21
223.075
  0
LINE
  8
0
 10
862.802
 20
223.075
 11
862.68
 21
221.836
  0
LINE
  8
0
 10
862.68
 20
221.836
 11
862.319
 21
220.645
  0
LINE
  8
0
 10
862.319
 20
220.645
 11
861.732
 21
219.547
  0
LINE
  8
0
 10
861.732
 20
219.547
 11
860.942
 21
218.585
  0
LINE
  8
0
 10
860.942
 20
218.585
 11
859.98
 21
217.795
  0
LINE
  8
0
 10
859.98
 20
217.795
 11
858.882
 21
217.208
  0
LINE
  8
0
 10
858.882
 20
217.208
 11
857.691
 21
216.847
  0
LINE
  8
0
 10
857.691
 20
216.847
 11
856.452
 21
216.725
  0
LINE
  8
0
 10
856.452
 20
216.725
 11
855.213
 21
216.847
  0
LINE
  8
0
 10
855.213
 20
216.847
 11
854.022
 21
217.208
  0
LINE
  8
0
 10
854.022
 20
217.208
 11
852.924
 21
217.795
  0
LINE
  8
0
 10
852.924
 20
217.795
 11
851.962
 21
218.585
  0
LINE
  8
0
 10
851.962
 20
218.585
 11
851.172
 21
219.547
  0
LINE
  8
0
 10
851.172
 20
219.547
 11
850.586
 21
220.645
  0
LINE
  8
0
 10
850.586
 20
220.645
 11
850.224
 21
221.836
  0
LINE
  8
0
 10
850.224
 20
221.836
 11
850.102
 21
223.075
  0
LINE
  8
0
 10
850.104
 20
324.675
 11
850.226
 21
325.914
  0
LINE
  8
0
 10
850.226
 20
325.914
 11
850.588
 21
327.105
  0
LINE
  8
0
 10
850.588
 20
327.105
 11
851.174
 21
328.203
  0
LINE
  8
0
 10
851.174
 20
328.203
 11
851.964
 21
329.165
  0
LINE
  8
0
 10
851.964
 20
329.165
 11
852.926
 21
329.955
  0
LINE
  8
0
 10
852.926
 20
329.955
 11
854.024
 21
330.542
  0
LINE
  8
0
 10
854.024
 20
330.542
 11
855.215
 21
330.903
  0
LINE
  8
0
 10
855.215
 20
330.903
 11
856.454
 21
331.025
  0
LINE
  8
0
 10
856.454
 20
331.025
 11
857.693
 21
330.903
  0
LINE
  8
0
 10
857.693
 20
330.903
 11
858.884
 21
330.542
  0
LINE
  8
0
 10
858.884
 20
330.542
 11
859.982
 21
329.955
  0
LINE
  8
0
 10
859.982
 20
329.955
 11
860.944
 21
329.165
  0
LINE
  8
0
 10
860.944
 20
329.165
 11
861.734
 21
328.203
  0
LINE
  8
0
 10
861.734
 20
328.203
 11
862.321
 21
327.105
  0
LINE
  8
0
 10
862.321
 20
327.105
 11
862.682
 21
325.914
  0
LINE
  8
0
 10
862.682
 20
325.914
 11
862.804
 21
324.675
  0
LINE
  8
0
 10
862.804
 20
324.675
 11
862.682
 21
323.436
  0
LINE
  8
0
 10
862.682
 20
323.436
 11
862.321
 21
322.245
  0
LINE
  8
0
 10
862.321
 20
322.245
 11
861.734
 21
321.147
  0
LINE
  8
0
 10
861.734
 20
321.147
 11
860.944
 21
320.185
  0
LINE
  8
0
 10
860.944
 20
320.185
 11
859.982
 21
319.395
  0
LINE
  8
0
 10
859.982
 20
319.395
 11
858.884
 21
318.808
  0
LINE
  8
0
 10
858.884
 20
318.808
 11
857.693
 21
318.447
  0
LINE
  8
0
 10
857.693
 20
318.447
 11
856.454
 21
318.325
  0
LINE
  8
0
 10
856.454
 20
318.325
 11
855.215
 21
318.447
  0
LINE
  8
0
 10
855.215
 20
318.447
 11
854.024
 21
318.808
  0
LINE
  8
0
 10
854.024
 20
318.808
 11
852.926
 21
319.395
  0
LINE
  8
0
 10
852.926
 20
319.395
 11
851.964
 21
320.185
  0
LINE
  8
0
 10
851.964
 20
320.185
 11
851.174
 21
321.147
  0
LINE
  8
0
 10
851.174
 20
321.147
 11
850.587
 21
322.245
  0
LINE
  8
0
 10
850.587
 20
322.245
 11
850.226
 21
323.436
  0
LINE
  8
0
 10
850.226
 20
323.436
 11
850.104
 21
324.675
  0
LINE
  8
0
 10
883.973
 20
159.574
 11
884.237
 21
162.247
  0
LINE
  8
0
 10
884.237
 20
162.247
 11
885.016
 21
164.817
  0
LINE
  8
0
 10
885.016
 20
164.817
 11
886.282
 21
167.186
  0
LINE
  8
0
 10
886.282
 20
167.186
 11
887.986
 21
169.262
  0
LINE
  8
0
 10
887.986
 20
169.262
 11
890.062
 21
170.966
  0
LINE
  8
0
 10
890.062
 20
170.966
 11
892.431
 21
172.231
  0
LINE
  8
0
 10
892.431
 20
172.231
 11
895.001
 21
173.011
  0
LINE
  8
0
 10
895.001
 20
173.011
 11
897.674
 21
173.274
  0
LINE
  8
0
 10
897.674
 20
173.274
 11
900.346
 21
173.011
  0
LINE
  8
0
 10
900.346
 20
173.011
 11
902.916
 21
172.231
  0
LINE
  8
0
 10
902.916
 20
172.231
 11
905.285
 21
170.965
  0
LINE
  8
0
 10
905.285
 20
170.965
 11
907.361
 21
169.261
  0
LINE
  8
0
 10
907.361
 20
169.261
 11
909.065
 21
167.185
  0
LINE
  8
0
 10
909.065
 20
167.185
 11
910.331
 21
164.817
  0
LINE
  8
0
 10
910.331
 20
164.817
 11
911.11
 21
162.247
  0
LINE
  8
0
 10
911.11
 20
162.247
 11
911.373
 21
159.574
  0
LINE
  8
0
 10
911.373
 20
159.574
 11
911.11
 21
156.901
  0
LINE
  8
0
 10
911.11
 20
156.901
 11
910.331
 21
154.331
  0
LINE
  8
0
 10
910.331
 20
154.331
 11
909.064
 21
151.963
  0
LINE
  8
0
 10
909.064
 20
151.963
 11
907.361
 21
149.887
  0
LINE
  8
0
 10
907.361
 20
149.887
 11
905.285
 21
148.183
  0
LINE
  8
0
 10
905.285
 20
148.183
 11
902.916
 21
146.917
  0
LINE
  8
0
 10
902.916
 20
146.917
 11
900.346
 21
146.137
  0
LINE
  8
0
 10
900.346
 20
146.137
 11
897.673
 21
145.874
  0
LINE
  8
0
 10
897.673
 20
145.874
 11
895
 21
146.138
  0
LINE
  8
0
 10
895
 20
146.138
 11
892.43
 21
146.917
  0
LINE
  8
0
 10
892.43
 20
146.917
 11
890.062
 21
148.183
  0
LINE
  8
0
 10
890.062
 20
148.183
 11
887.986
 21
149.887
  0
LINE
  8
0
 10
887.986
 20
149.887
 11
886.282
 21
151.963
  0
LINE
  8
0
 10
886.282
 20
151.963
 11
885.016
 21
154.332
  0
LINE
  8
0
 10
885.016
 20
154.332
 11
884.237
 21
156.902
  0
LINE
  8
0
 10
884.237
 20
156.902
 11
883.973
 21
159.574
  0
LINE
  8
0
 10
942.125
 20
273.873
 11
942.247
 21
275.112
  0
LINE
  8
0
 10
942.247
 20
275.112
 11
942.609
 21
276.303
  0
LINE
  8
0
 10
942.609
 20
276.303
 11
943.196
 21
277.401
  0
LINE
  8
0
 10
943.196
 20
277.401
 11
943.985
 21
278.364
  0
LINE
  8
0
 10
943.985
 20
278.364
 11
944.948
 21
279.153
  0
LINE
  8
0
 10
944.948
 20
279.153
 11
946.046
 21
279.74
  0
LINE
  8
0
 10
946.046
 20
279.74
 11
947.237
 21
280.101
  0
LINE
  8
0
 10
947.237
 20
280.101
 11
948.476
 21
280.223
  0
LINE
  8
0
 10
948.476
 20
280.223
 11
949.714
 21
280.101
  0
LINE
  8
0
 10
949.714
 20
280.101
 11
950.906
 21
279.74
  0
LINE
  8
0
 10
950.906
 20
279.74
 11
952.003
 21
279.153
  0
LINE
  8
0
 10
952.003
 20
279.153
 11
952.966
 21
278.363
  0
LINE
  8
0
 10
952.966
 20
278.363
 11
953.755
 21
277.401
  0
LINE
  8
0
 10
953.755
 20
277.401
 11
954.342
 21
276.303
  0
LINE
  8
0
 10
954.342
 20
276.303
 11
954.703
 21
275.112
  0
LINE
  8
0
 10
954.703
 20
275.112
 11
954.825
 21
273.873
  0
LINE
  8
0
 10
954.825
 20
273.873
 11
954.703
 21
272.634
  0
LINE
  8
0
 10
954.703
 20
272.634
 11
954.342
 21
271.443
  0
LINE
  8
0
 10
954.342
 20
271.443
 11
953.755
 21
270.345
  0
LINE
  8
0
 10
953.755
 20
270.345
 11
952.966
 21
269.383
  0
LINE
  8
0
 10
952.966
 20
269.383
 11
952.003
 21
268.593
  0
LINE
  8
0
 10
952.003
 20
268.593
 11
950.905
 21
268.007
  0
LINE
  8
0
 10
950.905
 20
268.007
 11
949.714
 21
267.645
  0
LINE
  8
0
 10
949.714
 20
267.645
 11
948.475
 21
267.523
  0
LINE
  8
0
 10
948.475
 20
267.523
 11
947.237
 21
267.645
  0
LINE
  8
0
 10
947.237
 20
267.645
 11
946.045
 21
268.007
  0
LINE
  8
0
 10
946.045
 20
268.007
 11
944.947
 21
268.594
  0
LINE
  8
0
 10
944.947
 20
268.594
 11
943.985
 21
269.383
  0
LINE
  8
0
 10
943.985
 20
269.383
 11
943.196
 21
270.346
  0
LINE
  8
0
 10
943.196
 20
270.346
 11
942.609
 21
271.443
  0
LINE
  8
0
 10
942.609
 20
271.443
 11
942.247
 21
272.635
  0
LINE
  8
0
 10
942.247
 20
272.635
 11
942.125
 21
273.873
  0
LINE
  8
0
 10
992.925
 20
273.873
 11
993.047
 21
275.111
  0
LINE
  8
0
 10
993.047
 20
275.111
 11
993.409
 21
276.303
  0
LINE
  8
0
 10
993.409
 20
276.303
 11
993.996
 21
277.4
  0
LINE
  8
0
 10
993.996
 20
277.4
 11
994.785
 21
278.363
  0
LINE
  8
0
 10
994.785
 20
278.363
 11
995.748
 21
279.152
  0
LINE
  8
0
 10
995.748
 20
279.152
 11
996.846
 21
279.739
  0
LINE
  8
0
 10
996.846
 20
279.739
 11
998.037
 21
280.1
  0
LINE
  8
0
 10
998.037
 20
280.1
 11
999.276
 21
280.222
  0
LINE
  8
0
 10
999.276
 20
280.222
 11
1000.51
 21
280.1
  0
LINE
  8
0
 10
1000.51
 20
280.1
 11
1001.71
 21
279.739
  0
LINE
  8
0
 10
1001.71
 20
279.739
 11
1002.8
 21
279.152
  0
LINE
  8
0
 10
1002.8
 20
279.152
 11
1003.77
 21
278.363
  0
LINE
  8
0
 10
1003.77
 20
278.363
 11
1004.56
 21
277.4
  0
LINE
  8
0
 10
1004.56
 20
277.4
 11
1005.14
 21
276.302
  0
LINE
  8
0
 10
1005.14
 20
276.302
 11
1005.5
 21
275.111
  0
LINE
  8
0
 10
1005.5
 20
275.111
 11
1005.63
 21
273.872
  0
LINE
  8
0
 10
1005.63
 20
273.872
 11
1005.5
 21
272.634
  0
LINE
  8
0
 10
1005.5
 20
272.634
 11
1005.14
 21
271.442
  0
LINE
  8
0
 10
1005.14
 20
271.442
 11
1004.56
 21
270.345
  0
LINE
  8
0
 10
1004.56
 20
270.345
 11
1003.77
 21
269.382
  0
LINE
  8
0
 10
1003.77
 20
269.382
 11
1002.8
 21
268.593
  0
LINE
  8
0
 10
1002.8
 20
268.593
 11
1001.71
 21
268.006
  0
LINE
  8
0
 10
1001.71
 20
268.006
 11
1000.51
 21
267.644
  0
LINE
  8
0
 10
1000.51
 20
267.644
 11
999.275
 21
267.522
  0
LINE
  8
0
 10
999.275
 20
267.522
 11
998.037
 21
267.645
  0
LINE
  8
0
 10
998.037
 20
267.645
 11
996.845
 21
268.006
  0
LINE
  8
0
 10
996.845
 20
268.006
 11
995.747
 21
268.593
  0
LINE
  8
0
 10
995.747
 20
268.593
 11
994.785
 21
269.382
  0
LINE
  8
0
 10
994.785
 20
269.382
 11
993.996
 21
270.345
  0
LINE
  8
0
 10
993.996
 20
270.345
 11
993.409
 21
271.443
  0
LINE
  8
0
 10
993.409
 20
271.443
 11
993.047
 21
272.634
  0
LINE
  8
0
 10
993.047
 20
272.634
 11
992.925
 21
273.873
  0
LINE
  8
0
 10
1370.15
 20
233.866
 11
1370.27
 21
235.105
  0
LINE
  8
0
 10
1370.27
 20
235.105
 11
1370.63
 21
236.296
  0
LINE
  8
0
 10
1370.63
 20
236.296
 11
1371.22
 21
237.394
  0
LINE
  8
0
 10
1371.22
 20
237.394
 11
1372.01
 21
238.356
  0
LINE
  8
0
 10
1372.01
 20
238.356
 11
1372.97
 21
239.146
  0
LINE
  8
0
 10
1372.97
 20
239.146
 11
1374.07
 21
239.733
  0
LINE
  8
0
 10
1374.07
 20
239.733
 11
1375.26
 21
240.094
  0
LINE
  8
0
 10
1375.26
 20
240.094
 11
1376.5
 21
240.216
  0
LINE
  8
0
 10
1376.5
 20
240.216
 11
1377.74
 21
240.094
  0
LINE
  8
0
 10
1377.74
 20
240.094
 11
1378.93
 21
239.732
  0
LINE
  8
0
 10
1378.93
 20
239.732
 11
1380.02
 21
239.146
  0
LINE
  8
0
 10
1380.02
 20
239.146
 11
1380.99
 21
238.356
  0
LINE
  8
0
 10
1380.99
 20
238.356
 11
1381.78
 21
237.394
  0
LINE
  8
0
 10
1381.78
 20
237.394
 11
1382.36
 21
236.296
  0
LINE
  8
0
 10
1382.36
 20
236.296
 11
1382.72
 21
235.105
  0
LINE
  8
0
 10
1382.72
 20
235.105
 11
1382.85
 21
233.866
  0
LINE
  8
0
 10
1382.85
 20
233.866
 11
1382.72
 21
232.627
  0
LINE
  8
0
 10
1382.72
 20
232.627
 11
1382.36
 21
231.436
  0
LINE
  8
0
 10
1382.36
 20
231.436
 11
1381.78
 21
230.338
  0
LINE
  8
0
 10
1381.78
 20
230.338
 11
1380.99
 21
229.376
  0
LINE
  8
0
 10
1380.99
 20
229.376
 11
1380.02
 21
228.586
  0
LINE
  8
0
 10
1380.02
 20
228.586
 11
1378.93
 21
227.999
  0
LINE
  8
0
 10
1378.93
 20
227.999
 11
1377.74
 21
227.638
  0
LINE
  8
0
 10
1377.74
 20
227.638
 11
1376.5
 21
227.516
  0
LINE
  8
0
 10
1376.5
 20
227.516
 11
1375.26
 21
227.638
  0
LINE
  8
0
 10
1375.26
 20
227.638
 11
1374.07
 21
227.999
  0
LINE
  8
0
 10
1374.07
 20
227.999
 11
1372.97
 21
228.586
  0
LINE
  8
0
 10
1372.97
 20
228.586
 11
1372.01
 21
229.376
  0
LINE
  8
0
 10
1372.01
 20
229.376
 11
1371.22
 21
230.338
  0
LINE
  8
0
 10
1371.22
 20
230.338
 11
1370.63
 21
231.436
  0
LINE
  8
0
 10
1370.63
 20
231.436
 11
1370.27
 21
232.627
  0
LINE
  8
0
 10
1370.27
 20
232.627
 11
1370.15
 21
233.866
  0
LINE
  8
0
 10
1370.15
 20
313.866
 11
1370.27
 21
315.105
  0
LINE
  8
0
 10
1370.27
 20
315.105
 11
1370.63
 21
316.296
  0
LINE
  8
0
 10
1370.63
 20
316.296
 11
1371.22
 21
317.394
  0
LINE
  8
0
 10
1371.22
 20
317.394
 11
1372.01
 21
318.356
  0
LINE
  8
0
 10
1372.01
 20
318.356
 11
1372.97
 21
319.146
  0
LINE
  8
0
 10
1372.97
 20
319.146
 11
1374.07
 21
319.733
  0
LINE
  8
0
 10
1374.07
 20
319.733
 11
1375.26
 21
320.094
  0
LINE
  8
0
 10
1375.26
 20
320.094
 11
1376.5
 21
320.216
  0
LINE
  8
0
 10
1376.5
 20
320.216
 11
1377.74
 21
320.094
  0
LINE
  8
0
 10
1377.74
 20
320.094
 11
1378.93
 21
319.732
  0
LINE
  8
0
 10
1378.93
 20
319.732
 11
1380.03
 21
319.146
  0
LINE
  8
0
 10
1380.03
 20
319.146
 11
1380.99
 21
318.356
  0
LINE
  8
0
 10
1380.99
 20
318.356
 11
1381.78
 21
317.394
  0
LINE
  8
0
 10
1381.78
 20
317.394
 11
1382.36
 21
316.296
  0
LINE
  8
0
 10
1382.36
 20
316.296
 11
1382.73
 21
315.105
  0
LINE
  8
0
 10
1382.73
 20
315.105
 11
1382.85
 21
313.866
  0
LINE
  8
0
 10
1382.85
 20
313.866
 11
1382.73
 21
312.627
  0
LINE
  8
0
 10
1382.73
 20
312.627
 11
1382.36
 21
311.436
  0
LINE
  8
0
 10
1382.36
 20
311.436
 11
1381.78
 21
310.338
  0
LINE
  8
0
 10
1381.78
 20
310.338
 11
1380.99
 21
309.376
  0
LINE
  8
0
 10
1380.99
 20
309.376
 11
1380.03
 21
308.586
  0
LINE
  8
0
 10
1380.03
 20
308.586
 11
1378.93
 21
307.999
  0
LINE
  8
0
 10
1378.93
 20
307.999
 11
1377.74
 21
307.638
  0
LINE
  8
0
 10
1377.74
 20
307.638
 11
1376.5
 21
307.516
  0
LINE
  8
0
 10
1376.5
 20
307.516
 11
1375.26
 21
307.638
  0
LINE
  8
0
 10
1375.26
 20
307.638
 11
1374.07
 21
307.999
  0
LINE
  8
0
 10
1374.07
 20
307.999
 11
1372.97
 21
308.586
  0
LINE
  8
0
 10
1372.97
 20
308.586
 11
1372.01
 21
309.376
  0
LINE
  8
0
 10
1372.01
 20
309.376
 11
1371.22
 21
310.338
  0
LINE
  8
0
 10
1371.22
 20
310.338
 11
1370.63
 21
311.436
  0
LINE
  8
0
 10
1370.63
 20
311.436
 11
1370.27
 21
312.627
  0
LINE
  8
0
 10
1370.27
 20
312.627
 11
1370.15
 21
313.866
  0
LINE
  8
0
 10
1470.15
 20
233.864
 11
1470.27
 21
235.103
  0
LINE
  8
0
 10
1470.27
 20
235.103
 11
1470.63
 21
236.294
  0
LINE
  8
0
 10
1470.63
 20
236.294
 11
1471.22
 21
237.392
  0
LINE
  8
0
 10
1471.22
 20
237.392
 11
1472.01
 21
238.354
  0
LINE
  8
0
 10
1472.01
 20
238.354
 11
1472.97
 21
239.144
  0
LINE
  8
0
 10
1472.97
 20
239.144
 11
1474.07
 21
239.731
  0
LINE
  8
0
 10
1474.07
 20
239.731
 11
1475.26
 21
240.092
  0
LINE
  8
0
 10
1475.26
 20
240.092
 11
1476.5
 21
240.214
  0
LINE
  8
0
 10
1476.5
 20
240.214
 11
1477.74
 21
240.092
  0
LINE
  8
0
 10
1477.74
 20
240.092
 11
1478.93
 21
239.731
  0
LINE
  8
0
 10
1478.93
 20
239.731
 11
1480.02
 21
239.144
  0
LINE
  8
0
 10
1480.02
 20
239.144
 11
1480.99
 21
238.354
  0
LINE
  8
0
 10
1480.99
 20
238.354
 11
1481.78
 21
237.392
  0
LINE
  8
0
 10
1481.78
 20
237.392
 11
1482.36
 21
236.294
  0
LINE
  8
0
 10
1482.36
 20
236.294
 11
1482.72
 21
235.103
  0
LINE
  8
0
 10
1482.72
 20
235.103
 11
1482.85
 21
233.864
  0
LINE
  8
0
 10
1482.85
 20
233.864
 11
1482.72
 21
232.625
  0
LINE
  8
0
 10
1482.72
 20
232.625
 11
1482.36
 21
231.434
  0
LINE
  8
0
 10
1482.36
 20
231.434
 11
1481.78
 21
230.336
  0
LINE
  8
0
 10
1481.78
 20
230.336
 11
1480.99
 21
229.374
  0
LINE
  8
0
 10
1480.99
 20
229.374
 11
1480.02
 21
228.584
  0
LINE
  8
0
 10
1480.02
 20
228.584
 11
1478.93
 21
227.997
  0
LINE
  8
0
 10
1478.93
 20
227.997
 11
1477.74
 21
227.636
  0
LINE
  8
0
 10
1477.74
 20
227.636
 11
1476.5
 21
227.514
  0
LINE
  8
0
 10
1476.5
 20
227.514
 11
1475.26
 21
227.636
  0
LINE
  8
0
 10
1475.26
 20
227.636
 11
1474.07
 21
227.998
  0
LINE
  8
0
 10
1474.07
 20
227.998
 11
1472.97
 21
228.584
  0
LINE
  8
0
 10
1472.97
 20
228.584
 11
1472.01
 21
229.374
  0
LINE
  8
0
 10
1472.01
 20
229.374
 11
1471.22
 21
230.336
  0
LINE
  8
0
 10
1471.22
 20
230.336
 11
1470.63
 21
231.434
  0
LINE
  8
0
 10
1470.63
 20
231.434
 11
1470.27
 21
232.625
  0
LINE
  8
0
 10
1470.27
 20
232.625
 11
1470.15
 21
233.864
  0
LINE
  8
0
 10
1470.15
 20
313.864
 11
1470.27
 21
315.103
  0
LINE
  8
0
 10
1470.27
 20
315.103
 11
1470.63
 21
316.294
  0
LINE
  8
0
 10
1470.63
 20
316.294
 11
1471.22
 21
317.392
  0
LINE
  8
0
 10
1471.22
 20
317.392
 11
1472.01
 21
318.354
  0
LINE
  8
0
 10
1472.01
 20
318.354
 11
1472.97
 21
319.144
  0
LINE
  8
0
 10
1472.97
 20
319.144
 11
1474.07
 21
319.731
  0
LINE
  8
0
 10
1474.07
 20
319.731
 11
1475.26
 21
320.092
  0
LINE
  8
0
 10
1475.26
 20
320.092
 11
1476.5
 21
320.214
  0
LINE
  8
0
 10
1476.5
 20
320.214
 11
1477.74
 21
320.092
  0
LINE
  8
0
 10
1477.74
 20
320.092
 11
1478.93
 21
319.731
  0
LINE
  8
0
 10
1478.93
 20
319.731
 11
1480.03
 21
319.144
  0
LINE
  8
0
 10
1480.03
 20
319.144
 11
1480.99
 21
318.354
  0
LINE
  8
0
 10
1480.99
 20
318.354
 11
1481.78
 21
317.392
  0
LINE
  8
0
 10
1481.78
 20
317.392
 11
1482.36
 21
316.294
  0
LINE
  8
0
 10
1482.36
 20
316.294
 11
1482.73
 21
315.103
  0
LINE
  8
0
 10
1482.73
 20
315.103
 11
1482.85
 21
313.864
  0
LINE
  8
0
 10
1482.85
 20
313.864
 11
1482.73
 21
312.625
  0
LINE
  8
0
 10
1482.73
 20
312.625
 11
1482.36
 21
311.434
  0
LINE
  8
0
 10
1482.36
 20
311.434
 11
1481.78
 21
310.336
  0
LINE
  8
0
 10
1481.78
 20
310.336
 11
1480.99
 21
309.374
  0
LINE
  8
0
 10
1480.99
 20
309.374
 11
1480.03
 21
308.584
  0
LINE
  8
0
 10
1480.03
 20
308.584
 11
1478.93
 21
307.997
  0
LINE
  8
0
 10
1478.93
 20
307.997
 11
1477.74
 21
307.636
  0
LINE
  8
0
 10
1477.74
 20
307.636
 11
1476.5
 21
307.514
  0
LINE
  8
0
 10
1476.5
 20
307.514
 11
1475.26
 21
307.636
  0
LINE
  8
0
 10
1475.26
 20
307.636
 11
1474.07
 21
307.998
  0
LINE
  8
0
 10
1474.07
 20
307.998
 11
1472.97
 21
308.584
  0
LINE
  8
0
 10
1472.97
 20
308.584
 11
1472.01
 21
309.374
  0
LINE
  8
0
 10
1472.01
 20
309.374
 11
1471.22
 21
310.336
  0
LINE
  8
0
 10
1471.22
 20
310.336
 11
1470.63
 21
311.434
  0
LINE
  8
0
 10
1470.63
 20
311.434
 11
1470.27
 21
312.625
  0
LINE
  8
0
 10
1470.27
 20
312.625
 11
1470.15
 21
313.864
  0
LINE
  8
0
 10
1753.96
 20
26.445
 11
1754.42
 21
28.892
  0
LINE
  8
0
 10
1754.42
 20
28.892
 11
1755.34
 21
31.2024
  0
LINE
  8
0
 10
1755.34
 20
31.2024
 11
1756.7
 21
33.2873
  0
LINE
  8
0
 10
1756.7
 20
33.2873
 11
1758.45
 21
35.0669
  0
LINE
  8
0
 10
1758.45
 20
35.0669
 11
1760.5
 21
36.4725
  0
LINE
  8
0
 10
1760.5
 20
36.4725
 11
1762.79
 21
37.4502
  0
LINE
  8
0
 10
1762.79
 20
37.4502
 11
1765.23
 21
37.9625
  0
LINE
  8
0
 10
1765.23
 20
37.9625
 11
1767.72
 21
37.9896
  0
LINE
  8
0
 10
1767.72
 20
37.9896
 11
1770.16
 21
37.5305
  0
LINE
  8
0
 10
1770.16
 20
37.5305
 11
1772.47
 21
36.6029
  0
LINE
  8
0
 10
1772.47
 20
36.6029
 11
1774.56
 21
35.2423
  0
LINE
  8
0
 10
1774.56
 20
35.2423
 11
1776.34
 21
33.5012
  0
LINE
  8
0
 10
1776.34
 20
33.5012
 11
1777.74
 21
31.4463
  0
LINE
  8
0
 10
1777.74
 20
31.4463
 11
1778.72
 21
29.1567
  0
LINE
  8
0
 10
1778.72
 20
29.1567
 11
1779.23
 21
26.7203
  0
LINE
  8
0
 10
1779.23
 20
26.7203
 11
1779.26
 21
24.2308
  0
LINE
  8
0
 10
1779.26
 20
24.2308
 11
1778.8
 21
21.7839
  0
LINE
  8
0
 10
1778.8
 20
21.7839
 11
1777.87
 21
19.4735
  0
LINE
  8
0
 10
1777.87
 20
19.4735
 11
1776.51
 21
17.3885
  0
LINE
  8
0
 10
1776.51
 20
17.3885
 11
1774.77
 21
15.609
  0
LINE
  8
0
 10
1774.77
 20
15.609
 11
1772.72
 21
14.2034
  0
LINE
  8
0
 10
1772.72
 20
14.2034
 11
1770.43
 21
13.2257
  0
LINE
  8
0
 10
1770.43
 20
13.2257
 11
1767.99
 21
12.7134
  0
LINE
  8
0
 10
1767.99
 20
12.7134
 11
1765.5
 21
12.6863
  0
LINE
  8
0
 10
1765.5
 20
12.6863
 11
1763.05
 21
13.1454
  0
LINE
  8
0
 10
1763.05
 20
13.1454
 11
1760.74
 21
14.073
  0
LINE
  8
0
 10
1760.74
 20
14.073
 11
1758.66
 21
15.4336
  0
LINE
  8
0
 10
1758.66
 20
15.4336
 11
1756.88
 21
17.1747
  0
LINE
  8
0
 10
1756.88
 20
17.1747
 11
1755.47
 21
19.2296
  0
LINE
  8
0
 10
1755.47
 20
19.2296
 11
1754.5
 21
21.5192
  0
LINE
  8
0
 10
1754.5
 20
21.5192
 11
1753.98
 21
23.9556
  0
LINE
  8
0
 10
1753.98
 20
23.9556
 11
1753.96
 21
26.445
  0
ENDSEC
  0
SECTION
  2
OBJECTS
  0
DICTIONARY
  0
ENDSEC
  0
EOF
