  0
SECTION
  2
HEADER
  9
$ACADVER
  1
AC1015
  9
$ACADMAINTVER
 70
6
  9
$DWGCODEPAGE
  3
ANSI_1252
  9
$INSBASE
 10
0.0
 20
0.0
 30
0.0
  9
$EXTMIN
 10
1e+20
 20
1e+20
 30
1e+20
  9
$EXTMAX
 10
-1e+20
 20
-1e+20
 30
-1e+20
  9
$LIMMIN
 10
0.0
 20
0.0
  9
$LIMMAX
 10
420.0
 20
297.0
  9
$ORTHOMODE
 70
0
  9
$REGENMODE
 70
1
  9
$FILLMODE
 70
1
  9
$QTEXTMODE
 70
0
  9
$MIRRTEXT
 70
1
  9
$LTSCALE
 40
1.0
  9
$ATTMODE
 70
1
  9
$TEXTSIZE
 40
2.5
  9
$TRACEWID
 40
1.0
  9
$TEXTSTYLE
  7
Standard
  9
$CLAYER
  8
0
  9
$CELTYPE
  6
ByLayer
  9
$CECOLOR
 62
256
  9
$CELTSCALE
 40
1.0
  9
$DISPSILH
 70
0
  9
$DIMSCALE
 40
1.0
  9
$DIMASZ
 40
2.5
  9
$DIMEXO
 40
0.625
  9
$DIMDLI
 40
3.75
  9
$DIMRND
 40
0.0
  9
$DIMDLE
 40
0.0
  9
$DIMEXE
 40
1.25
  9
$DIMTP
 40
0.0
  9
$DIMTM
 40
0.0
  9
$DIMTXT
 40
2.5
  9
$DIMCEN
 40
2.5
  9
$DIMTSZ
 40
0.0
  9
$DIMTOL
 70
0
  9
$DIMLIM
 70
0
  9
$DIMTIH
 70
0
  9
$DIMTOH
 70
0
  9
$DIMSE1
 70
0
  9
$DIMSE2
 70
0
  9
$DIMTAD
 70
1
  9
$DIMZIN
 70
8
  9
$DIMBLK
  1

  9
$DIMASO
 70
1
  9
$DIMSHO
 70
1
  9
$DIMPOST
  1

  9
$DIMAPOST
  1

  9
$DIMALT
 70
0
  9
$DIMALTD
 70
3
  9
$DIMALTF
 40
0.03937007874
  9
$DIMLFAC
 40
1.0
  9
$DIMTOFL
 70
1
  9
$DIMTVP
 40
0.0
  9
$DIMTIX
 70
0
  9
$DIMSOXD
 70
0
  9
$DIMSAH
 70
0
  9
$DIMBLK1
  1

  9
$DIMBLK2
  1

  9
$DIMSTYLE
  2
ISO-25
  9
$DIMCLRD
 70
0
  9
$DIMCLRE
 70
0
  9
$DIMCLRT
 70
0
  9
$DIMTFAC
 40
1.0
  9
$DIMGAP
 40
0.625
  9
$DIMJUST
 70
0
  9
$DIMSD1
 70
0
  9
$DIMSD2
 70
0
  9
$DIMTOLJ
 70
0
  9
$DIMTZIN
 70
8
  9
$DIMALTZ
 70
0
  9
$DIMALTTZ
 70
0
  9
$DIMUPT
 70
0
  9
$DIMDEC
 70
2
  9
$DIMTDEC
 70
2
  9
$DIMALTU
 70
2
  9
$DIMALTTD
 70
3
  9
$DIMTXSTY
  7
Standard
  9
$DIMAUNIT
 70
0
  9
$DIMADEC
 70
0
  9
$DIMALTRND
 40
0.0
  9
$DIMAZIN
 70
0
  9
$DIMDSEP
 70
44
  9
$DIMATFIT
 70
3
  9
$DIMFRAC
 70
0
  9
$DIMLDRBLK
  1

  9
$DIMLUNIT
 70
2
  9
$DIMLWD
 70
-2
  9
$DIMLWE
 70
-2
  9
$DIMTMOVE
 70
0
  9
$LUNITS
 70
2
  9
$LUPREC
 70
4
  9
$SKETCHINC
 40
1.0
  9
$FILLETRAD
 40
10.0
  9
$AUNITS
 70
0
  9
$AUPREC
 70
2
  9
$MENU
  1
.
  9
$ELEVATION
 40
0.0
  9
$PELEVATION
 40
0.0
  9
$THICKNESS
 40
0.0
  9
$LIMCHECK
 70
0
  9
$CHAMFERA
 40
0.0
  9
$CHAMFERB
 40
0.0
  9
$CHAMFERC
 40
0.0
  9
$CHAMFERD
 40
0.0
  9
$SKPOLY
 70
0
  9
$TDCREATE
 40
2451545.0
  9
$TDUCREATE
 40
2451545.0
  9
$TDUPDATE
 40
2451545.0
  9
$TDUUPDATE
 40
2451545.0
  9
$TDINDWG
 40
0.0
  9
$TDUSRTIMER
 40
0.0
  9
$USRTIMER
 70
1
  9
$ANGBASE
 50
0.0
  9
$ANGDIR
 70
0
  9
$PDMODE
 70
0
  9
$PDSIZE
 40
0.0
  9
$PLINEWID
 40
0.0
  9
$SPLFRAME
 70
0
  9
$SPLINETYPE
 70
6
  9
$SPLINESEGS
 70
8
  9
$HANDSEED
  5
30C
  9
$SURFTAB1
 70
6
  9
$SURFTAB2
 70
6
  9
$SURFTYPE
 70
6
  9
$SURFU
 70
6
  9
$SURFV
 70
6
  9
$UCSBASE
  2

  9
$UCSNAME
  2

  9
$UCSORG
 10
0.0
 20
0.0
 30
0.0
  9
$UCSXDIR
 10
1.0
 20
0.0
 30
0.0
  9
$UCSYDIR
 10
0.0
 20
1.0
 30
0.0
  9
$UCSORTHOREF
  2

  9
$UCSORTHOVIEW
 70
0
  9
$UCSORGTOP
 10
0.0
 20
0.0
 30
0.0
  9
$UCSORGBOTTOM
 10
0.0
 20
0.0
 30
0.0
  9
$UCSORGLEFT
 10
0.0
 20
0.0
 30
0.0
  9
$UCSORGRIGHT
 10
0.0
 20
0.0
 30
0.0
  9
$UCSORGFRONT
 10
0.0
 20
0.0
 30
0.0
  9
$UCSORGBACK
 10
0.0
 20
0.0
 30
0.0
  9
$PUCSBASE
  2

  9
$PUCSNAME
  2

  9
$PUCSORG
 10
0.0
 20
0.0
 30
0.0
  9
$PUCSXDIR
 10
1.0
 20
0.0
 30
0.0
  9
$PUCSYDIR
 10
0.0
 20
1.0
 30
0.0
  9
$PUCSORTHOREF
  2

  9
$PUCSORTHOVIEW
 70
0
  9
$PUCSORGTOP
 10
0.0
 20
0.0
 30
0.0
  9
$PUCSORGBOTTOM
 10
0.0
 20
0.0
 30
0.0
  9
$PUCSORGLEFT
 10
0.0
 20
0.0
 30
0.0
  9
$PUCSORGRIGHT
 10
0.0
 20
0.0
 30
0.0
  9
$PUCSORGFRONT
 10
0.0
 20
0.0
 30
0.0
  9
$PUCSORGBACK
 10
0.0
 20
0.0
 30
0.0
  9
$USERI1
 70
0
  9
$USERI2
 70
0
  9
$USERI3
 70
0
  9
$USERI4
 70
0
  9
$USERI5
 70
0
  9
$USERR1
 40
0.0
  9
$USERR2
 40
0.0
  9
$USERR3
 40
0.0
  9
$USERR4
 40
0.0
  9
$USERR5
 40
0.0
  9
$WORLDVIEW
 70
1
  9
$SHADEDGE
 70
3
  9
$SHADEDIF
 70
70
  9
$TILEMODE
 70
1
  9
$MAXACTVP
 70
64
  9
$PINSBASE
 10
0.0
 20
0.0
 30
0.0
  9
$PLIMCHECK
 70
0
  9
$PEXTMIN
 10
1e+20
 20
1e+20
 30
1e+20
  9
$PEXTMAX
 10
-1e+20
 20
-1e+20
 30
-1e+20
  9
$PLIMMIN
 10
0.0
 20
0.0
  9
$PLIMMAX
 10
420.0
 20
297.0
  9
$UNITMODE
 70
0
  9
$VISRETAIN
 70
1
  9
$PLINEGEN
 70
0
  9
$PSLTSCALE
 70
1
  9
$TREEDEPTH
 70
3020
  9
$CMLSTYLE
  2
Standard
  9
$CMLJUST
 70
0
  9
$CMLSCALE
 40
20.0
  9
$PROXYGRAPHICS
 70
1
  9
$MEASUREMENT
 70
1
  9
$CELWEIGHT
370
-1
  9
$ENDCAPS
280
0
  9
$JOINSTYLE
280
0
  9
$LWDISPLAY
290
0
  9
$INSUNITS
 70
4
  9
$HYPERLINKBASE
  1

  9
$STYLESHEET
  1

  9
$XEDIT
290
1
  9
$CEPSNTYPE
380
0
  9
$PSTYLEMODE
290
1
  9
$FINGERPRINTGUID
  2
{00000000-0000-0000-0000-000000000000}
  9
$VERSIONGUID
  2
{00000000-0000-0000-0000-000000000000}
  9
$EXTNAMES
290
1
  9
$PSVPSCALE
 40
0.0
  9
$OLESTARTUP
290
0
  0
ENDSEC
  0
SECTION
  2
CLASSES
  0
CLASS
  1
ACDBDICTIONARYWDFLT
  2
AcDbDictionaryWithDefault
  3
ObjectDBX Classes
 90
0
280
0
281
0
  0
CLASS
  1
SUN
  2
AcDbSun
  3
SCENEOE
 90
1153
280
0
281
0
  0
CLASS
  1
VISUALSTYLE
  2
AcDbVisualStyle
  3
ObjectDBX Classes
 90
4095
280
0
281
0
  0
CLASS
  1
MATERIAL
  2
AcDbMaterial
  3
ObjectDBX Classes
 90
1153
280
0
281
0
  0
CLASS
  1
SCALE
  2
AcDbScale
  3
ObjectDBX Classes
 90
1153
280
0
281
0
  0
CLASS
  1
TABLESTYLE
  2
AcDbTableStyle
  3
ObjectDBX Classes
 90
4095
280
0
281
0
  0
CLASS
  1
MLEADERSTYLE
  2
AcDbMLeaderStyle
  3
ACDB_MLEADERSTYLE_CLASS
 90
4095
280
0
281
0
  0
CLASS
  1
DICTIONARYVAR
  2
AcDbDictionaryVar
  3
ObjectDBX Classes
 90
0
280
0
281
0
  0
CLASS
  1
CELLSTYLEMAP
  2
AcDbCellStyleMap
  3
ObjectDBX Classes
 90
1152
280
0
281
0
  0
CLASS
  1
MENTALRAYRENDERSETTINGS
  2
AcDbMentalRayRenderSettings
  3
SCENEOE
 90
1024
280
0
281
0
  0
CLASS
  1
ACDBDETAILVIEWSTYLE
  2
AcDbDetailViewStyle
  3
ObjectDBX Classes
 90
1025
280
0
281
0
  0
CLASS
  1
ACDBSECTIONVIEWSTYLE
  2
AcDbSectionViewStyle
  3
ObjectDBX Classes
 90
1025
280
0
281
0
  0
CLASS
  1
RASTERVARIABLES
  2
AcDbRasterVariables
  3
ISM
 90
0
280
0
281
0
  0
CLASS
  1
ACDBPLACEHOLDER
  2
AcDbPlaceHolder
  3
ObjectDBX Classes
 90
0
280
0
281
0
  0
CLASS
  1
LAYOUT
  2
AcDbLayout
  3
ObjectDBX Classes
 90
0
280
0
281
0
  0
ENDSEC
  0
SECTION
  2
TABLES
  0
TABLE
  2
VPORT
  5
8
330
0
100
AcDbSymbolTable
 70
1
  0
VPORT
  5
23
330
8
100
AcDbSymbolTableRecord
100
AcDbViewportTableRecord
  2
*Active
 70
0
 10
0.0
 20
0.0
 11
1.0
 21
1.0
 12
0.0
 22
0.0
 13
0.0
 23
0.0
 14
0.5
 24
0.5
 15
0.5
 25
0.5
 16
0.0
 26
0.0
 36
1.0
 17
0.0
 27
0.0
 37
0.0
 40
1000.0
 41
1.34
 42
50.0
 43
0.0
 44
0.0
 50
0.0
 51
0.0
 71
0
 72
1000
 73
1
 74
3
 75
0
 76
0
 77
0
 78
0
281
0
 65
0
146
0.0
  0
ENDTAB
  0
TABLE
  2
LTYPE
  5
2
330
0
100
AcDbSymbolTable
 70
3
  0
LTYPE
  5
24
330
2
100
AcDbSymbolTableRecord
100
AcDbLinetypeTableRecord
  2
ByBlock
 70
0
  3

 72
65
 73
0
 40
0.0
  0
LTYPE
  5
25
330
2
100
AcDbSymbolTableRecord
100
AcDbLinetypeTableRecord
  2
ByLayer
 70
0
  3

 72
65
 73
0
 40
0.0
  0
LTYPE
  5
26
330
2
100
AcDbSymbolTableRecord
100
AcDbLinetypeTableRecord
  2
Continuous
 70
0
  3

 72
65
 73
0
 40
0.0
  0
ENDTAB
  0
TABLE
  2
LAYER
  5
1
330
0
100
AcDbSymbolTable
 70
2
  0
LAYER
  5
27
330
1
100
AcDbSymbolTableRecord
100
AcDbLayerTableRecord
  2
0
 70
0
 62
7
  6
Continuous
370
-3
390
13
  0
LAYER
  5
28
330
1
100
AcDbSymbolTableRecord
100
AcDbLayerTableRecord
  2
Defpoints
 70
0
 62
7
  6
Continuous
290
0
370
-3
390
13
  0
ENDTAB
  0
TABLE
  2
STYLE
  5
5
330
0
100
AcDbSymbolTable
 70
1
  0
STYLE
  5
29
330
5
100
AcDbSymbolTableRecord
100
AcDbTextStyleTableRecord
  2
Standard
 70
0
 40
0.0
 41
1.0
 50
0.0
 71
0
 42
2.5
  3
txt
  4

  0
ENDTAB
  0
TABLE
  2
VIEW
  5
7
330
0
100
AcDbSymbolTable
 70
0
  0
ENDTAB
  0
TABLE
  2
UCS
  5
6
330
0
100
AcDbSymbolTable
 70
0
  0
ENDTAB
  0
TABLE
  2
APPID
  5
3
330
0
100
AcDbSymbolTable
 70
3
  0
APPID
  5
2A
330
3
100
AcDbSymbolTableRecord
100
AcDbRegAppTableRecord
  2
ACAD
 70
0
  0
APPID
  5
309
330
3
100
AcDbSymbolTableRecord
100
AcDbRegAppTableRecord
  2
HATCHBACKGROUNDCOLOR
 70
0
  0
APPID
  5
30A
330
3
100
AcDbSymbolTableRecord
100
AcDbRegAppTableRecord
  2
EZDXF
 70
0
  0
ENDTAB
  0
TABLE
  2
DIMSTYLE
  5
4
330
0
100
AcDbSymbolTable
 70
1
100
AcDbDimStyleTable
  0
DIMSTYLE
105
2B
330
4
100
AcDbSymbolTableRecord
100
AcDbDimStyleTableRecord
  2
Standard
 70
0
  3

  4

 40
1.0
 41
2.5
 42
0.625
 43
3.75
 44
1.25
 45
0.0
 46
0.0
 47
0.0
 48
0.0
140
2.5
141
2.5
142
0.0
143
0.03937007874
144
1.0
145
0.0
146
1.0
147
0.625
148
0.0
 71
0
 72
0
 73
0
 74
0
 75
0
 76
0
 77
1
 78
8
 79
3
170
0
171
3
172
1
173
0
174
0
175
0
176
0
177
0
178
0
179
2
271
2
272
2
273
2
274
3
275
0
276
0
277
2
278
44
279
0
280
0
281
0
282
0
283
0
284
8
285
0
286
0
288
0
289
3
371
-2
372
-2
  0
ENDTAB
  0
TABLE
  2
BLOCK_RECORD
  5
9
330
0
100
AcDbSymbolTable
 70
2
  0
BLOCK_RECORD
  5
17
330
9
100
AcDbSymbolTableRecord
100
AcDbBlockTableRecord
  2
*Model_Space
340
1A
  0
BLOCK_RECORD
  5
1B
330
9
100
AcDbSymbolTableRecord
100
AcDbBlockTableRecord
  2
*Paper_Space
340
1E
  0
ENDTAB
  0
ENDSEC
  0
SECTION
  2
BLOCKS
  0
BLOCK
  5
18
330
17
100
AcDbEntity
  8
0
100
AcDbBlockBegin
  2
*Model_Space
 70
0
 10
0.0
 20
0.0
 30
0.0
  3
*Model_Space
  1

  0
ENDBLK
  5
19
330
17
100
AcDbEntity
  8
0
100
AcDbBlockEnd
  0
BLOCK
  5
1C
330
1B
100
AcDbEntity
  8
0
100
AcDbBlockBegin
  2
*Paper_Space
 70
0
 10
0.0
 20
0.0
 30
0.0
  3
*Paper_Space
  1

  0
ENDBLK
  5
1D
330
1B
100
AcDbEntity
  8
0
100
AcDbBlockEnd
  0
ENDSEC
  0
SECTION
  2
ENTITIES
  0
LINE
  5
2F
330
17
100
AcDbEntity
  8
0
100
AcDbLine
 10
3.25778e-05
 20
242.14
 30
0.0
 11
1.97243
 21
237.969
 31
0.0
  0
LINE
  5
30
330
17
100
AcDbEntity
  8
0
100
AcDbLine
 10
1.97243
 20
237.969
 30
0.0
 11
5.81673
 21
231.555
 31
0.0
  0
LINE
  5
31
330
17
100
AcDbEntity
  8
0
100
AcDbLine
 10
5.81673
 20
231.555
 30
0.0
 11
10.2712
 21
225.549
 31
0.0
  0
LINE
  5
32
330
17
100
AcDbEntity
  8
0
100
AcDbLine
 10
10.2712
 20
225.549
 30
0.0
 11
15.293
 21
220.008
 31
0.0
  0
LINE
  5
33
330
17
100
AcDbEntity
  8
0
100
AcDbLine
 10
15.293
 20
220.008
 30
0.0
 11
20.8337
 21
214.986
 31
0.0
  0
LINE
  5
34
330
17
100
AcDbEntity
  8
0
100
AcDbLine
 10
20.8337
 20
214.986
 30
0.0
 11
26.8399
 21
210.532
 31
0.0
  0
LINE
  5
35
330
17
100
AcDbEntity
  8
0
100
AcDbLine
 10
26.8399
 20
210.532
 30
0.0
 11
33.2538
 21
206.687
 31
0.0
  0
LINE
  5
36
330
17
100
AcDbEntity
  8
0
100
AcDbLine
 10
33.2538
 20
206.687
 30
0.0
 11
40.0137
 21
203.49
 31
0.0
  0
LINE
  5
37
330
17
100
AcDbEntity
  8
0
100
AcDbLine
 10
40.0137
 20
203.49
 30
0.0
 11
47.0545
 21
200.97
 31
0.0
  0
LINE
  5
38
330
17
100
AcDbEntity
  8
0
100
AcDbLine
 10
47.0545
 20
200.97
 30
0.0
 11
54.3083
 21
199.153
 31
0.0
  0
LINE
  5
39
330
17
100
AcDbEntity
  8
0
100
AcDbLine
 10
54.3083
 20
199.153
 30
0.0
 11
61.7052
 21
198.056
 31
0.0
  0
LINE
  5
3A
330
17
100
AcDbEntity
  8
0
100
AcDbLine
 10
61.7052
 20
198.056
 30
0.0
 11
69.1741
 21
197.689
 31
0.0
  0
LINE
  5
3B
330
17
100
AcDbEntity
  8
0
100
AcDbLine
 10
69.1741
 20
197.689
 30
0.0
 11
821.474
 21
197.676
 31
0.0
  0
LINE
  5
3C
330
17
100
AcDbEntity
  8
0
100
AcDbLine
 10
821.474
 20
197.676
 30
0.0
 11
867.446
 21
136.381
 31
0.0
  0
LINE
  5
3D
330
17
100
AcDbEntity
  8
0
100
AcDbLine
 10
867.446
 20
136.381
 30
0.0
 11
870.732
 21
132.634
 31
0.0
  0
LINE
  5
3E
330
17
100
AcDbEntity
  8
0
100
AcDbLine
 10
870.732
 20
132.634
 30
0.0
 11
874.479
 21
129.348
 31
0.0
  0
LINE
  5
3F
330
17
100
AcDbEntity
  8
0
100
AcDbLine
 10
874.479
 20
129.348
 30
0.0
 11
878.623
 21
126.579
 31
0.0
  0
LINE
  5
40
330
17
100
AcDbEntity
  8
0
100
AcDbLine
 10
878.623
 20
126.579
 30
0.0
 11
883.093
 21
124.375
 31
0.0
  0
LINE
  5
41
330
17
100
AcDbEntity
  8
0
100
AcDbLine
 10
883.093
 20
124.375
 30
0.0
 11
887.812
 21
122.773
 31
0.0
  0
LINE
  5
42
330
17
100
AcDbEntity
  8
0
100
AcDbLine
 10
887.812
 20
122.773
 30
0.0
 11
892.7
 21
121.8
 31
0.0
  0
LINE
  5
43
330
17
100
AcDbEntity
  8
0
100
AcDbLine
 10
892.7
 20
121.8
 30
0.0
 11
897.673
 21
121.474
 31
0.0
  0
LINE
  5
44
330
17
100
AcDbEntity
  8
0
100
AcDbLine
 10
897.673
 20
121.474
 30
0.0
 11
902.646
 21
121.8
 31
0.0
  0
LINE
  5
45
330
17
100
AcDbEntity
  8
0
100
AcDbLine
 10
902.646
 20
121.8
 30
0.0
 11
907.534
 21
122.772
 31
0.0
  0
LINE
  5
46
330
17
100
AcDbEntity
  8
0
100
AcDbLine
 10
907.534
 20
122.772
 30
0.0
 11
912.253
 21
124.374
 31
0.0
  0
LINE
  5
47
330
17
100
AcDbEntity
  8
0
100
AcDbLine
 10
912.253
 20
124.374
 30
0.0
 11
916.723
 21
126.578
 31
0.0
  0
LINE
  5
48
330
17
100
AcDbEntity
  8
0
100
AcDbLine
 10
916.723
 20
126.578
 30
0.0
 11
920.867
 21
129.347
 31
0.0
  0
LINE
  5
49
330
17
100
AcDbEntity
  8
0
100
AcDbLine
 10
920.867
 20
129.347
 30
0.0
 11
924.614
 21
132.633
 31
0.0
  0
LINE
  5
4A
330
17
100
AcDbEntity
  8
0
100
AcDbLine
 10
924.614
 20
132.633
 30
0.0
 11
927.9
 21
136.38
 31
0.0
  0
LINE
  5
4B
330
17
100
AcDbEntity
  8
0
100
AcDbLine
 10
927.9
 20
136.38
 30
0.0
 11
973.874
 21
197.673
 31
0.0
  0
LINE
  5
4C
330
17
100
AcDbEntity
  8
0
100
AcDbLine
 10
973.874
 20
197.673
 30
0.0
 11
1456.23
 21
197.664
 31
0.0
  0
LINE
  5
4D
330
17
100
AcDbEntity
  8
0
100
AcDbLine
 10
1456.23
 20
197.664
 30
0.0
 11
1569.95
 21
62.1378
 31
0.0
  0
LINE
  5
4E
330
17
100
AcDbEntity
  8
0
100
AcDbLine
 10
1569.95
 20
62.1378
 30
0.0
 11
1757.92
 21
1.46991
 31
0.0
  0
LINE
  5
4F
330
17
100
AcDbEntity
  8
0
100
AcDbLine
 10
1757.92
 20
1.46991
 30
0.0
 11
1763.07
 21
0.1852
 31
0.0
  0
LINE
  5
50
330
17
100
AcDbEntity
  8
0
100
AcDbLine
 10
1763.07
 20
0.1852
 30
0.0
 11
1768.38
 21
-0.00021024
 31
0.0
  0
LINE
  5
51
330
17
100
AcDbEntity
  8
0
100
AcDbLine
 10
1768.38
 20
-0.00021024
 30
0.0
 11
1773.61
 21
0.921778
 31
0.0
  0
LINE
  5
52
330
17
100
AcDbEntity
  8
0
100
AcDbLine
 10
1773.61
 20
0.921778
 30
0.0
 11
1778.53
 21
2.91087
 31
0.0
  0
LINE
  5
53
330
17
100
AcDbEntity
  8
0
100
AcDbLine
 10
1778.53
 20
2.91087
 30
0.0
 11
1782.94
 21
5.88013
 31
0.0
  0
LINE
  5
54
330
17
100
AcDbEntity
  8
0
100
AcDbLine
 10
1782.94
 20
5.88013
 30
0.0
 11
1786.62
 21
9.6998
 31
0.0
  0
LINE
  5
55
330
17
100
AcDbEntity
  8
0
100
AcDbLine
 10
1786.62
 20
9.6998
 30
0.0
 11
1789.44
 21
14.2029
 31
0.0
  0
LINE
  5
56
330
17
100
AcDbEntity
  8
0
100
AcDbLine
 10
1789.44
 20
14.2029
 30
0.0
 11
1791.25
 21
19.1927
 31
0.0
  0
LINE
  5
57
330
17
100
AcDbEntity
  8
0
100
AcDbLine
 10
1791.25
 20
19.1927
 30
0.0
 11
1791.99
 21
24.4511
 31
0.0
  0
LINE
  5
58
330
17
100
AcDbEntity
  8
0
100
AcDbLine
 10
1791.99
 20
24.4511
 30
0.0
 11
1791.62
 21
29.7482
 31
0.0
  0
LINE
  5
59
330
17
100
AcDbEntity
  8
0
100
AcDbLine
 10
1791.62
 20
29.7482
 30
0.0
 11
1790.16
 21
34.8525
 31
0.0
  0
LINE
  5
5A
330
17
100
AcDbEntity
  8
0
100
AcDbLine
 10
1790.16
 20
34.8525
 30
0.0
 11
1787.67
 21
39.5411
 31
0.0
  0
LINE
  5
5B
330
17
100
AcDbEntity
  8
0
100
AcDbLine
 10
1787.67
 20
39.5411
 30
0.0
 11
1686.69
 21
160.097
 31
0.0
  0
LINE
  5
5C
330
17
100
AcDbEntity
  8
0
100
AcDbLine
 10
1686.69
 20
160.097
 30
0.0
 11
1527.3
 21
350.063
 31
0.0
  0
LINE
  5
5D
330
17
100
AcDbEntity
  8
0
100
AcDbLine
 10
1527.3
 20
350.063
 30
0.0
 11
1527.3
 21
350.063
 31
0.0
  0
LINE
  5
5E
330
17
100
AcDbEntity
  8
0
100
AcDbLine
 10
1527.3
 20
350.063
 30
0.0
 11
69.1768
 21
350.089
 31
0.0
  0
LINE
  5
5F
330
17
100
AcDbEntity
  8
0
100
AcDbLine
 10
69.1768
 20
350.089
 30
0.0
 11
61.7079
 21
349.722
 31
0.0
  0
LINE
  5
60
330
17
100
AcDbEntity
  8
0
100
AcDbLine
 10
61.7079
 20
349.722
 30
0.0
 11
54.3109
 21
348.625
 31
0.0
  0
LINE
  5
61
330
17
100
AcDbEntity
  8
0
100
AcDbLine
 10
54.3109
 20
348.625
 30
0.0
 11
47.057
 21
346.808
 31
0.0
  0
LINE
  5
62
330
17
100
AcDbEntity
  8
0
100
AcDbLine
 10
47.057
 20
346.808
 30
0.0
 11
40.0162
 21
344.289
 31
0.0
  0
LINE
  5
63
330
17
100
AcDbEntity
  8
0
100
AcDbLine
 10
40.0162
 20
344.289
 30
0.0
 11
33.2562
 21
341.092
 31
0.0
  0
LINE
  5
64
330
17
100
AcDbEntity
  8
0
100
AcDbLine
 10
33.2562
 20
341.092
 30
0.0
 11
26.8421
 21
337.247
 31
0.0
  0
LINE
  5
65
330
17
100
AcDbEntity
  8
0
100
AcDbLine
 10
26.8421
 20
337.247
 30
0.0
 11
20.8357
 21
332.793
 31
0.0
  0
LINE
  5
66
330
17
100
AcDbEntity
  8
0
100
AcDbLine
 10
20.8357
 20
332.793
 30
0.0
 11
15.2949
 21
327.771
 31
0.0
  0
LINE
  5
67
330
17
100
AcDbEntity
  8
0
100
AcDbLine
 10
15.2949
 20
327.771
 30
0.0
 11
10.2729
 21
322.231
 31
0.0
  0
LINE
  5
68
330
17
100
AcDbEntity
  8
0
100
AcDbLine
 10
10.2729
 20
322.231
 30
0.0
 11
5.81821
 21
316.224
 31
0.0
  0
LINE
  5
69
330
17
100
AcDbEntity
  8
0
100
AcDbLine
 10
5.81821
 20
316.224
 30
0.0
 11
1.97368
 21
309.81
 31
0.0
  0
LINE
  5
6A
330
17
100
AcDbEntity
  8
0
100
AcDbLine
 10
1.97368
 20
309.81
 30
0.0
 11
0.00114469
 21
305.64
 31
0.0
  0
LINE
  5
6B
330
17
100
AcDbEntity
  8
0
100
AcDbLine
 10
0.00114469
 20
305.64
 30
0.0
 11
69.176
 21
305.639
 31
0.0
  0
LINE
  5
6C
330
17
100
AcDbEntity
  8
0
100
AcDbLine
 10
69.176
 20
305.639
 30
0.0
 11
72.288
 21
305.486
 31
0.0
  0
LINE
  5
6D
330
17
100
AcDbEntity
  8
0
100
AcDbLine
 10
72.288
 20
305.486
 30
0.0
 11
75.3701
 21
305.029
 31
0.0
  0
LINE
  5
6E
330
17
100
AcDbEntity
  8
0
100
AcDbLine
 10
75.3701
 20
305.029
 30
0.0
 11
78.3925
 21
304.271
 31
0.0
  0
LINE
  5
6F
330
17
100
AcDbEntity
  8
0
100
AcDbLine
 10
78.3925
 20
304.271
 30
0.0
 11
81.3262
 21
303.222
 31
0.0
  0
LINE
  5
70
330
17
100
AcDbEntity
  8
0
100
AcDbLine
 10
81.3262
 20
303.222
 30
0.0
 11
84.1428
 21
301.889
 31
0.0
  0
LINE
  5
71
330
17
100
AcDbEntity
  8
0
100
AcDbLine
 10
84.1428
 20
301.889
 30
0.0
 11
86.8153
 21
300.288
 31
0.0
  0
LINE
  5
72
330
17
100
AcDbEntity
  8
0
100
AcDbLine
 10
86.8153
 20
300.288
 30
0.0
 11
89.3179
 21
298.431
 31
0.0
  0
LINE
  5
73
330
17
100
AcDbEntity
  8
0
100
AcDbLine
 10
89.3179
 20
298.431
 30
0.0
 11
91.6265
 21
296.339
 31
0.0
  0
LINE
  5
74
330
17
100
AcDbEntity
  8
0
100
AcDbLine
 10
91.6265
 20
296.339
 30
0.0
 11
93.7189
 21
294.03
 31
0.0
  0
LINE
  5
75
330
17
100
AcDbEntity
  8
0
100
AcDbLine
 10
93.7189
 20
294.03
 30
0.0
 11
95.5749
 21
291.528
 31
0.0
  0
LINE
  5
76
330
17
100
AcDbEntity
  8
0
100
AcDbLine
 10
95.5749
 20
291.528
 30
0.0
 11
97.1767
 21
288.855
 31
0.0
  0
LINE
  5
77
330
17
100
AcDbEntity
  8
0
100
AcDbLine
 10
97.1767
 20
288.855
 30
0.0
 11
98.5088
 21
286.038
 31
0.0
  0
LINE
  5
78
330
17
100
AcDbEntity
  8
0
100
AcDbLine
 10
98.5088
 20
286.038
 30
0.0
 11
99.5585
 21
283.105
 31
0.0
  0
LINE
  5
79
330
17
100
AcDbEntity
  8
0
100
AcDbLine
 10
99.5585
 20
283.105
 30
0.0
 11
100.315
 21
280.082
 31
0.0
  0
LINE
  5
7A
330
17
100
AcDbEntity
  8
0
100
AcDbLine
 10
100.315
 20
280.082
 30
0.0
 11
100.773
 21
277.0
 31
0.0
  0
LINE
  5
7B
330
17
100
AcDbEntity
  8
0
100
AcDbLine
 10
100.773
 20
277.0
 30
0.0
 11
100.925
 21
273.888
 31
0.0
  0
LINE
  5
7C
330
17
100
AcDbEntity
  8
0
100
AcDbLine
 10
100.925
 20
273.888
 30
0.0
 11
100.773
 21
270.776
 31
0.0
  0
LINE
  5
7D
330
17
100
AcDbEntity
  8
0
100
AcDbLine
 10
100.773
 20
270.776
 30
0.0
 11
100.315
 21
267.694
 31
0.0
  0
LINE
  5
7E
330
17
100
AcDbEntity
  8
0
100
AcDbLine
 10
100.315
 20
267.694
 30
0.0
 11
99.5581
 21
264.672
 31
0.0
  0
LINE
  5
7F
330
17
100
AcDbEntity
  8
0
100
AcDbLine
 10
99.5581
 20
264.672
 30
0.0
 11
98.5084
 21
261.738
 31
0.0
  0
LINE
  5
80
330
17
100
AcDbEntity
  8
0
100
AcDbLine
 10
98.5084
 20
261.738
 30
0.0
 11
97.1762
 21
258.921
 31
0.0
  0
LINE
  5
81
330
17
100
AcDbEntity
  8
0
100
AcDbLine
 10
97.1762
 20
258.921
 30
0.0
 11
95.5743
 21
256.249
 31
0.0
  0
LINE
  5
82
330
17
100
AcDbEntity
  8
0
100
AcDbLine
 10
95.5743
 20
256.249
 30
0.0
 11
93.7182
 21
253.746
 31
0.0
  0
LINE
  5
83
330
17
100
AcDbEntity
  8
0
100
AcDbLine
 10
93.7182
 20
253.746
 30
0.0
 11
91.6257
 21
251.438
 31
0.0
  0
LINE
  5
84
330
17
100
AcDbEntity
  8
0
100
AcDbLine
 10
91.6257
 20
251.438
 30
0.0
 11
89.317
 21
249.345
 31
0.0
  0
LINE
  5
85
330
17
100
AcDbEntity
  8
0
100
AcDbLine
 10
89.317
 20
249.345
 30
0.0
 11
86.8143
 21
247.489
 31
0.0
  0
LINE
  5
86
330
17
100
AcDbEntity
  8
0
100
AcDbLine
 10
86.8143
 20
247.489
 30
0.0
 11
84.1418
 21
245.888
 31
0.0
  0
LINE
  5
87
330
17
100
AcDbEntity
  8
0
100
AcDbLine
 10
84.1418
 20
245.888
 30
0.0
 11
81.3251
 21
244.555
 31
0.0
  0
LINE
  5
88
330
17
100
AcDbEntity
  8
0
100
AcDbLine
 10
81.3251
 20
244.555
 30
0.0
 11
78.3915
 21
243.506
 31
0.0
  0
LINE
  5
89
330
17
100
AcDbEntity
  8
0
100
AcDbLine
 10
78.3915
 20
243.506
 30
0.0
 11
75.369
 21
242.749
 31
0.0
  0
LINE
  5
8A
330
17
100
AcDbEntity
  8
0
100
AcDbLine
 10
75.369
 20
242.749
 30
0.0
 11
72.2869
 21
242.292
 31
0.0
  0
LINE
  5
8B
330
17
100
AcDbEntity
  8
0
100
AcDbLine
 10
72.2869
 20
242.292
 30
0.0
 11
69.1749
 21
242.139
 31
0.0
  0
LINE
  5
8C
330
17
100
AcDbEntity
  8
0
100
AcDbLine
 10
69.1749
 20
242.139
 30
0.0
 11
3.25778e-05
 21
242.14
 31
0.0
  0
LINE
  5
8D
330
17
100
AcDbEntity
  8
0
100
AcDbLine
 10
37.469
 20
222.672
 30
0.0
 11
37.6854
 21
224.315
 31
0.0
  0
LINE
  5
8E
330
17
100
AcDbEntity
  8
0
100
AcDbLine
 10
37.6854
 20
224.315
 30
0.0
 11
38.3198
 21
225.847
 31
0.0
  0
LINE
  5
8F
330
17
100
AcDbEntity
  8
0
100
AcDbLine
 10
38.3198
 20
225.847
 30
0.0
 11
39.329
 21
227.162
 31
0.0
  0
LINE
  5
90
330
17
100
AcDbEntity
  8
0
100
AcDbLine
 10
39.329
 20
227.162
 30
0.0
 11
40.6441
 21
228.171
 31
0.0
  0
LINE
  5
91
330
17
100
AcDbEntity
  8
0
100
AcDbLine
 10
40.6441
 20
228.171
 30
0.0
 11
42.1757
 21
228.805
 31
0.0
  0
LINE
  5
92
330
17
100
AcDbEntity
  8
0
100
AcDbLine
 10
42.1757
 20
228.805
 30
0.0
 11
43.8192
 21
229.022
 31
0.0
  0
LINE
  5
93
330
17
100
AcDbEntity
  8
0
100
AcDbLine
 10
43.8192
 20
229.022
 30
0.0
 11
45.4627
 21
228.805
 31
0.0
  0
LINE
  5
94
330
17
100
AcDbEntity
  8
0
100
AcDbLine
 10
45.4627
 20
228.805
 30
0.0
 11
46.9941
 21
228.171
 31
0.0
  0
LINE
  5
95
330
17
100
AcDbEntity
  8
0
100
AcDbLine
 10
46.9941
 20
228.171
 30
0.0
 11
48.3093
 21
227.162
 31
0.0
  0
LINE
  5
96
330
17
100
AcDbEntity
  8
0
100
AcDbLine
 10
48.3093
 20
227.162
 30
0.0
 11
49.3184
 21
225.847
 31
0.0
  0
LINE
  5
97
330
17
100
AcDbEntity
  8
0
100
AcDbLine
 10
49.3184
 20
225.847
 30
0.0
 11
49.9527
 21
224.315
 31
0.0
  0
LINE
  5
98
330
17
100
AcDbEntity
  8
0
100
AcDbLine
 10
49.9527
 20
224.315
 30
0.0
 11
50.169
 21
222.672
 31
0.0
  0
LINE
  5
99
330
17
100
AcDbEntity
  8
0
100
AcDbLine
 10
50.169
 20
222.672
 30
0.0
 11
49.9526
 21
221.028
 31
0.0
  0
LINE
  5
9A
330
17
100
AcDbEntity
  8
0
100
AcDbLine
 10
49.9526
 20
221.028
 30
0.0
 11
49.3183
 21
219.497
 31
0.0
  0
LINE
  5
9B
330
17
100
AcDbEntity
  8
0
100
AcDbLine
 10
49.3183
 20
219.497
 30
0.0
 11
48.3091
 21
218.182
 31
0.0
  0
LINE
  5
9C
330
17
100
AcDbEntity
  8
0
100
AcDbLine
 10
48.3091
 20
218.182
 30
0.0
 11
46.994
 21
217.172
 31
0.0
  0
LINE
  5
9D
330
17
100
AcDbEntity
  8
0
100
AcDbLine
 10
46.994
 20
217.172
 30
0.0
 11
45.4624
 21
216.538
 31
0.0
  0
LINE
  5
9E
330
17
100
AcDbEntity
  8
0
100
AcDbLine
 10
45.4624
 20
216.538
 30
0.0
 11
43.8189
 21
216.322
 31
0.0
  0
LINE
  5
9F
330
17
100
AcDbEntity
  8
0
100
AcDbLine
 10
43.8189
 20
216.322
 30
0.0
 11
42.1754
 21
216.538
 31
0.0
  0
LINE
  5
A0
330
17
100
AcDbEntity
  8
0
100
AcDbLine
 10
42.1754
 20
216.538
 30
0.0
 11
40.6439
 21
217.173
 31
0.0
  0
LINE
  5
A1
330
17
100
AcDbEntity
  8
0
100
AcDbLine
 10
40.6439
 20
217.173
 30
0.0
 11
39.3288
 21
218.182
 31
0.0
  0
LINE
  5
A2
330
17
100
AcDbEntity
  8
0
100
AcDbLine
 10
39.3288
 20
218.182
 30
0.0
 11
38.3197
 21
219.497
 31
0.0
  0
LINE
  5
A3
330
17
100
AcDbEntity
  8
0
100
AcDbLine
 10
38.3197
 20
219.497
 30
0.0
 11
37.6854
 21
221.028
 31
0.0
  0
LINE
  5
A4
330
17
100
AcDbEntity
  8
0
100
AcDbLine
 10
37.6854
 20
221.028
 30
0.0
 11
37.469
 21
222.672
 31
0.0
  0
LINE
  5
A5
330
17
100
AcDbEntity
  8
0
100
AcDbLine
 10
37.4708
 20
325.107
 30
0.0
 11
37.6872
 21
326.75
 31
0.0
  0
LINE
  5
A6
330
17
100
AcDbEntity
  8
0
100
AcDbLine
 10
37.6872
 20
326.75
 30
0.0
 11
38.3216
 21
328.282
 31
0.0
  0
LINE
  5
A7
330
17
100
AcDbEntity
  8
0
100
AcDbLine
 10
38.3216
 20
328.282
 30
0.0
 11
39.3308
 21
329.597
 31
0.0
  0
LINE
  5
A8
330
17
100
AcDbEntity
  8
0
100
AcDbLine
 10
39.3308
 20
329.597
 30
0.0
 11
40.6459
 21
330.606
 31
0.0
  0
LINE
  5
A9
330
17
100
AcDbEntity
  8
0
100
AcDbLine
 10
40.6459
 20
330.606
 30
0.0
 11
42.1774
 21
331.24
 31
0.0
  0
LINE
  5
AA
330
17
100
AcDbEntity
  8
0
100
AcDbLine
 10
42.1774
 20
331.24
 30
0.0
 11
43.821
 21
331.457
 31
0.0
  0
LINE
  5
AB
330
17
100
AcDbEntity
  8
0
100
AcDbLine
 10
43.821
 20
331.457
 30
0.0
 11
45.4644
 21
331.24
 31
0.0
  0
LINE
  5
AC
330
17
100
AcDbEntity
  8
0
100
AcDbLine
 10
45.4644
 20
331.24
 30
0.0
 11
46.9959
 21
330.606
 31
0.0
  0
LINE
  5
AD
330
17
100
AcDbEntity
  8
0
100
AcDbLine
 10
46.9959
 20
330.606
 30
0.0
 11
48.311
 21
329.597
 31
0.0
  0
LINE
  5
AE
330
17
100
AcDbEntity
  8
0
100
AcDbLine
 10
48.311
 20
329.597
 30
0.0
 11
49.3202
 21
328.281
 31
0.0
  0
LINE
  5
AF
330
17
100
AcDbEntity
  8
0
100
AcDbLine
 10
49.3202
 20
328.281
 30
0.0
 11
49.9545
 21
326.75
 31
0.0
  0
LINE
  5
B0
330
17
100
AcDbEntity
  8
0
100
AcDbLine
 10
49.9545
 20
326.75
 30
0.0
 11
50.1708
 21
325.106
 31
0.0
  0
LINE
  5
B1
330
17
100
AcDbEntity
  8
0
100
AcDbLine
 10
50.1708
 20
325.106
 30
0.0
 11
49.9544
 21
323.463
 31
0.0
  0
LINE
  5
B2
330
17
100
AcDbEntity
  8
0
100
AcDbLine
 10
49.9544
 20
323.463
 30
0.0
 11
49.32
 21
321.931
 31
0.0
  0
LINE
  5
B3
330
17
100
AcDbEntity
  8
0
100
AcDbLine
 10
49.32
 20
321.931
 30
0.0
 11
48.3109
 21
320.616
 31
0.0
  0
LINE
  5
B4
330
17
100
AcDbEntity
  8
0
100
AcDbLine
 10
48.3109
 20
320.616
 30
0.0
 11
46.9957
 21
319.607
 31
0.0
  0
LINE
  5
B5
330
17
100
AcDbEntity
  8
0
100
AcDbLine
 10
46.9957
 20
319.607
 30
0.0
 11
45.4642
 21
318.973
 31
0.0
  0
LINE
  5
B6
330
17
100
AcDbEntity
  8
0
100
AcDbLine
 10
45.4642
 20
318.973
 30
0.0
 11
43.8207
 21
318.757
 31
0.0
  0
LINE
  5
B7
330
17
100
AcDbEntity
  8
0
100
AcDbLine
 10
43.8207
 20
318.757
 30
0.0
 11
42.1772
 21
318.973
 31
0.0
  0
LINE
  5
B8
330
17
100
AcDbEntity
  8
0
100
AcDbLine
 10
42.1772
 20
318.973
 30
0.0
 11
40.6457
 21
319.607
 31
0.0
  0
LINE
  5
B9
330
17
100
AcDbEntity
  8
0
100
AcDbLine
 10
40.6457
 20
319.607
 30
0.0
 11
39.3306
 21
320.617
 31
0.0
  0
LINE
  5
BA
330
17
100
AcDbEntity
  8
0
100
AcDbLine
 10
39.3306
 20
320.617
 30
0.0
 11
38.3215
 21
321.932
 31
0.0
  0
LINE
  5
BB
330
17
100
AcDbEntity
  8
0
100
AcDbLine
 10
38.3215
 20
321.932
 30
0.0
 11
37.6872
 21
323.463
 31
0.0
  0
LINE
  5
BC
330
17
100
AcDbEntity
  8
0
100
AcDbLine
 10
37.6872
 20
323.463
 30
0.0
 11
37.4708
 21
325.107
 31
0.0
  0
LINE
  5
BD
330
17
100
AcDbEntity
  8
0
100
AcDbLine
 10
92.9664
 20
225.333
 30
0.0
 11
93.1828
 21
226.977
 31
0.0
  0
LINE
  5
BE
330
17
100
AcDbEntity
  8
0
100
AcDbLine
 10
93.1828
 20
226.977
 30
0.0
 11
93.8172
 21
228.508
 31
0.0
  0
LINE
  5
BF
330
17
100
AcDbEntity
  8
0
100
AcDbLine
 10
93.8172
 20
228.508
 30
0.0
 11
94.8263
 21
229.823
 31
0.0
  0
LINE
  5
C0
330
17
100
AcDbEntity
  8
0
100
AcDbLine
 10
94.8263
 20
229.823
 30
0.0
 11
96.1415
 21
230.832
 31
0.0
  0
LINE
  5
C1
330
17
100
AcDbEntity
  8
0
100
AcDbLine
 10
96.1415
 20
230.832
 30
0.0
 11
97.673
 21
231.467
 31
0.0
  0
LINE
  5
C2
330
17
100
AcDbEntity
  8
0
100
AcDbLine
 10
97.673
 20
231.467
 30
0.0
 11
99.3165
 21
231.683
 31
0.0
  0
LINE
  5
C3
330
17
100
AcDbEntity
  8
0
100
AcDbLine
 10
99.3165
 20
231.683
 30
0.0
 11
100.96
 21
231.467
 31
0.0
  0
LINE
  5
C4
330
17
100
AcDbEntity
  8
0
100
AcDbLine
 10
100.96
 20
231.467
 30
0.0
 11
102.491
 21
230.832
 31
0.0
  0
LINE
  5
C5
330
17
100
AcDbEntity
  8
0
100
AcDbLine
 10
102.491
 20
230.832
 30
0.0
 11
103.807
 21
229.823
 31
0.0
  0
LINE
  5
C6
330
17
100
AcDbEntity
  8
0
100
AcDbLine
 10
103.807
 20
229.823
 30
0.0
 11
104.816
 21
228.508
 31
0.0
  0
LINE
  5
C7
330
17
100
AcDbEntity
  8
0
100
AcDbLine
 10
104.816
 20
228.508
 30
0.0
 11
105.45
 21
226.977
 31
0.0
  0
LINE
  5
C8
330
17
100
AcDbEntity
  8
0
100
AcDbLine
 10
105.45
 20
226.977
 30
0.0
 11
105.666
 21
225.333
 31
0.0
  0
LINE
  5
C9
330
17
100
AcDbEntity
  8
0
100
AcDbLine
 10
105.666
 20
225.333
 30
0.0
 11
105.45
 21
223.69
 31
0.0
  0
LINE
  5
CA
330
17
100
AcDbEntity
  8
0
100
AcDbLine
 10
105.45
 20
223.69
 30
0.0
 11
104.816
 21
222.158
 31
0.0
  0
LINE
  5
CB
330
17
100
AcDbEntity
  8
0
100
AcDbLine
 10
104.816
 20
222.158
 30
0.0
 11
103.806
 21
220.843
 31
0.0
  0
LINE
  5
CC
330
17
100
AcDbEntity
  8
0
100
AcDbLine
 10
103.806
 20
220.843
 30
0.0
 11
102.491
 21
219.834
 31
0.0
  0
LINE
  5
CD
330
17
100
AcDbEntity
  8
0
100
AcDbLine
 10
102.491
 20
219.834
 30
0.0
 11
100.96
 21
219.199
 31
0.0
  0
LINE
  5
CE
330
17
100
AcDbEntity
  8
0
100
AcDbLine
 10
100.96
 20
219.199
 30
0.0
 11
99.3163
 21
218.983
 31
0.0
  0
LINE
  5
CF
330
17
100
AcDbEntity
  8
0
100
AcDbLine
 10
99.3163
 20
218.983
 30
0.0
 11
97.6728
 21
219.2
 31
0.0
  0
LINE
  5
D0
330
17
100
AcDbEntity
  8
0
100
AcDbLine
 10
97.6728
 20
219.2
 30
0.0
 11
96.1413
 21
219.834
 31
0.0
  0
LINE
  5
D1
330
17
100
AcDbEntity
  8
0
100
AcDbLine
 10
96.1413
 20
219.834
 30
0.0
 11
94.8262
 21
220.843
 31
0.0
  0
LINE
  5
D2
330
17
100
AcDbEntity
  8
0
100
AcDbLine
 10
94.8262
 20
220.843
 30
0.0
 11
93.8171
 21
222.158
 31
0.0
  0
LINE
  5
D3
330
17
100
AcDbEntity
  8
0
100
AcDbLine
 10
93.8171
 20
222.158
 30
0.0
 11
93.1827
 21
223.69
 31
0.0
  0
LINE
  5
D4
330
17
100
AcDbEntity
  8
0
100
AcDbLine
 10
93.1827
 20
223.69
 30
0.0
 11
92.9664
 21
225.333
 31
0.0
  0
LINE
  5
D5
330
17
100
AcDbEntity
  8
0
100
AcDbLine
 10
92.9681
 20
322.443
 30
0.0
 11
93.1845
 21
324.087
 31
0.0
  0
LINE
  5
D6
330
17
100
AcDbEntity
  8
0
100
AcDbLine
 10
93.1845
 20
324.087
 30
0.0
 11
93.8189
 21
325.618
 31
0.0
  0
LINE
  5
D7
330
17
100
AcDbEntity
  8
0
100
AcDbLine
 10
93.8189
 20
325.618
 30
0.0
 11
94.828
 21
326.934
 31
0.0
  0
LINE
  5
D8
330
17
100
AcDbEntity
  8
0
100
AcDbLine
 10
94.828
 20
326.934
 30
0.0
 11
96.1432
 21
327.943
 31
0.0
  0
LINE
  5
D9
330
17
100
AcDbEntity
  8
0
100
AcDbLine
 10
96.1432
 20
327.943
 30
0.0
 11
97.6747
 21
328.577
 31
0.0
  0
LINE
  5
DA
330
17
100
AcDbEntity
  8
0
100
AcDbLine
 10
97.6747
 20
328.577
 30
0.0
 11
99.3182
 21
328.793
 31
0.0
  0
LINE
  5
DB
330
17
100
AcDbEntity
  8
0
100
AcDbLine
 10
99.3182
 20
328.793
 30
0.0
 11
100.962
 21
328.577
 31
0.0
  0
LINE
  5
DC
330
17
100
AcDbEntity
  8
0
100
AcDbLine
 10
100.962
 20
328.577
 30
0.0
 11
102.493
 21
327.943
 31
0.0
  0
LINE
  5
DD
330
17
100
AcDbEntity
  8
0
100
AcDbLine
 10
102.493
 20
327.943
 30
0.0
 11
103.808
 21
326.933
 31
0.0
  0
LINE
  5
DE
330
17
100
AcDbEntity
  8
0
100
AcDbLine
 10
103.808
 20
326.933
 30
0.0
 11
104.817
 21
325.618
 31
0.0
  0
LINE
  5
DF
330
17
100
AcDbEntity
  8
0
100
AcDbLine
 10
104.817
 20
325.618
 30
0.0
 11
105.452
 21
324.087
 31
0.0
  0
LINE
  5
E0
330
17
100
AcDbEntity
  8
0
100
AcDbLine
 10
105.452
 20
324.087
 30
0.0
 11
105.668
 21
322.443
 31
0.0
  0
LINE
  5
E1
330
17
100
AcDbEntity
  8
0
100
AcDbLine
 10
105.668
 20
322.443
 30
0.0
 11
105.452
 21
320.8
 31
0.0
  0
LINE
  5
E2
330
17
100
AcDbEntity
  8
0
100
AcDbLine
 10
105.452
 20
320.8
 30
0.0
 11
104.817
 21
319.268
 31
0.0
  0
LINE
  5
E3
330
17
100
AcDbEntity
  8
0
100
AcDbLine
 10
104.817
 20
319.268
 30
0.0
 11
103.808
 21
317.953
 31
0.0
  0
LINE
  5
E4
330
17
100
AcDbEntity
  8
0
100
AcDbLine
 10
103.808
 20
317.953
 30
0.0
 11
102.493
 21
316.944
 31
0.0
  0
LINE
  5
E5
330
17
100
AcDbEntity
  8
0
100
AcDbLine
 10
102.493
 20
316.944
 30
0.0
 11
100.961
 21
316.31
 31
0.0
  0
LINE
  5
E6
330
17
100
AcDbEntity
  8
0
100
AcDbLine
 10
100.961
 20
316.31
 30
0.0
 11
99.318
 21
316.093
 31
0.0
  0
LINE
  5
E7
330
17
100
AcDbEntity
  8
0
100
AcDbLine
 10
99.318
 20
316.093
 30
0.0
 11
97.6745
 21
316.31
 31
0.0
  0
LINE
  5
E8
330
17
100
AcDbEntity
  8
0
100
AcDbLine
 10
97.6745
 20
316.31
 30
0.0
 11
96.143
 21
316.944
 31
0.0
  0
LINE
  5
E9
330
17
100
AcDbEntity
  8
0
100
AcDbLine
 10
96.143
 20
316.944
 30
0.0
 11
94.8279
 21
317.953
 31
0.0
  0
LINE
  5
EA
330
17
100
AcDbEntity
  8
0
100
AcDbLine
 10
94.8279
 20
317.953
 30
0.0
 11
93.8188
 21
319.268
 31
0.0
  0
LINE
  5
EB
330
17
100
AcDbEntity
  8
0
100
AcDbLine
 10
93.8188
 20
319.268
 30
0.0
 11
93.1844
 21
320.8
 31
0.0
  0
LINE
  5
EC
330
17
100
AcDbEntity
  8
0
100
AcDbLine
 10
93.1844
 20
320.8
 30
0.0
 11
92.9681
 21
322.443
 31
0.0
  0
LINE
  5
ED
330
17
100
AcDbEntity
  8
0
100
AcDbLine
 10
119.975
 20
273.888
 30
0.0
 11
120.192
 21
275.531
 31
0.0
  0
LINE
  5
EE
330
17
100
AcDbEntity
  8
0
100
AcDbLine
 10
120.192
 20
275.531
 30
0.0
 11
120.826
 21
277.063
 31
0.0
  0
LINE
  5
EF
330
17
100
AcDbEntity
  8
0
100
AcDbLine
 10
120.826
 20
277.063
 30
0.0
 11
121.835
 21
278.378
 31
0.0
  0
LINE
  5
F0
330
17
100
AcDbEntity
  8
0
100
AcDbLine
 10
121.835
 20
278.378
 30
0.0
 11
123.151
 21
279.387
 31
0.0
  0
LINE
  5
F1
330
17
100
AcDbEntity
  8
0
100
AcDbLine
 10
123.151
 20
279.387
 30
0.0
 11
124.682
 21
280.021
 31
0.0
  0
LINE
  5
F2
330
17
100
AcDbEntity
  8
0
100
AcDbLine
 10
124.682
 20
280.021
 30
0.0
 11
126.326
 21
280.238
 31
0.0
  0
LINE
  5
F3
330
17
100
AcDbEntity
  8
0
100
AcDbLine
 10
126.326
 20
280.238
 30
0.0
 11
127.969
 21
280.021
 31
0.0
  0
LINE
  5
F4
330
17
100
AcDbEntity
  8
0
100
AcDbLine
 10
127.969
 20
280.021
 30
0.0
 11
129.501
 21
279.387
 31
0.0
  0
LINE
  5
F5
330
17
100
AcDbEntity
  8
0
100
AcDbLine
 10
129.501
 20
279.387
 30
0.0
 11
130.816
 21
278.378
 31
0.0
  0
LINE
  5
F6
330
17
100
AcDbEntity
  8
0
100
AcDbLine
 10
130.816
 20
278.378
 30
0.0
 11
131.825
 21
277.063
 31
0.0
  0
LINE
  5
F7
330
17
100
AcDbEntity
  8
0
100
AcDbLine
 10
131.825
 20
277.063
 30
0.0
 11
132.459
 21
275.531
 31
0.0
  0
LINE
  5
F8
330
17
100
AcDbEntity
  8
0
100
AcDbLine
 10
132.459
 20
275.531
 30
0.0
 11
132.675
 21
273.888
 31
0.0
  0
LINE
  5
F9
330
17
100
AcDbEntity
  8
0
100
AcDbLine
 10
132.675
 20
273.888
 30
0.0
 11
132.459
 21
272.244
 31
0.0
  0
LINE
  5
FA
330
17
100
AcDbEntity
  8
0
100
AcDbLine
 10
132.459
 20
272.244
 30
0.0
 11
131.825
 21
270.713
 31
0.0
  0
LINE
  5
FB
330
17
100
AcDbEntity
  8
0
100
AcDbLine
 10
131.825
 20
270.713
 30
0.0
 11
130.816
 21
269.398
 31
0.0
  0
LINE
  5
FC
330
17
100
AcDbEntity
  8
0
100
AcDbLine
 10
130.816
 20
269.398
 30
0.0
 11
129.5
 21
268.388
 31
0.0
  0
LINE
  5
FD
330
17
100
AcDbEntity
  8
0
100
AcDbLine
 10
129.5
 20
268.388
 30
0.0
 11
127.969
 21
267.754
 31
0.0
  0
LINE
  5
FE
330
17
100
AcDbEntity
  8
0
100
AcDbLine
 10
127.969
 20
267.754
 30
0.0
 11
126.325
 21
267.538
 31
0.0
  0
LINE
  5
FF
330
17
100
AcDbEntity
  8
0
100
AcDbLine
 10
126.325
 20
267.538
 30
0.0
 11
124.682
 21
267.754
 31
0.0
  0
LINE
  5
100
330
17
100
AcDbEntity
  8
0
100
AcDbLine
 10
124.682
 20
267.754
 30
0.0
 11
123.15
 21
268.389
 31
0.0
  0
LINE
  5
101
330
17
100
AcDbEntity
  8
0
100
AcDbLine
 10
123.15
 20
268.389
 30
0.0
 11
121.835
 21
269.398
 31
0.0
  0
LINE
  5
102
330
17
100
AcDbEntity
  8
0
100
AcDbLine
 10
121.835
 20
269.398
 30
0.0
 11
120.826
 21
270.713
 31
0.0
  0
LINE
  5
103
330
17
100
AcDbEntity
  8
0
100
AcDbLine
 10
120.826
 20
270.713
 30
0.0
 11
120.192
 21
272.244
 31
0.0
  0
LINE
  5
104
330
17
100
AcDbEntity
  8
0
100
AcDbLine
 10
120.192
 20
272.244
 30
0.0
 11
119.975
 21
273.888
 31
0.0
  0
LINE
  5
105
330
17
100
AcDbEntity
  8
0
100
AcDbLine
 10
215.225
 20
233.886
 30
0.0
 11
215.347
 21
235.125
 31
0.0
  0
LINE
  5
106
330
17
100
AcDbEntity
  8
0
100
AcDbLine
 10
215.347
 20
235.125
 30
0.0
 11
215.708
 21
236.316
 31
0.0
  0
LINE
  5
107
330
17
100
AcDbEntity
  8
0
100
AcDbLine
 10
215.708
 20
236.316
 30
0.0
 11
216.295
 21
237.414
 31
0.0
  0
LINE
  5
108
330
17
100
AcDbEntity
  8
0
100
AcDbLine
 10
216.295
 20
237.414
 30
0.0
 11
217.085
 21
238.376
 31
0.0
  0
LINE
  5
109
330
17
100
AcDbEntity
  8
0
100
AcDbLine
 10
217.085
 20
238.376
 30
0.0
 11
218.047
 21
239.166
 31
0.0
  0
LINE
  5
10A
330
17
100
AcDbEntity
  8
0
100
AcDbLine
 10
218.047
 20
239.166
 30
0.0
 11
219.145
 21
239.753
 31
0.0
  0
LINE
  5
10B
330
17
100
AcDbEntity
  8
0
100
AcDbLine
 10
219.145
 20
239.753
 30
0.0
 11
220.336
 21
240.114
 31
0.0
  0
LINE
  5
10C
330
17
100
AcDbEntity
  8
0
100
AcDbLine
 10
220.336
 20
240.114
 30
0.0
 11
221.575
 21
240.236
 31
0.0
  0
LINE
  5
10D
330
17
100
AcDbEntity
  8
0
100
AcDbLine
 10
221.575
 20
240.236
 30
0.0
 11
222.814
 21
240.114
 31
0.0
  0
LINE
  5
10E
330
17
100
AcDbEntity
  8
0
100
AcDbLine
 10
222.814
 20
240.114
 30
0.0
 11
224.005
 21
239.753
 31
0.0
  0
LINE
  5
10F
330
17
100
AcDbEntity
  8
0
100
AcDbLine
 10
224.005
 20
239.753
 30
0.0
 11
225.103
 21
239.166
 31
0.0
  0
LINE
  5
110
330
17
100
AcDbEntity
  8
0
100
AcDbLine
 10
225.103
 20
239.166
 30
0.0
 11
226.065
 21
238.376
 31
0.0
  0
LINE
  5
111
330
17
100
AcDbEntity
  8
0
100
AcDbLine
 10
226.065
 20
238.376
 30
0.0
 11
226.855
 21
237.414
 31
0.0
  0
LINE
  5
112
330
17
100
AcDbEntity
  8
0
100
AcDbLine
 10
226.855
 20
237.414
 30
0.0
 11
227.441
 21
236.316
 31
0.0
  0
LINE
  5
113
330
17
100
AcDbEntity
  8
0
100
AcDbLine
 10
227.441
 20
236.316
 30
0.0
 11
227.803
 21
235.125
 31
0.0
  0
LINE
  5
114
330
17
100
AcDbEntity
  8
0
100
AcDbLine
 10
227.803
 20
235.125
 30
0.0
 11
227.925
 21
233.886
 31
0.0
  0
LINE
  5
115
330
17
100
AcDbEntity
  8
0
100
AcDbLine
 10
227.925
 20
233.886
 30
0.0
 11
227.803
 21
232.647
 31
0.0
  0
LINE
  5
116
330
17
100
AcDbEntity
  8
0
100
AcDbLine
 10
227.803
 20
232.647
 30
0.0
 11
227.441
 21
231.456
 31
0.0
  0
LINE
  5
117
330
17
100
AcDbEntity
  8
0
100
AcDbLine
 10
227.441
 20
231.456
 30
0.0
 11
226.855
 21
230.358
 31
0.0
  0
LINE
  5
118
330
17
100
AcDbEntity
  8
0
100
AcDbLine
 10
226.855
 20
230.358
 30
0.0
 11
226.065
 21
229.396
 31
0.0
  0
LINE
  5
119
330
17
100
AcDbEntity
  8
0
100
AcDbLine
 10
226.065
 20
229.396
 30
0.0
 11
225.103
 21
228.606
 31
0.0
  0
LINE
  5
11A
330
17
100
AcDbEntity
  8
0
100
AcDbLine
 10
225.103
 20
228.606
 30
0.0
 11
224.005
 21
228.019
 31
0.0
  0
LINE
  5
11B
330
17
100
AcDbEntity
  8
0
100
AcDbLine
 10
224.005
 20
228.019
 30
0.0
 11
222.813
 21
227.658
 31
0.0
  0
LINE
  5
11C
330
17
100
AcDbEntity
  8
0
100
AcDbLine
 10
222.813
 20
227.658
 30
0.0
 11
221.575
 21
227.536
 31
0.0
  0
LINE
  5
11D
330
17
100
AcDbEntity
  8
0
100
AcDbLine
 10
221.575
 20
227.536
 30
0.0
 11
220.336
 21
227.658
 31
0.0
  0
LINE
  5
11E
330
17
100
AcDbEntity
  8
0
100
AcDbLine
 10
220.336
 20
227.658
 30
0.0
 11
219.145
 21
228.019
 31
0.0
  0
LINE
  5
11F
330
17
100
AcDbEntity
  8
0
100
AcDbLine
 10
219.145
 20
228.019
 30
0.0
 11
218.047
 21
228.606
 31
0.0
  0
LINE
  5
120
330
17
100
AcDbEntity
  8
0
100
AcDbLine
 10
218.047
 20
228.606
 30
0.0
 11
217.085
 21
229.396
 31
0.0
  0
LINE
  5
121
330
17
100
AcDbEntity
  8
0
100
AcDbLine
 10
217.085
 20
229.396
 30
0.0
 11
216.295
 21
230.358
 31
0.0
  0
LINE
  5
122
330
17
100
AcDbEntity
  8
0
100
AcDbLine
 10
216.295
 20
230.358
 30
0.0
 11
215.708
 21
231.456
 31
0.0
  0
LINE
  5
123
330
17
100
AcDbEntity
  8
0
100
AcDbLine
 10
215.708
 20
231.456
 30
0.0
 11
215.347
 21
232.647
 31
0.0
  0
LINE
  5
124
330
17
100
AcDbEntity
  8
0
100
AcDbLine
 10
215.347
 20
232.647
 30
0.0
 11
215.225
 21
233.886
 31
0.0
  0
LINE
  5
125
330
17
100
AcDbEntity
  8
0
100
AcDbLine
 10
215.226
 20
313.886
 30
0.0
 11
215.348
 21
315.125
 31
0.0
  0
LINE
  5
126
330
17
100
AcDbEntity
  8
0
100
AcDbLine
 10
215.348
 20
315.125
 30
0.0
 11
215.71
 21
316.316
 31
0.0
  0
LINE
  5
127
330
17
100
AcDbEntity
  8
0
100
AcDbLine
 10
215.71
 20
316.316
 30
0.0
 11
216.296
 21
317.414
 31
0.0
  0
LINE
  5
128
330
17
100
AcDbEntity
  8
0
100
AcDbLine
 10
216.296
 20
317.414
 30
0.0
 11
217.086
 21
318.376
 31
0.0
  0
LINE
  5
129
330
17
100
AcDbEntity
  8
0
100
AcDbLine
 10
217.086
 20
318.376
 30
0.0
 11
218.048
 21
319.166
 31
0.0
  0
LINE
  5
12A
330
17
100
AcDbEntity
  8
0
100
AcDbLine
 10
218.048
 20
319.166
 30
0.0
 11
219.146
 21
319.753
 31
0.0
  0
LINE
  5
12B
330
17
100
AcDbEntity
  8
0
100
AcDbLine
 10
219.146
 20
319.753
 30
0.0
 11
220.337
 21
320.114
 31
0.0
  0
LINE
  5
12C
330
17
100
AcDbEntity
  8
0
100
AcDbLine
 10
220.337
 20
320.114
 30
0.0
 11
221.576
 21
320.236
 31
0.0
  0
LINE
  5
12D
330
17
100
AcDbEntity
  8
0
100
AcDbLine
 10
221.576
 20
320.236
 30
0.0
 11
222.815
 21
320.114
 31
0.0
  0
LINE
  5
12E
330
17
100
AcDbEntity
  8
0
100
AcDbLine
 10
222.815
 20
320.114
 30
0.0
 11
224.006
 21
319.753
 31
0.0
  0
LINE
  5
12F
330
17
100
AcDbEntity
  8
0
100
AcDbLine
 10
224.006
 20
319.753
 30
0.0
 11
225.104
 21
319.166
 31
0.0
  0
LINE
  5
130
330
17
100
AcDbEntity
  8
0
100
AcDbLine
 10
225.104
 20
319.166
 30
0.0
 11
226.066
 21
318.376
 31
0.0
  0
LINE
  5
131
330
17
100
AcDbEntity
  8
0
100
AcDbLine
 10
226.066
 20
318.376
 30
0.0
 11
226.856
 21
317.414
 31
0.0
  0
LINE
  5
132
330
17
100
AcDbEntity
  8
0
100
AcDbLine
 10
226.856
 20
317.414
 30
0.0
 11
227.443
 21
316.316
 31
0.0
  0
LINE
  5
133
330
17
100
AcDbEntity
  8
0
100
AcDbLine
 10
227.443
 20
316.316
 30
0.0
 11
227.804
 21
315.125
 31
0.0
  0
LINE
  5
134
330
17
100
AcDbEntity
  8
0
100
AcDbLine
 10
227.804
 20
315.125
 30
0.0
 11
227.926
 21
313.886
 31
0.0
  0
LINE
  5
135
330
17
100
AcDbEntity
  8
0
100
AcDbLine
 10
227.926
 20
313.886
 30
0.0
 11
227.804
 21
312.647
 31
0.0
  0
LINE
  5
136
330
17
100
AcDbEntity
  8
0
100
AcDbLine
 10
227.804
 20
312.647
 30
0.0
 11
227.443
 21
311.456
 31
0.0
  0
LINE
  5
137
330
17
100
AcDbEntity
  8
0
100
AcDbLine
 10
227.443
 20
311.456
 30
0.0
 11
226.856
 21
310.358
 31
0.0
  0
LINE
  5
138
330
17
100
AcDbEntity
  8
0
100
AcDbLine
 10
226.856
 20
310.358
 30
0.0
 11
226.066
 21
309.396
 31
0.0
  0
LINE
  5
139
330
17
100
AcDbEntity
  8
0
100
AcDbLine
 10
226.066
 20
309.396
 30
0.0
 11
225.104
 21
308.606
 31
0.0
  0
LINE
  5
13A
330
17
100
AcDbEntity
  8
0
100
AcDbLine
 10
225.104
 20
308.606
 30
0.0
 11
224.006
 21
308.019
 31
0.0
  0
LINE
  5
13B
330
17
100
AcDbEntity
  8
0
100
AcDbLine
 10
224.006
 20
308.019
 30
0.0
 11
222.815
 21
307.658
 31
0.0
  0
LINE
  5
13C
330
17
100
AcDbEntity
  8
0
100
AcDbLine
 10
222.815
 20
307.658
 30
0.0
 11
221.576
 21
307.536
 31
0.0
  0
LINE
  5
13D
330
17
100
AcDbEntity
  8
0
100
AcDbLine
 10
221.576
 20
307.536
 30
0.0
 11
220.337
 21
307.658
 31
0.0
  0
LINE
  5
13E
330
17
100
AcDbEntity
  8
0
100
AcDbLine
 10
220.337
 20
307.658
 30
0.0
 11
219.146
 21
308.019
 31
0.0
  0
LINE
  5
13F
330
17
100
AcDbEntity
  8
0
100
AcDbLine
 10
219.146
 20
308.019
 30
0.0
 11
218.048
 21
308.606
 31
0.0
  0
LINE
  5
140
330
17
100
AcDbEntity
  8
0
100
AcDbLine
 10
218.048
 20
308.606
 30
0.0
 11
217.086
 21
309.396
 31
0.0
  0
LINE
  5
141
330
17
100
AcDbEntity
  8
0
100
AcDbLine
 10
217.086
 20
309.396
 30
0.0
 11
216.296
 21
310.358
 31
0.0
  0
LINE
  5
142
330
17
100
AcDbEntity
  8
0
100
AcDbLine
 10
216.296
 20
310.358
 30
0.0
 11
215.709
 21
311.456
 31
0.0
  0
LINE
  5
143
330
17
100
AcDbEntity
  8
0
100
AcDbLine
 10
215.709
 20
311.456
 30
0.0
 11
215.348
 21
312.647
 31
0.0
  0
LINE
  5
144
330
17
100
AcDbEntity
  8
0
100
AcDbLine
 10
215.348
 20
312.647
 30
0.0
 11
215.226
 21
313.886
 31
0.0
  0
LINE
  5
145
330
17
100
AcDbEntity
  8
0
100
AcDbLine
 10
315.225
 20
233.884
 30
0.0
 11
315.347
 21
235.123
 31
0.0
  0
LINE
  5
146
330
17
100
AcDbEntity
  8
0
100
AcDbLine
 10
315.347
 20
235.123
 30
0.0
 11
315.708
 21
236.314
 31
0.0
  0
LINE
  5
147
330
17
100
AcDbEntity
  8
0
100
AcDbLine
 10
315.708
 20
236.314
 30
0.0
 11
316.295
 21
237.412
 31
0.0
  0
LINE
  5
148
330
17
100
AcDbEntity
  8
0
100
AcDbLine
 10
316.295
 20
237.412
 30
0.0
 11
317.085
 21
238.375
 31
0.0
  0
LINE
  5
149
330
17
100
AcDbEntity
  8
0
100
AcDbLine
 10
317.085
 20
238.375
 30
0.0
 11
318.047
 21
239.164
 31
0.0
  0
LINE
  5
14A
330
17
100
AcDbEntity
  8
0
100
AcDbLine
 10
318.047
 20
239.164
 30
0.0
 11
319.145
 21
239.751
 31
0.0
  0
LINE
  5
14B
330
17
100
AcDbEntity
  8
0
100
AcDbLine
 10
319.145
 20
239.751
 30
0.0
 11
320.336
 21
240.112
 31
0.0
  0
LINE
  5
14C
330
17
100
AcDbEntity
  8
0
100
AcDbLine
 10
320.336
 20
240.112
 30
0.0
 11
321.575
 21
240.234
 31
0.0
  0
LINE
  5
14D
330
17
100
AcDbEntity
  8
0
100
AcDbLine
 10
321.575
 20
240.234
 30
0.0
 11
322.814
 21
240.112
 31
0.0
  0
LINE
  5
14E
330
17
100
AcDbEntity
  8
0
100
AcDbLine
 10
322.814
 20
240.112
 30
0.0
 11
324.005
 21
239.751
 31
0.0
  0
LINE
  5
14F
330
17
100
AcDbEntity
  8
0
100
AcDbLine
 10
324.005
 20
239.751
 30
0.0
 11
325.103
 21
239.164
 31
0.0
  0
LINE
  5
150
330
17
100
AcDbEntity
  8
0
100
AcDbLine
 10
325.103
 20
239.164
 30
0.0
 11
326.065
 21
238.374
 31
0.0
  0
LINE
  5
151
330
17
100
AcDbEntity
  8
0
100
AcDbLine
 10
326.065
 20
238.374
 30
0.0
 11
326.855
 21
237.412
 31
0.0
  0
LINE
  5
152
330
17
100
AcDbEntity
  8
0
100
AcDbLine
 10
326.855
 20
237.412
 30
0.0
 11
327.441
 21
236.314
 31
0.0
  0
LINE
  5
153
330
17
100
AcDbEntity
  8
0
100
AcDbLine
 10
327.441
 20
236.314
 30
0.0
 11
327.803
 21
235.123
 31
0.0
  0
LINE
  5
154
330
17
100
AcDbEntity
  8
0
100
AcDbLine
 10
327.803
 20
235.123
 30
0.0
 11
327.925
 21
233.884
 31
0.0
  0
LINE
  5
155
330
17
100
AcDbEntity
  8
0
100
AcDbLine
 10
327.925
 20
233.884
 30
0.0
 11
327.803
 21
232.645
 31
0.0
  0
LINE
  5
156
330
17
100
AcDbEntity
  8
0
100
AcDbLine
 10
327.803
 20
232.645
 30
0.0
 11
327.441
 21
231.454
 31
0.0
  0
LINE
  5
157
330
17
100
AcDbEntity
  8
0
100
AcDbLine
 10
327.441
 20
231.454
 30
0.0
 11
326.855
 21
230.356
 31
0.0
  0
LINE
  5
158
330
17
100
AcDbEntity
  8
0
100
AcDbLine
 10
326.855
 20
230.356
 30
0.0
 11
326.065
 21
229.394
 31
0.0
  0
LINE
  5
159
330
17
100
AcDbEntity
  8
0
100
AcDbLine
 10
326.065
 20
229.394
 30
0.0
 11
325.103
 21
228.604
 31
0.0
  0
LINE
  5
15A
330
17
100
AcDbEntity
  8
0
100
AcDbLine
 10
325.103
 20
228.604
 30
0.0
 11
324.005
 21
228.018
 31
0.0
  0
LINE
  5
15B
330
17
100
AcDbEntity
  8
0
100
AcDbLine
 10
324.005
 20
228.018
 30
0.0
 11
322.813
 21
227.656
 31
0.0
  0
LINE
  5
15C
330
17
100
AcDbEntity
  8
0
100
AcDbLine
 10
322.813
 20
227.656
 30
0.0
 11
321.575
 21
227.534
 31
0.0
  0
LINE
  5
15D
330
17
100
AcDbEntity
  8
0
100
AcDbLine
 10
321.575
 20
227.534
 30
0.0
 11
320.336
 21
227.656
 31
0.0
  0
LINE
  5
15E
330
17
100
AcDbEntity
  8
0
100
AcDbLine
 10
320.336
 20
227.656
 30
0.0
 11
319.145
 21
228.018
 31
0.0
  0
LINE
  5
15F
330
17
100
AcDbEntity
  8
0
100
AcDbLine
 10
319.145
 20
228.018
 30
0.0
 11
318.047
 21
228.605
 31
0.0
  0
LINE
  5
160
330
17
100
AcDbEntity
  8
0
100
AcDbLine
 10
318.047
 20
228.605
 30
0.0
 11
317.085
 21
229.394
 31
0.0
  0
LINE
  5
161
330
17
100
AcDbEntity
  8
0
100
AcDbLine
 10
317.085
 20
229.394
 30
0.0
 11
316.295
 21
230.357
 31
0.0
  0
LINE
  5
162
330
17
100
AcDbEntity
  8
0
100
AcDbLine
 10
316.295
 20
230.357
 30
0.0
 11
315.708
 21
231.454
 31
0.0
  0
LINE
  5
163
330
17
100
AcDbEntity
  8
0
100
AcDbLine
 10
315.708
 20
231.454
 30
0.0
 11
315.347
 21
232.646
 31
0.0
  0
LINE
  5
164
330
17
100
AcDbEntity
  8
0
100
AcDbLine
 10
315.347
 20
232.646
 30
0.0
 11
315.225
 21
233.884
 31
0.0
  0
LINE
  5
165
330
17
100
AcDbEntity
  8
0
100
AcDbLine
 10
315.226
 20
313.884
 30
0.0
 11
315.348
 21
315.123
 31
0.0
  0
LINE
  5
166
330
17
100
AcDbEntity
  8
0
100
AcDbLine
 10
315.348
 20
315.123
 30
0.0
 11
315.71
 21
316.314
 31
0.0
  0
LINE
  5
167
330
17
100
AcDbEntity
  8
0
100
AcDbLine
 10
315.71
 20
316.314
 30
0.0
 11
316.296
 21
317.412
 31
0.0
  0
LINE
  5
168
330
17
100
AcDbEntity
  8
0
100
AcDbLine
 10
316.296
 20
317.412
 30
0.0
 11
317.086
 21
318.375
 31
0.0
  0
LINE
  5
169
330
17
100
AcDbEntity
  8
0
100
AcDbLine
 10
317.086
 20
318.375
 30
0.0
 11
318.048
 21
319.164
 31
0.0
  0
LINE
  5
16A
330
17
100
AcDbEntity
  8
0
100
AcDbLine
 10
318.048
 20
319.164
 30
0.0
 11
319.146
 21
319.751
 31
0.0
  0
LINE
  5
16B
330
17
100
AcDbEntity
  8
0
100
AcDbLine
 10
319.146
 20
319.751
 30
0.0
 11
320.337
 21
320.112
 31
0.0
  0
LINE
  5
16C
330
17
100
AcDbEntity
  8
0
100
AcDbLine
 10
320.337
 20
320.112
 30
0.0
 11
321.576
 21
320.234
 31
0.0
  0
LINE
  5
16D
330
17
100
AcDbEntity
  8
0
100
AcDbLine
 10
321.576
 20
320.234
 30
0.0
 11
322.815
 21
320.112
 31
0.0
  0
LINE
  5
16E
330
17
100
AcDbEntity
  8
0
100
AcDbLine
 10
322.815
 20
320.112
 30
0.0
 11
324.006
 21
319.751
 31
0.0
  0
LINE
  5
16F
330
17
100
AcDbEntity
  8
0
100
AcDbLine
 10
324.006
 20
319.751
 30
0.0
 11
325.104
 21
319.164
 31
0.0
  0
LINE
  5
170
330
17
100
AcDbEntity
  8
0
100
AcDbLine
 10
325.104
 20
319.164
 30
0.0
 11
326.066
 21
318.374
 31
0.0
  0
LINE
  5
171
330
17
100
AcDbEntity
  8
0
100
AcDbLine
 10
326.066
 20
318.374
 30
0.0
 11
326.856
 21
317.412
 31
0.0
  0
LINE
  5
172
330
17
100
AcDbEntity
  8
0
100
AcDbLine
 10
326.856
 20
317.412
 30
0.0
 11
327.443
 21
316.314
 31
0.0
  0
LINE
  5
173
330
17
100
AcDbEntity
  8
0
100
AcDbLine
 10
327.443
 20
316.314
 30
0.0
 11
327.804
 21
315.123
 31
0.0
  0
LINE
  5
174
330
17
100
AcDbEntity
  8
0
100
AcDbLine
 10
327.804
 20
315.123
 30
0.0
 11
327.926
 21
313.884
 31
0.0
  0
LINE
  5
175
330
17
100
AcDbEntity
  8
0
100
AcDbLine
 10
327.926
 20
313.884
 30
0.0
 11
327.804
 21
312.645
 31
0.0
  0
LINE
  5
176
330
17
100
AcDbEntity
  8
0
100
AcDbLine
 10
327.804
 20
312.645
 30
0.0
 11
327.443
 21
311.454
 31
0.0
  0
LINE
  5
177
330
17
100
AcDbEntity
  8
0
100
AcDbLine
 10
327.443
 20
311.454
 30
0.0
 11
326.856
 21
310.356
 31
0.0
  0
LINE
  5
178
330
17
100
AcDbEntity
  8
0
100
AcDbLine
 10
326.856
 20
310.356
 30
0.0
 11
326.066
 21
309.394
 31
0.0
  0
LINE
  5
179
330
17
100
AcDbEntity
  8
0
100
AcDbLine
 10
326.066
 20
309.394
 30
0.0
 11
325.104
 21
308.604
 31
0.0
  0
LINE
  5
17A
330
17
100
AcDbEntity
  8
0
100
AcDbLine
 10
325.104
 20
308.604
 30
0.0
 11
324.006
 21
308.018
 31
0.0
  0
LINE
  5
17B
330
17
100
AcDbEntity
  8
0
100
AcDbLine
 10
324.006
 20
308.018
 30
0.0
 11
322.815
 21
307.656
 31
0.0
  0
LINE
  5
17C
330
17
100
AcDbEntity
  8
0
100
AcDbLine
 10
322.815
 20
307.656
 30
0.0
 11
321.576
 21
307.534
 31
0.0
  0
LINE
  5
17D
330
17
100
AcDbEntity
  8
0
100
AcDbLine
 10
321.576
 20
307.534
 30
0.0
 11
320.337
 21
307.656
 31
0.0
  0
LINE
  5
17E
330
17
100
AcDbEntity
  8
0
100
AcDbLine
 10
320.337
 20
307.656
 30
0.0
 11
319.146
 21
308.018
 31
0.0
  0
LINE
  5
17F
330
17
100
AcDbEntity
  8
0
100
AcDbLine
 10
319.146
 20
308.018
 30
0.0
 11
318.048
 21
308.605
 31
0.0
  0
LINE
  5
180
330
17
100
AcDbEntity
  8
0
100
AcDbLine
 10
318.048
 20
308.605
 30
0.0
 11
317.086
 21
309.394
 31
0.0
  0
LINE
  5
181
330
17
100
AcDbEntity
  8
0
100
AcDbLine
 10
317.086
 20
309.394
 30
0.0
 11
316.296
 21
310.357
 31
0.0
  0
LINE
  5
182
330
17
100
AcDbEntity
  8
0
100
AcDbLine
 10
316.296
 20
310.357
 30
0.0
 11
315.709
 21
311.454
 31
0.0
  0
LINE
  5
183
330
17
100
AcDbEntity
  8
0
100
AcDbLine
 10
315.709
 20
311.454
 30
0.0
 11
315.348
 21
312.646
 31
0.0
  0
LINE
  5
184
330
17
100
AcDbEntity
  8
0
100
AcDbLine
 10
315.348
 20
312.646
 30
0.0
 11
315.226
 21
313.884
 31
0.0
  0
LINE
  5
185
330
17
100
AcDbEntity
  8
0
100
AcDbLine
 10
729.453
 20
248.477
 30
0.0
 11
729.454
 21
299.277
 31
0.0
  0
LINE
  5
186
330
17
100
AcDbEntity
  8
0
100
AcDbLine
 10
729.454
 20
299.277
 30
0.0
 11
881.854
 21
299.275
 31
0.0
  0
LINE
  5
187
330
17
100
AcDbEntity
  8
0
100
AcDbLine
 10
881.854
 20
299.275
 30
0.0
 11
881.853
 21
248.475
 31
0.0
  0
LINE
  5
188
330
17
100
AcDbEntity
  8
0
100
AcDbLine
 10
881.853
 20
248.475
 30
0.0
 11
729.453
 21
248.477
 31
0.0
  0
LINE
  5
189
330
17
100
AcDbEntity
  8
0
100
AcDbLine
 10
748.502
 20
223.077
 30
0.0
 11
748.624
 21
224.316
 31
0.0
  0
LINE
  5
18A
330
17
100
AcDbEntity
  8
0
100
AcDbLine
 10
748.624
 20
224.316
 30
0.0
 11
748.986
 21
225.507
 31
0.0
  0
LINE
  5
18B
330
17
100
AcDbEntity
  8
0
100
AcDbLine
 10
748.986
 20
225.507
 30
0.0
 11
749.573
 21
226.605
 31
0.0
  0
LINE
  5
18C
330
17
100
AcDbEntity
  8
0
100
AcDbLine
 10
749.573
 20
226.605
 30
0.0
 11
750.362
 21
227.567
 31
0.0
  0
LINE
  5
18D
330
17
100
AcDbEntity
  8
0
100
AcDbLine
 10
750.362
 20
227.567
 30
0.0
 11
751.325
 21
228.357
 31
0.0
  0
LINE
  5
18E
330
17
100
AcDbEntity
  8
0
100
AcDbLine
 10
751.325
 20
228.357
 30
0.0
 11
752.422
 21
228.943
 31
0.0
  0
LINE
  5
18F
330
17
100
AcDbEntity
  8
0
100
AcDbLine
 10
752.422
 20
228.943
 30
0.0
 11
753.614
 21
229.305
 31
0.0
  0
LINE
  5
190
330
17
100
AcDbEntity
  8
0
100
AcDbLine
 10
753.614
 20
229.305
 30
0.0
 11
754.852
 21
229.427
 31
0.0
  0
LINE
  5
191
330
17
100
AcDbEntity
  8
0
100
AcDbLine
 10
754.852
 20
229.427
 30
0.0
 11
756.091
 21
229.305
 31
0.0
  0
LINE
  5
192
330
17
100
AcDbEntity
  8
0
100
AcDbLine
 10
756.091
 20
229.305
 30
0.0
 11
757.283
 21
228.943
 31
0.0
  0
LINE
  5
193
330
17
100
AcDbEntity
  8
0
100
AcDbLine
 10
757.283
 20
228.943
 30
0.0
 11
758.38
 21
228.357
 31
0.0
  0
LINE
  5
194
330
17
100
AcDbEntity
  8
0
100
AcDbLine
 10
758.38
 20
228.357
 30
0.0
 11
759.343
 21
227.567
 31
0.0
  0
LINE
  5
195
330
17
100
AcDbEntity
  8
0
100
AcDbLine
 10
759.343
 20
227.567
 30
0.0
 11
760.132
 21
226.605
 31
0.0
  0
LINE
  5
196
330
17
100
AcDbEntity
  8
0
100
AcDbLine
 10
760.132
 20
226.605
 30
0.0
 11
760.719
 21
225.507
 31
0.0
  0
LINE
  5
197
330
17
100
AcDbEntity
  8
0
100
AcDbLine
 10
760.719
 20
225.507
 30
0.0
 11
761.08
 21
224.315
 31
0.0
  0
LINE
  5
198
330
17
100
AcDbEntity
  8
0
100
AcDbLine
 10
761.08
 20
224.315
 30
0.0
 11
761.202
 21
223.077
 31
0.0
  0
LINE
  5
199
330
17
100
AcDbEntity
  8
0
100
AcDbLine
 10
761.202
 20
223.077
 30
0.0
 11
761.08
 21
221.838
 31
0.0
  0
LINE
  5
19A
330
17
100
AcDbEntity
  8
0
100
AcDbLine
 10
761.08
 20
221.838
 30
0.0
 11
760.719
 21
220.647
 31
0.0
  0
LINE
  5
19B
330
17
100
AcDbEntity
  8
0
100
AcDbLine
 10
760.719
 20
220.647
 30
0.0
 11
760.132
 21
219.549
 31
0.0
  0
LINE
  5
19C
330
17
100
AcDbEntity
  8
0
100
AcDbLine
 10
760.132
 20
219.549
 30
0.0
 11
759.342
 21
218.587
 31
0.0
  0
LINE
  5
19D
330
17
100
AcDbEntity
  8
0
100
AcDbLine
 10
759.342
 20
218.587
 30
0.0
 11
758.38
 21
217.797
 31
0.0
  0
LINE
  5
19E
330
17
100
AcDbEntity
  8
0
100
AcDbLine
 10
758.38
 20
217.797
 30
0.0
 11
757.282
 21
217.21
 31
0.0
  0
LINE
  5
19F
330
17
100
AcDbEntity
  8
0
100
AcDbLine
 10
757.282
 20
217.21
 30
0.0
 11
756.091
 21
216.849
 31
0.0
  0
LINE
  5
1A0
330
17
100
AcDbEntity
  8
0
100
AcDbLine
 10
756.091
 20
216.849
 30
0.0
 11
754.852
 21
216.727
 31
0.0
  0
LINE
  5
1A1
330
17
100
AcDbEntity
  8
0
100
AcDbLine
 10
754.852
 20
216.727
 30
0.0
 11
753.613
 21
216.849
 31
0.0
  0
LINE
  5
1A2
330
17
100
AcDbEntity
  8
0
100
AcDbLine
 10
753.613
 20
216.849
 30
0.0
 11
752.422
 21
217.21
 31
0.0
  0
LINE
  5
1A3
330
17
100
AcDbEntity
  8
0
100
AcDbLine
 10
752.422
 20
217.21
 30
0.0
 11
751.324
 21
217.797
 31
0.0
  0
LINE
  5
1A4
330
17
100
AcDbEntity
  8
0
100
AcDbLine
 10
751.324
 20
217.797
 30
0.0
 11
750.362
 21
218.587
 31
0.0
  0
LINE
  5
1A5
330
17
100
AcDbEntity
  8
0
100
AcDbLine
 10
750.362
 20
218.587
 30
0.0
 11
749.572
 21
219.549
 31
0.0
  0
LINE
  5
1A6
330
17
100
AcDbEntity
  8
0
100
AcDbLine
 10
749.572
 20
219.549
 30
0.0
 11
748.986
 21
220.647
 31
0.0
  0
LINE
  5
1A7
330
17
100
AcDbEntity
  8
0
100
AcDbLine
 10
748.986
 20
220.647
 30
0.0
 11
748.624
 21
221.838
 31
0.0
  0
LINE
  5
1A8
330
17
100
AcDbEntity
  8
0
100
AcDbLine
 10
748.624
 20
221.838
 30
0.0
 11
748.502
 21
223.077
 31
0.0
  0
LINE
  5
1A9
330
17
100
AcDbEntity
  8
0
100
AcDbLine
 10
748.504
 20
324.677
 30
0.0
 11
748.626
 21
325.916
 31
0.0
  0
LINE
  5
1AA
330
17
100
AcDbEntity
  8
0
100
AcDbLine
 10
748.626
 20
325.916
 30
0.0
 11
748.988
 21
327.107
 31
0.0
  0
LINE
  5
1AB
330
17
100
AcDbEntity
  8
0
100
AcDbLine
 10
748.988
 20
327.107
 30
0.0
 11
749.574
 21
328.205
 31
0.0
  0
LINE
  5
1AC
330
17
100
AcDbEntity
  8
0
100
AcDbLine
 10
749.574
 20
328.205
 30
0.0
 11
750.364
 21
329.167
 31
0.0
  0
LINE
  5
1AD
330
17
100
AcDbEntity
  8
0
100
AcDbLine
 10
750.364
 20
329.167
 30
0.0
 11
751.326
 21
329.957
 31
0.0
  0
LINE
  5
1AE
330
17
100
AcDbEntity
  8
0
100
AcDbLine
 10
751.326
 20
329.957
 30
0.0
 11
752.424
 21
330.543
 31
0.0
  0
LINE
  5
1AF
330
17
100
AcDbEntity
  8
0
100
AcDbLine
 10
752.424
 20
330.543
 30
0.0
 11
753.615
 21
330.905
 31
0.0
  0
LINE
  5
1B0
330
17
100
AcDbEntity
  8
0
100
AcDbLine
 10
753.615
 20
330.905
 30
0.0
 11
754.854
 21
331.027
 31
0.0
  0
LINE
  5
1B1
330
17
100
AcDbEntity
  8
0
100
AcDbLine
 10
754.854
 20
331.027
 30
0.0
 11
756.093
 21
330.905
 31
0.0
  0
LINE
  5
1B2
330
17
100
AcDbEntity
  8
0
100
AcDbLine
 10
756.093
 20
330.905
 30
0.0
 11
757.284
 21
330.543
 31
0.0
  0
LINE
  5
1B3
330
17
100
AcDbEntity
  8
0
100
AcDbLine
 10
757.284
 20
330.543
 30
0.0
 11
758.382
 21
329.957
 31
0.0
  0
LINE
  5
1B4
330
17
100
AcDbEntity
  8
0
100
AcDbLine
 10
758.382
 20
329.957
 30
0.0
 11
759.344
 21
329.167
 31
0.0
  0
LINE
  5
1B5
330
17
100
AcDbEntity
  8
0
100
AcDbLine
 10
759.344
 20
329.167
 30
0.0
 11
760.134
 21
328.205
 31
0.0
  0
LINE
  5
1B6
330
17
100
AcDbEntity
  8
0
100
AcDbLine
 10
760.134
 20
328.205
 30
0.0
 11
760.721
 21
327.107
 31
0.0
  0
LINE
  5
1B7
330
17
100
AcDbEntity
  8
0
100
AcDbLine
 10
760.721
 20
327.107
 30
0.0
 11
761.082
 21
325.915
 31
0.0
  0
LINE
  5
1B8
330
17
100
AcDbEntity
  8
0
100
AcDbLine
 10
761.082
 20
325.915
 30
0.0
 11
761.204
 21
324.677
 31
0.0
  0
LINE
  5
1B9
330
17
100
AcDbEntity
  8
0
100
AcDbLine
 10
761.204
 20
324.677
 30
0.0
 11
761.082
 21
323.438
 31
0.0
  0
LINE
  5
1BA
330
17
100
AcDbEntity
  8
0
100
AcDbLine
 10
761.082
 20
323.438
 30
0.0
 11
760.721
 21
322.247
 31
0.0
  0
LINE
  5
1BB
330
17
100
AcDbEntity
  8
0
100
AcDbLine
 10
760.721
 20
322.247
 30
0.0
 11
760.134
 21
321.149
 31
0.0
  0
LINE
  5
1BC
330
17
100
AcDbEntity
  8
0
100
AcDbLine
 10
760.134
 20
321.149
 30
0.0
 11
759.344
 21
320.187
 31
0.0
  0
LINE
  5
1BD
330
17
100
AcDbEntity
  8
0
100
AcDbLine
 10
759.344
 20
320.187
 30
0.0
 11
758.382
 21
319.397
 31
0.0
  0
LINE
  5
1BE
330
17
100
AcDbEntity
  8
0
100
AcDbLine
 10
758.382
 20
319.397
 30
0.0
 11
757.284
 21
318.81
 31
0.0
  0
LINE
  5
1BF
330
17
100
AcDbEntity
  8
0
100
AcDbLine
 10
757.284
 20
318.81
 30
0.0
 11
756.093
 21
318.449
 31
0.0
  0
LINE
  5
1C0
330
17
100
AcDbEntity
  8
0
100
AcDbLine
 10
756.093
 20
318.449
 30
0.0
 11
754.854
 21
318.327
 31
0.0
  0
LINE
  5
1C1
330
17
100
AcDbEntity
  8
0
100
AcDbLine
 10
754.854
 20
318.327
 30
0.0
 11
753.615
 21
318.449
 31
0.0
  0
LINE
  5
1C2
330
17
100
AcDbEntity
  8
0
100
AcDbLine
 10
753.615
 20
318.449
 30
0.0
 11
752.424
 21
318.81
 31
0.0
  0
LINE
  5
1C3
330
17
100
AcDbEntity
  8
0
100
AcDbLine
 10
752.424
 20
318.81
 30
0.0
 11
751.326
 21
319.397
 31
0.0
  0
LINE
  5
1C4
330
17
100
AcDbEntity
  8
0
100
AcDbLine
 10
751.326
 20
319.397
 30
0.0
 11
750.364
 21
320.187
 31
0.0
  0
LINE
  5
1C5
330
17
100
AcDbEntity
  8
0
100
AcDbLine
 10
750.364
 20
320.187
 30
0.0
 11
749.574
 21
321.149
 31
0.0
  0
LINE
  5
1C6
330
17
100
AcDbEntity
  8
0
100
AcDbLine
 10
749.574
 20
321.149
 30
0.0
 11
748.987
 21
322.247
 31
0.0
  0
LINE
  5
1C7
330
17
100
AcDbEntity
  8
0
100
AcDbLine
 10
748.987
 20
322.247
 30
0.0
 11
748.626
 21
323.438
 31
0.0
  0
LINE
  5
1C8
330
17
100
AcDbEntity
  8
0
100
AcDbLine
 10
748.626
 20
323.438
 30
0.0
 11
748.504
 21
324.677
 31
0.0
  0
LINE
  5
1C9
330
17
100
AcDbEntity
  8
0
100
AcDbLine
 10
850.102
 20
223.075
 30
0.0
 11
850.224
 21
224.314
 31
0.0
  0
LINE
  5
1CA
330
17
100
AcDbEntity
  8
0
100
AcDbLine
 10
850.224
 20
224.314
 30
0.0
 11
850.586
 21
225.505
 31
0.0
  0
LINE
  5
1CB
330
17
100
AcDbEntity
  8
0
100
AcDbLine
 10
850.586
 20
225.505
 30
0.0
 11
851.173
 21
226.603
 31
0.0
  0
LINE
  5
1CC
330
17
100
AcDbEntity
  8
0
100
AcDbLine
 10
851.173
 20
226.603
 30
0.0
 11
851.962
 21
227.565
 31
0.0
  0
LINE
  5
1CD
330
17
100
AcDbEntity
  8
0
100
AcDbLine
 10
851.962
 20
227.565
 30
0.0
 11
852.925
 21
228.355
 31
0.0
  0
LINE
  5
1CE
330
17
100
AcDbEntity
  8
0
100
AcDbLine
 10
852.925
 20
228.355
 30
0.0
 11
854.022
 21
228.942
 31
0.0
  0
LINE
  5
1CF
330
17
100
AcDbEntity
  8
0
100
AcDbLine
 10
854.022
 20
228.942
 30
0.0
 11
855.214
 21
229.303
 31
0.0
  0
LINE
  5
1D0
330
17
100
AcDbEntity
  8
0
100
AcDbLine
 10
855.214
 20
229.303
 30
0.0
 11
856.452
 21
229.425
 31
0.0
  0
LINE
  5
1D1
330
17
100
AcDbEntity
  8
0
100
AcDbLine
 10
856.452
 20
229.425
 30
0.0
 11
857.691
 21
229.303
 31
0.0
  0
LINE
  5
1D2
330
17
100
AcDbEntity
  8
0
100
AcDbLine
 10
857.691
 20
229.303
 30
0.0
 11
858.883
 21
228.942
 31
0.0
  0
LINE
  5
1D3
330
17
100
AcDbEntity
  8
0
100
AcDbLine
 10
858.883
 20
228.942
 30
0.0
 11
859.98
 21
228.355
 31
0.0
  0
LINE
  5
1D4
330
17
100
AcDbEntity
  8
0
100
AcDbLine
 10
859.98
 20
228.355
 30
0.0
 11
860.943
 21
227.565
 31
0.0
  0
LINE
  5
1D5
330
17
100
AcDbEntity
  8
0
100
AcDbLine
 10
860.943
 20
227.565
 30
0.0
 11
861.732
 21
226.603
 31
0.0
  0
LINE
  5
1D6
330
17
100
AcDbEntity
  8
0
100
AcDbLine
 10
861.732
 20
226.603
 30
0.0
 11
862.319
 21
225.505
 31
0.0
  0
LINE
  5
1D7
330
17
100
AcDbEntity
  8
0
100
AcDbLine
 10
862.319
 20
225.505
 30
0.0
 11
862.68
 21
224.314
 31
0.0
  0
LINE
  5
1D8
330
17
100
AcDbEntity
  8
0
100
AcDbLine
 10
862.68
 20
224.314
 30
0.0
 11
862.802
 21
223.075
 31
0.0
  0
LINE
  5
1D9
330
17
100
AcDbEntity
  8
0
100
AcDbLine
 10
862.802
 20
223.075
 30
0.0
 11
862.68
 21
221.836
 31
0.0
  0
LINE
  5
1DA
330
17
100
AcDbEntity
  8
0
100
AcDbLine
 10
862.68
 20
221.836
 30
0.0
 11
862.319
 21
220.645
 31
0.0
  0
LINE
  5
1DB
330
17
100
AcDbEntity
  8
0
100
AcDbLine
 10
862.319
 20
220.645
 30
0.0
 11
861.732
 21
219.547
 31
0.0
  0
LINE
  5
1DC
330
17
100
AcDbEntity
  8
0
100
AcDbLine
 10
861.732
 20
219.547
 30
0.0
 11
860.942
 21
218.585
 31
0.0
  0
LINE
  5
1DD
330
17
100
AcDbEntity
  8
0
100
AcDbLine
 10
860.942
 20
218.585
 30
0.0
 11
859.98
 21
217.795
 31
0.0
  0
LINE
  5
1DE
330
17
100
AcDbEntity
  8
0
100
AcDbLine
 10
859.98
 20
217.795
 30
0.0
 11
858.882
 21
217.208
 31
0.0
  0
LINE
  5
1DF
330
17
100
AcDbEntity
  8
0
100
AcDbLine
 10
858.882
 20
217.208
 30
0.0
 11
857.691
 21
216.847
 31
0.0
  0
LINE
  5
1E0
330
17
100
AcDbEntity
  8
0
100
AcDbLine
 10
857.691
 20
216.847
 30
0.0
 11
856.452
 21
216.725
 31
0.0
  0
LINE
  5
1E1
330
17
100
AcDbEntity
  8
0
100
AcDbLine
 10
856.452
 20
216.725
 30
0.0
 11
855.213
 21
216.847
 31
0.0
  0
LINE
  5
1E2
330
17
100
AcDbEntity
  8
0
100
AcDbLine
 10
855.213
 20
216.847
 30
0.0
 11
854.022
 21
217.208
 31
0.0
  0
LINE
  5
1E3
330
17
100
AcDbEntity
  8
0
100
AcDbLine
 10
854.022
 20
217.208
 30
0.0
 11
852.924
 21
217.795
 31
0.0
  0
LINE
  5
1E4
330
17
100
AcDbEntity
  8
0
100
AcDbLine
 10
852.924
 20
217.795
 30
0.0
 11
851.962
 21
218.585
 31
0.0
  0
LINE
  5
1E5
330
17
100
AcDbEntity
  8
0
100
AcDbLine
 10
851.962
 20
218.585
 30
0.0
 11
851.172
 21
219.547
 31
0.0
  0
LINE
  5
1E6
330
17
100
AcDbEntity
  8
0
100
AcDbLine
 10
851.172
 20
219.547
 30
0.0
 11
850.586
 21
220.645
 31
0.0
  0
LINE
  5
1E7
330
17
100
AcDbEntity
  8
0
100
AcDbLine
 10
850.586
 20
220.645
 30
0.0
 11
850.224
 21
221.836
 31
0.0
  0
LINE
  5
1E8
330
17
100
AcDbEntity
  8
0
100
AcDbLine
 10
850.224
 20
221.836
 30
0.0
 11
850.102
 21
223.075
 31
0.0
  0
LINE
  5
1E9
330
17
100
AcDbEntity
  8
0
100
AcDbLine
 10
850.104
 20
324.675
 30
0.0
 11
850.226
 21
325.914
 31
0.0
  0
LINE
  5
1EA
330
17
100
AcDbEntity
  8
0
100
AcDbLine
 10
850.226
 20
325.914
 30
0.0
 11
850.588
 21
327.105
 31
0.0
  0
LINE
  5
1EB
330
17
100
AcDbEntity
  8
0
100
AcDbLine
 10
850.588
 20
327.105
 30
0.0
 11
851.174
 21
328.203
 31
0.0
  0
LINE
  5
1EC
330
17
100
AcDbEntity
  8
0
100
AcDbLine
 10
851.174
 20
328.203
 30
0.0
 11
851.964
 21
329.165
 31
0.0
  0
LINE
  5
1ED
330
17
100
AcDbEntity
  8
0
100
AcDbLine
 10
851.964
 20
329.165
 30
0.0
 11
852.926
 21
329.955
 31
0.0
  0
LINE
  5
1EE
330
17
100
AcDbEntity
  8
0
100
AcDbLine
 10
852.926
 20
329.955
 30
0.0
 11
854.024
 21
330.542
 31
0.0
  0
LINE
  5
1EF
330
17
100
AcDbEntity
  8
0
100
AcDbLine
 10
854.024
 20
330.542
 30
0.0
 11
855.215
 21
330.903
 31
0.0
  0
LINE
  5
1F0
330
17
100
AcDbEntity
  8
0
100
AcDbLine
 10
855.215
 20
330.903
 30
0.0
 11
856.454
 21
331.025
 31
0.0
  0
LINE
  5
1F1
330
17
100
AcDbEntity
  8
0
100
AcDbLine
 10
856.454
 20
331.025
 30
0.0
 11
857.693
 21
330.903
 31
0.0
  0
LINE
  5
1F2
330
17
100
AcDbEntity
  8
0
100
AcDbLine
 10
857.693
 20
330.903
 30
0.0
 11
858.884
 21
330.542
 31
0.0
  0
LINE
  5
1F3
330
17
100
AcDbEntity
  8
0
100
AcDbLine
 10
858.884
 20
330.542
 30
0.0
 11
859.982
 21
329.955
 31
0.0
  0
LINE
  5
1F4
330
17
100
AcDbEntity
  8
0
100
AcDbLine
 10
859.982
 20
329.955
 30
0.0
 11
860.944
 21
329.165
 31
0.0
  0
LINE
  5
1F5
330
17
100
AcDbEntity
  8
0
100
AcDbLine
 10
860.944
 20
329.165
 30
0.0
 11
861.734
 21
328.203
 31
0.0
  0
LINE
  5
1F6
330
17
100
AcDbEntity
  8
0
100
AcDbLine
 10
861.734
 20
328.203
 30
0.0
 11
862.321
 21
327.105
 31
0.0
  0
LINE
  5
1F7
330
17
100
AcDbEntity
  8
0
100
AcDbLine
 10
862.321
 20
327.105
 30
0.0
 11
862.682
 21
325.914
 31
0.0
  0
LINE
  5
1F8
330
17
100
AcDbEntity
  8
0
100
AcDbLine
 10
862.682
 20
325.914
 30
0.0
 11
862.804
 21
324.675
 31
0.0
  0
LINE
  5
1F9
330
17
100
AcDbEntity
  8
0
100
AcDbLine
 10
862.804
 20
324.675
 30
0.0
 11
862.682
 21
323.436
 31
0.0
  0
LINE
  5
1FA
330
17
100
AcDbEntity
  8
0
100
AcDbLine
 10
862.682
 20
323.436
 30
0.0
 11
862.321
 21
322.245
 31
0.0
  0
LINE
  5
1FB
330
17
100
AcDbEntity
  8
0
100
AcDbLine
 10
862.321
 20
322.245
 30
0.0
 11
861.734
 21
321.147
 31
0.0
  0
LINE
  5
1FC
330
17
100
AcDbEntity
  8
0
100
AcDbLine
 10
861.734
 20
321.147
 30
0.0
 11
860.944
 21
320.185
 31
0.0
  0
LINE
  5
1FD
330
17
100
AcDbEntity
  8
0
100
AcDbLine
 10
860.944
 20
320.185
 30
0.0
 11
859.982
 21
319.395
 31
0.0
  0
LINE
  5
1FE
330
17
100
AcDbEntity
  8
0
100
AcDbLine
 10
859.982
 20
319.395
 30
0.0
 11
858.884
 21
318.808
 31
0.0
  0
LINE
  5
1FF
330
17
100
AcDbEntity
  8
0
100
AcDbLine
 10
858.884
 20
318.808
 30
0.0
 11
857.693
 21
318.447
 31
0.0
  0
LINE
  5
200
330
17
100
AcDbEntity
  8
0
100
AcDbLine
 10
857.693
 20
318.447
 30
0.0
 11
856.454
 21
318.325
 31
0.0
  0
LINE
  5
201
330
17
100
AcDbEntity
  8
0
100
AcDbLine
 10
856.454
 20
318.325
 30
0.0
 11
855.215
 21
318.447
 31
0.0
  0
LINE
  5
202
330
17
100
AcDbEntity
  8
0
100
AcDbLine
 10
855.215
 20
318.447
 30
0.0
 11
854.024
 21
318.808
 31
0.0
  0
LINE
  5
203
330
17
100
AcDbEntity
  8
0
100
AcDbLine
 10
854.024
 20
318.808
 30
0.0
 11
852.926
 21
319.395
 31
0.0
  0
LINE
  5
204
330
17
100
AcDbEntity
  8
0
100
AcDbLine
 10
852.926
 20
319.395
 30
0.0
 11
851.964
 21
320.185
 31
0.0
  0
LINE
  5
205
330
17
100
AcDbEntity
  8
0
100
AcDbLine
 10
851.964
 20
320.185
 30
0.0
 11
851.174
 21
321.147
 31
0.0
  0
LINE
  5
206
330
17
100
AcDbEntity
  8
0
100
AcDbLine
 10
851.174
 20
321.147
 30
0.0
 11
850.587
 21
322.245
 31
0.0
  0
LINE
  5
207
330
17
100
AcDbEntity
  8
0
100
AcDbLine
 10
850.587
 20
322.245
 30
0.0
 11
850.226
 21
323.436
 31
0.0
  0
LINE
  5
208
330
17
100
AcDbEntity
  8
0
100
AcDbLine
 10
850.226
 20
323.436
 30
0.0
 11
850.104
 21
324.675
 31
0.0
  0
LINE
  5
209
330
17
100
AcDbEntity
  8
0
100
AcDbLine
 10
883.973
 20
159.574
 30
0.0
 11
884.237
 21
162.247
 31
0.0
  0
LINE
  5
20A
330
17
100
AcDbEntity
  8
0
100
AcDbLine
 10
884.237
 20
162.247
 30
0.0
 11
885.016
 21
164.817
 31
0.0
  0
LINE
  5
20B
330
17
100
AcDbEntity
  8
0
100
AcDbLine
 10
885.016
 20
164.817
 30
0.0
 11
886.282
 21
167.186
 31
0.0
  0
LINE
  5
20C
330
17
100
AcDbEntity
  8
0
100
AcDbLine
 10
886.282
 20
167.186
 30
0.0
 11
887.986
 21
169.262
 31
0.0
  0
LINE
  5
20D
330
17
100
AcDbEntity
  8
0
100
AcDbLine
 10
887.986
 20
169.262
 30
0.0
 11
890.062
 21
170.966
 31
0.0
  0
LINE
  5
20E
330
17
100
AcDbEntity
  8
0
100
AcDbLine
 10
890.062
 20
170.966
 30
0.0
 11
892.431
 21
172.231
 31
0.0
  0
LINE
  5
20F
330
17
100
AcDbEntity
  8
0
100
AcDbLine
 10
892.431
 20
172.231
 30
0.0
 11
895.001
 21
173.011
 31
0.0
  0
LINE
  5
210
330
17
100
AcDbEntity
  8
0
100
AcDbLine
 10
895.001
 20
173.011
 30
0.0
 11
897.674
 21
173.274
 31
0.0
  0
LINE
  5
211
330
17
100
AcDbEntity
  8
0
100
AcDbLine
 10
897.674
 20
173.274
 30
0.0
 11
900.346
 21
173.011
 31
0.0
  0
LINE
  5
212
330
17
100
AcDbEntity
  8
0
100
AcDbLine
 10
900.346
 20
173.011
 30
0.0
 11
902.916
 21
172.231
 31
0.0
  0
LINE
  5
213
330
17
100
AcDbEntity
  8
0
100
AcDbLine
 10
902.916
 20
172.231
 30
0.0
 11
905.285
 21
170.965
 31
0.0
  0
LINE
  5
214
330
17
100
AcDbEntity
  8
0
100
AcDbLine
 10
905.285
 20
170.965
 30
0.0
 11
907.361
 21
169.261
 31
0.0
  0
LINE
  5
215
330
17
100
AcDbEntity
  8
0
100
AcDbLine
 10
907.361
 20
169.261
 30
0.0
 11
909.065
 21
167.185
 31
0.0
  0
LINE
  5
216
330
17
100
AcDbEntity
  8
0
100
AcDbLine
 10
909.065
 20
167.185
 30
0.0
 11
910.331
 21
164.817
 31
0.0
  0
LINE
  5
217
330
17
100
AcDbEntity
  8
0
100
AcDbLine
 10
910.331
 20
164.817
 30
0.0
 11
911.11
 21
162.247
 31
0.0
  0
LINE
  5
218
330
17
100
AcDbEntity
  8
0
100
AcDbLine
 10
911.11
 20
162.247
 30
0.0
 11
911.373
 21
159.574
 31
0.0
  0
LINE
  5
219
330
17
100
AcDbEntity
  8
0
100
AcDbLine
 10
911.373
 20
159.574
 30
0.0
 11
911.11
 21
156.901
 31
0.0
  0
LINE
  5
21A
330
17
100
AcDbEntity
  8
0
100
AcDbLine
 10
911.11
 20
156.901
 30
0.0
 11
910.331
 21
154.331
 31
0.0
  0
LINE
  5
21B
330
17
100
AcDbEntity
  8
0
100
AcDbLine
 10
910.331
 20
154.331
 30
0.0
 11
909.064
 21
151.963
 31
0.0
  0
LINE
  5
21C
330
17
100
AcDbEntity
  8
0
100
AcDbLine
 10
909.064
 20
151.963
 30
0.0
 11
907.361
 21
149.887
 31
0.0
  0
LINE
  5
21D
330
17
100
AcDbEntity
  8
0
100
AcDbLine
 10
907.361
 20
149.887
 30
0.0
 11
905.285
 21
148.183
 31
0.0
  0
LINE
  5
21E
330
17
100
AcDbEntity
  8
0
100
AcDbLine
 10
905.285
 20
148.183
 30
0.0
 11
902.916
 21
146.917
 31
0.0
  0
LINE
  5
21F
330
17
100
AcDbEntity
  8
0
100
AcDbLine
 10
902.916
 20
146.917
 30
0.0
 11
900.346
 21
146.137
 31
0.0
  0
LINE
  5
220
330
17
100
AcDbEntity
  8
0
100
AcDbLine
 10
900.346
 20
146.137
 30
0.0
 11
897.673
 21
145.874
 31
0.0
  0
LINE
  5
221
330
17
100
AcDbEntity
  8
0
100
AcDbLine
 10
897.673
 20
145.874
 30
0.0
 11
895.0
 21
146.138
 31
0.0
  0
LINE
  5
222
330
17
100
AcDbEntity
  8
0
100
AcDbLine
 10
895.0
 20
146.138
 30
0.0
 11
892.43
 21
146.917
 31
0.0
  0
LINE
  5
223
330
17
100
AcDbEntity
  8
0
100
AcDbLine
 10
892.43
 20
146.917
 30
0.0
 11
890.062
 21
148.183
 31
0.0
  0
LINE
  5
224
330
17
100
AcDbEntity
  8
0
100
AcDbLine
 10
890.062
 20
148.183
 30
0.0
 11
887.986
 21
149.887
 31
0.0
  0
LINE
  5
225
330
17
100
AcDbEntity
  8
0
100
AcDbLine
 10
887.986
 20
149.887
 30
0.0
 11
886.282
 21
151.963
 31
0.0
  0
LINE
  5
226
330
17
100
AcDbEntity
  8
0
100
AcDbLine
 10
886.282
 20
151.963
 30
0.0
 11
885.016
 21
154.332
 31
0.0
  0
LINE
  5
227
330
17
100
AcDbEntity
  8
0
100
AcDbLine
 10
885.016
 20
154.332
 30
0.0
 11
884.237
 21
156.902
 31
0.0
  0
LINE
  5
228
330
17
100
AcDbEntity
  8
0
100
AcDbLine
 10
884.237
 20
156.902
 30
0.0
 11
883.973
 21
159.574
 31
0.0
  0
LINE
  5
229
330
17
100
AcDbEntity
  8
0
100
AcDbLine
 10
942.125
 20
273.873
 30
0.0
 11
942.247
 21
275.112
 31
0.0
  0
LINE
  5
22A
330
17
100
AcDbEntity
  8
0
100
AcDbLine
 10
942.247
 20
275.112
 30
0.0
 11
942.609
 21
276.303
 31
0.0
  0
LINE
  5
22B
330
17
100
AcDbEntity
  8
0
100
AcDbLine
 10
942.609
 20
276.303
 30
0.0
 11
943.196
 21
277.401
 31
0.0
  0
LINE
  5
22C
330
17
100
AcDbEntity
  8
0
100
AcDbLine
 10
943.196
 20
277.401
 30
0.0
 11
943.985
 21
278.364
 31
0.0
  0
LINE
  5
22D
330
17
100
AcDbEntity
  8
0
100
AcDbLine
 10
943.985
 20
278.364
 30
0.0
 11
944.948
 21
279.153
 31
0.0
  0
LINE
  5
22E
330
17
100
AcDbEntity
  8
0
100
AcDbLine
 10
944.948
 20
279.153
 30
0.0
 11
946.046
 21
279.74
 31
0.0
  0
LINE
  5
22F
330
17
100
AcDbEntity
  8
0
100
AcDbLine
 10
946.046
 20
279.74
 30
0.0
 11
947.237
 21
280.101
 31
0.0
  0
LINE
  5
230
330
17
100
AcDbEntity
  8
0
100
AcDbLine
 10
947.237
 20
280.101
 30
0.0
 11
948.476
 21
280.223
 31
0.0
  0
LINE
  5
231
330
17
100
AcDbEntity
  8
0
100
AcDbLine
 10
948.476
 20
280.223
 30
0.0
 11
949.714
 21
280.101
 31
0.0
  0
LINE
  5
232
330
17
100
AcDbEntity
  8
0
100
AcDbLine
 10
949.714
 20
280.101
 30
0.0
 11
950.906
 21
279.74
 31
0.0
  0
LINE
  5
233
330
17
100
AcDbEntity
  8
0
100
AcDbLine
 10
950.906
 20
279.74
 30
0.0
 11
952.003
 21
279.153
 31
0.0
  0
LINE
  5
234
330
17
100
AcDbEntity
  8
0
100
AcDbLine
 10
952.003
 20
279.153
 30
0.0
 11
952.966
 21
278.363
 31
0.0
  0
LINE
  5
235
330
17
100
AcDbEntity
  8
0
100
AcDbLine
 10
952.966
 20
278.363
 30
0.0
 11
953.755
 21
277.401
 31
0.0
  0
LINE
  5
236
330
17
100
AcDbEntity
  8
0
100
AcDbLine
 10
953.755
 20
277.401
 30
0.0
 11
954.342
 21
276.303
 31
0.0
  0
LINE
  5
237
330
17
100
AcDbEntity
  8
0
100
AcDbLine
 10
954.342
 20
276.303
 30
0.0
 11
954.703
 21
275.112
 31
0.0
  0
LINE
  5
238
330
17
100
AcDbEntity
  8
0
100
AcDbLine
 10
954.703
 20
275.112
 30
0.0
 11
954.825
 21
273.873
 31
0.0
  0
LINE
  5
239
330
17
100
AcDbEntity
  8
0
100
AcDbLine
 10
954.825
 20
273.873
 30
0.0
 11
954.703
 21
272.634
 31
0.0
  0
LINE
  5
23A
330
17
100
AcDbEntity
  8
0
100
AcDbLine
 10
954.703
 20
272.634
 30
0.0
 11
954.342
 21
271.443
 31
0.0
  0
LINE
  5
23B
330
17
100
AcDbEntity
  8
0
100
AcDbLine
 10
954.342
 20
271.443
 30
0.0
 11
953.755
 21
270.345
 31
0.0
  0
LINE
  5
23C
330
17
100
AcDbEntity
  8
0
100
AcDbLine
 10
953.755
 20
270.345
 30
0.0
 11
952.966
 21
269.383
 31
0.0
  0
LINE
  5
23D
330
17
100
AcDbEntity
  8
0
100
AcDbLine
 10
952.966
 20
269.383
 30
0.0
 11
952.003
 21
268.593
 31
0.0
  0
LINE
  5
23E
330
17
100
AcDbEntity
  8
0
100
AcDbLine
 10
952.003
 20
268.593
 30
0.0
 11
950.905
 21
268.007
 31
0.0
  0
LINE
  5
23F
330
17
100
AcDbEntity
  8
0
100
AcDbLine
 10
950.905
 20
268.007
 30
0.0
 11
949.714
 21
267.645
 31
0.0
  0
LINE
  5
240
330
17
100
AcDbEntity
  8
0
100
AcDbLine
 10
949.714
 20
267.645
 30
0.0
 11
948.475
 21
267.523
 31
0.0
  0
LINE
  5
241
330
17
100
AcDbEntity
  8
0
100
AcDbLine
 10
948.475
 20
267.523
 30
0.0
 11
947.237
 21
267.645
 31
0.0
  0
LINE
  5
242
330
17
100
AcDbEntity
  8
0
100
AcDbLine
 10
947.237
 20
267.645
 30
0.0
 11
946.045
 21
268.007
 31
0.0
  0
LINE
  5
243
330
17
100
AcDbEntity
  8
0
100
AcDbLine
 10
946.045
 20
268.007
 30
0.0
 11
944.947
 21
268.594
 31
0.0
  0
LINE
  5
244
330
17
100
AcDbEntity
  8
0
100
AcDbLine
 10
944.947
 20
268.594
 30
0.0
 11
943.985
 21
269.383
 31
0.0
  0
LINE
  5
245
330
17
100
AcDbEntity
  8
0
100
AcDbLine
 10
943.985
 20
269.383
 30
0.0
 11
943.196
 21
270.346
 31
0.0
  0
LINE
  5
246
330
17
100
AcDbEntity
  8
0
100
AcDbLine
 10
943.196
 20
270.346
 30
0.0
 11
942.609
 21
271.443
 31
0.0
  0
LINE
  5
247
330
17
100
AcDbEntity
  8
0
100
AcDbLine
 10
942.609
 20
271.443
 30
0.0
 11
942.247
 21
272.635
 31
0.0
  0
LINE
  5
248
330
17
100
AcDbEntity
  8
0
100
AcDbLine
 10
942.247
 20
272.635
 30
0.0
 11
942.125
 21
273.873
 31
0.0
  0
LINE
  5
249
330
17
100
AcDbEntity
  8
0
100
AcDbLine
 10
992.925
 20
273.873
 30
0.0
 11
993.047
 21
275.111
 31
0.0
  0
LINE
  5
24A
330
17
100
AcDbEntity
  8
0
100
AcDbLine
 10
993.047
 20
275.111
 30
0.0
 11
993.409
 21
276.303
 31
0.0
  0
LINE
  5
24B
330
17
100
AcDbEntity
  8
0
100
AcDbLine
 10
993.409
 20
276.303
 30
0.0
 11
993.996
 21
277.4
 31
0.0
  0
LINE
  5
24C
330
17
100
AcDbEntity
  8
0
100
AcDbLine
 10
993.996
 20
277.4
 30
0.0
 11
994.785
 21
278.363
 31
0.0
  0
LINE
  5
24D
330
17
100
AcDbEntity
  8
0
100
AcDbLine
 10
994.785
 20
278.363
 30
0.0
 11
995.748
 21
279.152
 31
0.0
  0
LINE
  5
24E
330
17
100
AcDbEntity
  8
0
100
AcDbLine
 10
995.748
 20
279.152
 30
0.0
 11
996.846
 21
279.739
 31
0.0
  0
LINE
  5
24F
330
17
100
AcDbEntity
  8
0
100
AcDbLine
 10
996.846
 20
279.739
 30
0.0
 11
998.037
 21
280.1
 31
0.0
  0
LINE
  5
250
330
17
100
AcDbEntity
  8
0
100
AcDbLine
 10
998.037
 20
280.1
 30
0.0
 11
999.276
 21
280.222
 31
0.0
  0
LINE
  5
251
330
17
100
AcDbEntity
  8
0
100
AcDbLine
 10
999.276
 20
280.222
 30
0.0
 11
1000.51
 21
280.1
 31
0.0
  0
LINE
  5
252
330
17
100
AcDbEntity
  8
0
100
AcDbLine
 10
1000.51
 20
280.1
 30
0.0
 11
1001.71
 21
279.739
 31
0.0
  0
LINE
  5
253
330
17
100
AcDbEntity
  8
0
100
AcDbLine
 10
1001.71
 20
279.739
 30
0.0
 11
1002.8
 21
279.152
 31
0.0
  0
LINE
  5
254
330
17
100
AcDbEntity
  8
0
100
AcDbLine
 10
1002.8
 20
279.152
 30
0.0
 11
1003.77
 21
278.363
 31
0.0
  0
LINE
  5
255
330
17
100
AcDbEntity
  8
0
100
AcDbLine
 10
1003.77
 20
278.363
 30
0.0
 11
1004.56
 21
277.4
 31
0.0
  0
LINE
  5
256
330
17
100
AcDbEntity
  8
0
100
AcDbLine
 10
1004.56
 20
277.4
 30
0.0
 11
1005.14
 21
276.302
 31
0.0
  0
LINE
  5
257
330
17
100
AcDbEntity
  8
0
100
AcDbLine
 10
1005.14
 20
276.302
 30
0.0
 11
1005.5
 21
275.111
 31
0.0
  0
LINE
  5
258
330
17
100
AcDbEntity
  8
0
100
AcDbLine
 10
1005.5
 20
275.111
 30
0.0
 11
1005.63
 21
273.872
 31
0.0
  0
LINE
  5
259
330
17
100
AcDbEntity
  8
0
100
AcDbLine
 10
1005.63
 20
273.872
 30
0.0
 11
1005.5
 21
272.634
 31
0.0
  0
LINE
  5
25A
330
17
100
AcDbEntity
  8
0
100
AcDbLine
 10
1005.5
 20
272.634
 30
0.0
 11
1005.14
 21
271.442
 31
0.0
  0
LINE
  5
25B
330
17
100
AcDbEntity
  8
0
100
AcDbLine
 10
1005.14
 20
271.442
 30
0.0
 11
1004.56
 21
270.345
 31
0.0
  0
LINE
  5
25C
330
17
100
AcDbEntity
  8
0
100
AcDbLine
 10
1004.56
 20
270.345
 30
0.0
 11
1003.77
 21
269.382
 31
0.0
  0
LINE
  5
25D
330
17
100
AcDbEntity
  8
0
100
AcDbLine
 10
1003.77
 20
269.382
 30
0.0
 11
1002.8
 21
268.593
 31
0.0
  0
LINE
  5
25E
330
17
100
AcDbEntity
  8
0
100
AcDbLine
 10
1002.8
 20
268.593
 30
0.0
 11
1001.71
 21
268.006
 31
0.0
  0
LINE
  5
25F
330
17
100
AcDbEntity
  8
0
100
AcDbLine
 10
1001.71
 20
268.006
 30
0.0
 11
1000.51
 21
267.644
 31
0.0
  0
LINE
  5
260
330
17
100
AcDbEntity
  8
0
100
AcDbLine
 10
1000.51
 20
267.644
 30
0.0
 11
999.275
 21
267.522
 31
0.0
  0
LINE
  5
261
330
17
100
AcDbEntity
  8
0
100
AcDbLine
 10
999.275
 20
267.522
 30
0.0
 11
998.037
 21
267.645
 31
0.0
  0
LINE
  5
262
330
17
100
AcDbEntity
  8
0
100
AcDbLine
 10
998.037
 20
267.645
 30
0.0
 11
996.845
 21
268.006
 31
0.0
  0
LINE
  5
263
330
17
100
AcDbEntity
  8
0
100
AcDbLine
 10
996.845
 20
268.006
 30
0.0
 11
995.747
 21
268.593
 31
0.0
  0
LINE
  5
264
330
17
100
AcDbEntity
  8
0
100
AcDbLine
 10
995.747
 20
268.593
 30
0.0
 11
994.785
 21
269.382
 31
0.0
  0
LINE
  5
265
330
17
100
AcDbEntity
  8
0
100
AcDbLine
 10
994.785
 20
269.382
 30
0.0
 11
993.996
 21
270.345
 31
0.0
  0
LINE
  5
266
330
17
100
AcDbEntity
  8
0
100
AcDbLine
 10
993.996
 20
270.345
 30
0.0
 11
993.409
 21
271.443
 31
0.0
  0
LINE
  5
267
330
17
100
AcDbEntity
  8
0
100
AcDbLine
 10
993.409
 20
271.443
 30
0.0
 11
993.047
 21
272.634
 31
0.0
  0
LINE
  5
268
330
17
100
AcDbEntity
  8
0
100
AcDbLine
 10
993.047
 20
272.634
 30
0.0
 11
992.925
 21
273.873
 31
0.0
  0
LINE
  5
269
330
17
100
AcDbEntity
  8
0
100
AcDbLine
 10
1370.15
 20
233.866
 30
0.0
 11
1370.27
 21
235.105
 31
0.0
  0
LINE
  5
26A
330
17
100
AcDbEntity
  8
0
100
AcDbLine
 10
1370.27
 20
235.105
 30
0.0
 11
1370.63
 21
236.296
 31
0.0
  0
LINE
  5
26B
330
17
100
AcDbEntity
  8
0
100
AcDbLine
 10
1370.63
 20
236.296
 30
0.0
 11
1371.22
 21
237.394
 31
0.0
  0
LINE
  5
26C
330
17
100
AcDbEntity
  8
0
100
AcDbLine
 10
1371.22
 20
237.394
 30
0.0
 11
1372.01
 21
238.356
 31
0.0
  0
LINE
  5
26D
330
17
100
AcDbEntity
  8
0
100
AcDbLine
 10
1372.01
 20
238.356
 30
0.0
 11
1372.97
 21
239.146
 31
0.0
  0
LINE
  5
26E
330
17
100
AcDbEntity
  8
0
100
AcDbLine
 10
1372.97
 20
239.146
 30
0.0
 11
1374.07
 21
239.733
 31
0.0
  0
LINE
  5
26F
330
17
100
AcDbEntity
  8
0
100
AcDbLine
 10
1374.07
 20
239.733
 30
0.0
 11
1375.26
 21
240.094
 31
0.0
  0
LINE
  5
270
330
17
100
AcDbEntity
  8
0
100
AcDbLine
 10
1375.26
 20
240.094
 30
0.0
 11
1376.5
 21
240.216
 31
0.0
  0
LINE
  5
271
330
17
100
AcDbEntity
  8
0
100
AcDbLine
 10
1376.5
 20
240.216
 30
0.0
 11
1377.74
 21
240.094
 31
0.0
  0
LINE
  5
272
330
17
100
AcDbEntity
  8
0
100
AcDbLine
 10
1377.74
 20
240.094
 30
0.0
 11
1378.93
 21
239.732
 31
0.0
  0
LINE
  5
273
330
17
100
AcDbEntity
  8
0
100
AcDbLine
 10
1378.93
 20
239.732
 30
0.0
 11
1380.02
 21
239.146
 31
0.0
  0
LINE
  5
274
330
17
100
AcDbEntity
  8
0
100
AcDbLine
 10
1380.02
 20
239.146
 30
0.0
 11
1380.99
 21
238.356
 31
0.0
  0
LINE
  5
275
330
17
100
AcDbEntity
  8
0
100
AcDbLine
 10
1380.99
 20
238.356
 30
0.0
 11
1381.78
 21
237.394
 31
0.0
  0
LINE
  5
276
330
17
100
AcDbEntity
  8
0
100
AcDbLine
 10
1381.78
 20
237.394
 30
0.0
 11
1382.36
 21
236.296
 31
0.0
  0
LINE
  5
277
330
17
100
AcDbEntity
  8
0
100
AcDbLine
 10
1382.36
 20
236.296
 30
0.0
 11
1382.72
 21
235.105
 31
0.0
  0
LINE
  5
278
330
17
100
AcDbEntity
  8
0
100
AcDbLine
 10
1382.72
 20
235.105
 30
0.0
 11
1382.85
 21
233.866
 31
0.0
  0
LINE
  5
279
330
17
100
AcDbEntity
  8
0
100
AcDbLine
 10
1382.85
 20
233.866
 30
0.0
 11
1382.72
 21
232.627
 31
0.0
  0
LINE
  5
27A
330
17
100
AcDbEntity
  8
0
100
AcDbLine
 10
1382.72
 20
232.627
 30
0.0
 11
1382.36
 21
231.436
 31
0.0
  0
LINE
  5
27B
330
17
100
AcDbEntity
  8
0
100
AcDbLine
 10
1382.36
 20
231.436
 30
0.0
 11
1381.78
 21
230.338
 31
0.0
  0
LINE
  5
27C
330
17
100
AcDbEntity
  8
0
100
AcDbLine
 10
1381.78
 20
230.338
 30
0.0
 11
1380.99
 21
229.376
 31
0.0
  0
LINE
  5
27D
330
17
100
AcDbEntity
  8
0
100
AcDbLine
 10
1380.99
 20
229.376
 30
0.0
 11
1380.02
 21
228.586
 31
0.0
  0
LINE
  5
27E
330
17
100
AcDbEntity
  8
0
100
AcDbLine
 10
1380.02
 20
228.586
 30
0.0
 11
1378.93
 21
227.999
 31
0.0
  0
LINE
  5
27F
330
17
100
AcDbEntity
  8
0
100
AcDbLine
 10
1378.93
 20
227.999
 30
0.0
 11
1377.74
 21
227.638
 31
0.0
  0
LINE
  5
280
330
17
100
AcDbEntity
  8
0
100
AcDbLine
 10
1377.74
 20
227.638
 30
0.0
 11
1376.5
 21
227.516
 31
0.0
  0
LINE
  5
281
330
17
100
AcDbEntity
  8
0
100
AcDbLine
 10
1376.5
 20
227.516
 30
0.0
 11
1375.26
 21
227.638
 31
0.0
  0
LINE
  5
282
330
17
100
AcDbEntity
  8
0
100
AcDbLine
 10
1375.26
 20
227.638
 30
0.0
 11
1374.07
 21
227.999
 31
0.0
  0
LINE
  5
283
330
17
100
AcDbEntity
  8
0
100
AcDbLine
 10
1374.07
 20
227.999
 30
0.0
 11
1372.97
 21
228.586
 31
0.0
  0
LINE
  5
284
330
17
100
AcDbEntity
  8
0
100
AcDbLine
 10
1372.97
 20
228.586
 30
0.0
 11
1372.01
 21
229.376
 31
0.0
  0
LINE
  5
285
330
17
100
AcDbEntity
  8
0
100
AcDbLine
 10
1372.01
 20
229.376
 30
0.0
 11
1371.22
 21
230.338
 31
0.0
  0
LINE
  5
286
330
17
100
AcDbEntity
  8
0
100
AcDbLine
 10
1371.22
 20
230.338
 30
0.0
 11
1370.63
 21
231.436
 31
0.0
  0
LINE
  5
287
330
17
100
AcDbEntity
  8
0
100
AcDbLine
 10
1370.63
 20
231.436
 30
0.0
 11
1370.27
 21
232.627
 31
0.0
  0
LINE
  5
288
330
17
100
AcDbEntity
  8
0
100
AcDbLine
 10
1370.27
 20
232.627
 30
0.0
 11
1370.15
 21
233.866
 31
0.0
  0
LINE
  5
289
330
17
100
AcDbEntity
  8
0
100
AcDbLine
 10
1370.15
 20
313.866
 30
0.0
 11
1370.27
 21
315.105
 31
0.0
  0
LINE
  5
28A
330
17
100
AcDbEntity
  8
0
100
AcDbLine
 10
1370.27
 20
315.105
 30
0.0
 11
1370.63
 21
316.296
 31
0.0
  0
LINE
  5
28B
330
17
100
AcDbEntity
  8
0
100
AcDbLine
 10
1370.63
 20
316.296
 30
0.0
 11
1371.22
 21
317.394
 31
0.0
  0
LINE
  5
28C
330
17
100
AcDbEntity
  8
0
100
AcDbLine
 10
1371.22
 20
317.394
 30
0.0
 11
1372.01
 21
318.356
 31
0.0
  0
LINE
  5
28D
330
17
100
AcDbEntity
  8
0
100
AcDbLine
 10
1372.01
 20
318.356
 30
0.0
 11
1372.97
 21
319.146
 31
0.0
  0
LINE
  5
28E
330
17
100
AcDbEntity
  8
0
100
AcDbLine
 10
1372.97
 20
319.146
 30
0.0
 11
1374.07
 21
319.733
 31
0.0
  0
LINE
  5
28F
330
17
100
AcDbEntity
  8
0
100
AcDbLine
 10
1374.07
 20
319.733
 30
0.0
 11
1375.26
 21
320.094
 31
0.0
  0
LINE
  5
290
330
17
100
AcDbEntity
  8
0
100
AcDbLine
 10
1375.26
 20
320.094
 30
0.0
 11
1376.5
 21
320.216
 31
0.0
  0
LINE
  5
291
330
17
100
AcDbEntity
  8
0
100
AcDbLine
 10
1376.5
 20
320.216
 30
0.0
 11
1377.74
 21
320.094
 31
0.0
  0
LINE
  5
292
330
17
100
AcDbEntity
  8
0
100
AcDbLine
 10
1377.74
 20
320.094
 30
0.0
 11
1378.93
 21
319.732
 31
0.0
  0
LINE
  5
293
330
17
100
AcDbEntity
  8
0
100
AcDbLine
 10
1378.93
 20
319.732
 30
0.0
 11
1380.03
 21
319.146
 31
0.0
  0
LINE
  5
294
330
17
100
AcDbEntity
  8
0
100
AcDbLine
 10
1380.03
 20
319.146
 30
0.0
 11
1380.99
 21
318.356
 31
0.0
  0
LINE
  5
295
330
17
100
AcDbEntity
  8
0
100
AcDbLine
 10
1380.99
 20
318.356
 30
0.0
 11
1381.78
 21
317.394
 31
0.0
  0
LINE
  5
296
330
17
100
AcDbEntity
  8
0
100
AcDbLine
 10
1381.78
 20
317.394
 30
0.0
 11
1382.36
 21
316.296
 31
0.0
  0
LINE
  5
297
330
17
100
AcDbEntity
  8
0
100
AcDbLine
 10
1382.36
 20
316.296
 30
0.0
 11
1382.73
 21
315.105
 31
0.0
  0
LINE
  5
298
330
17
100
AcDbEntity
  8
0
100
AcDbLine
 10
1382.73
 20
315.105
 30
0.0
 11
1382.85
 21
313.866
 31
0.0
  0
LINE
  5
299
330
17
100
AcDbEntity
  8
0
100
AcDbLine
 10
1382.85
 20
313.866
 30
0.0
 11
1382.73
 21
312.627
 31
0.0
  0
LINE
  5
29A
330
17
100
AcDbEntity
  8
0
100
AcDbLine
 10
1382.73
 20
312.627
 30
0.0
 11
1382.36
 21
311.436
 31
0.0
  0
LINE
  5
29B
330
17
100
AcDbEntity
  8
0
100
AcDbLine
 10
1382.36
 20
311.436
 30
0.0
 11
1381.78
 21
310.338
 31
0.0
  0
LINE
  5
29C
330
17
100
AcDbEntity
  8
0
100
AcDbLine
 10
1381.78
 20
310.338
 30
0.0
 11
1380.99
 21
309.376
 31
0.0
  0
LINE
  5
29D
330
17
100
AcDbEntity
  8
0
100
AcDbLine
 10
1380.99
 20
309.376
 30
0.0
 11
1380.03
 21
308.586
 31
0.0
  0
LINE
  5
29E
330
17
100
AcDbEntity
  8
0
100
AcDbLine
 10
1380.03
 20
308.586
 30
0.0
 11
1378.93
 21
307.999
 31
0.0
  0
LINE
  5
29F
330
17
100
AcDbEntity
  8
0
100
AcDbLine
 10
1378.93
 20
307.999
 30
0.0
 11
1377.74
 21
307.638
 31
0.0
  0
LINE
  5
2A0
330
17
100
AcDbEntity
  8
0
100
AcDbLine
 10
1377.74
 20
307.638
 30
0.0
 11
1376.5
 21
307.516
 31
0.0
  0
LINE
  5
2A1
330
17
100
AcDbEntity
  8
0
100
AcDbLine
 10
1376.5
 20
307.516
 30
0.0
 11
1375.26
 21
307.638
 31
0.0
  0
LINE
  5
2A2
330
17
100
AcDbEntity
  8
0
100
AcDbLine
 10
1375.26
 20
307.638
 30
0.0
 11
1374.07
 21
307.999
 31
0.0
  0
LINE
  5
2A3
330
17
100
AcDbEntity
  8
0
100
AcDbLine
 10
1374.07
 20
307.999
 30
0.0
 11
1372.97
 21
308.586
 31
0.0
  0
LINE
  5
2A4
330
17
100
AcDbEntity
  8
0
100
AcDbLine
 10
1372.97
 20
308.586
 30
0.0
 11
1372.01
 21
309.376
 31
0.0
  0
LINE
  5
2A5
330
17
100
AcDbEntity
  8
0
100
AcDbLine
 10
1372.01
 20
309.376
 30
0.0
 11
1371.22
 21
310.338
 31
0.0
  0
LINE
  5
2A6
330
17
100
AcDbEntity
  8
0
100
AcDbLine
 10
1371.22
 20
310.338
 30
0.0
 11
1370.63
 21
311.436
 31
0.0
  0
LINE
  5
2A7
330
17
100
AcDbEntity
  8
0
100
AcDbLine
 10
1370.63
 20
311.436
 30
0.0
 11
1370.27
 21
312.627
 31
0.0
  0
LINE
  5
2A8
330
17
100
AcDbEntity
  8
0
100
AcDbLine
 10
1370.27
 20
312.627
 30
0.0
 11
1370.15
 21
313.866
 31
0.0
  0
LINE
  5
2A9
330
17
100
AcDbEntity
  8
0
100
AcDbLine
 10
1470.15
 20
233.864
 30
0.0
 11
1470.27
 21
235.103
 31
0.0
  0
LINE
  5
2AA
330
17
100
AcDbEntity
  8
0
100
AcDbLine
 10
1470.27
 20
235.103
 30
0.0
 11
1470.63
 21
236.294
 31
0.0
  0
LINE
  5
2AB
330
17
100
AcDbEntity
  8
0
100
AcDbLine
 10
1470.63
 20
236.294
 30
0.0
 11
1471.22
 21
237.392
 31
0.0
  0
LINE
  5
2AC
330
17
100
AcDbEntity
  8
0
100
AcDbLine
 10
1471.22
 20
237.392
 30
0.0
 11
1472.01
 21
238.354
 31
0.0
  0
LINE
  5
2AD
330
17
100
AcDbEntity
  8
0
100
AcDbLine
 10
1472.01
 20
238.354
 30
0.0
 11
1472.97
 21
239.144
 31
0.0
  0
LINE
  5
2AE
330
17
100
AcDbEntity
  8
0
100
AcDbLine
 10
1472.97
 20
239.144
 30
0.0
 11
1474.07
 21
239.731
 31
0.0
  0
LINE
  5
2AF
330
17
100
AcDbEntity
  8
0
100
AcDbLine
 10
1474.07
 20
239.731
 30
0.0
 11
1475.26
 21
240.092
 31
0.0
  0
LINE
  5
2B0
330
17
100
AcDbEntity
  8
0
100
AcDbLine
 10
1475.26
 20
240.092
 30
0.0
 11
1476.5
 21
240.214
 31
0.0
  0
LINE
  5
2B1
330
17
100
AcDbEntity
  8
0
100
AcDbLine
 10
1476.5
 20
240.214
 30
0.0
 11
1477.74
 21
240.092
 31
0.0
  0
LINE
  5
2B2
330
17
100
AcDbEntity
  8
0
100
AcDbLine
 10
1477.74
 20
240.092
 30
0.0
 11
1478.93
 21
239.731
 31
0.0
  0
LINE
  5
2B3
330
17
100
AcDbEntity
  8
0
100
AcDbLine
 10
1478.93
 20
239.731
 30
0.0
 11
1480.02
 21
239.144
 31
0.0
  0
LINE
  5
2B4
330
17
100
AcDbEntity
  8
0
100
AcDbLine
 10
1480.02
 20
239.144
 30
0.0
 11
1480.99
 21
238.354
 31
0.0
  0
LINE
  5
2B5
330
17
100
AcDbEntity
  8
0
100
AcDbLine
 10
1480.99
 20
238.354
 30
0.0
 11
1481.78
 21
237.392
 31
0.0
  0
LINE
  5
2B6
330
17
100
AcDbEntity
  8
0
100
AcDbLine
 10
1481.78
 20
237.392
 30
0.0
 11
1482.36
 21
236.294
 31
0.0
  0
LINE
  5
2B7
330
17
100
AcDbEntity
  8
0
100
AcDbLine
 10
1482.36
 20
236.294
 30
0.0
 11
1482.72
 21
235.103
 31
0.0
  0
LINE
  5
2B8
330
17
100
AcDbEntity
  8
0
100
AcDbLine
 10
1482.72
 20
235.103
 30
0.0
 11
1482.85
 21
233.864
 31
0.0
  0
LINE
  5
2B9
330
17
100
AcDbEntity
  8
0
100
AcDbLine
 10
1482.85
 20
233.864
 30
0.0
 11
1482.72
 21
232.625
 31
0.0
  0
LINE
  5
2BA
330
17
100
AcDbEntity
  8
0
100
AcDbLine
 10
1482.72
 20
232.625
 30
0.0
 11
1482.36
 21
231.434
 31
0.0
  0
LINE
  5
2BB
330
17
100
AcDbEntity
  8
0
100
AcDbLine
 10
1482.36
 20
231.434
 30
0.0
 11
1481.78
 21
230.336
 31
0.0
  0
LINE
  5
2BC
330
17
100
AcDbEntity
  8
0
100
AcDbLine
 10
1481.78
 20
230.336
 30
0.0
 11
1480.99
 21
229.374
 31
0.0
  0
LINE
  5
2BD
330
17
100
AcDbEntity
  8
0
100
AcDbLine
 10
1480.99
 20
229.374
 30
0.0
 11
1480.02
 21
228.584
 31
0.0
  0
LINE
  5
2BE
330
17
100
AcDbEntity
  8
0
100
AcDbLine
 10
1480.02
 20
228.584
 30
0.0
 11
1478.93
 21
227.997
 31
0.0
  0
LINE
  5
2BF
330
17
100
AcDbEntity
  8
0
100
AcDbLine
 10
1478.93
 20
227.997
 30
0.0
 11
1477.74
 21
227.636
 31
0.0
  0
LINE
  5
2C0
330
17
100
AcDbEntity
  8
0
100
AcDbLine
 10
1477.74
 20
227.636
 30
0.0
 11
1476.5
 21
227.514
 31
0.0
  0
LINE
  5
2C1
330
17
100
AcDbEntity
  8
0
100
AcDbLine
 10
1476.5
 20
227.514
 30
0.0
 11
1475.26
 21
227.636
 31
0.0
  0
LINE
  5
2C2
330
17
100
AcDbEntity
  8
0
100
AcDbLine
 10
1475.26
 20
227.636
 30
0.0
 11
1474.07
 21
227.998
 31
0.0
  0
LINE
  5
2C3
330
17
100
AcDbEntity
  8
0
100
AcDbLine
 10
1474.07
 20
227.998
 30
0.0
 11
1472.97
 21
228.584
 31
0.0
  0
LINE
  5
2C4
330
17
100
AcDbEntity
  8
0
100
AcDbLine
 10
1472.97
 20
228.584
 30
0.0
 11
1472.01
 21
229.374
 31
0.0
  0
LINE
  5
2C5
330
17
100
AcDbEntity
  8
0
100
AcDbLine
 10
1472.01
 20
229.374
 30
0.0
 11
1471.22
 21
230.336
 31
0.0
  0
LINE
  5
2C6
330
17
100
AcDbEntity
  8
0
100
AcDbLine
 10
1471.22
 20
230.336
 30
0.0
 11
1470.63
 21
231.434
 31
0.0
  0
LINE
  5
2C7
330
17
100
AcDbEntity
  8
0
100
AcDbLine
 10
1470.63
 20
231.434
 30
0.0
 11
1470.27
 21
232.625
 31
0.0
  0
LINE
  5
2C8
330
17
100
AcDbEntity
  8
0
100
AcDbLine
 10
1470.27
 20
232.625
 30
0.0
 11
1470.15
 21
233.864
 31
0.0
  0
LINE
  5
2C9
330
17
100
AcDbEntity
  8
0
100
AcDbLine
 10
1470.15
 20
313.864
 30
0.0
 11
1470.27
 21
315.103
 31
0.0
  0
LINE
  5
2CA
330
17
100
AcDbEntity
  8
0
100
AcDbLine
 10
1470.27
 20
315.103
 30
0.0
 11
1470.63
 21
316.294
 31
0.0
  0
LINE
  5
2CB
330
17
100
AcDbEntity
  8
0
100
AcDbLine
 10
1470.63
 20
316.294
 30
0.0
 11
1471.22
 21
317.392
 31
0.0
  0
LINE
  5
2CC
330
17
100
AcDbEntity
  8
0
100
AcDbLine
 10
1471.22
 20
317.392
 30
0.0
 11
1472.01
 21
318.354
 31
0.0
  0
LINE
  5
2CD
330
17
100
AcDbEntity
  8
0
100
AcDbLine
 10
1472.01
 20
318.354
 30
0.0
 11
1472.97
 21
319.144
 31
0.0
  0
LINE
  5
2CE
330
17
100
AcDbEntity
  8
0
100
AcDbLine
 10
1472.97
 20
319.144
 30
0.0
 11
1474.07
 21
319.731
 31
0.0
  0
LINE
  5
2CF
330
17
100
AcDbEntity
  8
0
100
AcDbLine
 10
1474.07
 20
319.731
 30
0.0
 11
1475.26
 21
320.092
 31
0.0
  0
LINE
  5
2D0
330
17
100
AcDbEntity
  8
0
100
AcDbLine
 10
1475.26
 20
320.092
 30
0.0
 11
1476.5
 21
320.214
 31
0.0
  0
LINE
  5
2D1
330
17
100
AcDbEntity
  8
0
100
AcDbLine
 10
1476.5
 20
320.214
 30
0.0
 11
1477.74
 21
320.092
 31
0.0
  0
LINE
  5
2D2
330
17
100
AcDbEntity
  8
0
100
AcDbLine
 10
1477.74
 20
320.092
 30
0.0
 11
1478.93
 21
319.731
 31
0.0
  0
LINE
  5
2D3
330
17
100
AcDbEntity
  8
0
100
AcDbLine
 10
1478.93
 20
319.731
 30
0.0
 11
1480.03
 21
319.144
 31
0.0
  0
LINE
  5
2D4
330
17
100
AcDbEntity
  8
0
100
AcDbLine
 10
1480.03
 20
319.144
 30
0.0
 11
1480.99
 21
318.354
 31
0.0
  0
LINE
  5
2D5
330
17
100
AcDbEntity
  8
0
100
AcDbLine
 10
1480.99
 20
318.354
 30
0.0
 11
1481.78
 21
317.392
 31
0.0
  0
LINE
  5
2D6
330
17
100
AcDbEntity
  8
0
100
AcDbLine
 10
1481.78
 20
317.392
 30
0.0
 11
1482.36
 21
316.294
 31
0.0
  0
LINE
  5
2D7
330
17
100
AcDbEntity
  8
0
100
AcDbLine
 10
1482.36
 20
316.294
 30
0.0
 11
1482.73
 21
315.103
 31
0.0
  0
LINE
  5
2D8
330
17
100
AcDbEntity
  8
0
100
AcDbLine
 10
1482.73
 20
315.103
 30
0.0
 11
1482.85
 21
313.864
 31
0.0
  0
LINE
  5
2D9
330
17
100
AcDbEntity
  8
0
100
AcDbLine
 10
1482.85
 20
313.864
 30
0.0
 11
1482.73
 21
312.625
 31
0.0
  0
LINE
  5
2DA
330
17
100
AcDbEntity
  8
0
100
AcDbLine
 10
1482.73
 20
312.625
 30
0.0
 11
1482.36
 21
311.434
 31
0.0
  0
LINE
  5
2DB
330
17
100
AcDbEntity
  8
0
100
AcDbLine
 10
1482.36
 20
311.434
 30
0.0
 11
1481.78
 21
310.336
 31
0.0
  0
LINE
  5
2DC
330
17
100
AcDbEntity
  8
0
100
AcDbLine
 10
1481.78
 20
310.336
 30
0.0
 11
1480.99
 21
309.374
 31
0.0
  0
LINE
  5
2DD
330
17
100
AcDbEntity
  8
0
100
AcDbLine
 10
1480.99
 20
309.374
 30
0.0
 11
1480.03
 21
308.584
 31
0.0
  0
LINE
  5
2DE
330
17
100
AcDbEntity
  8
0
100
AcDbLine
 10
1480.03
 20
308.584
 30
0.0
 11
1478.93
 21
307.997
 31
0.0
  0
LINE
  5
2DF
330
17
100
AcDbEntity
  8
0
100
AcDbLine
 10
1478.93
 20
307.997
 30
0.0
 11
1477.74
 21
307.636
 31
0.0
  0
LINE
  5
2E0
330
17
100
AcDbEntity
  8
0
100
AcDbLine
 10
1477.74
 20
307.636
 30
0.0
 11
1476.5
 21
307.514
 31
0.0
  0
LINE
  5
2E1
330
17
100
AcDbEntity
  8
0
100
AcDbLine
 10
1476.5
 20
307.514
 30
0.0
 11
1475.26
 21
307.636
 31
0.0
  0
LINE
  5
2E2
330
17
100
AcDbEntity
  8
0
100
AcDbLine
 10
1475.26
 20
307.636
 30
0.0
 11
1474.07
 21
307.998
 31
0.0
  0
LINE
  5
2E3
330
17
100
AcDbEntity
  8
0
100
AcDbLine
 10
1474.07
 20
307.998
 30
0.0
 11
1472.97
 21
308.584
 31
0.0
  0
LINE
  5
2E4
330
17
100
AcDbEntity
  8
0
100
AcDbLine
 10
1472.97
 20
308.584
 30
0.0
 11
1472.01
 21
309.374
 31
0.0
  0
LINE
  5
2E5
330
17
100
AcDbEntity
  8
0
100
AcDbLine
 10
1472.01
 20
309.374
 30
0.0
 11
1471.22
 21
310.336
 31
0.0
  0
LINE
  5
2E6
330
17
100
AcDbEntity
  8
0
100
AcDbLine
 10
1471.22
 20
310.336
 30
0.0
 11
1470.63
 21
311.434
 31
0.0
  0
LINE
  5
2E7
330
17
100
AcDbEntity
  8
0
100
AcDbLine
 10
1470.63
 20
311.434
 30
0.0
 11
1470.27
 21
312.625
 31
0.0
  0
LINE
  5
2E8
330
17
100
AcDbEntity
  8
0
100
AcDbLine
 10
1470.27
 20
312.625
 30
0.0
 11
1470.15
 21
313.864
 31
0.0
  0
LINE
  5
2E9
330
17
100
AcDbEntity
  8
0
100
AcDbLine
 10
1753.96
 20
26.445
 30
0.0
 11
1754.42
 21
28.892
 31
0.0
  0
LINE
  5
2EA
330
17
100
AcDbEntity
  8
0
100
AcDbLine
 10
1754.42
 20
28.892
 30
0.0
 11
1755.34
 21
31.2024
 31
0.0
  0
LINE
  5
2EB
330
17
100
AcDbEntity
  8
0
100
AcDbLine
 10
1755.34
 20
31.2024
 30
0.0
 11
1756.7
 21
33.2873
 31
0.0
  0
LINE
  5
2EC
330
17
100
AcDbEntity
  8
0
100
AcDbLine
 10
1756.7
 20
33.2873
 30
0.0
 11
1758.45
 21
35.0669
 31
0.0
  0
LINE
  5
2ED
330
17
100
AcDbEntity
  8
0
100
AcDbLine
 10
1758.45
 20
35.0669
 30
0.0
 11
1760.5
 21
36.4725
 31
0.0
  0
LINE
  5
2EE
330
17
100
AcDbEntity
  8
0
100
AcDbLine
 10
1760.5
 20
36.4725
 30
0.0
 11
1762.79
 21
37.4502
 31
0.0
  0
LINE
  5
2EF
330
17
100
AcDbEntity
  8
0
100
AcDbLine
 10
1762.79
 20
37.4502
 30
0.0
 11
1765.23
 21
37.9625
 31
0.0
  0
LINE
  5
2F0
330
17
100
AcDbEntity
  8
0
100
AcDbLine
 10
1765.23
 20
37.9625
 30
0.0
 11
1767.72
 21
37.9896
 31
0.0
  0
LINE
  5
2F1
330
17
100
AcDbEntity
  8
0
100
AcDbLine
 10
1767.72
 20
37.9896
 30
0.0
 11
1770.16
 21
37.5305
 31
0.0
  0
LINE
  5
2F2
330
17
100
AcDbEntity
  8
0
100
AcDbLine
 10
1770.16
 20
37.5305
 30
0.0
 11
1772.47
 21
36.6029
 31
0.0
  0
LINE
  5
2F3
330
17
100
AcDbEntity
  8
0
100
AcDbLine
 10
1772.47
 20
36.6029
 30
0.0
 11
1774.56
 21
35.2423
 31
0.0
  0
LINE
  5
2F4
330
17
100
AcDbEntity
  8
0
100
AcDbLine
 10
1774.56
 20
35.2423
 30
0.0
 11
1776.34
 21
33.5012
 31
0.0
  0
LINE
  5
2F5
330
17
100
AcDbEntity
  8
0
100
AcDbLine
 10
1776.34
 20
33.5012
 30
0.0
 11
1777.74
 21
31.4463
 31
0.0
  0
LINE
  5
2F6
330
17
100
AcDbEntity
  8
0
100
AcDbLine
 10
1777.74
 20
31.4463
 30
0.0
 11
1778.72
 21
29.1567
 31
0.0
  0
LINE
  5
2F7
330
17
100
AcDbEntity
  8
0
100
AcDbLine
 10
1778.72
 20
29.1567
 30
0.0
 11
1779.23
 21
26.7203
 31
0.0
  0
LINE
  5
2F8
330
17
100
AcDbEntity
  8
0
100
AcDbLine
 10
1779.23
 20
26.7203
 30
0.0
 11
1779.26
 21
24.2308
 31
0.0
  0
LINE
  5
2F9
330
17
100
AcDbEntity
  8
0
100
AcDbLine
 10
1779.26
 20
24.2308
 30
0.0
 11
1778.8
 21
21.7839
 31
0.0
  0
LINE
  5
2FA
330
17
100
AcDbEntity
  8
0
100
AcDbLine
 10
1778.8
 20
21.7839
 30
0.0
 11
1777.87
 21
19.4735
 31
0.0
  0
LINE
  5
2FB
330
17
100
AcDbEntity
  8
0
100
AcDbLine
 10
1777.87
 20
19.4735
 30
0.0
 11
1776.51
 21
17.3885
 31
0.0
  0
LINE
  5
2FC
330
17
100
AcDbEntity
  8
0
100
AcDbLine
 10
1776.51
 20
17.3885
 30
0.0
 11
1774.77
 21
15.609
 31
0.0
  0
LINE
  5
2FD
330
17
100
AcDbEntity
  8
0
100
AcDbLine
 10
1774.77
 20
15.609
 30
0.0
 11
1772.72
 21
14.2034
 31
0.0
  0
LINE
  5
2FE
330
17
100
AcDbEntity
  8
0
100
AcDbLine
 10
1772.72
 20
14.2034
 30
0.0
 11
1770.43
 21
13.2257
 31
0.0
  0
LINE
  5
2FF
330
17
100
AcDbEntity
  8
0
100
AcDbLine
 10
1770.43
 20
13.2257
 30
0.0
 11
1767.99
 21
12.7134
 31
0.0
  0
LINE
  5
300
330
17
100
AcDbEntity
  8
0
100
AcDbLine
 10
1767.99
 20
12.7134
 30
0.0
 11
1765.5
 21
12.6863
 31
0.0
  0
LINE
  5
301
330
17
100
AcDbEntity
  8
0
100
AcDbLine
 10
1765.5
 20
12.6863
 30
0.0
 11
1763.05
 21
13.1454
 31
0.0
  0
LINE
  5
302
330
17
100
AcDbEntity
  8
0
100
AcDbLine
 10
1763.05
 20
13.1454
 30
0.0
 11
1760.74
 21
14.073
 31
0.0
  0
LINE
  5
303
330
17
100
AcDbEntity
  8
0
100
AcDbLine
 10
1760.74
 20
14.073
 30
0.0
 11
1758.66
 21
15.4336
 31
0.0
  0
LINE
  5
304
330
17
100
AcDbEntity
  8
0
100
AcDbLine
 10
1758.66
 20
15.4336
 30
0.0
 11
1756.88
 21
17.1747
 31
0.0
  0
LINE
  5
305
330
17
100
AcDbEntity
  8
0
100
AcDbLine
 10
1756.88
 20
17.1747
 30
0.0
 11
1755.47
 21
19.2296
 31
0.0
  0
LINE
  5
306
330
17
100
AcDbEntity
  8
0
100
AcDbLine
 10
1755.47
 20
19.2296
 30
0.0
 11
1754.5
 21
21.5192
 31
0.0
  0
LINE
  5
307
330
17
100
AcDbEntity
  8
0
100
AcDbLine
 10
1754.5
 20
21.5192
 30
0.0
 11
1753.98
 21
23.9556
 31
0.0
  0
LINE
  5
308
330
17
100
AcDbEntity
  8
0
100
AcDbLine
 10
1753.98
 20
23.9556
 30
0.0
 11
1753.96
 21
26.445
 31
0.0
  0
ENDSEC
  0
SECTION
  2
OBJECTS
  0
DICTIONARY
  5
A
330
0
100
AcDbDictionary
281
1
  3
ACAD_COLOR
350
B
  3
ACAD_GROUP
350
C
  3
ACAD_LAYOUT
350
D
  3
ACAD_MATERIAL
350
E
  3
ACAD_MLEADERSTYLE
350
F
  3
ACAD_MLINESTYLE
350
10
  3
ACAD_PLOTSETTINGS
350
11
  3
ACAD_PLOTSTYLENAME
350
12
  3
ACAD_SCALELIST
350
14
  3
ACAD_TABLESTYLE
350
15
  3
ACAD_VISUALSTYLE
350
16
  3
EZDXF_META
350
2D
  0
DICTIONARY
  5
B
330
A
100
AcDbDictionary
281
1
  0
DICTIONARY
  5
C
330
A
100
AcDbDictionary
281
1
  0
DICTIONARY
  5
D
330
A
100
AcDbDictionary
281
1
  3
Model
350
1A
  3
Layout1
350
1E
  0
DICTIONARY
  5
E
330
A
100
AcDbDictionary
281
1
  3
ByBlock
350
1F
  3
ByLayer
350
20
  3
Global
350
21
  0
DICTIONARY
  5
F
330
A
100
AcDbDictionary
281
1
  3
Standard
350
2C
  0
DICTIONARY
  5
10
330
A
100
AcDbDictionary
281
1
  3
Standard
350
22
  0
DICTIONARY
  5
11
330
A
100
AcDbDictionary
281
1
  0
ACDBDICTIONARYWDFLT
  5
12
330
A
100
AcDbDictionary
281
1
  3
Normal
350
13
100
AcDbDictionaryWithDefault
340
13
  0
ACDBPLACEHOLDER
  5
13
330
12
  0
DICTIONARY
  5
14
330
A
100
AcDbDictionary
281
1
  0
DICTIONARY
  5
15
330
A
100
AcDbDictionary
281
1
  0
DICTIONARY
  5
16
330
A
100
AcDbDictionary
281
1
  0
LAYOUT
  5
1A
330
D
100
AcDbPlotSettings
  1

  4
A3
  6

 40
7.5
 41
20.0
 42
7.5
 43
20.0
 44
420.0
 45
297.0
 46
0.0
 47
0.0
 48
0.0
 49
0.0
140
0.0
141
0.0
142
1.0
143
1.0
 70
1024
 72
1
 73
0
 74
5
  7

 75
16
 76
0
 77
2
 78
300
147
1.0
148
0.0
149
0.0
100
AcDbLayout
  1
Model
 70
1
 71
0
 10
0.0
 20
0.0
 11
420.0
 21
297.0
 12
0.0
 22
0.0
 32
0.0
 14
1e+20
 24
1e+20
 34
1e+20
 15
-1e+20
 25
-1e+20
 35
-1e+20
146
0.0
 13
0.0
 23
0.0
 33
0.0
 16
1.0
 26
0.0
 36
0.0
 17
0.0
 27
1.0
 37
0.0
 76
1
330
17
  0
LAYOUT
  5
1E
330
D
100
AcDbPlotSettings
  1

  4
A3
  6

 40
7.5
 41
20.0
 42
7.5
 43
20.0
 44
420.0
 45
297.0
 46
0.0
 47
0.0
 48
0.0
 49
0.0
140
0.0
141
0.0
142
1.0
143
1.0
 70
0
 72
1
 73
0
 74
5
  7

 75
16
 76
0
 77
2
 78
300
147
1.0
148
0.0
149
0.0
100
AcDbLayout
  1
Layout1
 70
1
 71
1
 10
0.0
 20
0.0
 11
420.0
 21
297.0
 12
0.0
 22
0.0
 32
0.0
 14
1e+20
 24
1e+20
 34
1e+20
 15
-1e+20
 25
-1e+20
 35
-1e+20
146
0.0
 13
0.0
 23
0.0
 33
0.0
 16
1.0
 26
0.0
 36
0.0
 17
0.0
 27
1.0
 37
0.0
 76
1
330
1B
  0
MATERIAL
  5
1F
102
{ACAD_REACTORS
330
E
102
}
330
E
100
AcDbMaterial
  1
ByBlock
  2

 70
0
 40
1.0
 71
1
 41
1.0
 91
-1023410177
 42
1.0
 72
1
  3

 73
1
 74
1
 75
1
 44
0.5
 73
0
 45
1.0
 46
1.0
 77
1
  4

 78
1
 79
1
170
1
 48
1.0
171
1
  6

172
1
173
1
174
1
140
1.0
141
1.0
175
1
  7

176
1
177
1
178
1
143
1.0
179
1
  8

270
1
271
1
272
1
145
1.0
146
1.0
273
1
  9

274
1
275
1
276
1
 42
1.0
 72
1
  3

 73
1
 74
1
 75
1
 94
63
  0
MATERIAL
  5
20
102
{ACAD_REACTORS
330
E
102
}
330
E
100
AcDbMaterial
  1
ByLayer
  2

 70
0
 40
1.0
 71
1
 41
1.0
 91
-1023410177
 42
1.0
 72
1
  3

 73
1
 74
1
 75
1
 44
0.5
 73
0
 45
1.0
 46
1.0
 77
1
  4

 78
1
 79
1
170
1
 48
1.0
171
1
  6

172
1
173
1
174
1
140
1.0
141
1.0
175
1
  7

176
1
177
1
178
1
143
1.0
179
1
  8

270
1
271
1
272
1
145
1.0
146
1.0
273
1
  9

274
1
275
1
276
1
 42
1.0
 72
1
  3

 73
1
 74
1
 75
1
 94
63
  0
MATERIAL
  5
21
102
{ACAD_REACTORS
330
E
102
}
330
E
100
AcDbMaterial
  1
Global
  2

 70
0
 40
1.0
 71
1
 41
1.0
 91
-1023410177
 42
1.0
 72
1
  3

 73
1
 74
1
 75
1
 44
0.5
 73
0
 45
1.0
 46
1.0
 77
1
  4

 78
1
 79
1
170
1
 48
1.0
171
1
  6

172
1
173
1
174
1
140
1.0
141
1.0
175
1
  7

176
1
177
1
178
1
143
1.0
179
1
  8

270
1
271
1
272
1
145
1.0
146
1.0
273
1
  9

274
1
275
1
276
1
 42
1.0
 72
1
  3

 73
1
 74
1
 75
1
 94
63
  0
MLINESTYLE
  5
22
102
{ACAD_REACTORS
330
10
102
}
330
10
100
AcDbMlineStyle
  2
Standard
 70
0
  3

 62
256
 51
90.0
 52
90.0
 71
2
 49
0.5
 62
256
  6
BYLAYER
 49
-0.5
 62
256
  6
BYLAYER
  0
MLEADERSTYLE
  5
2C
102
{ACAD_REACTORS
330
F
102
}
330
F
100
AcDbMLeaderStyle
179
2
170
2
171
1
172
0
 90
2
 40
0.0
 41
0.0
173
1
 91
-1056964608
 92
-2
290
1
 42
2.0
291
1
 43
8.0
  3
Standard
 44
4.0
300

342
29
174
1
175
1
176
0
178
1
 93
-1056964608
 45
4.0
292
0
297
0
 46
4.0
 94
-1056964608
 47
1.0
 49
1.0
140
1.0
294
1
141
0.0
177
0
142
1.0
295
0
296
0
143
3.75
271
0
272
9
273
9
  0
DICTIONARY
  5
2D
330
A
100
AcDbDictionary
280
1
281
1
  3
CREATED_BY_EZDXF
350
2E
  3
WRITTEN_BY_EZDXF
350
30B
  0
DICTIONARYVAR
  5
2E
330
2D
100
DictionaryVariables
280
0
  1
0.0 @ 2000-01-01T00:00:00.000000+00:00
  0
DICTIONARYVAR
  5
30B
330
2D
100
DictionaryVariables
280
0
  1
0.0 @ 2000-01-01T00:00:00.000000+00:00
  0
ENDSEC
  0
EOF
